{"asset":{"version":"2.0","generator":"Babylon2Gltf2017","copyright":"2017 (c) BabylonJS"},"scene":0,"scenes":[{"nodes":[0,1,2,3,4,5,6,7,8,9,10,11,12,13]}],"nodes":[{"mesh":0,"translation":[0.0,2.28881836E-05,-1.24952579E-13],"rotation":[0.5000001,-0.5000001,-0.499999851,0.499999881],"scale":[1.0,0.9999999,0.9999999],"name":"044"},{"mesh":1,"translation":[0.0,2.28881836E-05,-1.24952579E-13],"rotation":[0.5000001,-0.5000001,-0.499999851,0.499999881],"scale":[1.0,0.9999998,0.9999998],"name":"对象034"},{"mesh":2,"translation":[0.0,2.28881836E-05,-1.24952579E-13],"rotation":[0.5000001,-0.5000001,-0.499999851,0.499999881],"scale":[1.0,0.9999998,0.9999998],"name":"对象035"},{"mesh":3,"translation":[0.0,2.28881836E-05,-1.24952579E-13],"rotation":[0.5000001,-0.5000001,-0.499999851,0.499999881],"scale":[1.0,0.9999998,0.9999998],"name":"对象036"},{"mesh":4,"translation":[0.0,2.28881836E-05,-1.24952579E-13],"rotation":[0.5000001,-0.5000001,-0.499999851,0.499999881],"scale":[1.0,0.9999998,0.9999998],"name":"对象037"},{"mesh":5,"translation":[0.0,2.28881836E-05,-1.24952579E-13],"rotation":[0.5000001,-0.5000001,-0.499999851,0.499999881],"scale":[1.0,0.9999998,0.9999998],"name":"对象038"},{"mesh":6,"translation":[0.0,2.28881836E-05,-1.24952579E-13],"rotation":[0.5000001,-0.5000001,-0.499999851,0.499999881],"scale":[1.0,0.9999998,0.9999998],"name":"对象039"},{"mesh":7,"translation":[0.0,2.28881836E-05,-1.24952579E-13],"rotation":[0.5000001,-0.5000001,-0.499999851,0.499999881],"scale":[1.0,0.9999998,0.9999998],"name":"对象040"},{"mesh":8,"translation":[0.0,0.0,0.0],"rotation":[0.5000001,-0.5000001,-0.499999851,0.499999881],"scale":[1.0,0.9999998,0.9999998],"name":"对象055"},{"mesh":9,"translation":[0.0,0.0,0.0],"rotation":[0.5000001,-0.5000001,-0.499999851,0.499999881],"scale":[1.0,0.9999998,0.9999998],"name":"对象056"},{"mesh":10,"translation":[0.0,0.0,0.0],"rotation":[0.5000001,-0.5000001,-0.499999851,0.499999881],"scale":[1.0,0.9999998,0.9999998],"name":"对象057"},{"mesh":11,"translation":[0.0,0.0,0.0],"rotation":[0.5000001,-0.5000001,-0.499999851,0.499999881],"scale":[1.0,0.9999998,0.9999998],"name":"对象058"},{"mesh":12,"translation":[0.0,0.0,0.0],"rotation":[0.5000001,-0.5000001,-0.499999851,0.499999881],"scale":[1.0,0.9999998,0.9999998],"name":"对象059"},{"mesh":13,"translation":[0.0,0.0,0.0],"rotation":[0.5000001,-0.5000001,-0.499999851,0.499999881],"scale":[1.0,0.9999998,0.9999998],"name":"对象060"}],"meshes":[{"primitives":[{"attributes":{"POSITION":1,"NORMAL":2,"TEXCOORD_0":3},"indices":0,"mode":4,"material":0}],"name":"044"},{"primitives":[{"attributes":{"POSITION":5,"NORMAL":6,"TEXCOORD_0":7},"indices":4,"mode":4,"material":0}],"name":"对象034"},{"primitives":[{"attributes":{"POSITION":9,"NORMAL":10,"TEXCOORD_0":11},"indices":8,"mode":4,"material":0}],"name":"对象035"},{"primitives":[{"attributes":{"POSITION":13,"NORMAL":14,"TEXCOORD_0":15},"indices":12,"mode":4,"material":0}],"name":"对象036"},{"primitives":[{"attributes":{"POSITION":17,"NORMAL":18,"TEXCOORD_0":19},"indices":16,"mode":4,"material":0}],"name":"对象037"},{"primitives":[{"attributes":{"POSITION":21,"NORMAL":22,"TEXCOORD_0":23},"indices":20,"mode":4,"material":0}],"name":"对象038"},{"primitives":[{"attributes":{"POSITION":25,"NORMAL":26,"TEXCOORD_0":27},"indices":24,"mode":4,"material":0}],"name":"对象039"},{"primitives":[{"attributes":{"POSITION":29,"NORMAL":30,"TEXCOORD_0":31},"indices":28,"mode":4,"material":0}],"name":"对象040"},{"primitives":[{"attributes":{"POSITION":33,"NORMAL":34,"TEXCOORD_0":35},"indices":32,"mode":4,"material":0}],"name":"对象055"},{"primitives":[{"attributes":{"POSITION":37,"NORMAL":38,"TEXCOORD_0":39},"indices":36,"mode":4,"material":0}],"name":"对象056"},{"primitives":[{"attributes":{"POSITION":41,"NORMAL":42,"TEXCOORD_0":43},"indices":40,"mode":4,"material":0}],"name":"对象057"},{"primitives":[{"attributes":{"POSITION":45,"NORMAL":46,"TEXCOORD_0":47},"indices":44,"mode":4,"material":0}],"name":"对象058"},{"primitives":[{"attributes":{"POSITION":49,"NORMAL":50,"TEXCOORD_0":51},"indices":48,"mode":4,"material":0}],"name":"对象059"},{"primitives":[{"attributes":{"POSITION":53,"NORMAL":54,"TEXCOORD_0":55},"indices":52,"mode":4,"material":0}],"name":"对象060"}],"accessors":[{"bufferView":0,"componentType":5123,"count":2592,"type":"SCALAR","name":"accessorIndices"},{"bufferView":1,"componentType":5126,"count":2592,"max":[-14.0000553,-13.9999838,36.0000038],"min":[-36.0000534,-35.99998,14.0000057],"type":"VEC3","name":"accessorPositions"},{"bufferView":1,"byteOffset":31104,"componentType":5126,"count":2592,"type":"VEC3","name":"accessorNormals"},{"bufferView":2,"componentType":5126,"count":2592,"type":"VEC2","name":"accessorUVs"},{"bufferView":0,"byteOffset":5184,"componentType":5123,"count":2592,"type":"SCALAR","name":"accessorIndices"},{"bufferView":1,"byteOffset":62208,"componentType":5126,"count":2592,"max":[-13.9999628,-14.0000134,-13.9999914],"min":[-35.99996,-36.00001,-35.99999],"type":"VEC3","name":"accessorPositions"},{"bufferView":1,"byteOffset":93312,"componentType":5126,"count":2592,"type":"VEC3","name":"accessorNormals"},{"bufferView":2,"byteOffset":20736,"componentType":5126,"count":2592,"type":"VEC2","name":"accessorUVs"},{"bufferView":0,"byteOffset":10368,"componentType":5123,"count":2592,"type":"SCALAR","name":"accessorIndices"},{"bufferView":1,"byteOffset":124416,"componentType":5126,"count":2592,"max":[36.0000534,-14.0000048,-13.9999933],"min":[14.0000553,-36.0,-35.9999924],"type":"VEC3","name":"accessorPositions"},{"bufferView":1,"byteOffset":155520,"componentType":5126,"count":2592,"type":"VEC3","name":"accessorNormals"},{"bufferView":2,"byteOffset":41472,"componentType":5126,"count":2592,"type":"VEC2","name":"accessorUVs"},{"bufferView":0,"byteOffset":15552,"componentType":5123,"count":2592,"type":"SCALAR","name":"accessorIndices"},{"bufferView":1,"byteOffset":186624,"componentType":5126,"count":2592,"max":[-13.9999771,36.0,-14.1356421],"min":[-35.9999771,14.0000029,-36.1356354],"type":"VEC3","name":"accessorPositions"},{"bufferView":1,"byteOffset":217728,"componentType":5126,"count":2592,"type":"VEC3","name":"accessorNormals"},{"bufferView":2,"byteOffset":62208,"componentType":5126,"count":2592,"type":"VEC2","name":"accessorUVs"},{"bufferView":0,"byteOffset":20736,"componentType":5123,"count":2592,"type":"SCALAR","name":"accessorIndices"},{"bufferView":1,"byteOffset":248832,"componentType":5126,"count":2592,"max":[36.0000229,35.99999,-14.0000076],"min":[14.0000229,13.9999952,-36.0000038],"type":"VEC3","name":"accessorPositions"},{"bufferView":1,"byteOffset":279936,"componentType":5126,"count":2592,"type":"VEC3","name":"accessorNormals"},{"bufferView":2,"byteOffset":82944,"componentType":5126,"count":2592,"type":"VEC2","name":"accessorUVs"},{"bufferView":0,"byteOffset":25920,"componentType":5123,"count":2592,"type":"SCALAR","name":"accessorIndices"},{"bufferView":1,"byteOffset":311040,"componentType":5126,"count":2592,"max":[36.0000229,36.00001,35.9999847],"min":[14.0000248,14.0000143,13.99999],"type":"VEC3","name":"accessorPositions"},{"bufferView":1,"byteOffset":342144,"componentType":5126,"count":2592,"type":"VEC3","name":"accessorNormals"},{"bufferView":2,"byteOffset":103680,"componentType":5126,"count":2592,"type":"VEC2","name":"accessorUVs"},{"bufferView":0,"byteOffset":31104,"componentType":5123,"count":2592,"type":"SCALAR","name":"accessorIndices"},{"bufferView":1,"byteOffset":373248,"componentType":5126,"count":2592,"max":[-13.9999743,36.0000076,35.9999847],"min":[-35.9999733,14.0000105,13.9999886],"type":"VEC3","name":"accessorPositions"},{"bufferView":1,"byteOffset":404352,"componentType":5126,"count":2592,"type":"VEC3","name":"accessorNormals"},{"bufferView":2,"byteOffset":124416,"componentType":5126,"count":2592,"type":"VEC2","name":"accessorUVs"},{"bufferView":0,"byteOffset":36288,"componentType":5123,"count":2592,"type":"SCALAR","name":"accessorIndices"},{"bufferView":1,"byteOffset":435456,"componentType":5126,"count":2592,"max":[36.00003,-13.9999561,36.0],"min":[14.0000267,-35.9999542,14.0000038],"type":"VEC3","name":"accessorPositions"},{"bufferView":1,"byteOffset":466560,"componentType":5126,"count":2592,"type":"VEC3","name":"accessorNormals"},{"bufferView":2,"byteOffset":145152,"componentType":5126,"count":2592,"type":"VEC2","name":"accessorUVs"},{"bufferView":0,"byteOffset":41472,"componentType":5123,"count":1530,"type":"SCALAR","name":"accessorIndices"},{"bufferView":1,"byteOffset":497664,"componentType":5126,"count":1530,"max":[36.0000229,11.0000019,11.0000019],"min":[24.9999981,-11.0000019,-11.0],"type":"VEC3","name":"accessorPositions"},{"bufferView":1,"byteOffset":516024,"componentType":5126,"count":1530,"type":"VEC3","name":"accessorNormals"},{"bufferView":2,"byteOffset":165888,"componentType":5126,"count":1530,"type":"VEC2","name":"accessorUVs"},{"bufferView":0,"byteOffset":44532,"componentType":5123,"count":1530,"type":"SCALAR","name":"accessorIndices"},{"bufferView":1,"byteOffset":534384,"componentType":5126,"count":1530,"max":[-25.0,11.0000153,11.0],"min":[-36.00002,-10.9999847,-11.0000019],"type":"VEC3","name":"accessorPositions"},{"bufferView":1,"byteOffset":552744,"componentType":5126,"count":1530,"type":"VEC3","name":"accessorNormals"},{"bufferView":2,"byteOffset":178128,"componentType":5126,"count":1530,"type":"VEC2","name":"accessorUVs"},{"bufferView":0,"byteOffset":47592,"componentType":5123,"count":1530,"type":"SCALAR","name":"accessorIndices"},{"bufferView":1,"byteOffset":571104,"componentType":5126,"count":1530,"max":[10.999999,-24.9999962,11.000021],"min":[-11.000001,-36.0000229,-10.9999809],"type":"VEC3","name":"accessorPositions"},{"bufferView":1,"byteOffset":589464,"componentType":5126,"count":1530,"type":"VEC3","name":"accessorNormals"},{"bufferView":2,"byteOffset":190368,"componentType":5126,"count":1530,"type":"VEC2","name":"accessorUVs"},{"bufferView":0,"byteOffset":50652,"componentType":5123,"count":1530,"type":"SCALAR","name":"accessorIndices"},{"bufferView":1,"byteOffset":607824,"componentType":5126,"count":1530,"max":[11.000001,10.9999866,-25.0000057],"min":[-10.999999,-11.0000134,-36.0000229],"type":"VEC3","name":"accessorPositions"},{"bufferView":1,"byteOffset":626184,"componentType":5126,"count":1530,"type":"VEC3","name":"accessorNormals"},{"bufferView":2,"byteOffset":202608,"componentType":5126,"count":1530,"type":"VEC2","name":"accessorUVs"},{"bufferView":0,"byteOffset":53712,"componentType":5123,"count":1530,"type":"SCALAR","name":"accessorIndices"},{"bufferView":1,"byteOffset":644544,"componentType":5126,"count":1530,"max":[11.0000019,11.0000305,36.00002],"min":[-10.9999981,-10.9999733,25.0000019],"type":"VEC3","name":"accessorPositions"},{"bufferView":1,"byteOffset":662904,"componentType":5126,"count":1530,"type":"VEC3","name":"accessorNormals"},{"bufferView":2,"byteOffset":214848,"componentType":5126,"count":1530,"type":"VEC2","name":"accessorUVs"},{"bufferView":0,"byteOffset":56772,"componentType":5123,"count":1530,"type":"SCALAR","name":"accessorIndices"},{"bufferView":1,"byteOffset":681264,"componentType":5126,"count":1530,"max":[10.9999971,36.0000267,10.9999657],"min":[-11.0000029,25.0000057,-11.0000362],"type":"VEC3","name":"accessorPositions"},{"bufferView":1,"byteOffset":699624,"componentType":5126,"count":1530,"type":"VEC3","name":"accessorNormals"},{"bufferView":2,"byteOffset":227088,"componentType":5126,"count":1530,"type":"VEC2","name":"accessorUVs"},{"bufferView":3,"componentType":5126,"count":21,"max":[1.6],"min":[0.0],"type":"SCALAR","name":"accessorAnimationInput"},{"bufferView":4,"componentType":5126,"count":21,"type":"VEC3","name":"accessorAnimationPositions"},{"bufferView":3,"byteOffset":84,"componentType":5126,"count":21,"max":[1.6],"min":[0.0],"type":"SCALAR","name":"accessorAnimationInput"},{"bufferView":4,"byteOffset":252,"componentType":5126,"count":21,"type":"VEC3","name":"accessorAnimationPositions"},{"bufferView":3,"byteOffset":168,"componentType":5126,"count":21,"max":[1.6],"min":[0.0],"type":"SCALAR","name":"accessorAnimationInput"},{"bufferView":4,"byteOffset":504,"componentType":5126,"count":21,"type":"VEC3","name":"accessorAnimationPositions"},{"bufferView":3,"byteOffset":252,"componentType":5126,"count":21,"max":[1.6],"min":[0.0],"type":"SCALAR","name":"accessorAnimationInput"},{"bufferView":4,"byteOffset":756,"componentType":5126,"count":21,"type":"VEC3","name":"accessorAnimationPositions"},{"bufferView":3,"byteOffset":336,"componentType":5126,"count":21,"max":[1.6],"min":[0.0],"type":"SCALAR","name":"accessorAnimationInput"},{"bufferView":4,"byteOffset":1008,"componentType":5126,"count":21,"type":"VEC3","name":"accessorAnimationPositions"},{"bufferView":3,"byteOffset":420,"componentType":5126,"count":21,"max":[1.6],"min":[0.0],"type":"SCALAR","name":"accessorAnimationInput"},{"bufferView":4,"byteOffset":1260,"componentType":5126,"count":21,"type":"VEC3","name":"accessorAnimationPositions"},{"bufferView":3,"byteOffset":504,"componentType":5126,"count":21,"max":[1.6],"min":[0.0],"type":"SCALAR","name":"accessorAnimationInput"},{"bufferView":4,"byteOffset":1512,"componentType":5126,"count":21,"type":"VEC3","name":"accessorAnimationPositions"},{"bufferView":3,"byteOffset":588,"componentType":5126,"count":21,"max":[1.6],"min":[0.0],"type":"SCALAR","name":"accessorAnimationInput"},{"bufferView":4,"byteOffset":1764,"componentType":5126,"count":21,"type":"VEC3","name":"accessorAnimationPositions"},{"bufferView":3,"byteOffset":672,"componentType":5126,"count":21,"max":[1.6],"min":[0.0],"type":"SCALAR","name":"accessorAnimationInput"},{"bufferView":4,"byteOffset":2016,"componentType":5126,"count":21,"type":"VEC3","name":"accessorAnimationPositions"},{"bufferView":3,"byteOffset":756,"componentType":5126,"count":21,"max":[1.6],"min":[0.0],"type":"SCALAR","name":"accessorAnimationInput"},{"bufferView":4,"byteOffset":2268,"componentType":5126,"count":21,"type":"VEC3","name":"accessorAnimationPositions"},{"bufferView":3,"byteOffset":840,"componentType":5126,"count":21,"max":[1.6],"min":[0.0],"type":"SCALAR","name":"accessorAnimationInput"},{"bufferView":4,"byteOffset":2520,"componentType":5126,"count":21,"type":"VEC3","name":"accessorAnimationPositions"},{"bufferView":3,"byteOffset":924,"componentType":5126,"count":21,"max":[1.6],"min":[0.0],"type":"SCALAR","name":"accessorAnimationInput"},{"bufferView":4,"byteOffset":2772,"componentType":5126,"count":21,"type":"VEC3","name":"accessorAnimationPositions"},{"bufferView":3,"byteOffset":1008,"componentType":5126,"count":21,"max":[1.6],"min":[0.0],"type":"SCALAR","name":"accessorAnimationInput"},{"bufferView":4,"byteOffset":3024,"componentType":5126,"count":21,"type":"VEC3","name":"accessorAnimationPositions"},{"bufferView":3,"byteOffset":1092,"componentType":5126,"count":21,"max":[1.6],"min":[0.0],"type":"SCALAR","name":"accessorAnimationInput"},{"bufferView":4,"byteOffset":3276,"componentType":5126,"count":21,"type":"VEC3","name":"accessorAnimationPositions"}],"bufferViews":[{"buffer":0,"byteLength":59832,"name":"bufferViewScalar"},{"buffer":0,"byteOffset":59832,"byteLength":717984,"byteStride":12,"name":"bufferViewFloatVec3"},{"buffer":0,"byteOffset":777816,"byteLength":239328,"byteStride":8,"name":"bufferViewFloatVec2"},{"buffer":0,"byteOffset":1017144,"byteLength":1176,"name":"bufferViewAnimationFloatScalar"},{"buffer":0,"byteOffset":1018320,"byteLength":3528,"name":"bufferViewAnimationFloatVec3"}],"buffers":[{"uri":"jingbao2.bin","byteLength":1021848}],"materials":[{"pbrMetallicRoughness":{"baseColorFactor":[0.612745166,0.612745166,0.612745166,1.0],"metallicFactor":0.0,"roughnessFactor":0.9},"emissiveFactor":[0.0,0.0,0.0],"alphaMode":"OPAQUE","name":"01 - Default"}],"animations":[{"channels":[{"sampler":0,"target":{"node":0,"path":"translation"}},{"sampler":1,"target":{"node":1,"path":"translation"}},{"sampler":2,"target":{"node":2,"path":"translation"}},{"sampler":3,"target":{"node":3,"path":"translation"}},{"sampler":4,"target":{"node":4,"path":"translation"}},{"sampler":5,"target":{"node":5,"path":"translation"}},{"sampler":6,"target":{"node":6,"path":"translation"}},{"sampler":7,"target":{"node":7,"path":"translation"}},{"sampler":8,"target":{"node":8,"path":"translation"}},{"sampler":9,"target":{"node":9,"path":"translation"}},{"sampler":10,"target":{"node":10,"path":"translation"}},{"sampler":11,"target":{"node":11,"path":"translation"}},{"sampler":12,"target":{"node":12,"path":"translation"}},{"sampler":13,"target":{"node":13,"path":"translation"}}],"samplers":[{"input":56,"interpolation":"LINEAR","output":57},{"input":58,"interpolation":"LINEAR","output":59},{"input":60,"interpolation":"LINEAR","output":61},{"input":62,"interpolation":"LINEAR","output":63},{"input":64,"interpolation":"LINEAR","output":65},{"input":66,"interpolation":"LINEAR","output":67},{"input":68,"interpolation":"LINEAR","output":69},{"input":70,"interpolation":"LINEAR","output":71},{"input":72,"interpolation":"LINEAR","output":73},{"input":74,"interpolation":"LINEAR","output":75},{"input":76,"interpolation":"LINEAR","output":77},{"input":78,"interpolation":"LINEAR","output":79},{"input":80,"interpolation":"LINEAR","output":81},{"input":82,"interpolation":"LINEAR","output":83}]}]}