{"asset":{"version":"2.0","generator":"Babylon2Gltf2017","copyright":"2017 (c) BabylonJS"},"scene":0,"scenes":[{"nodes":[0]}],"nodes":[{"mesh":0,"translation":[0.0,0.0,0.0],"rotation":[0.0,0.0,0.0,-1.0],"scale":[1.0,1.0,1.0],"name":"Box001"}],"meshes":[{"primitives":[{"attributes":{"POSITION":1,"NORMAL":2,"TEXCOORD_0":3},"indices":0,"mode":4,"material":0},{"attributes":{"POSITION":5,"NORMAL":6,"TEXCOORD_0":7},"indices":4,"mode":4,"material":1},{"attributes":{"POSITION":9,"NORMAL":10,"TEXCOORD_0":11},"indices":8,"mode":4,"material":2},{"attributes":{"POSITION":13,"NORMAL":14,"TEXCOORD_0":15},"indices":12,"mode":4,"material":3},{"attributes":{"POSITION":17,"NORMAL":18,"TEXCOORD_0":19},"indices":16,"mode":4,"material":4}],"name":"Box001"}],"accessors":[{"bufferView":0,"componentType":5123,"count":8256,"type":"SCALAR","name":"accessorIndices"},{"bufferView":1,"componentType":5126,"count":8256,"max":[6.38100433,5.56627655,6.37665749],"min":[-6.37665558,-5.56627655,-6.381004],"type":"VEC3","name":"accessorPositions"},{"bufferView":1,"byteOffset":99072,"componentType":5126,"count":8256,"type":"VEC3","name":"accessorNormals"},{"bufferView":2,"componentType":5126,"count":8256,"type":"VEC2","name":"accessorUVs"},{"bufferView":0,"byteOffset":16512,"componentType":5123,"count":7464,"type":"SCALAR","name":"accessorIndices"},{"bufferView":1,"byteOffset":198144,"componentType":5126,"count":7464,"max":[-4.49991226,12.3900728,3.56637931],"min":[-14.4590378,3.24350071,-3.57317829],"type":"VEC3","name":"accessorPositions"},{"bufferView":1,"byteOffset":287712,"componentType":5126,"count":7464,"type":"VEC3","name":"accessorNormals"},{"bufferView":2,"byteOffset":66048,"componentType":5126,"count":7464,"type":"VEC2","name":"accessorUVs"},{"bufferView":0,"byteOffset":31440,"componentType":5123,"count":7464,"type":"SCALAR","name":"accessorIndices"},{"bufferView":1,"byteOffset":377280,"componentType":5126,"count":7464,"max":[14.45904,12.3983212,3.56638026],"min":[4.50251,3.24831963,-3.57317734],"type":"VEC3","name":"accessorPositions"},{"bufferView":1,"byteOffset":466848,"componentType":5126,"count":7464,"type":"VEC3","name":"accessorNormals"},{"bufferView":2,"byteOffset":125760,"componentType":5126,"count":7464,"type":"VEC2","name":"accessorUVs"},{"bufferView":0,"byteOffset":46368,"componentType":5123,"count":7464,"type":"SCALAR","name":"accessorIndices"},{"bufferView":1,"byteOffset":556416,"componentType":5126,"count":7464,"max":[3.57318115,-3.24350071,14.4590378],"min":[-3.56637764,-12.3900728,4.49991369],"type":"VEC3","name":"accessorPositions"},{"bufferView":1,"byteOffset":645984,"componentType":5126,"count":7464,"type":"VEC3","name":"accessorNormals"},{"bufferView":2,"byteOffset":185472,"componentType":5126,"count":7464,"type":"VEC2","name":"accessorUVs"},{"bufferView":0,"byteOffset":61296,"componentType":5123,"count":7464,"type":"SCALAR","name":"accessorIndices"},{"bufferView":1,"byteOffset":735552,"componentType":5126,"count":7464,"max":[3.57318115,-3.24831963,-4.50250864],"min":[-3.56637764,-12.3983212,-14.4590378],"type":"VEC3","name":"accessorPositions"},{"bufferView":1,"byteOffset":825120,"componentType":5126,"count":7464,"type":"VEC3","name":"accessorNormals"},{"bufferView":2,"byteOffset":245184,"componentType":5126,"count":7464,"type":"VEC2","name":"accessorUVs"}],"bufferViews":[{"buffer":0,"byteLength":76224,"name":"bufferViewScalar"},{"buffer":0,"byteOffset":76224,"byteLength":914688,"byteStride":12,"name":"bufferViewFloatVec3"},{"buffer":0,"byteOffset":990912,"byteLength":304896,"byteStride":8,"name":"bufferViewFloatVec2"}],"buffers":[{"uri":"jllls.bin","byteLength":1295808}],"materials":[{"pbrMetallicRoughness":{"baseColorFactor":[1.0,1.0,1.0,1.0],"baseColorTexture":{"index":0},"metallicFactor":0.0,"roughnessFactor":0.9},"emissiveFactor":[0.0,0.0,0.0],"alphaMode":"BLEND","name":"Material126"},{"pbrMetallicRoughness":{"baseColorFactor":[1.0,1.0,1.0,1.0],"baseColorTexture":{"index":1},"metallicFactor":0.0,"roughnessFactor":0.9},"emissiveFactor":[0.0,0.0,0.0],"alphaMode":"BLEND","name":"Material8256"},{"pbrMetallicRoughness":{"baseColorFactor":[1.0,1.0,1.0,1.0],"baseColorTexture":{"index":2},"metallicFactor":0.0,"roughnessFactor":0.9},"emissiveFactor":[0.0,0.0,0.0],"alphaMode":"BLEND","name":"Material8257"},{"pbrMetallicRoughness":{"baseColorFactor":[1.0,1.0,1.0,1.0],"baseColorTexture":{"index":3},"metallicFactor":0.0,"roughnessFactor":0.9},"emissiveFactor":[0.0,0.0,0.0],"alphaMode":"BLEND","name":"Material8254"},{"pbrMetallicRoughness":{"baseColorFactor":[1.0,1.0,1.0,1.0],"baseColorTexture":{"index":4},"metallicFactor":0.0,"roughnessFactor":0.9},"emissiveFactor":[0.0,0.0,0.0],"alphaMode":"BLEND","name":"Material8255"}],"textures":[{"sampler":0,"source":0,"name":"Material126_baseColor.png"},{"sampler":1,"source":1,"name":"Material8256_baseColor.png"},{"sampler":2,"source":2,"name":"Material8257_baseColor.png"},{"sampler":3,"source":3,"name":"Material8254_baseColor.png"},{"sampler":4,"source":4,"name":"Material8255_baseColor.png"}],"images":[{"uri":"Material126_baseColor.png"},{"uri":"Material8256_baseColor.png"},{"uri":"Material8257_baseColor.png"},{"uri":"Material8254_baseColor.png"},{"uri":"Material8255_baseColor.png"}],"samplers":[{"magFilter":9729,"minFilter":9987,"wrapS":10497,"wrapT":10497},{"magFilter":9729,"minFilter":9987,"wrapS":10497,"wrapT":10497},{"magFilter":9729,"minFilter":9987,"wrapS":10497,"wrapT":10497},{"magFilter":9729,"minFilter":9987,"wrapS":10497,"wrapT":10497},{"magFilter":9729,"minFilter":9987,"wrapS":10497,"wrapT":10497}]}