{"asset":{"version":"2.0","generator":"Babylon2Gltf2017","copyright":"2017 (c) BabylonJS"},"scene":0,"scenes":[{"nodes":[0]}],"nodes":[{"mesh":0,"translation":[0.0,0.0,0.0],"rotation":[0.0,0.0,0.0,-1.0],"scale":[1.0,1.0,1.0],"name":"GeoSphere604"}],"meshes":[{"primitives":[{"attributes":{"POSITION":1,"NORMAL":2,"TEXCOORD_0":3},"indices":0,"mode":4,"material":0}],"name":"GeoSphere604"}],"accessors":[{"bufferView":0,"componentType":5123,"count":6000,"type":"SCALAR","name":"accessorIndices"},{"bufferView":1,"componentType":5126,"count":6000,"max":[59.5658569,-20.1334763,79.38279],"min":[-59.5657349,-60.1334763,-39.69775],"type":"VEC3","name":"accessorPositions"},{"bufferView":1,"byteOffset":72000,"componentType":5126,"count":6000,"type":"VEC3","name":"accessorNormals"},{"bufferView":2,"componentType":5126,"count":6000,"type":"VEC2","name":"accessorUVs"}],"bufferViews":[{"buffer":0,"byteLength":12000,"name":"bufferViewScalar"},{"buffer":0,"byteOffset":12000,"byteLength":144000,"byteStride":12,"name":"bufferViewFloatVec3"},{"buffer":0,"byteOffset":156000,"byteLength":48000,"byteStride":8,"name":"bufferViewFloatVec2"}],"buffers":[{"uri":"2.bin","byteLength":204000}],"materials":[{"pbrMetallicRoughness":{"baseColorFactor":[1.0,1.0,1.0,1.0],"baseColorTexture":{"index":0},"metallicFactor":0.0,"roughnessFactor":0.9},"emissiveFactor":[0.0,0.0,0.0],"alphaMode":"BLEND","name":"Material #26"}],"textures":[{"sampler":0,"source":0,"name":"image01.png"}],"images":[{"uri":"image01.png"}],"samplers":[{"magFilter":9729,"minFilter":9987,"wrapS":10497,"wrapT":10497}]}