{"asset":{"version":"2.0","generator":"Babylon2Gltf2017","copyright":"2017 (c) BabylonJS"},"scene":0,"scenes":[{"nodes":[0]}],"nodes":[{"mesh":0,"translation":[0.0,0.0,0.0],"rotation":[0.5,-0.5,-0.50000006,-0.5],"scale":[1.0,1.0,1.0],"name":"GeoSphere614"}],"meshes":[{"primitives":[{"attributes":{"POSITION":1,"NORMAL":2,"TEXCOORD_0":3},"indices":0,"mode":4,"material":0}],"name":"GeoSphere614"}],"accessors":[{"bufferView":0,"componentType":5123,"count":4956,"type":"SCALAR","name":"accessorIndices"},{"bufferView":1,"componentType":5126,"count":4956,"max":[-16.1291142,42.9580765,4.1504097],"min":[-60.6036072,-2.91070461,-41.8345947],"type":"VEC3","name":"accessorPositions"},{"bufferView":1,"byteOffset":59472,"componentType":5126,"count":4956,"type":"VEC3","name":"accessorNormals"},{"bufferView":2,"componentType":5126,"count":4956,"type":"VEC2","name":"accessorUVs"}],"bufferViews":[{"buffer":0,"byteLength":9912,"name":"bufferViewScalar"},{"buffer":0,"byteOffset":9912,"byteLength":118944,"byteStride":12,"name":"bufferViewFloatVec3"},{"buffer":0,"byteOffset":128856,"byteLength":39648,"byteStride":8,"name":"bufferViewFloatVec2"}],"buffers":[{"uri":"7.bin","byteLength":168504}],"materials":[{"pbrMetallicRoughness":{"baseColorFactor":[1.0,1.0,1.0,1.0],"baseColorTexture":{"index":0},"metallicFactor":0.0,"roughnessFactor":0.9},"emissiveFactor":[0.0,0.0,0.0],"alphaMode":"BLEND","name":"Material #26"}],"textures":[{"sampler":0,"source":0,"name":"image01.png"}],"images":[{"uri":"image01.png"}],"samplers":[{"magFilter":9729,"minFilter":9987,"wrapS":10497,"wrapT":10497}]}