<?xml version="1.0" encoding="UTF-8"?>
<svg width="369px" height="365px" viewBox="0 0 369 365" version="1.1" xmlns="http://www.w3.org/2000/svg" xmlns:xlink="http://www.w3.org/1999/xlink">
    <!-- Generator: Sketch 58 (84663) - https://sketch.com -->
    <title>整体</title>
    <desc>Created with Sketch.</desc>
    <g id="七巧板" stroke="none" stroke-width="1" fill="none" fill-rule="evenodd">
        <g transform="translate(-363.000000, -154.000000)" id="编组" stroke="#FFFFFF">
            <g transform="translate(363.000000, 154.000000)">
                <g id="整体" transform="translate(1.000000, 1.000000)">
                    <polygon id="路径-8" fill="#F9B313" points="-1.42108547e-14 -2.84217094e-14 -1.42108547e-14 177.833241 181.308784 -2.84217094e-14"></polygon>
                    <polygon id="路径-8" fill="#F8E719" points="274.290239 92.6073294 184.504733 182.392836 91.1708718 89.0589748 181.308784 1.62029196e-13"></polygon>
                    <polygon id="路径-8" fill="#35C5C0" points="274.290239 92.6073294 367.318847 7.38964445e-13 181.308784 9.09749225e-14"></polygon>
                    <polygon id="路径-8" fill="#D1A37C" points="184.504733 182.392836 367.318847 3.41060513e-13 367.318847 362.597038"></polygon>
                    <polygon id="路径-8" fill="#FA3A48" points="184.504733 182.392836 0 362.597038 367.318847 362.597038"></polygon>
                    <polygon id="路径-8" fill="#FD8778" points="184.504733 182.392836 91.1708718 272.494937 91.1708718 88.9166207"></polygon>
                    <polygon id="路径-8" fill="#A9CC34" points="1.49213975e-13 362.597038 91.1708718 272.494937 91.1708718 88.9166207 1.49213975e-13 177.833241"></polygon>
                </g>
            </g>
        </g>
    </g>
</svg>