{"asset":{"version":"2.0","generator":"babylon.js glTF exporter for maya 2018 v1.2.16","copyright":"2017 (c) BabylonJS"},"extensionsUsed":["KHR_lights"],"scene":0,"scenes":[{"nodes":[0],"extensions":{"KHR_lights":{"light":0}}}],"nodes":[{"children":[1,2,3,4,5,6,7,8,9],"translation":[0.0,0.0,0.0],"rotation":[0.0,0.0,0.0,1.0],"scale":[1.0,1.0,1.0],"name":"caolvchong"},{"mesh":0,"translation":[1.53187084,-0.333985269,0.423773885],"rotation":[0.0,0.0,0.0,1.0],"scale":[1.1693275,1.1693275,1.1693275],"name":"xibaohe_l"},{"mesh":1,"translation":[-0.7245694,0.02411734,-0.397456437],"rotation":[0.0,0.00269041979,0.0,0.999996364],"scale":[0.242818817,0.156360567,0.1718448],"name":"xibaohe_s"},{"mesh":2,"translation":[0.0,0.0,0.0],"rotation":[0.0,0.0,0.0,1.0],"scale":[1.0,1.0,1.0],"name":"shensuopao_s"},{"mesh":3,"translation":[0.0,0.0,0.0],"rotation":[0.0,0.0,0.0,1.0],"scale":[1.0,1.0,1.0],"name":"shensuopao_l"},{"mesh":4,"translation":[0.0,0.0,0.0],"rotation":[0.0,0.0,0.0,1.0],"scale":[1.0,1.0,1.0],"name":"baogang_paixie"},{"mesh":5,"translation":[0.0,0.0,0.0],"rotation":[0.0,0.0,0.0,1.0],"scale":[1.0,1.0,1.0],"name":"paopao"},{"mesh":6,"translation":[0.0,0.0,0.0],"rotation":[0.0,0.0,0.0,1.0],"scale":[1.0,1.0,1.0],"name":"waipi"},{"mesh":7,"translation":[0.0,0.0,0.0],"rotation":[0.0,0.0,0.0,1.0],"scale":[1.0,1.0,1.0],"name":"xianmao"},{"mesh":8,"translation":[0.0,0.0,0.0],"rotation":[0.0,0.0,0.0,1.0],"scale":[1.0,1.0,1.0],"name":"line"}],"meshes":[{"primitives":[{"attributes":{"POSITION":1,"NORMAL":2,"TANGENT":3,"TEXCOORD_0":4},"indices":0,"mode":4,"material":0}],"name":"xibaohe_l"},{"primitives":[{"attributes":{"POSITION":6,"NORMAL":7,"TANGENT":8,"TEXCOORD_0":9},"indices":5,"mode":4,"material":0}],"name":"xibaohe_s"},{"primitives":[{"attributes":{"POSITION":11,"NORMAL":12,"TANGENT":13,"TEXCOORD_0":14},"indices":10,"mode":4,"material":1}],"name":"shensuopao_s"},{"primitives":[{"attributes":{"POSITION":16,"NORMAL":17,"TANGENT":18,"TEXCOORD_0":19},"indices":15,"mode":4,"material":1}],"name":"shensuopao_l"},{"primitives":[{"attributes":{"POSITION":21,"NORMAL":22,"TANGENT":23,"TEXCOORD_0":24},"indices":20,"mode":4,"material":2}],"name":"baogang_paixie"},{"primitives":[{"attributes":{"POSITION":26,"NORMAL":27,"TANGENT":28,"TEXCOORD_0":29},"indices":25,"mode":4,"material":3}],"name":"paopao"},{"primitives":[{"attributes":{"POSITION":31,"NORMAL":32,"TANGENT":33,"TEXCOORD_0":34},"indices":30,"mode":4,"material":4}],"name":"waipi"},{"primitives":[{"attributes":{"POSITION":36,"NORMAL":37,"TANGENT":38,"TEXCOORD_0":39},"indices":35,"mode":4,"material":5}],"name":"xianmao"},{"primitives":[{"attributes":{"POSITION":41,"NORMAL":42,"TANGENT":43,"TEXCOORD_0":44},"indices":40,"mode":4,"material":6}],"name":"line"}],"accessors":[{"bufferView":0,"componentType":5123,"count":4608,"type":"SCALAR","name":"accessorIndices"},{"bufferView":1,"componentType":5126,"count":770,"max":[-1.39202321,0.6704393,-0.7946961],"min":[-2.61240983,-0.03767082,-1.61914158],"type":"VEC3","name":"accessorPositions"},{"bufferView":1,"byteOffset":9240,"componentType":5126,"count":770,"type":"VEC3","name":"accessorNormals"},{"bufferView":2,"componentType":5126,"count":770,"type":"VEC4","name":"accessorTangents"},{"bufferView":3,"componentType":5126,"count":770,"type":"VEC2","name":"accessorUVs"},{"bufferView":0,"byteOffset":9216,"componentType":5123,"count":2520,"type":"SCALAR","name":"accessorIndices"},{"bufferView":1,"byteOffset":18480,"componentType":5126,"count":494,"max":[0.9945219,1.0,0.989074051],"min":[-0.9945224,-1.0,-0.9890746],"type":"VEC3","name":"accessorPositions"},{"bufferView":1,"byteOffset":24408,"componentType":5126,"count":494,"type":"VEC3","name":"accessorNormals"},{"bufferView":2,"byteOffset":12320,"componentType":5126,"count":494,"type":"VEC4","name":"accessorTangents"},{"bufferView":3,"byteOffset":6160,"componentType":5126,"count":494,"type":"VEC2","name":"accessorUVs"},{"bufferView":0,"byteOffset":14256,"componentType":5123,"count":7776,"type":"SCALAR","name":"accessorIndices"},{"bufferView":1,"byteOffset":30336,"componentType":5126,"count":1751,"max":[4.80018854,0.0929899439,0.6489686],"min":[3.31776953,-0.0929899439,-0.725607634],"type":"VEC3","name":"accessorPositions"},{"bufferView":1,"byteOffset":51348,"componentType":5126,"count":1751,"type":"VEC3","name":"accessorNormals"},{"bufferView":2,"byteOffset":20224,"componentType":5126,"count":1751,"type":"VEC4","name":"accessorTangents"},{"bufferView":3,"byteOffset":10112,"componentType":5126,"count":1751,"type":"VEC2","name":"accessorUVs"},{"bufferView":0,"byteOffset":29808,"componentType":5123,"count":7776,"type":"SCALAR","name":"accessorIndices"},{"bufferView":1,"byteOffset":72360,"componentType":5126,"count":1751,"max":[-4.179462,0.265531331,1.04908621],"min":[-5.958482,-0.222406372,-0.642165244],"type":"VEC3","name":"accessorPositions"},{"bufferView":1,"byteOffset":93372,"componentType":5126,"count":1751,"type":"VEC3","name":"accessorNormals"},{"bufferView":2,"byteOffset":48240,"componentType":5126,"count":1751,"type":"VEC4","name":"accessorTangents"},{"bufferView":3,"byteOffset":24120,"componentType":5126,"count":1751,"type":"VEC2","name":"accessorUVs"},{"bufferView":0,"byteOffset":45360,"componentType":5123,"count":17424,"type":"SCALAR","name":"accessorIndices"},{"bufferView":1,"byteOffset":114384,"componentType":5126,"count":12144,"max":[-4.40106058,0.0489895344,-0.9514103],"min":[-4.81611347,-0.15510796,-1.49698544],"type":"VEC3","name":"accessorPositions"},{"bufferView":1,"byteOffset":260112,"componentType":5126,"count":12144,"type":"VEC3","name":"accessorNormals"},{"bufferView":2,"byteOffset":76256,"componentType":5126,"count":12144,"type":"VEC4","name":"accessorTangents"},{"bufferView":3,"byteOffset":38128,"componentType":5126,"count":12144,"type":"VEC2","name":"accessorUVs"},{"bufferView":0,"byteOffset":80208,"componentType":5123,"count":151272,"type":"SCALAR","name":"accessorIndices"},{"bufferView":1,"byteOffset":405840,"componentType":5126,"count":31897,"max":[2.67065954,0.233462,1.61141062],"min":[-5.01160431,-0.217189,-0.650577545],"type":"VEC3","name":"accessorPositions"},{"bufferView":1,"byteOffset":788604,"componentType":5126,"count":31897,"type":"VEC3","name":"accessorNormals"},{"bufferView":2,"byteOffset":270560,"componentType":5126,"count":31897,"type":"VEC4","name":"accessorTangents"},{"bufferView":3,"byteOffset":135280,"componentType":5126,"count":31897,"type":"VEC2","name":"accessorUVs"},{"bufferView":0,"byteOffset":382752,"componentType":5123,"count":61008,"type":"SCALAR","name":"accessorIndices"},{"bufferView":1,"byteOffset":1171368,"componentType":5126,"count":16692,"max":[5.292505,0.856689,1.845086],"min":[-6.174952,-0.874745,-1.941767],"type":"VEC3","name":"accessorPositions"},{"bufferView":1,"byteOffset":1371672,"componentType":5126,"count":16692,"type":"VEC3","name":"accessorNormals"},{"bufferView":2,"byteOffset":780912,"componentType":5126,"count":16692,"type":"VEC4","name":"accessorTangents"},{"bufferView":3,"byteOffset":390456,"componentType":5126,"count":16692,"type":"VEC2","name":"accessorUVs"},{"bufferView":0,"byteOffset":504768,"componentType":5123,"count":60726,"type":"SCALAR","name":"accessorIndices"},{"bufferView":1,"byteOffset":1571976,"componentType":5126,"count":40484,"max":[5.58939743,1.144212,2.11745882],"min":[-6.448529,-1.17193067,-2.20572758],"type":"VEC3","name":"accessorPositions"},{"bufferView":1,"byteOffset":2057784,"componentType":5126,"count":40484,"type":"VEC3","name":"accessorNormals"},{"bufferView":2,"byteOffset":1047984,"componentType":5126,"count":40484,"type":"VEC4","name":"accessorTangents"},{"bufferView":3,"byteOffset":523992,"componentType":5126,"count":40484,"type":"VEC2","name":"accessorUVs"},{"bufferView":0,"byteOffset":626220,"componentType":5123,"count":432,"type":"SCALAR","name":"accessorIndices"},{"bufferView":1,"byteOffset":2543592,"componentType":5126,"count":234,"max":[4.48959732,0.0123814624,2.45799232],"min":[-5.8217473,-0.06768761,-2.32776666],"type":"VEC3","name":"accessorPositions"},{"bufferView":1,"byteOffset":2546400,"componentType":5126,"count":234,"type":"VEC3","name":"accessorNormals"},{"bufferView":2,"byteOffset":1695728,"componentType":5126,"count":234,"type":"VEC4","name":"accessorTangents"},{"bufferView":3,"byteOffset":847864,"componentType":5126,"count":234,"type":"VEC2","name":"accessorUVs"}],"bufferViews":[{"buffer":0,"byteLength":627084,"name":"bufferViewScalar"},{"buffer":0,"byteOffset":627084,"byteLength":2549208,"byteStride":12,"name":"bufferViewFloatVec3"},{"buffer":0,"byteOffset":3176292,"byteLength":1699472,"byteStride":16,"name":"bufferViewFloatVec4"},{"buffer":0,"byteOffset":4875764,"byteLength":849736,"byteStride":8,"name":"bufferViewFloatVec2"}],"buffers":[{"uri":"111.bin","byteLength":5725500}],"materials":[{"pbrMetallicRoughness":{"baseColorFactor":[1.0,0.716666758,0.0,1.0],"metallicFactor":0.0,"roughnessFactor":0.0},"emissiveFactor":[0.0,0.0,0.0],"alphaMode":"OPAQUE","name":"xibaohe"},{"pbrMetallicRoughness":{"baseColorFactor":[0.5364584,0.0,0.03077467,1.0],"metallicFactor":0.0,"roughnessFactor":0.0},"emissiveFactor":[0.3114911,0.0,0.0178691149],"alphaMode":"OPAQUE","name":"shensuopao_L1"},{"pbrMetallicRoughness":{"baseColorFactor":[0.186983824,0.31250003,0.164375037,0.100000024],"metallicFactor":0.0,"roughnessFactor":0.0},"emissiveFactor":[0.0371569,0.0620991252,0.0326641425],"alphaMode":"BLEND","name":"shiwupao_m"},{"pbrMetallicRoughness":{"baseColorFactor":[0.5,0.833333433,0.43750003,1.0],"metallicFactor":0.0,"roughnessFactor":0.9},"emissiveFactor":[0.2208,0.368,0.193199992],"alphaMode":"OPAQUE","name":"blinn4SG1"},{"pbrMetallicRoughness":{"baseColorFactor":[1.0,1.0,1.0,1.0],"baseColorTexture":{"index":1,"texCoord":0},"metallicFactor":0.0,"roughnessFactor":0.0},"emissiveTexture":{"index":0,"texCoord":0},"emissiveFactor":[1.0,1.0,1.0],"alphaMode":"BLEND","name":"waipi_m"},{"pbrMetallicRoughness":{"baseColorFactor":[1.0,1.0,1.0,1.0],"baseColorTexture":{"index":3,"texCoord":0},"metallicFactor":0.0,"roughnessFactor":0.9},"emissiveTexture":{"index":2,"texCoord":0},"emissiveFactor":[1.0,1.0,1.0],"alphaMode":"BLEND","name":"xianmao_m"},{"pbrMetallicRoughness":{"baseColorFactor":[0.5105209,0.5105209,0.5105209,1.0],"metallicFactor":0.0,"roughnessFactor":0.9},"emissiveFactor":[0.0,0.0,0.0],"alphaMode":"OPAQUE","name":"line_m"}],"textures":[{"sampler":0,"source":0,"name":"waipi_m_emissive.jpg"},{"sampler":1,"source":1,"name":"waipi_m_baseColor.png"},{"sampler":2,"source":2,"name":"xianmao_m_emissive.jpg"},{"sampler":3,"source":3,"name":"xianmao_m_baseColor.png"}],"images":[{"uri":"waipi_m_emissive.jpg"},{"uri":"waipi_m_baseColor.png"},{"uri":"xianmao_m_emissive.jpg"},{"uri":"xianmao_m_baseColor.png"}],"samplers":[{"magFilter":9729,"minFilter":9987,"wrapS":10497,"wrapT":10497},{"magFilter":9729,"minFilter":9987,"wrapS":10497,"wrapT":10497},{"magFilter":9729,"minFilter":9987,"wrapS":10497,"wrapT":10497},{"magFilter":9729,"minFilter":9987,"wrapS":10497,"wrapT":10497}],"extensions":{"KHR_lights":{"lights":[{"color":[1.0,1.0,1.0],"intensity":1.0,"type":"ambient"}]}}}