{"asset":{"version":"2.0","generator":"Babylon2Gltf2017","copyright":"2017 (c) BabylonJS"},"scene":0,"scenes":[{"nodes":[0]}],"nodes":[{"mesh":0,"translation":[0.0,0.0,9.536743E-07],"rotation":[0.0,0.0,0.707106769,-0.707106769],"scale":[1.0,1.0,1.0],"name":"Plane002"}],"meshes":[{"primitives":[{"attributes":{"POSITION":1,"NORMAL":2,"TEXCOORD_0":3},"indices":0,"mode":4,"material":0}],"name":"Plane002"}],"accessors":[{"bufferView":0,"componentType":5123,"count":15000,"type":"SCALAR","name":"accessorIndices"},{"bufferView":1,"componentType":5126,"count":15000,"max":[6.321391,1.68196046,8.369914],"min":[-6.321391,-1.68268168,-8.369914],"type":"VEC3","name":"accessorPositions"},{"bufferView":1,"byteOffset":180000,"componentType":5126,"count":15000,"type":"VEC3","name":"accessorNormals"},{"bufferView":2,"componentType":5126,"count":15000,"type":"VEC2","name":"accessorUVs"}],"bufferViews":[{"buffer":0,"byteLength":30000,"name":"bufferViewScalar"},{"buffer":0,"byteOffset":30000,"byteLength":360000,"byteStride":12,"name":"bufferViewFloatVec3"},{"buffer":0,"byteOffset":390000,"byteLength":120000,"byteStride":8,"name":"bufferViewFloatVec2"}],"buffers":[{"uri":"02.bin","byteLength":510000}],"materials":[{"pbrMetallicRoughness":{"baseColorFactor":[1.0,1.0,1.0,1.0],"baseColorTexture":{"index":0},"metallicFactor":0.0,"roughnessFactor":0.9},"emissiveFactor":[0.0,0.0,0.0],"alphaMode":"BLEND","doubleSided":true,"name":"Material54"}],"textures":[{"sampler":0,"source":0,"name":"Material54_baseColor.png"}],"images":[{"uri":"Material54_baseColor.png"}],"samplers":[{"magFilter":9729,"minFilter":9987,"wrapS":10497,"wrapT":10497}]}