{"asset":{"version":"2.0","generator":"Babylon2Gltf2017","copyright":"2017 (c) BabylonJS"},"scene":0,"scenes":[{"nodes":[0]}],"nodes":[{"mesh":0,"translation":[0.0,0.0,0.0],"rotation":[0.0,0.0,0.0,-1.0],"scale":[1.0,1.0,1.0],"name":"Sphere032"}],"meshes":[{"primitives":[{"attributes":{"POSITION":1,"NORMAL":2,"TEXCOORD_0":3},"indices":0,"mode":4,"material":0},{"attributes":{"POSITION":5,"NORMAL":6,"TEXCOORD_0":7},"indices":4,"mode":4,"material":1},{"attributes":{"POSITION":9,"NORMAL":10,"TEXCOORD_0":11},"indices":8,"mode":4,"material":2},{"attributes":{"POSITION":13,"NORMAL":14,"TEXCOORD_0":15},"indices":12,"mode":4,"material":3}],"name":"Sphere032"}],"accessors":[{"bufferView":0,"componentType":5125,"count":8784,"type":"SCALAR","name":"accessorIndices"},{"bufferView":1,"componentType":5126,"count":8784,"max":[8.0,8.0,8.0],"min":[-8.0,-8.0,-8.0],"type":"VEC3","name":"accessorPositions"},{"bufferView":1,"byteOffset":105408,"componentType":5126,"count":8784,"type":"VEC3","name":"accessorNormals"},{"bufferView":2,"componentType":5126,"count":8784,"type":"VEC2","name":"accessorUVs"},{"bufferView":0,"byteOffset":35136,"componentType":5125,"count":46368,"type":"SCALAR","name":"accessorIndices"},{"bufferView":1,"byteOffset":210816,"componentType":5126,"count":46368,"max":[21.5297413,21.5297356,20.9901333],"min":[-21.5297356,-21.5297356,-20.9901333],"type":"VEC3","name":"accessorPositions"},{"bufferView":1,"byteOffset":767232,"componentType":5126,"count":46368,"type":"VEC3","name":"accessorNormals"},{"bufferView":2,"byteOffset":70272,"componentType":5126,"count":46368,"type":"VEC2","name":"accessorUVs"},{"bufferView":0,"byteOffset":220608,"componentType":5125,"count":49536,"type":"SCALAR","name":"accessorIndices"},{"bufferView":1,"byteOffset":1323648,"componentType":5126,"count":49536,"max":[27.87661,27.8766041,19.9921074],"min":[-27.8766041,-27.876606,-19.9921074],"type":"VEC3","name":"accessorPositions"},{"bufferView":1,"byteOffset":1918080,"componentType":5126,"count":49536,"type":"VEC3","name":"accessorNormals"},{"bufferView":2,"byteOffset":441216,"componentType":5126,"count":49536,"type":"VEC2","name":"accessorUVs"},{"bufferView":0,"byteOffset":418752,"componentType":5125,"count":47952,"type":"SCALAR","name":"accessorIndices"},{"bufferView":1,"byteOffset":2512512,"componentType":5126,"count":47952,"max":[32.3011169,32.30111,26.1196938],"min":[-32.30111,-32.3011131,-19.4930935],"type":"VEC3","name":"accessorPositions"},{"bufferView":1,"byteOffset":3087936,"componentType":5126,"count":47952,"type":"VEC3","name":"accessorNormals"},{"bufferView":2,"byteOffset":837504,"componentType":5126,"count":47952,"type":"VEC2","name":"accessorUVs"}],"bufferViews":[{"buffer":0,"byteLength":610560,"name":"bufferViewScalar"},{"buffer":0,"byteOffset":610560,"byteLength":3663360,"byteStride":12,"name":"bufferViewFloatVec3"},{"buffer":0,"byteOffset":4273920,"byteLength":1221120,"byteStride":8,"name":"bufferViewFloatVec2"}],"buffers":[{"uri":"mm.bin","byteLength":5495040}],"materials":[{"pbrMetallicRoughness":{"baseColorFactor":[1.0,1.0,1.0,1.0],"baseColorTexture":{"index":0},"metallicFactor":0.0,"roughnessFactor":0.9},"emissiveFactor":[0.0,0.0,0.0],"alphaMode":"BLEND","name":"Material243"},{"pbrMetallicRoughness":{"baseColorFactor":[1.0,1.0,1.0,1.0],"baseColorTexture":{"index":1},"metallicFactor":0.0,"roughnessFactor":0.9},"emissiveFactor":[0.0,0.0,0.0],"alphaMode":"BLEND","name":"Material245"},{"pbrMetallicRoughness":{"baseColorFactor":[1.0,1.0,1.0,1.0],"baseColorTexture":{"index":2},"metallicFactor":0.0,"roughnessFactor":0.9},"emissiveFactor":[0.0,0.0,0.0],"alphaMode":"BLEND","name":"C"},{"pbrMetallicRoughness":{"baseColorFactor":[1.0,1.0,1.0,1.0],"baseColorTexture":{"index":3},"metallicFactor":0.0,"roughnessFactor":0.9},"emissiveFactor":[0.0,0.0,0.0],"alphaMode":"BLEND","name":"Material244"}],"textures":[{"sampler":0,"source":0,"name":"Material243_baseColor.png"},{"sampler":1,"source":1,"name":"Material245_baseColor.png"},{"sampler":2,"source":2,"name":"C_baseColor.png"},{"sampler":3,"source":3,"name":"Material244_baseColor.png"}],"images":[{"uri":"Material243_baseColor.png"},{"uri":"Material245_baseColor.png"},{"uri":"C_baseColor.png"},{"uri":"Material244_baseColor.png"}],"samplers":[{"magFilter":9729,"minFilter":9987,"wrapS":10497,"wrapT":10497},{"magFilter":9729,"minFilter":9987,"wrapS":10497,"wrapT":10497},{"magFilter":9729,"minFilter":9987,"wrapS":10497,"wrapT":10497},{"magFilter":9729,"minFilter":9987,"wrapS":10497,"wrapT":10497}]}