{"asset":{"version":"2.0","generator":"Babylon2Gltf2017","copyright":"2017 (c) BabylonJS"},"scene":0,"scenes":[{"nodes":[0]}],"nodes":[{"mesh":0,"translation":[0.0,0.0,0.0],"rotation":[0.0,0.0,0.0,-1.0],"scale":[1.0,1.0,1.0],"name":"对象025"}],"meshes":[{"primitives":[{"attributes":{"POSITION":1,"NORMAL":2,"TEXCOORD_0":3},"indices":0,"mode":4,"material":0},{"attributes":{"POSITION":5,"NORMAL":6,"TEXCOORD_0":7},"indices":4,"mode":4,"material":1},{"attributes":{"POSITION":9,"NORMAL":10,"TEXCOORD_0":11},"indices":8,"mode":4,"material":2}],"name":"对象025"}],"accessors":[{"bufferView":0,"componentType":5125,"count":43200,"type":"SCALAR","name":"accessorIndices"},{"bufferView":1,"componentType":5126,"count":43200,"max":[31.3393879,31.4,31.386116],"min":[-31.339386,-31.4,-31.3697128],"type":"VEC3","name":"accessorPositions"},{"bufferView":1,"byteOffset":518400,"componentType":5126,"count":43200,"type":"VEC3","name":"accessorNormals"},{"bufferView":2,"componentType":5126,"count":43200,"type":"VEC2","name":"accessorUVs"},{"bufferView":0,"byteOffset":172800,"componentType":5125,"count":43200,"type":"SCALAR","name":"accessorIndices"},{"bufferView":1,"byteOffset":1036800,"componentType":5126,"count":43200,"max":[35.5726051,35.5725975,27.6769886],"min":[-35.5725975,-35.5726,-27.6769886],"type":"VEC3","name":"accessorPositions"},{"bufferView":1,"byteOffset":1555200,"componentType":5126,"count":43200,"type":"VEC3","name":"accessorNormals"},{"bufferView":2,"byteOffset":345600,"componentType":5126,"count":43200,"type":"VEC2","name":"accessorUVs"},{"bufferView":0,"byteOffset":345600,"componentType":5125,"count":43200,"type":"SCALAR","name":"accessorIndices"},{"bufferView":1,"byteOffset":2073600,"componentType":5126,"count":43200,"max":[39.2974739,39.2974663,33.1010361],"min":[-39.2974663,-39.2974739,-26.479351],"type":"VEC3","name":"accessorPositions"},{"bufferView":1,"byteOffset":2592000,"componentType":5126,"count":43200,"type":"VEC3","name":"accessorNormals"},{"bufferView":2,"byteOffset":691200,"componentType":5126,"count":43200,"type":"VEC2","name":"accessorUVs"}],"bufferViews":[{"buffer":0,"byteLength":518400,"name":"bufferViewScalar"},{"buffer":0,"byteOffset":518400,"byteLength":3110400,"byteStride":12,"name":"bufferViewFloatVec3"},{"buffer":0,"byteOffset":3628800,"byteLength":1036800,"byteStride":8,"name":"bufferViewFloatVec2"}],"buffers":[{"uri":"bi.bin","byteLength":4665600}],"materials":[{"pbrMetallicRoughness":{"baseColorFactor":[1.0,1.0,1.0,1.0],"baseColorTexture":{"index":0},"metallicFactor":0.0,"roughnessFactor":0.9},"emissiveFactor":[0.0,0.0,0.0],"alphaMode":"BLEND","name":"Material245"},{"pbrMetallicRoughness":{"baseColorFactor":[1.0,1.0,1.0,1.0],"baseColorTexture":{"index":1},"metallicFactor":0.0,"roughnessFactor":0.9},"emissiveFactor":[0.0,0.0,0.0],"alphaMode":"BLEND","name":"C"},{"pbrMetallicRoughness":{"baseColorFactor":[1.0,1.0,1.0,1.0],"baseColorTexture":{"index":2},"metallicFactor":0.0,"roughnessFactor":0.9},"emissiveFactor":[0.0,0.0,0.0],"alphaMode":"BLEND","name":"Material244"}],"textures":[{"sampler":0,"source":0,"name":"Material245_baseColor.png"},{"sampler":1,"source":1,"name":"C_baseColor.png"},{"sampler":2,"source":2,"name":"Material244_baseColor.png"}],"images":[{"uri":"Material245_baseColor.png"},{"uri":"C_baseColor.png"},{"uri":"Material244_baseColor.png"}],"samplers":[{"magFilter":9729,"minFilter":9987,"wrapS":10497,"wrapT":10497},{"magFilter":9729,"minFilter":9987,"wrapS":10497,"wrapT":10497},{"magFilter":9729,"minFilter":9987,"wrapS":10497,"wrapT":10497}]}