{"asset":{"version":"2.0","generator":"Babylon2Gltf2017","copyright":"2017 (c) BabylonJS"},"scene":0,"scenes":[{"nodes":[0]}],"nodes":[{"mesh":0,"translation":[0.0,0.0,0.0],"rotation":[-1.509958E-07,0.0,0.0,-1.0],"scale":[1.0,1.0,1.0],"name":"Sphere111"}],"meshes":[{"primitives":[{"attributes":{"POSITION":1,"NORMAL":2,"TEXCOORD_0":3},"indices":0,"mode":4,"material":0},{"attributes":{"POSITION":5,"NORMAL":6,"TEXCOORD_0":7},"indices":4,"mode":4,"material":1},{"attributes":{"POSITION":9,"NORMAL":10,"TEXCOORD_0":11},"indices":8,"mode":4,"material":2}],"name":"Sphere111"}],"accessors":[{"bufferView":0,"componentType":5123,"count":24624,"type":"SCALAR","name":"accessorIndices"},{"bufferView":1,"componentType":5126,"count":24624,"max":[36.1405029,36.0320549,36.03604],"min":[-35.91325,-35.97915,-35.96397],"type":"VEC3","name":"accessorPositions"},{"bufferView":1,"byteOffset":295488,"componentType":5126,"count":24624,"type":"VEC3","name":"accessorNormals"},{"bufferView":2,"componentType":5126,"count":24624,"type":"VEC2","name":"accessorUVs"},{"bufferView":0,"byteOffset":49248,"componentType":5123,"count":17280,"type":"SCALAR","name":"accessorIndices"},{"bufferView":1,"byteOffset":590976,"componentType":5126,"count":17280,"max":[35.931572,35.9937,36.0360374],"min":[-36.14051,-35.9044266,-36.0360451],"type":"VEC3","name":"accessorPositions"},{"bufferView":1,"byteOffset":798336,"componentType":5126,"count":17280,"type":"VEC3","name":"accessorNormals"},{"bufferView":2,"byteOffset":196992,"componentType":5126,"count":17280,"type":"VEC2","name":"accessorUVs"},{"bufferView":0,"byteOffset":83808,"componentType":5123,"count":2880,"type":"SCALAR","name":"accessorIndices"},{"bufferView":1,"byteOffset":1005696,"componentType":5126,"count":2880,"max":[11.040369,11.3063774,10.9999962],"min":[-10.9596291,-10.6936207,-11.0000038],"type":"VEC3","name":"accessorPositions"},{"bufferView":1,"byteOffset":1040256,"componentType":5126,"count":2880,"type":"VEC3","name":"accessorNormals"},{"bufferView":2,"byteOffset":335232,"componentType":5126,"count":2880,"type":"VEC2","name":"accessorUVs"}],"bufferViews":[{"buffer":0,"byteLength":89568,"name":"bufferViewScalar"},{"buffer":0,"byteOffset":89568,"byteLength":1074816,"byteStride":12,"name":"bufferViewFloatVec3"},{"buffer":0,"byteOffset":1164384,"byteLength":358272,"byteStride":8,"name":"bufferViewFloatVec2"}],"buffers":[{"uri":"jingbao6.bin","byteLength":1522656}],"materials":[{"pbrMetallicRoughness":{"baseColorFactor":[1.0,1.0,1.0,1.0],"baseColorTexture":{"index":0},"metallicFactor":0.0,"roughnessFactor":0.9},"emissiveFactor":[0.0,0.0,0.0],"alphaMode":"BLEND","name":"Material #246"},{"pbrMetallicRoughness":{"baseColorFactor":[1.0,1.0,1.0,1.0],"baseColorTexture":{"index":1},"metallicFactor":0.0,"roughnessFactor":0.9},"emissiveFactor":[0.0,0.0,0.0],"alphaMode":"BLEND","name":"Material #247"},{"pbrMetallicRoughness":{"baseColorFactor":[1.0,1.0,1.0,1.0],"baseColorTexture":{"index":2},"metallicFactor":0.0,"roughnessFactor":0.9},"emissiveFactor":[0.0,0.0,0.0],"alphaMode":"BLEND","name":"Material #249"}],"textures":[{"sampler":0,"source":0,"name":"image01.png"},{"sampler":1,"source":1,"name":"image02.png"},{"sampler":2,"source":2,"name":"image03.png"}],"images":[{"uri":"image01.png"},{"uri":"image02.png"},{"uri":"image03.png"}],"samplers":[{"magFilter":9729,"minFilter":9987,"wrapS":10497,"wrapT":10497},{"magFilter":9729,"minFilter":9987,"wrapS":10497,"wrapT":10497},{"magFilter":9729,"minFilter":9987,"wrapS":10497,"wrapT":10497}]}