{"asset":{"version":"2.0","generator":"Babylon2Gltf2017","copyright":"2017 (c) BabylonJS"},"scene":0,"scenes":[{"nodes":[0,1,2,3,4,5,6]}],"nodes":[{"mesh":0,"translation":[-200.0,-200.0,-200.0],"rotation":[-1.91063847E-07,-0.707106769,-2.2476458E-08,-0.707106769],"scale":[1.0,1.0,1.0],"name":"Sphere114"},{"mesh":1,"translation":[200.0,200.0,-200.0],"rotation":[-2.528811E-07,-0.7071068,-8.429369E-08,-0.707106769],"scale":[1.0,1.0,1.0],"name":"对象193"},{"mesh":2,"translation":[200.0,-200.0,200.0],"rotation":[-2.528811E-07,-0.7071068,-8.429369E-08,-0.707106769],"scale":[1.0,1.0,1.0],"name":"对象194"},{"mesh":3,"translation":[-200.0,-200.0,200.0],"rotation":[-2.5288108E-07,-0.707106769,-8.42936956E-08,-0.707106769],"scale":[1.0,1.0,1.0],"name":"对象195"},{"mesh":4,"translation":[200.0,200.0,200.0],"rotation":[-2.528811E-07,-0.7071068,-8.429367E-08,-0.707106769],"scale":[1.0,1.0,1.0],"name":"对象196"},{"mesh":5,"translation":[-200.0,200.0,-200.0],"rotation":[-2.528811E-07,-0.7071068,-8.429367E-08,-0.707106769],"scale":[1.0,1.0,1.0],"name":"对象197"},{"mesh":6,"translation":[200.0,-200.0,-200.0],"rotation":[-2.528811E-07,-0.7071068,-8.429367E-08,-0.707106769],"scale":[1.0,1.0,1.0],"name":"对象198"}],"meshes":[{"primitives":[{"attributes":{"POSITION":1,"NORMAL":2,"TEXCOORD_0":3},"indices":0,"mode":4,"material":0},{"attributes":{"POSITION":5,"NORMAL":6,"TEXCOORD_0":7},"indices":4,"mode":4,"material":1},{"attributes":{"POSITION":9,"NORMAL":10,"TEXCOORD_0":11},"indices":8,"mode":4,"material":2}],"name":"Sphere114"},{"primitives":[{"attributes":{"POSITION":13,"NORMAL":14,"TEXCOORD_0":15},"indices":12,"mode":4,"material":2},{"attributes":{"POSITION":17,"NORMAL":18,"TEXCOORD_0":19},"indices":16,"mode":4,"material":0},{"attributes":{"POSITION":21,"NORMAL":22,"TEXCOORD_0":23},"indices":20,"mode":4,"material":1}],"name":"对象193"},{"primitives":[{"attributes":{"POSITION":25,"NORMAL":26,"TEXCOORD_0":27},"indices":24,"mode":4,"material":2},{"attributes":{"POSITION":29,"NORMAL":30,"TEXCOORD_0":31},"indices":28,"mode":4,"material":0},{"attributes":{"POSITION":33,"NORMAL":34,"TEXCOORD_0":35},"indices":32,"mode":4,"material":1}],"name":"对象194"},{"primitives":[{"attributes":{"POSITION":37,"NORMAL":38,"TEXCOORD_0":39},"indices":36,"mode":4,"material":2},{"attributes":{"POSITION":41,"NORMAL":42,"TEXCOORD_0":43},"indices":40,"mode":4,"material":0},{"attributes":{"POSITION":45,"NORMAL":46,"TEXCOORD_0":47},"indices":44,"mode":4,"material":1}],"name":"对象195"},{"primitives":[{"attributes":{"POSITION":49,"NORMAL":50,"TEXCOORD_0":51},"indices":48,"mode":4,"material":0},{"attributes":{"POSITION":53,"NORMAL":54,"TEXCOORD_0":55},"indices":52,"mode":4,"material":1},{"attributes":{"POSITION":57,"NORMAL":58,"TEXCOORD_0":59},"indices":56,"mode":4,"material":2}],"name":"对象196"},{"primitives":[{"attributes":{"POSITION":61,"NORMAL":62,"TEXCOORD_0":63},"indices":60,"mode":4,"material":0},{"attributes":{"POSITION":65,"NORMAL":66,"TEXCOORD_0":67},"indices":64,"mode":4,"material":1},{"attributes":{"POSITION":69,"NORMAL":70,"TEXCOORD_0":71},"indices":68,"mode":4,"material":2}],"name":"对象197"},{"primitives":[{"attributes":{"POSITION":73,"NORMAL":74,"TEXCOORD_0":75},"indices":72,"mode":4,"material":0},{"attributes":{"POSITION":77,"NORMAL":78,"TEXCOORD_0":79},"indices":76,"mode":4,"material":1},{"attributes":{"POSITION":81,"NORMAL":82,"TEXCOORD_0":83},"indices":80,"mode":4,"material":2}],"name":"对象198"}],"accessors":[{"bufferView":0,"componentType":5123,"count":2880,"type":"SCALAR","name":"accessorIndices"},{"bufferView":1,"componentType":5126,"count":2880,"max":[36.00853,-13.6819763,-13.9530182],"min":[14.00853,-35.6819763,-35.95302],"type":"VEC3","name":"accessorPositions"},{"bufferView":1,"byteOffset":34560,"componentType":5126,"count":2880,"type":"VEC3","name":"accessorNormals"},{"bufferView":2,"componentType":5126,"count":2880,"type":"VEC2","name":"accessorUVs"},{"bufferView":0,"byteOffset":5760,"componentType":5123,"count":9180,"type":"SCALAR","name":"accessorIndices"},{"bufferView":1,"byteOffset":69120,"componentType":5126,"count":9180,"max":[50.0446,-0.0221557617,-0.104873657],"min":[-0.02746582,-50.00058,-50.11685],"type":"VEC3","name":"accessorPositions"},{"bufferView":1,"byteOffset":179280,"componentType":5126,"count":9180,"type":"VEC3","name":"accessorNormals"},{"bufferView":2,"byteOffset":23040,"componentType":5126,"count":9180,"type":"VEC2","name":"accessorUVs"},{"bufferView":0,"byteOffset":24120,"componentType":5123,"count":3456,"type":"SCALAR","name":"accessorIndices"},{"bufferView":1,"byteOffset":289440,"componentType":5126,"count":3456,"max":[49.98642,0.02217102,0.104919434],"min":[-0.02909851,-49.95627,-49.9070435],"type":"VEC3","name":"accessorPositions"},{"bufferView":1,"byteOffset":330912,"componentType":5126,"count":3456,"type":"VEC3","name":"accessorNormals"},{"bufferView":2,"byteOffset":96480,"componentType":5126,"count":3456,"type":"VEC2","name":"accessorUVs"},{"bufferView":0,"byteOffset":31032,"componentType":5123,"count":3456,"type":"SCALAR","name":"accessorIndices"},{"bufferView":1,"byteOffset":372384,"componentType":5126,"count":3456,"max":[49.98642,50.0005646,50.1168671],"min":[-0.02909851,0.0221252441,0.104904175],"type":"VEC3","name":"accessorPositions"},{"bufferView":1,"byteOffset":413856,"componentType":5126,"count":3456,"type":"VEC3","name":"accessorNormals"},{"bufferView":2,"byteOffset":124128,"componentType":5126,"count":3456,"type":"VEC2","name":"accessorUVs"},{"bufferView":0,"byteOffset":37944,"componentType":5123,"count":2880,"type":"SCALAR","name":"accessorIndices"},{"bufferView":1,"byteOffset":455328,"componentType":5126,"count":2880,"max":[36.0085449,36.2964172,36.0589142],"min":[14.0085449,14.2964172,14.0589142],"type":"VEC3","name":"accessorPositions"},{"bufferView":1,"byteOffset":489888,"componentType":5126,"count":2880,"type":"VEC3","name":"accessorNormals"},{"bufferView":2,"byteOffset":151776,"componentType":5126,"count":2880,"type":"VEC2","name":"accessorUVs"},{"bufferView":0,"byteOffset":43704,"componentType":5123,"count":9180,"type":"SCALAR","name":"accessorIndices"},{"bufferView":1,"byteOffset":524448,"componentType":5126,"count":9180,"max":[50.0446,49.9562378,49.90706],"min":[-0.02746582,-0.02217102,-0.104934692],"type":"VEC3","name":"accessorPositions"},{"bufferView":1,"byteOffset":634608,"componentType":5126,"count":9180,"type":"VEC3","name":"accessorNormals"},{"bufferView":2,"byteOffset":174816,"componentType":5126,"count":9180,"type":"VEC2","name":"accessorUVs"},{"bufferView":0,"byteOffset":62064,"componentType":5123,"count":3456,"type":"SCALAR","name":"accessorIndices"},{"bufferView":1,"byteOffset":744768,"componentType":5126,"count":3456,"max":[-0.029083252,0.02217102,50.1168671],"min":[-50.0445862,-49.95627,0.104904175],"type":"VEC3","name":"accessorPositions"},{"bufferView":1,"byteOffset":786240,"componentType":5126,"count":3456,"type":"VEC3","name":"accessorNormals"},{"bufferView":2,"byteOffset":248256,"componentType":5126,"count":3456,"type":"VEC2","name":"accessorUVs"},{"bufferView":0,"byteOffset":68976,"componentType":5123,"count":2880,"type":"SCALAR","name":"accessorIndices"},{"bufferView":1,"byteOffset":827712,"componentType":5126,"count":2880,"max":[-14.0069427,-13.6819611,36.05893],"min":[-36.0069427,-35.68196,14.0589294],"type":"VEC3","name":"accessorPositions"},{"bufferView":1,"byteOffset":862272,"componentType":5126,"count":2880,"type":"VEC3","name":"accessorNormals"},{"bufferView":2,"byteOffset":275904,"componentType":5126,"count":2880,"type":"VEC2","name":"accessorUVs"},{"bufferView":0,"byteOffset":74736,"componentType":5123,"count":9180,"type":"SCALAR","name":"accessorIndices"},{"bufferView":1,"byteOffset":896832,"componentType":5126,"count":9180,"max":[0.02909851,-0.0221557617,49.907074],"min":[-50.04297,-50.0005646,-0.104919434],"type":"VEC3","name":"accessorPositions"},{"bufferView":1,"byteOffset":1006992,"componentType":5126,"count":9180,"type":"VEC3","name":"accessorNormals"},{"bufferView":2,"byteOffset":298944,"componentType":5126,"count":9180,"type":"VEC2","name":"accessorUVs"},{"bufferView":0,"byteOffset":93096,"componentType":5123,"count":3456,"type":"SCALAR","name":"accessorIndices"},{"bufferView":1,"byteOffset":1117152,"componentType":5126,"count":3456,"max":[-0.02909851,0.02217102,0.104919434],"min":[-50.0446,-49.95627,-49.9070435],"type":"VEC3","name":"accessorPositions"},{"bufferView":1,"byteOffset":1158624,"componentType":5126,"count":3456,"type":"VEC3","name":"accessorNormals"},{"bufferView":2,"byteOffset":372384,"componentType":5126,"count":3456,"type":"VEC2","name":"accessorUVs"},{"bufferView":0,"byteOffset":100008,"componentType":5123,"count":2880,"type":"SCALAR","name":"accessorIndices"},{"bufferView":1,"byteOffset":1200096,"componentType":5126,"count":2880,"max":[-14.0069427,-13.6819916,-13.9530182],"min":[-36.0069427,-35.68199,-35.95302],"type":"VEC3","name":"accessorPositions"},{"bufferView":1,"byteOffset":1234656,"componentType":5126,"count":2880,"type":"VEC3","name":"accessorNormals"},{"bufferView":2,"byteOffset":400032,"componentType":5126,"count":2880,"type":"VEC2","name":"accessorUVs"},{"bufferView":0,"byteOffset":105768,"componentType":5123,"count":9180,"type":"SCALAR","name":"accessorIndices"},{"bufferView":1,"byteOffset":1269216,"componentType":5126,"count":9180,"max":[0.029083252,-0.0221557617,-0.104873657],"min":[-50.04297,-50.00058,-50.11685],"type":"VEC3","name":"accessorPositions"},{"bufferView":1,"byteOffset":1379376,"componentType":5126,"count":9180,"type":"VEC3","name":"accessorNormals"},{"bufferView":2,"byteOffset":423072,"componentType":5126,"count":9180,"type":"VEC2","name":"accessorUVs"},{"bufferView":0,"byteOffset":124128,"componentType":5123,"count":2880,"type":"SCALAR","name":"accessorIndices"},{"bufferView":1,"byteOffset":1489536,"componentType":5126,"count":2880,"max":[-14.0069427,36.2964325,36.0589142],"min":[-36.0069427,14.2964325,14.0589142],"type":"VEC3","name":"accessorPositions"},{"bufferView":1,"byteOffset":1524096,"componentType":5126,"count":2880,"type":"VEC3","name":"accessorNormals"},{"bufferView":2,"byteOffset":496512,"componentType":5126,"count":2880,"type":"VEC2","name":"accessorUVs"},{"bufferView":0,"byteOffset":129888,"componentType":5123,"count":9180,"type":"SCALAR","name":"accessorIndices"},{"bufferView":1,"byteOffset":1558656,"componentType":5126,"count":9180,"max":[0.02909851,49.9562531,49.90706],"min":[-50.04297,-0.02217102,-0.104919434],"type":"VEC3","name":"accessorPositions"},{"bufferView":1,"byteOffset":1668816,"componentType":5126,"count":9180,"type":"VEC3","name":"accessorNormals"},{"bufferView":2,"byteOffset":519552,"componentType":5126,"count":9180,"type":"VEC2","name":"accessorUVs"},{"bufferView":0,"byteOffset":148248,"componentType":5123,"count":3456,"type":"SCALAR","name":"accessorIndices"},{"bufferView":1,"byteOffset":1778976,"componentType":5126,"count":3456,"max":[-0.02909851,50.00058,50.1168671],"min":[-50.0446,0.0221405029,0.104904175],"type":"VEC3","name":"accessorPositions"},{"bufferView":1,"byteOffset":1820448,"componentType":5126,"count":3456,"type":"VEC3","name":"accessorNormals"},{"bufferView":2,"byteOffset":592992,"componentType":5126,"count":3456,"type":"VEC2","name":"accessorUVs"},{"bufferView":0,"byteOffset":155160,"componentType":5123,"count":2880,"type":"SCALAR","name":"accessorIndices"},{"bufferView":1,"byteOffset":1861920,"componentType":5126,"count":2880,"max":[36.0085449,36.2963867,-13.9530029],"min":[14.0085449,14.2963867,-35.9530029],"type":"VEC3","name":"accessorPositions"},{"bufferView":1,"byteOffset":1896480,"componentType":5126,"count":2880,"type":"VEC3","name":"accessorNormals"},{"bufferView":2,"byteOffset":620640,"componentType":5126,"count":2880,"type":"VEC2","name":"accessorUVs"},{"bufferView":0,"byteOffset":160920,"componentType":5123,"count":9180,"type":"SCALAR","name":"accessorIndices"},{"bufferView":1,"byteOffset":1931040,"componentType":5126,"count":9180,"max":[50.0446,49.9562225,-0.104888916],"min":[-0.02746582,-0.02218628,-50.1168671],"type":"VEC3","name":"accessorPositions"},{"bufferView":1,"byteOffset":2041200,"componentType":5126,"count":9180,"type":"VEC3","name":"accessorNormals"},{"bufferView":2,"byteOffset":643680,"componentType":5126,"count":9180,"type":"VEC2","name":"accessorUVs"},{"bufferView":0,"byteOffset":179280,"componentType":5123,"count":3456,"type":"SCALAR","name":"accessorIndices"},{"bufferView":1,"byteOffset":2151360,"componentType":5126,"count":3456,"max":[49.9864044,50.00055,0.104919434],"min":[-0.02909851,0.0221252441,-49.9070435],"type":"VEC3","name":"accessorPositions"},{"bufferView":1,"byteOffset":2192832,"componentType":5126,"count":3456,"type":"VEC3","name":"accessorNormals"},{"bufferView":2,"byteOffset":717120,"componentType":5126,"count":3456,"type":"VEC2","name":"accessorUVs"},{"bufferView":0,"byteOffset":186192,"componentType":5123,"count":2880,"type":"SCALAR","name":"accessorIndices"},{"bufferView":1,"byteOffset":2234304,"componentType":5126,"count":2880,"max":[36.00853,-13.6819763,36.05893],"min":[14.00853,-35.6819763,14.0589294],"type":"VEC3","name":"accessorPositions"},{"bufferView":1,"byteOffset":2268864,"componentType":5126,"count":2880,"type":"VEC3","name":"accessorNormals"},{"bufferView":2,"byteOffset":744768,"componentType":5126,"count":2880,"type":"VEC2","name":"accessorUVs"},{"bufferView":0,"byteOffset":191952,"componentType":5123,"count":9180,"type":"SCALAR","name":"accessorIndices"},{"bufferView":1,"byteOffset":2303424,"componentType":5126,"count":9180,"max":[50.0446167,-0.0221557617,49.907074],"min":[-0.02746582,-50.00058,-0.104919434],"type":"VEC3","name":"accessorPositions"},{"bufferView":1,"byteOffset":2413584,"componentType":5126,"count":9180,"type":"VEC3","name":"accessorNormals"},{"bufferView":2,"byteOffset":767808,"componentType":5126,"count":9180,"type":"VEC2","name":"accessorUVs"},{"bufferView":0,"byteOffset":210312,"componentType":5123,"count":3456,"type":"SCALAR","name":"accessorIndices"},{"bufferView":1,"byteOffset":2523744,"componentType":5126,"count":3456,"max":[49.98642,0.0221557617,50.1168671],"min":[-0.029083252,-49.95627,0.104904175],"type":"VEC3","name":"accessorPositions"},{"bufferView":1,"byteOffset":2565216,"componentType":5126,"count":3456,"type":"VEC3","name":"accessorNormals"},{"bufferView":2,"byteOffset":841248,"componentType":5126,"count":3456,"type":"VEC2","name":"accessorUVs"},{"bufferView":3,"componentType":5126,"count":21,"max":[3.33333325],"min":[0.0],"type":"SCALAR","name":"accessorAnimationInput"},{"bufferView":4,"componentType":5126,"count":21,"type":"VEC3","name":"accessorAnimationPositions"},{"bufferView":3,"byteOffset":84,"componentType":5126,"count":21,"max":[3.33333325],"min":[0.0],"type":"SCALAR","name":"accessorAnimationInput"},{"bufferView":4,"byteOffset":252,"componentType":5126,"count":21,"type":"VEC3","name":"accessorAnimationPositions"},{"bufferView":3,"byteOffset":168,"componentType":5126,"count":21,"max":[3.33333325],"min":[0.0],"type":"SCALAR","name":"accessorAnimationInput"},{"bufferView":4,"byteOffset":504,"componentType":5126,"count":21,"type":"VEC3","name":"accessorAnimationPositions"},{"bufferView":3,"byteOffset":252,"componentType":5126,"count":21,"max":[3.33333325],"min":[0.0],"type":"SCALAR","name":"accessorAnimationInput"},{"bufferView":4,"byteOffset":756,"componentType":5126,"count":21,"type":"VEC3","name":"accessorAnimationPositions"},{"bufferView":3,"byteOffset":336,"componentType":5126,"count":21,"max":[3.33333325],"min":[0.0],"type":"SCALAR","name":"accessorAnimationInput"},{"bufferView":4,"byteOffset":1008,"componentType":5126,"count":21,"type":"VEC3","name":"accessorAnimationPositions"},{"bufferView":3,"byteOffset":420,"componentType":5126,"count":21,"max":[3.33333325],"min":[0.0],"type":"SCALAR","name":"accessorAnimationInput"},{"bufferView":4,"byteOffset":1260,"componentType":5126,"count":21,"type":"VEC3","name":"accessorAnimationPositions"},{"bufferView":3,"byteOffset":504,"componentType":5126,"count":21,"max":[3.33333325],"min":[0.0],"type":"SCALAR","name":"accessorAnimationInput"},{"bufferView":4,"byteOffset":1512,"componentType":5126,"count":21,"type":"VEC3","name":"accessorAnimationPositions"}],"bufferViews":[{"buffer":0,"byteLength":217224,"name":"bufferViewScalar"},{"buffer":0,"byteOffset":217224,"byteLength":2606688,"byteStride":12,"name":"bufferViewFloatVec3"},{"buffer":0,"byteOffset":2823912,"byteLength":868896,"byteStride":8,"name":"bufferViewFloatVec2"},{"buffer":0,"byteOffset":3692808,"byteLength":588,"name":"bufferViewAnimationFloatScalar"},{"buffer":0,"byteOffset":3693396,"byteLength":1764,"name":"bufferViewAnimationFloatVec3"}],"buffers":[{"uri":"jingbao3.bin","byteLength":3695160}],"materials":[{"pbrMetallicRoughness":{"baseColorFactor":[1.0,1.0,1.0,1.0],"baseColorTexture":{"index":0},"metallicFactor":0.0,"roughnessFactor":0.9},"emissiveFactor":[0.0,0.0,0.0],"alphaMode":"BLEND","name":"Material #1390"},{"pbrMetallicRoughness":{"baseColorFactor":[1.0,1.0,1.0,1.0],"baseColorTexture":{"index":1},"metallicFactor":0.0,"roughnessFactor":0.9},"emissiveFactor":[0.0,0.0,0.0],"alphaMode":"BLEND","name":"Material #1388"},{"pbrMetallicRoughness":{"baseColorFactor":[1.0,1.0,1.0,1.0],"baseColorTexture":{"index":2},"metallicFactor":0.0,"roughnessFactor":0.9},"emissiveFactor":[0.0,0.0,0.0],"alphaMode":"BLEND","name":"Material #1387"}],"textures":[{"sampler":0,"source":0,"name":"image03.png"},{"sampler":1,"source":1,"name":"image02.png"},{"sampler":2,"source":2,"name":"image01.png"}],"images":[{"uri":"image03.png"},{"uri":"image02.png"},{"uri":"image01.png"}],"samplers":[{"magFilter":9729,"minFilter":9987,"wrapS":10497,"wrapT":10497},{"magFilter":9729,"minFilter":9987,"wrapS":10497,"wrapT":10497},{"magFilter":9729,"minFilter":9987,"wrapS":10497,"wrapT":10497}],"animations":[{"channels":[{"sampler":0,"target":{"node":0,"path":"translation"}},{"sampler":1,"target":{"node":1,"path":"translation"}},{"sampler":2,"target":{"node":2,"path":"translation"}},{"sampler":3,"target":{"node":3,"path":"translation"}},{"sampler":4,"target":{"node":4,"path":"translation"}},{"sampler":5,"target":{"node":5,"path":"translation"}},{"sampler":6,"target":{"node":6,"path":"translation"}}],"samplers":[{"input":84,"interpolation":"LINEAR","output":85},{"input":86,"interpolation":"LINEAR","output":87},{"input":88,"interpolation":"LINEAR","output":89},{"input":90,"interpolation":"LINEAR","output":91},{"input":92,"interpolation":"LINEAR","output":93},{"input":94,"interpolation":"LINEAR","output":95},{"input":96,"interpolation":"LINEAR","output":97}]}]}