{"asset":{"version":"2.0","generator":"Babylon2Gltf2017","copyright":"2017 (c) BabylonJS"},"scene":0,"scenes":[{"nodes":[0]}],"nodes":[{"mesh":0,"translation":[0.0,0.0,0.0],"rotation":[-1.06770116E-07,-0.70710665,-2.30404638E-07,-0.7071069],"scale":[1.0,1.0,1.0],"name":"对象181"}],"meshes":[{"primitives":[{"attributes":{"POSITION":1,"NORMAL":2,"TEXCOORD_0":3},"indices":0,"mode":4,"material":0},{"attributes":{"POSITION":5,"NORMAL":6,"TEXCOORD_0":7},"indices":4,"mode":4,"material":1},{"attributes":{"POSITION":9,"NORMAL":10,"TEXCOORD_0":11},"indices":8,"mode":4,"material":2}],"name":"对象181"}],"accessors":[{"bufferView":0,"componentType":5125,"count":22353,"type":"SCALAR","name":"accessorIndices"},{"bufferView":1,"componentType":5126,"count":22353,"max":[49.9864235,50.00057,50.1168633],"min":[-50.0445976,-49.9562645,-49.9070625],"type":"VEC3","name":"accessorPositions"},{"bufferView":1,"byteOffset":268236,"componentType":5126,"count":22353,"type":"VEC3","name":"accessorNormals"},{"bufferView":2,"componentType":5126,"count":22353,"type":"VEC2","name":"accessorUVs"},{"bufferView":0,"byteOffset":89412,"componentType":5125,"count":68400,"type":"SCALAR","name":"accessorIndices"},{"bufferView":1,"byteOffset":536472,"componentType":5126,"count":68400,"max":[50.0446053,49.9562454,49.90706],"min":[-50.0429649,-50.0005722,-50.11687],"type":"VEC3","name":"accessorPositions"},{"bufferView":1,"byteOffset":1357272,"componentType":5126,"count":68400,"type":"VEC3","name":"accessorNormals"},{"bufferView":2,"byteOffset":178824,"componentType":5126,"count":68400,"type":"VEC2","name":"accessorUVs"},{"bufferView":0,"byteOffset":363012,"componentType":5125,"count":23040,"type":"SCALAR","name":"accessorIndices"},{"bufferView":1,"byteOffset":2178072,"componentType":5126,"count":23040,"max":[36.00855,36.2964249,36.058918],"min":[-36.00694,-35.6819839,-35.95303],"type":"VEC3","name":"accessorPositions"},{"bufferView":1,"byteOffset":2454552,"componentType":5126,"count":23040,"type":"VEC3","name":"accessorNormals"},{"bufferView":2,"byteOffset":726024,"componentType":5126,"count":23040,"type":"VEC2","name":"accessorUVs"}],"bufferViews":[{"buffer":0,"byteLength":455172,"name":"bufferViewScalar"},{"buffer":0,"byteOffset":455172,"byteLength":2731032,"byteStride":12,"name":"bufferViewFloatVec3"},{"buffer":0,"byteOffset":3186204,"byteLength":910344,"byteStride":8,"name":"bufferViewFloatVec2"}],"buffers":[{"uri":"jingbao4.bin","byteLength":4096548}],"materials":[{"pbrMetallicRoughness":{"baseColorFactor":[1.0,1.0,1.0,1.0],"baseColorTexture":{"index":0},"metallicFactor":0.0,"roughnessFactor":0.9},"emissiveFactor":[0.0,0.0,0.0],"alphaMode":"BLEND","name":"Material #246"},{"pbrMetallicRoughness":{"baseColorFactor":[1.0,1.0,1.0,1.0],"baseColorTexture":{"index":1},"metallicFactor":0.0,"roughnessFactor":0.9},"emissiveFactor":[0.0,0.0,0.0],"alphaMode":"BLEND","name":"Material #247"},{"pbrMetallicRoughness":{"baseColorFactor":[1.0,1.0,1.0,1.0],"baseColorTexture":{"index":2},"metallicFactor":0.0,"roughnessFactor":0.9},"emissiveFactor":[0.0,0.0,0.0],"alphaMode":"BLEND","name":"Material #249"}],"textures":[{"sampler":0,"source":0,"name":"image01.png"},{"sampler":1,"source":1,"name":"image02.png"},{"sampler":2,"source":2,"name":"image03.png"}],"images":[{"uri":"image01.png"},{"uri":"image02.png"},{"uri":"image03.png"}],"samplers":[{"magFilter":9729,"minFilter":9987,"wrapS":10497,"wrapT":10497},{"magFilter":9729,"minFilter":9987,"wrapS":10497,"wrapT":10497},{"magFilter":9729,"minFilter":9987,"wrapS":10497,"wrapT":10497}]}