{"asset":{"version":"2.0","generator":"Babylon2Gltf2017","copyright":"2017 (c) BabylonJS"},"scene":0,"scenes":[{"nodes":[0]}],"nodes":[{"mesh":0,"translation":[0.0,0.0,0.0],"rotation":[-6.181724E-08,-0.707106769,-2.51214789E-15,-0.707106769],"scale":[1.0,1.0,1.0],"name":"Sphere085"}],"meshes":[{"primitives":[{"attributes":{"POSITION":1,"NORMAL":2,"TEXCOORD_0":3},"indices":0,"mode":4,"material":0},{"attributes":{"POSITION":5,"NORMAL":6,"TEXCOORD_0":7},"indices":4,"mode":4,"material":1},{"attributes":{"POSITION":9,"NORMAL":10,"TEXCOORD_0":11},"indices":8,"mode":4,"material":2}],"name":"Sphere085"}],"accessors":[{"bufferView":0,"componentType":5123,"count":3456,"type":"SCALAR","name":"accessorIndices"},{"bufferView":1,"componentType":5126,"count":3456,"max":[24.97866,25.0113659,25.1108837],"min":[-25.0368423,-24.9670563,-24.9010773],"type":"VEC3","name":"accessorPositions"},{"bufferView":1,"byteOffset":41472,"componentType":5126,"count":3456,"type":"VEC3","name":"accessorNormals"},{"bufferView":2,"componentType":5126,"count":3456,"type":"VEC2","name":"accessorUVs"},{"bufferView":0,"byteOffset":6912,"componentType":5123,"count":9180,"type":"SCALAR","name":"accessorIndices"},{"bufferView":1,"byteOffset":82944,"componentType":5126,"count":9180,"max":[25.0368423,24.967041,24.9010773],"min":[-25.0352116,-25.0113659,-25.110899],"type":"VEC3","name":"accessorPositions"},{"bufferView":1,"byteOffset":193104,"componentType":5126,"count":9180,"type":"VEC3","name":"accessorNormals"},{"bufferView":2,"byteOffset":27648,"componentType":5126,"count":9180,"type":"VEC2","name":"accessorUVs"},{"bufferView":0,"byteOffset":25272,"componentType":5123,"count":2880,"type":"SCALAR","name":"accessorIndices"},{"bufferView":1,"byteOffset":303264,"componentType":5126,"count":2880,"max":[11.0008144,11.3072243,11.0299835],"min":[-10.9991856,-10.6927757,-10.9700165],"type":"VEC3","name":"accessorPositions"},{"bufferView":1,"byteOffset":337824,"componentType":5126,"count":2880,"type":"VEC3","name":"accessorNormals"},{"bufferView":2,"byteOffset":101088,"componentType":5126,"count":2880,"type":"VEC2","name":"accessorUVs"}],"bufferViews":[{"buffer":0,"byteLength":31032,"name":"bufferViewScalar"},{"buffer":0,"byteOffset":31032,"byteLength":372384,"byteStride":12,"name":"bufferViewFloatVec3"},{"buffer":0,"byteOffset":403416,"byteLength":124128,"byteStride":8,"name":"bufferViewFloatVec2"}],"buffers":[{"uri":"jingbao1.bin","byteLength":527544}],"materials":[{"pbrMetallicRoughness":{"baseColorFactor":[1.0,1.0,1.0,1.0],"baseColorTexture":{"index":0},"metallicFactor":0.0,"roughnessFactor":0.9},"emissiveFactor":[0.0,0.0,0.0],"alphaMode":"BLEND","name":"Material #246"},{"pbrMetallicRoughness":{"baseColorFactor":[1.0,1.0,1.0,1.0],"baseColorTexture":{"index":1},"metallicFactor":0.0,"roughnessFactor":0.9},"emissiveFactor":[0.0,0.0,0.0],"alphaMode":"BLEND","name":"Material #247"},{"pbrMetallicRoughness":{"baseColorFactor":[1.0,1.0,1.0,1.0],"baseColorTexture":{"index":2},"metallicFactor":0.0,"roughnessFactor":0.9},"emissiveFactor":[0.0,0.0,0.0],"alphaMode":"BLEND","name":"Material #249"}],"textures":[{"sampler":0,"source":0,"name":"image01.png"},{"sampler":1,"source":1,"name":"image02.png"},{"sampler":2,"source":2,"name":"image03.png"}],"images":[{"uri":"image01.png"},{"uri":"image02.png"},{"uri":"image03.png"}],"samplers":[{"magFilter":9729,"minFilter":9987,"wrapS":10497,"wrapT":10497},{"magFilter":9729,"minFilter":9987,"wrapS":10497,"wrapT":10497},{"magFilter":9729,"minFilter":9987,"wrapS":10497,"wrapT":10497}]}