{"asset":{"version":"2.0","generator":"Babylon2Gltf2017","copyright":"2017 (c) BabylonJS"},"scene":0,"scenes":[{"nodes":[0,1,2,3,4,5,6,7,8,9,10,11,12,13]}],"nodes":[{"mesh":0,"translation":[0.0,0.0,0.0],"rotation":[-1.509958E-07,0.0,0.0,-1.0],"scale":[1.0,1.0,1.0],"name":"Sphere003"},{"mesh":1,"translation":[0.0,0.0,0.0],"rotation":[-1.509958E-07,0.0,0.0,-1.0],"scale":[1.0,1.0,1.0],"name":"对象155"},{"mesh":2,"translation":[0.0,0.0,0.0],"rotation":[-1.509958E-07,0.0,0.0,-1.0],"scale":[1.0,1.0,1.0],"name":"对象157"},{"mesh":3,"translation":[0.0,0.0,0.0],"rotation":[-1.509958E-07,0.0,0.0,-1.0],"scale":[1.0,1.0,1.0],"name":"对象159"},{"mesh":4,"translation":[0.0,0.0,0.0],"rotation":[-1.509958E-07,0.0,0.0,-1.0],"scale":[1.0,1.0,1.0],"name":"对象161"},{"mesh":5,"translation":[0.0,0.0,0.0],"rotation":[-1.509958E-07,0.0,0.0,-1.0],"scale":[1.0,1.0,1.0],"name":"对象163"},{"mesh":6,"translation":[0.0,0.0,0.0],"rotation":[-1.509958E-07,0.0,0.0,-1.0],"scale":[1.0,1.0,1.0],"name":"对象165"},{"mesh":7,"translation":[0.0,0.0,0.0],"rotation":[-1.509958E-07,0.0,0.0,-1.0],"scale":[1.0,1.0,1.0],"name":"对象167"},{"mesh":8,"translation":[0.0,0.0,0.0],"rotation":[-1.509958E-07,0.0,0.0,-1.0],"scale":[1.0,1.0,1.0],"name":"对象169"},{"mesh":9,"translation":[0.0,0.0,0.0],"rotation":[-1.509958E-07,0.0,0.0,-1.0],"scale":[1.0,1.0,1.0],"name":"对象171"},{"mesh":10,"translation":[0.0,0.0,0.0],"rotation":[-1.509958E-07,0.0,0.0,-1.0],"scale":[1.0,1.0,1.0],"name":"对象173"},{"mesh":11,"translation":[0.0,0.0,0.0],"rotation":[-1.509958E-07,0.0,0.0,-1.0],"scale":[1.0,1.0,1.0],"name":"对象175"},{"mesh":12,"translation":[0.0,0.0,0.0],"rotation":[-1.509958E-07,0.0,0.0,-1.0],"scale":[1.0,1.0,1.0],"name":"对象177"},{"mesh":13,"translation":[0.0,0.0,0.0],"rotation":[-1.509958E-07,0.0,0.0,-1.0],"scale":[1.0,1.0,1.0],"name":"对象179"}],"meshes":[{"primitives":[{"attributes":{"POSITION":1,"NORMAL":2,"TEXCOORD_0":3},"indices":0,"mode":4,"material":0}],"name":"Sphere003"},{"primitives":[{"attributes":{"POSITION":5,"NORMAL":6,"TEXCOORD_0":7},"indices":4,"mode":4,"material":1}],"name":"对象155"},{"primitives":[{"attributes":{"POSITION":9,"NORMAL":10,"TEXCOORD_0":11},"indices":8,"mode":4,"material":1}],"name":"对象157"},{"primitives":[{"attributes":{"POSITION":13,"NORMAL":14,"TEXCOORD_0":15},"indices":12,"mode":4,"material":1}],"name":"对象159"},{"primitives":[{"attributes":{"POSITION":17,"NORMAL":18,"TEXCOORD_0":19},"indices":16,"mode":4,"material":1}],"name":"对象161"},{"primitives":[{"attributes":{"POSITION":21,"NORMAL":22,"TEXCOORD_0":23},"indices":20,"mode":4,"material":1}],"name":"对象163"},{"primitives":[{"attributes":{"POSITION":25,"NORMAL":26,"TEXCOORD_0":27},"indices":24,"mode":4,"material":1}],"name":"对象165"},{"primitives":[{"attributes":{"POSITION":29,"NORMAL":30,"TEXCOORD_0":31},"indices":28,"mode":4,"material":1}],"name":"对象167"},{"primitives":[{"attributes":{"POSITION":33,"NORMAL":34,"TEXCOORD_0":35},"indices":32,"mode":4,"material":1}],"name":"对象169"},{"primitives":[{"attributes":{"POSITION":37,"NORMAL":38,"TEXCOORD_0":39},"indices":36,"mode":4,"material":0}],"name":"对象171"},{"primitives":[{"attributes":{"POSITION":41,"NORMAL":42,"TEXCOORD_0":43},"indices":40,"mode":4,"material":0}],"name":"对象173"},{"primitives":[{"attributes":{"POSITION":45,"NORMAL":46,"TEXCOORD_0":47},"indices":44,"mode":4,"material":0}],"name":"对象175"},{"primitives":[{"attributes":{"POSITION":49,"NORMAL":50,"TEXCOORD_0":51},"indices":48,"mode":4,"material":0}],"name":"对象177"},{"primitives":[{"attributes":{"POSITION":53,"NORMAL":54,"TEXCOORD_0":55},"indices":52,"mode":4,"material":0}],"name":"对象179"}],"accessors":[{"bufferView":0,"componentType":5123,"count":1530,"type":"SCALAR","name":"accessorIndices"},{"bufferView":1,"componentType":5126,"count":1530,"max":[10.8551807,-24.9044228,11.0000038],"min":[-11.1448174,-35.9044266,-11.0],"type":"VEC3","name":"accessorPositions"},{"bufferView":1,"byteOffset":18360,"componentType":5126,"count":1530,"type":"VEC3","name":"accessorNormals"},{"bufferView":2,"componentType":5126,"count":1530,"type":"VEC2","name":"accessorUVs"},{"bufferView":0,"byteOffset":3060,"componentType":5123,"count":2592,"type":"SCALAR","name":"accessorIndices"},{"bufferView":1,"byteOffset":36720,"componentType":5126,"count":2592,"max":[36.0980453,36.0320549,36.03604],"min":[14.0980453,14.0320549,14.0360413],"type":"VEC3","name":"accessorPositions"},{"bufferView":1,"byteOffset":67824,"componentType":5126,"count":2592,"type":"VEC3","name":"accessorNormals"},{"bufferView":2,"byteOffset":12240,"componentType":5126,"count":2592,"type":"VEC2","name":"accessorUVs"},{"bufferView":0,"byteOffset":8244,"componentType":5123,"count":2592,"type":"SCALAR","name":"accessorIndices"},{"bufferView":1,"byteOffset":98928,"componentType":5126,"count":2592,"max":[36.0979271,36.0320549,-13.9639587],"min":[14.0979271,14.032053,-35.96396],"type":"VEC3","name":"accessorPositions"},{"bufferView":1,"byteOffset":130032,"componentType":5126,"count":2592,"type":"VEC3","name":"accessorNormals"},{"bufferView":2,"byteOffset":32976,"componentType":5126,"count":2592,"type":"VEC2","name":"accessorUVs"},{"bufferView":0,"byteOffset":13428,"componentType":5123,"count":2592,"type":"SCALAR","name":"accessorIndices"},{"bufferView":1,"byteOffset":161136,"componentType":5126,"count":2592,"max":[-13.9329643,36.0320549,36.0360336],"min":[-35.9329643,14.0320549,14.0360336],"type":"VEC3","name":"accessorPositions"},{"bufferView":1,"byteOffset":192240,"componentType":5126,"count":2592,"type":"VEC3","name":"accessorNormals"},{"bufferView":2,"byteOffset":53712,"componentType":5126,"count":2592,"type":"VEC2","name":"accessorUVs"},{"bufferView":0,"byteOffset":18612,"componentType":5123,"count":2592,"type":"SCALAR","name":"accessorIndices"},{"bufferView":1,"byteOffset":223344,"componentType":5126,"count":2592,"max":[-13.9327316,36.01153,-13.9639511],"min":[-35.93273,14.0115318,-35.96395],"type":"VEC3","name":"accessorPositions"},{"bufferView":1,"byteOffset":254448,"componentType":5126,"count":2592,"type":"VEC3","name":"accessorNormals"},{"bufferView":2,"byteOffset":74448,"componentType":5126,"count":2592,"type":"VEC2","name":"accessorUVs"},{"bufferView":0,"byteOffset":23796,"componentType":5123,"count":2592,"type":"SCALAR","name":"accessorIndices"},{"bufferView":1,"byteOffset":285552,"componentType":5126,"count":2592,"max":[36.1001549,-13.9791412,36.03604],"min":[14.1001549,-35.9791451,14.0360432],"type":"VEC3","name":"accessorPositions"},{"bufferView":1,"byteOffset":316656,"componentType":5126,"count":2592,"type":"VEC3","name":"accessorNormals"},{"bufferView":2,"byteOffset":95184,"componentType":5126,"count":2592,"type":"VEC2","name":"accessorUVs"},{"bufferView":0,"byteOffset":28980,"componentType":5123,"count":2592,"type":"SCALAR","name":"accessorIndices"},{"bufferView":1,"byteOffset":347760,"componentType":5126,"count":2592,"max":[36.10015,-13.9791489,-13.9639511],"min":[14.1001511,-35.9791527,-35.96395],"type":"VEC3","name":"accessorPositions"},{"bufferView":1,"byteOffset":378864,"componentType":5126,"count":2592,"type":"VEC3","name":"accessorNormals"},{"bufferView":2,"byteOffset":115920,"componentType":5126,"count":2592,"type":"VEC2","name":"accessorUVs"},{"bufferView":0,"byteOffset":34164,"componentType":5123,"count":2592,"type":"SCALAR","name":"accessorIndices"},{"bufferView":1,"byteOffset":409968,"componentType":5126,"count":2592,"max":[-13.9536057,-13.9772949,36.03605],"min":[-35.9536057,-35.9773,14.036047],"type":"VEC3","name":"accessorPositions"},{"bufferView":1,"byteOffset":441072,"componentType":5126,"count":2592,"type":"VEC3","name":"accessorNormals"},{"bufferView":2,"byteOffset":136656,"componentType":5126,"count":2592,"type":"VEC2","name":"accessorUVs"},{"bufferView":0,"byteOffset":39348,"componentType":5123,"count":2592,"type":"SCALAR","name":"accessorIndices"},{"bufferView":1,"byteOffset":472176,"componentType":5126,"count":2592,"max":[-13.9535942,-13.9772949,-13.9639664],"min":[-35.9535942,-35.9773,-35.9639664],"type":"VEC3","name":"accessorPositions"},{"bufferView":1,"byteOffset":503280,"componentType":5126,"count":2592,"type":"VEC3","name":"accessorNormals"},{"bufferView":2,"byteOffset":157392,"componentType":5126,"count":2592,"type":"VEC2","name":"accessorUVs"},{"bufferView":0,"byteOffset":44532,"componentType":5123,"count":1530,"type":"SCALAR","name":"accessorIndices"},{"bufferView":1,"byteOffset":534384,"componentType":5126,"count":1530,"max":[35.8912354,11.3078918,11.0],"min":[24.89123,-10.6921082,-11.0],"type":"VEC3","name":"accessorPositions"},{"bufferView":1,"byteOffset":552744,"componentType":5126,"count":1530,"type":"VEC3","name":"accessorNormals"},{"bufferView":2,"byteOffset":178128,"componentType":5126,"count":1530,"type":"VEC2","name":"accessorUVs"},{"bufferView":0,"byteOffset":47592,"componentType":5123,"count":1530,"type":"SCALAR","name":"accessorIndices"},{"bufferView":1,"byteOffset":571104,"componentType":5126,"count":1530,"max":[-25.1808548,11.2942276,11.0],"min":[-36.18086,-10.7057724,-11.0],"type":"VEC3","name":"accessorPositions"},{"bufferView":1,"byteOffset":589464,"componentType":5126,"count":1530,"type":"VEC3","name":"accessorNormals"},{"bufferView":2,"byteOffset":190368,"componentType":5126,"count":1530,"type":"VEC2","name":"accessorUVs"},{"bufferView":0,"byteOffset":50652,"componentType":5123,"count":1530,"type":"SCALAR","name":"accessorIndices"},{"bufferView":1,"byteOffset":607824,"componentType":5126,"count":1530,"max":[11.0000153,11.306427,-25.03604],"min":[-10.9999847,-10.693573,-36.0360451],"type":"VEC3","name":"accessorPositions"},{"bufferView":1,"byteOffset":626184,"componentType":5126,"count":1530,"type":"VEC3","name":"accessorNormals"},{"bufferView":2,"byteOffset":202608,"componentType":5126,"count":1530,"type":"VEC2","name":"accessorUVs"},{"bufferView":0,"byteOffset":53712,"componentType":5123,"count":1530,"type":"SCALAR","name":"accessorIndices"},{"bufferView":1,"byteOffset":644544,"componentType":5126,"count":1530,"max":[11.0000305,11.306427,36.0360451],"min":[-10.9999695,-10.693573,25.0360374],"type":"VEC3","name":"accessorPositions"},{"bufferView":1,"byteOffset":662904,"componentType":5126,"count":1530,"type":"VEC3","name":"accessorNormals"},{"bufferView":2,"byteOffset":214848,"componentType":5126,"count":1530,"type":"VEC2","name":"accessorUVs"},{"bufferView":0,"byteOffset":56772,"componentType":5123,"count":1530,"type":"SCALAR","name":"accessorIndices"},{"bufferView":1,"byteOffset":681264,"componentType":5126,"count":1530,"max":[10.8551865,35.9937019,11.0],"min":[-11.1448135,24.9936962,-11.0],"type":"VEC3","name":"accessorPositions"},{"bufferView":1,"byteOffset":699624,"componentType":5126,"count":1530,"type":"VEC3","name":"accessorNormals"},{"bufferView":2,"byteOffset":227088,"componentType":5126,"count":1530,"type":"VEC2","name":"accessorUVs"},{"bufferView":3,"componentType":5126,"count":21,"max":[3.33333325],"min":[0.0],"type":"SCALAR","name":"accessorAnimationInput"},{"bufferView":4,"componentType":5126,"count":21,"type":"VEC3","name":"accessorAnimationPositions"},{"bufferView":3,"byteOffset":84,"componentType":5126,"count":21,"max":[3.33333325],"min":[0.0],"type":"SCALAR","name":"accessorAnimationInput"},{"bufferView":4,"byteOffset":252,"componentType":5126,"count":21,"type":"VEC3","name":"accessorAnimationPositions"},{"bufferView":3,"byteOffset":168,"componentType":5126,"count":21,"max":[3.33333325],"min":[0.0],"type":"SCALAR","name":"accessorAnimationInput"},{"bufferView":4,"byteOffset":504,"componentType":5126,"count":21,"type":"VEC3","name":"accessorAnimationPositions"},{"bufferView":3,"byteOffset":252,"componentType":5126,"count":21,"max":[3.33333325],"min":[0.0],"type":"SCALAR","name":"accessorAnimationInput"},{"bufferView":4,"byteOffset":756,"componentType":5126,"count":21,"type":"VEC3","name":"accessorAnimationPositions"},{"bufferView":3,"byteOffset":336,"componentType":5126,"count":21,"max":[3.33333325],"min":[0.0],"type":"SCALAR","name":"accessorAnimationInput"},{"bufferView":4,"byteOffset":1008,"componentType":5126,"count":21,"type":"VEC3","name":"accessorAnimationPositions"},{"bufferView":3,"byteOffset":420,"componentType":5126,"count":21,"max":[3.33333325],"min":[0.0],"type":"SCALAR","name":"accessorAnimationInput"},{"bufferView":4,"byteOffset":1260,"componentType":5126,"count":21,"type":"VEC3","name":"accessorAnimationPositions"},{"bufferView":3,"byteOffset":504,"componentType":5126,"count":21,"max":[3.33333325],"min":[0.0],"type":"SCALAR","name":"accessorAnimationInput"},{"bufferView":4,"byteOffset":1512,"componentType":5126,"count":21,"type":"VEC3","name":"accessorAnimationPositions"},{"bufferView":3,"byteOffset":588,"componentType":5126,"count":21,"max":[3.33333325],"min":[0.0],"type":"SCALAR","name":"accessorAnimationInput"},{"bufferView":4,"byteOffset":1764,"componentType":5126,"count":21,"type":"VEC3","name":"accessorAnimationPositions"},{"bufferView":3,"byteOffset":672,"componentType":5126,"count":21,"max":[3.33333325],"min":[0.0],"type":"SCALAR","name":"accessorAnimationInput"},{"bufferView":4,"byteOffset":2016,"componentType":5126,"count":21,"type":"VEC3","name":"accessorAnimationPositions"},{"bufferView":3,"byteOffset":756,"componentType":5126,"count":21,"max":[3.33333325],"min":[0.0],"type":"SCALAR","name":"accessorAnimationInput"},{"bufferView":4,"byteOffset":2268,"componentType":5126,"count":21,"type":"VEC3","name":"accessorAnimationPositions"},{"bufferView":3,"byteOffset":840,"componentType":5126,"count":21,"max":[3.33333325],"min":[0.0],"type":"SCALAR","name":"accessorAnimationInput"},{"bufferView":4,"byteOffset":2520,"componentType":5126,"count":21,"type":"VEC3","name":"accessorAnimationPositions"},{"bufferView":3,"byteOffset":924,"componentType":5126,"count":21,"max":[3.33333325],"min":[0.0],"type":"SCALAR","name":"accessorAnimationInput"},{"bufferView":4,"byteOffset":2772,"componentType":5126,"count":21,"type":"VEC3","name":"accessorAnimationPositions"},{"bufferView":3,"byteOffset":1008,"componentType":5126,"count":21,"max":[3.33333325],"min":[0.0],"type":"SCALAR","name":"accessorAnimationInput"},{"bufferView":4,"byteOffset":3024,"componentType":5126,"count":21,"type":"VEC3","name":"accessorAnimationPositions"},{"bufferView":3,"byteOffset":1092,"componentType":5126,"count":21,"max":[3.33333325],"min":[0.0],"type":"SCALAR","name":"accessorAnimationInput"},{"bufferView":4,"byteOffset":3276,"componentType":5126,"count":21,"type":"VEC3","name":"accessorAnimationPositions"}],"bufferViews":[{"buffer":0,"byteLength":59832,"name":"bufferViewScalar"},{"buffer":0,"byteOffset":59832,"byteLength":717984,"byteStride":12,"name":"bufferViewFloatVec3"},{"buffer":0,"byteOffset":777816,"byteLength":239328,"byteStride":8,"name":"bufferViewFloatVec2"},{"buffer":0,"byteOffset":1017144,"byteLength":1176,"name":"bufferViewAnimationFloatScalar"},{"buffer":0,"byteOffset":1018320,"byteLength":3528,"name":"bufferViewAnimationFloatVec3"}],"buffers":[{"uri":"jingbao2.bin","byteLength":1021848}],"materials":[{"pbrMetallicRoughness":{"baseColorFactor":[1.0,1.0,1.0,1.0],"baseColorTexture":{"index":0},"metallicFactor":0.0,"roughnessFactor":0.9},"emissiveFactor":[0.0,0.0,0.0],"alphaMode":"BLEND","name":"Material #247"},{"pbrMetallicRoughness":{"baseColorFactor":[1.0,1.0,1.0,1.0],"baseColorTexture":{"index":1},"metallicFactor":0.0,"roughnessFactor":0.9},"emissiveFactor":[0.0,0.0,0.0],"alphaMode":"BLEND","name":"Material #246"}],"textures":[{"sampler":0,"source":0,"name":"image02.png"},{"sampler":1,"source":1,"name":"image01.png"}],"images":[{"uri":"image02.png"},{"uri":"image01.png"}],"samplers":[{"magFilter":9729,"minFilter":9987,"wrapS":10497,"wrapT":10497},{"magFilter":9729,"minFilter":9987,"wrapS":10497,"wrapT":10497}],"animations":[{"channels":[{"sampler":0,"target":{"node":0,"path":"translation"}},{"sampler":1,"target":{"node":1,"path":"translation"}},{"sampler":2,"target":{"node":2,"path":"translation"}},{"sampler":3,"target":{"node":3,"path":"translation"}},{"sampler":4,"target":{"node":4,"path":"translation"}},{"sampler":5,"target":{"node":5,"path":"translation"}},{"sampler":6,"target":{"node":6,"path":"translation"}},{"sampler":7,"target":{"node":7,"path":"translation"}},{"sampler":8,"target":{"node":8,"path":"translation"}},{"sampler":9,"target":{"node":9,"path":"translation"}},{"sampler":10,"target":{"node":10,"path":"translation"}},{"sampler":11,"target":{"node":11,"path":"translation"}},{"sampler":12,"target":{"node":12,"path":"translation"}},{"sampler":13,"target":{"node":13,"path":"translation"}}],"samplers":[{"input":56,"interpolation":"LINEAR","output":57},{"input":58,"interpolation":"LINEAR","output":59},{"input":60,"interpolation":"LINEAR","output":61},{"input":62,"interpolation":"LINEAR","output":63},{"input":64,"interpolation":"LINEAR","output":65},{"input":66,"interpolation":"LINEAR","output":67},{"input":68,"interpolation":"LINEAR","output":69},{"input":70,"interpolation":"LINEAR","output":71},{"input":72,"interpolation":"LINEAR","output":73},{"input":74,"interpolation":"LINEAR","output":75},{"input":76,"interpolation":"LINEAR","output":77},{"input":78,"interpolation":"LINEAR","output":79},{"input":80,"interpolation":"LINEAR","output":81},{"input":82,"interpolation":"LINEAR","output":83}]}]}