{"asset":{"version":"2.0","generator":"Babylon2Gltf2017","copyright":"2017 (c) BabylonJS"},"scene":0,"scenes":[{"nodes":[0]}],"nodes":[{"mesh":0,"translation":[0.0,0.0,0.0],"rotation":[0.7071069,-2.00197377E-07,0.70710665,-2.21271122E-07],"scale":[1.000001,0.9999991,1.0],"name":"对象187"}],"meshes":[{"primitives":[{"attributes":{"POSITION":1,"NORMAL":2,"TEXCOORD_0":3},"indices":0,"mode":4,"material":0}],"name":"对象187"}],"accessors":[{"bufferView":0,"componentType":5123,"count":3456,"type":"SCALAR","name":"accessorIndices"},{"bufferView":1,"componentType":5126,"count":3456,"max":[11.0000057,11.0,11.0000305],"min":[-10.999999,-11.0000057,-11.0000305],"type":"VEC3","name":"accessorPositions"},{"bufferView":1,"byteOffset":41472,"componentType":5126,"count":3456,"type":"VEC3","name":"accessorNormals"},{"bufferView":2,"componentType":5126,"count":3456,"type":"VEC2","name":"accessorUVs"}],"bufferViews":[{"buffer":0,"byteLength":6912,"name":"bufferViewScalar"},{"buffer":0,"byteOffset":6912,"byteLength":82944,"byteStride":12,"name":"bufferViewFloatVec3"},{"buffer":0,"byteOffset":89856,"byteLength":27648,"byteStride":8,"name":"bufferViewFloatVec2"}],"buffers":[{"uri":"xiaoqiu2.bin","byteLength":117504}],"materials":[{"pbrMetallicRoughness":{"baseColorFactor":[1.0,1.0,1.0,1.0],"baseColorTexture":{"index":0},"metallicFactor":0.0,"roughnessFactor":0.9},"emissiveFactor":[0.0,0.0,0.0],"alphaMode":"BLEND","name":"Material #246"}],"textures":[{"sampler":0,"source":0,"name":"image01.png"}],"images":[{"uri":"image01.png"}],"samplers":[{"magFilter":9729,"minFilter":9987,"wrapS":10497,"wrapT":10497}]}