{"asset":{"version":"2.0","generator":"Babylon2Gltf2017","copyright":"2017 (c) BabylonJS"},"scene":0,"scenes":[{"nodes":[0]}],"nodes":[{"mesh":0,"translation":[0.0,0.0,0.0],"rotation":[-2.31807661E-07,-0.70710665,-2.31807746E-07,-0.7071069],"scale":[0.999999046,1.00000083,1.0],"name":"对象192"}],"meshes":[{"primitives":[{"attributes":{"POSITION":1,"NORMAL":2,"TEXCOORD_0":3},"indices":0,"mode":4,"material":0}],"name":"对象192"}],"accessors":[{"bufferView":0,"componentType":5123,"count":3060,"type":"SCALAR","name":"accessorIndices"},{"bufferView":1,"componentType":5126,"count":3060,"max":[-14.006937,10.9778357,-14.1379814],"min":[-36.0069427,-10.9778538,-36.13798],"type":"VEC3","name":"accessorPositions"},{"bufferView":1,"byteOffset":36720,"componentType":5126,"count":3060,"type":"VEC3","name":"accessorNormals"},{"bufferView":2,"componentType":5126,"count":3060,"type":"VEC2","name":"accessorUVs"}],"bufferViews":[{"buffer":0,"byteLength":6120,"name":"bufferViewScalar"},{"buffer":0,"byteOffset":6120,"byteLength":73440,"byteStride":12,"name":"bufferViewFloatVec3"},{"buffer":0,"byteOffset":79560,"byteLength":24480,"byteStride":8,"name":"bufferViewFloatVec2"}],"buffers":[{"uri":"xiaoqiu1.bin","byteLength":104040}],"materials":[{"pbrMetallicRoughness":{"baseColorFactor":[1.0,1.0,1.0,1.0],"baseColorTexture":{"index":0},"metallicFactor":0.0,"roughnessFactor":0.9},"emissiveFactor":[0.0,0.0,0.0],"alphaMode":"BLEND","name":"Material #247"}],"textures":[{"sampler":0,"source":0,"name":"image02.png"}],"images":[{"uri":"image02.png"}],"samplers":[{"magFilter":9729,"minFilter":9987,"wrapS":10497,"wrapT":10497}]}