{"asset":{"version":"2.0","generator":"Babylon2Gltf2017","copyright":"2017 (c) BabylonJS"},"scene":0,"scenes":[{"nodes":[0]}],"nodes":[{"mesh":0,"translation":[0.0,0.0,0.0],"rotation":[0.0,0.0,0.0,-1.0],"scale":[0.95267266,1.28771687,1.10611081],"name":"Sphere028"}],"meshes":[{"primitives":[{"attributes":{"POSITION":1,"NORMAL":2,"TEXCOORD_0":3},"indices":0,"mode":4,"material":0}],"name":"Sphere028"}],"accessors":[{"bufferView":0,"componentType":5125,"count":77760,"type":"SCALAR","name":"accessorIndices"},{"bufferView":1,"componentType":5126,"count":77760,"max":[376.030975,218.046921,36.54424],"min":[-224.51561,-121.854607,-49.7140961],"type":"VEC3","name":"accessorPositions"},{"bufferView":1,"byteOffset":933120,"componentType":5126,"count":77760,"type":"VEC3","name":"accessorNormals"},{"bufferView":2,"componentType":5126,"count":77760,"type":"VEC2","name":"accessorUVs"}],"bufferViews":[{"buffer":0,"byteLength":311040,"name":"bufferViewScalar"},{"buffer":0,"byteOffset":311040,"byteLength":1866240,"byteStride":12,"name":"bufferViewFloatVec3"},{"buffer":0,"byteOffset":2177280,"byteLength":622080,"byteStride":8,"name":"bufferViewFloatVec2"}],"buffers":[{"uri":"XB.bin","byteLength":2799360}],"materials":[{"pbrMetallicRoughness":{"baseColorFactor":[1.0,1.0,1.0,1.0],"baseColorTexture":{"index":0},"metallicFactor":0.0,"roughnessFactor":0.9},"emissiveFactor":[0.0,0.0,0.0],"alphaMode":"BLEND","name":"Material229"}],"textures":[{"sampler":0,"source":0,"name":"Material229_baseColor.png"}],"images":[{"uri":"Material229_baseColor.png"}],"samplers":[{"magFilter":9729,"minFilter":9987,"wrapS":10497,"wrapT":10497}]}