{"asset":{"version":"2.0","generator":"Babylon2Gltf2017","copyright":"2017 (c) BabylonJS"},"scene":0,"scenes":[{"nodes":[0]}],"nodes":[{"mesh":0,"translation":[0.0,0.0,0.0],"rotation":[-4.75754058E-09,-1.74987331E-08,-0.262355536,-0.9649713],"scale":[0.378545433,0.489096254,0.4144992],"name":"Sphere029"}],"meshes":[{"primitives":[{"attributes":{"POSITION":1,"NORMAL":2,"TEXCOORD_0":3},"indices":0,"mode":4,"material":0}],"name":"Sphere029"}],"accessors":[{"bufferView":0,"componentType":5125,"count":77760,"type":"SCALAR","name":"accessorIndices"},{"bufferView":1,"componentType":5126,"count":77760,"max":[925.0265,569.0659,69.11058],"min":[-530.8382,-562.5884,-103.773483],"type":"VEC3","name":"accessorPositions"},{"bufferView":1,"byteOffset":933120,"componentType":5126,"count":77760,"type":"VEC3","name":"accessorNormals"},{"bufferView":2,"componentType":5126,"count":77760,"type":"VEC2","name":"accessorUVs"}],"bufferViews":[{"buffer":0,"byteLength":311040,"name":"bufferViewScalar"},{"buffer":0,"byteOffset":311040,"byteLength":1866240,"byteStride":12,"name":"bufferViewFloatVec3"},{"buffer":0,"byteOffset":2177280,"byteLength":622080,"byteStride":8,"name":"bufferViewFloatVec2"}],"buffers":[{"uri":"XBH.bin","byteLength":2799360}],"materials":[{"pbrMetallicRoughness":{"baseColorFactor":[1.0,1.0,1.0,1.0],"baseColorTexture":{"index":0},"metallicFactor":0.0,"roughnessFactor":0.9},"emissiveFactor":[0.0,0.0,0.0],"alphaMode":"BLEND","name":"Material230"}],"textures":[{"sampler":0,"source":0,"name":"Material230_baseColor.png"}],"images":[{"uri":"Material230_baseColor.png"}],"samplers":[{"magFilter":9729,"minFilter":9987,"wrapS":10497,"wrapT":10497}]}