{"asset":{"version":"2.0","generator":"Babylon2Gltf2017","copyright":"2017 (c) BabylonJS"},"scene":0,"scenes":[{"nodes":[0,1]}],"nodes":[{"mesh":0,"translation":[0.0,0.0,0.0],"rotation":[-0.7071068,0.0,0.0,-0.7071067],"scale":[1.0,0.8830056,1.0],"name":"Box010"},{"mesh":1,"translation":[0.0,0.0,0.0],"rotation":[-0.7071068,0.0,0.0,-0.7071067],"scale":[1.0,0.7245171,1.0],"name":"Box005"}],"meshes":[{"primitives":[{"attributes":{"POSITION":1,"NORMAL":2,"TEXCOORD_0":3},"indices":0,"mode":4,"material":0},{"attributes":{"POSITION":5,"NORMAL":6,"TEXCOORD_0":7},"indices":4,"mode":4,"material":1},{"attributes":{"POSITION":9,"NORMAL":10,"TEXCOORD_0":11},"indices":8,"mode":4,"material":2},{"attributes":{"POSITION":13,"NORMAL":14,"TEXCOORD_0":15},"indices":12,"mode":4,"material":3},{"attributes":{"POSITION":17,"NORMAL":18,"TEXCOORD_0":19},"indices":16,"mode":4,"material":4}],"name":"Box010"},{"primitives":[{"attributes":{"POSITION":21,"NORMAL":22,"TEXCOORD_0":23},"indices":20,"mode":4,"material":5}],"name":"Box005"}],"accessors":[{"bufferView":0,"componentType":5125,"count":39684,"type":"SCALAR","name":"accessorIndices"},{"bufferView":1,"componentType":5126,"count":39684,"max":[344.873535,19.0457172,225.198608],"min":[74.24284,-19.8894768,-298.18512],"type":"VEC3","name":"accessorPositions"},{"bufferView":1,"byteOffset":476208,"componentType":5126,"count":39684,"type":"VEC3","name":"accessorNormals"},{"bufferView":2,"componentType":5126,"count":39684,"type":"VEC2","name":"accessorUVs"},{"bufferView":0,"byteOffset":158736,"componentType":5125,"count":42060,"type":"SCALAR","name":"accessorIndices"},{"bufferView":1,"byteOffset":952416,"componentType":5126,"count":42060,"max":[-31.9438782,19.26112,245.603043],"min":[-320.150818,-20.111475,-313.337158],"type":"VEC3","name":"accessorPositions"},{"bufferView":1,"byteOffset":1457136,"componentType":5126,"count":42060,"type":"VEC3","name":"accessorNormals"},{"bufferView":2,"byteOffset":317472,"componentType":5126,"count":42060,"type":"VEC2","name":"accessorUVs"},{"bufferView":0,"byteOffset":326976,"componentType":5125,"count":1632,"type":"SCALAR","name":"accessorIndices"},{"bufferView":1,"byteOffset":1961856,"componentType":5126,"count":1632,"max":[344.873535,17.2844524,245.603043],"min":[-320.150818,-18.13086,-313.337158],"type":"VEC3","name":"accessorPositions"},{"bufferView":1,"byteOffset":1981440,"componentType":5126,"count":1632,"type":"VEC3","name":"accessorNormals"},{"bufferView":2,"byteOffset":653952,"componentType":5126,"count":1632,"type":"VEC2","name":"accessorUVs"},{"bufferView":0,"byteOffset":333504,"componentType":5125,"count":57312,"type":"SCALAR","name":"accessorIndices"},{"bufferView":1,"byteOffset":2001024,"componentType":5126,"count":57312,"max":[81.0504,9.543938,88.18495],"min":[-37.4287567,-10.38768,-274.207031],"type":"VEC3","name":"accessorPositions"},{"bufferView":1,"byteOffset":2688768,"componentType":5126,"count":57312,"type":"VEC3","name":"accessorNormals"},{"bufferView":2,"byteOffset":667008,"componentType":5126,"count":57312,"type":"VEC2","name":"accessorUVs"},{"bufferView":0,"byteOffset":562752,"componentType":5125,"count":139056,"type":"SCALAR","name":"accessorIndices"},{"bufferView":1,"byteOffset":3376512,"componentType":5126,"count":139056,"max":[343.688477,16.0438328,245.5865],"min":[-319.239,-16.8861732,-313.336243],"type":"VEC3","name":"accessorPositions"},{"bufferView":1,"byteOffset":5045184,"componentType":5126,"count":139056,"type":"VEC3","name":"accessorNormals"},{"bufferView":2,"byteOffset":1125504,"componentType":5126,"count":139056,"type":"VEC2","name":"accessorUVs"},{"bufferView":0,"byteOffset":1118976,"componentType":5125,"count":287232,"type":"SCALAR","name":"accessorIndices"},{"bufferView":1,"byteOffset":6713856,"componentType":5126,"count":287232,"max":[402.4639,26.114748,129.179688],"min":[-402.463867,-37.54204,-272.89093],"type":"VEC3","name":"accessorPositions"},{"bufferView":1,"byteOffset":10160640,"componentType":5126,"count":287232,"type":"VEC3","name":"accessorNormals"},{"bufferView":2,"byteOffset":2237952,"componentType":5126,"count":287232,"type":"VEC2","name":"accessorUVs"}],"bufferViews":[{"buffer":0,"byteLength":2267904,"name":"bufferViewScalar"},{"buffer":0,"byteOffset":2267904,"byteLength":13607424,"byteStride":12,"name":"bufferViewFloatVec3"},{"buffer":0,"byteOffset":15875328,"byteLength":4535808,"byteStride":8,"name":"bufferViewFloatVec2"}],"buffers":[{"uri":"XG.bin","byteLength":20411136}],"materials":[{"pbrMetallicRoughness":{"baseColorFactor":[1.0,1.0,1.0,1.0],"baseColorTexture":{"index":0},"metallicFactor":0.0,"roughnessFactor":0.9},"emissiveFactor":[0.0,0.0,0.0],"alphaMode":"BLEND","name":"Material226"},{"pbrMetallicRoughness":{"baseColorFactor":[1.0,1.0,1.0,1.0],"baseColorTexture":{"index":1},"metallicFactor":0.0,"roughnessFactor":0.9},"emissiveFactor":[0.0,0.0,0.0],"alphaMode":"BLEND","name":"Material224"},{"pbrMetallicRoughness":{"baseColorFactor":[1.0,1.0,1.0,1.0],"baseColorTexture":{"index":2},"metallicFactor":0.0,"roughnessFactor":0.9},"emissiveFactor":[0.0,0.0,0.0],"alphaMode":"BLEND","name":"Material344"},{"pbrMetallicRoughness":{"baseColorFactor":[1.0,1.0,1.0,1.0],"baseColorTexture":{"index":3},"metallicFactor":0.0,"roughnessFactor":0.9},"emissiveFactor":[0.0,0.0,0.0],"alphaMode":"BLEND","name":"Material225"},{"pbrMetallicRoughness":{"baseColorFactor":[1.0,1.0,1.0,1.0],"baseColorTexture":{"index":4},"metallicFactor":0.0,"roughnessFactor":0.9},"emissiveFactor":[0.0,0.0,0.0],"alphaMode":"BLEND","name":"Material523"},{"pbrMetallicRoughness":{"baseColorFactor":[1.0,1.0,1.0,1.0],"baseColorTexture":{"index":5},"metallicFactor":0.0,"roughnessFactor":0.9},"emissiveFactor":[0.0,0.0,0.0],"alphaMode":"BLEND","name":"Material223"}],"textures":[{"sampler":0,"source":0,"name":"Material226_baseColor.png"},{"sampler":1,"source":1,"name":"Material224_baseColor.png"},{"sampler":2,"source":2,"name":"Material344_baseColor.png"},{"sampler":3,"source":3,"name":"Material225_baseColor.png"},{"sampler":4,"source":4,"name":"Material523_baseColor.png"},{"sampler":5,"source":5,"name":"Material223_baseColor.png"}],"images":[{"uri":"Material226_baseColor.png"},{"uri":"Material224_baseColor.png"},{"uri":"Material344_baseColor.png"},{"uri":"Material225_baseColor.png"},{"uri":"Material523_baseColor.png"},{"uri":"Material223_baseColor.png"}],"samplers":[{"magFilter":9729,"minFilter":9987,"wrapS":10497,"wrapT":10497},{"magFilter":9729,"minFilter":9987,"wrapS":10497,"wrapT":10497},{"magFilter":9729,"minFilter":9987,"wrapS":10497,"wrapT":10497},{"magFilter":9729,"minFilter":9987,"wrapS":10497,"wrapT":10497},{"magFilter":9729,"minFilter":9987,"wrapS":10497,"wrapT":10497},{"magFilter":9729,"minFilter":9987,"wrapS":10497,"wrapT":10497}]}