{"asset":{"version":"2.0","generator":"Babylon2Gltf2017","copyright":"2017(c)BabylonJS"},"scene":0,"scenes":[{"nodes":[0]}],"nodes":[{"mesh":0,"translation":[0.0,-9.536743E-07,0.0],"rotation":[0.0,1.509958E-07,0.0,-1.0],"scale":[1.0,1.0,1.0],"name":"6"}],"meshes":[{"primitives":[{"attributes":{"POSITION":1,"NORMAL":2,"TEXCOORD_0":3},"indices":0,"mode":4,"material":0},{"attributes":{"POSITION":5,"NORMAL":6,"TEXCOORD_0":7},"indices":4,"mode":4,"material":1}],"name":"6"}],"accessors":[{"bufferView":0,"componentType":5123,"count":33024,"type":"SCALAR","name":"accessorIndices"},{"bufferView":1,"componentType":5126,"count":33024,"max":[12.5903053,16.7087784,5.139144],"min":[-16.106802,-16.7087784,-5.139146],"type":"VEC3","name":"accessorPositions"},{"bufferView":1,"byteOffset":396288,"componentType":5126,"count":33024,"type":"VEC3","name":"accessorNormals"},{"bufferView":2,"componentType":5126,"count":33024,"type":"VEC2","name":"accessorUVs"},{"bufferView":0,"byteOffset":66048,"componentType":5123,"count":25152,"type":"SCALAR","name":"accessorIndices"},{"bufferView":1,"byteOffset":792576,"componentType":5126,"count":25152,"max":[19.10235,21.0131264,10.3861856],"min":[-19.10235,-21.0131264,-10.3861856],"type":"VEC3","name":"accessorPositions"},{"bufferView":1,"byteOffset":1094400,"componentType":5126,"count":25152,"type":"VEC3","name":"accessorNormals"},{"bufferView":2,"byteOffset":264192,"componentType":5126,"count":25152,"type":"VEC2","name":"accessorUVs"}],"bufferViews":[{"buffer":0,"byteLength":116352,"name":"bufferViewScalar"},{"buffer":0,"byteOffset":116352,"byteLength":1396224,"byteStride":12,"name":"bufferViewFloatVec3"},{"buffer":0,"byteOffset":1512576,"byteLength":465408,"byteStride":8,"name":"bufferViewFloatVec2"}],"buffers":[{"uri":"jjpx.bin","byteLength":1977984}],"materials":[{"pbrMetallicRoughness":{"baseColorFactor":[1.0,1.0,1.0,1.0],"baseColorTexture":{"index":0},"metallicFactor":0.0,"roughnessFactor":0.9},"emissiveFactor":[0.0,0.0,0.0],"alphaMode":"BLEND","name":"Material126"},{"pbrMetallicRoughness":{"baseColorFactor":[1.0,1.0,1.0,1.0],"baseColorTexture":{"index":1},"metallicFactor":0.0,"roughnessFactor":0.9},"emissiveFactor":[0.0,0.0,0.0],"alphaMode":"BLEND","name":"Material5077"}],"textures":[{"sampler":0,"source":0,"name":"Material126_baseColor.png"},{"sampler":1,"source":1,"name":"Material5077_baseColor.png"}],"images":[{"uri":"Material126_baseColor.png"},{"uri":"Material5077_baseColor.png"}],"samplers":[{"magFilter":9729,"minFilter":9987,"wrapS":10497,"wrapT":10497},{"magFilter":9729,"minFilter":9987,"wrapS":10497,"wrapT":10497}]}