{"asset":{"version":"2.0","generator":"babylon.js glTF exporter for maya 2018 v1.2.16","copyright":"2017 (c) BabylonJS"},"extensionsUsed":["KHR_lights"],"scene":0,"scenes":[{"nodes":[0],"extensions":{"KHR_lights":{"light":0}}}],"nodes":[{"children":[1,2,3,4],"translation":[0.0,0.0,0.0],"rotation":[0.0,0.0,0.0,1.0],"scale":[1.0,1.0,1.0],"name":"shimo"},{"mesh":0,"translation":[0.0,0.0,0.0],"rotation":[0.0,0.0,0.0,1.0],"scale":[1.0,1.0,1.0],"name":"qiu_pai"},{"mesh":1,"translation":[0.0,0.0,0.0],"rotation":[0.0,0.0,0.0,1.0],"scale":[1.0,1.0,1.0],"name":"cube"},{"mesh":2,"translation":[0.0,0.0,0.0],"rotation":[0.0,0.0,0.0,1.0],"scale":[1.0,1.0,1.0],"name":"yuanzhu"},{"mesh":3,"translation":[0.0,0.0,0.0],"rotation":[0.0,0.0,0.0,1.0],"scale":[1.0,1.0,1.0],"name":"qiu"}],"meshes":[{"primitives":[{"attributes":{"POSITION":1,"NORMAL":2,"TANGENT":3,"TEXCOORD_0":4},"indices":0,"mode":4,"material":0}],"name":"qiu_pai"},{"primitives":[{"attributes":{"POSITION":6,"NORMAL":7,"TANGENT":8,"TEXCOORD_0":9},"indices":5,"mode":4,"material":1}],"name":"cube"},{"primitives":[{"attributes":{"POSITION":11,"NORMAL":12,"TANGENT":13,"TEXCOORD_0":14},"indices":10,"mode":4,"material":2}],"name":"yuanzhu"},{"primitives":[{"attributes":{"POSITION":16,"NORMAL":17,"TANGENT":18,"TEXCOORD_0":19},"indices":15,"mode":4,"material":3}],"name":"qiu"}],"accessors":[{"bufferView":0,"componentType":5123,"count":8400,"type":"SCALAR","name":"accessorIndices"},{"bufferView":1,"componentType":5126,"count":1620,"max":[21.9925156,33.09061,44.65745],"min":[-12.9764252,-6.867518,26.1698189],"type":"VEC3","name":"accessorPositions"},{"bufferView":1,"byteOffset":19440,"componentType":5126,"count":1620,"type":"VEC3","name":"accessorNormals"},{"bufferView":2,"componentType":5126,"count":1620,"type":"VEC4","name":"accessorTangents"},{"bufferView":3,"componentType":5126,"count":1620,"type":"VEC2","name":"accessorUVs"},{"bufferView":0,"byteOffset":16800,"componentType":5123,"count":3672,"type":"SCALAR","name":"accessorIndices"},{"bufferView":1,"byteOffset":38880,"componentType":5126,"count":2448,"max":[37.75214,57.16953,21.6093826],"min":[-12.2861137,-28.7053185,-21.6894684],"type":"VEC3","name":"accessorPositions"},{"bufferView":1,"byteOffset":68256,"componentType":5126,"count":2448,"type":"VEC3","name":"accessorNormals"},{"bufferView":2,"byteOffset":25920,"componentType":5126,"count":2448,"type":"VEC4","name":"accessorTangents"},{"bufferView":3,"byteOffset":12960,"componentType":5126,"count":2448,"type":"VEC2","name":"accessorUVs"},{"bufferView":0,"byteOffset":24144,"componentType":5123,"count":7920,"type":"SCALAR","name":"accessorIndices"},{"bufferView":1,"byteOffset":97632,"componentType":5126,"count":2916,"max":[46.03276,58.55278,50.210907],"min":[-45.14789,-32.74057,-50.24875],"type":"VEC3","name":"accessorPositions"},{"bufferView":1,"byteOffset":132624,"componentType":5126,"count":2916,"type":"VEC3","name":"accessorNormals"},{"bufferView":2,"byteOffset":65088,"componentType":5126,"count":2916,"type":"VEC4","name":"accessorTangents"},{"bufferView":3,"byteOffset":32544,"componentType":5126,"count":2916,"type":"VEC2","name":"accessorUVs"},{"bufferView":0,"byteOffset":39984,"componentType":5123,"count":157248,"type":"SCALAR","name":"accessorIndices"},{"bufferView":1,"byteOffset":167616,"componentType":5126,"count":31176,"max":[49.3936462,61.83194,53.52112],"min":[-48.48285,-36.01972,-53.52112],"type":"VEC3","name":"accessorPositions"},{"bufferView":1,"byteOffset":541728,"componentType":5126,"count":31176,"type":"VEC3","name":"accessorNormals"},{"bufferView":2,"byteOffset":111744,"componentType":5126,"count":31176,"type":"VEC4","name":"accessorTangents"},{"bufferView":3,"byteOffset":55872,"componentType":5126,"count":31176,"type":"VEC2","name":"accessorUVs"}],"bufferViews":[{"buffer":0,"byteLength":354480,"name":"bufferViewScalar"},{"buffer":0,"byteOffset":354480,"byteLength":915840,"byteStride":12,"name":"bufferViewFloatVec3"},{"buffer":0,"byteOffset":1270320,"byteLength":610560,"byteStride":16,"name":"bufferViewFloatVec4"},{"buffer":0,"byteOffset":1880880,"byteLength":305280,"byteStride":8,"name":"bufferViewFloatVec2"}],"buffers":[{"uri":"sm1_1.bin","byteLength":2186160}],"materials":[{"pbrMetallicRoughness":{"baseColorFactor":[0.61091876,0.8431665,1.0,0.599999964],"metallicFactor":0.5063624,"roughnessFactor":0.6},"emissiveFactor":[0.228629529,0.360264629,0.464187235],"alphaMode":"BLEND","name":"blinn2"},{"pbrMetallicRoughness":{"baseColorFactor":[0.08369854,0.08369854,0.08369854,1.0],"metallicFactor":0.114420176,"roughnessFactor":0.9},"emissiveFactor":[0.005551711,0.005551711,0.005551711],"alphaMode":"OPAQUE","name":"FBXASC0489FBXASC032FBXASC045FBXASC032Default"},{"pbrMetallicRoughness":{"baseColorFactor":[0.55841,0.55841,0.55841,1.0],"metallicFactor":0.11573872,"roughnessFactor":0.6},"emissiveFactor":[0.0,0.0,0.0],"alphaMode":"OPAQUE","name":"blinn1"},{"pbrMetallicRoughness":{"baseColorFactor":[0.33642453,0.33642453,0.33642453,1.0],"metallicFactor":0.472295672,"roughnessFactor":0.9},"emissiveFactor":[0.0431987755,0.0431987755,0.0431987755],"alphaMode":"OPAQUE","name":"FBXASC0482FBXASC032FBXASC045FBXASC032Default"}],"extensions":{"KHR_lights":{"lights":[{"color":[1.0,1.0,1.0],"intensity":1.0,"type":"ambient"}]}}}