{"asset":{"version":"2.0","generator":"babylon.js glTF exporter for maya 2018 v1.2.16","copyright":"2017 (c) BabylonJS"},"extensionsUsed":["KHR_lights"],"scene":0,"scenes":[{"nodes":[0],"extensions":{"KHR_lights":{"light":0}}}],"nodes":[{"children":[1,2,3,4,5,6,7,8],"translation":[0.0,0.0,0.0],"rotation":[0.0,0.0,0.0,1.0],"scale":[1.0,1.0,1.0],"name":"shimo"},{"mesh":0,"translation":[0.0,0.0,0.0],"rotation":[0.0,0.0,0.0,1.0],"scale":[1.0,1.0,1.0],"name":"qiu_pai"},{"mesh":1,"translation":[0.0,0.0,0.0],"rotation":[0.0,0.0,0.0,1.0],"scale":[1.0,1.0,1.0],"name":"cube"},{"mesh":2,"translation":[0.0,0.0,0.0],"rotation":[0.0,0.0,0.0,1.0],"scale":[1.0,1.0,1.0],"name":"gjj"},{"mesh":3,"translation":[0.0,0.0,0.0],"rotation":[0.0,0.0,0.0,1.0],"scale":[1.0,1.0,1.0],"name":"FBXASC05135"},{"mesh":4,"translation":[0.0,0.0,0.0],"rotation":[0.0,0.0,0.0,1.0],"scale":[1.0,1.0,1.0],"name":"FBXASC04942"},{"mesh":5,"translation":[0.0,0.0,0.0],"rotation":[0.0,0.0,0.0,1.0],"scale":[1.0,1.0,1.0],"name":"yuanzhu"},{"mesh":6,"translation":[0.0,0.0,0.0],"rotation":[0.0,0.0,0.0,1.0],"scale":[1.0,1.0,1.0],"name":"qiu"},{"mesh":7,"translation":[0.0,0.0,0.0],"rotation":[0.0,0.0,0.0,1.0],"scale":[1.0,1.0,1.0],"name":"line1"}],"meshes":[{"primitives":[{"attributes":{"POSITION":1,"NORMAL":2,"TANGENT":3,"TEXCOORD_0":4},"indices":0,"mode":4,"material":0}],"name":"qiu_pai"},{"primitives":[{"attributes":{"POSITION":6,"NORMAL":7,"TANGENT":8,"TEXCOORD_0":9},"indices":5,"mode":4,"material":1}],"name":"cube"},{"primitives":[{"attributes":{"POSITION":11,"NORMAL":12,"TANGENT":13,"TEXCOORD_0":14},"indices":10,"mode":4,"material":2}],"name":"gjj"},{"primitives":[{"attributes":{"POSITION":16,"NORMAL":17,"TANGENT":18,"TEXCOORD_0":19},"indices":15,"mode":4,"material":3}],"name":"FBXASC05135"},{"primitives":[{"attributes":{"POSITION":21,"NORMAL":22,"TANGENT":23,"TEXCOORD_0":24},"indices":20,"mode":4,"material":4}],"name":"FBXASC04942"},{"primitives":[{"attributes":{"POSITION":26,"NORMAL":27,"TANGENT":28,"TEXCOORD_0":29},"indices":25,"mode":4,"material":5}],"name":"yuanzhu"},{"primitives":[{"attributes":{"POSITION":31,"NORMAL":32,"TANGENT":33,"TEXCOORD_0":34},"indices":30,"mode":4,"material":6}],"name":"qiu"},{"primitives":[{"attributes":{"POSITION":36,"NORMAL":37,"TANGENT":38,"TEXCOORD_0":39},"indices":35,"mode":4,"material":1}],"name":"line1"}],"accessors":[{"bufferView":0,"componentType":5123,"count":8400,"type":"SCALAR","name":"accessorIndices"},{"bufferView":1,"componentType":5126,"count":1620,"max":[21.9925156,33.09061,44.65745],"min":[-12.9764252,-6.867518,26.1698189],"type":"VEC3","name":"accessorPositions"},{"bufferView":1,"byteOffset":19440,"componentType":5126,"count":1620,"type":"VEC3","name":"accessorNormals"},{"bufferView":2,"componentType":5126,"count":1620,"type":"VEC4","name":"accessorTangents"},{"bufferView":3,"componentType":5126,"count":1620,"type":"VEC2","name":"accessorUVs"},{"bufferView":0,"byteOffset":16800,"componentType":5123,"count":3672,"type":"SCALAR","name":"accessorIndices"},{"bufferView":1,"byteOffset":38880,"componentType":5126,"count":2448,"max":[37.75214,57.16953,21.6093826],"min":[-12.2861137,-28.7053185,-21.6894684],"type":"VEC3","name":"accessorPositions"},{"bufferView":1,"byteOffset":68256,"componentType":5126,"count":2448,"type":"VEC3","name":"accessorNormals"},{"bufferView":2,"byteOffset":25920,"componentType":5126,"count":2448,"type":"VEC4","name":"accessorTangents"},{"bufferView":3,"byteOffset":12960,"componentType":5126,"count":2448,"type":"VEC2","name":"accessorUVs"},{"bufferView":0,"byteOffset":24144,"componentType":5123,"count":12,"type":"SCALAR","name":"accessorIndices"},{"bufferView":1,"byteOffset":97632,"componentType":5126,"count":8,"max":[132.956863,72.96725,1.43041253],"min":[85.66141,64.17924,0.7161102],"type":"VEC3","name":"accessorPositions"},{"bufferView":1,"byteOffset":97728,"componentType":5126,"count":8,"type":"VEC3","name":"accessorNormals"},{"bufferView":2,"byteOffset":65088,"componentType":5126,"count":8,"type":"VEC4","name":"accessorTangents"},{"bufferView":3,"byteOffset":32544,"componentType":5126,"count":8,"type":"VEC2","name":"accessorUVs"},{"bufferView":0,"byteOffset":24168,"componentType":5123,"count":12,"type":"SCALAR","name":"accessorIndices"},{"bufferView":1,"byteOffset":97824,"componentType":5126,"count":8,"max":[-39.4294739,12.89587,8.269027],"min":[-54.7572479,-32.23609,7.42499],"type":"VEC3","name":"accessorPositions"},{"bufferView":1,"byteOffset":97920,"componentType":5126,"count":8,"type":"VEC3","name":"accessorNormals"},{"bufferView":2,"byteOffset":65216,"componentType":5126,"count":8,"type":"VEC4","name":"accessorTangents"},{"bufferView":3,"byteOffset":32608,"componentType":5126,"count":8,"type":"VEC2","name":"accessorUVs"},{"bufferView":0,"byteOffset":24192,"componentType":5123,"count":12,"type":"SCALAR","name":"accessorIndices"},{"bufferView":1,"byteOffset":98016,"componentType":5126,"count":8,"max":[5.07548571,70.34264,-35.0881],"min":[-12.430233,61.5897865,-35.44932],"type":"VEC3","name":"accessorPositions"},{"bufferView":1,"byteOffset":98112,"componentType":5126,"count":8,"type":"VEC3","name":"accessorNormals"},{"bufferView":2,"byteOffset":65344,"componentType":5126,"count":8,"type":"VEC4","name":"accessorTangents"},{"bufferView":3,"byteOffset":32672,"componentType":5126,"count":8,"type":"VEC2","name":"accessorUVs"},{"bufferView":0,"byteOffset":24216,"componentType":5123,"count":7920,"type":"SCALAR","name":"accessorIndices"},{"bufferView":1,"byteOffset":98208,"componentType":5126,"count":2916,"max":[46.03276,58.55278,50.210907],"min":[-45.14789,-32.74057,-50.24875],"type":"VEC3","name":"accessorPositions"},{"bufferView":1,"byteOffset":133200,"componentType":5126,"count":2916,"type":"VEC3","name":"accessorNormals"},{"bufferView":2,"byteOffset":65472,"componentType":5126,"count":2916,"type":"VEC4","name":"accessorTangents"},{"bufferView":3,"byteOffset":32736,"componentType":5126,"count":2916,"type":"VEC2","name":"accessorUVs"},{"bufferView":0,"byteOffset":40056,"componentType":5123,"count":157248,"type":"SCALAR","name":"accessorIndices"},{"bufferView":1,"byteOffset":168192,"componentType":5126,"count":31176,"max":[49.3936462,61.83194,53.52112],"min":[-48.48285,-36.01972,-53.52112],"type":"VEC3","name":"accessorPositions"},{"bufferView":1,"byteOffset":542304,"componentType":5126,"count":31176,"type":"VEC3","name":"accessorNormals"},{"bufferView":2,"byteOffset":112128,"componentType":5126,"count":31176,"type":"VEC4","name":"accessorTangents"},{"bufferView":3,"byteOffset":56064,"componentType":5126,"count":31176,"type":"VEC2","name":"accessorUVs"},{"bufferView":0,"byteOffset":354552,"componentType":5123,"count":96,"type":"SCALAR","name":"accessorIndices"},{"bufferView":1,"byteOffset":916416,"componentType":5126,"count":36,"max":[81.15962,66.45102,0.258293033],"min":[35.3468628,57.8784752,-0.165421665],"type":"VEC3","name":"accessorPositions"},{"bufferView":1,"byteOffset":916848,"componentType":5126,"count":36,"type":"VEC3","name":"accessorNormals"},{"bufferView":2,"byteOffset":610944,"componentType":5126,"count":36,"type":"VEC4","name":"accessorTangents"},{"bufferView":3,"byteOffset":305472,"componentType":5126,"count":36,"type":"VEC2","name":"accessorUVs"}],"bufferViews":[{"buffer":0,"byteLength":354744,"name":"bufferViewScalar"},{"buffer":0,"byteOffset":354744,"byteLength":917280,"byteStride":12,"name":"bufferViewFloatVec3"},{"buffer":0,"byteOffset":1272024,"byteLength":611520,"byteStride":16,"name":"bufferViewFloatVec4"},{"buffer":0,"byteOffset":1883544,"byteLength":305760,"byteStride":8,"name":"bufferViewFloatVec2"}],"buffers":[{"uri":"sm2_1.bin","byteLength":2189304}],"materials":[{"pbrMetallicRoughness":{"baseColorFactor":[0.61091876,0.8431665,1.0,0.599999964],"metallicFactor":0.5063624,"roughnessFactor":0.6},"emissiveFactor":[0.228629529,0.360264629,0.464187235],"alphaMode":"BLEND","name":"blinn2"},{"pbrMetallicRoughness":{"baseColorFactor":[0.08369854,0.08369854,0.08369854,1.0],"metallicFactor":0.114420176,"roughnessFactor":0.9},"emissiveFactor":[0.005551711,0.005551711,0.005551711],"alphaMode":"OPAQUE","name":"FBXASC0489FBXASC032FBXASC045FBXASC032Default"},{"pbrMetallicRoughness":{"baseColorFactor":[1.0,1.0,1.0,1.0],"baseColorTexture":{"index":1,"texCoord":0},"metallicFactor":0.0,"roughnessFactor":0.9},"emissiveTexture":{"index":0,"texCoord":0},"emissiveFactor":[1.0,1.0,1.0],"alphaMode":"BLEND","name":"MaterialFBXASC032FBXASC03510"},{"pbrMetallicRoughness":{"baseColorFactor":[1.0,1.0,1.0,1.0],"baseColorTexture":{"index":3,"texCoord":0},"metallicFactor":0.0,"roughnessFactor":0.9},"emissiveTexture":{"index":2,"texCoord":0},"emissiveFactor":[1.0,1.0,1.0],"alphaMode":"BLEND","name":"MaterialFBXASC032FBXASC03513"},{"pbrMetallicRoughness":{"baseColorFactor":[1.0,1.0,1.0,1.0],"baseColorTexture":{"index":5,"texCoord":0},"metallicFactor":0.0,"roughnessFactor":0.9},"emissiveTexture":{"index":4,"texCoord":0},"emissiveFactor":[1.0,1.0,1.0],"alphaMode":"BLEND","name":"MaterialFBXASC032FBXASC0358"},{"pbrMetallicRoughness":{"baseColorFactor":[0.55841,0.55841,0.55841,1.0],"metallicFactor":0.11573872,"roughnessFactor":0.6},"emissiveFactor":[0.0,0.0,0.0],"alphaMode":"OPAQUE","name":"blinn1"},{"pbrMetallicRoughness":{"baseColorFactor":[0.33642453,0.33642453,0.33642453,1.0],"metallicFactor":0.472295672,"roughnessFactor":0.9},"emissiveFactor":[0.0431987755,0.0431987755,0.0431987755],"alphaMode":"OPAQUE","name":"FBXASC0482FBXASC032FBXASC045FBXASC032Default"}],"textures":[{"sampler":0,"source":0,"name":"MaterialFBXASC032FBXASC03510_emissive.jpg"},{"sampler":1,"source":1,"name":"MaterialFBXASC032FBXASC03510_baseColor.png"},{"sampler":2,"source":2,"name":"MaterialFBXASC032FBXASC03513_emissive.jpg"},{"sampler":3,"source":3,"name":"MaterialFBXASC032FBXASC03513_baseColor.png"},{"sampler":4,"source":4,"name":"MaterialFBXASC032FBXASC0358_emissive.jpg"},{"sampler":5,"source":5,"name":"MaterialFBXASC032FBXASC0358_baseColor.png"}],"images":[{"uri":"MaterialFBXASC032FBXASC03510_emissive.jpg"},{"uri":"MaterialFBXASC032FBXASC03510_baseColor.png"},{"uri":"MaterialFBXASC032FBXASC03513_emissive.jpg"},{"uri":"MaterialFBXASC032FBXASC03513_baseColor.png"},{"uri":"MaterialFBXASC032FBXASC0358_emissive.jpg"},{"uri":"MaterialFBXASC032FBXASC0358_baseColor.png"}],"samplers":[{"magFilter":9729,"minFilter":9987,"wrapS":10497,"wrapT":10497},{"magFilter":9729,"minFilter":9987,"wrapS":10497,"wrapT":10497},{"magFilter":9729,"minFilter":9987,"wrapS":10497,"wrapT":10497},{"magFilter":9729,"minFilter":9987,"wrapS":10497,"wrapT":10497},{"magFilter":9729,"minFilter":9987,"wrapS":10497,"wrapT":10497},{"magFilter":9729,"minFilter":9987,"wrapS":10497,"wrapT":10497}],"extensions":{"KHR_lights":{"lights":[{"color":[1.0,1.0,1.0],"intensity":1.0,"type":"ambient"}]}}}