{"asset":{"version":"2.0","generator":"Babylon2Gltf2017","copyright":"2017 (c) BabylonJS"},"scene":0,
"scenes":[{"nodes":[0]}],"nodes":[{"mesh":0,"translation":[0.0,0.0,-5.96046448E-08],"rotation":[0.0,0.0,0.0,-1.0],
"scale":[1.0,1.0,1.0],"name":"GeoSphere005"}],"meshes":[{"primitives":[{"attributes":{"POSITION":1,"NORMAL":2,
"TEXCOORD_0":3},"indices":0,"mode":4,"material":0},{"attributes":{"POSITION":5,"NORMAL":6,"TEXCOORD_0":7},"indices":4,
"mode":4,"material":1}],"name":"GeoSphere005"}],"accessors":[{"bufferView":0,"componentType":5123,"count":4320,
"type":"SCALAR","name":"accessorIndices"},{"bufferView":1,"componentType":5126,"count":4320,"max":[2.263043,1.27,1.27],
"min":[-2.263043,-1.27,-1.27000022],"type":"VEC3","name":"accessorPositions"},{"bufferView":1,"byteOffset":51840,"componentType":5126,"count":4320,"type":"VEC3","name":"accessorNormals"},{"bufferView":2,"componentType":5126,"count":4320,"type":"VEC2","name":"accessorUVs"},{"bufferView":0,"byteOffset":8640,"componentType":5123,"count":4320,"type":"SCALAR","name":"accessorIndices"},{"bufferView":1,"byteOffset":103680,"componentType":5126,"count":4320,"max":[1.26304293,1.27,2.27000022],"min":[-1.26304281,-1.27,-2.27000022],"type":"VEC3","name":"accessorPositions"},{"bufferView":1,"byteOffset":155520,"componentType":5126,"count":4320,"type":"VEC3","name":"accessorNormals"},{"bufferView":2,"byteOffset":34560,"componentType":5126,"count":4320,"type":"VEC2","name":"accessorUVs"}],"bufferViews":[{"buffer":0,"byteLength":17280,"name":"bufferViewScalar"},{"buffer":0,"byteOffset":17280,"byteLength":207360,"byteStride":12,"name":"bufferViewFloatVec3"},{"buffer":0,"byteOffset":224640,"byteLength":69120,"byteStride":8,"name":"bufferViewFloatVec2"}],"buffers":[{"uri":"alz.bin","byteLength":293760}],"materials":[{"pbrMetallicRoughness":{"baseColorFactor":[1.0,1.0,1.0,1.0],"baseColorTexture":{"index":0},"metallicFactor":0.0,"roughnessFactor":0.9},"emissiveFactor":[0.0,0.0,0.0],"alphaMode":"BLEND","name":"Material_56"},{"pbrMetallicRoughness":{"baseColorFactor":[1.0,1.0,1.0,1.0],"baseColorTexture":{"index":1},"metallicFactor":0.0,"roughnessFactor":0.9},"emissiveFactor":[0.0,0.0,0.0],"alphaMode":"BLEND","name":"Material_57"}],"textures":[{"sampler":0,"source":0,"name":"Material_56_baseColor.png"},{"sampler":1,"source":1,"name":"Material_57_baseColor.png"}],"images":[{"uri":"Material_56_baseColor.png"},{"uri":"Material_57_baseColor.png"}],"samplers":[{"magFilter":9729,"minFilter":9987,"wrapS":10497,"wrapT":10497},{"magFilter":9729,"minFilter":9987,"wrapS":10497,"wrapT":10497}]}