<?xml version="1.0" encoding="UTF-8" standalone="no"?>
<svg width="80px" height="80px" viewBox="0 0 80 80" version="1.1" xmlns="http://www.w3.org/2000/svg" xmlns:xlink="http://www.w3.org/1999/xlink">
    <!-- Generator: Sketch 42 (36781) - http://www.bohemiancoding.com/sketch -->
    <title>返回</title>
    <desc>Created with Sketch.</desc>
    <defs></defs>
    <g id="Page-1" stroke="none" stroke-width="1" fill="none" fill-rule="evenodd">
        <g id="2" transform="translate(-80.000000, -470.000000)" fill="#9B9B9B">
            <path d="M119.896104,470.207792 C97.8628571,470.207792 80,488.070649 80,510.103896 C80,532.137143 97.8628571,550 119.896104,550 C141.929351,550 159.792208,532.137143 159.792208,510.103896 C159.792208,488.070649 141.929351,470.207792 119.896104,470.207792 Z M126.971013,524.152623 C128.008312,525.189922 128.008312,526.87626 126.971013,527.913558 C126.449662,528.434805 125.768831,528.690182 125.087896,528.690182 C124.407065,528.690182 123.72613,528.429506 123.204779,527.913558 L107.288935,511.987013 C106.251636,510.949714 106.251636,509.263377 107.288935,508.226078 L123.311169,492.198545 C124.348468,491.161247 126.034805,491.161247 127.072104,492.198545 C128.109403,493.235844 128.109403,494.922078 127.072104,495.959377 L112.932883,510.109195 L126.971013,524.152623 L126.971013,524.152623 Z" id="返回"></path>
        </g>
    </g>
</svg>