<?xml version="1.0" encoding="UTF-8" standalone="no"?>
<svg width="80px" height="80px" viewBox="0 0 80 80" version="1.1" xmlns="http://www.w3.org/2000/svg" xmlns:xlink="http://www.w3.org/1999/xlink">
    <!-- Generator: Sketch 42 (36781) - http://www.bohemiancoding.com/sketch -->
    <title>点击 </title>
    <desc>Created with Sketch.</desc>
    <defs></defs>
    <g id="Page-1" stroke="none" stroke-width="1" fill="none" fill-rule="evenodd">
        <g id="2" transform="translate(-80.000000, -650.000000)" fill="#9B9B9B">
            <path d="M119.999901,650 C97.9018401,650 80,667.907383 80,690.000049 C80,712.092716 97.9018401,730 119.999901,730 C142.08702,730 160,712.092617 160,690.000049 C160,667.907481 142.08702,650 119.999901,650 M107.745535,691.942055 C108.895122,693.705426 110.401778,695.039169 112.254465,695.926424 L112.354922,702.421826 C110.558034,701.925259 108.9175,701.160641 107.388465,700.11713 C105.870569,699.073619 104.553588,697.840432 103.448759,696.400613 C102.343929,694.966414 101.473237,693.359298 100.848215,691.590307 C100.223292,689.826936 99.9107816,687.963107 99.9107816,686.015581 C99.9107816,683.671747 100.357268,681.456369 101.250043,679.374965 C102.131777,677.293464 103.359442,675.474195 104.910757,673.922878 C106.462171,672.371462 108.2701,671.143894 110.334939,670.251019 C112.410819,669.358144 114.631814,668.917277 117.008966,668.917277 C119.352797,668.917277 121.573792,669.358144 123.649771,670.251019 C125.725552,671.143796 127.54472,672.371462 129.073756,673.922878 C130.613832,675.474195 131.830456,677.293464 132.723329,679.374965 C133.616203,681.456369 134.062591,683.671747 134.062591,686.015581 C134.062591,687.472061 133.895294,688.805803 133.560306,690.027751 L127.957688,686.361611 L127.957688,686.015581 C127.957688,684.497585 127.678696,683.063484 127.098234,681.729742 C126.517969,680.390479 125.725552,679.229751 124.743362,678.230997 C123.750031,677.237566 122.589403,676.456288 121.272323,675.875925 C119.9443,675.30118 118.526763,675.011048 117.008966,675.011048 C115.491169,675.011048 114.062591,675.301279 112.723329,675.875925 C111.383969,676.456288 110.212202,677.237566 109.230011,678.230997 C108.236779,679.229751 107.444263,680.390479 106.87504,681.729742 C106.294677,683.063484 106.004545,684.497585 106.004545,686.015581 C106.004446,688.197441 106.584908,690.167445 107.745535,691.942055 M136.941929,700.09485 C135.88166,700.161789 134.676374,700.284723 133.348252,700.46316 C131.997752,700.647315 130.636112,700.920787 129.252291,701.283477 L134.653995,710.20641 C135.12286,711.099285 135.20084,712.042339 134.899568,713.030052 C134.609435,714.023384 133.995554,714.748864 133.06926,715.211912 C132.176386,715.708677 131.238755,715.797895 130.245622,715.485483 C129.252291,715.167451 128.526714,714.56461 128.058046,713.677453 L123.549117,703.610453 C122.332592,704.341552 121.227665,705.105972 120.256811,705.915149 C119.27462,706.729847 118.448783,707.477606 117.745683,708.175186 C116.919748,708.995602 116.194269,709.827059 115.569248,710.652798 L115.424231,680.658529 L140.457823,699.994393 C139.330419,699.960874 138.158454,699.994393 136.941929,700.09485" id="点击-"></path>
        </g>
    </g>
</svg>