{"asset":{"version":"2.0","generator":"babylon.js glTF exporter for maya 2018 v1.2.16","copyright":"2017 (c) BabylonJS"},"extensionsUsed":["KHR_lights","KHR_texture_transform"],"scene":0,"scenes":[{"nodes":[0,2],"extensions":{"KHR_lights":{"light":0}}}],"nodes":[{"children":[1],"translation":[0.0,0.0,0.0],"rotation":[0.0,0.0,0.0,1.0],"scale":[1.0,1.0,1.0],"name":"dianziguiji"},{"mesh":0,"translation":[0.0,0.0,0.0],"rotation":[0.0,0.0,0.0,1.0],"scale":[1.0,1.0,1.0],"name":"guidao"},{"children":[3],"mesh":1,"translation":[-1.82674289,-10.6366415,-7.19908047],"rotation":[0.0534600578,-0.990758359,-0.00671667233,0.124477968],"scale":[1.0,1.0,1.0],"name":"pSphere1"},{"mesh":2,"translation":[16.1338654,-9.084102,-7.419301],"rotation":[-0.0543791428,0.9643941,0.014570808,0.258407921],"scale":[1.0,1.0,1.0],"name":"pCone2"}],"meshes":[{"primitives":[{"attributes":{"POSITION":1,"NORMAL":2,"TANGENT":3,"TEXCOORD_0":4},"indices":0,"mode":4,"material":0}],"name":"guidao"},{"primitives":[{"attributes":{"POSITION":6,"NORMAL":7,"TANGENT":8,"TEXCOORD_0":9},"indices":5,"mode":4,"material":1}],"name":"pSphere1"},{"primitives":[{"attributes":{"POSITION":11,"NORMAL":12,"TANGENT":13,"TEXCOORD_0":14},"indices":10,"mode":4,"material":2}],"name":"pCone2"}],"accessors":[{"bufferView":0,"componentType":5123,"count":3888,"type":"SCALAR","name":"accessorIndices"},{"bufferView":1,"componentType":5126,"count":1302,"max":[9.289752,10.9334326,7.498356],"min":[-7.49342251,-10.9334249,-13.9803934],"type":"VEC3","name":"accessorPositions"},{"bufferView":1,"byteOffset":15624,"componentType":5126,"count":1302,"type":"VEC3","name":"accessorNormals"},{"bufferView":2,"componentType":5126,"count":1302,"type":"VEC4","name":"accessorTangents"},{"bufferView":3,"componentType":5126,"count":1302,"type":"VEC2","name":"accessorUVs"},{"bufferView":0,"byteOffset":7776,"componentType":5123,"count":2280,"type":"SCALAR","name":"accessorIndices"},{"bufferView":1,"byteOffset":31248,"componentType":5126,"count":439,"max":[1.0,1.0,1.00000012],"min":[-1.00000024,-1.0,-1.00000048],"type":"VEC3","name":"accessorPositions"},{"bufferView":1,"byteOffset":36516,"componentType":5126,"count":439,"type":"VEC3","name":"accessorNormals"},{"bufferView":2,"byteOffset":20832,"componentType":5126,"count":439,"type":"VEC4","name":"accessorTangents"},{"bufferView":3,"byteOffset":10416,"componentType":5126,"count":439,"type":"VEC2","name":"accessorUVs"},{"bufferView":0,"byteOffset":12336,"componentType":5123,"count":177,"type":"SCALAR","name":"accessorIndices"},{"bufferView":1,"byteOffset":41784,"componentType":5126,"count":89,"max":[9.610578,10.9962645,-11.8152952],"min":[5.67206955,10.2230673,-14.17671],"type":"VEC3","name":"accessorPositions"},{"bufferView":1,"byteOffset":42852,"componentType":5126,"count":89,"type":"VEC3","name":"accessorNormals"},{"bufferView":2,"byteOffset":27856,"componentType":5126,"count":89,"type":"VEC4","name":"accessorTangents"},{"bufferView":3,"byteOffset":13928,"componentType":5126,"count":89,"type":"VEC2","name":"accessorUVs"},{"bufferView":4,"componentType":5126,"count":379,"max":[16.625],"min":[0.0],"type":"SCALAR","name":"accessorAnimationInput"},{"bufferView":5,"componentType":5126,"count":379,"type":"VEC4","name":"accessorAnimationRotations"},{"bufferView":4,"byteOffset":1516,"componentType":5126,"count":379,"max":[16.625],"min":[0.0],"type":"SCALAR","name":"accessorAnimationInput"},{"bufferView":6,"componentType":5126,"count":379,"type":"VEC3","name":"accessorAnimationPositions"}],"bufferViews":[{"buffer":0,"byteLength":12692,"name":"bufferViewScalar"},{"buffer":0,"byteOffset":12692,"byteLength":43920,"byteStride":12,"name":"bufferViewFloatVec3"},{"buffer":0,"byteOffset":56612,"byteLength":29280,"byteStride":16,"name":"bufferViewFloatVec4"},{"buffer":0,"byteOffset":85892,"byteLength":14640,"byteStride":8,"name":"bufferViewFloatVec2"},{"buffer":0,"byteOffset":100532,"byteLength":3032,"name":"bufferViewAnimationFloatScalar"},{"buffer":0,"byteOffset":103564,"byteLength":6064,"name":"bufferViewAnimationFloatVec4"},{"buffer":0,"byteOffset":109628,"byteLength":4548,"name":"bufferViewAnimationFloatVec3"}],"buffers":[{"uri":"dzgj4.bin","byteLength":114176}],"materials":[{"pbrMetallicRoughness":{"baseColorFactor":[1.0,1.0,1.0,1.0],"baseColorTexture":{"index":1,"texCoord":0,"extensions":{"KHR_texture_transform":{"offset":[0.0,0.9949774],"scale":[1.0,1.0],"texCoord":0}}},"metallicFactor":0.0501792431,"roughnessFactor":0.6},"emissiveTexture":{"index":0,"texCoord":0,"extensions":{"KHR_texture_transform":{"offset":[0.0,0.9949774],"scale":[1.0,1.0],"texCoord":0}}},"emissiveFactor":[1.0,1.0,1.0],"alphaMode":"BLEND","name":"blinn7"},{"pbrMetallicRoughness":{"baseColorFactor":[0.9031772,0.635376,0.215579629,1.0],"metallicFactor":0.0732741654,"roughnessFactor":0.6},"emissiveFactor":[0.485265017,0.34078002,0.114290006],"alphaMode":"OPAQUE","name":"juhuang"},{"pbrMetallicRoughness":{"baseColorFactor":[1.0,1.0,1.0,1.0],"baseColorTexture":{"index":3,"texCoord":0},"metallicFactor":0.0501792431,"roughnessFactor":0.6},"emissiveTexture":{"index":2,"texCoord":0},"emissiveFactor":[1.0,1.0,1.0],"alphaMode":"OPAQUE","name":"jiantou"}],"textures":[{"sampler":0,"source":0,"name":"blinn7_emissive.jpg"},{"sampler":1,"source":1,"name":"blinn7_baseColor.png"},{"sampler":2,"source":2,"name":"jiantou_emissive.jpg"},{"sampler":3,"source":3,"name":"jiantou_baseColor.jpg"}],"images":[{"uri":"blinn7_emissive.jpg"},{"uri":"blinn7_baseColor.png"},{"uri":"jiantou_emissive.jpg"},{"uri":"jiantou_baseColor.jpg"}],"samplers":[{"magFilter":9729,"minFilter":9987,"wrapS":10497,"wrapT":10497},{"magFilter":9729,"minFilter":9987,"wrapS":10497,"wrapT":10497},{"magFilter":9729,"minFilter":9987,"wrapS":10497,"wrapT":10497},{"magFilter":9729,"minFilter":9987,"wrapS":10497,"wrapT":10497}],"animations":[{"channels":[{"sampler":0,"target":{"node":2,"path":"rotation"}},{"sampler":1,"target":{"node":2,"path":"translation"}}],"samplers":[{"input":15,"interpolation":"LINEAR","output":16},{"input":17,"interpolation":"LINEAR","output":18}],"name":"All Animations"}],"extensions":{"KHR_lights":{"lights":[{"color":[1.0,1.0,1.0],"intensity":1.0,"type":"ambient"}]}}}