{"asset":{"version":"2.0","generator":"Babylon2Gltf2017","copyright":"2017 (c) BabylonJS"},"scene":0,"scenes":[{"nodes":[0,1,2,3,4,5,6,7,8,9,10,11,12,13,14,15,16]}],"nodes":[{"mesh":0,"translation":[0.0,0.0,0.0],"rotation":[-0.260556668,0.8262621,-0.07474567,-0.4937755],"scale":[1.00000048,0.999999642,1.00000083],"name":"bx5"},{"mesh":1,"translation":[0.0,0.0,0.0],"rotation":[0.6360117,0.49460122,0.00293217716,-0.592326],"scale":[0.99999994,1.000001,0.999999046],"name":"bx6"},{"mesh":2,"translation":[0.0,0.0,0.0],"rotation":[0.913625836,-0.346094,0.02728245,-0.211571231],"scale":[0.9999993,1.00000072,0.9999987],"name":"bx8"},{"mesh":3,"translation":[0.0,0.0,0.0],"rotation":[-0.06316142,0.0300305225,-0.937483966,-0.340929031],"scale":[0.9999995,1.00000024,0.9999993],"name":"bx1"},{"mesh":4,"translation":[0.0,0.0,0.0],"rotation":[0.07494956,-0.749366343,-0.177995041,-0.6333644],"scale":[1.00000119,0.9999989,0.9999994],"name":"bx4"},{"mesh":5,"translation":[0.0,0.0,0.0],"rotation":[-0.303924978,0.8138185,-0.08092322,-0.488651633],"scale":[0.999999762,0.9999995,1.00000024],"name":"bx7"},{"mesh":6,"translation":[0.0,0.0,0.0],"rotation":[-0.2662066,0.014372265,-0.9226305,0.278712064],"scale":[1.0,1.00000024,1.00000072],"name":"bx2"},{"mesh":7,"translation":[0.0,0.0,0.0],"rotation":[0.08128187,-0.5022886,-0.833090663,0.21693182],"scale":[1.00000107,1.000001,1.0],"name":"bx3"},{"mesh":8,"translation":[0.0,0.0,0.0],"rotation":[0.426208943,0.819847047,0.3162471,0.214905858],"scale":[0.9999994,1.00000012,0.999999344],"name":"bm"},{"mesh":9,"translation":[0.0,0.0,0.0],"rotation":[0.426208228,0.8198476,0.316246778,0.214905664],"scale":[1.00000024,0.999999166,0.999999642],"name":"bs2"},{"mesh":10,"translation":[0.0,0.0,0.0],"rotation":[0.426208228,0.8198476,0.316246778,0.214905664],"scale":[1.00000024,0.999999166,0.999999642],"name":"bj1"},{"mesh":11,"translation":[0.0,0.0,0.0],"rotation":[0.426208228,0.8198476,0.316246778,0.214905664],"scale":[1.00000024,0.999999166,0.999999642],"name":"bs3"},{"mesh":12,"translation":[0.0,0.0,0.0],"rotation":[0.426209182,0.8198472,0.3162466,0.2149055],"scale":[0.9999998,1.00000048,1.00000083],"name":"bj2"},{"mesh":13,"translation":[0.0,0.0,0.0],"rotation":[0.426208973,0.819847047,0.3162471,0.214905828],"scale":[0.999999344,1.00000012,0.999999642],"name":"bj3"},{"mesh":14,"translation":[0.0,0.0,0.0],"rotation":[0.426208973,0.819847047,0.3162471,0.214905828],"scale":[0.999999344,1.00000012,0.999999642],"name":"bj4"},{"mesh":15,"translation":[0.0,0.0,0.0],"rotation":[0.426208973,0.819847047,0.3162471,0.214905828],"scale":[0.999999344,1.00000012,0.999999642],"name":"bs4"},{"mesh":16,"translation":[0.0,0.0,0.0],"rotation":[0.426208973,0.819847047,0.3162471,0.214905828],"scale":[0.999999344,1.00000012,0.999999642],"name":"bs1"}],"meshes":[{"primitives":[{"attributes":{"POSITION":1,"NORMAL":2,"TEXCOORD_0":3},"indices":0,"mode":4,"material":0}],"name":"bx5"},{"primitives":[{"attributes":{"POSITION":5,"NORMAL":6,"TEXCOORD_0":7},"indices":4,"mode":4,"material":0}],"name":"bx6"},{"primitives":[{"attributes":{"POSITION":9,"NORMAL":10,"TEXCOORD_0":11},"indices":8,"mode":4,"material":0}],"name":"bx8"},{"primitives":[{"attributes":{"POSITION":13,"NORMAL":14,"TEXCOORD_0":15},"indices":12,"mode":4,"material":0}],"name":"bx1"},{"primitives":[{"attributes":{"POSITION":17,"NORMAL":18,"TEXCOORD_0":19},"indices":16,"mode":4,"material":0}],"name":"bx4"},{"primitives":[{"attributes":{"POSITION":21,"NORMAL":22,"TEXCOORD_0":23},"indices":20,"mode":4,"material":0}],"name":"bx7"},{"primitives":[{"attributes":{"POSITION":25,"NORMAL":26,"TEXCOORD_0":27},"indices":24,"mode":4,"material":0}],"name":"bx2"},{"primitives":[{"attributes":{"POSITION":29,"NORMAL":30,"TEXCOORD_0":31},"indices":28,"mode":4,"material":0}],"name":"bx3"},{"primitives":[{"attributes":{"POSITION":33,"NORMAL":34,"TEXCOORD_0":35},"indices":32,"mode":4,"material":1},{"attributes":{"POSITION":37,"NORMAL":38,"TEXCOORD_0":39},"indices":36,"mode":4,"material":2},{"attributes":{"POSITION":41,"NORMAL":42,"TEXCOORD_0":43},"indices":40,"mode":4,"material":3},{"attributes":{"POSITION":45,"NORMAL":46,"TEXCOORD_0":47},"indices":44,"mode":4,"material":0}],"name":"bm"},{"primitives":[{"attributes":{"POSITION":49,"NORMAL":50,"TEXCOORD_0":51},"indices":48,"mode":4,"material":3},{"attributes":{"POSITION":53,"NORMAL":54,"TEXCOORD_0":55},"indices":52,"mode":4,"material":1}],"name":"bs2"},{"primitives":[{"attributes":{"POSITION":57,"NORMAL":58,"TEXCOORD_0":59},"indices":56,"mode":4,"material":3},{"attributes":{"POSITION":61,"NORMAL":62,"TEXCOORD_0":63},"indices":60,"mode":4,"material":2},{"attributes":{"POSITION":65,"NORMAL":66,"TEXCOORD_0":67},"indices":64,"mode":4,"material":1}],"name":"bj1"},{"primitives":[{"attributes":{"POSITION":69,"NORMAL":70,"TEXCOORD_0":71},"indices":68,"mode":4,"material":3},{"attributes":{"POSITION":73,"NORMAL":74,"TEXCOORD_0":75},"indices":72,"mode":4,"material":1}],"name":"bs3"},{"primitives":[{"attributes":{"POSITION":77,"NORMAL":78,"TEXCOORD_0":79},"indices":76,"mode":4,"material":2},{"attributes":{"POSITION":81,"NORMAL":82,"TEXCOORD_0":83},"indices":80,"mode":4,"material":1},{"attributes":{"POSITION":85,"NORMAL":86,"TEXCOORD_0":87},"indices":84,"mode":4,"material":3}],"name":"bj2"},{"primitives":[{"attributes":{"POSITION":89,"NORMAL":90,"TEXCOORD_0":91},"indices":88,"mode":4,"material":1},{"attributes":{"POSITION":93,"NORMAL":94,"TEXCOORD_0":95},"indices":92,"mode":4,"material":3},{"attributes":{"POSITION":97,"NORMAL":98,"TEXCOORD_0":99},"indices":96,"mode":4,"material":2}],"name":"bj3"},{"primitives":[{"attributes":{"POSITION":101,"NORMAL":102,"TEXCOORD_0":103},"indices":100,"mode":4,"material":1},{"attributes":{"POSITION":105,"NORMAL":106,"TEXCOORD_0":107},"indices":104,"mode":4,"material":3},{"attributes":{"POSITION":109,"NORMAL":110,"TEXCOORD_0":111},"indices":108,"mode":4,"material":2}],"name":"bj4"},{"primitives":[{"attributes":{"POSITION":113,"NORMAL":114,"TEXCOORD_0":115},"indices":112,"mode":4,"material":1},{"attributes":{"POSITION":117,"NORMAL":118,"TEXCOORD_0":119},"indices":116,"mode":4,"material":3}],"name":"bs4"},{"primitives":[{"attributes":{"POSITION":121,"NORMAL":122,"TEXCOORD_0":123},"indices":120,"mode":4,"material":1},{"attributes":{"POSITION":125,"NORMAL":126,"TEXCOORD_0":127},"indices":124,"mode":4,"material":3}],"name":"bs1"}],"accessors":[{"bufferView":0,"componentType":5123,"count":1404,"type":"SCALAR","name":"accessorIndices"},{"bufferView":1,"componentType":5126,"count":1404,"max":[0.0774970055,23.434473,-11.6302528],"min":[-0.9225044,14.0105591,-12.6051826],"type":"VEC3","name":"accessorPositions"},{"bufferView":1,"byteOffset":16848,"componentType":5126,"count":1404,"type":"VEC3","name":"accessorNormals"},{"bufferView":2,"componentType":5126,"count":1404,"type":"VEC2","name":"accessorUVs"},{"bufferView":0,"byteOffset":2808,"componentType":5123,"count":1404,"type":"SCALAR","name":"accessorIndices"},{"bufferView":1,"byteOffset":33696,"componentType":5126,"count":1404,"max":[14.5047159,16.0563869,4.196078],"min":[13.5047121,6.632469,3.22114754],"type":"VEC3","name":"accessorPositions"},{"bufferView":1,"byteOffset":50544,"componentType":5126,"count":1404,"type":"VEC3","name":"accessorNormals"},{"bufferView":2,"byteOffset":11232,"componentType":5126,"count":1404,"type":"VEC2","name":"accessorUVs"},{"bufferView":0,"byteOffset":5616,"componentType":5123,"count":1404,"type":"SCALAR","name":"accessorIndices"},{"bufferView":1,"byteOffset":67392,"componentType":5126,"count":1404,"max":[31.98127,2.33657742,21.2266254],"min":[30.981266,-7.087336,20.2516937],"type":"VEC3","name":"accessorPositions"},{"bufferView":1,"byteOffset":84240,"componentType":5126,"count":1404,"type":"VEC3","name":"accessorNormals"},{"bufferView":2,"byteOffset":22464,"componentType":5126,"count":1404,"type":"VEC2","name":"accessorUVs"},{"bufferView":0,"byteOffset":8424,"componentType":5123,"count":1248,"type":"SCALAR","name":"accessorIndices"},{"bufferView":1,"byteOffset":101088,"componentType":5126,"count":1248,"max":[40.8596764,1.88694191,-14.2655363],"min":[39.8596725,-6.428276,-15.2404671],"type":"VEC3","name":"accessorPositions"},{"bufferView":1,"byteOffset":116064,"componentType":5126,"count":1248,"type":"VEC3","name":"accessorNormals"},{"bufferView":2,"byteOffset":33696,"componentType":5126,"count":1248,"type":"VEC2","name":"accessorUVs"},{"bufferView":0,"byteOffset":10920,"componentType":5123,"count":1404,"type":"SCALAR","name":"accessorIndices"},{"bufferView":1,"byteOffset":131040,"componentType":5126,"count":1404,"max":[-5.773485,-10.6386976,-23.6719456],"min":[-6.77348757,-20.0626144,-24.6468773],"type":"VEC3","name":"accessorPositions"},{"bufferView":1,"byteOffset":147888,"componentType":5126,"count":1404,"type":"VEC3","name":"accessorNormals"},{"bufferView":2,"byteOffset":43680,"componentType":5126,"count":1404,"type":"VEC2","name":"accessorUVs"},{"bufferView":0,"byteOffset":13728,"componentType":5123,"count":1404,"type":"SCALAR","name":"accessorIndices"},{"bufferView":1,"byteOffset":164736,"componentType":5126,"count":1404,"max":[-24.0839863,-7.024456,-16.3083782],"min":[-25.0839882,-16.4483681,-17.2833118],"type":"VEC3","name":"accessorPositions"},{"bufferView":1,"byteOffset":181584,"componentType":5126,"count":1404,"type":"VEC3","name":"accessorNormals"},{"bufferView":2,"byteOffset":54912,"componentType":5126,"count":1404,"type":"VEC2","name":"accessorUVs"},{"bufferView":0,"byteOffset":16536,"componentType":5123,"count":1404,"type":"SCALAR","name":"accessorIndices"},{"bufferView":1,"byteOffset":198432,"componentType":5126,"count":1404,"max":[14.5916328,-18.2646084,-25.0082054],"min":[13.5916271,-27.6885262,-25.983139],"type":"VEC3","name":"accessorPositions"},{"bufferView":1,"byteOffset":215280,"componentType":5126,"count":1404,"type":"VEC3","name":"accessorNormals"},{"bufferView":2,"byteOffset":66144,"componentType":5126,"count":1404,"type":"VEC2","name":"accessorUVs"},{"bufferView":0,"byteOffset":19344,"componentType":5123,"count":1404,"type":"SCALAR","name":"accessorIndices"},{"bufferView":1,"byteOffset":232128,"componentType":5126,"count":1404,"max":[24.8611069,-2.78301525,0.587048352],"min":[23.8611012,-12.2069292,-0.387881517],"type":"VEC3","name":"accessorPositions"},{"bufferView":1,"byteOffset":248976,"componentType":5126,"count":1404,"type":"VEC3","name":"accessorNormals"},{"bufferView":2,"byteOffset":77376,"componentType":5126,"count":1404,"type":"VEC2","name":"accessorUVs"},{"bufferView":0,"byteOffset":22152,"componentType":5123,"count":5100,"type":"SCALAR","name":"accessorIndices"},{"bufferView":1,"byteOffset":265824,"componentType":5126,"count":5100,"max":[49.9435844,23.1136284,9.07984],"min":[25.6476765,-9.206702,-6.10561371],"type":"VEC3","name":"accessorPositions"},{"bufferView":1,"byteOffset":327024,"componentType":5126,"count":5100,"type":"VEC3","name":"accessorNormals"},{"bufferView":2,"byteOffset":88608,"componentType":5126,"count":5100,"type":"VEC2","name":"accessorUVs"},{"bufferView":0,"byteOffset":32352,"componentType":5123,"count":2940,"type":"SCALAR","name":"accessorIndices"},{"bufferView":1,"byteOffset":388224,"componentType":5126,"count":2940,"max":[56.7797737,3.495316,8.791206],"min":[44.8146629,-8.497723,-3.1507113],"type":"VEC3","name":"accessorPositions"},{"bufferView":1,"byteOffset":423504,"componentType":5126,"count":2940,"type":"VEC3","name":"accessorNormals"},{"bufferView":2,"byteOffset":129408,"componentType":5126,"count":2940,"type":"VEC2","name":"accessorUVs"},{"bufferView":0,"byteOffset":38232,"componentType":5123,"count":13740,"type":"SCALAR","name":"accessorIndices"},{"bufferView":1,"byteOffset":458784,"componentType":5126,"count":13740,"max":[57.8333664,26.0728111,10.5743637],"min":[21.4946957,-11.3800306,-6.479484],"type":"VEC3","name":"accessorPositions"},{"bufferView":1,"byteOffset":623664,"componentType":5126,"count":13740,"type":"VEC3","name":"accessorNormals"},{"bufferView":2,"byteOffset":152928,"componentType":5126,"count":13740,"type":"VEC2","name":"accessorUVs"},{"bufferView":0,"byteOffset":65712,"componentType":5123,"count":1404,"type":"SCALAR","name":"accessorIndices"},{"bufferView":1,"byteOffset":788544,"componentType":5126,"count":1404,"max":[39.55143,12.9881611,2.41268444],"min":[33.77927,4.556586,-0.130003929],"type":"VEC3","name":"accessorPositions"},{"bufferView":1,"byteOffset":805392,"componentType":5126,"count":1404,"type":"VEC3","name":"accessorNormals"},{"bufferView":2,"byteOffset":262848,"componentType":5126,"count":1404,"type":"VEC2","name":"accessorUVs"},{"bufferView":0,"byteOffset":68520,"componentType":5123,"count":4320,"type":"SCALAR","name":"accessorIndices"},{"bufferView":1,"byteOffset":822240,"componentType":5126,"count":4320,"max":[5.806163,-1.64640522,-15.5284786],"min":[-4.625741,-18.41245,-24.70433],"type":"VEC3","name":"accessorPositions"},{"bufferView":1,"byteOffset":874080,"componentType":5126,"count":4320,"type":"VEC3","name":"accessorNormals"},{"bufferView":2,"byteOffset":274080,"componentType":5126,"count":4320,"type":"VEC2","name":"accessorUVs"},{"bufferView":0,"byteOffset":77160,"componentType":5123,"count":2160,"type":"SCALAR","name":"accessorIndices"},{"bufferView":1,"byteOffset":925920,"componentType":5126,"count":2160,"max":[3.996557,-5.498043,-17.33998],"min":[-6.996478,-16.4730034,-28.3288136],"type":"VEC3","name":"accessorPositions"},{"bufferView":1,"byteOffset":951840,"componentType":5126,"count":2160,"type":"VEC3","name":"accessorNormals"},{"bufferView":2,"byteOffset":308640,"componentType":5126,"count":2160,"type":"VEC2","name":"accessorUVs"},{"bufferView":0,"byteOffset":81480,"componentType":5123,"count":8640,"type":"SCALAR","name":"accessorIndices"},{"bufferView":1,"byteOffset":977760,"componentType":5126,"count":8640,"max":[22.228817,-20.9533653,-5.05816174],"min":[1.53654456,-39.8734322,-21.35901],"type":"VEC3","name":"accessorPositions"},{"bufferView":1,"byteOffset":1081440,"componentType":5126,"count":8640,"type":"VEC3","name":"accessorNormals"},{"bufferView":2,"byteOffset":325920,"componentType":5126,"count":8640,"type":"VEC2","name":"accessorUVs"},{"bufferView":0,"byteOffset":98760,"componentType":5123,"count":2160,"type":"SCALAR","name":"accessorIndices"},{"bufferView":1,"byteOffset":1185120,"componentType":5126,"count":2160,"max":[17.11803,-25.29399,-5.90565968],"min":[5.17468739,-37.2733421,-17.8562469],"type":"VEC3","name":"accessorPositions"},{"bufferView":1,"byteOffset":1211040,"componentType":5126,"count":2160,"type":"VEC3","name":"accessorNormals"},{"bufferView":2,"byteOffset":395040,"componentType":5126,"count":2160,"type":"VEC2","name":"accessorUVs"},{"bufferView":0,"byteOffset":103080,"componentType":5123,"count":2160,"type":"SCALAR","name":"accessorIndices"},{"bufferView":1,"byteOffset":1236960,"componentType":5126,"count":2160,"max":[18.2729225,-20.6890259,-2.734229],"min":[7.324733,-31.6700535,-13.6889133],"type":"VEC3","name":"accessorPositions"},{"bufferView":1,"byteOffset":1262880,"componentType":5126,"count":2160,"type":"VEC3","name":"accessorNormals"},{"bufferView":2,"byteOffset":412320,"componentType":5126,"count":2160,"type":"VEC2","name":"accessorUVs"},{"bufferView":0,"byteOffset":107400,"componentType":5123,"count":4320,"type":"SCALAR","name":"accessorIndices"},{"bufferView":1,"byteOffset":1288800,"componentType":5126,"count":4320,"max":[9.817434,19.2586327,33.83847],"min":[-0.167135775,7.11516476,17.91529],"type":"VEC3","name":"accessorPositions"},{"bufferView":1,"byteOffset":1340640,"componentType":5126,"count":4320,"type":"VEC3","name":"accessorNormals"},{"bufferView":2,"byteOffset":429600,"componentType":5126,"count":4320,"type":"VEC2","name":"accessorUVs"},{"bufferView":0,"byteOffset":116040,"componentType":5123,"count":2160,"type":"SCALAR","name":"accessorIndices"},{"bufferView":1,"byteOffset":1392480,"componentType":5126,"count":2160,"max":[8.62864,16.0953236,33.157917],"min":[-2.33000326,5.12620926,22.1654282],"type":"VEC3","name":"accessorPositions"},{"bufferView":1,"byteOffset":1418400,"componentType":5126,"count":2160,"type":"VEC3","name":"accessorNormals"},{"bufferView":2,"byteOffset":464160,"componentType":5126,"count":2160,"type":"VEC2","name":"accessorUVs"},{"bufferView":0,"byteOffset":120360,"componentType":5123,"count":2160,"type":"SCALAR","name":"accessorIndices"},{"bufferView":1,"byteOffset":1444320,"componentType":5126,"count":2160,"max":[-19.5579014,-20.0088615,-16.289175],"min":[-31.4924316,-32.00886,-28.289175],"type":"VEC3","name":"accessorPositions"},{"bufferView":1,"byteOffset":1470240,"componentType":5126,"count":2160,"type":"VEC3","name":"accessorNormals"},{"bufferView":2,"byteOffset":481440,"componentType":5126,"count":2160,"type":"VEC2","name":"accessorUVs"},{"bufferView":0,"byteOffset":124680,"componentType":5123,"count":2160,"type":"SCALAR","name":"accessorIndices"},{"bufferView":1,"byteOffset":1496160,"componentType":5126,"count":2160,"max":[-20.055378,-14.0089521,-16.7893963],"min":[-30.9953327,-25.0089474,-27.7893867],"type":"VEC3","name":"accessorPositions"},{"bufferView":1,"byteOffset":1522080,"componentType":5126,"count":2160,"type":"VEC3","name":"accessorNormals"},{"bufferView":2,"byteOffset":498720,"componentType":5126,"count":2160,"type":"VEC2","name":"accessorUVs"},{"bufferView":0,"byteOffset":129000,"componentType":5123,"count":8640,"type":"SCALAR","name":"accessorIndices"},{"bufferView":1,"byteOffset":1548000,"componentType":5126,"count":8640,"max":[-16.2227211,-13.6231956,-13.5275326],"min":[-35.0027962,-31.9566727,-30.9414368],"type":"VEC3","name":"accessorPositions"},{"bufferView":1,"byteOffset":1651680,"componentType":5126,"count":8640,"type":"VEC3","name":"accessorNormals"},{"bufferView":2,"byteOffset":516000,"componentType":5126,"count":8640,"type":"VEC2","name":"accessorUVs"},{"bufferView":0,"byteOffset":146280,"componentType":5123,"count":2160,"type":"SCALAR","name":"accessorIndices"},{"bufferView":1,"byteOffset":1755360,"componentType":5126,"count":2160,"max":[11.7534466,18.32777,7.9482646],"min":[0.8072818,7.340312,-3.04274845],"type":"VEC3","name":"accessorPositions"},{"bufferView":1,"byteOffset":1781280,"componentType":5126,"count":2160,"type":"VEC3","name":"accessorNormals"},{"bufferView":2,"byteOffset":585120,"componentType":5126,"count":2160,"type":"VEC2","name":"accessorUVs"},{"bufferView":0,"byteOffset":150600,"componentType":5123,"count":8640,"type":"SCALAR","name":"accessorIndices"},{"bufferView":1,"byteOffset":1807200,"componentType":5126,"count":8640,"max":[9.478411,26.4240227,5.13667774],"min":[-6.93788576,3.62196255,-10.42514],"type":"VEC3","name":"accessorPositions"},{"bufferView":1,"byteOffset":1910880,"componentType":5126,"count":8640,"type":"VEC3","name":"accessorNormals"},{"bufferView":2,"byteOffset":602400,"componentType":5126,"count":8640,"type":"VEC2","name":"accessorUVs"},{"bufferView":0,"byteOffset":167880,"componentType":5123,"count":2160,"type":"SCALAR","name":"accessorIndices"},{"bufferView":1,"byteOffset":2014560,"componentType":5126,"count":2160,"max":[8.645327,23.0337982,5.04855061],"min":[-3.29596567,11.0475159,-6.941661],"type":"VEC3","name":"accessorPositions"},{"bufferView":1,"byteOffset":2040480,"componentType":5126,"count":2160,"type":"VEC3","name":"accessorNormals"},{"bufferView":2,"byteOffset":671520,"componentType":5126,"count":2160,"type":"VEC2","name":"accessorUVs"},{"bufferView":0,"byteOffset":172200,"componentType":5123,"count":2160,"type":"SCALAR","name":"accessorIndices"},{"bufferView":1,"byteOffset":2066400,"componentType":5126,"count":2160,"max":[-16.06096,12.295742,38.29987],"min":[-27.003437,1.34312534,27.3531685],"type":"VEC3","name":"accessorPositions"},{"bufferView":1,"byteOffset":2092320,"componentType":5126,"count":2160,"type":"VEC3","name":"accessorNormals"},{"bufferView":2,"byteOffset":688800,"componentType":5126,"count":2160,"type":"VEC2","name":"accessorUVs"},{"bufferView":0,"byteOffset":176520,"componentType":5123,"count":8640,"type":"SCALAR","name":"accessorIndices"},{"bufferView":1,"byteOffset":2118240,"componentType":5126,"count":8640,"max":[-12.0971508,20.52783,35.94264],"min":[-34.74217,3.715331,20.2337627],"type":"VEC3","name":"accessorPositions"},{"bufferView":1,"byteOffset":2221920,"componentType":5126,"count":8640,"type":"VEC3","name":"accessorNormals"},{"bufferView":2,"byteOffset":706080,"componentType":5126,"count":8640,"type":"VEC2","name":"accessorUVs"},{"bufferView":0,"byteOffset":193800,"componentType":5123,"count":2160,"type":"SCALAR","name":"accessorIndices"},{"bufferView":1,"byteOffset":2325600,"componentType":5126,"count":2160,"max":[-19.1585751,17.4060631,35.9593544],"min":[-31.0958862,5.45777035,24.01735],"type":"VEC3","name":"accessorPositions"},{"bufferView":1,"byteOffset":2351520,"componentType":5126,"count":2160,"type":"VEC3","name":"accessorNormals"},{"bufferView":2,"byteOffset":775200,"componentType":5126,"count":2160,"type":"VEC2","name":"accessorUVs"},{"bufferView":0,"byteOffset":198120,"componentType":5123,"count":2160,"type":"SCALAR","name":"accessorIndices"},{"bufferView":1,"byteOffset":2377440,"componentType":5126,"count":2160,"max":[-20.8451214,-11.3266191,30.0588245],"min":[-31.83389,-22.31245,19.059454],"type":"VEC3","name":"accessorPositions"},{"bufferView":1,"byteOffset":2403360,"componentType":5126,"count":2160,"type":"VEC3","name":"accessorNormals"},{"bufferView":2,"byteOffset":792480,"componentType":5126,"count":2160,"type":"VEC2","name":"accessorUVs"},{"bufferView":0,"byteOffset":202440,"componentType":5123,"count":4320,"type":"SCALAR","name":"accessorIndices"},{"bufferView":1,"byteOffset":2429280,"componentType":5126,"count":4320,"max":[-21.2465019,-7.47471952,30.4857635],"min":[-35.95329,-21.6437721,21.7552757],"type":"VEC3","name":"accessorPositions"},{"bufferView":1,"byteOffset":2481120,"componentType":5126,"count":4320,"type":"VEC3","name":"accessorNormals"},{"bufferView":2,"byteOffset":809760,"componentType":5126,"count":4320,"type":"VEC2","name":"accessorUVs"},{"bufferView":0,"byteOffset":211080,"componentType":5123,"count":2160,"type":"SCALAR","name":"accessorIndices"},{"bufferView":1,"byteOffset":2532960,"componentType":5126,"count":2160,"max":[42.9104919,-15.4485559,-6.71626],"min":[31.9551735,-26.3944054,-17.6506615],"type":"VEC3","name":"accessorPositions"},{"bufferView":1,"byteOffset":2558880,"componentType":5126,"count":2160,"type":"VEC3","name":"accessorNormals"},{"bufferView":2,"byteOffset":844320,"componentType":5126,"count":2160,"type":"VEC2","name":"accessorUVs"},{"bufferView":0,"byteOffset":215400,"componentType":5123,"count":4320,"type":"SCALAR","name":"accessorIndices"},{"bufferView":1,"byteOffset":2584800,"componentType":5126,"count":4320,"max":[44.1855278,-12.8174286,-4.49040031],"min":[35.18978,-23.6854,-21.137434],"type":"VEC3","name":"accessorPositions"},{"bufferView":1,"byteOffset":2636640,"componentType":5126,"count":4320,"type":"VEC3","name":"accessorNormals"},{"bufferView":2,"byteOffset":861600,"componentType":5126,"count":4320,"type":"VEC2","name":"accessorUVs"}],"bufferViews":[{"buffer":0,"byteLength":224040,"name":"bufferViewScalar"},{"buffer":0,"byteOffset":224040,"byteLength":2688480,"byteStride":12,"name":"bufferViewFloatVec3"},{"buffer":0,"byteOffset":2912520,"byteLength":896160,"byteStride":8,"name":"bufferViewFloatVec2"}],"buffers":[{"uri":"bmodel.bin","byteLength":3808680}],"materials":[{"pbrMetallicRoughness":{"baseColorFactor":[1.0,1.0,1.0,1.0],"baseColorTexture":{"index":0},"metallicFactor":0.0,"roughnessFactor":0.9},"emissiveFactor":[0.0,0.0,0.0],"alphaMode":"BLEND","name":"Material #3827"},{"pbrMetallicRoughness":{"baseColorFactor":[1.0,1.0,1.0,1.0],"baseColorTexture":{"index":1},"metallicFactor":0.0,"roughnessFactor":0.9},"emissiveFactor":[0.0,0.0,0.0],"alphaMode":"BLEND","name":"Material #3828"},{"pbrMetallicRoughness":{"baseColorFactor":[1.0,1.0,1.0,1.0],"baseColorTexture":{"index":2},"metallicFactor":0.0,"roughnessFactor":0.9},"emissiveFactor":[0.0,0.0,0.0],"alphaMode":"BLEND","name":"Material #3825"},{"pbrMetallicRoughness":{"baseColorFactor":[1.0,1.0,1.0,1.0],"baseColorTexture":{"index":3},"metallicFactor":0.0,"roughnessFactor":0.9},"emissiveFactor":[0.0,0.0,0.0],"alphaMode":"BLEND","name":"Material #3826"}],"textures":[{"sampler":0,"source":0,"name":"Material3827_baseColor.png"},{"sampler":1,"source":1,"name":"Material3828_baseColor.png"},{"sampler":2,"source":2,"name":"Material3825_baseColor.png"},{"sampler":3,"source":3,"name":"Material3826_baseColor.png"}],"images":[{"uri":"Material3827_baseColor.png"},{"uri":"Material3828_baseColor.png"},{"uri":"Material3825_baseColor.png"},{"uri":"Material3826_baseColor.png"}],"samplers":[{"magFilter":9729,"minFilter":9987,"wrapS":10497,"wrapT":10497},{"magFilter":9729,"minFilter":9987,"wrapS":10497,"wrapT":10497},{"magFilter":9729,"minFilter":9987,"wrapS":10497,"wrapT":10497},{"magFilter":9729,"minFilter":9987,"wrapS":10497,"wrapT":10497}]}