{"asset":{"version":"2.0","generator":"Babylon2Gltf2017","copyright":"2017 (c) BabylonJS"},"scene":0,"scenes":[{"nodes":[0,1,2,3,4,5,6,7,8,9,10,11,12,13,14,15,16]}],"nodes":[{"mesh":0,"translation":[0.0,0.0,0.0],"rotation":[-0.266206652,0.0143724829,-0.9226305,0.278711945],"scale":[1.0,1.00000036,1.00000036],"name":"x2"},{"mesh":1,"translation":[0.0,0.0,0.0],"rotation":[0.08128205,-0.5022885,-0.8330906,0.216932058],"scale":[1.000001,1.00000048,1.00000024],"name":"x3"},{"mesh":2,"translation":[0.0,0.0,0.0],"rotation":[0.0749495849,-0.749366343,-0.177995056,-0.6333644],"scale":[1.000001,0.9999989,0.999999344],"name":"x4"},{"mesh":3,"translation":[0.0,0.0,0.0],"rotation":[-0.260556668,0.826262,-0.0747456,-0.493775755],"scale":[1.00000012,0.9999996,1.00000083],"name":"x5"},{"mesh":4,"translation":[0.0,0.0,0.0],"rotation":[0.6360117,0.4946014,0.00293237926,-0.592325866],"scale":[1.00000012,1.000001,0.9999992],"name":"x6"},{"mesh":5,"translation":[0.0,0.0,0.0],"rotation":[-0.303924918,0.8138186,-0.08092316,-0.488651633],"scale":[0.9999997,0.9999994,1.00000024],"name":"x7"},{"mesh":6,"translation":[0.0,0.0,0.0],"rotation":[0.9136259,-0.346093863,0.027282672,-0.2115713],"scale":[0.999999642,1.000001,0.999999046],"name":"x8"},{"mesh":7,"translation":[0.0,0.0,0.0],"rotation":[0.850547254,0.1969699,0.451517135,-0.184131816],"scale":[0.999999344,0.999999642,1.00000024],"name":"m"},{"mesh":8,"translation":[0.0,0.0,0.0],"rotation":[-0.175127521,-0.38194713,-0.752726257,-0.5068038],"scale":[0.999999642,0.9999996,1.00000024],"name":"s3"},{"mesh":9,"translation":[0.0,0.0,0.0],"rotation":[-0.117312282,-0.458451569,-0.6181783,-0.6276269],"scale":[0.9999994,0.9999991,0.9999998],"name":"s1"},{"mesh":10,"translation":[0.0,0.0,0.0],"rotation":[-0.367517263,0.778698266,-0.432413727,0.267541468],"scale":[0.999999762,0.9999993,1.00000024],"name":"j3"},{"mesh":11,"translation":[0.0,0.0,0.0],"rotation":[0.346871853,0.9328981,0.08632026,-0.0439304039],"scale":[0.9999995,0.999999642,1.00000048],"name":"j1"},{"mesh":12,"translation":[0.0,0.0,0.0],"rotation":[0.8296834,-0.175274745,-0.136992559,-0.511993349],"scale":[0.9999997,0.9999987,0.99999994],"name":"s4"},{"mesh":13,"translation":[0.0,0.0,0.0],"rotation":[0.888106465,0.313918948,-0.09469738,0.322108954],"scale":[0.9999997,0.9999992,0.99999994],"name":"s2"},{"mesh":14,"translation":[0.0,0.0,0.0],"rotation":[0.127944559,0.6245632,-0.5783841,-0.508942842],"scale":[0.9999994,1.00000012,1.00000036],"name":"j4"},{"mesh":15,"translation":[0.0,0.0,0.0],"rotation":[0.426209062,0.8198471,0.316247,0.214905649],"scale":[0.999999344,1.0,0.999999762],"name":"j2"},{"mesh":16,"translation":[0.0,0.0,0.0],"rotation":[-0.0631616,0.0300307572,-0.9374837,-0.3409295],"scale":[0.9999996,1.0,0.9999994],"name":"x1"}],"meshes":[{"primitives":[{"attributes":{"POSITION":1,"NORMAL":2,"TEXCOORD_0":3},"indices":0,"mode":4,"material":0}],"name":"x2"},{"primitives":[{"attributes":{"POSITION":5,"NORMAL":6,"TEXCOORD_0":7},"indices":4,"mode":4,"material":0}],"name":"x3"},{"primitives":[{"attributes":{"POSITION":9,"NORMAL":10,"TEXCOORD_0":11},"indices":8,"mode":4,"material":0}],"name":"x4"},{"primitives":[{"attributes":{"POSITION":13,"NORMAL":14,"TEXCOORD_0":15},"indices":12,"mode":4,"material":0}],"name":"x5"},{"primitives":[{"attributes":{"POSITION":17,"NORMAL":18,"TEXCOORD_0":19},"indices":16,"mode":4,"material":0}],"name":"x6"},{"primitives":[{"attributes":{"POSITION":21,"NORMAL":22,"TEXCOORD_0":23},"indices":20,"mode":4,"material":0}],"name":"x7"},{"primitives":[{"attributes":{"POSITION":25,"NORMAL":26,"TEXCOORD_0":27},"indices":24,"mode":4,"material":0}],"name":"x8"},{"primitives":[{"attributes":{"POSITION":29,"NORMAL":30,"TEXCOORD_0":31},"indices":28,"mode":4,"material":1},{"attributes":{"POSITION":33,"NORMAL":34,"TEXCOORD_0":35},"indices":32,"mode":4,"material":2},{"attributes":{"POSITION":37,"NORMAL":38,"TEXCOORD_0":39},"indices":36,"mode":4,"material":3},{"attributes":{"POSITION":41,"NORMAL":42,"TEXCOORD_0":43},"indices":40,"mode":4,"material":0}],"name":"m"},{"primitives":[{"attributes":{"POSITION":45,"NORMAL":46,"TEXCOORD_0":47},"indices":44,"mode":4,"material":2},{"attributes":{"POSITION":49,"NORMAL":50,"TEXCOORD_0":51},"indices":48,"mode":4,"material":1}],"name":"s3"},{"primitives":[{"attributes":{"POSITION":53,"NORMAL":54,"TEXCOORD_0":55},"indices":52,"mode":4,"material":2},{"attributes":{"POSITION":57,"NORMAL":58,"TEXCOORD_0":59},"indices":56,"mode":4,"material":1}],"name":"s1"},{"primitives":[{"attributes":{"POSITION":61,"NORMAL":62,"TEXCOORD_0":63},"indices":60,"mode":4,"material":2},{"attributes":{"POSITION":65,"NORMAL":66,"TEXCOORD_0":67},"indices":64,"mode":4,"material":1},{"attributes":{"POSITION":69,"NORMAL":70,"TEXCOORD_0":71},"indices":68,"mode":4,"material":3}],"name":"j3"},{"primitives":[{"attributes":{"POSITION":73,"NORMAL":74,"TEXCOORD_0":75},"indices":72,"mode":4,"material":2},{"attributes":{"POSITION":77,"NORMAL":78,"TEXCOORD_0":79},"indices":76,"mode":4,"material":1},{"attributes":{"POSITION":81,"NORMAL":82,"TEXCOORD_0":83},"indices":80,"mode":4,"material":3}],"name":"j1"},{"primitives":[{"attributes":{"POSITION":85,"NORMAL":86,"TEXCOORD_0":87},"indices":84,"mode":4,"material":2},{"attributes":{"POSITION":89,"NORMAL":90,"TEXCOORD_0":91},"indices":88,"mode":4,"material":1}],"name":"s4"},{"primitives":[{"attributes":{"POSITION":93,"NORMAL":94,"TEXCOORD_0":95},"indices":92,"mode":4,"material":2},{"attributes":{"POSITION":97,"NORMAL":98,"TEXCOORD_0":99},"indices":96,"mode":4,"material":1}],"name":"s2"},{"primitives":[{"attributes":{"POSITION":101,"NORMAL":102,"TEXCOORD_0":103},"indices":100,"mode":4,"material":2},{"attributes":{"POSITION":105,"NORMAL":106,"TEXCOORD_0":107},"indices":104,"mode":4,"material":1},{"attributes":{"POSITION":109,"NORMAL":110,"TEXCOORD_0":111},"indices":108,"mode":4,"material":3}],"name":"j4"},{"primitives":[{"attributes":{"POSITION":113,"NORMAL":114,"TEXCOORD_0":115},"indices":112,"mode":4,"material":2},{"attributes":{"POSITION":117,"NORMAL":118,"TEXCOORD_0":119},"indices":116,"mode":4,"material":1},{"attributes":{"POSITION":121,"NORMAL":122,"TEXCOORD_0":123},"indices":120,"mode":4,"material":3}],"name":"j2"},{"primitives":[{"attributes":{"POSITION":125,"NORMAL":126,"TEXCOORD_0":127},"indices":124,"mode":4,"material":0}],"name":"x1"}],"accessors":[{"bufferView":0,"componentType":5123,"count":1092,"type":"SCALAR","name":"accessorIndices"},{"bufferView":1,"componentType":5126,"count":1092,"max":[16.43488,-18.9452534,-26.1813335],"min":[15.4348764,-26.1517773,-27.1562653],"type":"VEC3","name":"accessorPositions"},{"bufferView":1,"byteOffset":13104,"componentType":5126,"count":1092,"type":"VEC3","name":"accessorNormals"},{"bufferView":2,"componentType":5126,"count":1092,"type":"VEC2","name":"accessorUVs"},{"bufferView":0,"byteOffset":2184,"componentType":5123,"count":1092,"type":"SCALAR","name":"accessorIndices"},{"bufferView":1,"byteOffset":26208,"componentType":5126,"count":1092,"max":[26.6766872,-5.8549695,-3.180737],"min":[25.6766834,-13.0614929,-4.15566826],"type":"VEC3","name":"accessorPositions"},{"bufferView":1,"byteOffset":39312,"componentType":5126,"count":1092,"type":"VEC3","name":"accessorNormals"},{"bufferView":2,"byteOffset":8736,"componentType":5126,"count":1092,"type":"VEC2","name":"accessorUVs"},{"bufferView":0,"byteOffset":4368,"componentType":5123,"count":1092,"type":"SCALAR","name":"accessorIndices"},{"bufferView":1,"byteOffset":52416,"componentType":5126,"count":1092,"max":[-5.50643635,-12.534627,-25.10274],"min":[-6.506437,-19.7411518,-26.0776711],"type":"VEC3","name":"accessorPositions"},{"bufferView":1,"byteOffset":65520,"componentType":5126,"count":1092,"type":"VEC3","name":"accessorNormals"},{"bufferView":2,"byteOffset":17472,"componentType":5126,"count":1092,"type":"VEC2","name":"accessorUVs"},{"bufferView":0,"byteOffset":6552,"componentType":5123,"count":1092,"type":"SCALAR","name":"accessorIndices"},{"bufferView":1,"byteOffset":78624,"componentType":5126,"count":1092,"max":[0.9359517,15.5354595,-9.63208],"min":[-0.06404877,8.328936,-10.6070089],"type":"VEC3","name":"accessorPositions"},{"bufferView":1,"byteOffset":91728,"componentType":5126,"count":1092,"type":"VEC3","name":"accessorNormals"},{"bufferView":2,"byteOffset":26208,"componentType":5126,"count":1092,"type":"VEC2","name":"accessorUVs"},{"bufferView":0,"byteOffset":8736,"componentType":5123,"count":1092,"type":"SCALAR","name":"accessorIndices"},{"bufferView":1,"byteOffset":104832,"componentType":5126,"count":1092,"max":[11.4007607,11.3862572,1.21747756],"min":[10.40076,4.17973375,0.242548466],"type":"VEC3","name":"accessorPositions"},{"bufferView":1,"byteOffset":117936,"componentType":5126,"count":1092,"type":"VEC3","name":"accessorNormals"},{"bufferView":2,"byteOffset":34944,"componentType":5126,"count":1092,"type":"VEC2","name":"accessorUVs"},{"bufferView":0,"byteOffset":10920,"componentType":5123,"count":1092,"type":"SCALAR","name":"accessorIndices"},{"bufferView":1,"byteOffset":131040,"componentType":5126,"count":1092,"max":[-22.9681416,-8.503845,-14.1008492],"min":[-23.9681435,-15.71037,-15.0757809],"type":"VEC3","name":"accessorPositions"},{"bufferView":1,"byteOffset":144144,"componentType":5126,"count":1092,"type":"VEC3","name":"accessorNormals"},{"bufferView":2,"byteOffset":43680,"componentType":5126,"count":1092,"type":"VEC2","name":"accessorUVs"},{"bufferView":0,"byteOffset":13104,"componentType":5123,"count":1092,"type":"SCALAR","name":"accessorIndices"},{"bufferView":1,"byteOffset":157248,"componentType":5126,"count":1092,"max":[34.78541,1.33682346,20.36312],"min":[33.785408,-5.869701,19.3881874],"type":"VEC3","name":"accessorPositions"},{"bufferView":1,"byteOffset":170352,"componentType":5126,"count":1092,"type":"VEC3","name":"accessorNormals"},{"bufferView":2,"byteOffset":52416,"componentType":5126,"count":1092,"type":"VEC2","name":"accessorUVs"},{"bufferView":0,"byteOffset":15288,"componentType":5123,"count":14124,"type":"SCALAR","name":"accessorIndices"},{"bufferView":1,"byteOffset":183456,"componentType":5126,"count":14124,"max":[18.1965866,-15.9898787,16.2339153],"min":[-28.3202972,-58.1706619,-7.72609329],"type":"VEC3","name":"accessorPositions"},{"bufferView":1,"byteOffset":352944,"componentType":5126,"count":14124,"type":"VEC3","name":"accessorNormals"},{"bufferView":2,"byteOffset":61152,"componentType":5126,"count":14124,"type":"VEC2","name":"accessorUVs"},{"bufferView":0,"byteOffset":43536,"componentType":5123,"count":5040,"type":"SCALAR","name":"accessorIndices"},{"bufferView":1,"byteOffset":522432,"componentType":5126,"count":5040,"max":[13.5536594,-24.1679249,9.77255249],"min":[-18.4485588,-44.9986649,0.753903866],"type":"VEC3","name":"accessorPositions"},{"bufferView":1,"byteOffset":582912,"componentType":5126,"count":5040,"type":"VEC3","name":"accessorNormals"},{"bufferView":2,"byteOffset":174144,"componentType":5126,"count":5040,"type":"VEC2","name":"accessorUVs"},{"bufferView":0,"byteOffset":53616,"componentType":5123,"count":2880,"type":"SCALAR","name":"accessorIndices"},{"bufferView":1,"byteOffset":643392,"componentType":5126,"count":2880,"max":[-10.9002247,-44.99865,9.881622],"min":[-20.9679451,-54.9986534,-1.26475072],"type":"VEC3","name":"accessorPositions"},{"bufferView":1,"byteOffset":677952,"componentType":5126,"count":2880,"type":"VEC3","name":"accessorNormals"},{"bufferView":2,"byteOffset":214464,"componentType":5126,"count":2880,"type":"VEC2","name":"accessorUVs"},{"bufferView":0,"byteOffset":59376,"componentType":5123,"count":1092,"type":"SCALAR","name":"accessorIndices"},{"bufferView":1,"byteOffset":712512,"componentType":5126,"count":1092,"max":[5.57869148,-30.8104553,4.74136734],"min":[-1.54828858,-34.1586838,3.76642537],"type":"VEC3","name":"accessorPositions"},{"bufferView":1,"byteOffset":725616,"componentType":5126,"count":1092,"type":"VEC3","name":"accessorNormals"},{"bufferView":2,"byteOffset":237504,"componentType":5126,"count":1092,"type":"VEC2","name":"accessorUVs"},{"bufferView":0,"byteOffset":61560,"componentType":5123,"count":2520,"type":"SCALAR","name":"accessorIndices"},{"bufferView":1,"byteOffset":738720,"componentType":5126,"count":2520,"max":[8.016977,-19.97711,15.8664722],"min":[0.0518234968,-29.2951965,6.847801],"type":"VEC3","name":"accessorPositions"},{"bufferView":1,"byteOffset":768960,"componentType":5126,"count":2520,"type":"VEC3","name":"accessorNormals"},{"bufferView":2,"byteOffset":246240,"componentType":5126,"count":2520,"type":"VEC2","name":"accessorUVs"},{"bufferView":0,"byteOffset":66600,"componentType":5123,"count":4680,"type":"SCALAR","name":"accessorIndices"},{"bufferView":1,"byteOffset":799200,"componentType":5126,"count":4680,"max":[12.6599112,-11.8091087,22.0574989],"min":[0.592749357,-31.4888954,7.303099],"type":"VEC3","name":"accessorPositions"},{"bufferView":1,"byteOffset":855360,"componentType":5126,"count":4680,"type":"VEC3","name":"accessorNormals"},{"bufferView":2,"byteOffset":266400,"componentType":5126,"count":4680,"type":"VEC2","name":"accessorUVs"},{"bufferView":0,"byteOffset":75960,"componentType":5123,"count":2520,"type":"SCALAR","name":"accessorIndices"},{"bufferView":1,"byteOffset":911520,"componentType":5126,"count":2520,"max":[28.2734737,28.1571369,-22.80315],"min":[20.3083286,18.83905,-31.8218231],"type":"VEC3","name":"accessorPositions"},{"bufferView":1,"byteOffset":941760,"componentType":5126,"count":2520,"type":"VEC3","name":"accessorNormals"},{"bufferView":2,"byteOffset":303840,"componentType":5126,"count":2520,"type":"VEC2","name":"accessorUVs"},{"bufferView":0,"byteOffset":81000,"componentType":5123,"count":4680,"type":"SCALAR","name":"accessorIndices"},{"bufferView":1,"byteOffset":972000,"componentType":5126,"count":4680,"max":[32.9164238,36.267334,-16.612133],"min":[20.6951828,16.6453438,-31.4395752],"type":"VEC3","name":"accessorPositions"},{"bufferView":1,"byteOffset":1028160,"componentType":5126,"count":4680,"type":"VEC3","name":"accessorNormals"},{"bufferView":2,"byteOffset":324000,"componentType":5126,"count":4680,"type":"VEC2","name":"accessorUVs"},{"bufferView":0,"byteOffset":90360,"componentType":5123,"count":2520,"type":"SCALAR","name":"accessorIndices"},{"bufferView":1,"byteOffset":1084320,"componentType":5126,"count":2520,"max":[-3.866206,-0.8816277,0.9835501],"min":[-13.17194,-10.8816433,-6.01645],"type":"VEC3","name":"accessorPositions"},{"bufferView":1,"byteOffset":1114560,"componentType":5126,"count":2520,"type":"VEC3","name":"accessorNormals"},{"bufferView":2,"byteOffset":361440,"componentType":5126,"count":2520,"type":"VEC2","name":"accessorUVs"},{"bufferView":0,"byteOffset":95400,"componentType":5123,"count":9360,"type":"SCALAR","name":"accessorIndices"},{"bufferView":1,"byteOffset":1144800,"componentType":5126,"count":9360,"max":[3.661438,2.29037213,9.463522],"min":[-23.0436535,-24.0536385,-14.4964676],"type":"VEC3","name":"accessorPositions"},{"bufferView":1,"byteOffset":1257120,"componentType":5126,"count":9360,"type":"VEC3","name":"accessorNormals"},{"bufferView":2,"byteOffset":381600,"componentType":5126,"count":9360,"type":"VEC2","name":"accessorUVs"},{"bufferView":0,"byteOffset":114120,"componentType":5123,"count":2880,"type":"SCALAR","name":"accessorIndices"},{"bufferView":1,"byteOffset":1369440,"componentType":5126,"count":2880,"max":[-5.62361,-10.8816385,3.11124277],"min":[-15.6913261,-20.88163,-8.035138],"type":"VEC3","name":"accessorPositions"},{"bufferView":1,"byteOffset":1404000,"componentType":5126,"count":2880,"type":"VEC3","name":"accessorNormals"},{"bufferView":2,"byteOffset":456480,"componentType":5126,"count":2880,"type":"VEC2","name":"accessorUVs"},{"bufferView":0,"byteOffset":119880,"componentType":5123,"count":2520,"type":"SCALAR","name":"accessorIndices"},{"bufferView":1,"byteOffset":1438560,"componentType":5126,"count":2520,"max":[19.088686,-21.6967869,16.72497],"min":[9.782954,-31.696785,9.724969],"type":"VEC3","name":"accessorPositions"},{"bufferView":1,"byteOffset":1468800,"componentType":5126,"count":2520,"type":"VEC3","name":"accessorNormals"},{"bufferView":2,"byteOffset":479520,"componentType":5126,"count":2520,"type":"VEC2","name":"accessorUVs"},{"bufferView":0,"byteOffset":124920,"componentType":5123,"count":9360,"type":"SCALAR","name":"accessorIndices"},{"bufferView":1,"byteOffset":1499040,"componentType":5126,"count":9360,"max":[26.6163616,-18.5247936,25.2049656],"min":[-0.0887787342,-44.86879,1.244976],"type":"VEC3","name":"accessorPositions"},{"bufferView":1,"byteOffset":1611360,"componentType":5126,"count":9360,"type":"VEC3","name":"accessorNormals"},{"bufferView":2,"byteOffset":499680,"componentType":5126,"count":9360,"type":"VEC2","name":"accessorUVs"},{"bufferView":0,"byteOffset":143640,"componentType":5123,"count":2880,"type":"SCALAR","name":"accessorIndices"},{"bufferView":1,"byteOffset":1723680,"componentType":5126,"count":2880,"max":[17.33128,-31.6967773,18.8526764],"min":[7.263568,-41.6967926,7.706295],"type":"VEC3","name":"accessorPositions"},{"bufferView":1,"byteOffset":1758240,"componentType":5126,"count":2880,"type":"VEC3","name":"accessorNormals"},{"bufferView":2,"byteOffset":574560,"componentType":5126,"count":2880,"type":"VEC2","name":"accessorUVs"},{"bufferView":0,"byteOffset":149400,"componentType":5123,"count":2520,"type":"SCALAR","name":"accessorIndices"},{"bufferView":1,"byteOffset":1792800,"componentType":5126,"count":2520,"max":[38.41134,27.5674076,-7.828294],"min":[29.7787666,18.2870064,-16.572319],"type":"VEC3","name":"accessorPositions"},{"bufferView":1,"byteOffset":1823040,"componentType":5126,"count":2520,"type":"VEC3","name":"accessorNormals"},{"bufferView":2,"byteOffset":597600,"componentType":5126,"count":2520,"type":"VEC2","name":"accessorUVs"},{"bufferView":0,"byteOffset":154440,"componentType":5123,"count":4680,"type":"SCALAR","name":"accessorIndices"},{"bufferView":1,"byteOffset":1853280,"componentType":5126,"count":4680,"max":[43.9938164,29.4407539,-4.11541939],"min":[33.553,11.5503407,-21.9761848],"type":"VEC3","name":"accessorPositions"},{"bufferView":1,"byteOffset":1909440,"componentType":5126,"count":4680,"type":"VEC3","name":"accessorNormals"},{"bufferView":2,"byteOffset":617760,"componentType":5126,"count":4680,"type":"VEC2","name":"accessorUVs"},{"bufferView":0,"byteOffset":163800,"componentType":5123,"count":2520,"type":"SCALAR","name":"accessorIndices"},{"bufferView":1,"byteOffset":1965600,"componentType":5126,"count":2520,"max":[-22.0141411,6.082903,8.332059],"min":[-30.64672,-3.19748878,-0.411953926],"type":"VEC3","name":"accessorPositions"},{"bufferView":1,"byteOffset":1995840,"componentType":5126,"count":2520,"type":"VEC3","name":"accessorNormals"},{"bufferView":2,"byteOffset":655200,"componentType":5126,"count":2520,"type":"VEC2","name":"accessorUVs"},{"bufferView":0,"byteOffset":168840,"componentType":5123,"count":4680,"type":"SCALAR","name":"accessorIndices"},{"bufferView":1,"byteOffset":2026080,"componentType":5126,"count":4680,"max":[-16.4316578,7.956266,12.0449314],"min":[-26.8724937,-9.934152,-5.81584],"type":"VEC3","name":"accessorPositions"},{"bufferView":1,"byteOffset":2082240,"componentType":5126,"count":4680,"type":"VEC3","name":"accessorNormals"},{"bufferView":2,"byteOffset":675360,"componentType":5126,"count":4680,"type":"VEC2","name":"accessorUVs"},{"bufferView":0,"byteOffset":178200,"componentType":5123,"count":2520,"type":"SCALAR","name":"accessorIndices"},{"bufferView":1,"byteOffset":2138400,"componentType":5126,"count":2520,"max":[-24.9937744,0.474376678,-23.08288],"min":[-34.2995224,-9.525628,-30.0828762],"type":"VEC3","name":"accessorPositions"},{"bufferView":1,"byteOffset":2168640,"componentType":5126,"count":2520,"type":"VEC3","name":"accessorNormals"},{"bufferView":2,"byteOffset":712800,"componentType":5126,"count":2520,"type":"VEC2","name":"accessorUVs"},{"bufferView":0,"byteOffset":183240,"componentType":5123,"count":9360,"type":"SCALAR","name":"accessorIndices"},{"bufferView":1,"byteOffset":2198880,"componentType":5126,"count":9360,"max":[-17.46613,3.64637,-14.6028557],"min":[-44.1712265,-22.6976318,-38.5628548],"type":"VEC3","name":"accessorPositions"},{"bufferView":1,"byteOffset":2311200,"componentType":5126,"count":9360,"type":"VEC3","name":"accessorNormals"},{"bufferView":2,"byteOffset":732960,"componentType":5126,"count":9360,"type":"VEC2","name":"accessorUVs"},{"bufferView":0,"byteOffset":201960,"componentType":5123,"count":2880,"type":"SCALAR","name":"accessorIndices"},{"bufferView":1,"byteOffset":2423520,"componentType":5126,"count":2880,"max":[-26.7511539,-9.525622,-20.95516],"min":[-36.8189163,-19.5256252,-32.1015358],"type":"VEC3","name":"accessorPositions"},{"bufferView":1,"byteOffset":2458080,"componentType":5126,"count":2880,"type":"VEC3","name":"accessorNormals"},{"bufferView":2,"byteOffset":807840,"componentType":5126,"count":2880,"type":"VEC2","name":"accessorUVs"},{"bufferView":0,"byteOffset":207720,"componentType":5123,"count":2520,"type":"SCALAR","name":"accessorIndices"},{"bufferView":1,"byteOffset":2492640,"componentType":5126,"count":2520,"max":[-23.1764584,-18.39731,-19.66987],"min":[-32.48218,-28.3973179,-26.6698723],"type":"VEC3","name":"accessorPositions"},{"bufferView":1,"byteOffset":2522880,"componentType":5126,"count":2520,"type":"VEC3","name":"accessorNormals"},{"bufferView":2,"byteOffset":830880,"componentType":5126,"count":2520,"type":"VEC2","name":"accessorUVs"},{"bufferView":0,"byteOffset":212760,"componentType":5123,"count":9360,"type":"SCALAR","name":"accessorIndices"},{"bufferView":1,"byteOffset":2553120,"componentType":5126,"count":9360,"max":[-15.6487741,-15.2253094,-11.18986],"min":[-42.3538971,-41.56932,-35.149868],"type":"VEC3","name":"accessorPositions"},{"bufferView":1,"byteOffset":2665440,"componentType":5126,"count":9360,"type":"VEC3","name":"accessorNormals"},{"bufferView":2,"byteOffset":851040,"componentType":5126,"count":9360,"type":"VEC2","name":"accessorUVs"},{"bufferView":0,"byteOffset":231480,"componentType":5123,"count":2880,"type":"SCALAR","name":"accessorIndices"},{"bufferView":1,"byteOffset":2777760,"componentType":5126,"count":2880,"max":[-24.9338417,-28.39731,-17.54216],"min":[-35.001564,-38.397316,-28.6885452],"type":"VEC3","name":"accessorPositions"},{"bufferView":1,"byteOffset":2812320,"componentType":5126,"count":2880,"type":"VEC3","name":"accessorNormals"},{"bufferView":2,"byteOffset":925920,"componentType":5126,"count":2880,"type":"VEC2","name":"accessorUVs"},{"bufferView":0,"byteOffset":237240,"componentType":5123,"count":1092,"type":"SCALAR","name":"accessorIndices"},{"bufferView":1,"byteOffset":2846880,"componentType":5126,"count":1092,"max":[38.0592041,1.817637,-14.6019077],"min":[37.0591965,-5.38888836,-15.5768366],"type":"VEC3","name":"accessorPositions"},{"bufferView":1,"byteOffset":2859984,"componentType":5126,"count":1092,"type":"VEC3","name":"accessorNormals"},{"bufferView":2,"byteOffset":948960,"componentType":5126,"count":1092,"type":"VEC2","name":"accessorUVs"}],"bufferViews":[{"buffer":0,"byteLength":239424,"name":"bufferViewScalar"},{"buffer":0,"byteOffset":239424,"byteLength":2873088,"byteStride":12,"name":"bufferViewFloatVec3"},{"buffer":0,"byteOffset":3112512,"byteLength":957696,"byteStride":8,"name":"bufferViewFloatVec2"}],"buffers":[{"uri":"model.bin","byteLength":4070208}],"materials":[{"pbrMetallicRoughness":{"baseColorFactor":[1.0,1.0,1.0,1.0],"baseColorTexture":{"index":0},"metallicFactor":0.0,"roughnessFactor":0.9},"emissiveFactor":[0.0,0.0,0.0],"alphaMode":"BLEND","name":"Material #3827"},{"pbrMetallicRoughness":{"baseColorFactor":[1.0,1.0,1.0,1.0],"baseColorTexture":{"index":1},"metallicFactor":0.0,"roughnessFactor":0.9},"emissiveFactor":[0.0,0.0,0.0],"alphaMode":"BLEND","name":"Material #3826"},{"pbrMetallicRoughness":{"baseColorFactor":[1.0,1.0,1.0,1.0],"baseColorTexture":{"index":2},"metallicFactor":0.0,"roughnessFactor":0.9},"emissiveFactor":[0.0,0.0,0.0],"alphaMode":"BLEND","name":"Material #3828"},{"pbrMetallicRoughness":{"baseColorFactor":[1.0,1.0,1.0,1.0],"baseColorTexture":{"index":3},"metallicFactor":0.0,"roughnessFactor":0.9},"emissiveFactor":[0.0,0.0,0.0],"alphaMode":"BLEND","name":"Material #3825"}],"textures":[{"sampler":0,"source":0,"name":"Material3827_baseColor.png"},{"sampler":1,"source":1,"name":"Material3826_baseColor.png"},{"sampler":2,"source":2,"name":"Material3828_baseColor.png"},{"sampler":3,"source":3,"name":"Material3825_baseColor.png"}],"images":[{"uri":"Material3827_baseColor.png"},{"uri":"Material3826_baseColor.png"},{"uri":"Material3828_baseColor.png"},{"uri":"Material3825_baseColor.png"}],"samplers":[{"magFilter":9729,"minFilter":9987,"wrapS":10497,"wrapT":10497},{"magFilter":9729,"minFilter":9987,"wrapS":10497,"wrapT":10497},{"magFilter":9729,"minFilter":9987,"wrapS":10497,"wrapT":10497},{"magFilter":9729,"minFilter":9987,"wrapS":10497,"wrapT":10497}]}