{"asset":{"version":"2.0","generator":"Babylon2Gltf2017","copyright":"2017 (c) BabylonJS"},"scene":0,"scenes":[{"nodes":[0]}],"nodes":[{"mesh":0,"translation":[0.0,0.0,0.0],"rotation":[0.8168981,-0.576782,-1.28489759E-07,1.09594751E-08],"scale":[1.0,1.0,1.0],"name":"对象001"}],"meshes":[{"primitives":[{"attributes":{"POSITION":1,"NORMAL":2,"TEXCOORD_0":3},"indices":0,"mode":4,"material":0},{"attributes":{"POSITION":5,"NORMAL":6,"TEXCOORD_0":7},"indices":4,"mode":4,"material":1},{"attributes":{"POSITION":9,"NORMAL":10,"TEXCOORD_0":11},"indices":8,"mode":4,"material":2},{"attributes":{"POSITION":13,"NORMAL":14,"TEXCOORD_0":15},"indices":12,"mode":4,"material":3},{"attributes":{"POSITION":17,"NORMAL":18,"TEXCOORD_0":19},"indices":16,"mode":4,"material":4}],"name":"对象001"}],"accessors":[{"bufferView":0,"componentType":5123,"count":8334,"type":"SCALAR","name":"accessorIndices"},{"bufferView":1,"componentType":5126,"count":8334,"max":[4.97298861,6.250868,5.418597],"min":[-6.24350548,-3.40389729,-5.41859436],"type":"VEC3","name":"accessorPositions"},{"bufferView":1,"byteOffset":100008,"componentType":5126,"count":8334,"type":"VEC3","name":"accessorNormals"},{"bufferView":2,"componentType":5126,"count":8334,"type":"VEC2","name":"accessorUVs"},{"bufferView":0,"byteOffset":16668,"componentType":5123,"count":7464,"type":"SCALAR","name":"accessorIndices"},{"bufferView":1,"byteOffset":200016,"componentType":5126,"count":7464,"max":[4.01482248,14.4480934,2.9940815],"min":[-1.96152163,6.250867,-2.99407887],"type":"VEC3","name":"accessorPositions"},{"bufferView":1,"byteOffset":289584,"componentType":5126,"count":7464,"type":"VEC3","name":"accessorNormals"},{"bufferView":2,"byteOffset":66672,"componentType":5126,"count":7464,"type":"VEC2","name":"accessorUVs"},{"bufferView":0,"byteOffset":31596,"componentType":5123,"count":7386,"type":"SCALAR","name":"accessorIndices"},{"bufferView":1,"byteOffset":379152,"componentType":5126,"count":7386,"max":[-3.729141,0.2270546,2.99408269],"min":[-12.12623,-5.91544151,-2.99407768],"type":"VEC3","name":"accessorPositions"},{"bufferView":1,"byteOffset":467784,"componentType":5126,"count":7386,"type":"VEC3","name":"accessorNormals"},{"bufferView":2,"byteOffset":126384,"componentType":5126,"count":7386,"type":"VEC2","name":"accessorUVs"},{"bufferView":0,"byteOffset":46368,"componentType":5123,"count":7464,"type":"SCALAR","name":"accessorIndices"},{"bufferView":1,"byteOffset":556416,"componentType":5126,"count":7464,"max":[9.096116,0.227053761,-3.68592882],"min":[2.33680582,-5.915443,-11.7945518],"type":"VEC3","name":"accessorPositions"},{"bufferView":1,"byteOffset":645984,"componentType":5126,"count":7464,"type":"VEC3","name":"accessorNormals"},{"bufferView":2,"byteOffset":185472,"componentType":5126,"count":7464,"type":"VEC2","name":"accessorUVs"},{"bufferView":0,"byteOffset":61296,"componentType":5123,"count":7464,"type":"SCALAR","name":"accessorIndices"},{"bufferView":1,"byteOffset":735552,"componentType":5126,"count":7464,"max":[9.096119,0.227053165,11.7945547],"min":[2.3368063,-5.91544342,3.68593144],"type":"VEC3","name":"accessorPositions"},{"bufferView":1,"byteOffset":825120,"componentType":5126,"count":7464,"type":"VEC3","name":"accessorNormals"},{"bufferView":2,"byteOffset":245184,"componentType":5126,"count":7464,"type":"VEC2","name":"accessorUVs"}],"bufferViews":[{"buffer":0,"byteLength":76224,"name":"bufferViewScalar"},{"buffer":0,"byteOffset":76224,"byteLength":914688,"byteStride":12,"name":"bufferViewFloatVec3"},{"buffer":0,"byteOffset":990912,"byteLength":304896,"byteStride":8,"name":"bufferViewFloatVec2"}],"buffers":[{"uri":"jr.bin","byteLength":1295808}],"materials":[{"pbrMetallicRoughness":{"baseColorFactor":[1.0,1.0,1.0,1.0],"baseColorTexture":{"index":0},"metallicFactor":0.0,"roughnessFactor":0.9},"emissiveFactor":[0.0,0.0,0.0],"alphaMode":"BLEND","name":"Material126"},{"pbrMetallicRoughness":{"baseColorFactor":[1.0,1.0,1.0,1.0],"baseColorTexture":{"index":1},"metallicFactor":0.0,"roughnessFactor":0.9},"emissiveFactor":[0.0,0.0,0.0],"alphaMode":"BLEND","name":"Material8256"},{"pbrMetallicRoughness":{"baseColorFactor":[1.0,1.0,1.0,1.0],"baseColorTexture":{"index":2},"metallicFactor":0.0,"roughnessFactor":0.9},"emissiveFactor":[0.0,0.0,0.0],"alphaMode":"BLEND","name":"Material8257"},{"pbrMetallicRoughness":{"baseColorFactor":[1.0,1.0,1.0,1.0],"baseColorTexture":{"index":3},"metallicFactor":0.0,"roughnessFactor":0.9},"emissiveFactor":[0.0,0.0,0.0],"alphaMode":"BLEND","name":"Material8254"},{"pbrMetallicRoughness":{"baseColorFactor":[1.0,1.0,1.0,1.0],"baseColorTexture":{"index":4},"metallicFactor":0.0,"roughnessFactor":0.9},"emissiveFactor":[0.0,0.0,0.0],"alphaMode":"BLEND","name":"Material8255"}],"textures":[{"sampler":0,"source":0,"name":"Material126_baseColor.png"},{"sampler":1,"source":1,"name":"Material8256_baseColor.png"},{"sampler":2,"source":2,"name":"Material8257_baseColor.png"},{"sampler":3,"source":3,"name":"Material8254_baseColor.png"},{"sampler":4,"source":4,"name":"Material8255_baseColor.png"}],"images":[{"uri":"Material126_baseColor.png"},{"uri":"Material8256_baseColor.png"},{"uri":"Material8257_baseColor.png"},{"uri":"Material8254_baseColor.png"},{"uri":"Material8255_baseColor.png"}],"samplers":[{"magFilter":9729,"minFilter":9987,"wrapS":10497,"wrapT":10497},{"magFilter":9729,"minFilter":9987,"wrapS":10497,"wrapT":10497},{"magFilter":9729,"minFilter":9987,"wrapS":10497,"wrapT":10497},{"magFilter":9729,"minFilter":9987,"wrapS":10497,"wrapT":10497},{"magFilter":9729,"minFilter":9987,"wrapS":10497,"wrapT":10497}]}