<?xml version="1.0" encoding="UTF-8"?>
<svg width="20px" height="20px" viewBox="0 0 20 20" version="1.1" xmlns="http://www.w3.org/2000/svg" xmlns:xlink="http://www.w3.org/1999/xlink">
    <!-- Generator: Sketch 63.1 (92452) - https://sketch.com -->
    <title>白图标/重置</title>
    <desc>Created with Sketch.</desc>
    <g id="页面-1" stroke="none" stroke-width="1" fill="none" fill-rule="evenodd">
        <g id="桌面端面板尺寸" transform="translate(-966.000000, -437.000000)">
            <g id="标题面板/黑色" transform="translate(780.000000, 195.000000)">
                <g id="b6">
                    <g transform="translate(162.000000, 228.000000)">
                        <g id="白图标/重置" transform="translate(24.000000, 14.000000)">
                            <g>
                                <rect id="矩形" fill="#D8D8D8" opacity="0" x="0" y="0" width="20" height="20"></rect>
                                <g id="编组-18" transform="translate(2.000000, 1.343146)">
                                    <line x1="0" y1="5.65685425" x2="11.5" y2="5.65685425" id="路径-4" stroke="#FFFFFF" stroke-width="2" stroke-linecap="round"></line>
                                    <line x1="-3.61488617e-13" y1="5.65685425" x2="4.94974747" y2="10.6066017" id="路径-4备份-3" stroke="#FFFFFF" stroke-width="2" stroke-linecap="round"></line>
                                    <line x1="-3.61488617e-13" y1="5.65685425" x2="4.94974747" y2="0.707106781" id="路径-4备份-2" stroke="#FFFFFF" stroke-width="2" stroke-linecap="round"></line>
                                    <path d="M11.5,4.65685425 C15.0898509,4.65685425 18,7.56700338 18,11.1568543 C18,14.7467051 15.0898509,17.6568543 11.5,17.6568543 L11.5,17.6568543 L11.5,15.6568543 C13.9852814,15.6568543 16,13.6421356 16,11.1568543 C16,8.67157288 13.9852814,6.65685425 11.5,6.65685425 L11.5,6.65685425 Z" id="形状结合" fill="#FFFFFF" fill-rule="nonzero"></path>
                                    <line x1="2" y1="16.6568542" x2="11.5" y2="16.6568542" id="路径-4备份" stroke="#FFFFFF" stroke-width="2" stroke-linecap="round"></line>
                                </g>
                            </g>
                        </g>
                    </g>
                </g>
            </g>
        </g>
    </g>
</svg>