<?xml version="1.0" encoding="UTF-8"?>
<svg width="20px" height="20px" viewBox="0 0 20 20" version="1.1" xmlns="http://www.w3.org/2000/svg" xmlns:xlink="http://www.w3.org/1999/xlink">
    <!-- Generator: Sketch 64 (93537) - https://sketch.com -->
    <title>白图标/微课播放</title>
    <desc>Created with Sketch.</desc>
    <g id="页面-1" stroke="none" stroke-width="1" fill="none" fill-rule="evenodd">
        <g id="白图标/微课播放">
            <g>
                <rect id="矩形" fill="#D8D8D8" opacity="0" x="0" y="0" width="20" height="20"></rect>
                <path d="M3.34055275,2.61084094 C3.11752099,2.99318108 3,3.42788191 3,3.8705185 L3,16.1294815 C3,17.5101934 4.11928813,18.6294815 5.5,18.6294815 C5.94263659,18.6294815 6.37733742,18.5119605 6.75967756,18.2889288 L17.7115893,11.9003136 C18.7611035,11.288097 19.1156032,9.94099796 18.5033866,8.89148374 C18.3121653,8.56367575 18.0393973,8.29090775 17.7115893,8.09968642 L6.75967756,1.71107125 C5.61674069,1.04435807 4.16323256,1.38654829 3.43177991,2.46589803 L3.34055275,2.61084094 Z M5.06811055,3.61858299 C5.19179068,3.40655991 5.44743621,3.31934303 5.67024382,3.40030164 L5.75193551,3.43862905 L16.7038472,9.82724422 C16.733648,9.84462798 16.7584451,9.86942507 16.7758288,9.89922579 C16.8203537,9.9755541 16.8086332,10.0691964 16.7533139,10.1320961 L16.7038472,10.1727558 L5.75193551,16.561371 C5.67546748,16.6059773 5.58852732,16.6294815 5.5,16.6294815 C5.25454011,16.6294815 5.05039163,16.4526063 5.00805567,16.2193571 L5,16.1294815 L5,3.8705185 C5,3.78199118 5.0235042,3.69505102 5.06811055,3.61858299 Z" id="路径-12" fill="#FFFFFF" fill-rule="nonzero"></path>
            </g>
        </g>
    </g>
</svg>