<?xml version="1.0" encoding="UTF-8"?>
<svg width="20px" height="20px" viewBox="0 0 20 20" version="1.1" xmlns="http://www.w3.org/2000/svg" xmlns:xlink="http://www.w3.org/1999/xlink">
    <!-- Generator: Sketch 63.1 (92452) - https://sketch.com -->
    <title>图标/退出</title>
    <desc>Created with Sketch.</desc>
    <g id="页面-1" stroke="none" stroke-width="1" fill="none" fill-rule="evenodd">
        <g id="标面说明/文字介绍/1-初始" transform="translate(-1034.000000, -595.000000)">
            <g id="标题面板/白色" transform="translate(924.000000, 353.000000)">
                <g id="b5">
                    <g transform="translate(86.000000, 228.000000)">
                        <g id="图标/退出" transform="translate(24.000000, 14.000000)">
                            <g>
                                <rect id="矩形" fill="#D8D8D8" opacity="0" x="0" y="0" width="20" height="20"></rect>
                                <path d="M1,5 L0,5 C-1.65685425,5 -3,6.34314575 -3,8 L-3,12 C-3,13.6568542 -1.65685425,15 0,15 L12,15 C13.6568542,15 15,13.6568542 15,12 L15,8 C15,6.34314575 13.6568542,5 12,5 L11,5 L11,5" id="路径-10" stroke="#979797" stroke-width="2" stroke-linecap="round" fill-rule="nonzero" transform="translate(6.000000, 10.000000) rotate(-270.000000) translate(-6.000000, -10.000000) "></path>
                                <g id="Group" transform="translate(8.000000, 5.000000)" fill-rule="nonzero" stroke="#979797" stroke-linecap="round" stroke-width="2">
                                    <line x1="11" y1="5" x2="0" y2="5" id="Line"></line>
                                    <line x1="11.951903" y1="7.29809704" x2="5.45190296" y2="7.29809704" id="Line-Copy" transform="translate(8.701903, 7.298097) rotate(-45.000000) translate(-8.701903, -7.298097) "></line>
                                    <line x1="11.951903" y1="2.70190296" x2="5.45190296" y2="2.70190296" id="Line-Copy-2" transform="translate(8.701903, 2.701903) rotate(-315.000000) translate(-8.701903, -2.701903) "></line>
                                </g>
                            </g>
                        </g>
                    </g>
                </g>
            </g>
        </g>
    </g>
</svg>