{"asset":{"version":"2.0","generator":"Babylon2Gltf2017","copyright":"2017(c)BabylonJS"},"scene":0,"scenes":[{"nodes":[0]}],"nodes":[{"mesh":0,"translation":[0.0,9.536743E-07,0.0],"rotation":[0.0,0.0,0.0,-1.0],"scale":[1.0,1.0,1.0],"name":"1"}],"meshes":[{"primitives":[{"attributes":{"POSITION":1,"NORMAL":2,"TEXCOORD_0":3},"indices":0,"mode":4,"material":0},{"attributes":{"POSITION":5,"NORMAL":6,"TEXCOORD_0":7},"indices":4,"mode":4,"material":1}],"name":"1"}],"accessors":[{"bufferView":0,"componentType":5125,"count":89568,"type":"SCALAR","name":"accessorIndices"},{"bufferView":1,"componentType":5126,"count":89568,"max":[32.7117729,12.0424547,10.0171986],"min":[-32.7117729,-12.0424547,-10.0171986],"type":"VEC3","name":"accessorPositions"},{"bufferView":1,"byteOffset":1074816,"componentType":5126,"count":89568,"type":"VEC3","name":"accessorNormals"},{"bufferView":2,"componentType":5126,"count":89568,"type":"VEC2","name":"accessorUVs"},{"bufferView":0,"byteOffset":358272,"componentType":5125,"count":19680,"type":"SCALAR","name":"accessorIndices"},{"bufferView":1,"byteOffset":2149632,"componentType":5126,"count":19680,"max":[26.9800549,7.59952545,4.89917231],"min":[-26.9800549,-7.59952641,-4.899171],"type":"VEC3","name":"accessorPositions"},{"bufferView":1,"byteOffset":2385792,"componentType":5126,"count":19680,"type":"VEC3","name":"accessorNormals"},{"bufferView":2,"byteOffset":716544,"componentType":5126,"count":19680,"type":"VEC2","name":"accessorUVs"}],"bufferViews":[{"buffer":0,"byteLength":436992,"name":"bufferViewScalar"},{"buffer":0,"byteOffset":436992,"byteLength":2621952,"byteStride":12,"name":"bufferViewFloatVec3"},{"buffer":0,"byteOffset":3058944,"byteLength":873984,"byteStride":8,"name":"bufferViewFloatVec2"}],"buffers":[{"uri":"zww.bin","byteLength":3932928}],"materials":[{"pbrMetallicRoughness":{"baseColorFactor":[1.0,1.0,1.0,1.0],"baseColorTexture":{"index":0},"metallicFactor":0.0,"roughnessFactor":0.9},"emissiveFactor":[0.0,0.0,0.0],"alphaMode":"BLEND","name":"Material5077"},{"pbrMetallicRoughness":{"baseColorFactor":[1.0,1.0,1.0,1.0],"baseColorTexture":{"index":1},"metallicFactor":0.0,"roughnessFactor":0.9},"emissiveFactor":[0.0,0.0,0.0],"alphaMode":"BLEND","name":"Material126"}],"textures":[{"sampler":0,"source":0,"name":"Material5077_baseColor.png"},{"sampler":1,"source":1,"name":"Material126_baseColor.png"}],"images":[{"uri":"Material5077_baseColor.png"},{"uri":"Material126_baseColor.png"}],"samplers":[{"magFilter":9729,"minFilter":9987,"wrapS":10497,"wrapT":10497},{"magFilter":9729,"minFilter":9987,"wrapS":10497,"wrapT":10497}]}