{"asset":{"version":"2.0","generator":"babylon.js glTF exporter for maya 2018 v1.2.16","copyright":"2017 (c) BabylonJS"},"extensionsUsed":["KHR_lights"],"scene":0,"scenes":[{"nodes":[0],"extensions":{"KHR_lights":{"light":0}}}],"nodes":[{"mesh":0,"translation":[0.0,0.0,0.0],"rotation":[0.0,0.0,0.0,1.0],"scale":[1.0,1.0,1.0],"name":"pCylinder2"}],"meshes":[{"primitives":[{"attributes":{"POSITION":1,"NORMAL":2,"TANGENT":3,"TEXCOORD_0":4},"indices":0,"mode":4,"material":0}],"name":"pCylinder2"}],"accessors":[{"bufferView":0,"componentType":5123,"count":1344,"type":"SCALAR","name":"accessorIndices"},{"bufferView":1,"componentType":5126,"count":290,"max":[9.084709,0.173940673,8.176238],"min":[-9.084709,-0.173940673,-8.176238],"type":"VEC3","name":"accessorPositions"},{"bufferView":1,"byteOffset":3480,"componentType":5126,"count":290,"type":"VEC3","name":"accessorNormals"},{"bufferView":2,"componentType":5126,"count":290,"type":"VEC4","name":"accessorTangents"},{"bufferView":3,"componentType":5126,"count":290,"type":"VEC2","name":"accessorUVs"}],"bufferViews":[{"buffer":0,"byteLength":2688,"name":"bufferViewScalar"},{"buffer":0,"byteOffset":2688,"byteLength":6960,"byteStride":12,"name":"bufferViewFloatVec3"},{"buffer":0,"byteOffset":9648,"byteLength":4640,"byteStride":16,"name":"bufferViewFloatVec4"},{"buffer":0,"byteOffset":14288,"byteLength":2320,"byteStride":8,"name":"bufferViewFloatVec2"}],"buffers":[{"uri":"yezi.bin","byteLength":16608}],"materials":[{"pbrMetallicRoughness":{"baseColorFactor":[1.0,1.0,1.0,1.0],"baseColorTexture":{"index":0,"texCoord":0},"metallicFactor":0.0624999776,"roughnessFactor":0.6},"emissiveFactor":[0.0,0.0,0.0],"alphaMode":"OPAQUE","name":"yezi_m"}],"textures":[{"sampler":0,"source":0,"name":"yezi_m_baseColor.jpg"}],"images":[{"uri":"yezi_m_baseColor.jpg"}],"samplers":[{"magFilter":9729,"minFilter":9987,"wrapS":10497,"wrapT":10497}],"extensions":{"KHR_lights":{"lights":[{"color":[1.0,1.0,1.0],"intensity":1.0,"type":"ambient"}]}}}