{"asset":{"version":"2.0","generator":"Babylon2Gltf2017","copyright":"2017 (c) BabylonJS"},"scene":0,"scenes":[{"nodes":[0]}],"nodes":[{"mesh":0,"translation":[0.0,0.0,0.0],"rotation":[0.0,0.0,0.0,-1.0],"scale":[119.356766,119.356766,119.356766],"name":"对象025"}],"meshes":[{"primitives":[{"attributes":{"POSITION":1,"NORMAL":2,"TEXCOORD_0":3},"indices":0,"mode":4,"material":0}],"name":"对象025"}],"accessors":[{"bufferView":0,"componentType":5123,"count":2145,"type":"SCALAR","name":"accessorIndices"},{"bufferView":1,"componentType":5126,"count":2145,"max":[0.212933019,0.140527815,0.1431423],"min":[-0.212933034,-7.990115E-09,-0.143142238],"type":"VEC3","name":"accessorPositions"},{"bufferView":1,"byteOffset":25740,"componentType":5126,"count":2145,"type":"VEC3","name":"accessorNormals"},{"bufferView":2,"componentType":5126,"count":2145,"type":"VEC2","name":"accessorUVs"}],"bufferViews":[{"buffer":0,"byteLength":4292,"name":"bufferViewScalar"},{"buffer":0,"byteOffset":4292,"byteLength":51480,"byteStride":12,"name":"bufferViewFloatVec3"},{"buffer":0,"byteOffset":55772,"byteLength":17160,"byteStride":8,"name":"bufferViewFloatVec2"}],"buffers":[{"uri":"01.bin","byteLength":72932}],"materials":[{"pbrMetallicRoughness":{"baseColorFactor":[1.0,1.0,1.0,1.0],"baseColorTexture":{"index":0},"metallicFactor":0.0,"roughnessFactor":0.9},"emissiveFactor":[0.0,0.0,0.0],"alphaMode":"BLEND","name":"Material31"}],"textures":[{"sampler":0,"source":0,"name":"Material31_baseColor.png"}],"images":[{"uri":"Material31_baseColor.png"}],"samplers":[{"magFilter":9729,"minFilter":9987,"wrapS":10497,"wrapT":10497}]}