{"asset":{"version":"2.0","generator":"Babylon2Gltf2017","copyright":"2017 (c) BabylonJS"},"scene":0,"scenes":[{"nodes":[0]}],"nodes":[{"mesh":0,"translation":[0.0,0.0,-1.389569E-08],"rotation":[0.0,0.0,0.0,-1.0],"scale":[119.356766,119.356766,119.356766],"name":"对象020"}],"meshes":[{"primitives":[{"attributes":{"POSITION":1,"NORMAL":2,"TEXCOORD_0":3},"indices":0,"mode":4,"material":0}],"name":"对象020"}],"accessors":[{"bufferView":0,"componentType":5123,"count":978,"type":"SCALAR","name":"accessorIndices"},{"bufferView":1,"componentType":5126,"count":978,"max":[0.0243438352,0.134833127,-0.00582870934],"min":[-0.20531559,0.0515343733,-0.143142238],"type":"VEC3","name":"accessorPositions"},{"bufferView":1,"byteOffset":11736,"componentType":5126,"count":978,"type":"VEC3","name":"accessorNormals"},{"bufferView":2,"componentType":5126,"count":978,"type":"VEC2","name":"accessorUVs"}],"bufferViews":[{"buffer":0,"byteLength":1956,"name":"bufferViewScalar"},{"buffer":0,"byteOffset":1956,"byteLength":23472,"byteStride":12,"name":"bufferViewFloatVec3"},{"buffer":0,"byteOffset":25428,"byteLength":7824,"byteStride":8,"name":"bufferViewFloatVec2"}],"buffers":[{"uri":"02.bin","byteLength":33252}],"materials":[{"pbrMetallicRoughness":{"baseColorFactor":[1.0,1.0,1.0,1.0],"baseColorTexture":{"index":0},"metallicFactor":0.0,"roughnessFactor":0.9},"emissiveFactor":[0.0,0.0,0.0],"alphaMode":"BLEND","name":"Material30"}],"textures":[{"sampler":0,"source":0,"name":"Material30_baseColor.png"}],"images":[{"uri":"Material30_baseColor.png"}],"samplers":[{"magFilter":9729,"minFilter":9987,"wrapS":10497,"wrapT":10497}]}