{"asset":{"version":"2.0","generator":"Babylon2Gltf2017","copyright":"2017 (c) BabylonJS"},"scene":0,"scenes":[{"nodes":[0]}],"nodes":[{"mesh":0,"translation":[0.0,0.0,-1.389569E-08],"rotation":[0.0,0.0,0.0,-1.0],"scale":[119.356766,119.356766,119.356766],"name":"对象021"}],"meshes":[{"primitives":[{"attributes":{"POSITION":1,"NORMAL":2,"TEXCOORD_0":3},"indices":0,"mode":4,"material":0}],"name":"对象021"}],"accessors":[{"bufferView":0,"componentType":5123,"count":768,"type":"SCALAR","name":"accessorIndices"},{"bufferView":1,"componentType":5126,"count":768,"max":[0.009688335,0.118643567,-0.0190204531],"min":[-0.180210024,0.0515229069,-0.143142238],"type":"VEC3","name":"accessorPositions"},{"bufferView":1,"byteOffset":9216,"componentType":5126,"count":768,"type":"VEC3","name":"accessorNormals"},{"bufferView":2,"componentType":5126,"count":768,"type":"VEC2","name":"accessorUVs"}],"bufferViews":[{"buffer":0,"byteLength":1536,"name":"bufferViewScalar"},{"buffer":0,"byteOffset":1536,"byteLength":18432,"byteStride":12,"name":"bufferViewFloatVec3"},{"buffer":0,"byteOffset":19968,"byteLength":6144,"byteStride":8,"name":"bufferViewFloatVec2"}],"buffers":[{"uri":"03.bin","byteLength":26112}],"materials":[{"pbrMetallicRoughness":{"baseColorFactor":[1.0,1.0,1.0,1.0],"baseColorTexture":{"index":0},"metallicFactor":0.0,"roughnessFactor":0.9},"emissiveFactor":[0.0,0.0,0.0],"alphaMode":"BLEND","name":"Material29"}],"textures":[{"sampler":0,"source":0,"name":"Material29_baseColor.png"}],"images":[{"uri":"Material29_baseColor.png"}],"samplers":[{"magFilter":9729,"minFilter":9987,"wrapS":10497,"wrapT":10497}]}