{"asset":{"version":"2.0","generator":"Babylon2Gltf2017","copyright":"2017 (c) BabylonJS"},"scene":0,"scenes":[{"nodes":[0]}],"nodes":[{"mesh":0,"translation":[0.0,0.0,-3.853923E-07],"rotation":[0.0,0.0,0.0,-1.0],"scale":[119.356766,119.356766,119.356766],"name":"对象023"}],"meshes":[{"primitives":[{"attributes":{"POSITION":1,"NORMAL":2,"TEXCOORD_0":3},"indices":0,"mode":4,"material":0}],"name":"对象023"}],"accessors":[{"bufferView":0,"componentType":5123,"count":345,"type":"SCALAR","name":"accessorIndices"},{"bufferView":1,"componentType":5126,"count":345,"max":[-0.0143840453,0.08543651,-0.0442987755],"min":[-0.1379539,0.0515118167,-0.138273418],"type":"VEC3","name":"accessorPositions"},{"bufferView":1,"byteOffset":4140,"componentType":5126,"count":345,"type":"VEC3","name":"accessorNormals"},{"bufferView":2,"componentType":5126,"count":345,"type":"VEC2","name":"accessorUVs"}],"bufferViews":[{"buffer":0,"byteLength":692,"name":"bufferViewScalar"},{"buffer":0,"byteOffset":692,"byteLength":8280,"byteStride":12,"name":"bufferViewFloatVec3"},{"buffer":0,"byteOffset":8972,"byteLength":2760,"byteStride":8,"name":"bufferViewFloatVec2"}],"buffers":[{"uri":"05.bin","byteLength":11732}],"materials":[{"pbrMetallicRoughness":{"baseColorFactor":[1.0,1.0,1.0,1.0],"baseColorTexture":{"index":0},"metallicFactor":0.0,"roughnessFactor":0.9},"emissiveFactor":[0.0,0.0,0.0],"alphaMode":"BLEND","name":"Material27"}],"textures":[{"sampler":0,"source":0,"name":"Material27_baseColor.png"}],"images":[{"uri":"Material27_baseColor.png"}],"samplers":[{"magFilter":9729,"minFilter":9987,"wrapS":10497,"wrapT":10497}]}