{"asset":{"version":"2.0","generator":"Babylon2Gltf2017","copyright":"2017 (c) BabylonJS"},"scene":0,"scenes":[{"nodes":[0]}],"nodes":[{"mesh":0,"translation":[0.0,0.0,-6.496189E-07],"rotation":[0.0,0.0,0.0,-1.0],"scale":[119.356766,119.356766,119.356766],"name":"对象024"}],"meshes":[{"primitives":[{"attributes":{"POSITION":1,"NORMAL":2,"TEXCOORD_0":3},"indices":0,"mode":4,"material":0}],"name":"对象024"}],"accessors":[{"bufferView":0,"componentType":5123,"count":171,"type":"SCALAR","name":"accessorIndices"},{"bufferView":1,"componentType":5126,"count":171,"max":[-0.0250591431,0.06821683,-0.0647554],"min":[-0.110823132,0.0515344366,-0.123919234],"type":"VEC3","name":"accessorPositions"},{"bufferView":1,"byteOffset":2052,"componentType":5126,"count":171,"type":"VEC3","name":"accessorNormals"},{"bufferView":2,"componentType":5126,"count":171,"type":"VEC2","name":"accessorUVs"}],"bufferViews":[{"buffer":0,"byteLength":344,"name":"bufferViewScalar"},{"buffer":0,"byteOffset":344,"byteLength":4104,"byteStride":12,"name":"bufferViewFloatVec3"},{"buffer":0,"byteOffset":4448,"byteLength":1368,"byteStride":8,"name":"bufferViewFloatVec2"}],"buffers":[{"uri":"06.bin","byteLength":5816}],"materials":[{"pbrMetallicRoughness":{"baseColorFactor":[1.0,1.0,1.0,1.0],"baseColorTexture":{"index":0},"metallicFactor":0.0,"roughnessFactor":0.9},"emissiveFactor":[0.0,0.0,0.0],"alphaMode":"BLEND","name":"Material26"}],"textures":[{"sampler":0,"source":0,"name":"Material26_baseColor.png"}],"images":[{"uri":"Material26_baseColor.png"}],"samplers":[{"magFilter":9729,"minFilter":9987,"wrapS":10497,"wrapT":10497}]}