{"asset":{"version":"2.0","generator":"Babylon2Gltf2017","copyright":"2017 (c) BabylonJS"},"scene":0,"scenes":[{"nodes":[0]}],"nodes":[{"mesh":0,"translation":[0.0,0.0,0.0],"rotation":[0.0,0.0,0.0,-1.0],"scale":[119.356766,119.356766,119.356766],"name":"对象016"}],"meshes":[{"primitives":[{"attributes":{"POSITION":1,"NORMAL":2},"indices":0,"mode":4,"material":0}],"name":"对象016"}],"accessors":[{"bufferView":0,"componentType":5123,"count":165,"type":"SCALAR","name":"accessorIndices"},{"bufferView":1,"componentType":5126,"count":165,"max":[0.0689755455,0.04903723,0.09900118],"min":[-0.136491954,0.0406186953,-0.0121524064],"type":"VEC3","name":"accessorPositions"},{"bufferView":1,"byteOffset":1980,"componentType":5126,"count":165,"type":"VEC3","name":"accessorNormals"}],"bufferViews":[{"buffer":0,"byteLength":332,"name":"bufferViewScalar"},{"buffer":0,"byteOffset":332,"byteLength":3960,"byteStride":12,"name":"bufferViewFloatVec3"}],"buffers":[{"uri":"07.bin","byteLength":4292}],"materials":[{"pbrMetallicRoughness":{"baseColorFactor":[1.0,1.0,1.0,1.0],"baseColorTexture":{"index":0},"metallicFactor":0.0,"roughnessFactor":0.9},"emissiveFactor":[0.0,0.0,0.0],"alphaMode":"BLEND","name":"Material28"}],"textures":[{"sampler":0,"source":0,"name":"Material28_baseColor.png"}],"images":[{"uri":"Material28_baseColor.png"}],"samplers":[{"magFilter":9729,"minFilter":9987,"wrapS":10497,"wrapT":10497}]}