{"asset":{"version":"2.0","generator":"Babylon2Gltf2017","copyright":"2017 (c) BabylonJS"},"scene":0,"scenes":[{"nodes":[0]}],"nodes":[{"mesh":0,"translation":[0.0,0.0,0.0],"rotation":[0.0,0.0,0.0,-1.0],"scale":[119.356766,119.356766,119.356766],"name":"对象017"}],"meshes":[{"primitives":[{"attributes":{"POSITION":1,"NORMAL":2},"indices":0,"mode":4,"material":0}],"name":"对象017"}],"accessors":[{"bufferView":0,"componentType":5123,"count":129,"type":"SCALAR","name":"accessorIndices"},{"bufferView":1,"componentType":5126,"count":129,"max":[0.05601034,0.0490372144,0.0574408658],"min":[0.0211568344,0.04785825,0.0235159639],"type":"VEC3","name":"accessorPositions"},{"bufferView":1,"byteOffset":1548,"componentType":5126,"count":129,"type":"VEC3","name":"accessorNormals"}],"bufferViews":[{"buffer":0,"byteLength":260,"name":"bufferViewScalar"},{"buffer":0,"byteOffset":260,"byteLength":3096,"byteStride":12,"name":"bufferViewFloatVec3"}],"buffers":[{"uri":"08.bin","byteLength":3356}],"materials":[{"pbrMetallicRoughness":{"baseColorFactor":[1.0,1.0,1.0,1.0],"baseColorTexture":{"index":0},"metallicFactor":0.0,"roughnessFactor":0.9},"emissiveFactor":[0.0,0.0,0.0],"alphaMode":"BLEND","name":"Material26"}],"textures":[{"sampler":0,"source":0,"name":"Material26_baseColor.png"}],"images":[{"uri":"Material26_baseColor.png"}],"samplers":[{"magFilter":9729,"minFilter":9987,"wrapS":10497,"wrapT":10497}]}