{"asset":{"version":"2.0","generator":"Babylon2Gltf2017","copyright":"2017 (c) BabylonJS"},"scene":0,"scenes":[{"nodes":[0]}],"nodes":[{"mesh":0,"translation":[0.0,0.0,0.0],"rotation":[0.0,0.0,0.0,-1.0],"scale":[119.356766,119.356766,119.356766],"name":"对象014"}],"meshes":[{"primitives":[{"attributes":{"POSITION":1,"NORMAL":2},"indices":0,"mode":4,"material":0}],"name":"对象014"}],"accessors":[{"bufferView":0,"componentType":5123,"count":225,"type":"SCALAR","name":"accessorIndices"},{"bufferView":1,"componentType":5126,"count":225,"max":[0.1068893,0.0490467325,-0.0214752723],"min":[0.0214884244,0.0154839726,-0.113274693],"type":"VEC3","name":"accessorPositions"},{"bufferView":1,"byteOffset":2700,"componentType":5126,"count":225,"type":"VEC3","name":"accessorNormals"}],"bufferViews":[{"buffer":0,"byteLength":452,"name":"bufferViewScalar"},{"buffer":0,"byteOffset":452,"byteLength":5400,"byteStride":12,"name":"bufferViewFloatVec3"}],"buffers":[{"uri":"09.bin","byteLength":5852}],"materials":[{"pbrMetallicRoughness":{"baseColorFactor":[1.0,1.0,1.0,1.0],"baseColorTexture":{"index":0},"metallicFactor":0.0,"roughnessFactor":0.9},"emissiveFactor":[0.0,0.0,0.0],"alphaMode":"BLEND","name":"Material30"}],"textures":[{"sampler":0,"source":0,"name":"Material30_baseColor.png"}],"images":[{"uri":"Material30_baseColor.png"}],"samplers":[{"magFilter":9729,"minFilter":9987,"wrapS":10497,"wrapT":10497}]}