{"asset":{"version":"2.0","generator":"Babylon2Gltf2017","copyright":"2017 (c) BabylonJS"},"scene":0,"scenes":[{"nodes":[0]}],"nodes":[{"mesh":0,"translation":[0.0,0.0,0.0],"rotation":[0.0,0.0,0.0,-1.0],"scale":[119.356766,119.356766,119.356766],"name":"对象015"}],"meshes":[{"primitives":[{"attributes":{"POSITION":1,"NORMAL":2},"indices":0,"mode":4,"material":0}],"name":"对象015"}],"accessors":[{"bufferView":0,"componentType":5123,"count":102,"type":"SCALAR","name":"accessorIndices"},{"bufferView":1,"componentType":5126,"count":102,"max":[0.0822362155,0.04561985,-0.0412717722],"min":[0.0289995,0.0421345048,-0.09844718],"type":"VEC3","name":"accessorPositions"},{"bufferView":1,"byteOffset":1224,"componentType":5126,"count":102,"type":"VEC3","name":"accessorNormals"}],"bufferViews":[{"buffer":0,"byteLength":204,"name":"bufferViewScalar"},{"buffer":0,"byteOffset":204,"byteLength":2448,"byteStride":12,"name":"bufferViewFloatVec3"}],"buffers":[{"uri":"10.bin","byteLength":2652}],"materials":[{"pbrMetallicRoughness":{"baseColorFactor":[1.0,1.0,1.0,1.0],"baseColorTexture":{"index":0},"metallicFactor":0.0,"roughnessFactor":0.9},"emissiveFactor":[0.0,0.0,0.0],"alphaMode":"BLEND","name":"Material26"}],"textures":[{"sampler":0,"source":0,"name":"Material26_baseColor.png"}],"images":[{"uri":"Material26_baseColor.png"}],"samplers":[{"magFilter":9729,"minFilter":9987,"wrapS":10497,"wrapT":10497}]}