{"asset":{"version":"2.0","generator":"Babylon2Gltf2017","copyright":"2017 (c) BabylonJS"},"scene":0,"scenes":[{"nodes":[0]}],"nodes":[{"mesh":0,"translation":[0.0,0.0,0.0],"rotation":[0.0,0.0,0.0,-1.0],"scale":[119.356766,119.356766,119.356766],"name":"对象026"}],"meshes":[{"primitives":[{"attributes":{"POSITION":1,"NORMAL":2,"TEXCOORD_0":3},"indices":0,"mode":4,"material":0}],"name":"对象026"}],"accessors":[{"bufferView":0,"componentType":5123,"count":90,"type":"SCALAR","name":"accessorIndices"},{"bufferView":1,"componentType":5126,"count":90,"max":[0.212932989,0.06345785,0.1431423],"min":[0.125789821,0.0472682528,-0.08299745],"type":"VEC3","name":"accessorPositions"},{"bufferView":1,"byteOffset":1080,"componentType":5126,"count":90,"type":"VEC3","name":"accessorNormals"},{"bufferView":2,"componentType":5126,"count":90,"type":"VEC2","name":"accessorUVs"}],"bufferViews":[{"buffer":0,"byteLength":180,"name":"bufferViewScalar"},{"buffer":0,"byteOffset":180,"byteLength":2160,"byteStride":12,"name":"bufferViewFloatVec3"},{"buffer":0,"byteOffset":2340,"byteLength":720,"byteStride":8,"name":"bufferViewFloatVec2"}],"buffers":[{"uri":"11.bin","byteLength":3060}],"materials":[{"pbrMetallicRoughness":{"baseColorFactor":[1.0,1.0,1.0,1.0],"baseColorTexture":{"index":0},"metallicFactor":0.0,"roughnessFactor":0.9},"emissiveFactor":[0.0,0.0,0.0],"alphaMode":"BLEND","name":"Material27"}],"textures":[{"sampler":0,"source":0,"name":"Material27_baseColor.png"}],"images":[{"uri":"Material27_baseColor.png"}],"samplers":[{"magFilter":9729,"minFilter":9987,"wrapS":10497,"wrapT":10497}]}