{"asset":{"version":"2.0","generator":"Babylon2Gltf2017","copyright":"2017 (c) BabylonJS"},"scene":0,"scenes":[{"nodes":[0]}],"nodes":[{"mesh":0,"translation":[0.0,0.0,0.0],"rotation":[0.0,0.0,0.0,-1.0],"scale":[1.0,1.0,1.0],"name":"GeoSphere002"}],"meshes":[{"primitives":[{"attributes":{"POSITION":1,"NORMAL":2,"TEXCOORD_0":3},"indices":0,"mode":4,"material":0}],"name":"GeoSphere002"}],"accessors":[{"bufferView":0,"componentType":5123,"count":2160,"type":"SCALAR","name":"accessorIndices"},{"bufferView":1,"componentType":5126,"count":2160,"max":[0.699149,0.703,0.702999949],"min":[-0.699148953,-0.703,-0.702999949],"type":"VEC3","name":"accessorPositions"},{"bufferView":1,"byteOffset":25920,"componentType":5126,"count":2160,"type":"VEC3","name":"accessorNormals"},{"bufferView":2,"componentType":5126,"count":2160,"type":"VEC2","name":"accessorUVs"}],"bufferViews":[{"buffer":0,"byteLength":4320,"name":"bufferViewScalar"},{"buffer":0,"byteOffset":4320,"byteLength":51840,"byteStride":12,"name":"bufferViewFloatVec3"},{"buffer":0,"byteOffset":56160,"byteLength":17280,"byteStride":8,"name":"bufferViewFloatVec2"}],"buffers":[{"uri":"fzzzwz.bin","byteLength":73440}],"materials":[{"pbrMetallicRoughness":{"baseColorFactor":[1.0,1.0,1.0,1.0],"baseColorTexture":{"index":0},"metallicFactor":0.0,"roughnessFactor":0.9},"emissiveFactor":[0.0,0.0,0.0],"alphaMode":"BLEND","name":"Material59"}],"textures":[{"sampler":0,"source":0,"name":"Material59_baseColor.png"}],"images":[{"uri":"Material59_baseColor.png"}],"samplers":[{"magFilter":9729,"minFilter":9987,"wrapS":10497,"wrapT":10497}]}