{"asset":{"version":"2.0","generator":"babylon.js glTF exporter for maya 2018 v1.2.16","copyright":"2017 (c) BabylonJS"},"extensionsUsed":["KHR_lights"],"scene":0,"scenes":[{"nodes":[0],"extensions":{"KHR_lights":{"light":0}}}],"nodes":[{"children":[1,2,3],"translation":[0.0,0.0,0.0],"rotation":[0.0,0.0,0.0,1.0],"scale":[1.0,1.0,1.0],"name":"D"},{"mesh":0,"translation":[0.0,0.0,0.0],"rotation":[0.0,0.0,0.0,1.0],"scale":[1.0,1.0,1.0],"name":"gun"},{"mesh":1,"translation":[0.0,0.0,0.0],"rotation":[0.0,0.0,0.0,1.0],"scale":[1.0,1.0,1.0],"name":"angel"},{"mesh":2,"translation":[0.0,0.0,0.0],"rotation":[0.0,0.0,0.0,1.0],"scale":[1.0,1.0,1.0],"name":"qiu"}],"meshes":[{"primitives":[{"attributes":{"POSITION":1,"NORMAL":2,"TANGENT":3,"TEXCOORD_0":4},"indices":0,"mode":4,"material":0}],"name":"gun"},{"primitives":[{"attributes":{"POSITION":6,"NORMAL":7,"TANGENT":8,"COLOR_0":9,"TEXCOORD_0":10},"indices":5,"mode":4,"material":1}],"name":"angel"},{"primitives":[{"attributes":{"POSITION":12,"NORMAL":13,"TANGENT":14,"TEXCOORD_0":15},"indices":11,"mode":4,"material":0}],"name":"qiu"}],"accessors":[{"bufferView":0,"componentType":5123,"count":432,"type":"SCALAR","name":"accessorIndices"},{"bufferView":1,"componentType":5126,"count":156,"max":[19.36182,24.12084,12.2366228],"min":[-19.36182,-9.065018,-22.37557],"type":"VEC3","name":"accessorPositions"},{"bufferView":1,"byteOffset":1872,"componentType":5126,"count":156,"type":"VEC3","name":"accessorNormals"},{"bufferView":2,"componentType":5126,"count":156,"type":"VEC4","name":"accessorTangents"},{"bufferView":3,"componentType":5126,"count":156,"type":"VEC2","name":"accessorUVs"},{"bufferView":0,"byteOffset":864,"componentType":5123,"count":4632,"type":"SCALAR","name":"accessorIndices"},{"bufferView":1,"byteOffset":3744,"componentType":5126,"count":1612,"max":[4.754702,13.1080132,7.18688059],"min":[-4.75470257,6.917843,4.243066],"type":"VEC3","name":"accessorPositions"},{"bufferView":1,"byteOffset":23088,"componentType":5126,"count":1612,"type":"VEC3","name":"accessorNormals"},{"bufferView":2,"byteOffset":2496,"componentType":5126,"count":1612,"type":"VEC4","name":"accessorTangents"},{"bufferView":2,"byteOffset":28288,"componentType":5126,"count":1612,"type":"VEC4","name":"accessorColors"},{"bufferView":3,"byteOffset":1248,"componentType":5126,"count":1612,"type":"VEC2","name":"accessorUVs"},{"bufferView":0,"byteOffset":10128,"componentType":5123,"count":11520,"type":"SCALAR","name":"accessorIndices"},{"bufferView":1,"byteOffset":42432,"componentType":5126,"count":2244,"max":[22.76276,26.19447,15.5270748],"min":[-22.7627373,-12.0907269,-25.458477],"type":"VEC3","name":"accessorPositions"},{"bufferView":1,"byteOffset":69360,"componentType":5126,"count":2244,"type":"VEC3","name":"accessorNormals"},{"bufferView":2,"byteOffset":54080,"componentType":5126,"count":2244,"type":"VEC4","name":"accessorTangents"},{"bufferView":3,"byteOffset":14144,"componentType":5126,"count":2244,"type":"VEC2","name":"accessorUVs"}],"bufferViews":[{"buffer":0,"byteLength":33168,"name":"bufferViewScalar"},{"buffer":0,"byteOffset":33168,"byteLength":96288,"byteStride":12,"name":"bufferViewFloatVec3"},{"buffer":0,"byteOffset":129456,"byteLength":89984,"byteStride":16,"name":"bufferViewFloatVec4"},{"buffer":0,"byteOffset":219440,"byteLength":32096,"byteStride":8,"name":"bufferViewFloatVec2"}],"buffers":[{"uri":"yzjt2_D.bin","byteLength":251536}],"materials":[{"pbrMetallicRoughness":{"baseColorFactor":[0.6741061,0.345977515,0.101945952,1.0],"metallicFactor":0.144177347,"roughnessFactor":0.6},"emissiveFactor":[0.195001,0.09872791,0.027128933],"alphaMode":"OPAQUE","name":"gun_bai"},{"pbrMetallicRoughness":{"baseColorFactor":[0.892718732,0.0560437553,0.0560437553,1.0],"metallicFactor":0.0,"roughnessFactor":0.6},"emissiveFactor":[0.0,0.0,0.0],"alphaMode":"OPAQUE","name":"angel_m"}],"extensions":{"KHR_lights":{"lights":[{"color":[1.0,1.0,1.0],"intensity":1.0,"type":"ambient"}]}}}