{"asset":{"version":"2.0","generator":"Babylon2Gltf2017","copyright":"2017 (c) BabylonJS"},"scene":0,"scenes":[{"nodes":[0,1,2,3,4,5,6,7]}],"nodes":[{"mesh":0,"translation":[0.0,3.05175781E-05,0.0],"rotation":[0.5000001,-0.5000001,-0.499999851,0.499999881],"scale":[1.0,1.0,1.0],"name":"2"},{"mesh":1,"translation":[0.0,3.05175781E-05,0.0],"rotation":[0.5000001,-0.5000001,-0.499999851,0.499999881],"scale":[1.0,0.99999994,0.99999994],"name":"1"},{"mesh":2,"translation":[0.0,3.05175781E-05,0.0],"rotation":[0.5000001,-0.5000001,-0.499999851,0.499999881],"scale":[1.0,0.9999999,0.9999999],"name":"对象008"},{"mesh":3,"translation":[0.0,3.05175781E-05,0.0],"rotation":[0.5000001,-0.5000001,-0.499999851,0.499999881],"scale":[1.0,0.9999999,0.9999999],"name":"对象009"},{"mesh":4,"translation":[0.0,3.05175781E-05,0.0],"rotation":[0.5000001,-0.5000001,-0.499999851,0.499999881],"scale":[1.0,0.9999999,0.9999999],"name":"对象010"},{"mesh":5,"translation":[0.0,3.05175781E-05,0.0],"rotation":[0.5000001,-0.5000001,-0.499999851,0.499999881],"scale":[1.0,0.99999994,0.99999994],"name":"对象011"},{"mesh":6,"translation":[0.0,3.05175781E-05,0.0],"rotation":[0.5000001,-0.5000001,-0.499999851,0.499999881],"scale":[1.0,0.99999994,0.99999994],"name":"对象012"},{"mesh":7,"translation":[0.0,3.05175781E-05,0.0],"rotation":[0.5000001,-0.5000001,-0.499999851,0.499999881],"scale":[1.0,0.99999994,0.99999994],"name":"对象013"}],"meshes":[{"primitives":[{"attributes":{"POSITION":1,"NORMAL":2,"TEXCOORD_0":3},"indices":0,"mode":4,"material":0}],"name":"2"},{"primitives":[{"attributes":{"POSITION":5,"NORMAL":6,"TEXCOORD_0":7},"indices":4,"mode":4,"material":1}],"name":"1"},{"primitives":[{"attributes":{"POSITION":9,"NORMAL":10,"TEXCOORD_0":11},"indices":8,"mode":4,"material":1}],"name":"对象008"},{"primitives":[{"attributes":{"POSITION":13,"NORMAL":14,"TEXCOORD_0":15},"indices":12,"mode":4,"material":1}],"name":"对象009"},{"primitives":[{"attributes":{"POSITION":17,"NORMAL":18,"TEXCOORD_0":19},"indices":16,"mode":4,"material":1}],"name":"对象010"},{"primitives":[{"attributes":{"POSITION":21,"NORMAL":22,"TEXCOORD_0":23},"indices":20,"mode":4,"material":0}],"name":"对象011"},{"primitives":[{"attributes":{"POSITION":25,"NORMAL":26,"TEXCOORD_0":27},"indices":24,"mode":4,"material":0}],"name":"对象012"},{"primitives":[{"attributes":{"POSITION":29,"NORMAL":30,"TEXCOORD_0":31},"indices":28,"mode":4,"material":0}],"name":"对象013"}],"accessors":[{"bufferView":0,"componentType":5123,"count":2592,"type":"SCALAR","name":"accessorIndices"},{"bufferView":1,"componentType":5126,"count":2592,"max":[-13.9999743,36.00001,35.99999],"min":[-35.9999733,14.00001,13.99999],"type":"VEC3","name":"accessorPositions"},{"bufferView":1,"byteOffset":31104,"componentType":5126,"count":2592,"type":"VEC3","name":"accessorNormals"},{"bufferView":2,"componentType":5126,"count":2592,"type":"VEC2","name":"accessorUVs"},{"bufferView":0,"byteOffset":5184,"componentType":5123,"count":2592,"type":"SCALAR","name":"accessorIndices"},{"bufferView":1,"byteOffset":62208,"componentType":5126,"count":2592,"max":[36.0000229,36.00001,35.99999],"min":[14.0000248,14.0000143,13.9999886],"type":"VEC3","name":"accessorPositions"},{"bufferView":1,"byteOffset":93312,"componentType":5126,"count":2592,"type":"VEC3","name":"accessorNormals"},{"bufferView":2,"byteOffset":20736,"componentType":5126,"count":2592,"type":"VEC2","name":"accessorUVs"},{"bufferView":0,"byteOffset":10368,"componentType":5123,"count":2592,"type":"SCALAR","name":"accessorIndices"},{"bufferView":1,"byteOffset":124416,"componentType":5126,"count":2592,"max":[-14.0000553,-13.9999838,35.9999924],"min":[-36.0000534,-35.99998,13.9999924],"type":"VEC3","name":"accessorPositions"},{"bufferView":1,"byteOffset":155520,"componentType":5126,"count":2592,"type":"VEC3","name":"accessorNormals"},{"bufferView":2,"byteOffset":41472,"componentType":5126,"count":2592,"type":"VEC2","name":"accessorUVs"},{"bufferView":0,"byteOffset":15552,"componentType":5123,"count":2592,"type":"SCALAR","name":"accessorIndices"},{"bufferView":1,"byteOffset":186624,"componentType":5126,"count":2592,"max":[-13.999979,36.0,-14.0000067],"min":[-35.99998,14.000001,-36.0000038],"type":"VEC3","name":"accessorPositions"},{"bufferView":1,"byteOffset":217728,"componentType":5126,"count":2592,"type":"VEC3","name":"accessorNormals"},{"bufferView":2,"byteOffset":62208,"componentType":5126,"count":2592,"type":"VEC2","name":"accessorUVs"},{"bufferView":0,"byteOffset":20736,"componentType":5123,"count":2592,"type":"SCALAR","name":"accessorIndices"},{"bufferView":1,"byteOffset":248832,"componentType":5126,"count":2592,"max":[36.0000534,-14.0000124,-14.0000067],"min":[14.0000553,-36.00001,-36.0000076],"type":"VEC3","name":"accessorPositions"},{"bufferView":1,"byteOffset":279936,"componentType":5126,"count":2592,"type":"VEC3","name":"accessorNormals"},{"bufferView":2,"byteOffset":82944,"componentType":5126,"count":2592,"type":"VEC2","name":"accessorUVs"},{"bufferView":0,"byteOffset":25920,"componentType":5123,"count":2592,"type":"SCALAR","name":"accessorIndices"},{"bufferView":1,"byteOffset":311040,"componentType":5126,"count":2592,"max":[-13.9999628,-14.0000134,-14.0000076],"min":[-35.99996,-36.00001,-36.0000038],"type":"VEC3","name":"accessorPositions"},{"bufferView":1,"byteOffset":342144,"componentType":5126,"count":2592,"type":"VEC3","name":"accessorNormals"},{"bufferView":2,"byteOffset":103680,"componentType":5126,"count":2592,"type":"VEC2","name":"accessorUVs"},{"bufferView":0,"byteOffset":31104,"componentType":5123,"count":2592,"type":"SCALAR","name":"accessorIndices"},{"bufferView":1,"byteOffset":373248,"componentType":5126,"count":2592,"max":[36.0000229,35.9999924,-14.0000076],"min":[14.0000229,13.9999933,-36.0000038],"type":"VEC3","name":"accessorPositions"},{"bufferView":1,"byteOffset":404352,"componentType":5126,"count":2592,"type":"VEC3","name":"accessorNormals"},{"bufferView":2,"byteOffset":124416,"componentType":5126,"count":2592,"type":"VEC2","name":"accessorUVs"},{"bufferView":0,"byteOffset":36288,"componentType":5123,"count":2592,"type":"SCALAR","name":"accessorIndices"},{"bufferView":1,"byteOffset":435456,"componentType":5126,"count":2592,"max":[36.00003,-13.9999561,35.9999847],"min":[14.0000267,-35.999958,13.9999866],"type":"VEC3","name":"accessorPositions"},{"bufferView":1,"byteOffset":466560,"componentType":5126,"count":2592,"type":"VEC3","name":"accessorNormals"},{"bufferView":2,"byteOffset":145152,"componentType":5126,"count":2592,"type":"VEC2","name":"accessorUVs"},{"bufferView":3,"componentType":5126,"count":21,"max":[1.6],"min":[0.0],"type":"SCALAR","name":"accessorAnimationInput"},{"bufferView":4,"componentType":5126,"count":21,"type":"VEC3","name":"accessorAnimationPositions"},{"bufferView":3,"byteOffset":84,"componentType":5126,"count":21,"max":[1.6],"min":[0.0],"type":"SCALAR","name":"accessorAnimationInput"},{"bufferView":4,"byteOffset":252,"componentType":5126,"count":21,"type":"VEC3","name":"accessorAnimationPositions"},{"bufferView":3,"byteOffset":168,"componentType":5126,"count":21,"max":[1.6],"min":[0.0],"type":"SCALAR","name":"accessorAnimationInput"},{"bufferView":4,"byteOffset":504,"componentType":5126,"count":21,"type":"VEC3","name":"accessorAnimationPositions"},{"bufferView":3,"byteOffset":252,"componentType":5126,"count":21,"max":[1.6],"min":[0.0],"type":"SCALAR","name":"accessorAnimationInput"},{"bufferView":4,"byteOffset":756,"componentType":5126,"count":21,"type":"VEC3","name":"accessorAnimationPositions"},{"bufferView":3,"byteOffset":336,"componentType":5126,"count":21,"max":[1.6],"min":[0.0],"type":"SCALAR","name":"accessorAnimationInput"},{"bufferView":4,"byteOffset":1008,"componentType":5126,"count":21,"type":"VEC3","name":"accessorAnimationPositions"},{"bufferView":3,"byteOffset":420,"componentType":5126,"count":21,"max":[1.6],"min":[0.0],"type":"SCALAR","name":"accessorAnimationInput"},{"bufferView":4,"byteOffset":1260,"componentType":5126,"count":21,"type":"VEC3","name":"accessorAnimationPositions"},{"bufferView":3,"byteOffset":504,"componentType":5126,"count":21,"max":[1.6],"min":[0.0],"type":"SCALAR","name":"accessorAnimationInput"},{"bufferView":4,"byteOffset":1512,"componentType":5126,"count":21,"type":"VEC3","name":"accessorAnimationPositions"},{"bufferView":3,"byteOffset":588,"componentType":5126,"count":21,"max":[1.6],"min":[0.0],"type":"SCALAR","name":"accessorAnimationInput"},{"bufferView":4,"byteOffset":1764,"componentType":5126,"count":21,"type":"VEC3","name":"accessorAnimationPositions"}],"bufferViews":[{"buffer":0,"byteLength":41472,"name":"bufferViewScalar"},{"buffer":0,"byteOffset":41472,"byteLength":497664,"byteStride":12,"name":"bufferViewFloatVec3"},{"buffer":0,"byteOffset":539136,"byteLength":165888,"byteStride":8,"name":"bufferViewFloatVec2"},{"buffer":0,"byteOffset":705024,"byteLength":672,"name":"bufferViewAnimationFloatScalar"},{"buffer":0,"byteOffset":705696,"byteLength":2016,"name":"bufferViewAnimationFloatVec3"}],"buffers":[{"uri":"jingbao3-B.bin","byteLength":707712}],"materials":[{"pbrMetallicRoughness":{"baseColorFactor":[1.0,1.0,1.0,1.0],"baseColorTexture":{"index":0},"metallicFactor":0.0,"roughnessFactor":0.9},"emissiveFactor":[0.0,0.0,0.0],"alphaMode":"BLEND","name":"yellow"},{"pbrMetallicRoughness":{"baseColorFactor":[1.0,1.0,1.0,1.0],"baseColorTexture":{"index":1},"metallicFactor":0.0,"roughnessFactor":0.9},"emissiveFactor":[0.0,0.0,0.0],"alphaMode":"BLEND","name":"darkblue"}],"textures":[{"sampler":0,"source":0,"name":"yellow_baseColor.png"},{"sampler":1,"source":1,"name":"darkblue_baseColor.png"}],"images":[{"uri":"yellow_baseColor.png"},{"uri":"darkblue_baseColor.png"}],"samplers":[{"magFilter":9729,"minFilter":9987,"wrapS":10497,"wrapT":10497},{"magFilter":9729,"minFilter":9987,"wrapS":10497,"wrapT":10497}],"animations":[{"channels":[{"sampler":0,"target":{"node":0,"path":"translation"}},{"sampler":1,"target":{"node":1,"path":"translation"}},{"sampler":2,"target":{"node":2,"path":"translation"}},{"sampler":3,"target":{"node":3,"path":"translation"}},{"sampler":4,"target":{"node":4,"path":"translation"}},{"sampler":5,"target":{"node":5,"path":"translation"}},{"sampler":6,"target":{"node":6,"path":"translation"}},{"sampler":7,"target":{"node":7,"path":"translation"}}],"samplers":[{"input":32,"interpolation":"LINEAR","output":33},{"input":34,"interpolation":"LINEAR","output":35},{"input":36,"interpolation":"LINEAR","output":37},{"input":38,"interpolation":"LINEAR","output":39},{"input":40,"interpolation":"LINEAR","output":41},{"input":42,"interpolation":"LINEAR","output":43},{"input":44,"interpolation":"LINEAR","output":45},{"input":46,"interpolation":"LINEAR","output":47}]}]}