{"asset":{"version":"2.0","generator":"Babylon2Gltf2017","copyright":"2017 (c) BabylonJS"},"scene":0,"scenes":[{"nodes":[0]}],"nodes":[{"children":[1,2],"mesh":0,"translation":[0.0,0.0,-1.14440945E-05],"rotation":[-4.214684E-08,4.214684E-08,0.70710665,-0.7071069],"scale":[1.0,1.0,1.0],"name":"2"},{"mesh":1,"translation":[-0.000122070313,-3.570143E-06,1.14441018E-05],"rotation":[-0.50000006,-0.50000006,-0.499999821,-0.50000006],"scale":[1.0,1.0,1.0],"name":"3"},{"mesh":2,"translation":[-6.10351563E-05,-5.167668E-06,-9.094947E-13],"rotation":[-7.10542736E-15,4.23516474E-22,3.00926428E-36,-1.0],"scale":[1.0,1.0,1.0],"name":"1"}],"meshes":[{"primitives":[{"attributes":{"POSITION":1,"NORMAL":2,"TEXCOORD_0":3},"indices":0,"mode":4,"material":0}],"name":"2"},{"primitives":[{"attributes":{"POSITION":5,"NORMAL":6,"TEXCOORD_0":7},"indices":4,"mode":4,"material":1}],"name":"3"},{"primitives":[{"attributes":{"POSITION":9,"NORMAL":10,"TEXCOORD_0":11},"indices":8,"mode":4,"material":2}],"name":"1"}],"accessors":[{"bufferView":0,"componentType":5123,"count":3456,"type":"SCALAR","name":"accessorIndices"},{"bufferView":1,"componentType":5126,"count":3456,"max":[25.0000267,25.0000648,25.0000172],"min":[-25.0000229,-25.00007,-25.0000286],"type":"VEC3","name":"accessorPositions"},{"bufferView":1,"byteOffset":41472,"componentType":5126,"count":3456,"type":"VEC3","name":"accessorNormals"},{"bufferView":2,"componentType":5126,"count":3456,"type":"VEC2","name":"accessorUVs"},{"bufferView":0,"byteOffset":6912,"componentType":5123,"count":2880,"type":"SCALAR","name":"accessorIndices"},{"bufferView":1,"byteOffset":82944,"componentType":5126,"count":2880,"max":[11.0,11.0,11.0],"min":[-11.0,-11.0,-11.0],"type":"VEC3","name":"accessorPositions"},{"bufferView":1,"byteOffset":117504,"componentType":5126,"count":2880,"type":"VEC3","name":"accessorNormals"},{"bufferView":2,"byteOffset":27648,"componentType":5126,"count":2880,"type":"VEC2","name":"accessorUVs"},{"bufferView":0,"byteOffset":12672,"componentType":5123,"count":9720,"type":"SCALAR","name":"accessorIndices"},{"bufferView":1,"byteOffset":152064,"componentType":5126,"count":9720,"max":[25.0000076,25.0000172,25.0000286],"min":[-25.0000248,-25.0000248,-25.00001],"type":"VEC3","name":"accessorPositions"},{"bufferView":1,"byteOffset":268704,"componentType":5126,"count":9720,"type":"VEC3","name":"accessorNormals"},{"bufferView":2,"byteOffset":50688,"componentType":5126,"count":9720,"type":"VEC2","name":"accessorUVs"}],"bufferViews":[{"buffer":0,"byteLength":32112,"name":"bufferViewScalar"},{"buffer":0,"byteOffset":32112,"byteLength":385344,"byteStride":12,"name":"bufferViewFloatVec3"},{"buffer":0,"byteOffset":417456,"byteLength":128448,"byteStride":8,"name":"bufferViewFloatVec2"}],"buffers":[{"uri":"jingbao1-D.bin","byteLength":545904}],"materials":[{"pbrMetallicRoughness":{"baseColorFactor":[1.0,1.0,1.0,1.0],"baseColorTexture":{"index":0},"metallicFactor":0.0,"roughnessFactor":0.9},"emissiveFactor":[0.0,0.0,0.0],"alphaMode":"BLEND","name":"yellow"},{"pbrMetallicRoughness":{"baseColorFactor":[1.0,1.0,1.0,1.0],"baseColorTexture":{"index":1},"metallicFactor":0.0,"roughnessFactor":0.9},"emissiveFactor":[0.0,0.0,0.0],"alphaMode":"BLEND","name":"blue"},{"pbrMetallicRoughness":{"baseColorFactor":[1.0,1.0,1.0,1.0],"baseColorTexture":{"index":2},"metallicFactor":0.0,"roughnessFactor":0.9},"emissiveFactor":[0.0,0.0,0.0],"alphaMode":"BLEND","name":"darkblue"}],"textures":[{"sampler":0,"source":0,"name":"yellow_baseColor.png"},{"sampler":1,"source":1,"name":"blue_baseColor.png"},{"sampler":2,"source":2,"name":"darkblue_baseColor.png"}],"images":[{"uri":"yellow_baseColor.png"},{"uri":"blue_baseColor.png"},{"uri":"darkblue_baseColor.png"}],"samplers":[{"magFilter":9729,"minFilter":9987,"wrapS":10497,"wrapT":10497},{"magFilter":9729,"minFilter":9987,"wrapS":10497,"wrapT":10497},{"magFilter":9729,"minFilter":9987,"wrapS":10497,"wrapT":10497}]}