{"asset":{"version":"2.0","generator":"Babylon2Gltf2017","copyright":"2017 (c) BabylonJS"},"scene":0,"scenes":[{"nodes":[0]}],"nodes":[{"children":[1],"mesh":0,"translation":[0.0,0.0,0.0],"rotation":[-0.7071068,0.0,0.0,-0.7071067],"scale":[1.0,1.0,1.0],"name":"2"},{"mesh":1,"translation":[0.0,2.27373675E-13,-4.54747351E-13],"rotation":[0.0,0.0,0.0,-1.0],"scale":[1.0,1.0,1.0],"name":"1"}],"meshes":[{"primitives":[{"attributes":{"POSITION":1,"NORMAL":2,"TEXCOORD_0":3},"indices":0,"mode":4,"material":0}],"name":"2"},{"primitives":[{"attributes":{"POSITION":5,"NORMAL":6,"TEXCOORD_0":7},"indices":4,"mode":4,"material":1}],"name":"1"}],"accessors":[{"bufferView":0,"componentType":5123,"count":2880,"type":"SCALAR","name":"accessorIndices"},{"bufferView":1,"componentType":5126,"count":2880,"max":[11.0,11.0,11.0],"min":[-11.0,-11.0,-11.0],"type":"VEC3","name":"accessorPositions"},{"bufferView":1,"byteOffset":34560,"componentType":5126,"count":2880,"type":"VEC3","name":"accessorNormals"},{"bufferView":2,"componentType":5126,"count":2880,"type":"VEC2","name":"accessorUVs"},{"bufferView":0,"byteOffset":5760,"componentType":5123,"count":24192,"type":"SCALAR","name":"accessorIndices"},{"bufferView":1,"byteOffset":69120,"componentType":5126,"count":24192,"max":[36.0,36.0000076,36.0000038],"min":[-36.0002441,-36.0000153,-36.0000076],"type":"VEC3","name":"accessorPositions"},{"bufferView":1,"byteOffset":359424,"componentType":5126,"count":24192,"type":"VEC3","name":"accessorNormals"},{"bufferView":2,"byteOffset":23040,"componentType":5126,"count":24192,"type":"VEC2","name":"accessorUVs"}],"bufferViews":[{"buffer":0,"byteLength":54144,"name":"bufferViewScalar"},{"buffer":0,"byteOffset":54144,"byteLength":649728,"byteStride":12,"name":"bufferViewFloatVec3"},{"buffer":0,"byteOffset":703872,"byteLength":216576,"byteStride":8,"name":"bufferViewFloatVec2"}],"buffers":[{"uri":"jingbao2-A.bin","byteLength":920448}],"materials":[{"pbrMetallicRoughness":{"baseColorFactor":[1.0,1.0,1.0,1.0],"baseColorTexture":{"index":0},"metallicFactor":0.0,"roughnessFactor":0.9},"emissiveFactor":[0.0,0.0,0.0],"alphaMode":"BLEND","name":"yellow"},{"pbrMetallicRoughness":{"baseColorFactor":[1.0,1.0,1.0,1.0],"baseColorTexture":{"index":1},"metallicFactor":0.0,"roughnessFactor":0.9},"emissiveFactor":[0.0,0.0,0.0],"alphaMode":"BLEND","name":"darkblue"}],"textures":[{"sampler":0,"source":0,"name":"yellow_baseColor.png"},{"sampler":1,"source":1,"name":"darkblue_baseColor.png"}],"images":[{"uri":"yellow_baseColor.png"},{"uri":"darkblue_baseColor.png"}],"samplers":[{"magFilter":9729,"minFilter":9987,"wrapS":10497,"wrapT":10497},{"magFilter":9729,"minFilter":9987,"wrapS":10497,"wrapT":10497}]}