{"asset":{"version":"2.0","generator":"Babylon2Gltf2017","copyright":"2017 (c) BabylonJS"},"scene":0,"scenes":[{"nodes":[0]}],"nodes":[{"children":[1,2],"mesh":0,"translation":[0.0,0.0,0.0],"rotation":[-0.7071068,0.0,0.0,-0.7071067],"scale":[1.0,1.0,1.0],"name":"2"},{"mesh":1,"translation":[0.0,0.0,0.0],"rotation":[0.0,0.0,0.0,-1.0],"scale":[1.0,1.0,1.0],"name":"1"},{"mesh":2,"translation":[0.0,0.0,0.0],"rotation":[0.0,0.0,0.0,-1.0],"scale":[1.0,1.0,1.0],"name":"3"}],"meshes":[{"primitives":[{"attributes":{"POSITION":1,"NORMAL":2,"TEXCOORD_0":3},"indices":0,"mode":4,"material":0}],"name":"2"},{"primitives":[{"attributes":{"POSITION":5,"NORMAL":6,"TEXCOORD_0":7},"indices":4,"mode":4,"material":1}],"name":"1"},{"primitives":[{"attributes":{"POSITION":9,"NORMAL":10,"TEXCOORD_0":11},"indices":8,"mode":4,"material":2}],"name":"3"}],"accessors":[{"bufferView":0,"componentType":5123,"count":23040,"type":"SCALAR","name":"accessorIndices"},{"bufferView":1,"componentType":5126,"count":23040,"max":[36.0,36.0000076,36.0000076],"min":[-36.0001221,-36.0000153,-36.0000076],"type":"VEC3","name":"accessorPositions"},{"bufferView":1,"byteOffset":276480,"componentType":5126,"count":23040,"type":"VEC3","name":"accessorNormals"},{"bufferView":2,"componentType":5126,"count":23040,"type":"VEC2","name":"accessorUVs"},{"bufferView":0,"byteOffset":46080,"componentType":5123,"count":18432,"type":"SCALAR","name":"accessorIndices"},{"bufferView":1,"byteOffset":552960,"componentType":5126,"count":18432,"max":[36.0,36.0000076,36.0000076],"min":[-36.0,-36.0,-36.0000076],"type":"VEC3","name":"accessorPositions"},{"bufferView":1,"byteOffset":774144,"componentType":5126,"count":18432,"type":"VEC3","name":"accessorNormals"},{"bufferView":2,"byteOffset":184320,"componentType":5126,"count":18432,"type":"VEC2","name":"accessorUVs"},{"bufferView":0,"byteOffset":82944,"componentType":5123,"count":2880,"type":"SCALAR","name":"accessorIndices"},{"bufferView":1,"byteOffset":995328,"componentType":5126,"count":2880,"max":[11.0,11.0,11.0],"min":[-11.0,-11.0,-11.0],"type":"VEC3","name":"accessorPositions"},{"bufferView":1,"byteOffset":1029888,"componentType":5126,"count":2880,"type":"VEC3","name":"accessorNormals"},{"bufferView":2,"byteOffset":331776,"componentType":5126,"count":2880,"type":"VEC2","name":"accessorUVs"}],"bufferViews":[{"buffer":0,"byteLength":88704,"name":"bufferViewScalar"},{"buffer":0,"byteOffset":88704,"byteLength":1064448,"byteStride":12,"name":"bufferViewFloatVec3"},{"buffer":0,"byteOffset":1153152,"byteLength":354816,"byteStride":8,"name":"bufferViewFloatVec2"}],"buffers":[{"uri":"jingbao2-C.bin","byteLength":1507968}],"materials":[{"pbrMetallicRoughness":{"baseColorFactor":[1.0,1.0,1.0,1.0],"baseColorTexture":{"index":0},"metallicFactor":0.0,"roughnessFactor":0.9},"emissiveFactor":[0.0,0.0,0.0],"alphaMode":"BLEND","name":"yellow"},{"pbrMetallicRoughness":{"baseColorFactor":[1.0,1.0,1.0,1.0],"baseColorTexture":{"index":1},"metallicFactor":0.0,"roughnessFactor":0.9},"emissiveFactor":[0.0,0.0,0.0],"alphaMode":"BLEND","name":"darkblue"},{"pbrMetallicRoughness":{"baseColorFactor":[1.0,1.0,1.0,1.0],"baseColorTexture":{"index":2},"metallicFactor":0.0,"roughnessFactor":0.9},"emissiveFactor":[0.0,0.0,0.0],"alphaMode":"BLEND","name":"blue"}],"textures":[{"sampler":0,"source":0,"name":"yellow_baseColor.png"},{"sampler":1,"source":1,"name":"darkblue_baseColor.png"},{"sampler":2,"source":2,"name":"blue_baseColor.png"}],"images":[{"uri":"yellow_baseColor.png"},{"uri":"darkblue_baseColor.png"},{"uri":"blue_baseColor.png"}],"samplers":[{"magFilter":9729,"minFilter":9987,"wrapS":10497,"wrapT":10497},{"magFilter":9729,"minFilter":9987,"wrapS":10497,"wrapT":10497},{"magFilter":9729,"minFilter":9987,"wrapS":10497,"wrapT":10497}]}