{"asset":{"version":"2.0","generator":"Babylon2Gltf2017","copyright":"2017 (c) BabylonJS"},"scene":0,"scenes":[{"nodes":[0,1,2,3,4,5,6,7,8,9,10,11,12,13]}],"nodes":[{"mesh":0,"translation":[0.0,0.0,0.0],"rotation":[0.5000001,-0.5000001,-0.499999851,0.499999881],"scale":[1.0,0.9999999,0.9999999],"name":"2"},{"mesh":1,"translation":[0.0,0.0,0.0],"rotation":[0.5000001,-0.5000001,-0.499999851,0.499999881],"scale":[1.0,0.9999998,0.9999998],"name":"1"},{"mesh":2,"translation":[0.0,0.0,0.0],"rotation":[0.5000001,-0.5000001,-0.499999851,0.499999881],"scale":[1.0,0.999999762,0.999999762],"name":"1"},{"mesh":3,"translation":[0.0,0.0,0.0],"rotation":[0.5000001,-0.5000001,-0.499999851,0.499999881],"scale":[1.0,0.999999762,0.999999762],"name":"1"},{"mesh":4,"translation":[0.0,0.0,0.0],"rotation":[0.5000001,-0.5000001,-0.499999851,0.499999881],"scale":[1.0,0.999999762,0.999999762],"name":"1"},{"mesh":5,"translation":[0.0,0.0,0.0],"rotation":[0.5000001,-0.5000001,-0.499999851,0.499999881],"scale":[1.0,0.999999762,0.999999762],"name":"1"},{"mesh":6,"translation":[0.0,0.0,0.0],"rotation":[0.5000001,-0.5000001,-0.499999851,0.499999881],"scale":[1.0,0.999999762,0.999999762],"name":"1"},{"mesh":7,"translation":[0.0,0.0,0.0],"rotation":[0.5000001,-0.5000001,-0.499999851,0.499999881],"scale":[1.0,0.9999998,0.9999998],"name":"2"},{"mesh":8,"translation":[0.0,0.0,0.0],"rotation":[0.5000001,-0.5000001,-0.499999851,0.499999881],"scale":[1.0,0.9999998,0.9999998],"name":"2"},{"mesh":9,"translation":[0.0,0.0,0.0],"rotation":[0.5000001,-0.5000001,-0.499999851,0.499999881],"scale":[1.0,0.9999998,0.9999998],"name":"2"},{"mesh":10,"translation":[0.0,0.0,0.0],"rotation":[0.5000001,-0.5000001,-0.499999851,0.499999881],"scale":[1.0,0.9999998,0.9999998],"name":"2"},{"mesh":11,"translation":[0.0,0.0,0.0],"rotation":[0.5000001,-0.5000001,-0.499999851,0.499999881],"scale":[1.0,0.9999998,0.9999998],"name":"2"},{"mesh":12,"translation":[0.0,0.0,0.0],"rotation":[0.5000001,-0.5000001,-0.499999851,0.499999881],"scale":[1.0,0.9999998,0.9999998],"name":"2"},{"mesh":13,"translation":[0.0,0.0,0.0],"rotation":[0.5000001,-0.5000001,-0.499999851,0.499999881],"scale":[1.0,0.99999994,0.99999994],"name":"004"}],"meshes":[{"primitives":[{"attributes":{"POSITION":1,"NORMAL":2,"TEXCOORD_0":3},"indices":0,"mode":4,"material":0}],"name":"2"},{"primitives":[{"attributes":{"POSITION":5,"NORMAL":6,"TEXCOORD_0":7},"indices":4,"mode":4,"material":1}],"name":"1"},{"primitives":[{"attributes":{"POSITION":9,"NORMAL":10,"TEXCOORD_0":11},"indices":8,"mode":4,"material":1}],"name":"1"},{"primitives":[{"attributes":{"POSITION":13,"NORMAL":14,"TEXCOORD_0":15},"indices":12,"mode":4,"material":1}],"name":"1"},{"primitives":[{"attributes":{"POSITION":17,"NORMAL":18,"TEXCOORD_0":19},"indices":16,"mode":4,"material":1}],"name":"1"},{"primitives":[{"attributes":{"POSITION":21,"NORMAL":22,"TEXCOORD_0":23},"indices":20,"mode":4,"material":1}],"name":"1"},{"primitives":[{"attributes":{"POSITION":25,"NORMAL":26,"TEXCOORD_0":27},"indices":24,"mode":4,"material":1}],"name":"1"},{"primitives":[{"attributes":{"POSITION":29,"NORMAL":30,"TEXCOORD_0":31},"indices":28,"mode":4,"material":0}],"name":"2"},{"primitives":[{"attributes":{"POSITION":33,"NORMAL":34,"TEXCOORD_0":35},"indices":32,"mode":4,"material":0}],"name":"2"},{"primitives":[{"attributes":{"POSITION":37,"NORMAL":38,"TEXCOORD_0":39},"indices":36,"mode":4,"material":0}],"name":"2"},{"primitives":[{"attributes":{"POSITION":41,"NORMAL":42,"TEXCOORD_0":43},"indices":40,"mode":4,"material":0}],"name":"2"},{"primitives":[{"attributes":{"POSITION":45,"NORMAL":46,"TEXCOORD_0":47},"indices":44,"mode":4,"material":0}],"name":"2"},{"primitives":[{"attributes":{"POSITION":49,"NORMAL":50,"TEXCOORD_0":51},"indices":48,"mode":4,"material":0}],"name":"2"},{"primitives":[{"attributes":{"POSITION":53,"NORMAL":54,"TEXCOORD_0":55},"indices":52,"mode":4,"material":0}],"name":"004"}],"accessors":[{"bufferView":0,"componentType":5123,"count":2592,"type":"SCALAR","name":"accessorIndices"},{"bufferView":1,"componentType":5126,"count":2592,"max":[-14.0000553,-13.9999838,36.0000038],"min":[-36.0000534,-35.99998,14.0000057],"type":"VEC3","name":"accessorPositions"},{"bufferView":1,"byteOffset":31104,"componentType":5126,"count":2592,"type":"VEC3","name":"accessorNormals"},{"bufferView":2,"componentType":5126,"count":2592,"type":"VEC2","name":"accessorUVs"},{"bufferView":0,"byteOffset":5184,"componentType":5123,"count":1530,"type":"SCALAR","name":"accessorIndices"},{"bufferView":1,"byteOffset":62208,"componentType":5126,"count":1530,"max":[11.0000219,10.9999924,-24.9999866],"min":[-10.9999752,-11.0000057,-35.9999962],"type":"VEC3","name":"accessorPositions"},{"bufferView":1,"byteOffset":80568,"componentType":5126,"count":1530,"type":"VEC3","name":"accessorNormals"},{"bufferView":2,"byteOffset":20736,"componentType":5126,"count":1530,"type":"VEC2","name":"accessorUVs"},{"bufferView":0,"byteOffset":8244,"componentType":5123,"count":1530,"type":"SCALAR","name":"accessorIndices"},{"bufferView":1,"byteOffset":98928,"componentType":5126,"count":1530,"max":[-24.99997,11.0000114,11.0000038],"min":[-35.99999,-10.9999886,-11.000001],"type":"VEC3","name":"accessorPositions"},{"bufferView":1,"byteOffset":117288,"componentType":5126,"count":1530,"type":"VEC3","name":"accessorNormals"},{"bufferView":2,"byteOffset":32976,"componentType":5126,"count":1530,"type":"VEC2","name":"accessorUVs"},{"bufferView":0,"byteOffset":11304,"componentType":5123,"count":1530,"type":"SCALAR","name":"accessorIndices"},{"bufferView":1,"byteOffset":135648,"componentType":5126,"count":1530,"max":[11.0000334,36.0000038,10.9999924],"min":[-10.9999657,24.9999943,-11.0000076],"type":"VEC3","name":"accessorPositions"},{"bufferView":1,"byteOffset":154008,"componentType":5126,"count":1530,"type":"VEC3","name":"accessorNormals"},{"bufferView":2,"byteOffset":45216,"componentType":5126,"count":1530,"type":"VEC2","name":"accessorUVs"},{"bufferView":0,"byteOffset":14364,"componentType":5123,"count":1530,"type":"SCALAR","name":"accessorIndices"},{"bufferView":1,"byteOffset":172368,"componentType":5126,"count":1530,"max":[36.00003,11.0000057,10.9999981],"min":[25.0000248,-10.9999943,-11.0],"type":"VEC3","name":"accessorPositions"},{"bufferView":1,"byteOffset":190728,"componentType":5126,"count":1530,"type":"VEC3","name":"accessorNormals"},{"bufferView":2,"byteOffset":57456,"componentType":5126,"count":1530,"type":"VEC2","name":"accessorUVs"},{"bufferView":0,"byteOffset":17424,"componentType":5123,"count":1530,"type":"SCALAR","name":"accessorIndices"},{"bufferView":1,"byteOffset":209088,"componentType":5126,"count":1530,"max":[11.0000238,11.0000048,35.9999924],"min":[-10.9999762,-10.9999924,24.9999886],"type":"VEC3","name":"accessorPositions"},{"bufferView":1,"byteOffset":227448,"componentType":5126,"count":1530,"type":"VEC3","name":"accessorNormals"},{"bufferView":2,"byteOffset":69696,"componentType":5126,"count":1530,"type":"VEC2","name":"accessorUVs"},{"bufferView":0,"byteOffset":20484,"componentType":5123,"count":1530,"type":"SCALAR","name":"accessorIndices"},{"bufferView":1,"byteOffset":245808,"componentType":5126,"count":1530,"max":[11.0000086,-24.9999866,11.0000057],"min":[-10.9999914,-35.9999924,-10.9999943],"type":"VEC3","name":"accessorPositions"},{"bufferView":1,"byteOffset":264168,"componentType":5126,"count":1530,"type":"VEC3","name":"accessorNormals"},{"bufferView":2,"byteOffset":81936,"componentType":5126,"count":1530,"type":"VEC2","name":"accessorUVs"},{"bufferView":0,"byteOffset":23544,"componentType":5123,"count":2592,"type":"SCALAR","name":"accessorIndices"},{"bufferView":1,"byteOffset":282528,"componentType":5126,"count":2592,"max":[-13.9999628,-14.0000134,-13.9999914],"min":[-35.99996,-36.00001,-35.99999],"type":"VEC3","name":"accessorPositions"},{"bufferView":1,"byteOffset":313632,"componentType":5126,"count":2592,"type":"VEC3","name":"accessorNormals"},{"bufferView":2,"byteOffset":94176,"componentType":5126,"count":2592,"type":"VEC2","name":"accessorUVs"},{"bufferView":0,"byteOffset":28728,"componentType":5123,"count":2592,"type":"SCALAR","name":"accessorIndices"},{"bufferView":1,"byteOffset":344736,"componentType":5126,"count":2592,"max":[36.0000534,-14.0000048,-13.9999933],"min":[14.0000553,-36.0,-35.9999924],"type":"VEC3","name":"accessorPositions"},{"bufferView":1,"byteOffset":375840,"componentType":5126,"count":2592,"type":"VEC3","name":"accessorNormals"},{"bufferView":2,"byteOffset":114912,"componentType":5126,"count":2592,"type":"VEC2","name":"accessorUVs"},{"bufferView":0,"byteOffset":33912,"componentType":5123,"count":2592,"type":"SCALAR","name":"accessorIndices"},{"bufferView":1,"byteOffset":406944,"componentType":5126,"count":2592,"max":[-13.9999771,36.0,-14.1356421],"min":[-35.9999771,14.0000029,-36.1356354],"type":"VEC3","name":"accessorPositions"},{"bufferView":1,"byteOffset":438048,"componentType":5126,"count":2592,"type":"VEC3","name":"accessorNormals"},{"bufferView":2,"byteOffset":135648,"componentType":5126,"count":2592,"type":"VEC2","name":"accessorUVs"},{"bufferView":0,"byteOffset":39096,"componentType":5123,"count":2592,"type":"SCALAR","name":"accessorIndices"},{"bufferView":1,"byteOffset":469152,"componentType":5126,"count":2592,"max":[36.0000229,35.99999,-14.0000076],"min":[14.0000229,13.9999952,-36.0000038],"type":"VEC3","name":"accessorPositions"},{"bufferView":1,"byteOffset":500256,"componentType":5126,"count":2592,"type":"VEC3","name":"accessorNormals"},{"bufferView":2,"byteOffset":156384,"componentType":5126,"count":2592,"type":"VEC2","name":"accessorUVs"},{"bufferView":0,"byteOffset":44280,"componentType":5123,"count":2592,"type":"SCALAR","name":"accessorIndices"},{"bufferView":1,"byteOffset":531360,"componentType":5126,"count":2592,"max":[36.0000229,36.00001,35.9999847],"min":[14.0000248,14.0000143,13.99999],"type":"VEC3","name":"accessorPositions"},{"bufferView":1,"byteOffset":562464,"componentType":5126,"count":2592,"type":"VEC3","name":"accessorNormals"},{"bufferView":2,"byteOffset":177120,"componentType":5126,"count":2592,"type":"VEC2","name":"accessorUVs"},{"bufferView":0,"byteOffset":49464,"componentType":5123,"count":2592,"type":"SCALAR","name":"accessorIndices"},{"bufferView":1,"byteOffset":593568,"componentType":5126,"count":2592,"max":[-13.9999743,36.0000076,35.9999847],"min":[-35.9999733,14.0000105,13.9999886],"type":"VEC3","name":"accessorPositions"},{"bufferView":1,"byteOffset":624672,"componentType":5126,"count":2592,"type":"VEC3","name":"accessorNormals"},{"bufferView":2,"byteOffset":197856,"componentType":5126,"count":2592,"type":"VEC2","name":"accessorUVs"},{"bufferView":0,"byteOffset":54648,"componentType":5123,"count":2592,"type":"SCALAR","name":"accessorIndices"},{"bufferView":1,"byteOffset":655776,"componentType":5126,"count":2592,"max":[36.00003,-13.9999561,35.9999847],"min":[14.0000267,-35.999958,13.9999866],"type":"VEC3","name":"accessorPositions"},{"bufferView":1,"byteOffset":686880,"componentType":5126,"count":2592,"type":"VEC3","name":"accessorNormals"},{"bufferView":2,"byteOffset":218592,"componentType":5126,"count":2592,"type":"VEC2","name":"accessorUVs"},{"bufferView":3,"componentType":5126,"count":3,"max":[1.6],"min":[0.0],"type":"SCALAR","name":"accessorAnimationInput"},{"bufferView":4,"componentType":5126,"count":3,"type":"VEC3","name":"accessorAnimationPositions"},{"bufferView":3,"byteOffset":12,"componentType":5126,"count":3,"max":[1.6],"min":[0.0],"type":"SCALAR","name":"accessorAnimationInput"},{"bufferView":4,"byteOffset":36,"componentType":5126,"count":3,"type":"VEC3","name":"accessorAnimationPositions"},{"bufferView":3,"byteOffset":24,"componentType":5126,"count":3,"max":[1.6],"min":[0.0],"type":"SCALAR","name":"accessorAnimationInput"},{"bufferView":4,"byteOffset":72,"componentType":5126,"count":3,"type":"VEC3","name":"accessorAnimationPositions"},{"bufferView":3,"byteOffset":36,"componentType":5126,"count":3,"max":[1.6],"min":[0.0],"type":"SCALAR","name":"accessorAnimationInput"},{"bufferView":4,"byteOffset":108,"componentType":5126,"count":3,"type":"VEC3","name":"accessorAnimationPositions"},{"bufferView":3,"byteOffset":48,"componentType":5126,"count":3,"max":[1.6],"min":[0.0],"type":"SCALAR","name":"accessorAnimationInput"},{"bufferView":4,"byteOffset":144,"componentType":5126,"count":3,"type":"VEC3","name":"accessorAnimationPositions"},{"bufferView":3,"byteOffset":60,"componentType":5126,"count":3,"max":[1.6],"min":[0.0],"type":"SCALAR","name":"accessorAnimationInput"},{"bufferView":4,"byteOffset":180,"componentType":5126,"count":3,"type":"VEC3","name":"accessorAnimationPositions"},{"bufferView":3,"byteOffset":72,"componentType":5126,"count":3,"max":[1.6],"min":[0.0],"type":"SCALAR","name":"accessorAnimationInput"},{"bufferView":4,"byteOffset":216,"componentType":5126,"count":3,"type":"VEC3","name":"accessorAnimationPositions"},{"bufferView":3,"byteOffset":84,"componentType":5126,"count":3,"max":[1.6],"min":[0.0],"type":"SCALAR","name":"accessorAnimationInput"},{"bufferView":4,"byteOffset":252,"componentType":5126,"count":3,"type":"VEC3","name":"accessorAnimationPositions"},{"bufferView":3,"byteOffset":96,"componentType":5126,"count":3,"max":[1.6],"min":[0.0],"type":"SCALAR","name":"accessorAnimationInput"},{"bufferView":4,"byteOffset":288,"componentType":5126,"count":3,"type":"VEC3","name":"accessorAnimationPositions"},{"bufferView":3,"byteOffset":108,"componentType":5126,"count":3,"max":[1.6],"min":[0.0],"type":"SCALAR","name":"accessorAnimationInput"},{"bufferView":4,"byteOffset":324,"componentType":5126,"count":3,"type":"VEC3","name":"accessorAnimationPositions"},{"bufferView":3,"byteOffset":120,"componentType":5126,"count":3,"max":[1.6],"min":[0.0],"type":"SCALAR","name":"accessorAnimationInput"},{"bufferView":4,"byteOffset":360,"componentType":5126,"count":3,"type":"VEC3","name":"accessorAnimationPositions"},{"bufferView":3,"byteOffset":132,"componentType":5126,"count":3,"max":[1.6],"min":[0.0],"type":"SCALAR","name":"accessorAnimationInput"},{"bufferView":4,"byteOffset":396,"componentType":5126,"count":3,"type":"VEC3","name":"accessorAnimationPositions"},{"bufferView":3,"byteOffset":144,"componentType":5126,"count":3,"max":[1.6],"min":[0.0],"type":"SCALAR","name":"accessorAnimationInput"},{"bufferView":4,"byteOffset":432,"componentType":5126,"count":3,"type":"VEC3","name":"accessorAnimationPositions"},{"bufferView":3,"byteOffset":156,"componentType":5126,"count":3,"max":[1.6],"min":[0.0],"type":"SCALAR","name":"accessorAnimationInput"},{"bufferView":4,"byteOffset":468,"componentType":5126,"count":3,"type":"VEC3","name":"accessorAnimationPositions"}],"bufferViews":[{"buffer":0,"byteLength":59832,"name":"bufferViewScalar"},{"buffer":0,"byteOffset":59832,"byteLength":717984,"byteStride":12,"name":"bufferViewFloatVec3"},{"buffer":0,"byteOffset":777816,"byteLength":239328,"byteStride":8,"name":"bufferViewFloatVec2"},{"buffer":0,"byteOffset":1017144,"byteLength":168,"name":"bufferViewAnimationFloatScalar"},{"buffer":0,"byteOffset":1017312,"byteLength":504,"name":"bufferViewAnimationFloatVec3"}],"buffers":[{"uri":"jingbao3-C.bin","byteLength":1017816}],"materials":[{"pbrMetallicRoughness":{"baseColorFactor":[1.0,1.0,1.0,1.0],"baseColorTexture":{"index":0},"metallicFactor":0.0,"roughnessFactor":0.9},"emissiveFactor":[0.0,0.0,0.0],"alphaMode":"BLEND","name":"yellow"},{"pbrMetallicRoughness":{"baseColorFactor":[1.0,1.0,1.0,1.0],"baseColorTexture":{"index":1},"metallicFactor":0.0,"roughnessFactor":0.9},"emissiveFactor":[0.0,0.0,0.0],"alphaMode":"BLEND","name":"darkblue"}],"textures":[{"sampler":0,"source":0,"name":"yellow_baseColor.png"},{"sampler":1,"source":1,"name":"darkblue_baseColor.png"}],"images":[{"uri":"yellow_baseColor.png"},{"uri":"darkblue_baseColor.png"}],"samplers":[{"magFilter":9729,"minFilter":9987,"wrapS":10497,"wrapT":10497},{"magFilter":9729,"minFilter":9987,"wrapS":10497,"wrapT":10497}],"animations":[{"channels":[{"sampler":0,"target":{"node":0,"path":"translation"}},{"sampler":1,"target":{"node":1,"path":"translation"}},{"sampler":2,"target":{"node":2,"path":"translation"}},{"sampler":3,"target":{"node":3,"path":"translation"}},{"sampler":4,"target":{"node":4,"path":"translation"}},{"sampler":5,"target":{"node":5,"path":"translation"}},{"sampler":6,"target":{"node":6,"path":"translation"}},{"sampler":7,"target":{"node":7,"path":"translation"}},{"sampler":8,"target":{"node":8,"path":"translation"}},{"sampler":9,"target":{"node":9,"path":"translation"}},{"sampler":10,"target":{"node":10,"path":"translation"}},{"sampler":11,"target":{"node":11,"path":"translation"}},{"sampler":12,"target":{"node":12,"path":"translation"}},{"sampler":13,"target":{"node":13,"path":"translation"}}],"samplers":[{"input":56,"interpolation":"LINEAR","output":57},{"input":58,"interpolation":"LINEAR","output":59},{"input":60,"interpolation":"LINEAR","output":61},{"input":62,"interpolation":"LINEAR","output":63},{"input":64,"interpolation":"LINEAR","output":65},{"input":66,"interpolation":"LINEAR","output":67},{"input":68,"interpolation":"LINEAR","output":69},{"input":70,"interpolation":"LINEAR","output":71},{"input":72,"interpolation":"LINEAR","output":73},{"input":74,"interpolation":"LINEAR","output":75},{"input":76,"interpolation":"LINEAR","output":77},{"input":78,"interpolation":"LINEAR","output":79},{"input":80,"interpolation":"LINEAR","output":81},{"input":82,"interpolation":"LINEAR","output":83}]}]}