{"asset":{"version":"2.0","generator":"Babylon2Gltf2017","copyright":"2017 (c) BabylonJS"},"scene":0,"scenes":[{"nodes":[0]}],"nodes":[{"children":[1],"mesh":0,"translation":[0.0,0.0,0.0],"rotation":[-0.7071068,0.0,0.0,-0.7071067],"scale":[1.0,1.0,1.0],"name":"2"},{"mesh":1,"translation":[0.0,0.0,0.0],"rotation":[0.0,0.0,0.0,-1.0],"scale":[1.0,1.0,1.0],"name":"1"}],"meshes":[{"primitives":[{"attributes":{"POSITION":1,"NORMAL":2,"TEXCOORD_0":3},"indices":0,"mode":4,"material":0}],"name":"2"},{"primitives":[{"attributes":{"POSITION":5,"NORMAL":6,"TEXCOORD_0":7},"indices":4,"mode":4,"material":1}],"name":"1"}],"accessors":[{"bufferView":0,"componentType":5123,"count":14400,"type":"SCALAR","name":"accessorIndices"},{"bufferView":1,"componentType":5126,"count":14400,"max":[36.0001221,36.00001,36.0000038],"min":[-35.9998779,-36.0000038,-36.0000038],"type":"VEC3","name":"accessorPositions"},{"bufferView":1,"byteOffset":172800,"componentType":5126,"count":14400,"type":"VEC3","name":"accessorNormals"},{"bufferView":2,"componentType":5126,"count":14400,"type":"VEC2","name":"accessorUVs"},{"bufferView":0,"byteOffset":28800,"componentType":5123,"count":12672,"type":"SCALAR","name":"accessorIndices"},{"bufferView":1,"byteOffset":345600,"componentType":5126,"count":12672,"max":[36.0001221,36.00001,35.9999962],"min":[-36.0001221,-36.00001,-36.0],"type":"VEC3","name":"accessorPositions"},{"bufferView":1,"byteOffset":497664,"componentType":5126,"count":12672,"type":"VEC3","name":"accessorNormals"},{"bufferView":2,"byteOffset":115200,"componentType":5126,"count":12672,"type":"VEC2","name":"accessorUVs"}],"bufferViews":[{"buffer":0,"byteLength":54144,"name":"bufferViewScalar"},{"buffer":0,"byteOffset":54144,"byteLength":649728,"byteStride":12,"name":"bufferViewFloatVec3"},{"buffer":0,"byteOffset":703872,"byteLength":216576,"byteStride":8,"name":"bufferViewFloatVec2"}],"buffers":[{"uri":"jingbao2-B.bin","byteLength":920448}],"materials":[{"pbrMetallicRoughness":{"baseColorFactor":[1.0,1.0,1.0,1.0],"baseColorTexture":{"index":0},"metallicFactor":0.0,"roughnessFactor":0.9},"emissiveFactor":[0.0,0.0,0.0],"alphaMode":"BLEND","name":"yellow"},{"pbrMetallicRoughness":{"baseColorFactor":[1.0,1.0,1.0,1.0],"baseColorTexture":{"index":1},"metallicFactor":0.0,"roughnessFactor":0.9},"emissiveFactor":[0.0,0.0,0.0],"alphaMode":"BLEND","name":"darkblue"}],"textures":[{"sampler":0,"source":0,"name":"yellow_baseColor.png"},{"sampler":1,"source":1,"name":"darkblue_baseColor.png"}],"images":[{"uri":"yellow_baseColor.png"},{"uri":"darkblue_baseColor.png"}],"samplers":[{"magFilter":9729,"minFilter":9987,"wrapS":10497,"wrapT":10497},{"magFilter":9729,"minFilter":9987,"wrapS":10497,"wrapT":10497}]}