{"asset":{"version":"2.0","generator":"Babylon2Gltf2017","copyright":"2017 (c) BabylonJS"},"scene":0,"scenes":[{"nodes":[0]}],"nodes":[{"children":[1],"translation":[-1041.35657,-3.616797E-06,3.57014255E-06],"rotation":[-0.7071068,0.0,0.0,-0.7071067],"scale":[1.0,1.0,1.0],"name":"2"},{"children":[2],"translation":[0.0,4.54747351E-13,-4.54747351E-13],"rotation":[0.0,0.0,0.0,-1.0],"scale":[1.0,1.0,1.0],"name":"1"},{"children":[3],"mesh":0,"translation":[1041.35657,-3.57014369E-06,-3.616796E-06],"rotation":[0.0,0.0,0.0,-1.0],"scale":[1.0,1.0,1.0],"name":"2"},{"mesh":1,"translation":[0.0,-7.629351E-06,-3.81469522E-06],"rotation":[0.499999344,-0.5000008,0.499999255,-0.500000656],"scale":[1.0,1.0,1.0],"name":"1"}],"meshes":[{"primitives":[{"attributes":{"POSITION":1,"NORMAL":2,"TEXCOORD_0":3},"indices":0,"mode":4,"material":0}],"name":"2"},{"primitives":[{"attributes":{"POSITION":5,"NORMAL":6,"TEXCOORD_0":7},"indices":4,"mode":4,"material":1}],"name":"1"}],"accessors":[{"bufferView":0,"componentType":5123,"count":4608,"type":"SCALAR","name":"accessorIndices"},{"bufferView":1,"componentType":5126,"count":4608,"max":[25.000206,25.0,25.0000153],"min":[-24.9998341,-25.00002,-25.0000229],"type":"VEC3","name":"accessorPositions"},{"bufferView":1,"byteOffset":55296,"componentType":5126,"count":4608,"type":"VEC3","name":"accessorNormals"},{"bufferView":2,"componentType":5126,"count":4608,"type":"VEC2","name":"accessorUVs"},{"bufferView":0,"byteOffset":9216,"componentType":5123,"count":1728,"type":"SCALAR","name":"accessorIndices"},{"bufferView":1,"byteOffset":110592,"componentType":5126,"count":1728,"max":[25.0000763,25.0000057,25.00007],"min":[-25.00008,-25.0000057,-25.0000648],"type":"VEC3","name":"accessorPositions"},{"bufferView":1,"byteOffset":131328,"componentType":5126,"count":1728,"type":"VEC3","name":"accessorNormals"},{"bufferView":2,"byteOffset":36864,"componentType":5126,"count":1728,"type":"VEC2","name":"accessorUVs"}],"bufferViews":[{"buffer":0,"byteLength":12672,"name":"bufferViewScalar"},{"buffer":0,"byteOffset":12672,"byteLength":152064,"byteStride":12,"name":"bufferViewFloatVec3"},{"buffer":0,"byteOffset":164736,"byteLength":50688,"byteStride":8,"name":"bufferViewFloatVec2"}],"buffers":[{"uri":"jingbao1-B.bin","byteLength":215424}],"materials":[{"pbrMetallicRoughness":{"baseColorFactor":[1.0,1.0,1.0,1.0],"baseColorTexture":{"index":0},"metallicFactor":0.0,"roughnessFactor":0.9},"emissiveFactor":[0.0,0.0,0.0],"alphaMode":"BLEND","name":"yellow"},{"pbrMetallicRoughness":{"baseColorFactor":[1.0,1.0,1.0,1.0],"baseColorTexture":{"index":1},"metallicFactor":0.0,"roughnessFactor":0.9},"emissiveFactor":[0.0,0.0,0.0],"alphaMode":"BLEND","name":"darkblue"}],"textures":[{"sampler":0,"source":0,"name":"yellow_baseColor.png"},{"sampler":1,"source":1,"name":"darkblue_baseColor.png"}],"images":[{"uri":"yellow_baseColor.png"},{"uri":"darkblue_baseColor.png"}],"samplers":[{"magFilter":9729,"minFilter":9987,"wrapS":10497,"wrapT":10497},{"magFilter":9729,"minFilter":9987,"wrapS":10497,"wrapT":10497}]}