{"asset":{"version":"2.0","generator":"Babylon2Gltf2017","copyright":"2017 (c) BabylonJS"},"scene":0,"scenes":[{"nodes":[0,1,2,3,4,5,6,7,8,9,10,11,12,13,14,15,16,17,18,19]}],"nodes":[{"mesh":0,"translation":[0.0,2.098082E-05,0.0],"rotation":[-4.214684E-08,4.214684E-08,0.70710665,-0.7071069],"scale":[1.0,1.0,1.0],"name":"1"},{"mesh":1,"translation":[0.0,8.201598E-05,0.0],"rotation":[-4.214684E-08,4.214684E-08,0.70710665,-0.7071069],"scale":[1.0,1.0,1.0],"name":"2"},{"mesh":2,"translation":[0.0,8.201598E-05,0.0],"rotation":[-4.214684E-08,4.214684E-08,0.70710665,-0.7071069],"scale":[1.0,1.0,1.0],"name":"2"},{"mesh":3,"translation":[0.0,8.201598E-05,0.0],"rotation":[-4.214684E-08,4.214684E-08,0.70710665,-0.7071069],"scale":[1.0,1.0,1.0],"name":"2"},{"mesh":4,"translation":[0.0,8.201598E-05,0.0],"rotation":[-4.214684E-08,4.214684E-08,0.70710665,-0.7071069],"scale":[1.0,1.0,1.0],"name":"2"},{"mesh":5,"translation":[0.0,8.201598E-05,0.0],"rotation":[-4.214684E-08,4.214684E-08,0.70710665,-0.7071069],"scale":[1.0,1.0,1.0],"name":"2"},{"mesh":6,"translation":[0.0,8.201598E-05,0.0],"rotation":[-4.214684E-08,4.214684E-08,0.70710665,-0.7071069],"scale":[1.0,1.0,1.0],"name":"2"},{"mesh":7,"translation":[0.0,8.201598E-05,0.0],"rotation":[-4.214684E-08,4.214684E-08,0.70710665,-0.7071069],"scale":[1.0,1.0,1.0],"name":"2"},{"mesh":8,"translation":[0.0,2.098082E-05,0.0],"rotation":[-4.214684E-08,4.214684E-08,0.70710665,-0.7071069],"scale":[1.0,1.0,1.0],"name":"1"},{"mesh":9,"translation":[0.0,2.098082E-05,0.0],"rotation":[-4.214684E-08,4.214684E-08,0.70710665,-0.7071069],"scale":[1.0,1.0,1.0],"name":"1"},{"mesh":10,"translation":[0.0,2.098082E-05,0.0],"rotation":[-4.214684E-08,4.214684E-08,0.70710665,-0.7071069],"scale":[1.0,1.0,1.0],"name":"1"},{"mesh":11,"translation":[0.0,2.098082E-05,0.0],"rotation":[-4.214684E-08,4.214684E-08,0.70710665,-0.7071069],"scale":[1.0,1.0,1.0],"name":"1"},{"mesh":12,"translation":[0.0,2.098082E-05,0.0],"rotation":[-4.214684E-08,4.214684E-08,0.70710665,-0.7071069],"scale":[1.0,1.0,1.0],"name":"1"},{"mesh":13,"translation":[0.0,2.098082E-05,0.0],"rotation":[-4.214684E-08,4.214684E-08,0.70710665,-0.7071069],"scale":[1.0,1.0,1.0],"name":"1"},{"mesh":14,"translation":[0.0,2.098082E-05,0.0],"rotation":[-4.214684E-08,4.214684E-08,0.70710665,-0.7071069],"scale":[1.0,1.0,1.0],"name":"1"},{"mesh":15,"translation":[0.0,2.098082E-05,0.0],"rotation":[-4.214684E-08,4.214684E-08,0.70710665,-0.7071069],"scale":[1.0,1.0,1.0],"name":"1"},{"mesh":16,"translation":[0.0,2.098082E-05,0.0],"rotation":[-4.214684E-08,4.214684E-08,0.70710665,-0.7071069],"scale":[1.0,1.0,1.0],"name":"1"},{"mesh":17,"translation":[0.0,2.098082E-05,0.0],"rotation":[-4.214684E-08,4.214684E-08,0.70710665,-0.7071069],"scale":[1.0,1.0,1.0],"name":"1"},{"mesh":18,"translation":[0.0,2.098082E-05,0.0],"rotation":[-4.214684E-08,4.214684E-08,0.70710665,-0.7071069],"scale":[1.0,1.0,1.0],"name":"1"},{"mesh":19,"translation":[0.0,0.0,0.0],"rotation":[-4.214684E-08,4.214684E-08,0.70710665,-0.7071069],"scale":[1.0,1.0,1.0],"name":"2"}],"meshes":[{"primitives":[{"attributes":{"POSITION":1,"NORMAL":2,"TEXCOORD_0":3},"indices":0,"mode":4,"material":0}],"name":"1"},{"primitives":[{"attributes":{"POSITION":5,"NORMAL":6,"TEXCOORD_0":7},"indices":4,"mode":4,"material":1}],"name":"2"},{"primitives":[{"attributes":{"POSITION":9,"NORMAL":10,"TEXCOORD_0":11},"indices":8,"mode":4,"material":1}],"name":"2"},{"primitives":[{"attributes":{"POSITION":13,"NORMAL":14,"TEXCOORD_0":15},"indices":12,"mode":4,"material":1}],"name":"2"},{"primitives":[{"attributes":{"POSITION":17,"NORMAL":18,"TEXCOORD_0":19},"indices":16,"mode":4,"material":1}],"name":"2"},{"primitives":[{"attributes":{"POSITION":21,"NORMAL":22,"TEXCOORD_0":23},"indices":20,"mode":4,"material":1}],"name":"2"},{"primitives":[{"attributes":{"POSITION":25,"NORMAL":26,"TEXCOORD_0":27},"indices":24,"mode":4,"material":1}],"name":"2"},{"primitives":[{"attributes":{"POSITION":29,"NORMAL":30,"TEXCOORD_0":31},"indices":28,"mode":4,"material":1}],"name":"2"},{"primitives":[{"attributes":{"POSITION":33,"NORMAL":34,"TEXCOORD_0":35},"indices":32,"mode":4,"material":0}],"name":"1"},{"primitives":[{"attributes":{"POSITION":37,"NORMAL":38,"TEXCOORD_0":39},"indices":36,"mode":4,"material":0}],"name":"1"},{"primitives":[{"attributes":{"POSITION":41,"NORMAL":42,"TEXCOORD_0":43},"indices":40,"mode":4,"material":0}],"name":"1"},{"primitives":[{"attributes":{"POSITION":45,"NORMAL":46,"TEXCOORD_0":47},"indices":44,"mode":4,"material":0}],"name":"1"},{"primitives":[{"attributes":{"POSITION":49,"NORMAL":50,"TEXCOORD_0":51},"indices":48,"mode":4,"material":0}],"name":"1"},{"primitives":[{"attributes":{"POSITION":53,"NORMAL":54,"TEXCOORD_0":55},"indices":52,"mode":4,"material":0}],"name":"1"},{"primitives":[{"attributes":{"POSITION":57,"NORMAL":58,"TEXCOORD_0":59},"indices":56,"mode":4,"material":0}],"name":"1"},{"primitives":[{"attributes":{"POSITION":61,"NORMAL":62,"TEXCOORD_0":63},"indices":60,"mode":4,"material":0}],"name":"1"},{"primitives":[{"attributes":{"POSITION":65,"NORMAL":66,"TEXCOORD_0":67},"indices":64,"mode":4,"material":0}],"name":"1"},{"primitives":[{"attributes":{"POSITION":69,"NORMAL":70,"TEXCOORD_0":71},"indices":68,"mode":4,"material":0}],"name":"1"},{"primitives":[{"attributes":{"POSITION":73,"NORMAL":74,"TEXCOORD_0":75},"indices":72,"mode":4,"material":0}],"name":"1"},{"primitives":[{"attributes":{"POSITION":77,"NORMAL":78,"TEXCOORD_0":79},"indices":76,"mode":4,"material":1}],"name":"2"}],"accessors":[{"bufferView":0,"componentType":5123,"count":2250,"type":"SCALAR","name":"accessorIndices"},{"bufferView":1,"componentType":5126,"count":2250,"max":[11.0000229,36.0000648,-13.9999952],"min":[-10.9999771,14.0000639,-35.9999962],"type":"VEC3","name":"accessorPositions"},{"bufferView":1,"byteOffset":27000,"componentType":5126,"count":2250,"type":"VEC3","name":"accessorNormals"},{"bufferView":2,"componentType":5126,"count":2250,"type":"VEC2","name":"accessorUVs"},{"bufferView":0,"byteOffset":4500,"componentType":5123,"count":2592,"type":"SCALAR","name":"accessorIndices"},{"bufferView":1,"byteOffset":54000,"componentType":5126,"count":2592,"max":[-13.999958,36.0000038,-14.0000105],"min":[-35.999958,14.0000029,-36.00001],"type":"VEC3","name":"accessorPositions"},{"bufferView":1,"byteOffset":85104,"componentType":5126,"count":2592,"type":"VEC3","name":"accessorNormals"},{"bufferView":2,"byteOffset":18000,"componentType":5126,"count":2592,"type":"VEC2","name":"accessorUVs"},{"bufferView":0,"byteOffset":9684,"componentType":5123,"count":2592,"type":"SCALAR","name":"accessorIndices"},{"bufferView":1,"byteOffset":116208,"componentType":5126,"count":2592,"max":[36.0000572,36.0000038,-14.0000086],"min":[14.000061,14.0000029,-36.00001],"type":"VEC3","name":"accessorPositions"},{"bufferView":1,"byteOffset":147312,"componentType":5126,"count":2592,"type":"VEC3","name":"accessorNormals"},{"bufferView":2,"byteOffset":38736,"componentType":5126,"count":2592,"type":"VEC2","name":"accessorUVs"},{"bufferView":0,"byteOffset":14868,"componentType":5123,"count":2592,"type":"SCALAR","name":"accessorIndices"},{"bufferView":1,"byteOffset":178416,"componentType":5126,"count":2592,"max":[-13.9999714,36.0000038,36.0000076],"min":[-35.9999733,14.0000029,14.0000086],"type":"VEC3","name":"accessorPositions"},{"bufferView":1,"byteOffset":209520,"componentType":5126,"count":2592,"type":"VEC3","name":"accessorNormals"},{"bufferView":2,"byteOffset":59472,"componentType":5126,"count":2592,"type":"VEC2","name":"accessorUVs"},{"bufferView":0,"byteOffset":20052,"componentType":5123,"count":2592,"type":"SCALAR","name":"accessorIndices"},{"bufferView":1,"byteOffset":240624,"componentType":5126,"count":2592,"max":[36.0000267,36.0000038,35.9999962],"min":[14.0000267,14.0000029,13.9999971],"type":"VEC3","name":"accessorPositions"},{"bufferView":1,"byteOffset":271728,"componentType":5126,"count":2592,"type":"VEC3","name":"accessorNormals"},{"bufferView":2,"byteOffset":80208,"componentType":5126,"count":2592,"type":"VEC2","name":"accessorUVs"},{"bufferView":0,"byteOffset":25236,"componentType":5123,"count":2592,"type":"SCALAR","name":"accessorIndices"},{"bufferView":1,"byteOffset":302832,"componentType":5126,"count":2592,"max":[36.00002,-13.9999952,36.00001],"min":[14.0000191,-35.9999962,14.0000105],"type":"VEC3","name":"accessorPositions"},{"bufferView":1,"byteOffset":333936,"componentType":5126,"count":2592,"type":"VEC3","name":"accessorNormals"},{"bufferView":2,"byteOffset":100944,"componentType":5126,"count":2592,"type":"VEC2","name":"accessorUVs"},{"bufferView":0,"byteOffset":30420,"componentType":5123,"count":2592,"type":"SCALAR","name":"accessorIndices"},{"bufferView":1,"byteOffset":365040,"componentType":5126,"count":2592,"max":[-13.9999809,-13.999938,36.0000038],"min":[-35.99998,-35.9999352,14.0000029],"type":"VEC3","name":"accessorPositions"},{"bufferView":1,"byteOffset":396144,"componentType":5126,"count":2592,"type":"VEC3","name":"accessorNormals"},{"bufferView":2,"byteOffset":121680,"componentType":5126,"count":2592,"type":"VEC2","name":"accessorUVs"},{"bufferView":0,"byteOffset":35604,"componentType":5123,"count":2592,"type":"SCALAR","name":"accessorIndices"},{"bufferView":1,"byteOffset":427248,"componentType":5126,"count":2592,"max":[36.00002,-13.9999971,-13.9999628],"min":[14.0000191,-35.9999962,-35.99996],"type":"VEC3","name":"accessorPositions"},{"bufferView":1,"byteOffset":458352,"componentType":5126,"count":2592,"type":"VEC3","name":"accessorNormals"},{"bufferView":2,"byteOffset":142416,"componentType":5126,"count":2592,"type":"VEC2","name":"accessorUVs"},{"bufferView":0,"byteOffset":40788,"componentType":5123,"count":2250,"type":"SCALAR","name":"accessorIndices"},{"bufferView":1,"byteOffset":489456,"componentType":5126,"count":2250,"max":[-13.99999,11.0000639,-14.0000124],"min":[-35.9999924,-10.9999361,-36.00001],"type":"VEC3","name":"accessorPositions"},{"bufferView":1,"byteOffset":516456,"componentType":5126,"count":2250,"type":"VEC3","name":"accessorNormals"},{"bufferView":2,"byteOffset":163152,"componentType":5126,"count":2250,"type":"VEC2","name":"accessorUVs"},{"bufferView":0,"byteOffset":45288,"componentType":5123,"count":2250,"type":"SCALAR","name":"accessorIndices"},{"bufferView":1,"byteOffset":543456,"componentType":5126,"count":2250,"max":[36.0000343,11.0000639,35.9999924],"min":[14.0000343,-10.9999342,13.9999924],"type":"VEC3","name":"accessorPositions"},{"bufferView":1,"byteOffset":570456,"componentType":5126,"count":2250,"type":"VEC3","name":"accessorNormals"},{"bufferView":2,"byteOffset":181152,"componentType":5126,"count":2250,"type":"VEC2","name":"accessorUVs"},{"bufferView":0,"byteOffset":49788,"componentType":5123,"count":2250,"type":"SCALAR","name":"accessorIndices"},{"bufferView":1,"byteOffset":597456,"componentType":5126,"count":2250,"max":[36.00002,11.0000639,-14.0000067],"min":[14.0000229,-10.9999361,-36.0000076],"type":"VEC3","name":"accessorPositions"},{"bufferView":1,"byteOffset":624456,"componentType":5126,"count":2250,"type":"VEC3","name":"accessorNormals"},{"bufferView":2,"byteOffset":199152,"componentType":5126,"count":2250,"type":"VEC2","name":"accessorUVs"},{"bufferView":0,"byteOffset":54288,"componentType":5123,"count":2250,"type":"SCALAR","name":"accessorIndices"},{"bufferView":1,"byteOffset":651456,"componentType":5126,"count":2250,"max":[-13.9999676,11.0000639,35.99998],"min":[-35.99997,-10.999938,13.9999809],"type":"VEC3","name":"accessorPositions"},{"bufferView":1,"byteOffset":678456,"componentType":5126,"count":2250,"type":"VEC3","name":"accessorNormals"},{"bufferView":2,"byteOffset":217152,"componentType":5126,"count":2250,"type":"VEC2","name":"accessorUVs"},{"bufferView":0,"byteOffset":58788,"componentType":5123,"count":2250,"type":"SCALAR","name":"accessorIndices"},{"bufferView":1,"byteOffset":705456,"componentType":5126,"count":2250,"max":[-13.9999847,-14.0000591,11.0000181],"min":[-35.99999,-36.00006,-10.9999819],"type":"VEC3","name":"accessorPositions"},{"bufferView":1,"byteOffset":732456,"componentType":5126,"count":2250,"type":"VEC3","name":"accessorNormals"},{"bufferView":2,"byteOffset":235152,"componentType":5126,"count":2250,"type":"VEC2","name":"accessorUVs"},{"bufferView":0,"byteOffset":63288,"componentType":5123,"count":2250,"type":"SCALAR","name":"accessorIndices"},{"bufferView":1,"byteOffset":759456,"componentType":5126,"count":2250,"max":[11.0000114,-13.9999361,-14.0000086],"min":[-10.99999,-35.9999352,-36.0000076],"type":"VEC3","name":"accessorPositions"},{"bufferView":1,"byteOffset":786456,"componentType":5126,"count":2250,"type":"VEC3","name":"accessorNormals"},{"bufferView":2,"byteOffset":253152,"componentType":5126,"count":2250,"type":"VEC2","name":"accessorUVs"},{"bufferView":0,"byteOffset":67788,"componentType":5123,"count":2250,"type":"SCALAR","name":"accessorIndices"},{"bufferView":1,"byteOffset":813456,"componentType":5126,"count":2250,"max":[36.00002,-13.9999371,10.9999952],"min":[14.0000191,-35.99994,-11.000001],"type":"VEC3","name":"accessorPositions"},{"bufferView":1,"byteOffset":840456,"componentType":5126,"count":2250,"type":"VEC3","name":"accessorNormals"},{"bufferView":2,"byteOffset":271152,"componentType":5126,"count":2250,"type":"VEC2","name":"accessorUVs"},{"bufferView":0,"byteOffset":72288,"componentType":5123,"count":2250,"type":"SCALAR","name":"accessorIndices"},{"bufferView":1,"byteOffset":867456,"componentType":5126,"count":2250,"max":[11.0000229,-13.999938,35.9999962],"min":[-10.9999771,-35.9999352,13.9999952],"type":"VEC3","name":"accessorPositions"},{"bufferView":1,"byteOffset":894456,"componentType":5126,"count":2250,"type":"VEC3","name":"accessorNormals"},{"bufferView":2,"byteOffset":289152,"componentType":5126,"count":2250,"type":"VEC2","name":"accessorUVs"},{"bufferView":0,"byteOffset":76788,"componentType":5123,"count":2250,"type":"SCALAR","name":"accessorIndices"},{"bufferView":1,"byteOffset":921456,"componentType":5126,"count":2250,"max":[11.0000343,36.0000648,35.9999847],"min":[-10.9999657,14.0000639,13.9999857],"type":"VEC3","name":"accessorPositions"},{"bufferView":1,"byteOffset":948456,"componentType":5126,"count":2250,"type":"VEC3","name":"accessorNormals"},{"bufferView":2,"byteOffset":307152,"componentType":5126,"count":2250,"type":"VEC2","name":"accessorUVs"},{"bufferView":0,"byteOffset":81288,"componentType":5123,"count":2250,"type":"SCALAR","name":"accessorIndices"},{"bufferView":1,"byteOffset":975456,"componentType":5126,"count":2250,"max":[36.0000343,36.0000648,11.0000048],"min":[14.0000343,14.0000639,-10.9999952],"type":"VEC3","name":"accessorPositions"},{"bufferView":1,"byteOffset":1002456,"componentType":5126,"count":2250,"type":"VEC3","name":"accessorNormals"},{"bufferView":2,"byteOffset":325152,"componentType":5126,"count":2250,"type":"VEC2","name":"accessorUVs"},{"bufferView":0,"byteOffset":85788,"componentType":5123,"count":2250,"type":"SCALAR","name":"accessorIndices"},{"bufferView":1,"byteOffset":1029456,"componentType":5126,"count":2250,"max":[-13.9999733,36.0000648,11.000001],"min":[-35.9999733,14.0000639,-10.999999],"type":"VEC3","name":"accessorPositions"},{"bufferView":1,"byteOffset":1056456,"componentType":5126,"count":2250,"type":"VEC3","name":"accessorNormals"},{"bufferView":2,"byteOffset":343152,"componentType":5126,"count":2250,"type":"VEC2","name":"accessorUVs"},{"bufferView":0,"byteOffset":90288,"componentType":5123,"count":2592,"type":"SCALAR","name":"accessorIndices"},{"bufferView":1,"byteOffset":1083456,"componentType":5126,"count":2592,"max":[-14.0000629,-13.9999971,-13.9999857],"min":[-36.00006,-35.9999962,-35.9999847],"type":"VEC3","name":"accessorPositions"},{"bufferView":1,"byteOffset":1114560,"componentType":5126,"count":2592,"type":"VEC3","name":"accessorNormals"},{"bufferView":2,"byteOffset":361152,"componentType":5126,"count":2592,"type":"VEC2","name":"accessorUVs"},{"bufferView":3,"componentType":5126,"count":21,"max":[1.6],"min":[0.0],"type":"SCALAR","name":"accessorAnimationInput"},{"bufferView":4,"componentType":5126,"count":21,"type":"VEC3","name":"accessorAnimationPositions"},{"bufferView":3,"byteOffset":84,"componentType":5126,"count":21,"max":[1.6],"min":[0.0],"type":"SCALAR","name":"accessorAnimationInput"},{"bufferView":4,"byteOffset":252,"componentType":5126,"count":21,"type":"VEC3","name":"accessorAnimationPositions"},{"bufferView":3,"byteOffset":168,"componentType":5126,"count":21,"max":[1.6],"min":[0.0],"type":"SCALAR","name":"accessorAnimationInput"},{"bufferView":4,"byteOffset":504,"componentType":5126,"count":21,"type":"VEC3","name":"accessorAnimationPositions"},{"bufferView":3,"byteOffset":252,"componentType":5126,"count":21,"max":[1.6],"min":[0.0],"type":"SCALAR","name":"accessorAnimationInput"},{"bufferView":4,"byteOffset":756,"componentType":5126,"count":21,"type":"VEC3","name":"accessorAnimationPositions"},{"bufferView":3,"byteOffset":336,"componentType":5126,"count":21,"max":[1.6],"min":[0.0],"type":"SCALAR","name":"accessorAnimationInput"},{"bufferView":4,"byteOffset":1008,"componentType":5126,"count":21,"type":"VEC3","name":"accessorAnimationPositions"},{"bufferView":3,"byteOffset":420,"componentType":5126,"count":21,"max":[1.6],"min":[0.0],"type":"SCALAR","name":"accessorAnimationInput"},{"bufferView":4,"byteOffset":1260,"componentType":5126,"count":21,"type":"VEC3","name":"accessorAnimationPositions"},{"bufferView":3,"byteOffset":504,"componentType":5126,"count":21,"max":[1.6],"min":[0.0],"type":"SCALAR","name":"accessorAnimationInput"},{"bufferView":4,"byteOffset":1512,"componentType":5126,"count":21,"type":"VEC3","name":"accessorAnimationPositions"},{"bufferView":3,"byteOffset":588,"componentType":5126,"count":21,"max":[1.6],"min":[0.0],"type":"SCALAR","name":"accessorAnimationInput"},{"bufferView":4,"byteOffset":1764,"componentType":5126,"count":21,"type":"VEC3","name":"accessorAnimationPositions"},{"bufferView":3,"byteOffset":672,"componentType":5126,"count":21,"max":[1.6],"min":[0.0],"type":"SCALAR","name":"accessorAnimationInput"},{"bufferView":4,"byteOffset":2016,"componentType":5126,"count":21,"type":"VEC3","name":"accessorAnimationPositions"},{"bufferView":3,"byteOffset":756,"componentType":5126,"count":21,"max":[1.6],"min":[0.0],"type":"SCALAR","name":"accessorAnimationInput"},{"bufferView":4,"byteOffset":2268,"componentType":5126,"count":21,"type":"VEC3","name":"accessorAnimationPositions"},{"bufferView":3,"byteOffset":840,"componentType":5126,"count":21,"max":[1.6],"min":[0.0],"type":"SCALAR","name":"accessorAnimationInput"},{"bufferView":4,"byteOffset":2520,"componentType":5126,"count":21,"type":"VEC3","name":"accessorAnimationPositions"},{"bufferView":3,"byteOffset":924,"componentType":5126,"count":21,"max":[1.6],"min":[0.0],"type":"SCALAR","name":"accessorAnimationInput"},{"bufferView":4,"byteOffset":2772,"componentType":5126,"count":21,"type":"VEC3","name":"accessorAnimationPositions"},{"bufferView":3,"byteOffset":1008,"componentType":5126,"count":21,"max":[1.6],"min":[0.0],"type":"SCALAR","name":"accessorAnimationInput"},{"bufferView":4,"byteOffset":3024,"componentType":5126,"count":21,"type":"VEC3","name":"accessorAnimationPositions"},{"bufferView":3,"byteOffset":1092,"componentType":5126,"count":21,"max":[1.6],"min":[0.0],"type":"SCALAR","name":"accessorAnimationInput"},{"bufferView":4,"byteOffset":3276,"componentType":5126,"count":21,"type":"VEC3","name":"accessorAnimationPositions"},{"bufferView":3,"byteOffset":1176,"componentType":5126,"count":21,"max":[1.6],"min":[0.0],"type":"SCALAR","name":"accessorAnimationInput"},{"bufferView":4,"byteOffset":3528,"componentType":5126,"count":21,"type":"VEC3","name":"accessorAnimationPositions"},{"bufferView":3,"byteOffset":1260,"componentType":5126,"count":21,"max":[1.6],"min":[0.0],"type":"SCALAR","name":"accessorAnimationInput"},{"bufferView":4,"byteOffset":3780,"componentType":5126,"count":21,"type":"VEC3","name":"accessorAnimationPositions"},{"bufferView":3,"byteOffset":1344,"componentType":5126,"count":21,"max":[1.6],"min":[0.0],"type":"SCALAR","name":"accessorAnimationInput"},{"bufferView":4,"byteOffset":4032,"componentType":5126,"count":21,"type":"VEC3","name":"accessorAnimationPositions"},{"bufferView":3,"byteOffset":1428,"componentType":5126,"count":21,"max":[1.6],"min":[0.0],"type":"SCALAR","name":"accessorAnimationInput"},{"bufferView":4,"byteOffset":4284,"componentType":5126,"count":21,"type":"VEC3","name":"accessorAnimationPositions"},{"bufferView":3,"byteOffset":1512,"componentType":5126,"count":21,"max":[1.6],"min":[0.0],"type":"SCALAR","name":"accessorAnimationInput"},{"bufferView":4,"byteOffset":4536,"componentType":5126,"count":21,"type":"VEC3","name":"accessorAnimationPositions"},{"bufferView":3,"byteOffset":1596,"componentType":5126,"count":21,"max":[1.6],"min":[0.0],"type":"SCALAR","name":"accessorAnimationInput"},{"bufferView":4,"byteOffset":4788,"componentType":5126,"count":21,"type":"VEC3","name":"accessorAnimationPositions"}],"bufferViews":[{"buffer":0,"byteLength":95472,"name":"bufferViewScalar"},{"buffer":0,"byteOffset":95472,"byteLength":1145664,"byteStride":12,"name":"bufferViewFloatVec3"},{"buffer":0,"byteOffset":1241136,"byteLength":381888,"byteStride":8,"name":"bufferViewFloatVec2"},{"buffer":0,"byteOffset":1623024,"byteLength":1680,"name":"bufferViewAnimationFloatScalar"},{"buffer":0,"byteOffset":1624704,"byteLength":5040,"name":"bufferViewAnimationFloatVec3"}],"buffers":[{"uri":"jingbao3-D.bin","byteLength":1629744}],"materials":[{"pbrMetallicRoughness":{"baseColorFactor":[1.0,1.0,1.0,1.0],"baseColorTexture":{"index":0},"metallicFactor":0.0,"roughnessFactor":0.9},"emissiveFactor":[0.0,0.0,0.0],"alphaMode":"BLEND","name":"darkblue"},{"pbrMetallicRoughness":{"baseColorFactor":[1.0,1.0,1.0,1.0],"baseColorTexture":{"index":1},"metallicFactor":0.0,"roughnessFactor":0.9},"emissiveFactor":[0.0,0.0,0.0],"alphaMode":"BLEND","name":"yellow"}],"textures":[{"sampler":0,"source":0,"name":"darkblue_baseColor.png"},{"sampler":1,"source":1,"name":"yellow_baseColor.png"}],"images":[{"uri":"darkblue_baseColor.png"},{"uri":"yellow_baseColor.png"}],"samplers":[{"magFilter":9729,"minFilter":9987,"wrapS":10497,"wrapT":10497},{"magFilter":9729,"minFilter":9987,"wrapS":10497,"wrapT":10497}],"animations":[{"channels":[{"sampler":0,"target":{"node":0,"path":"translation"}},{"sampler":1,"target":{"node":1,"path":"translation"}},{"sampler":2,"target":{"node":2,"path":"translation"}},{"sampler":3,"target":{"node":3,"path":"translation"}},{"sampler":4,"target":{"node":4,"path":"translation"}},{"sampler":5,"target":{"node":5,"path":"translation"}},{"sampler":6,"target":{"node":6,"path":"translation"}},{"sampler":7,"target":{"node":7,"path":"translation"}},{"sampler":8,"target":{"node":8,"path":"translation"}},{"sampler":9,"target":{"node":9,"path":"translation"}},{"sampler":10,"target":{"node":10,"path":"translation"}},{"sampler":11,"target":{"node":11,"path":"translation"}},{"sampler":12,"target":{"node":12,"path":"translation"}},{"sampler":13,"target":{"node":13,"path":"translation"}},{"sampler":14,"target":{"node":14,"path":"translation"}},{"sampler":15,"target":{"node":15,"path":"translation"}},{"sampler":16,"target":{"node":16,"path":"translation"}},{"sampler":17,"target":{"node":17,"path":"translation"}},{"sampler":18,"target":{"node":18,"path":"translation"}},{"sampler":19,"target":{"node":19,"path":"translation"}}],"samplers":[{"input":80,"interpolation":"LINEAR","output":81},{"input":82,"interpolation":"LINEAR","output":83},{"input":84,"interpolation":"LINEAR","output":85},{"input":86,"interpolation":"LINEAR","output":87},{"input":88,"interpolation":"LINEAR","output":89},{"input":90,"interpolation":"LINEAR","output":91},{"input":92,"interpolation":"LINEAR","output":93},{"input":94,"interpolation":"LINEAR","output":95},{"input":96,"interpolation":"LINEAR","output":97},{"input":98,"interpolation":"LINEAR","output":99},{"input":100,"interpolation":"LINEAR","output":101},{"input":102,"interpolation":"LINEAR","output":103},{"input":104,"interpolation":"LINEAR","output":105},{"input":106,"interpolation":"LINEAR","output":107},{"input":108,"interpolation":"LINEAR","output":109},{"input":110,"interpolation":"LINEAR","output":111},{"input":112,"interpolation":"LINEAR","output":113},{"input":114,"interpolation":"LINEAR","output":115},{"input":116,"interpolation":"LINEAR","output":117},{"input":118,"interpolation":"LINEAR","output":119}]}]}