{"asset":{"version":"2.0","generator":"Babylon2Gltf2017","copyright":"2017(c)BabylonJS"},"scene":0,"scenes":[{"nodes":[0]}],"nodes":[{"mesh":0,"translation":[0.0,0.0,0.0],"rotation":[0.0,0.0,0.08715576,-0.9961947],"scale":[0.999999762,0.999999762,1.0],"name":"Sphere047"}],"meshes":[{"primitives":[{"attributes":{"POSITION":1,"NORMAL":2,"TEXCOORD_0":3},"indices":0,"mode":4,"material":0},{"attributes":{"POSITION":5,"NORMAL":6,"TEXCOORD_0":7},"indices":4,"mode":4,"material":1},{"attributes":{"POSITION":9,"NORMAL":10,"TEXCOORD_0":11},"indices":8,"mode":4,"material":2}],"name":"Sphere047"}],"accessors":[{"bufferView":0,"componentType":5125,"count":25200,"type":"SCALAR","name":"accessorIndices"},{"bufferView":1,"componentType":5126,"count":25200,"max":[20.6503563,10.5910244,8.040842],"min":[-17.7006454,-10.4909916,-4.95368671],"type":"VEC3","name":"accessorPositions"},{"bufferView":1,"byteOffset":302400,"componentType":5126,"count":25200,"type":"VEC3","name":"accessorNormals"},{"bufferView":2,"componentType":5126,"count":25200,"type":"VEC2","name":"accessorUVs"},{"bufferView":0,"byteOffset":100800,"componentType":5125,"count":22752,"type":"SCALAR","name":"accessorIndices"},{"bufferView":1,"byteOffset":604800,"componentType":5126,"count":22752,"max":[15.94477,12.86658,9.945553],"min":[-21.7669258,-16.6916027,-3.83760118],"type":"VEC3","name":"accessorPositions"},{"bufferView":1,"byteOffset":877824,"componentType":5126,"count":22752,"type":"VEC3","name":"accessorNormals"},{"bufferView":2,"byteOffset":201600,"componentType":5126,"count":22752,"type":"VEC2","name":"accessorUVs"},{"bufferView":0,"byteOffset":191808,"componentType":5125,"count":44784,"type":"SCALAR","name":"accessorIndices"},{"bufferView":1,"byteOffset":1150848,"componentType":5126,"count":44784,"max":[27.297245,16.6916027,9.539814],"min":[-27.29725,-12.0317936,-9.945553],"type":"VEC3","name":"accessorPositions"},{"bufferView":1,"byteOffset":1688256,"componentType":5126,"count":44784,"type":"VEC3","name":"accessorNormals"},{"bufferView":2,"byteOffset":383616,"componentType":5126,"count":44784,"type":"VEC2","name":"accessorUVs"}],"bufferViews":[{"buffer":0,"byteLength":370944,"name":"bufferViewScalar"},{"buffer":0,"byteOffset":370944,"byteLength":2225664,"byteStride":12,"name":"bufferViewFloatVec3"},{"buffer":0,"byteOffset":2596608,"byteLength":741888,"byteStride":8,"name":"bufferViewFloatVec2"}],"buffers":[{"uri":"dgys.bin","byteLength":3338496}],"materials":[{"pbrMetallicRoughness":{"baseColorFactor":[1.0,1.0,1.0,1.0],"baseColorTexture":{"index":0},"metallicFactor":0.0,"roughnessFactor":0.9},"emissiveFactor":[0.0,0.0,0.0],"alphaMode":"BLEND","name":"Material126"},{"pbrMetallicRoughness":{"baseColorFactor":[1.0,1.0,1.0,1.0],"baseColorTexture":{"index":1},"metallicFactor":0.0,"roughnessFactor":0.9},"emissiveFactor":[0.0,0.0,0.0],"alphaMode":"BLEND","name":"Material5078"},{"pbrMetallicRoughness":{"baseColorFactor":[1.0,1.0,1.0,1.0],"baseColorTexture":{"index":2},"metallicFactor":0.0,"roughnessFactor":0.9},"emissiveFactor":[0.0,0.0,0.0],"alphaMode":"BLEND","name":"Material5077"}],"textures":[{"sampler":0,"source":0,"name":"Material126_baseColor.png"},{"sampler":1,"source":1,"name":"Material5078_baseColor.png"},{"sampler":2,"source":2,"name":"Material5077_baseColor.png"}],"images":[{"uri":"Material126_baseColor.png"},{"uri":"Material5078_baseColor.png"},{"uri":"Material5077_baseColor.png"}],"samplers":[{"magFilter":9729,"minFilter":9987,"wrapS":10497,"wrapT":10497},{"magFilter":9729,"minFilter":9987,"wrapS":10497,"wrapT":10497},{"magFilter":9729,"minFilter":9987,"wrapS":10497,"wrapT":10497}]}