{"asset":{"version":"2.0","generator":"Babylon2Gltf2017","copyright":"2017 (c) BabylonJS"},"scene":0,"scenes":[{"nodes":[0]}],"nodes":[{"mesh":0,"translation":[0.0,0.0,0.0],"rotation":[-0.7071068,0.0,0.0,-0.7071067],"scale":[1.0,1.0,1.0],"name":"1"}],"meshes":[{"primitives":[{"attributes":{"POSITION":1,"NORMAL":2,"TEXCOORD_0":3},"indices":0,"mode":4,"material":0},{"attributes":{"POSITION":5,"NORMAL":6,"TEXCOORD_0":7},"indices":4,"mode":4,"material":1}],"name":"1"}],"accessors":[{"bufferView":0,"componentType":5123,"count":24192,"type":"SCALAR","name":"accessorIndices"},{"bufferView":1,"componentType":5126,"count":24192,"max":[36.0,36.0000076,36.0000038],"min":[-36.0002441,-36.0000153,-36.0000076],"type":"VEC3","name":"accessorPositions"},{"bufferView":1,"byteOffset":290304,"componentType":5126,"count":24192,"type":"VEC3","name":"accessorNormals"},{"bufferView":2,"componentType":5126,"count":24192,"type":"VEC2","name":"accessorUVs"},{"bufferView":0,"byteOffset":48384,"componentType":5123,"count":2880,"type":"SCALAR","name":"accessorIndices"},{"bufferView":1,"byteOffset":580608,"componentType":5126,"count":2880,"max":[11.0,11.0,11.0],"min":[-11.0,-11.0,-11.0],"type":"VEC3","name":"accessorPositions"},{"bufferView":1,"byteOffset":615168,"componentType":5126,"count":2880,"type":"VEC3","name":"accessorNormals"},{"bufferView":2,"byteOffset":193536,"componentType":5126,"count":2880,"type":"VEC2","name":"accessorUVs"}],"bufferViews":[{"buffer":0,"byteLength":54144,"name":"bufferViewScalar"},{"buffer":0,"byteOffset":54144,"byteLength":649728,"byteStride":12,"name":"bufferViewFloatVec3"},{"buffer":0,"byteOffset":703872,"byteLength":216576,"byteStride":8,"name":"bufferViewFloatVec2"}],"buffers":[{"uri":"jingbao1.bin","byteLength":920448}],"materials":[{"pbrMetallicRoughness":{"baseColorFactor":[0.612745166,0.612745166,0.612745166,1.0],"metallicFactor":0.0,"roughnessFactor":0.9},"emissiveFactor":[0.0,0.0,0.0],"alphaMode":"OPAQUE","name":"01 - Default"},{"pbrMetallicRoughness":{"baseColorFactor":[0.612745166,0.0,0.0,1.0],"metallicFactor":0.0,"roughnessFactor":0.9},"emissiveFactor":[0.0,0.0,0.0],"alphaMode":"OPAQUE","name":"02 - Default"}]}