{"asset":{"version":"2.0","generator":"Babylon2Gltf2017","copyright":"2017 (c) BabylonJS"},"scene":0,"scenes":[{"nodes":[0]}],"nodes":[{"mesh":0,"translation":[0.0,0.0,0.0],"rotation":[0.0,0.0,0.0,-1.0],"scale":[1.0,1.0,1.0],"name":"Sphere002"}],"meshes":[{"primitives":[{"attributes":{"POSITION":1,"NORMAL":2,"TEXCOORD_0":3},"indices":0,"mode":4,"material":0}],"name":"Sphere002"}],"accessors":[{"bufferView":0,"componentType":5123,"count":29400,"type":"SCALAR","name":"accessorIndices"},{"bufferView":1,"componentType":5126,"count":29400,"max":[0.7,0.7,0.7],"min":[-0.7,-0.7,-0.7],"type":"VEC3","name":"accessorPositions"},{"bufferView":1,"byteOffset":352800,"componentType":5126,"count":29400,"type":"VEC3","name":"accessorNormals"},{"bufferView":2,"componentType":5126,"count":29400,"type":"VEC2","name":"accessorUVs"}],"bufferViews":[{"buffer":0,"byteLength":58800,"name":"bufferViewScalar"},{"buffer":0,"byteOffset":58800,"byteLength":705600,"byteStride":12,"name":"bufferViewFloatVec3"},{"buffer":0,"byteOffset":764400,"byteLength":235200,"byteStride":8,"name":"bufferViewFloatVec2"}],"buffers":[{"uri":"dz.bin","byteLength":999600}],"materials":[{"pbrMetallicRoughness":{"baseColorFactor":[1.0,1.0,1.0,1.0],"baseColorTexture":{"index":0},"metallicFactor":0.0,"roughnessFactor":0.9},"emissiveFactor":[0.0,0.0,0.0],"alphaMode":"BLEND","name":"Material29"}],"textures":[{"sampler":0,"source":0,"name":"Material29_baseColor.png"}],"images":[{"uri":"Material29_baseColor.png"}],"samplers":[{"magFilter":9729,"minFilter":9987,"wrapS":10497,"wrapT":10497}]}