{"asset":{"version":"2.0","generator":"Babylon2Gltf2017","copyright":"2017 (c) BabylonJS"},"scene":0,"scenes":[{"nodes":[0]}],"nodes":[{"mesh":0,"translation":[0.0,0.0,-5.543232E-06],"rotation":[-0.5,-0.5,-0.5,0.5],"scale":[1.0,1.0,1.0],"name":"Line003"}],"meshes":[{"primitives":[{"attributes":{"POSITION":1,"NORMAL":2,"TEXCOORD_0":3},"indices":0,"mode":4,"material":0},{"attributes":{"POSITION":5,"NORMAL":6,"TEXCOORD_0":7},"indices":4,"mode":4,"material":1},{"attributes":{"POSITION":9,"NORMAL":10,"TEXCOORD_0":11},"indices":8,"mode":4,"material":2},{"attributes":{"POSITION":13,"NORMAL":14,"TEXCOORD_0":15},"indices":12,"mode":4,"material":3},{"attributes":{"POSITION":17,"NORMAL":18,"TEXCOORD_0":19},"indices":16,"mode":4,"material":4},{"attributes":{"POSITION":21,"NORMAL":22,"TEXCOORD_0":23},"indices":20,"mode":4,"material":5}],"name":"Line003"}],"accessors":[{"bufferView":0,"componentType":5123,"count":6864,"type":"SCALAR","name":"accessorIndices"},{"bufferView":1,"componentType":5126,"count":6864,"max":[73.26556,23.8147373,53.1751366],"min":[-73.14924,-49.43809,-73.3177643],"type":"VEC3","name":"accessorPositions"},{"bufferView":1,"byteOffset":82368,"componentType":5126,"count":6864,"type":"VEC3","name":"accessorNormals"},{"bufferView":2,"componentType":5126,"count":6864,"type":"VEC2","name":"accessorUVs"},{"bufferView":0,"byteOffset":13728,"componentType":5123,"count":36,"type":"SCALAR","name":"accessorIndices"},{"bufferView":1,"byteOffset":164736,"componentType":5126,"count":36,"max":[87.19987,-49.3710938,76.42728],"min":[-87.19987,-52.37111,-95.4236],"type":"VEC3","name":"accessorPositions"},{"bufferView":1,"byteOffset":165168,"componentType":5126,"count":36,"type":"VEC3","name":"accessorNormals"},{"bufferView":2,"byteOffset":54912,"componentType":5126,"count":36,"type":"VEC2","name":"accessorUVs"},{"bufferView":0,"byteOffset":13800,"componentType":5123,"count":4359,"type":"SCALAR","name":"accessorIndices"},{"bufferView":1,"byteOffset":165600,"componentType":5126,"count":4359,"max":[3.00022125,31.3691425,57.3067627],"min":[-2.99978447,-49.3711,-84.2797852],"type":"VEC3","name":"accessorPositions"},{"bufferView":1,"byteOffset":217908,"componentType":5126,"count":4359,"type":"VEC3","name":"accessorNormals"},{"bufferView":2,"byteOffset":55200,"componentType":5126,"count":4359,"type":"VEC2","name":"accessorUVs"},{"bufferView":0,"byteOffset":22520,"componentType":5123,"count":294,"type":"SCALAR","name":"accessorIndices"},{"bufferView":1,"byteOffset":270216,"componentType":5126,"count":294,"max":[77.3501053,28.2852077,53.4251251],"min":[-77.28837,-49.3711243,-22.7098866],"type":"VEC3","name":"accessorPositions"},{"bufferView":1,"byteOffset":273744,"componentType":5126,"count":294,"type":"VEC3","name":"accessorNormals"},{"bufferView":2,"byteOffset":90072,"componentType":5126,"count":294,"type":"VEC2","name":"accessorUVs"},{"bufferView":0,"byteOffset":23108,"componentType":5123,"count":1128,"type":"SCALAR","name":"accessorIndices"},{"bufferView":1,"byteOffset":277272,"componentType":5126,"count":1128,"max":[39.0098877,52.37111,95.42361],"min":[-38.93728,-11.5612144,13.0802851],"type":"VEC3","name":"accessorPositions"},{"bufferView":1,"byteOffset":290808,"componentType":5126,"count":1128,"type":"VEC3","name":"accessorNormals"},{"bufferView":2,"byteOffset":92424,"componentType":5126,"count":1128,"type":"VEC2","name":"accessorUVs"},{"bufferView":0,"byteOffset":25364,"componentType":5123,"count":2880,"type":"SCALAR","name":"accessorIndices"},{"bufferView":1,"byteOffset":304344,"componentType":5126,"count":2880,"max":[1.22729683,28.8970966,53.9022],"min":[-1.22682,26.4429951,51.44809],"type":"VEC3","name":"accessorPositions"},{"bufferView":1,"byteOffset":338904,"componentType":5126,"count":2880,"type":"VEC3","name":"accessorNormals"},{"bufferView":2,"byteOffset":101448,"componentType":5126,"count":2880,"type":"VEC2","name":"accessorUVs"}],"bufferViews":[{"buffer":0,"byteLength":31124,"name":"bufferViewScalar"},{"buffer":0,"byteOffset":31124,"byteLength":373464,"byteStride":12,"name":"bufferViewFloatVec3"},{"buffer":0,"byteOffset":404588,"byteLength":124488,"byteStride":8,"name":"bufferViewFloatVec2"}],"buffers":[{"uri":"xisheng.bin","byteLength":529076}],"materials":[{"pbrMetallicRoughness":{"baseColorFactor":[1.0,1.0,1.0,1.0],"baseColorTexture":{"index":0},"metallicFactor":0.0,"roughnessFactor":0.9},"emissiveFactor":[0.0,0.0,0.0],"alphaMode":"BLEND","name":"Material #166"},{"pbrMetallicRoughness":{"baseColorFactor":[1.0,1.0,1.0,1.0],"baseColorTexture":{"index":1},"metallicFactor":0.0,"roughnessFactor":0.9},"emissiveFactor":[0.0,0.0,0.0],"alphaMode":"BLEND","name":"Material #6"},{"pbrMetallicRoughness":{"baseColorFactor":[1.0,1.0,1.0,1.0],"baseColorTexture":{"index":2},"metallicFactor":0.0,"roughnessFactor":0.9},"emissiveFactor":[0.0,0.0,0.0],"alphaMode":"BLEND","name":"Material #5"},{"pbrMetallicRoughness":{"baseColorFactor":[1.0,1.0,1.0,1.0],"baseColorTexture":{"index":3},"metallicFactor":0.0,"roughnessFactor":0.9},"emissiveFactor":[0.0,0.0,0.0],"alphaMode":"BLEND","name":"Material #4"},{"pbrMetallicRoughness":{"baseColorFactor":[1.0,1.0,1.0,1.0],"baseColorTexture":{"index":4},"metallicFactor":0.0,"roughnessFactor":0.9},"emissiveFactor":[0.0,0.0,0.0],"alphaMode":"BLEND","name":"Material #118"},{"pbrMetallicRoughness":{"baseColorFactor":[1.0,1.0,1.0,1.0],"baseColorTexture":{"index":5},"metallicFactor":0.0,"roughnessFactor":0.9},"emissiveFactor":[0.0,0.0,0.0],"alphaMode":"BLEND","name":"Material #119"}],"textures":[{"sampler":0,"source":0,"name":"image06.png"},{"sampler":1,"source":1,"name":"image03.png"},{"sampler":2,"source":2,"name":"image02.png"},{"sampler":3,"source":3,"name":"image01.png"},{"sampler":4,"source":4,"name":"image04.png"},{"sampler":5,"source":5,"name":"image05.png"}],"images":[{"uri":"image06.png"},{"uri":"image03.png"},{"uri":"image02.png"},{"uri":"image01.png"},{"uri":"image04.png"},{"uri":"image05.png"}],"samplers":[{"magFilter":9729,"minFilter":9987,"wrapS":10497,"wrapT":10497},{"magFilter":9729,"minFilter":9987,"wrapS":10497,"wrapT":10497},{"magFilter":9729,"minFilter":9987,"wrapS":10497,"wrapT":10497},{"magFilter":9729,"minFilter":9987,"wrapS":10497,"wrapT":10497},{"magFilter":9729,"minFilter":9987,"wrapS":10497,"wrapT":10497},{"magFilter":9729,"minFilter":9987,"wrapS":10497,"wrapT":10497}]}