{"asset":{"version":"2.0","generator":"babylon.js glTF exporter for maya 2018 v1.2.16","copyright":"2017 (c) BabylonJS"},"extensionsUsed":["KHR_lights"],"scene":0,"scenes":[{"nodes":[0,1,6,14,22],"extensions":{"KHR_lights":{"light":0}}}],"nodes":[{"translation":[0.0,0.0,0.0],"rotation":[0.0,0.0,0.0,1.0],"scale":[1.0,1.0,1.0],"name":"transform1"},{"children":[2,3,4,5],"translation":[0.0,0.0,0.0],"rotation":[0.0,-0.707106769,0.0,0.707106769],"scale":[1.0,1.0,1.0],"name":"cyj"},{"mesh":0,"translation":[0.0,0.0,0.0],"rotation":[0.0,0.0,0.0,1.0],"scale":[1.0,1.0,1.0],"name":"red_m"},{"mesh":1,"translation":[0.0,0.0,0.0],"rotation":[0.0,0.0,0.0,1.0],"scale":[1.0,1.0,1.0],"name":"penyouguan_m"},{"mesh":2,"translation":[0.0,0.0,0.0],"rotation":[0.0,0.0,0.0,1.0],"scale":[1.0,1.0,1.0],"name":"black_m"},{"mesh":3,"translation":[0.0,0.0,0.0],"rotation":[0.0,0.0,0.0,1.0],"scale":[1.0,1.0,1.0],"name":"aluminum_m"},{"children":[7,8,9,10,11,12,13],"translation":[0.0,0.0,0.0],"rotation":[0.0,0.0,0.0,1.0],"scale":[1.0,1.0,1.0],"name":"line"},{"mesh":4,"translation":[0.0,0.0,0.0],"rotation":[0.0,0.0,0.0,1.0],"scale":[1.0,1.0,1.0],"name":"l1"},{"mesh":5,"translation":[0.0,0.0,0.0],"rotation":[0.0,0.0,0.0,1.0],"scale":[1.0,1.0,1.0],"name":"l3"},{"mesh":6,"translation":[0.0,0.0,0.0],"rotation":[0.0,0.0,0.0,1.0],"scale":[1.0,1.0,1.0],"name":"l4"},{"mesh":7,"translation":[0.0,0.0,0.0],"rotation":[0.0,0.0,0.0,1.0],"scale":[1.0,1.0,1.0],"name":"l5"},{"mesh":8,"translation":[0.0,0.0,0.0],"rotation":[0.0,0.0,0.0,1.0],"scale":[1.0,1.0,1.0],"name":"l6"},{"mesh":9,"translation":[0.0,0.0,0.0],"rotation":[0.0,0.0,0.0,1.0],"scale":[1.0,1.0,1.0],"name":"l7"},{"mesh":10,"translation":[0.0,0.0,0.0],"rotation":[0.0,0.0,0.0,1.0],"scale":[1.0,1.0,1.0],"name":"l8"},{"children":[15,16,17,18,19,20,21],"translation":[0.0,0.0,0.0],"rotation":[0.0,0.0,0.0,1.0],"scale":[1.0,1.0,1.0],"name":"sphere"},{"mesh":11,"translation":[0.0,0.0,0.0],"rotation":[0.0,0.0,0.0,1.0],"scale":[1.0,1.0,1.0],"name":"s1"},{"mesh":12,"translation":[0.0,0.0,0.0],"rotation":[0.0,0.0,0.0,1.0],"scale":[1.0,1.0,1.0],"name":"s2"},{"mesh":13,"translation":[0.0,0.0,0.0],"rotation":[0.0,0.0,0.0,1.0],"scale":[1.0,1.0,1.0],"name":"s3"},{"mesh":14,"translation":[0.0,0.0,0.0],"rotation":[0.0,0.0,0.0,1.0],"scale":[1.0,1.0,1.0],"name":"s4"},{"mesh":15,"translation":[0.0,0.0,0.0],"rotation":[0.0,0.0,0.0,1.0],"scale":[1.0,1.0,1.0],"name":"s5"},{"mesh":16,"translation":[0.0,0.0,0.0],"rotation":[0.0,0.0,0.0,1.0],"scale":[1.0,1.0,1.0],"name":"s6"},{"mesh":17,"translation":[0.0,0.0,0.0],"rotation":[0.0,0.0,0.0,1.0],"scale":[1.0,1.0,1.0],"name":"s7"},{"children":[23,24,25,26,27,28,29],"translation":[0.0,0.0,0.0],"rotation":[0.0,0.0,0.0,1.0],"scale":[1.0,1.0,1.0],"name":"font"},{"mesh":18,"translation":[0.0,0.0,0.0],"rotation":[0.0,0.0,0.0,1.0],"scale":[1.0,1.0,1.0],"name":"f1"},{"mesh":19,"translation":[0.0,0.0,0.0],"rotation":[0.0,0.0,0.0,1.0],"scale":[1.0,1.0,1.0],"name":"f2"},{"mesh":20,"translation":[0.0,0.0,0.0],"rotation":[0.0,0.0,0.0,1.0],"scale":[1.0,1.0,1.0],"name":"f3"},{"mesh":21,"translation":[0.0,0.0,0.0],"rotation":[0.0,0.0,0.0,1.0],"scale":[1.0,1.0,1.0],"name":"f4"},{"mesh":22,"translation":[0.0,0.0,0.0],"rotation":[0.0,0.0,0.0,1.0],"scale":[1.0,1.0,1.0],"name":"f5"},{"mesh":23,"translation":[0.0,0.0,0.0],"rotation":[0.0,0.0,0.0,1.0],"scale":[1.0,1.0,1.0],"name":"f6"},{"mesh":24,"translation":[0.0,0.0,0.0],"rotation":[0.0,0.0,0.0,1.0],"scale":[1.0,1.0,1.0],"name":"f7"}],"meshes":[{"primitives":[{"attributes":{"POSITION":1,"NORMAL":2,"TANGENT":3,"TEXCOORD_0":4},"indices":0,"mode":4,"material":0}],"name":"red_m"},{"primitives":[{"attributes":{"POSITION":6,"NORMAL":7,"TANGENT":8,"TEXCOORD_0":9},"indices":5,"mode":4,"material":1}],"name":"penyouguan_m"},{"primitives":[{"attributes":{"POSITION":11,"NORMAL":12,"TANGENT":13,"TEXCOORD_0":14},"indices":10,"mode":4,"material":2}],"name":"black_m"},{"primitives":[{"attributes":{"POSITION":16,"NORMAL":17,"TANGENT":18},"indices":15,"mode":4,"material":3}],"name":"aluminum_m"},{"primitives":[{"attributes":{"POSITION":20,"NORMAL":21,"TANGENT":22,"TEXCOORD_0":23},"indices":19,"mode":4,"material":4}],"name":"l1"},{"primitives":[{"attributes":{"POSITION":25,"NORMAL":26,"TANGENT":27,"TEXCOORD_0":28},"indices":24,"mode":4,"material":4}],"name":"l3"},{"primitives":[{"attributes":{"POSITION":30,"NORMAL":31,"TANGENT":32,"TEXCOORD_0":33},"indices":29,"mode":4,"material":4}],"name":"l4"},{"primitives":[{"attributes":{"POSITION":35,"NORMAL":36,"TANGENT":37,"TEXCOORD_0":38},"indices":34,"mode":4,"material":4}],"name":"l5"},{"primitives":[{"attributes":{"POSITION":40,"NORMAL":41,"TANGENT":42,"TEXCOORD_0":43},"indices":39,"mode":4,"material":4}],"name":"l6"},{"primitives":[{"attributes":{"POSITION":45,"NORMAL":46,"TANGENT":47,"TEXCOORD_0":48},"indices":44,"mode":4,"material":4}],"name":"l7"},{"primitives":[{"attributes":{"POSITION":50,"NORMAL":51,"TANGENT":52,"TEXCOORD_0":53},"indices":49,"mode":4,"material":4}],"name":"l8"},{"primitives":[{"attributes":{"POSITION":55,"NORMAL":56,"TANGENT":57,"TEXCOORD_0":58},"indices":54,"mode":4,"material":5}],"name":"s1"},{"primitives":[{"attributes":{"POSITION":60,"NORMAL":61,"TANGENT":62,"TEXCOORD_0":63},"indices":59,"mode":4,"material":5}],"name":"s2"},{"primitives":[{"attributes":{"POSITION":65,"NORMAL":66,"TANGENT":67,"TEXCOORD_0":68},"indices":64,"mode":4,"material":5}],"name":"s3"},{"primitives":[{"attributes":{"POSITION":70,"NORMAL":71,"TANGENT":72,"TEXCOORD_0":73},"indices":69,"mode":4,"material":5}],"name":"s4"},{"primitives":[{"attributes":{"POSITION":75,"NORMAL":76,"TANGENT":77,"TEXCOORD_0":78},"indices":74,"mode":4,"material":5}],"name":"s5"},{"primitives":[{"attributes":{"POSITION":80,"NORMAL":81,"TANGENT":82,"TEXCOORD_0":83},"indices":79,"mode":4,"material":5}],"name":"s6"},{"primitives":[{"attributes":{"POSITION":85,"NORMAL":86,"TANGENT":87,"TEXCOORD_0":88},"indices":84,"mode":4,"material":5}],"name":"s7"},{"primitives":[{"attributes":{"POSITION":90,"NORMAL":91,"TANGENT":92,"COLOR_0":93,"TEXCOORD_0":94},"indices":89,"mode":4,"material":4}],"name":"f1"},{"primitives":[{"attributes":{"POSITION":96,"NORMAL":97,"TANGENT":98,"COLOR_0":99,"TEXCOORD_0":100},"indices":95,"mode":4,"material":4}],"name":"f2"},{"primitives":[{"attributes":{"POSITION":102,"NORMAL":103,"TANGENT":104,"COLOR_0":105,"TEXCOORD_0":106},"indices":101,"mode":4,"material":4}],"name":"f3"},{"primitives":[{"attributes":{"POSITION":108,"NORMAL":109,"TANGENT":110,"COLOR_0":111,"TEXCOORD_0":112},"indices":107,"mode":4,"material":4}],"name":"f4"},{"primitives":[{"attributes":{"POSITION":114,"NORMAL":115,"TANGENT":116,"COLOR_0":117,"TEXCOORD_0":118},"indices":113,"mode":4,"material":4}],"name":"f5"},{"primitives":[{"attributes":{"POSITION":120,"NORMAL":121,"TANGENT":122,"COLOR_0":123,"TEXCOORD_0":124},"indices":119,"mode":4,"material":4}],"name":"f6"},{"primitives":[{"attributes":{"POSITION":126,"NORMAL":127,"TANGENT":128,"COLOR_0":129,"TEXCOORD_0":130},"indices":125,"mode":4,"material":4}],"name":"f7"}],"accessors":[{"bufferView":0,"componentType":5123,"count":4140,"type":"SCALAR","name":"accessorIndices"},{"bufferView":1,"componentType":5126,"count":1227,"max":[3.4145143,64.84429,11.1414013],"min":[-4.12185431,30.1455669,-11.1414013],"type":"VEC3","name":"accessorPositions"},{"bufferView":1,"byteOffset":14724,"componentType":5126,"count":1227,"type":"VEC3","name":"accessorNormals"},{"bufferView":2,"componentType":5126,"count":1227,"type":"VEC4","name":"accessorTangents"},{"bufferView":3,"componentType":5126,"count":1227,"type":"VEC2","name":"accessorUVs"},{"bufferView":0,"byteOffset":8280,"componentType":5123,"count":3156,"type":"SCALAR","name":"accessorIndices"},{"bufferView":1,"byteOffset":29448,"componentType":5126,"count":1159,"max":[3.057742,65.445816,2.51029968],"min":[-3.08060932,-57.0791,-2.54268646],"type":"VEC3","name":"accessorPositions"},{"bufferView":1,"byteOffset":43356,"componentType":5126,"count":1159,"type":"VEC3","name":"accessorNormals"},{"bufferView":2,"byteOffset":19632,"componentType":5126,"count":1159,"type":"VEC4","name":"accessorTangents"},{"bufferView":3,"byteOffset":9816,"componentType":5126,"count":1159,"type":"VEC2","name":"accessorUVs"},{"bufferView":0,"byteOffset":14592,"componentType":5123,"count":23520,"type":"SCALAR","name":"accessorIndices"},{"bufferView":1,"byteOffset":57264,"componentType":5126,"count":6337,"max":[14.1411381,22.7376976,14.51684],"min":[-14.9029732,-56.65535,-14.5168447],"type":"VEC3","name":"accessorPositions"},{"bufferView":1,"byteOffset":133308,"componentType":5126,"count":6337,"type":"VEC3","name":"accessorNormals"},{"bufferView":2,"byteOffset":38176,"componentType":5126,"count":6337,"type":"VEC4","name":"accessorTangents"},{"bufferView":3,"byteOffset":19088,"componentType":5126,"count":6337,"type":"VEC2","name":"accessorUVs"},{"bufferView":0,"byteOffset":61632,"componentType":5123,"count":67584,"type":"SCALAR","name":"accessorIndices"},{"bufferView":1,"byteOffset":209352,"componentType":5126,"count":12018,"max":[3.78918529,58.2395325,32.3888855],"min":[-15.7311583,-69.19895,-32.3888855],"type":"VEC3","name":"accessorPositions"},{"bufferView":1,"byteOffset":353568,"componentType":5126,"count":12018,"type":"VEC3","name":"accessorNormals"},{"bufferView":2,"byteOffset":139568,"componentType":5126,"count":12018,"type":"VEC4","name":"accessorTangents"},{"bufferView":0,"byteOffset":196800,"componentType":5123,"count":36,"type":"SCALAR","name":"accessorIndices"},{"bufferView":1,"byteOffset":497784,"componentType":5126,"count":24,"max":[-17.1833649,43.79808,-3.457794],"min":[-70.18229,43.29808,-3.957794],"type":"VEC3","name":"accessorPositions"},{"bufferView":1,"byteOffset":498072,"componentType":5126,"count":24,"type":"VEC3","name":"accessorNormals"},{"bufferView":2,"byteOffset":331856,"componentType":5126,"count":24,"type":"VEC4","name":"accessorTangents"},{"bufferView":3,"byteOffset":69784,"componentType":5126,"count":24,"type":"VEC2","name":"accessorUVs"},{"bufferView":0,"byteOffset":196872,"componentType":5123,"count":36,"type":"SCALAR","name":"accessorIndices"},{"bufferView":1,"byteOffset":498360,"componentType":5126,"count":24,"max":[71.99652,43.6907,-3.4614296],"min":[16.1581,43.1907,-3.9614296],"type":"VEC3","name":"accessorPositions"},{"bufferView":1,"byteOffset":498648,"componentType":5126,"count":24,"type":"VEC3","name":"accessorNormals"},{"bufferView":2,"byteOffset":332240,"componentType":5126,"count":24,"type":"VEC4","name":"accessorTangents"},{"bufferView":3,"byteOffset":69976,"componentType":5126,"count":24,"type":"VEC2","name":"accessorUVs"},{"bufferView":0,"byteOffset":196944,"componentType":5123,"count":36,"type":"SCALAR","name":"accessorIndices"},{"bufferView":1,"byteOffset":498936,"componentType":5126,"count":24,"max":[-4.45403671,25.48051,0.480523616],"min":[-40.8675461,24.98051,-0.01947631],"type":"VEC3","name":"accessorPositions"},{"bufferView":1,"byteOffset":499224,"componentType":5126,"count":24,"type":"VEC3","name":"accessorNormals"},{"bufferView":2,"byteOffset":332624,"componentType":5126,"count":24,"type":"VEC4","name":"accessorTangents"},{"bufferView":3,"byteOffset":70168,"componentType":5126,"count":24,"type":"VEC2","name":"accessorUVs"},{"bufferView":0,"byteOffset":197016,"componentType":5123,"count":36,"type":"SCALAR","name":"accessorIndices"},{"bufferView":1,"byteOffset":499512,"componentType":5126,"count":24,"max":[71.34018,7.6963253,1.62244511],"min":[16.4934769,7.1963253,1.12244511],"type":"VEC3","name":"accessorPositions"},{"bufferView":1,"byteOffset":499800,"componentType":5126,"count":24,"type":"VEC3","name":"accessorNormals"},{"bufferView":2,"byteOffset":333008,"componentType":5126,"count":24,"type":"VEC4","name":"accessorTangents"},{"bufferView":3,"byteOffset":70360,"componentType":5126,"count":24,"type":"VEC2","name":"accessorUVs"},{"bufferView":0,"byteOffset":197088,"componentType":5123,"count":36,"type":"SCALAR","name":"accessorIndices"},{"bufferView":1,"byteOffset":500088,"componentType":5126,"count":24,"max":[-11.5761585,-30.9715347,0.480523616],"min":[-65.83942,-31.4715347,-0.01947631],"type":"VEC3","name":"accessorPositions"},{"bufferView":1,"byteOffset":500376,"componentType":5126,"count":24,"type":"VEC3","name":"accessorNormals"},{"bufferView":2,"byteOffset":333392,"componentType":5126,"count":24,"type":"VEC4","name":"accessorTangents"},{"bufferView":3,"byteOffset":70552,"componentType":5126,"count":24,"type":"VEC2","name":"accessorUVs"},{"bufferView":0,"byteOffset":197160,"componentType":5123,"count":36,"type":"SCALAR","name":"accessorIndices"},{"bufferView":1,"byteOffset":500664,"componentType":5126,"count":24,"max":[59.2377777,-54.3690872,4.516533],"min":[3.63124013,-54.8690872,4.016533],"type":"VEC3","name":"accessorPositions"},{"bufferView":1,"byteOffset":500952,"componentType":5126,"count":24,"type":"VEC3","name":"accessorNormals"},{"bufferView":2,"byteOffset":333776,"componentType":5126,"count":24,"type":"VEC4","name":"accessorTangents"},{"bufferView":3,"byteOffset":70744,"componentType":5126,"count":24,"type":"VEC2","name":"accessorUVs"},{"bufferView":0,"byteOffset":197232,"componentType":5123,"count":36,"type":"SCALAR","name":"accessorIndices"},{"bufferView":1,"byteOffset":501240,"componentType":5126,"count":24,"max":[-1.51294708,57.87581,1.91093326],"min":[-22.3078728,33.7587166,1.41093326],"type":"VEC3","name":"accessorPositions"},{"bufferView":1,"byteOffset":501528,"componentType":5126,"count":24,"type":"VEC3","name":"accessorNormals"},{"bufferView":2,"byteOffset":334160,"componentType":5126,"count":24,"type":"VEC4","name":"accessorTangents"},{"bufferView":3,"byteOffset":70936,"componentType":5126,"count":24,"type":"VEC2","name":"accessorUVs"},{"bufferView":0,"byteOffset":197304,"componentType":5123,"count":2280,"type":"SCALAR","name":"accessorIndices"},{"bufferView":1,"byteOffset":501816,"componentType":5126,"count":439,"max":[-16.9035625,44.558712,-2.70442486],"min":[-18.9035625,42.558712,-4.70442533],"type":"VEC3","name":"accessorPositions"},{"bufferView":1,"byteOffset":507084,"componentType":5126,"count":439,"type":"VEC3","name":"accessorNormals"},{"bufferView":2,"byteOffset":334544,"componentType":5126,"count":439,"type":"VEC4","name":"accessorTangents"},{"bufferView":3,"byteOffset":71128,"componentType":5126,"count":439,"type":"VEC2","name":"accessorUVs"},{"bufferView":0,"byteOffset":201864,"componentType":5123,"count":2280,"type":"SCALAR","name":"accessorIndices"},{"bufferView":1,"byteOffset":512352,"componentType":5126,"count":439,"max":[-0.09895754,34.133606,2.68275785],"min":[-2.09895778,32.133606,0.682757258],"type":"VEC3","name":"accessorPositions"},{"bufferView":1,"byteOffset":517620,"componentType":5126,"count":439,"type":"VEC3","name":"accessorNormals"},{"bufferView":2,"byteOffset":341568,"componentType":5126,"count":439,"type":"VEC4","name":"accessorTangents"},{"bufferView":3,"byteOffset":74640,"componentType":5126,"count":439,"type":"VEC2","name":"accessorUVs"},{"bufferView":0,"byteOffset":206424,"componentType":5123,"count":2280,"type":"SCALAR","name":"accessorIndices"},{"bufferView":1,"byteOffset":522888,"componentType":5126,"count":439,"max":[16.8953381,44.5032,-2.7739296],"min":[14.8953381,42.5032,-4.77393],"type":"VEC3","name":"accessorPositions"},{"bufferView":1,"byteOffset":528156,"componentType":5126,"count":439,"type":"VEC3","name":"accessorNormals"},{"bufferView":2,"byteOffset":348592,"componentType":5126,"count":439,"type":"VEC4","name":"accessorTangents"},{"bufferView":3,"byteOffset":78152,"componentType":5126,"count":439,"type":"VEC2","name":"accessorUVs"},{"bufferView":0,"byteOffset":210984,"componentType":5123,"count":2280,"type":"SCALAR","name":"accessorIndices"},{"bufferView":1,"byteOffset":533424,"componentType":5126,"count":439,"max":[-2.44946,26.29301,1.29302382],"min":[-4.44946,24.29301,-0.706976831],"type":"VEC3","name":"accessorPositions"},{"bufferView":1,"byteOffset":538692,"componentType":5126,"count":439,"type":"VEC3","name":"accessorNormals"},{"bufferView":2,"byteOffset":355616,"componentType":5126,"count":439,"type":"VEC4","name":"accessorTangents"},{"bufferView":3,"byteOffset":81664,"componentType":5126,"count":439,"type":"VEC2","name":"accessorUVs"},{"bufferView":0,"byteOffset":215544,"componentType":5123,"count":2280,"type":"SCALAR","name":"accessorIndices"},{"bufferView":1,"byteOffset":543960,"componentType":5126,"count":439,"max":[17.0354633,8.508825,2.434945],"min":[15.0354633,6.5088253,0.43494463],"type":"VEC3","name":"accessorPositions"},{"bufferView":1,"byteOffset":549228,"componentType":5126,"count":439,"type":"VEC3","name":"accessorNormals"},{"bufferView":2,"byteOffset":362640,"componentType":5126,"count":439,"type":"VEC4","name":"accessorTangents"},{"bufferView":3,"byteOffset":85176,"componentType":5126,"count":439,"type":"VEC2","name":"accessorUVs"},{"bufferView":0,"byteOffset":220104,"componentType":5123,"count":2280,"type":"SCALAR","name":"accessorIndices"},{"bufferView":1,"byteOffset":554496,"componentType":5126,"count":439,"max":[-10.198576,-30.2840347,1.16802382],"min":[-12.198576,-32.2840347,-0.831976831],"type":"VEC3","name":"accessorPositions"},{"bufferView":1,"byteOffset":559764,"componentType":5126,"count":439,"type":"VEC3","name":"accessorNormals"},{"bufferView":2,"byteOffset":369664,"componentType":5126,"count":439,"type":"VEC4","name":"accessorTangents"},{"bufferView":3,"byteOffset":88688,"componentType":5126,"count":439,"type":"VEC2","name":"accessorUVs"},{"bufferView":0,"byteOffset":224664,"componentType":5123,"count":2280,"type":"SCALAR","name":"accessorIndices"},{"bufferView":1,"byteOffset":565032,"componentType":5126,"count":439,"max":[4.12110043,-53.5565872,5.204033],"min":[2.12110019,-55.5565872,3.20403242],"type":"VEC3","name":"accessorPositions"},{"bufferView":1,"byteOffset":570300,"componentType":5126,"count":439,"type":"VEC3","name":"accessorNormals"},{"bufferView":2,"byteOffset":376688,"componentType":5126,"count":439,"type":"VEC4","name":"accessorTangents"},{"bufferView":3,"byteOffset":92200,"componentType":5126,"count":439,"type":"VEC2","name":"accessorUVs"},{"bufferView":0,"byteOffset":229224,"componentType":5123,"count":2292,"type":"SCALAR","name":"accessorIndices"},{"bufferView":1,"byteOffset":575568,"componentType":5126,"count":968,"max":[-70.8577652,46.7179222,-3.43831778],"min":[-90.2171,40.53754,-3.93831778],"type":"VEC3","name":"accessorPositions"},{"bufferView":1,"byteOffset":587184,"componentType":5126,"count":968,"type":"VEC3","name":"accessorNormals"},{"bufferView":2,"byteOffset":383712,"componentType":5126,"count":968,"type":"VEC4","name":"accessorTangents"},{"bufferView":2,"byteOffset":399200,"componentType":5126,"count":968,"type":"VEC4","name":"accessorColors"},{"bufferView":3,"byteOffset":95712,"componentType":5126,"count":968,"type":"VEC2","name":"accessorUVs"},{"bufferView":0,"byteOffset":233808,"componentType":5123,"count":3348,"type":"SCALAR","name":"accessorIndices"},{"bufferView":1,"byteOffset":598800,"componentType":5126,"count":1488,"max":[-24.1182976,63.3626976,1.93907082],"min":[-43.5854,57.1962624,1.43907082],"type":"VEC3","name":"accessorPositions"},{"bufferView":1,"byteOffset":616656,"componentType":5126,"count":1488,"type":"VEC3","name":"accessorNormals"},{"bufferView":2,"byteOffset":414688,"componentType":5126,"count":1488,"type":"VEC4","name":"accessorTangents"},{"bufferView":2,"byteOffset":438496,"componentType":5126,"count":1488,"type":"VEC4","name":"accessorColors"},{"bufferView":3,"byteOffset":103456,"componentType":5126,"count":1488,"type":"VEC2","name":"accessorUVs"},{"bufferView":0,"byteOffset":240504,"componentType":5123,"count":1884,"type":"SCALAR","name":"accessorIndices"},{"bufferView":1,"byteOffset":634512,"componentType":5126,"count":850,"max":[92.88136,46.9535522,-3.5239296],"min":[73.54232,40.77317,-4.0239296],"type":"VEC3","name":"accessorPositions"},{"bufferView":1,"byteOffset":644712,"componentType":5126,"count":850,"type":"VEC3","name":"accessorNormals"},{"bufferView":2,"byteOffset":462304,"componentType":5126,"count":850,"type":"VEC4","name":"accessorTangents"},{"bufferView":2,"byteOffset":475904,"componentType":5126,"count":850,"type":"VEC4","name":"accessorColors"},{"bufferView":3,"byteOffset":115360,"componentType":5126,"count":850,"type":"VEC2","name":"accessorUVs"},{"bufferView":0,"byteOffset":244272,"componentType":5123,"count":1308,"type":"SCALAR","name":"accessorIndices"},{"bufferView":1,"byteOffset":654912,"componentType":5126,"count":586,"max":[-41.0599442,28.0931778,0.5],"min":[-54.0559,21.8451786,0.0],"type":"VEC3","name":"accessorPositions"},{"bufferView":1,"byteOffset":661944,"componentType":5126,"count":586,"type":"VEC3","name":"accessorNormals"},{"bufferView":2,"byteOffset":489504,"componentType":5126,"count":586,"type":"VEC4","name":"accessorTangents"},{"bufferView":2,"byteOffset":498880,"componentType":5126,"count":586,"type":"VEC4","name":"accessorColors"},{"bufferView":3,"byteOffset":122160,"componentType":5126,"count":586,"type":"VEC2","name":"accessorUVs"},{"bufferView":0,"byteOffset":246888,"componentType":5123,"count":1884,"type":"SCALAR","name":"accessorIndices"},{"bufferView":1,"byteOffset":668976,"componentType":5126,"count":868,"max":[84.42553,11.0932255,1.93494511],"min":[71.4832458,4.90650463,1.43494511],"type":"VEC3","name":"accessorPositions"},{"bufferView":1,"byteOffset":679392,"componentType":5126,"count":868,"type":"VEC3","name":"accessorNormals"},{"bufferView":2,"byteOffset":508256,"componentType":5126,"count":868,"type":"VEC4","name":"accessorTangents"},{"bufferView":2,"byteOffset":522144,"componentType":5126,"count":868,"type":"VEC4","name":"accessorColors"},{"bufferView":3,"byteOffset":126848,"componentType":5126,"count":868,"type":"VEC2","name":"accessorUVs"},{"bufferView":0,"byteOffset":250656,"componentType":5123,"count":1632,"type":"SCALAR","name":"accessorIndices"},{"bufferView":1,"byteOffset":689808,"componentType":5126,"count":730,"max":[-66.75616,-28.2119522,0.5],"min":[-79.74577,-34.3783875,0.0],"type":"VEC3","name":"accessorPositions"},{"bufferView":1,"byteOffset":698568,"componentType":5126,"count":730,"type":"VEC3","name":"accessorNormals"},{"bufferView":2,"byteOffset":536032,"componentType":5126,"count":730,"type":"VEC4","name":"accessorTangents"},{"bufferView":2,"byteOffset":547712,"componentType":5126,"count":730,"type":"VEC4","name":"accessorColors"},{"bufferView":3,"byteOffset":133792,"componentType":5126,"count":730,"type":"VEC2","name":"accessorUVs"},{"bufferView":0,"byteOffset":253920,"componentType":5123,"count":1440,"type":"SCALAR","name":"accessorIndices"},{"bufferView":1,"byteOffset":707328,"componentType":5126,"count":650,"max":[72.544,-51.11131,4.47475767],"min":[60.2246475,-57.2781677,3.97475767],"type":"VEC3","name":"accessorPositions"},{"bufferView":1,"byteOffset":715128,"componentType":5126,"count":650,"type":"VEC3","name":"accessorNormals"},{"bufferView":2,"byteOffset":559392,"componentType":5126,"count":650,"type":"VEC4","name":"accessorTangents"},{"bufferView":2,"byteOffset":569792,"componentType":5126,"count":650,"type":"VEC4","name":"accessorColors"},{"bufferView":3,"byteOffset":139632,"componentType":5126,"count":650,"type":"VEC2","name":"accessorUVs"}],"bufferViews":[{"buffer":0,"byteLength":256800,"name":"bufferViewScalar"},{"buffer":0,"byteOffset":256800,"byteLength":722928,"byteStride":12,"name":"bufferViewFloatVec3"},{"buffer":0,"byteOffset":979728,"byteLength":580192,"byteStride":16,"name":"bufferViewFloatVec4"},{"buffer":0,"byteOffset":1559920,"byteLength":144832,"byteStride":8,"name":"bufferViewFloatVec2"}],"buffers":[{"uri":"chaiyouji.bin","byteLength":1704752}],"materials":[{"pbrMetallicRoughness":{"baseColorFactor":[0.9,0.9,0.9,1.0],"metallicFactor":0.0,"roughnessFactor":0.33},"emissiveFactor":[0.0,0.0,0.0],"alphaMode":"OPAQUE","name":"red"},{"pbrMetallicRoughness":{"baseColorFactor":[0.163,0.1669,0.2375,1.0],"metallicFactor":0.9689441,"roughnessFactor":0.33},"emissiveFactor":[0.0,0.0,0.0],"alphaMode":"OPAQUE","name":"penyouguan"},{"pbrMetallicRoughness":{"baseColorFactor":[0.35,0.35,0.35,1.0],"metallicFactor":0.931677,"roughnessFactor":0.33},"emissiveFactor":[0.0,0.0,0.0],"alphaMode":"OPAQUE","name":"black"},{"pbrMetallicRoughness":{"baseColorFactor":[0.5,0.5,0.5,1.0],"metallicFactor":0.785714269,"roughnessFactor":0.33},"emissiveFactor":[0.0,0.0,0.0],"alphaMode":"OPAQUE","name":"aluminum"},{"pbrMetallicRoughness":{"baseColorFactor":[0.522812545,0.522812545,0.522812545,1.0],"metallicFactor":0.0,"roughnessFactor":0.9},"emissiveFactor":[0.0,0.0,0.0],"alphaMode":"OPAQUE","name":"font_line_m"},{"pbrMetallicRoughness":{"baseColorFactor":[0.0,0.3529,1.0,1.0],"metallicFactor":0.0,"roughnessFactor":0.5175824},"emissiveFactor":[0.0,0.009526054,0.0270000026],"alphaMode":"OPAQUE","name":"sphere_m"}],"extensions":{"KHR_lights":{"lights":[{"color":[1.0,1.0,1.0],"intensity":1.0,"type":"ambient"}]}}}