{"asset":{"version":"2.0","generator":"babylon.js glTF exporter for maya 2018 v1.2.16","copyright":"2017 (c) BabylonJS"},"extensionsUsed":["KHR_lights"],"scene":0,"scenes":[{"nodes":[0,1,2,3,4,5],"extensions":{"KHR_lights":{"light":0}}}],"nodes":[{"mesh":0,"translation":[0.0,0.0,0.0],"rotation":[0.0,0.0,0.0,1.0],"scale":[1.0,1.0,1.0],"name":"black_m"},{"mesh":1,"translation":[0.0,0.0,0.0],"rotation":[0.0,0.0,0.0,1.0],"scale":[1.0,1.0,1.0],"name":"white_m"},{"mesh":2,"translation":[0.0,0.0,0.0],"rotation":[0.0,0.0,0.0,1.0],"scale":[1.0,1.0,1.0],"name":"red_m"},{"mesh":3,"translation":[0.0,0.0,0.0],"rotation":[0.0,0.0,0.0,1.0],"scale":[1.0,1.0,1.0],"name":"black_rough_m"},{"mesh":4,"translation":[0.0,0.0,0.0],"rotation":[0.0,0.0,0.0,1.0],"scale":[1.0,1.0,1.0],"name":"black_more_m"},{"mesh":5,"translation":[0.0,0.0,0.0],"rotation":[0.0,0.0,0.0,1.0],"scale":[1.0,1.0,1.0],"name":"aluminum_m"}],"meshes":[{"primitives":[{"attributes":{"POSITION":1,"NORMAL":2,"TANGENT":3},"indices":0,"mode":4,"material":0}],"name":"black_m"},{"primitives":[{"attributes":{"POSITION":5,"NORMAL":6,"TANGENT":7,"TEXCOORD_0":8},"indices":4,"mode":4,"material":1}],"name":"white_m"},{"primitives":[{"attributes":{"POSITION":10,"NORMAL":11,"TANGENT":12,"TEXCOORD_0":13},"indices":9,"mode":4,"material":2}],"name":"red_m"},{"primitives":[{"attributes":{"POSITION":15,"NORMAL":16,"TANGENT":17,"TEXCOORD_0":18},"indices":14,"mode":4,"material":3}],"name":"black_rough_m"},{"primitives":[{"attributes":{"POSITION":20,"NORMAL":21,"TANGENT":22,"TEXCOORD_0":23},"indices":19,"mode":4,"material":4}],"name":"black_more_m"},{"primitives":[{"attributes":{"POSITION":25,"NORMAL":26,"TANGENT":27,"TEXCOORD_0":28},"indices":24,"mode":4,"material":5}],"name":"aluminum_m"}],"accessors":[{"bufferView":0,"componentType":5123,"count":27942,"type":"SCALAR","name":"accessorIndices"},{"bufferView":1,"componentType":5126,"count":6150,"max":[24.0002327,51.69068,21.4485188],"min":[-24.0002327,-106.074348,-19.6898155],"type":"VEC3","name":"accessorPositions"},{"bufferView":1,"byteOffset":73800,"componentType":5126,"count":6150,"type":"VEC3","name":"accessorNormals"},{"bufferView":2,"componentType":5126,"count":6150,"type":"VEC4","name":"accessorTangents"},{"bufferView":0,"byteOffset":55884,"componentType":5123,"count":23076,"type":"SCALAR","name":"accessorIndices"},{"bufferView":1,"byteOffset":147600,"componentType":5126,"count":8422,"max":[26.4165764,57.8062019,18.7189846],"min":[-26.4165764,-3.06806183,-2.97997117],"type":"VEC3","name":"accessorPositions"},{"bufferView":1,"byteOffset":248664,"componentType":5126,"count":8422,"type":"VEC3","name":"accessorNormals"},{"bufferView":2,"byteOffset":98400,"componentType":5126,"count":8422,"type":"VEC4","name":"accessorTangents"},{"bufferView":3,"componentType":5126,"count":8422,"type":"VEC2","name":"accessorUVs"},{"bufferView":0,"byteOffset":102036,"componentType":5123,"count":38544,"type":"SCALAR","name":"accessorIndices"},{"bufferView":1,"byteOffset":349728,"componentType":5126,"count":7300,"max":[24.1596184,33.3910751,16.2004433],"min":[-24.1596184,27.26127,-0.6924356],"type":"VEC3","name":"accessorPositions"},{"bufferView":1,"byteOffset":437328,"componentType":5126,"count":7300,"type":"VEC3","name":"accessorNormals"},{"bufferView":2,"byteOffset":233152,"componentType":5126,"count":7300,"type":"VEC4","name":"accessorTangents"},{"bufferView":3,"byteOffset":67376,"componentType":5126,"count":7300,"type":"VEC2","name":"accessorUVs"},{"bufferView":0,"byteOffset":179124,"componentType":5123,"count":1626,"type":"SCALAR","name":"accessorIndices"},{"bufferView":1,"byteOffset":524928,"componentType":5126,"count":780,"max":[3.01422882,7.3113637,12.602787],"min":[-2.76330948,-4.7848053,6.82525253],"type":"VEC3","name":"accessorPositions"},{"bufferView":1,"byteOffset":534288,"componentType":5126,"count":780,"type":"VEC3","name":"accessorNormals"},{"bufferView":2,"byteOffset":349952,"componentType":5126,"count":780,"type":"VEC4","name":"accessorTangents"},{"bufferView":3,"byteOffset":125776,"componentType":5126,"count":780,"type":"VEC2","name":"accessorUVs"},{"bufferView":0,"byteOffset":182376,"componentType":5123,"count":5130,"type":"SCALAR","name":"accessorIndices"},{"bufferView":1,"byteOffset":543648,"componentType":5126,"count":1532,"max":[3.8708,10.5374184,13.4524117],"min":[-3.61988449,-3.60569,5.97563171],"type":"VEC3","name":"accessorPositions"},{"bufferView":1,"byteOffset":562032,"componentType":5126,"count":1532,"type":"VEC3","name":"accessorNormals"},{"bufferView":2,"byteOffset":362432,"componentType":5126,"count":1532,"type":"VEC4","name":"accessorTangents"},{"bufferView":3,"byteOffset":132016,"componentType":5126,"count":1532,"type":"VEC2","name":"accessorUVs"},{"bufferView":0,"byteOffset":192636,"componentType":5123,"count":14112,"type":"SCALAR","name":"accessorIndices"},{"bufferView":1,"byteOffset":580416,"componentType":5126,"count":4454,"max":[51.71198,63.41326,18.66507],"min":[-51.68103,-122.513023,-20.9733677],"type":"VEC3","name":"accessorPositions"},{"bufferView":1,"byteOffset":633864,"componentType":5126,"count":4454,"type":"VEC3","name":"accessorNormals"},{"bufferView":2,"byteOffset":386944,"componentType":5126,"count":4454,"type":"VEC4","name":"accessorTangents"},{"bufferView":3,"byteOffset":144272,"componentType":5126,"count":4454,"type":"VEC2","name":"accessorUVs"}],"bufferViews":[{"buffer":0,"byteLength":220860,"name":"bufferViewScalar"},{"buffer":0,"byteOffset":220860,"byteLength":687312,"byteStride":12,"name":"bufferViewFloatVec3"},{"buffer":0,"byteOffset":908172,"byteLength":458208,"byteStride":16,"name":"bufferViewFloatVec4"},{"buffer":0,"byteOffset":1366380,"byteLength":179904,"byteStride":8,"name":"bufferViewFloatVec2"}],"buffers":[{"uri":"qyj.bin","byteLength":1546284}],"materials":[{"pbrMetallicRoughness":{"baseColorFactor":[0.286666662,0.286666662,0.286666662,1.0],"metallicFactor":0.931677043,"roughnessFactor":0.33},"emissiveFactor":[0.0,0.0,0.0],"alphaMode":"OPAQUE","name":"black"},{"pbrMetallicRoughness":{"baseColorFactor":[0.896666646,0.896666646,0.896666646,1.0],"metallicFactor":0.0,"roughnessFactor":0.33},"emissiveFactor":[0.0,0.0,0.0],"alphaMode":"OPAQUE","name":"white"},{"pbrMetallicRoughness":{"baseColorFactor":[1.0,0.0580000281,0.0580000281,1.0],"metallicFactor":0.760869563,"roughnessFactor":0.33},"emissiveFactor":[0.0,0.0,0.0],"alphaMode":"OPAQUE","name":"red"},{"pbrMetallicRoughness":{"baseColorFactor":[0.143333331,0.143333331,0.143333331,1.0],"metallicFactor":0.931677043,"roughnessFactor":0.669726968},"emissiveFactor":[0.0,0.0,0.0],"alphaMode":"OPAQUE","name":"black_rough"},{"pbrMetallicRoughness":{"baseColorFactor":[0.0,0.0,0.0,1.0],"metallicFactor":0.0,"roughnessFactor":0.6},"emissiveFactor":[0.0,0.0,0.0],"alphaMode":"OPAQUE","name":"black_more"},{"pbrMetallicRoughness":{"baseColorFactor":[0.5,0.5,0.5,1.0],"metallicFactor":0.785714269,"roughnessFactor":0.33},"emissiveFactor":[0.0,0.0,0.0],"alphaMode":"OPAQUE","name":"aluminum"}],"extensions":{"KHR_lights":{"lights":[{"color":[1.0,1.0,1.0],"intensity":1.0,"type":"ambient"}]}}}