{"asset":{"version":"2.0","generator":"Babylon2Gltf2017","copyright":"2017 (c) BabylonJS"},"scene":0,"scenes":[{"nodes":[0]}],"nodes":[{"mesh":0,"translation":[0.0,0.0,0.0],"rotation":[0.0,0.0,0.0,-1.0],"scale":[0.9717937,0.9717937,0.9717937],"name":"Sphere007"}],"meshes":[{"primitives":[{"attributes":{"POSITION":1,"NORMAL":2,"TEXCOORD_0":3},"indices":0,"mode":4,"material":0},{"attributes":{"POSITION":5,"NORMAL":6,"TEXCOORD_0":7},"indices":4,"mode":4,"material":1}],"name":"Sphere007"}],"accessors":[{"bufferView":0,"componentType":5125,"count":58800,"type":"SCALAR","name":"accessorIndices"},{"bufferView":1,"componentType":5126,"count":58800,"max":[1.30000019,1.30000019,2.32902527],"min":[-1.30000019,-1.30000019,-2.32902551],"type":"VEC3","name":"accessorPositions"},{"bufferView":1,"byteOffset":705600,"componentType":5126,"count":58800,"type":"VEC3","name":"accessorNormals"},{"bufferView":2,"componentType":5126,"count":58800,"type":"VEC2","name":"accessorUVs"},{"bufferView":0,"byteOffset":235200,"componentType":5125,"count":58800,"type":"SCALAR","name":"accessorIndices"},{"bufferView":1,"byteOffset":1411200,"componentType":5126,"count":58800,"max":[2.32902551,1.30000019,1.30000007],"min":[-2.32902551,-1.30000019,-1.30000043],"type":"VEC3","name":"accessorPositions"},{"bufferView":1,"byteOffset":2116800,"componentType":5126,"count":58800,"type":"VEC3","name":"accessorNormals"},{"bufferView":2,"byteOffset":470400,"componentType":5126,"count":58800,"type":"VEC2","name":"accessorUVs"}],"bufferViews":[{"buffer":0,"byteLength":470400,"name":"bufferViewScalar"},{"buffer":0,"byteOffset":470400,"byteLength":2822400,"byteStride":12,"name":"bufferViewFloatVec3"},{"buffer":0,"byteOffset":3292800,"byteLength":940800,"byteStride":8,"name":"bufferViewFloatVec2"}],"buffers":[{"uri":"alz.bin","byteLength":4233600}],"materials":[{"pbrMetallicRoughness":{"baseColorFactor":[1.0,1.0,1.0,1.0],"baseColorTexture":{"index":0},"metallicFactor":0.0,"roughnessFactor":0.9},"emissiveFactor":[0.0,0.0,0.0],"alphaMode":"BLEND","name":"Material28"},{"pbrMetallicRoughness":{"baseColorFactor":[1.0,1.0,1.0,1.0],"baseColorTexture":{"index":1},"metallicFactor":0.0,"roughnessFactor":0.9},"emissiveFactor":[0.0,0.0,0.0],"alphaMode":"BLEND","name":"Material27"}],"textures":[{"sampler":0,"source":0,"name":"Material28_baseColor.png"},{"sampler":1,"source":1,"name":"Material27_baseColor.png"}],"images":[{"uri":"Material28_baseColor.png"},{"uri":"Material27_baseColor.png"}],"samplers":[{"magFilter":9729,"minFilter":9987,"wrapS":10497,"wrapT":10497},{"magFilter":9729,"minFilter":9987,"wrapS":10497,"wrapT":10497}]}