{"asset":{"version":"2.0","generator":"Babylon2Gltf2017","copyright":"2017 (c) BabylonJS"},"scene":0,"scenes":[{"nodes":[0]}],"nodes":[{"mesh":0,"translation":[0.0,4.768192E-07,-1.1920929E-07],"rotation":[0.0,0.0,0.707106769,-0.707106769],"scale":[1.0,1.0,1.0],"name":"Cylinder001"}],"meshes":[{"primitives":[{"attributes":{"POSITION":1,"NORMAL":2,"TEXCOORD_0":3},"indices":0,"mode":4,"material":0}],"name":"Cylinder001"}],"accessors":[{"bufferView":0,"componentType":5123,"count":714,"type":"SCALAR","name":"accessorIndices"},{"bufferView":1,"componentType":5126,"count":714,"max":[2.12230015,32.7267,2.110674],"min":[-2.12230015,-32.7267,-2.110674],"type":"VEC3","name":"accessorPositions"},{"bufferView":1,"byteOffset":8568,"componentType":5126,"count":714,"type":"VEC3","name":"accessorNormals"},{"bufferView":2,"componentType":5126,"count":714,"type":"VEC2","name":"accessorUVs"}],"bufferViews":[{"buffer":0,"byteLength":1428,"name":"bufferViewScalar"},{"buffer":0,"byteOffset":1428,"byteLength":17136,"byteStride":12,"name":"bufferViewFloatVec3"},{"buffer":0,"byteOffset":18564,"byteLength":5712,"byteStride":8,"name":"bufferViewFloatVec2"}],"buffers":[{"uri":"JT.bin","byteLength":24276}],"materials":[{"pbrMetallicRoughness":{"baseColorFactor":[1.0,1.0,1.0,1.0],"baseColorTexture":{"index":0},"metallicFactor":0.0,"roughnessFactor":0.9},"emissiveFactor":[0.0,0.0,0.0],"alphaMode":"BLEND","name":"Material #26"}],"textures":[{"sampler":0,"source":0,"name":"Material26_baseColor.png"}],"images":[{"uri":"Material26_baseColor.png"}],"samplers":[{"magFilter":9729,"minFilter":9987,"wrapS":10497,"wrapT":10497}]}