{"asset":{"version":"2.0","generator":"Babylon2Gltf2017","copyright":"2017 (c) BabylonJS"},"scene":0,"scenes":[{"nodes":[0]}],"nodes":[{"mesh":0,"translation":[0.0,0.0,0.0],"rotation":[0.0,0.0,0.0,-1.0],"scale":[0.164473236,0.164473236,0.164473236],"name":"对象002"}],"meshes":[{"primitives":[{"attributes":{"POSITION":1,"NORMAL":2,"TEXCOORD_0":3},"indices":0,"mode":4,"material":0},{"attributes":{"POSITION":5,"NORMAL":6,"TEXCOORD_0":7},"indices":4,"mode":4,"material":1},{"attributes":{"POSITION":9,"NORMAL":10,"TEXCOORD_0":11},"indices":8,"mode":4,"material":2},{"attributes":{"POSITION":13,"NORMAL":14,"TEXCOORD_0":15},"indices":12,"mode":4,"material":3}],"name":"对象002"}],"accessors":[{"bufferView":0,"componentType":5125,"count":32040,"type":"SCALAR","name":"accessorIndices"},{"bufferView":1,"componentType":5126,"count":32040,"max":[274.3344,-11.2398987,71.4773],"min":[12.4567232,-291.721069,-71.4773],"type":"VEC3","name":"accessorPositions"},{"bufferView":1,"byteOffset":384480,"componentType":5126,"count":32040,"type":"VEC3","name":"accessorNormals"},{"bufferView":2,"componentType":5126,"count":32040,"type":"VEC2","name":"accessorUVs"},{"bufferView":0,"byteOffset":128160,"componentType":5125,"count":32040,"type":"SCALAR","name":"accessorIndices"},{"bufferView":1,"byteOffset":768960,"componentType":5126,"count":32040,"max":[-12.4566307,-10.8981171,71.4773],"min":[-274.33432,-291.379272,-71.47749],"type":"VEC3","name":"accessorPositions"},{"bufferView":1,"byteOffset":1153440,"componentType":5126,"count":32040,"type":"VEC3","name":"accessorNormals"},{"bufferView":2,"byteOffset":256320,"componentType":5126,"count":32040,"type":"VEC2","name":"accessorUVs"},{"bufferView":0,"byteOffset":256320,"componentType":5125,"count":32040,"type":"SCALAR","name":"accessorIndices"},{"bufferView":1,"byteOffset":1537920,"componentType":5126,"count":32040,"max":[-10.2824793,291.721069,71.4773],"min":[-272.160065,11.2398987,-71.47749],"type":"VEC3","name":"accessorPositions"},{"bufferView":1,"byteOffset":1922400,"componentType":5126,"count":32040,"type":"VEC3","name":"accessorNormals"},{"bufferView":2,"byteOffset":512640,"componentType":5126,"count":32040,"type":"VEC2","name":"accessorUVs"},{"bufferView":0,"byteOffset":384480,"componentType":5125,"count":32040,"type":"SCALAR","name":"accessorIndices"},{"bufferView":1,"byteOffset":2306880,"componentType":5126,"count":32040,"max":[273.54425,291.721069,71.4773],"min":[11.66657,11.2398834,-71.47749],"type":"VEC3","name":"accessorPositions"},{"bufferView":1,"byteOffset":2691360,"componentType":5126,"count":32040,"type":"VEC3","name":"accessorNormals"},{"bufferView":2,"byteOffset":768960,"componentType":5126,"count":32040,"type":"VEC2","name":"accessorUVs"}],"bufferViews":[{"buffer":0,"byteLength":512640,"name":"bufferViewScalar"},{"buffer":0,"byteOffset":512640,"byteLength":3075840,"byteStride":12,"name":"bufferViewFloatVec3"},{"buffer":0,"byteOffset":3588480,"byteLength":1025280,"byteStride":8,"name":"bufferViewFloatVec2"}],"buffers":[{"uri":"ke.bin","byteLength":4613760}],"materials":[{"pbrMetallicRoughness":{"baseColorFactor":[1.0,1.0,1.0,1.0],"baseColorTexture":{"index":0},"metallicFactor":0.0,"roughnessFactor":0.9},"emissiveFactor":[0.0,0.0,0.0],"alphaMode":"BLEND","name":"Material3"},{"pbrMetallicRoughness":{"baseColorFactor":[1.0,1.0,1.0,1.0],"baseColorTexture":{"index":1},"metallicFactor":0.0,"roughnessFactor":0.9},"emissiveFactor":[0.0,0.0,0.0],"alphaMode":"BLEND","name":"Material2"},{"pbrMetallicRoughness":{"baseColorFactor":[1.0,1.0,1.0,1.0],"baseColorTexture":{"index":2},"metallicFactor":0.0,"roughnessFactor":0.9},"emissiveFactor":[0.0,0.0,0.0],"alphaMode":"BLEND","name":"Material0"},{"pbrMetallicRoughness":{"baseColorFactor":[1.0,1.0,1.0,1.0],"baseColorTexture":{"index":3},"metallicFactor":0.0,"roughnessFactor":0.9},"emissiveFactor":[0.0,0.0,0.0],"alphaMode":"BLEND","name":"Material1"}],"textures":[{"sampler":0,"source":0,"name":"Material3_baseColor.png"},{"sampler":1,"source":1,"name":"Material2_baseColor.png"},{"sampler":2,"source":2,"name":"Material0_baseColor.png"},{"sampler":3,"source":3,"name":"Material1_baseColor.png"}],"images":[{"uri":"Material3_baseColor.png"},{"uri":"Material2_baseColor.png"},{"uri":"Material0_baseColor.png"},{"uri":"Material1_baseColor.png"}],"samplers":[{"magFilter":9729,"minFilter":9987,"wrapS":10497,"wrapT":10497},{"magFilter":9729,"minFilter":9987,"wrapS":10497,"wrapT":10497},{"magFilter":9729,"minFilter":9987,"wrapS":10497,"wrapT":10497},{"magFilter":9729,"minFilter":9987,"wrapS":10497,"wrapT":10497}]}