{"asset":{"version":"2.0","generator":"Babylon2Gltf2017","copyright":"2017 (c) BabylonJS"},"scene":0,"scenes":[{"nodes":[0]}],"nodes":[{"mesh":0,"translation":[0.0,0.0,0.0],"rotation":[0.0,0.0,0.0,-1.0],"scale":[0.164473236,0.164473236,0.164473236],"name":"Box002"}],"meshes":[{"primitives":[{"attributes":{"POSITION":1,"NORMAL":2,"TEXCOORD_0":3},"indices":0,"mode":4,"material":0},{"attributes":{"POSITION":5,"NORMAL":6,"TEXCOORD_0":7},"indices":4,"mode":4,"material":1},{"attributes":{"POSITION":9,"NORMAL":10,"TEXCOORD_0":11},"indices":8,"mode":4,"material":2}],"name":"Box002"}],"accessors":[{"bufferView":0,"componentType":5125,"count":3600,"type":"SCALAR","name":"accessorIndices"},{"bufferView":1,"componentType":5126,"count":3600,"max":[150.490891,130.589981,45.1488724],"min":[-150.4908,-130.59,-45.14906],"type":"VEC3","name":"accessorPositions"},{"bufferView":1,"byteOffset":43200,"componentType":5126,"count":3600,"type":"VEC3","name":"accessorNormals"},{"bufferView":2,"componentType":5126,"count":3600,"type":"VEC2","name":"accessorUVs"},{"bufferView":0,"byteOffset":14400,"componentType":5125,"count":601920,"type":"SCALAR","name":"accessorIndices"},{"bufferView":1,"byteOffset":86400,"componentType":5126,"count":601920,"max":[269.6499,285.785431,69.4518661],"min":[-269.6499,-285.785431,-69.45206],"type":"VEC3","name":"accessorPositions"},{"bufferView":1,"byteOffset":7309440,"componentType":5126,"count":601920,"type":"VEC3","name":"accessorNormals"},{"bufferView":2,"byteOffset":28800,"componentType":5126,"count":601920,"type":"VEC2","name":"accessorUVs"},{"bufferView":0,"byteOffset":2422080,"componentType":5125,"count":10080,"type":"SCALAR","name":"accessorIndices"},{"bufferView":1,"byteOffset":14532480,"componentType":5126,"count":10080,"max":[144.065109,121.455605,31.564579],"min":[-144.065018,-121.455627,-31.564579],"type":"VEC3","name":"accessorPositions"},{"bufferView":1,"byteOffset":14653440,"componentType":5126,"count":10080,"type":"VEC3","name":"accessorNormals"},{"bufferView":2,"byteOffset":4844160,"componentType":5126,"count":10080,"type":"VEC2","name":"accessorUVs"}],"bufferViews":[{"buffer":0,"byteLength":2462400,"name":"bufferViewScalar"},{"buffer":0,"byteOffset":2462400,"byteLength":14774400,"byteStride":12,"name":"bufferViewFloatVec3"},{"buffer":0,"byteOffset":17236800,"byteLength":4924800,"byteStride":8,"name":"bufferViewFloatVec2"}],"buffers":[{"uri":"nei.bin","byteLength":22161600}],"materials":[{"pbrMetallicRoughness":{"baseColorFactor":[1.0,1.0,1.0,1.0],"baseColorTexture":{"index":0},"metallicFactor":0.0,"roughnessFactor":0.9},"emissiveFactor":[0.0,0.0,0.0],"alphaMode":"BLEND","name":"Material4"},{"pbrMetallicRoughness":{"baseColorFactor":[1.0,1.0,1.0,1.0],"baseColorTexture":{"index":1},"metallicFactor":0.0,"roughnessFactor":0.9},"emissiveFactor":[0.0,0.0,0.0],"alphaMode":"BLEND","name":"Material7"},{"pbrMetallicRoughness":{"baseColorFactor":[1.0,1.0,1.0,1.0],"baseColorTexture":{"index":2},"metallicFactor":0.0,"roughnessFactor":0.9},"emissiveFactor":[0.0,0.0,0.0],"alphaMode":"BLEND","name":"Material5"}],"textures":[{"sampler":0,"source":0,"name":"Material4_baseColor.png"},{"sampler":1,"source":1,"name":"Material7_baseColor.png"},{"sampler":2,"source":2,"name":"Material5_baseColor.png"}],"images":[{"uri":"Material4_baseColor.png"},{"uri":"Material7_baseColor.png"},{"uri":"Material5_baseColor.png"}],"samplers":[{"magFilter":9729,"minFilter":9987,"wrapS":10497,"wrapT":10497},{"magFilter":9729,"minFilter":9987,"wrapS":10497,"wrapT":10497},{"magFilter":9729,"minFilter":9987,"wrapS":10497,"wrapT":10497}]}