{
    "accessors" : [
        {
            "bufferView" : 0, 
            "componentType" : 5123, 
            "count" : 1836, 
            "max" : [
                324
            ], 
            "min" : [
                0
            ], 
            "type" : "SCALAR"
        }, 
        {
            "bufferView" : 1, 
            "componentType" : 5126, 
            "count" : 325, 
            "max" : [
                11.841531753540039, 
                67.51976013183594, 
                11.840141296386719
            ], 
            "min" : [
                -11.841532707214355, 
                66.82589721679688, 
                -11.8401460647583
            ], 
            "type" : "VEC3"
        }, 
        {
            "bufferView" : 2, 
            "componentType" : 5126, 
            "count" : 325, 
            "max" : [
                0.35111546516418457, 
                0.999969482421875, 
                0.35120701789855957
            ], 
            "min" : [
                -0.35108494758605957, 
                0.9362773299217224, 
                -0.35114598274230957
            ], 
            "type" : "VEC3"
        }, 
        {
            "bufferView" : 3, 
            "componentType" : 5126, 
            "count" : 325, 
            "max" : [
                1.0, 
                0.35111522674560547, 
                0.00045799819054082036, 
                1.0
            ], 
            "min" : [
                0.9363294839859009, 
                -0.3511227071285248, 
                -0.0004580659733619541, 
                1.0
            ], 
            "type" : "VEC4"
        }, 
        {
            "bufferView" : 4, 
            "componentType" : 5126, 
            "count" : 325, 
            "max" : [
                1.0, 
                1.0
            ], 
            "min" : [
                2.9802322387695312e-08, 
                0.030313849449157715
            ], 
            "type" : "VEC2"
        }, 
        {
            "bufferView" : 5, 
            "componentType" : 5123, 
            "count" : 2160, 
            "max" : [
                827
            ], 
            "min" : [
                0
            ], 
            "type" : "SCALAR"
        }, 
        {
            "bufferView" : 6, 
            "componentType" : 5126, 
            "count" : 828, 
            "max" : [
                12.841142654418945, 
                67.90069580078125, 
                12.839635848999023
            ], 
            "min" : [
                -12.841140747070312, 
                60.10487747192383, 
                -12.839638710021973
            ], 
            "type" : "VEC3"
        }, 
        {
            "bufferView" : 7, 
            "componentType" : 5126, 
            "count" : 828, 
            "max" : [
                0.9952696561813354, 
                0.9998779296875, 
                0.9952696561813354
            ], 
            "min" : [
                -0.9952696561813354, 
                -0.1028168573975563, 
                -0.9952696561813354
            ], 
            "type" : "VEC3"
        }, 
        {
            "bufferView" : 8, 
            "componentType" : 5126, 
            "count" : 828, 
            "max" : [
                1.0, 
                0.9539909362792969, 
                1.0, 
                1.0
            ], 
            "min" : [
                -0.9780729413032532, 
                -0.9539901614189148, 
                -1.0, 
                1.0
            ], 
            "type" : "VEC4"
        }, 
        {
            "bufferView" : 9, 
            "componentType" : 5126, 
            "count" : 828, 
            "max" : [
                0.9722222089767456, 
                0.0407944917678833
            ], 
            "min" : [
                -0.027777791023254395, 
                0.004999995231628418
            ], 
            "type" : "VEC2"
        }, 
        {
            "bufferView" : 10, 
            "componentType" : 5123, 
            "count" : 6588, 
            "max" : [
                1706
            ], 
            "min" : [
                0
            ], 
            "type" : "SCALAR"
        }, 
        {
            "bufferView" : 11, 
            "componentType" : 5126, 
            "count" : 1707, 
            "max" : [
                12.841142654418945, 
                67.72566223144531, 
                12.839635848999023
            ], 
            "min" : [
                -12.841140747070312, 
                0.0, 
                -12.839638710021973
            ], 
            "type" : "VEC3"
        }, 
        {
            "bufferView" : 12, 
            "componentType" : 5126, 
            "count" : 1707, 
            "max" : [
                0.999969482421875, 
                0.30442214012145996, 
                0.999969482421875
            ], 
            "min" : [
                -0.999969482421875, 
                -1.0, 
                -0.999969482421875
            ], 
            "type" : "VEC3"
        }, 
        {
            "bufferView" : 13, 
            "componentType" : 5126, 
            "count" : 1707, 
            "max" : [
                1.0, 
                0.9965893626213074, 
                1.0, 
                1.0
            ], 
            "min" : [
                -1.0, 
                -0.994313657283783, 
                -1.0, 
                1.0
            ], 
            "type" : "VEC4"
        }, 
        {
            "bufferView" : 14, 
            "componentType" : 5126, 
            "count" : 1707, 
            "max" : [
                0.9722222089767456, 
                1.0
            ], 
            "min" : [
                -0.027777791023254395, 
                5.960464477539063e-08
            ], 
            "type" : "VEC2"
        }, 
        {
            "bufferView" : 15, 
            "componentType" : 5121, 
            "count" : 216, 
            "max" : [
                143
            ], 
            "min" : [
                0
            ], 
            "type" : "SCALAR"
        }, 
        {
            "bufferView" : 16, 
            "componentType" : 5126, 
            "count" : 144, 
            "max" : [
                7.9145097732543945, 
                22.274980545043945, 
                7.913583278656006
            ], 
            "min" : [
                -7.9145097732543945, 
                9.631926536560059, 
                -7.913583278656006
            ], 
            "type" : "VEC3"
        }, 
        {
            "bufferView" : 17, 
            "componentType" : 5126, 
            "count" : 144, 
            "max" : [
                0.999969482421875, 
                -0.0039674062281847, 
                0.999969482421875
            ], 
            "min" : [
                -0.999969482421875, 
                -0.010681478306651115, 
                -0.999969482421875
            ], 
            "type" : "VEC3"
        }, 
        {
            "bufferView" : 18, 
            "componentType" : 5126, 
            "count" : 144, 
            "max" : [
                0.9999999403953552, 
                0.0009420350543223321, 
                0.9999999403953552, 
                1.0
            ], 
            "min" : [
                -0.9999999403953552, 
                -0.0009420521673746407, 
                -0.9999999403953552, 
                1.0
            ], 
            "type" : "VEC4"
        }, 
        {
            "bufferView" : 19, 
            "componentType" : 5126, 
            "count" : 144, 
            "max" : [
                1.0000004768371582, 
                5.015350341796875
            ], 
            "min" : [
                -4.76837158203125e-07, 
                -4.015351295471191
            ], 
            "type" : "VEC2"
        }, 
        {
            "bufferView" : 20, 
            "componentType" : 5123, 
            "count" : 2880, 
            "max" : [
                626
            ], 
            "min" : [
                0
            ], 
            "type" : "SCALAR"
        }, 
        {
            "bufferView" : 21, 
            "componentType" : 5126, 
            "count" : 627, 
            "max" : [
                1.7706321477890015, 
                43.857879638671875, 
                -7.70313835144043
            ], 
            "min" : [
                -1.7706338167190552, 
                40.535926818847656, 
                -8.874170303344727
            ], 
            "type" : "VEC3"
        }, 
        {
            "bufferView" : 22, 
            "componentType" : 5126, 
            "count" : 627, 
            "max" : [
                1.0, 
                1.0, 
                -0.0
            ], 
            "min" : [
                -1.0, 
                -1.0, 
                -1.0
            ], 
            "type" : "VEC3"
        }, 
        {
            "bufferView" : 23, 
            "componentType" : 5126, 
            "count" : 627, 
            "max" : [
                1.0, 
                0.44829195737838745, 
                1.0, 
                1.0
            ], 
            "min" : [
                -0.2543012499809265, 
                -0.44831767678260803, 
                -1.0, 
                1.0
            ], 
            "type" : "VEC4"
        }, 
        {
            "bufferView" : 24, 
            "componentType" : 5126, 
            "count" : 627, 
            "max" : [
                0.8320928812026978, 
                2.4974448680877686
            ], 
            "min" : [
                -0.8320937752723694, 
                -0.49746763706207275
            ], 
            "type" : "VEC2"
        }, 
        {
            "bufferView" : 25, 
            "componentType" : 5126, 
            "count" : 1, 
            "max" : [
                0.0
            ], 
            "min" : [
                0.0
            ], 
            "type" : "SCALAR"
        }, 
        {
            "bufferView" : 26, 
            "componentType" : 5126, 
            "count" : 1, 
            "max" : [
                0.0, 
                -33.95034408569336, 
                1.4840167068541632e-06
            ], 
            "min" : [
                0.0, 
                -33.95034408569336, 
                1.4840167068541632e-06
            ], 
            "type" : "VEC3"
        }, 
        {
            "bufferView" : 27, 
            "componentType" : 5126, 
            "count" : 1, 
            "max" : [
                0.0
            ], 
            "min" : [
                0.0
            ], 
            "type" : "SCALAR"
        }, 
        {
            "bufferView" : 28, 
            "componentType" : 5126, 
            "count" : 1, 
            "max" : [
                -2.1855694143368964e-08, 
                0.0, 
                -0.0, 
                1.0
            ], 
            "min" : [
                -2.1855694143368964e-08, 
                0.0, 
                -0.0, 
                1.0
            ], 
            "type" : "VEC4"
        }, 
        {
            "bufferView" : 29, 
            "componentType" : 5126, 
            "count" : 1, 
            "max" : [
                0.0
            ], 
            "min" : [
                0.0
            ], 
            "type" : "SCALAR"
        }, 
        {
            "bufferView" : 30, 
            "componentType" : 5126, 
            "count" : 1, 
            "max" : [
                0.6923255920410156, 
                1.0, 
                0.6923255920410156
            ], 
            "min" : [
                0.6923255920410156, 
                1.0, 
                0.6923255920410156
            ], 
            "type" : "VEC3"
        }
    ], 
    "animations" : [
        {
            "channels" : [
                {
                    "sampler" : 0, 
                    "target" : {
                        "node" : 0, 
                        "path" : "translation"
                    }
                }, 
                {
                    "sampler" : 1, 
                    "target" : {
                        "node" : 0, 
                        "path" : "rotation"
                    }
                }, 
                {
                    "sampler" : 2, 
                    "target" : {
                        "node" : 0, 
                        "path" : "scale"
                    }
                }
            ], 
            "samplers" : [
                {
                    "input" : 25, 
                    "interpolation" : "LINEAR", 
                    "output" : 26
                }, 
                {
                    "input" : 27, 
                    "interpolation" : "LINEAR", 
                    "output" : 28
                }, 
                {
                    "input" : 29, 
                    "interpolation" : "LINEAR", 
                    "output" : 30
                }
            ]
        }
    ], 
    "asset" : {
        "generator" : "Khronos Blender glTF 2.0 exporter", 
        "version" : "2.0"
    }, 
    "bufferViews" : [
        {
            "buffer" : 0, 
            "byteLength" : 3672, 
            "byteOffset" : 0, 
            "target" : 34963
        }, 
        {
            "buffer" : 0, 
            "byteLength" : 3900, 
            "byteOffset" : 3672, 
            "target" : 34962
        }, 
        {
            "buffer" : 0, 
            "byteLength" : 3900, 
            "byteOffset" : 7572, 
            "target" : 34962
        }, 
        {
            "buffer" : 0, 
            "byteLength" : 5200, 
            "byteOffset" : 11472, 
            "target" : 34962
        }, 
        {
            "buffer" : 0, 
            "byteLength" : 2600, 
            "byteOffset" : 16672, 
            "target" : 34962
        }, 
        {
            "buffer" : 0, 
            "byteLength" : 4320, 
            "byteOffset" : 19272, 
            "target" : 34963
        }, 
        {
            "buffer" : 0, 
            "byteLength" : 9936, 
            "byteOffset" : 23592, 
            "target" : 34962
        }, 
        {
            "buffer" : 0, 
            "byteLength" : 9936, 
            "byteOffset" : 33528, 
            "target" : 34962
        }, 
        {
            "buffer" : 0, 
            "byteLength" : 13248, 
            "byteOffset" : 43464, 
            "target" : 34962
        }, 
        {
            "buffer" : 0, 
            "byteLength" : 6624, 
            "byteOffset" : 56712, 
            "target" : 34962
        }, 
        {
            "buffer" : 0, 
            "byteLength" : 13176, 
            "byteOffset" : 63336, 
            "target" : 34963
        }, 
        {
            "buffer" : 0, 
            "byteLength" : 20484, 
            "byteOffset" : 76512, 
            "target" : 34962
        }, 
        {
            "buffer" : 0, 
            "byteLength" : 20484, 
            "byteOffset" : 96996, 
            "target" : 34962
        }, 
        {
            "buffer" : 0, 
            "byteLength" : 27312, 
            "byteOffset" : 117480, 
            "target" : 34962
        }, 
        {
            "buffer" : 0, 
            "byteLength" : 13656, 
            "byteOffset" : 144792, 
            "target" : 34962
        }, 
        {
            "buffer" : 0, 
            "byteLength" : 216, 
            "byteOffset" : 158448, 
            "target" : 34963
        }, 
        {
            "buffer" : 0, 
            "byteLength" : 1728, 
            "byteOffset" : 158664, 
            "target" : 34962
        }, 
        {
            "buffer" : 0, 
            "byteLength" : 1728, 
            "byteOffset" : 160392, 
            "target" : 34962
        }, 
        {
            "buffer" : 0, 
            "byteLength" : 2304, 
            "byteOffset" : 162120, 
            "target" : 34962
        }, 
        {
            "buffer" : 0, 
            "byteLength" : 1152, 
            "byteOffset" : 164424, 
            "target" : 34962
        }, 
        {
            "buffer" : 0, 
            "byteLength" : 5760, 
            "byteOffset" : 165576, 
            "target" : 34963
        }, 
        {
            "buffer" : 0, 
            "byteLength" : 7524, 
            "byteOffset" : 171336, 
            "target" : 34962
        }, 
        {
            "buffer" : 0, 
            "byteLength" : 7524, 
            "byteOffset" : 178860, 
            "target" : 34962
        }, 
        {
            "buffer" : 0, 
            "byteLength" : 10032, 
            "byteOffset" : 186384, 
            "target" : 34962
        }, 
        {
            "buffer" : 0, 
            "byteLength" : 5016, 
            "byteOffset" : 196416, 
            "target" : 34962
        }, 
        {
            "buffer" : 0, 
            "byteLength" : 4, 
            "byteOffset" : 201432
        }, 
        {
            "buffer" : 0, 
            "byteLength" : 12, 
            "byteOffset" : 201436
        }, 
        {
            "buffer" : 0, 
            "byteLength" : 4, 
            "byteOffset" : 201448
        }, 
        {
            "buffer" : 0, 
            "byteLength" : 16, 
            "byteOffset" : 201452
        }, 
        {
            "buffer" : 0, 
            "byteLength" : 4, 
            "byteOffset" : 201468
        }, 
        {
            "buffer" : 0, 
            "byteLength" : 12, 
            "byteOffset" : 201472
        }
    ], 
    "buffers" : [
        {
            "byteLength" : 201484, 
            "uri" : "shoudiantong.bin"
        }
    ], 
    "materials" : [
        {
            "name" : "Material #0", 
            "pbrMetallicRoughness" : {
                "baseColorFactor" : [
                    0.4704000066280365, 
                    0.4704000066280365, 
                    0.4704000066280365, 
                    1.0
                ], 
                "metallicFactor" : 0.0
            }
        }, 
        {
            "name" : "Material #1", 
            "pbrMetallicRoughness" : {
                "baseColorFactor" : [
                    0.4704000066280365, 
                    0.4704000066280365, 
                    0.4704000066280365, 
                    1.0
                ], 
                "metallicFactor" : 0.0
            }
        }, 
        {
            "name" : "Material #35", 
            "pbrMetallicRoughness" : {
                "baseColorFactor" : [
                    0.4704000066280365, 
                    0.4704000066280365, 
                    0.4704000066280365, 
                    1.0
                ], 
                "metallicFactor" : 0.0
            }
        }, 
        {
            "name" : "Material #463", 
            "pbrMetallicRoughness" : {
                "baseColorFactor" : [
                    0.4704000066280365, 
                    0.4704000066280365, 
                    0.4704000066280365, 
                    1.0
                ], 
                "metallicFactor" : 0.0
            }
        }, 
        {
            "name" : "Material #464", 
            "pbrMetallicRoughness" : {
                "baseColorFactor" : [
                    0.4704000066280365, 
                    0.4704000066280365, 
                    0.4704000066280365, 
                    1.0
                ], 
                "metallicFactor" : 0.0
            }
        }
    ], 
    "meshes" : [
        {
            "name" : "Untitled", 
            "primitives" : [
                {
                    "attributes" : {
                        "NORMAL" : 2, 
                        "POSITION" : 1, 
                        "TANGENT" : 3, 
                        "TEXCOORD_0" : 4
                    }, 
                    "indices" : 0, 
                    "material" : 3
                }, 
                {
                    "attributes" : {
                        "NORMAL" : 7, 
                        "POSITION" : 6, 
                        "TANGENT" : 8, 
                        "TEXCOORD_0" : 9
                    }, 
                    "indices" : 5, 
                    "material" : 1
                }, 
                {
                    "attributes" : {
                        "NORMAL" : 12, 
                        "POSITION" : 11, 
                        "TANGENT" : 13, 
                        "TEXCOORD_0" : 14
                    }, 
                    "indices" : 10, 
                    "material" : 0
                }, 
                {
                    "attributes" : {
                        "NORMAL" : 17, 
                        "POSITION" : 16, 
                        "TANGENT" : 18, 
                        "TEXCOORD_0" : 19
                    }, 
                    "indices" : 15, 
                    "material" : 2
                }, 
                {
                    "attributes" : {
                        "NORMAL" : 22, 
                        "POSITION" : 21, 
                        "TANGENT" : 23, 
                        "TEXCOORD_0" : 24
                    }, 
                    "indices" : 20, 
                    "material" : 4
                }
            ]
        }
    ], 
    "nodes" : [
        {
            "mesh" : 0, 
            "name" : "Cylinder005", 
            "rotation" : [
                -2.1855694143368964e-08, 
                0.0, 
                -0.0, 
                1.0
            ], 
            "scale" : [
                0.6923255920410156, 
                1.0, 
                0.6923255920410156
            ], 
            "translation" : [
                0.0, 
                -33.95034408569336, 
                1.4840167068541632e-06
            ]
        }
    ], 
    "scene" : 0, 
    "scenes" : [
        {
            "name" : "Scene", 
            "nodes" : [
                0
            ]
        }
    ]
}
