{"asset":{"version":"2.0","generator":"Babylon2Gltf2017","copyright":"2017 (c) BabylonJS"},"scene":0,"scenes":[{"nodes":[0]}],"nodes":[{"mesh":0,"translation":[0.0,0.0,0.0],"rotation":[-0.7071068,0.0,0.0,-0.7071067],"scale":[1.0,1.0,1.0],"name":"3"}],"meshes":[{"primitives":[{"attributes":{"POSITION":1,"NORMAL":2,"TEXCOORD_0":3},"indices":0,"mode":4,"material":0}],"name":"3"}],"accessors":[{"bufferView":0,"componentType":5123,"count":3654,"type":"SCALAR","name":"accessorIndices"},{"bufferView":1,"componentType":5126,"count":3654,"max":[27.4077282,27.8944149,29.5282345],"min":[-5.27172,-3.575834,-44.133007],"type":"VEC3","name":"accessorPositions"},{"bufferView":1,"byteOffset":43848,"componentType":5126,"count":3654,"type":"VEC3","name":"accessorNormals"},{"bufferView":2,"componentType":5126,"count":3654,"type":"VEC2","name":"accessorUVs"}],"bufferViews":[{"buffer":0,"byteLength":7308,"name":"bufferViewScalar"},{"buffer":0,"byteOffset":7308,"byteLength":87696,"byteStride":12,"name":"bufferViewFloatVec3"},{"buffer":0,"byteOffset":95004,"byteLength":29232,"byteStride":8,"name":"bufferViewFloatVec2"}],"buffers":[{"uri":"j.bin","byteLength":124236}],"materials":[{"pbrMetallicRoughness":{"baseColorFactor":[1.0,1.0,1.0,1.0],"baseColorTexture":{"index":0},"metallicFactor":0.0,"roughnessFactor":0.9},"emissiveFactor":[0.0,0.0,0.0],"alphaMode":"BLEND","name":"Material #44"}],"textures":[{"sampler":0,"source":0,"name":"image04.png"}],"images":[{"uri":"image04.png"}],"samplers":[{"magFilter":9729,"minFilter":9987,"wrapS":10497,"wrapT":10497}]}