{"asset":{"version":"2.0","generator":"Babylon2Gltf2017","copyright":"2017 (c) BabylonJS"},"scene":0,"scenes":[{"nodes":[0]}],"nodes":[{"mesh":0,"translation":[0.0,0.0,0.0],"rotation":[-0.7071068,0.0,0.0,-0.7071067],"scale":[1.0,1.0,1.0],"name":"对象002"}],"meshes":[{"primitives":[{"attributes":{"POSITION":1,"NORMAL":2,"TEXCOORD_0":3},"indices":0,"mode":4,"material":0}],"name":"对象002"}],"accessors":[{"bufferView":0,"componentType":5123,"count":15756,"type":"SCALAR","name":"accessorIndices"},{"bufferView":1,"componentType":5126,"count":15756,"max":[36.3588181,38.0628128,5.45322655E-06],"min":[-36.46682,-34.76282,-34.1468277],"type":"VEC3","name":"accessorPositions"},{"bufferView":1,"byteOffset":189072,"componentType":5126,"count":15756,"type":"VEC3","name":"accessorNormals"},{"bufferView":2,"componentType":5126,"count":15756,"type":"VEC2","name":"accessorUVs"}],"bufferViews":[{"buffer":0,"byteLength":31512,"name":"bufferViewScalar"},{"buffer":0,"byteOffset":31512,"byteLength":378144,"byteStride":12,"name":"bufferViewFloatVec3"},{"buffer":0,"byteOffset":409656,"byteLength":126048,"byteStride":8,"name":"bufferViewFloatVec2"}],"buffers":[{"uri":"w3.bin","byteLength":535704}],"materials":[{"pbrMetallicRoughness":{"baseColorFactor":[1.0,1.0,1.0,1.0],"baseColorTexture":{"index":0},"metallicFactor":0.0,"roughnessFactor":0.9},"emissiveFactor":[0.0,0.0,0.0],"alphaMode":"BLEND","name":"Material #43"}],"textures":[{"sampler":0,"source":0,"name":"image03.png"}],"images":[{"uri":"image03.png"}],"samplers":[{"magFilter":9729,"minFilter":9987,"wrapS":10497,"wrapT":10497}]}