{"asset":{"version":"2.0","generator":"Babylon2Gltf2017","copyright":"2017 (c) BabylonJS"},"scene":0,"scenes":[{"nodes":[0]}],"nodes":[{"mesh":0,"translation":[-2.605462E-07,0.0,7.794877E-07],"rotation":[-0.49999994,0.5,-0.50000006,-0.49999994],"scale":[1.0,1.0,1.0],"name":"Line002"}],"meshes":[{"primitives":[{"attributes":{"POSITION":1,"NORMAL":2,"TEXCOORD_0":3},"indices":0,"mode":4,"material":0},{"attributes":{"POSITION":5,"NORMAL":6,"TEXCOORD_0":7},"indices":4,"mode":4,"material":1}],"name":"Line002"}],"accessors":[{"bufferView":0,"componentType":5123,"count":4290,"type":"SCALAR","name":"accessorIndices"},{"bufferView":1,"componentType":5126,"count":4290,"max":[17.4440632,17.4440479,16.73724],"min":[-17.4440365,-17.4440765,-50.59411],"type":"VEC3","name":"accessorPositions"},{"bufferView":1,"byteOffset":51480,"componentType":5126,"count":4290,"type":"VEC3","name":"accessorNormals"},{"bufferView":2,"componentType":5126,"count":4290,"type":"VEC2","name":"accessorUVs"},{"bufferView":0,"byteOffset":8580,"componentType":5123,"count":44556,"type":"SCALAR","name":"accessorIndices"},{"bufferView":1,"byteOffset":102960,"componentType":5126,"count":44556,"max":[36.41282,36.4128227,1.14440918E-05],"min":[-36.4128151,-36.4128151,-36.2077522],"type":"VEC3","name":"accessorPositions"},{"bufferView":1,"byteOffset":637632,"componentType":5126,"count":44556,"type":"VEC3","name":"accessorNormals"},{"bufferView":2,"byteOffset":34320,"componentType":5126,"count":44556,"type":"VEC2","name":"accessorUVs"}],"bufferViews":[{"buffer":0,"byteLength":97692,"name":"bufferViewScalar"},{"buffer":0,"byteOffset":97692,"byteLength":1172304,"byteStride":12,"name":"bufferViewFloatVec3"},{"buffer":0,"byteOffset":1269996,"byteLength":390768,"byteStride":8,"name":"bufferViewFloatVec2"}],"buffers":[{"uri":"xiaoqiu1.bin","byteLength":1660764}],"materials":[{"pbrMetallicRoughness":{"baseColorFactor":[1.0,1.0,1.0,1.0],"baseColorTexture":{"index":0},"metallicFactor":0.0,"roughnessFactor":0.9},"emissiveFactor":[0.0,0.0,0.0],"alphaMode":"BLEND","name":"Material #110"},{"pbrMetallicRoughness":{"baseColorFactor":[1.0,1.0,1.0,1.0],"baseColorTexture":{"index":1},"metallicFactor":0.0,"roughnessFactor":0.9},"emissiveFactor":[0.0,0.0,0.0],"alphaMode":"BLEND","name":"Material #109"}],"textures":[{"sampler":0,"source":0,"name":"image02.png"},{"sampler":1,"source":1,"name":"image01.png"}],"images":[{"uri":"image02.png"},{"uri":"image01.png"}],"samplers":[{"magFilter":9729,"minFilter":9987,"wrapS":10497,"wrapT":10497},{"magFilter":9729,"minFilter":9987,"wrapS":10497,"wrapT":10497}]}