{"asset":{"version":"2.0","generator":"Babylon2Gltf2017","copyright":"2017 (c) BabylonJS"},"scene":0,"scenes":[{"nodes":[0]}],"nodes":[{"mesh":0,"translation":[0.0,0.0,0.0],"rotation":[-0.7071068,0.0,0.0,-0.7071067],"scale":[1.0,1.0,1.0],"name":"1"}],"meshes":[{"primitives":[{"attributes":{"POSITION":1,"NORMAL":2,"TEXCOORD_0":3},"indices":0,"mode":4,"material":0},{"attributes":{"POSITION":5,"NORMAL":6,"TEXCOORD_0":7},"indices":4,"mode":4,"material":1}],"name":"1"}],"accessors":[{"bufferView":0,"componentType":5123,"count":44556,"type":"SCALAR","name":"accessorIndices"},{"bufferView":1,"componentType":5126,"count":44556,"max":[36.3588181,38.0628128,5.45322655E-06],"min":[-36.46682,-34.76282,-36.207756],"type":"VEC3","name":"accessorPositions"},{"bufferView":1,"byteOffset":534672,"componentType":5126,"count":44556,"type":"VEC3","name":"accessorNormals"},{"bufferView":2,"componentType":5126,"count":44556,"type":"VEC2","name":"accessorUVs"},{"bufferView":0,"byteOffset":89112,"componentType":5123,"count":3654,"type":"SCALAR","name":"accessorIndices"},{"bufferView":1,"byteOffset":1069344,"componentType":5126,"count":3654,"max":[27.4077282,27.8944149,29.5282345],"min":[-5.27172,-3.575834,-44.133007],"type":"VEC3","name":"accessorPositions"},{"bufferView":1,"byteOffset":1113192,"componentType":5126,"count":3654,"type":"VEC3","name":"accessorNormals"},{"bufferView":2,"byteOffset":356448,"componentType":5126,"count":3654,"type":"VEC2","name":"accessorUVs"}],"bufferViews":[{"buffer":0,"byteLength":96420,"name":"bufferViewScalar"},{"buffer":0,"byteOffset":96420,"byteLength":1157040,"byteStride":12,"name":"bufferViewFloatVec3"},{"buffer":0,"byteOffset":1253460,"byteLength":385680,"byteStride":8,"name":"bufferViewFloatVec2"}],"buffers":[{"uri":"xiaoqiu2.bin","byteLength":1639140}],"materials":[{"pbrMetallicRoughness":{"baseColorFactor":[1.0,1.0,1.0,1.0],"baseColorTexture":{"index":0},"metallicFactor":0.0,"roughnessFactor":0.9},"emissiveFactor":[0.0,0.0,0.0],"alphaMode":"BLEND","name":"Material #43"},{"pbrMetallicRoughness":{"baseColorFactor":[1.0,1.0,1.0,1.0],"baseColorTexture":{"index":1},"metallicFactor":0.0,"roughnessFactor":0.9},"emissiveFactor":[0.0,0.0,0.0],"alphaMode":"BLEND","name":"Material #44"}],"textures":[{"sampler":0,"source":0,"name":"image03.png"},{"sampler":1,"source":1,"name":"image04.png"}],"images":[{"uri":"image03.png"},{"uri":"image04.png"}],"samplers":[{"magFilter":9729,"minFilter":9987,"wrapS":10497,"wrapT":10497},{"magFilter":9729,"minFilter":9987,"wrapS":10497,"wrapT":10497}]}