{"asset":{"version":"2.0","generator":"babylon.js glTF exporter for maya 2018 v1.2.16","copyright":"2017 (c) BabylonJS"},"extensionsUsed":["KHR_lights"],"scene":0,"scenes":[{"nodes":[0,1,8],"extensions":{"KHR_lights":{"light":0}}}],"nodes":[{"mesh":0,"translation":[0.0,0.0,0.0],"rotation":[0.0,0.0,0.0,1.0],"scale":[1.0,1.0,1.0],"name":"zhuti"},{"children":[2,3,4,5,6,7],"translation":[0.0,0.0,0.0],"rotation":[0.0,0.0,0.0,1.0],"scale":[1.0,1.0,1.0],"name":"ziti"},{"mesh":1,"translation":[0.0,0.0,0.0],"rotation":[0.0,0.0,0.0,1.0],"scale":[1.0,1.0,1.0],"name":"TOU"},{"mesh":2,"translation":[0.0,0.0,0.0],"rotation":[0.0,0.0,0.0,1.0],"scale":[1.0,1.0,1.0],"name":"JING"},{"mesh":3,"translation":[0.0,0.0,0.0],"rotation":[0.0,0.0,0.0,1.0],"scale":[1.0,1.0,1.0],"name":"QUGAN"},{"mesh":4,"translation":[0.0,0.0,0.0],"rotation":[0.0,0.0,0.0,1.0],"scale":[1.0,1.0,1.0],"name":"QIANZHI"},{"mesh":5,"translation":[0.0,0.0,0.0],"rotation":[0.0,0.0,0.0,1.0],"scale":[1.0,1.0,1.0],"name":"HOUZHI"},{"mesh":6,"translation":[0.0,0.0,0.0],"rotation":[0.0,0.0,0.0,1.0],"scale":[1.0,1.0,1.0],"name":"WEI"},{"children":[9,10,11,12,13,14],"translation":[0.0,0.0,0.0],"rotation":[0.0,0.0,0.0,1.0],"scale":[1.0,1.0,1.0],"name":"gun"},{"mesh":7,"translation":[0.0,0.0,0.0],"rotation":[0.0,0.0,0.0,1.0],"scale":[1.0,1.0,1.0],"name":"pCylinder2"},{"mesh":8,"translation":[0.0,0.0,0.0],"rotation":[0.0,0.0,0.0,1.0],"scale":[1.0,1.0,1.0],"name":"pCylinder8"},{"mesh":9,"translation":[0.0,0.0,0.0],"rotation":[0.0,0.0,0.0,1.0],"scale":[1.0,1.0,1.0],"name":"pCylinder9"},{"mesh":10,"translation":[0.0,0.0,0.0],"rotation":[0.0,0.0,0.0,1.0],"scale":[1.0,1.0,1.0],"name":"pCylinder10"},{"mesh":11,"translation":[0.0,0.0,0.0],"rotation":[0.0,0.0,0.0,1.0],"scale":[1.0,1.0,1.0],"name":"pCylinder11"},{"mesh":12,"translation":[0.0,0.0,0.0],"rotation":[0.0,0.0,0.0,1.0],"scale":[1.0,1.0,1.0],"name":"pCylinder12"}],"meshes":[{"primitives":[{"attributes":{"POSITION":1,"NORMAL":2,"TANGENT":3,"TEXCOORD_0":4},"indices":0,"mode":4,"material":0},{"attributes":{"POSITION":6,"NORMAL":7,"TANGENT":8,"TEXCOORD_0":9},"indices":5,"mode":4,"material":1}],"name":"zhuti"},{"primitives":[{"attributes":{"POSITION":11,"NORMAL":12,"TANGENT":13,"TEXCOORD_0":14},"indices":10,"mode":4,"material":2}],"name":"TOU"},{"primitives":[{"attributes":{"POSITION":16,"NORMAL":17,"TANGENT":18,"TEXCOORD_0":19},"indices":15,"mode":4,"material":2}],"name":"JING"},{"primitives":[{"attributes":{"POSITION":21,"NORMAL":22,"TANGENT":23,"TEXCOORD_0":24},"indices":20,"mode":4,"material":2}],"name":"QUGAN"},{"primitives":[{"attributes":{"POSITION":26,"NORMAL":27,"TANGENT":28,"TEXCOORD_0":29},"indices":25,"mode":4,"material":2}],"name":"QIANZHI"},{"primitives":[{"attributes":{"POSITION":31,"NORMAL":32,"TANGENT":33,"TEXCOORD_0":34},"indices":30,"mode":4,"material":2}],"name":"HOUZHI"},{"primitives":[{"attributes":{"POSITION":36,"NORMAL":37,"TANGENT":38,"TEXCOORD_0":39},"indices":35,"mode":4,"material":2}],"name":"WEI"},{"primitives":[{"attributes":{"POSITION":41,"NORMAL":42,"TANGENT":43,"TEXCOORD_0":44},"indices":40,"mode":4,"material":3}],"name":"pCylinder2"},{"primitives":[{"attributes":{"POSITION":46,"NORMAL":47,"TANGENT":48,"TEXCOORD_0":49},"indices":45,"mode":4,"material":3}],"name":"pCylinder8"},{"primitives":[{"attributes":{"POSITION":51,"NORMAL":52,"TANGENT":53,"TEXCOORD_0":54},"indices":50,"mode":4,"material":3}],"name":"pCylinder9"},{"primitives":[{"attributes":{"POSITION":56,"NORMAL":57,"TANGENT":58,"TEXCOORD_0":59},"indices":55,"mode":4,"material":3}],"name":"pCylinder10"},{"primitives":[{"attributes":{"POSITION":61,"NORMAL":62,"TANGENT":63,"TEXCOORD_0":64},"indices":60,"mode":4,"material":3}],"name":"pCylinder11"},{"primitives":[{"attributes":{"POSITION":66,"NORMAL":67,"TANGENT":68,"TEXCOORD_0":69},"indices":65,"mode":4,"material":3}],"name":"pCylinder12"}],"accessors":[{"bufferView":0,"componentType":5123,"count":2280,"type":"SCALAR","name":"accessorIndices"},{"bufferView":1,"componentType":5126,"count":402,"max":[1.45824957,8.08415,11.6836233],"min":[-1.17340374,7.555042,11.0857611],"type":"VEC3","name":"accessorPositions"},{"bufferView":1,"byteOffset":4824,"componentType":5126,"count":402,"type":"VEC3","name":"accessorNormals"},{"bufferView":2,"componentType":5126,"count":402,"type":"VEC4","name":"accessorTangents"},{"bufferView":3,"componentType":5126,"count":402,"type":"VEC2","name":"accessorUVs"},{"bufferView":0,"byteOffset":4560,"componentType":5123,"count":188436,"type":"SCALAR","name":"accessorIndices"},{"bufferView":1,"byteOffset":9648,"componentType":5126,"count":33310,"max":[11.34738,8.505186,13.6317577],"min":[-11.8211155,0.07974602,-34.1827049],"type":"VEC3","name":"accessorPositions"},{"bufferView":1,"byteOffset":409368,"componentType":5126,"count":33310,"type":"VEC3","name":"accessorNormals"},{"bufferView":2,"byteOffset":6432,"componentType":5126,"count":33310,"type":"VEC4","name":"accessorTangents"},{"bufferView":3,"byteOffset":3216,"componentType":5126,"count":33310,"type":"VEC2","name":"accessorUVs"},{"bufferView":0,"byteOffset":381432,"componentType":5123,"count":1212,"type":"SCALAR","name":"accessorIndices"},{"bufferView":1,"byteOffset":809088,"componentType":5126,"count":472,"max":[0.6793958,14.7818031,11.3764124],"min":[-0.511423945,13.5707092,11.3264],"type":"VEC3","name":"accessorPositions"},{"bufferView":1,"byteOffset":814752,"componentType":5126,"count":472,"type":"VEC3","name":"accessorNormals"},{"bufferView":2,"byteOffset":539392,"componentType":5126,"count":472,"type":"VEC4","name":"accessorTangents"},{"bufferView":3,"byteOffset":269696,"componentType":5126,"count":472,"type":"VEC2","name":"accessorUVs"},{"bufferView":0,"byteOffset":383856,"componentType":5123,"count":1980,"type":"SCALAR","name":"accessorIndices"},{"bufferView":1,"byteOffset":820416,"componentType":5126,"count":778,"max":[0.652872741,13.2941256,8.276996],"min":[-0.5864309,12.1208792,8.226983],"type":"VEC3","name":"accessorPositions"},{"bufferView":1,"byteOffset":829752,"componentType":5126,"count":778,"type":"VEC3","name":"accessorNormals"},{"bufferView":2,"byteOffset":546944,"componentType":5126,"count":778,"type":"VEC4","name":"accessorTangents"},{"bufferView":3,"byteOffset":273472,"componentType":5126,"count":778,"type":"VEC2","name":"accessorUVs"},{"bufferView":0,"byteOffset":387816,"componentType":5123,"count":2388,"type":"SCALAR","name":"accessorIndices"},{"bufferView":1,"byteOffset":839088,"componentType":5126,"count":930,"max":[1.32473981,11.7202721,2.567451],"min":[-1.25829828,10.4889975,2.517439],"type":"VEC3","name":"accessorPositions"},{"bufferView":1,"byteOffset":850248,"componentType":5126,"count":930,"type":"VEC3","name":"accessorNormals"},{"bufferView":2,"byteOffset":559392,"componentType":5126,"count":930,"type":"VEC4","name":"accessorTangents"},{"bufferView":3,"byteOffset":279696,"componentType":5126,"count":930,"type":"VEC2","name":"accessorUVs"},{"bufferView":0,"byteOffset":392592,"componentType":5123,"count":3948,"type":"SCALAR","name":"accessorIndices"},{"bufferView":1,"byteOffset":861408,"componentType":5126,"count":1496,"max":[4.9061,-3.71464157,7.19943047],"min":[2.327199,-4.953931,7.149418],"type":"VEC3","name":"accessorPositions"},{"bufferView":1,"byteOffset":879360,"componentType":5126,"count":1496,"type":"VEC3","name":"accessorNormals"},{"bufferView":2,"byteOffset":574272,"componentType":5126,"count":1496,"type":"VEC4","name":"accessorTangents"},{"bufferView":3,"byteOffset":287136,"componentType":5126,"count":1496,"type":"VEC2","name":"accessorUVs"},{"bufferView":0,"byteOffset":400488,"componentType":5123,"count":3144,"type":"SCALAR","name":"accessorIndices"},{"bufferView":1,"byteOffset":897312,"componentType":5126,"count":1186,"max":[5.13152027,-3.28717327,-2.11778259],"min":[2.525504,-4.522504,-2.16779518],"type":"VEC3","name":"accessorPositions"},{"bufferView":1,"byteOffset":911544,"componentType":5126,"count":1186,"type":"VEC3","name":"accessorNormals"},{"bufferView":2,"byteOffset":598208,"componentType":5126,"count":1186,"type":"VEC4","name":"accessorTangents"},{"bufferView":3,"byteOffset":299104,"componentType":5126,"count":1186,"type":"VEC2","name":"accessorUVs"},{"bufferView":0,"byteOffset":406776,"componentType":5123,"count":1644,"type":"SCALAR","name":"accessorIndices"},{"bufferView":1,"byteOffset":925776,"componentType":5126,"count":628,"max":[0.7554828,9.660467,-7.862098],"min":[-0.466424853,8.496681,-7.91211],"type":"VEC3","name":"accessorPositions"},{"bufferView":1,"byteOffset":933312,"componentType":5126,"count":628,"type":"VEC3","name":"accessorNormals"},{"bufferView":2,"byteOffset":617184,"componentType":5126,"count":628,"type":"VEC4","name":"accessorTangents"},{"bufferView":3,"byteOffset":308592,"componentType":5126,"count":628,"type":"VEC2","name":"accessorUVs"},{"bufferView":0,"byteOffset":410064,"componentType":5123,"count":36,"type":"SCALAR","name":"accessorIndices"},{"bufferView":1,"byteOffset":940848,"componentType":5126,"count":20,"max":[0.1288234,13.4614677,11.3975573],"min":[0.048886,8.674959,11.305254],"type":"VEC3","name":"accessorPositions"},{"bufferView":1,"byteOffset":941088,"componentType":5126,"count":20,"type":"VEC3","name":"accessorNormals"},{"bufferView":2,"byteOffset":627232,"componentType":5126,"count":20,"type":"VEC4","name":"accessorTangents"},{"bufferView":3,"byteOffset":313616,"componentType":5126,"count":20,"type":"VEC2","name":"accessorUVs"},{"bufferView":0,"byteOffset":410136,"componentType":5123,"count":36,"type":"SCALAR","name":"accessorIndices"},{"bufferView":1,"byteOffset":941328,"componentType":5126,"count":20,"max":[0.1288234,12.0527534,8.305256],"min":[0.048886,7.266245,8.212953],"type":"VEC3","name":"accessorPositions"},{"bufferView":1,"byteOffset":941568,"componentType":5126,"count":20,"type":"VEC3","name":"accessorNormals"},{"bufferView":2,"byteOffset":627552,"componentType":5126,"count":20,"type":"VEC4","name":"accessorTangents"},{"bufferView":3,"byteOffset":313776,"componentType":5126,"count":20,"type":"VEC2","name":"accessorUVs"},{"bufferView":0,"byteOffset":410208,"componentType":5123,"count":36,"type":"SCALAR","name":"accessorIndices"},{"bufferView":1,"byteOffset":941808,"componentType":5126,"count":20,"max":[0.1288234,10.3691654,2.5902257],"min":[0.048886,5.582659,2.49792242],"type":"VEC3","name":"accessorPositions"},{"bufferView":1,"byteOffset":942048,"componentType":5126,"count":20,"type":"VEC3","name":"accessorNormals"},{"bufferView":2,"byteOffset":627872,"componentType":5126,"count":20,"type":"VEC4","name":"accessorTangents"},{"bufferView":3,"byteOffset":313936,"componentType":5126,"count":20,"type":"VEC2","name":"accessorUVs"},{"bufferView":0,"byteOffset":410280,"componentType":5123,"count":36,"type":"SCALAR","name":"accessorIndices"},{"bufferView":1,"byteOffset":942288,"componentType":5126,"count":20,"max":[0.219799459,8.371233,-7.83219671],"min":[0.139862061,3.58472586,-7.9245],"type":"VEC3","name":"accessorPositions"},{"bufferView":1,"byteOffset":942528,"componentType":5126,"count":20,"type":"VEC3","name":"accessorNormals"},{"bufferView":2,"byteOffset":628192,"componentType":5126,"count":20,"type":"VEC4","name":"accessorTangents"},{"bufferView":3,"byteOffset":314096,"componentType":5126,"count":20,"type":"VEC2","name":"accessorUVs"},{"bufferView":0,"byteOffset":410352,"componentType":5123,"count":36,"type":"SCALAR","name":"accessorIndices"},{"bufferView":1,"byteOffset":942768,"componentType":5126,"count":20,"max":[3.65628576,1.37020421,7.22121954],"min":[3.5763483,-3.41630483,7.12891626],"type":"VEC3","name":"accessorPositions"},{"bufferView":1,"byteOffset":943008,"componentType":5126,"count":20,"type":"VEC3","name":"accessorNormals"},{"bufferView":2,"byteOffset":628512,"componentType":5126,"count":20,"type":"VEC4","name":"accessorTangents"},{"bufferView":3,"byteOffset":314256,"componentType":5126,"count":20,"type":"VEC2","name":"accessorUVs"},{"bufferView":0,"byteOffset":410424,"componentType":5123,"count":36,"type":"SCALAR","name":"accessorIndices"},{"bufferView":1,"byteOffset":943248,"componentType":5126,"count":20,"max":[3.8740325,1.7991631,-2.0852263],"min":[3.794095,-2.9873457,-2.17752957],"type":"VEC3","name":"accessorPositions"},{"bufferView":1,"byteOffset":943488,"componentType":5126,"count":20,"type":"VEC3","name":"accessorNormals"},{"bufferView":2,"byteOffset":628832,"componentType":5126,"count":20,"type":"VEC4","name":"accessorTangents"},{"bufferView":3,"byteOffset":314416,"componentType":5126,"count":20,"type":"VEC2","name":"accessorUVs"}],"bufferViews":[{"buffer":0,"byteLength":410496,"name":"bufferViewScalar"},{"buffer":0,"byteOffset":410496,"byteLength":943728,"byteStride":12,"name":"bufferViewFloatVec3"},{"buffer":0,"byteOffset":1354224,"byteLength":629152,"byteStride":16,"name":"bufferViewFloatVec4"},{"buffer":0,"byteOffset":1983376,"byteLength":314576,"byteStride":8,"name":"bufferViewFloatVec2"}],"buffers":[{"uri":"xiyi.bin","byteLength":2297952}],"materials":[{"pbrMetallicRoughness":{"baseColorFactor":[1.0,1.0,1.0,1.0],"baseColorTexture":{"index":0,"texCoord":0},"metallicFactor":0.0,"roughnessFactor":0.9},"emissiveFactor":[0.0,0.0,0.0],"alphaMode":"OPAQUE","name":"yanjing"},{"pbrMetallicRoughness":{"baseColorFactor":[1.0,1.0,1.0,1.0],"baseColorTexture":{"index":1,"texCoord":0},"metallicFactor":0.0,"roughnessFactor":0.9},"emissiveFactor":[0.0,0.0,0.0],"alphaMode":"OPAQUE","name":"shenti"},{"pbrMetallicRoughness":{"baseColorFactor":[0.53176,0.53176,0.53176,1.0],"metallicFactor":0.0,"roughnessFactor":0.9},"emissiveFactor":[0.0,0.0,0.0],"alphaMode":"OPAQUE","name":"zigun"},{"pbrMetallicRoughness":{"baseColorFactor":[0.5208334,0.5208334,0.5208334,1.0],"metallicFactor":0.0,"roughnessFactor":0.9},"emissiveFactor":[0.0,0.0,0.0],"alphaMode":"OPAQUE","name":"lambert1"}],"textures":[{"sampler":0,"source":0,"name":"yanjing_baseColor.jpg"},{"sampler":1,"source":1,"name":"shenti_baseColor.jpg"}],"images":[{"uri":"yanjing_baseColor.jpg"},{"uri":"shenti_baseColor.jpg"}],"samplers":[{"magFilter":9729,"minFilter":9987,"wrapS":10497,"wrapT":10497},{"magFilter":9729,"minFilter":9987,"wrapS":10497,"wrapT":10497}],"extensions":{"KHR_lights":{"lights":[{"color":[1.0,1.0,1.0],"intensity":1.0,"type":"ambient"}]}}}