{"asset":{"version":"2.0","generator":"Babylon2Gltf2017","copyright":"2017 (c) BabylonJS"},"scene":0,"scenes":[{"nodes":[0,1,2,3,4,5,6,7,8,9,10,11,12,13]}],"nodes":[{"mesh":0,"translation":[0.0,0.0,0.0],"rotation":[-0.7071068,0.0,0.0,-0.7071067],"scale":[1.0,1.0,1.0],"name":"对象041"},{"mesh":1,"translation":[0.0,0.0,0.0],"rotation":[-0.7071068,0.0,0.0,-0.7071067],"scale":[1.0,1.0,1.0],"name":"对象042"},{"mesh":2,"translation":[0.0,0.0,0.0],"rotation":[-0.7071068,0.0,0.0,-0.7071067],"scale":[1.0,1.0,1.0],"name":"对象043"},{"mesh":3,"translation":[0.0,0.0,0.0],"rotation":[-0.7071068,0.0,0.0,-0.7071067],"scale":[1.0,1.0,1.0],"name":"对象044"},{"mesh":4,"translation":[0.0,0.0,0.0],"rotation":[-0.7071068,0.0,0.0,-0.7071067],"scale":[1.0,1.0,1.0],"name":"对象045"},{"mesh":5,"translation":[0.0,0.0,0.0],"rotation":[-0.7071068,0.0,0.0,-0.7071067],"scale":[1.0,1.0,1.0],"name":"对象046"},{"mesh":6,"translation":[0.0,0.0,0.0],"rotation":[-0.7071068,0.0,0.0,-0.7071067],"scale":[1.0,1.0,1.0],"name":"对象047"},{"mesh":7,"translation":[0.0,0.0,0.0],"rotation":[-0.7071068,0.0,0.0,-0.7071067],"scale":[1.0,1.0,1.0],"name":"对象048"},{"mesh":8,"translation":[0.0,0.0,0.0],"rotation":[-0.7071068,0.0,0.0,-0.7071067],"scale":[1.0,1.0,1.0],"name":"对象049"},{"mesh":9,"translation":[0.0,0.0,0.0],"rotation":[-0.7071068,0.0,0.0,-0.7071067],"scale":[1.0,1.0,1.0],"name":"对象050"},{"mesh":10,"translation":[0.0,0.0,0.0],"rotation":[-0.7071068,0.0,0.0,-0.7071067],"scale":[1.0,1.0,1.0],"name":"对象051"},{"mesh":11,"translation":[0.0,0.0,0.0],"rotation":[-0.7071068,0.0,0.0,-0.7071067],"scale":[1.0,1.0,1.0],"name":"对象052"},{"mesh":12,"translation":[0.0,0.0,0.0],"rotation":[-0.7071068,0.0,0.0,-0.7071067],"scale":[1.0,1.0,1.0],"name":"对象053"},{"mesh":13,"translation":[0.0,0.0,0.0],"rotation":[-0.7071068,0.0,0.0,-0.7071067],"scale":[1.0,1.0,1.0],"name":"对象054"}],"meshes":[{"primitives":[{"attributes":{"POSITION":1,"NORMAL":2,"TEXCOORD_0":3},"indices":0,"mode":4,"material":0}],"name":"对象041"},{"primitives":[{"attributes":{"POSITION":5,"NORMAL":6,"TEXCOORD_0":7},"indices":4,"mode":4,"material":0}],"name":"对象042"},{"primitives":[{"attributes":{"POSITION":9,"NORMAL":10,"TEXCOORD_0":11},"indices":8,"mode":4,"material":0}],"name":"对象043"},{"primitives":[{"attributes":{"POSITION":13,"NORMAL":14,"TEXCOORD_0":15},"indices":12,"mode":4,"material":0}],"name":"对象044"},{"primitives":[{"attributes":{"POSITION":17,"NORMAL":18,"TEXCOORD_0":19},"indices":16,"mode":4,"material":0}],"name":"对象045"},{"primitives":[{"attributes":{"POSITION":21,"NORMAL":22,"TEXCOORD_0":23},"indices":20,"mode":4,"material":0}],"name":"对象046"},{"primitives":[{"attributes":{"POSITION":25,"NORMAL":26,"TEXCOORD_0":27},"indices":24,"mode":4,"material":0}],"name":"对象047"},{"primitives":[{"attributes":{"POSITION":29,"NORMAL":30,"TEXCOORD_0":31},"indices":28,"mode":4,"material":0}],"name":"对象048"},{"primitives":[{"attributes":{"POSITION":33,"NORMAL":34,"TEXCOORD_0":35},"indices":32,"mode":4,"material":0}],"name":"对象049"},{"primitives":[{"attributes":{"POSITION":37,"NORMAL":38,"TEXCOORD_0":39},"indices":36,"mode":4,"material":0}],"name":"对象050"},{"primitives":[{"attributes":{"POSITION":41,"NORMAL":42,"TEXCOORD_0":43},"indices":40,"mode":4,"material":0}],"name":"对象051"},{"primitives":[{"attributes":{"POSITION":45,"NORMAL":46,"TEXCOORD_0":47},"indices":44,"mode":4,"material":0}],"name":"对象052"},{"primitives":[{"attributes":{"POSITION":49,"NORMAL":50,"TEXCOORD_0":51},"indices":48,"mode":4,"material":0}],"name":"对象053"},{"primitives":[{"attributes":{"POSITION":53,"NORMAL":54,"TEXCOORD_0":55},"indices":52,"mode":4,"material":0}],"name":"对象054"}],"accessors":[{"bufferView":0,"componentType":5123,"count":1530,"type":"SCALAR","name":"accessorIndices"},{"bufferView":1,"componentType":5126,"count":1530,"max":[10.9999962,-15.4283342,11.0000315],"min":[-11.0000057,-26.4283447,-10.9999733],"type":"VEC3","name":"accessorPositions"},{"bufferView":1,"byteOffset":18360,"componentType":5126,"count":1530,"type":"VEC3","name":"accessorNormals"},{"bufferView":2,"componentType":5126,"count":1530,"type":"VEC2","name":"accessorUVs"},{"bufferView":0,"byteOffset":3060,"componentType":5123,"count":2592,"type":"SCALAR","name":"accessorIndices"},{"bufferView":1,"byteOffset":36720,"componentType":5126,"count":2592,"max":[26.33374,26.3807011,-4.891398],"min":[4.333746,4.38070059,-26.8913956],"type":"VEC3","name":"accessorPositions"},{"bufferView":1,"byteOffset":67824,"componentType":5126,"count":2592,"type":"VEC3","name":"accessorNormals"},{"bufferView":2,"byteOffset":12240,"componentType":5126,"count":2592,"type":"VEC2","name":"accessorUVs"},{"bufferView":0,"byteOffset":8244,"componentType":5123,"count":2592,"type":"SCALAR","name":"accessorIndices"},{"bufferView":1,"byteOffset":98928,"componentType":5126,"count":2592,"max":[26.3397579,-4.4283433,-4.891378],"min":[4.33976364,-26.4283276,-26.8913746],"type":"VEC3","name":"accessorPositions"},{"bufferView":1,"byteOffset":130032,"componentType":5126,"count":2592,"type":"VEC3","name":"accessorNormals"},{"bufferView":2,"byteOffset":32976,"componentType":5126,"count":2592,"type":"VEC2","name":"accessorUVs"},{"bufferView":0,"byteOffset":13428,"componentType":5123,"count":1530,"type":"SCALAR","name":"accessorIndices"},{"bufferView":1,"byteOffset":161136,"componentType":5126,"count":1530,"max":[10.9999895,11.0000219,-15.8913946],"min":[-11.0000057,-10.9999723,-26.8914127],"type":"VEC3","name":"accessorPositions"},{"bufferView":1,"byteOffset":179496,"componentType":5126,"count":1530,"type":"VEC3","name":"accessorNormals"},{"bufferView":2,"byteOffset":53712,"componentType":5126,"count":1530,"type":"VEC2","name":"accessorUVs"},{"bufferView":0,"byteOffset":16488,"componentType":5123,"count":2592,"type":"SCALAR","name":"accessorIndices"},{"bufferView":1,"byteOffset":197856,"componentType":5126,"count":2592,"max":[-4.176939,26.380682,-4.891394],"min":[-26.1769314,4.38068151,-26.89139],"type":"VEC3","name":"accessorPositions"},{"bufferView":1,"byteOffset":228960,"componentType":5126,"count":2592,"type":"VEC3","name":"accessorNormals"},{"bufferView":2,"byteOffset":65952,"componentType":5126,"count":2592,"type":"VEC2","name":"accessorUVs"},{"bufferView":0,"byteOffset":21672,"componentType":5123,"count":2592,"type":"SCALAR","name":"accessorIndices"},{"bufferView":1,"byteOffset":260064,"componentType":5126,"count":2592,"max":[-4.17693138,-4.42833948,-4.89146566],"min":[-26.1769238,-26.4283237,-26.8914642],"type":"VEC3","name":"accessorPositions"},{"bufferView":1,"byteOffset":291168,"componentType":5126,"count":2592,"type":"VEC3","name":"accessorNormals"},{"bufferView":2,"byteOffset":86688,"componentType":5126,"count":2592,"type":"VEC2","name":"accessorUVs"},{"bufferView":0,"byteOffset":26856,"componentType":5123,"count":1530,"type":"SCALAR","name":"accessorIndices"},{"bufferView":1,"byteOffset":322272,"componentType":5126,"count":1530,"max":[-15.1769848,11.0000257,11.0000248],"min":[-26.177,-10.9999695,-10.9999714],"type":"VEC3","name":"accessorPositions"},{"bufferView":1,"byteOffset":340632,"componentType":5126,"count":1530,"type":"VEC3","name":"accessorNormals"},{"bufferView":2,"byteOffset":107424,"componentType":5126,"count":1530,"type":"VEC2","name":"accessorUVs"},{"bufferView":0,"byteOffset":29916,"componentType":5123,"count":2592,"type":"SCALAR","name":"accessorIndices"},{"bufferView":1,"byteOffset":358992,"componentType":5126,"count":2592,"max":[-4.17692375,-4.428289,26.9302673],"min":[-26.1769238,-26.42829,4.93026972],"type":"VEC3","name":"accessorPositions"},{"bufferView":1,"byteOffset":390096,"componentType":5126,"count":2592,"type":"VEC3","name":"accessorNormals"},{"bufferView":2,"byteOffset":119664,"componentType":5126,"count":2592,"type":"VEC2","name":"accessorUVs"},{"bufferView":0,"byteOffset":35100,"componentType":5123,"count":2592,"type":"SCALAR","name":"accessorIndices"},{"bufferView":1,"byteOffset":421200,"componentType":5126,"count":2592,"max":[-4.176939,26.3806934,26.9302673],"min":[-26.1769314,4.38070345,4.930259],"type":"VEC3","name":"accessorPositions"},{"bufferView":1,"byteOffset":452304,"componentType":5126,"count":2592,"type":"VEC3","name":"accessorNormals"},{"bufferView":2,"byteOffset":140400,"componentType":5126,"count":2592,"type":"VEC2","name":"accessorUVs"},{"bufferView":0,"byteOffset":40284,"componentType":5123,"count":1530,"type":"SCALAR","name":"accessorIndices"},{"bufferView":1,"byteOffset":483408,"componentType":5126,"count":1530,"max":[10.9999924,11.0000248,26.9302731],"min":[-11.0000057,-10.9999819,15.9302521],"type":"VEC3","name":"accessorPositions"},{"bufferView":1,"byteOffset":501768,"componentType":5126,"count":1530,"type":"VEC3","name":"accessorNormals"},{"bufferView":2,"byteOffset":161136,"componentType":5126,"count":1530,"type":"VEC2","name":"accessorUVs"},{"bufferView":0,"byteOffset":43344,"componentType":5123,"count":2592,"type":"SCALAR","name":"accessorIndices"},{"bufferView":1,"byteOffset":520128,"componentType":5126,"count":2592,"max":[26.1981087,26.3807,26.93026],"min":[4.1981144,4.380711,4.9302516],"type":"VEC3","name":"accessorPositions"},{"bufferView":1,"byteOffset":551232,"componentType":5126,"count":2592,"type":"VEC3","name":"accessorNormals"},{"bufferView":2,"byteOffset":173376,"componentType":5126,"count":2592,"type":"VEC2","name":"accessorUVs"},{"bufferView":0,"byteOffset":48528,"componentType":5123,"count":1530,"type":"SCALAR","name":"accessorIndices"},{"bufferView":1,"byteOffset":582336,"componentType":5126,"count":1530,"max":[11.0000057,26.3807163,11.0000181],"min":[-10.99999,15.3806973,-10.999979],"type":"VEC3","name":"accessorPositions"},{"bufferView":1,"byteOffset":600696,"componentType":5126,"count":1530,"type":"VEC3","name":"accessorNormals"},{"bufferView":2,"byteOffset":194112,"componentType":5126,"count":1530,"type":"VEC2","name":"accessorUVs"},{"bufferView":0,"byteOffset":51588,"componentType":5123,"count":1530,"type":"SCALAR","name":"accessorIndices"},{"bufferView":1,"byteOffset":619056,"componentType":5126,"count":1530,"max":[26.198122,11.0000238,11.0000248],"min":[15.1981087,-10.9999809,-10.9999762],"type":"VEC3","name":"accessorPositions"},{"bufferView":1,"byteOffset":637416,"componentType":5126,"count":1530,"type":"VEC3","name":"accessorNormals"},{"bufferView":2,"byteOffset":206352,"componentType":5126,"count":1530,"type":"VEC2","name":"accessorUVs"},{"bufferView":0,"byteOffset":54648,"componentType":5123,"count":2592,"type":"SCALAR","name":"accessorIndices"},{"bufferView":1,"byteOffset":655776,"componentType":5126,"count":2592,"max":[26.1981182,-4.428312,26.9303017],"min":[4.198126,-26.4283085,4.930304],"type":"VEC3","name":"accessorPositions"},{"bufferView":1,"byteOffset":686880,"componentType":5126,"count":2592,"type":"VEC3","name":"accessorNormals"},{"bufferView":2,"byteOffset":218592,"componentType":5126,"count":2592,"type":"VEC2","name":"accessorUVs"},{"bufferView":3,"componentType":5126,"count":21,"max":[1.6],"min":[0.0],"type":"SCALAR","name":"accessorAnimationInput"},{"bufferView":4,"componentType":5126,"count":21,"type":"VEC3","name":"accessorAnimationPositions"},{"bufferView":3,"byteOffset":84,"componentType":5126,"count":21,"max":[1.6],"min":[0.0],"type":"SCALAR","name":"accessorAnimationInput"},{"bufferView":4,"byteOffset":252,"componentType":5126,"count":21,"type":"VEC3","name":"accessorAnimationPositions"},{"bufferView":3,"byteOffset":168,"componentType":5126,"count":21,"max":[1.6],"min":[0.0],"type":"SCALAR","name":"accessorAnimationInput"},{"bufferView":4,"byteOffset":504,"componentType":5126,"count":21,"type":"VEC3","name":"accessorAnimationPositions"},{"bufferView":3,"byteOffset":252,"componentType":5126,"count":21,"max":[1.6],"min":[0.0],"type":"SCALAR","name":"accessorAnimationInput"},{"bufferView":4,"byteOffset":756,"componentType":5126,"count":21,"type":"VEC3","name":"accessorAnimationPositions"},{"bufferView":3,"byteOffset":336,"componentType":5126,"count":21,"max":[1.6],"min":[0.0],"type":"SCALAR","name":"accessorAnimationInput"},{"bufferView":4,"byteOffset":1008,"componentType":5126,"count":21,"type":"VEC3","name":"accessorAnimationPositions"},{"bufferView":3,"byteOffset":420,"componentType":5126,"count":21,"max":[1.6],"min":[0.0],"type":"SCALAR","name":"accessorAnimationInput"},{"bufferView":4,"byteOffset":1260,"componentType":5126,"count":21,"type":"VEC3","name":"accessorAnimationPositions"},{"bufferView":3,"byteOffset":504,"componentType":5126,"count":21,"max":[1.6],"min":[0.0],"type":"SCALAR","name":"accessorAnimationInput"},{"bufferView":4,"byteOffset":1512,"componentType":5126,"count":21,"type":"VEC3","name":"accessorAnimationPositions"},{"bufferView":3,"byteOffset":588,"componentType":5126,"count":21,"max":[1.6],"min":[0.0],"type":"SCALAR","name":"accessorAnimationInput"},{"bufferView":4,"byteOffset":1764,"componentType":5126,"count":21,"type":"VEC3","name":"accessorAnimationPositions"},{"bufferView":3,"byteOffset":672,"componentType":5126,"count":21,"max":[1.6],"min":[0.0],"type":"SCALAR","name":"accessorAnimationInput"},{"bufferView":4,"byteOffset":2016,"componentType":5126,"count":21,"type":"VEC3","name":"accessorAnimationPositions"},{"bufferView":3,"byteOffset":756,"componentType":5126,"count":21,"max":[1.6],"min":[0.0],"type":"SCALAR","name":"accessorAnimationInput"},{"bufferView":4,"byteOffset":2268,"componentType":5126,"count":21,"type":"VEC3","name":"accessorAnimationPositions"},{"bufferView":3,"byteOffset":840,"componentType":5126,"count":21,"max":[1.6],"min":[0.0],"type":"SCALAR","name":"accessorAnimationInput"},{"bufferView":4,"byteOffset":2520,"componentType":5126,"count":21,"type":"VEC3","name":"accessorAnimationPositions"},{"bufferView":3,"byteOffset":924,"componentType":5126,"count":21,"max":[1.6],"min":[0.0],"type":"SCALAR","name":"accessorAnimationInput"},{"bufferView":4,"byteOffset":2772,"componentType":5126,"count":21,"type":"VEC3","name":"accessorAnimationPositions"},{"bufferView":3,"byteOffset":1008,"componentType":5126,"count":21,"max":[1.6],"min":[0.0],"type":"SCALAR","name":"accessorAnimationInput"},{"bufferView":4,"byteOffset":3024,"componentType":5126,"count":21,"type":"VEC3","name":"accessorAnimationPositions"},{"bufferView":3,"byteOffset":1092,"componentType":5126,"count":21,"max":[1.6],"min":[0.0],"type":"SCALAR","name":"accessorAnimationInput"},{"bufferView":4,"byteOffset":3276,"componentType":5126,"count":21,"type":"VEC3","name":"accessorAnimationPositions"}],"bufferViews":[{"buffer":0,"byteLength":59832,"name":"bufferViewScalar"},{"buffer":0,"byteOffset":59832,"byteLength":717984,"byteStride":12,"name":"bufferViewFloatVec3"},{"buffer":0,"byteOffset":777816,"byteLength":239328,"byteStride":8,"name":"bufferViewFloatVec2"},{"buffer":0,"byteOffset":1017144,"byteLength":1176,"name":"bufferViewAnimationFloatScalar"},{"buffer":0,"byteOffset":1018320,"byteLength":3528,"name":"bufferViewAnimationFloatVec3"}],"buffers":[{"uri":"jingbao2.bin","byteLength":1021848}],"materials":[{"pbrMetallicRoughness":{"baseColorFactor":[0.612745166,0.612745166,0.612745166,1.0],"metallicFactor":0.0,"roughnessFactor":0.9},"emissiveFactor":[0.0,0.0,0.0],"alphaMode":"OPAQUE","name":"01 - Default"}],"animations":[{"channels":[{"sampler":0,"target":{"node":0,"path":"translation"}},{"sampler":1,"target":{"node":1,"path":"translation"}},{"sampler":2,"target":{"node":2,"path":"translation"}},{"sampler":3,"target":{"node":3,"path":"translation"}},{"sampler":4,"target":{"node":4,"path":"translation"}},{"sampler":5,"target":{"node":5,"path":"translation"}},{"sampler":6,"target":{"node":6,"path":"translation"}},{"sampler":7,"target":{"node":7,"path":"translation"}},{"sampler":8,"target":{"node":8,"path":"translation"}},{"sampler":9,"target":{"node":9,"path":"translation"}},{"sampler":10,"target":{"node":10,"path":"translation"}},{"sampler":11,"target":{"node":11,"path":"translation"}},{"sampler":12,"target":{"node":12,"path":"translation"}},{"sampler":13,"target":{"node":13,"path":"translation"}}],"samplers":[{"input":56,"interpolation":"LINEAR","output":57},{"input":58,"interpolation":"LINEAR","output":59},{"input":60,"interpolation":"LINEAR","output":61},{"input":62,"interpolation":"LINEAR","output":63},{"input":64,"interpolation":"LINEAR","output":65},{"input":66,"interpolation":"LINEAR","output":67},{"input":68,"interpolation":"LINEAR","output":69},{"input":70,"interpolation":"LINEAR","output":71},{"input":72,"interpolation":"LINEAR","output":73},{"input":74,"interpolation":"LINEAR","output":75},{"input":76,"interpolation":"LINEAR","output":77},{"input":78,"interpolation":"LINEAR","output":79},{"input":80,"interpolation":"LINEAR","output":81},{"input":82,"interpolation":"LINEAR","output":83}]}]}