{"asset":{"version":"2.0","generator":"Babylon2Gltf2017","copyright":"2017 (c) BabylonJS"},"scene":0,"scenes":[{"nodes":[0]}],"nodes":[{"mesh":0,"translation":[0.0,0.0,0.0],"rotation":[0.0,0.0,0.0,-1.0],"scale":[1.0,1.0,1.0],"name":"对象009"}],"meshes":[{"primitives":[{"attributes":{"POSITION":1,"NORMAL":2,"TEXCOORD_0":3},"indices":0,"mode":4,"material":0},{"attributes":{"POSITION":5,"NORMAL":6,"TEXCOORD_0":7},"indices":4,"mode":4,"material":1},{"attributes":{"POSITION":9,"NORMAL":10,"TEXCOORD_0":11},"indices":8,"mode":4,"material":2}],"name":"对象009"}],"accessors":[{"bufferView":0,"componentType":5125,"count":44952,"type":"SCALAR","name":"accessorIndices"},{"bufferView":1,"componentType":5126,"count":44952,"max":[17.969696,7.56931067,11.6595955],"min":[-23.06223,-18.0954227,-11.6595964],"type":"VEC3","name":"accessorPositions"},{"bufferView":1,"byteOffset":539424,"componentType":5126,"count":44952,"type":"VEC3","name":"accessorNormals"},{"bufferView":2,"componentType":5126,"count":44952,"type":"VEC2","name":"accessorUVs"},{"bufferView":0,"byteOffset":179808,"componentType":5125,"count":7728,"type":"SCALAR","name":"accessorIndices"},{"bufferView":1,"byteOffset":1078848,"componentType":5126,"count":7728,"max":[9.181854,9.53506851,3.70531654],"min":[-1.64073634,-0.497967482,-3.70531464],"type":"VEC3","name":"accessorPositions"},{"bufferView":1,"byteOffset":1171584,"componentType":5126,"count":7728,"type":"VEC3","name":"accessorNormals"},{"bufferView":2,"byteOffset":359616,"componentType":5126,"count":7728,"type":"VEC2","name":"accessorUVs"},{"bufferView":0,"byteOffset":210720,"componentType":5125,"count":16344,"type":"SCALAR","name":"accessorIndices"},{"bufferView":1,"byteOffset":1264320,"componentType":5126,"count":16344,"max":[1.66602755,0.4979682,5.702896],"min":[-19.2497368,-12.2865639,-5.623049],"type":"VEC3","name":"accessorPositions"},{"bufferView":1,"byteOffset":1460448,"componentType":5126,"count":16344,"type":"VEC3","name":"accessorNormals"},{"bufferView":2,"byteOffset":421440,"componentType":5126,"count":16344,"type":"VEC2","name":"accessorUVs"}],"bufferViews":[{"buffer":0,"byteLength":276096,"name":"bufferViewScalar"},{"buffer":0,"byteOffset":276096,"byteLength":1656576,"byteStride":12,"name":"bufferViewFloatVec3"},{"buffer":0,"byteOffset":1932672,"byteLength":552192,"byteStride":8,"name":"bufferViewFloatVec2"}],"buffers":[{"uri":"C2H6O.bin","byteLength":2484864}],"materials":[{"pbrMetallicRoughness":{"baseColorFactor":[1.0,1.0,1.0,1.0],"baseColorTexture":{"index":0},"metallicFactor":0.0,"roughnessFactor":0.9},"emissiveFactor":[0.0,0.0,0.0],"alphaMode":"BLEND","name":"Material9794"},{"pbrMetallicRoughness":{"baseColorFactor":[1.0,1.0,1.0,1.0],"baseColorTexture":{"index":1},"metallicFactor":0.0,"roughnessFactor":0.9},"emissiveFactor":[0.0,0.0,0.0],"alphaMode":"BLEND","name":"Material #10073"},{"pbrMetallicRoughness":{"baseColorFactor":[1.0,1.0,1.0,1.0],"baseColorTexture":{"index":2},"metallicFactor":0.0,"roughnessFactor":0.9},"emissiveFactor":[0.0,0.0,0.0],"alphaMode":"BLEND","name":"Material9113"}],"textures":[{"sampler":0,"source":0,"name":"Material9794_baseColor.png"},{"sampler":1,"source":1,"name":"Material10073_baseColor.png"},{"sampler":2,"source":2,"name":"Material9113_baseColor.png"}],"images":[{"uri":"Material9794_baseColor.png"},{"uri":"Material10073_baseColor.png"},{"uri":"Material9113_baseColor.png"}],"samplers":[{"magFilter":9729,"minFilter":9987,"wrapS":10497,"wrapT":10497},{"magFilter":9729,"minFilter":9987,"wrapS":10497,"wrapT":10497},{"magFilter":9729,"minFilter":9987,"wrapS":10497,"wrapT":10497}]}