{"asset":{"version":"2.0","generator":"Babylon2Gltf2017","copyright":"2017 (c) BabylonJS"},"scene":0,"scenes":[{"nodes":[0]}],"nodes":[{"mesh":0,"translation":[0.0,0.0,0.0],"rotation":[0.0,0.0,0.0,-1.0],"scale":[1.0,1.0,1.0],"name":"对象004"}],"meshes":[{"primitives":[{"attributes":{"POSITION":1,"NORMAL":2,"TEXCOORD_0":3},"indices":0,"mode":4,"material":0},{"attributes":{"POSITION":5,"NORMAL":6,"TEXCOORD_0":7},"indices":4,"mode":4,"material":1}],"name":"对象004"}],"accessors":[{"bufferView":0,"componentType":5123,"count":38088,"type":"SCALAR","name":"accessorIndices"},{"bufferView":1,"componentType":5126,"count":38088,"max":[3.89473939,0.782399654,11.6595955],"min":[-23.06223,-18.0954227,-11.6595964],"type":"VEC3","name":"accessorPositions"},{"bufferView":1,"byteOffset":457056,"componentType":5126,"count":38088,"type":"VEC3","name":"accessorNormals"},{"bufferView":2,"componentType":5126,"count":38088,"type":"VEC2","name":"accessorUVs"},{"bufferView":0,"byteOffset":76176,"componentType":5123,"count":15828,"type":"SCALAR","name":"accessorIndices"},{"bufferView":1,"byteOffset":914112,"componentType":5126,"count":15828,"max":[1.66602755,-2.54564333,5.702896],"min":[-19.2497368,-12.2865639,-5.623049],"type":"VEC3","name":"accessorPositions"},{"bufferView":1,"byteOffset":1104048,"componentType":5126,"count":15828,"type":"VEC3","name":"accessorNormals"},{"bufferView":2,"byteOffset":304704,"componentType":5126,"count":15828,"type":"VEC2","name":"accessorUVs"}],"bufferViews":[{"buffer":0,"byteLength":107832,"name":"bufferViewScalar"},{"buffer":0,"byteOffset":107832,"byteLength":1293984,"byteStride":12,"name":"bufferViewFloatVec3"},{"buffer":0,"byteOffset":1401816,"byteLength":431328,"byteStride":8,"name":"bufferViewFloatVec2"}],"buffers":[{"uri":"DJ1C2H6O.bin","byteLength":1833144}],"materials":[{"pbrMetallicRoughness":{"baseColorFactor":[1.0,1.0,1.0,1.0],"baseColorTexture":{"index":0},"metallicFactor":0.0,"roughnessFactor":0.9},"emissiveFactor":[0.0,0.0,0.0],"alphaMode":"BLEND","name":"Material9794"},{"pbrMetallicRoughness":{"baseColorFactor":[1.0,1.0,1.0,1.0],"baseColorTexture":{"index":1},"metallicFactor":0.0,"roughnessFactor":0.9},"emissiveFactor":[0.0,0.0,0.0],"alphaMode":"BLEND","name":"Material9113"}],"textures":[{"sampler":0,"source":0,"name":"Material9794_baseColor.png"},{"sampler":1,"source":1,"name":"Material9113_baseColor.png"}],"images":[{"uri":"Material9794_baseColor.png"},{"uri":"Material9113_baseColor.png"}],"samplers":[{"magFilter":9729,"minFilter":9987,"wrapS":10497,"wrapT":10497},{"magFilter":9729,"minFilter":9987,"wrapS":10497,"wrapT":10497}]}