{"asset":{"version":"2.0","generator":"Babylon2Gltf2017","copyright":"2017 (c) BabylonJS"},"scene":0,"scenes":[{"nodes":[0]}],"nodes":[{"mesh":0,"translation":[0.0,0.0,0.0],"rotation":[0.0,0.0,0.0,-1.0],"scale":[1.0,1.0,1.0],"name":"对象010"}],"meshes":[{"primitives":[{"attributes":{"POSITION":1,"NORMAL":2,"TEXCOORD_0":3},"indices":0,"mode":4,"material":0},{"attributes":{"POSITION":5,"NORMAL":6,"TEXCOORD_0":7},"indices":4,"mode":4,"material":1}],"name":"对象010"}],"accessors":[{"bufferView":0,"componentType":5123,"count":7464,"type":"SCALAR","name":"accessorIndices"},{"bufferView":1,"componentType":5126,"count":7464,"max":[17.969696,7.56931067,2.9940815],"min":[8.921818,1.582334,-2.99407768],"type":"VEC3","name":"accessorPositions"},{"bufferView":1,"byteOffset":89568,"componentType":5126,"count":7464,"type":"VEC3","name":"accessorNormals"},{"bufferView":2,"componentType":5126,"count":7464,"type":"VEC2","name":"accessorUVs"},{"bufferView":0,"byteOffset":14928,"componentType":5123,"count":7812,"type":"SCALAR","name":"accessorIndices"},{"bufferView":1,"byteOffset":179136,"componentType":5126,"count":7812,"max":[9.181854,9.53506851,3.70531654],"min":[-1.64073634,-0.497967482,-3.70531464],"type":"VEC3","name":"accessorPositions"},{"bufferView":1,"byteOffset":272880,"componentType":5126,"count":7812,"type":"VEC3","name":"accessorNormals"},{"bufferView":2,"byteOffset":59712,"componentType":5126,"count":7812,"type":"VEC2","name":"accessorUVs"}],"bufferViews":[{"buffer":0,"byteLength":30552,"name":"bufferViewScalar"},{"buffer":0,"byteOffset":30552,"byteLength":366624,"byteStride":12,"name":"bufferViewFloatVec3"},{"buffer":0,"byteOffset":397176,"byteLength":122208,"byteStride":8,"name":"bufferViewFloatVec2"}],"buffers":[{"uri":"DJ2C2H6O.bin","byteLength":519384}],"materials":[{"pbrMetallicRoughness":{"baseColorFactor":[1.0,1.0,1.0,1.0],"baseColorTexture":{"index":0},"metallicFactor":0.0,"roughnessFactor":0.9},"emissiveFactor":[0.0,0.0,0.0],"alphaMode":"BLEND","name":"Material9794"},{"pbrMetallicRoughness":{"baseColorFactor":[1.0,1.0,1.0,1.0],"baseColorTexture":{"index":1},"metallicFactor":0.0,"roughnessFactor":0.9},"emissiveFactor":[0.0,0.0,0.0],"alphaMode":"BLEND","name":"Material10073"}],"textures":[{"sampler":0,"source":0,"name":"Material9794_baseColor.png"},{"sampler":1,"source":1,"name":"Material10073_baseColor.png"}],"images":[{"uri":"Material9794_baseColor.png"},{"uri":"Material10073_baseColor.png"}],"samplers":[{"magFilter":9729,"minFilter":9987,"wrapS":10497,"wrapT":10497},{"magFilter":9729,"minFilter":9987,"wrapS":10497,"wrapT":10497}]}