{"asset":{"version":"2.0","generator":"Babylon2Gltf2017","copyright":"2017 (c) BabylonJS"},"scene":0,"scenes":[{"nodes":[0]}],"nodes":[{"mesh":0,"translation":[0.0,0.0,-2.40585962E-07],"rotation":[0.5,0.49999994,-0.5000001,0.499999881],"scale":[1.0,1.0,1.0],"name":"对象006"}],"meshes":[{"primitives":[{"attributes":{"POSITION":1,"NORMAL":2,"TEXCOORD_0":3},"indices":0,"mode":4,"material":0}],"name":"对象006"}],"accessors":[{"bufferView":0,"componentType":5123,"count":7548,"type":"SCALAR","name":"accessorIndices"},{"bufferView":1,"componentType":5126,"count":7548,"max":[2.99407983,8.403862,2.99999857],"min":[-2.99408031,1.42133342E-06,-3.00000143],"type":"VEC3","name":"accessorPositions"},{"bufferView":1,"byteOffset":90576,"componentType":5126,"count":7548,"type":"VEC3","name":"accessorNormals"},{"bufferView":2,"componentType":5126,"count":7548,"type":"VEC2","name":"accessorUVs"}],"bufferViews":[{"buffer":0,"byteLength":15096,"name":"bufferViewScalar"},{"buffer":0,"byteOffset":15096,"byteLength":181152,"byteStride":12,"name":"bufferViewFloatVec3"},{"buffer":0,"byteOffset":196248,"byteLength":60384,"byteStride":8,"name":"bufferViewFloatVec2"}],"buffers":[{"uri":"DJ2HBr.bin","byteLength":256632}],"materials":[{"pbrMetallicRoughness":{"baseColorFactor":[1.0,1.0,1.0,1.0],"baseColorTexture":{"index":0},"metallicFactor":0.0,"roughnessFactor":0.9},"emissiveFactor":[0.0,0.0,0.0],"alphaMode":"BLEND","name":"Material9794"}],"textures":[{"sampler":0,"source":0,"name":"Material9794_baseColor.png"}],"images":[{"uri":"Material9794_baseColor.png"}],"samplers":[{"magFilter":9729,"minFilter":9987,"wrapS":10497,"wrapT":10497}]}