{"asset":{"version":"2.0","generator":"Babylon2Gltf2017","copyright":"2017 (c) BabylonJS"},"scene":0,"scenes":[{"nodes":[0,1]}],"nodes":[{"mesh":0,"translation":[0.0,0.0,0.0],"rotation":[0.0,0.0,0.2621707,-0.965021551],"scale":[1.0,1.0,1.0],"name":"对象003"},{"mesh":1,"translation":[0.0,0.0,-2.40585962E-07],"rotation":[0.901717365,-0.4194992,-0.09477416,-0.04409141],"scale":[1.0,1.0,0.9999999],"name":"对象008"}],"meshes":[{"primitives":[{"attributes":{"POSITION":1,"NORMAL":2,"TEXCOORD_0":3},"indices":0,"mode":4,"material":0},{"attributes":{"POSITION":5,"NORMAL":6,"TEXCOORD_0":7},"indices":4,"mode":4,"material":1}],"name":"对象003"},{"primitives":[{"attributes":{"POSITION":9,"NORMAL":10,"TEXCOORD_0":11},"indices":8,"mode":4,"material":0}],"name":"对象008"}],"accessors":[{"bufferView":0,"componentType":5123,"count":7464,"type":"SCALAR","name":"accessorIndices"},{"bufferView":1,"componentType":5126,"count":7464,"max":[17.9696941,7.569311,2.9940815],"min":[8.921818,1.58233356,-2.99407768],"type":"VEC3","name":"accessorPositions"},{"bufferView":1,"byteOffset":89568,"componentType":5126,"count":7464,"type":"VEC3","name":"accessorNormals"},{"bufferView":2,"componentType":5126,"count":7464,"type":"VEC2","name":"accessorUVs"},{"bufferView":0,"byteOffset":14928,"componentType":5123,"count":7812,"type":"SCALAR","name":"accessorIndices"},{"bufferView":1,"byteOffset":179136,"componentType":5126,"count":7812,"max":[9.181854,9.535068,3.70531654],"min":[-1.64073682,-0.4979676,-3.70531464],"type":"VEC3","name":"accessorPositions"},{"bufferView":1,"byteOffset":272880,"componentType":5126,"count":7812,"type":"VEC3","name":"accessorNormals"},{"bufferView":2,"byteOffset":59712,"componentType":5126,"count":7812,"type":"VEC2","name":"accessorUVs"},{"bufferView":0,"byteOffset":30552,"componentType":5123,"count":7548,"type":"SCALAR","name":"accessorIndices"},{"bufferView":1,"byteOffset":366624,"componentType":5126,"count":7548,"max":[2.99408031,8.403862,2.999999],"min":[-2.99408078,1.25E-06,-3.00000119],"type":"VEC3","name":"accessorPositions"},{"bufferView":1,"byteOffset":457200,"componentType":5126,"count":7548,"type":"VEC3","name":"accessorNormals"},{"bufferView":2,"byteOffset":122208,"componentType":5126,"count":7548,"type":"VEC2","name":"accessorUVs"}],"bufferViews":[{"buffer":0,"byteLength":45648,"name":"bufferViewScalar"},{"buffer":0,"byteOffset":45648,"byteLength":547776,"byteStride":12,"name":"bufferViewFloatVec3"},{"buffer":0,"byteOffset":593424,"byteLength":182592,"byteStride":8,"name":"bufferViewFloatVec2"}],"buffers":[{"uri":"fayingwu2.bin","byteLength":776016}],"materials":[{"pbrMetallicRoughness":{"baseColorFactor":[1.0,1.0,1.0,1.0],"baseColorTexture":{"index":0},"metallicFactor":0.0,"roughnessFactor":0.9},"emissiveFactor":[0.0,0.0,0.0],"alphaMode":"BLEND","name":"Material9794"},{"pbrMetallicRoughness":{"baseColorFactor":[1.0,1.0,1.0,1.0],"baseColorTexture":{"index":1},"metallicFactor":0.0,"roughnessFactor":0.9},"emissiveFactor":[0.0,0.0,0.0],"alphaMode":"BLEND","name":"Material10073"}],"textures":[{"sampler":0,"source":0,"name":"Material9794_baseColor.png"},{"sampler":1,"source":1,"name":"Material10073_baseColor.png"}],"images":[{"uri":"Material9794_baseColor.png"},{"uri":"Material10073_baseColor.png"}],"samplers":[{"magFilter":9729,"minFilter":9987,"wrapS":10497,"wrapT":10497},{"magFilter":9729,"minFilter":9987,"wrapS":10497,"wrapT":10497}]}