{"asset":{"version":"2.0","generator":"Babylon2Gltf2017","copyright":"2017 (c) BabylonJS"},"scene":0,"scenes":[{"nodes":[0]}],"nodes":[{"mesh":0,"translation":[0.0,0.0,-2.40585962E-07],"rotation":[0.5,0.49999994,-0.50000006,0.49999994],"scale":[1.0,1.0,1.0],"name":"Cylinder008"}],"meshes":[{"primitives":[{"attributes":{"POSITION":1,"NORMAL":2,"TEXCOORD_0":3},"indices":0,"mode":4,"material":0},{"attributes":{"POSITION":5,"NORMAL":6,"TEXCOORD_0":7},"indices":4,"mode":4,"material":1}],"name":"Cylinder008"}],"accessors":[{"bufferView":0,"componentType":5123,"count":7464,"type":"SCALAR","name":"accessorIndices"},{"bufferView":1,"componentType":5126,"count":7464,"max":[2.99407959,8.40386,2.99999833],"min":[-2.99408054,-7.1308483E-07,-3.00000167],"type":"VEC3","name":"accessorPositions"},{"bufferView":1,"byteOffset":89568,"componentType":5126,"count":7464,"type":"VEC3","name":"accessorNormals"},{"bufferView":2,"componentType":5126,"count":7464,"type":"VEC2","name":"accessorUVs"},{"bufferView":0,"byteOffset":14928,"componentType":5123,"count":7464,"type":"SCALAR","name":"accessorIndices"},{"bufferView":1,"byteOffset":179136,"componentType":5126,"count":7464,"max":[4.990134,7.13084944E-07,5.00000048],"min":[-4.990134,-12.5646458,-4.99999952],"type":"VEC3","name":"accessorPositions"},{"bufferView":1,"byteOffset":268704,"componentType":5126,"count":7464,"type":"VEC3","name":"accessorNormals"},{"bufferView":2,"byteOffset":59712,"componentType":5126,"count":7464,"type":"VEC2","name":"accessorUVs"}],"bufferViews":[{"buffer":0,"byteLength":29856,"name":"bufferViewScalar"},{"buffer":0,"byteOffset":29856,"byteLength":358272,"byteStride":12,"name":"bufferViewFloatVec3"},{"buffer":0,"byteOffset":388128,"byteLength":119424,"byteStride":8,"name":"bufferViewFloatVec2"}],"buffers":[{"uri":"HBr.bin","byteLength":507552}],"materials":[{"pbrMetallicRoughness":{"baseColorFactor":[1.0,1.0,1.0,1.0],"baseColorTexture":{"index":0},"metallicFactor":0.0,"roughnessFactor":0.9},"emissiveFactor":[0.0,0.0,0.0],"alphaMode":"BLEND","name":"Material9794"},{"pbrMetallicRoughness":{"baseColorFactor":[1.0,1.0,1.0,1.0],"baseColorTexture":{"index":1},"metallicFactor":0.0,"roughnessFactor":0.9},"emissiveFactor":[0.0,0.0,0.0],"alphaMode":"BLEND","name":"Material9661"}],"textures":[{"sampler":0,"source":0,"name":"Material9794_baseColor.png"},{"sampler":1,"source":1,"name":"Material9661_baseColor.png"}],"images":[{"uri":"Material9794_baseColor.png"},{"uri":"Material9661_baseColor.png"}],"samplers":[{"magFilter":9729,"minFilter":9987,"wrapS":10497,"wrapT":10497},{"magFilter":9729,"minFilter":9987,"wrapS":10497,"wrapT":10497}]}