{"asset":{"version":"2.0","generator":"babylon.js glTF exporter for maya 2018 v1.2.16","copyright":"2017 (c) BabylonJS"},"extensionsUsed":["KHR_lights"],"scene":0,"scenes":[{"nodes":[0],"extensions":{"KHR_lights":{"light":0}}}],"nodes":[{"children":[1,2],"translation":[0.0,-7.052966E-38,2.42233273E-06],"rotation":[-0.707106769,0.0,0.0,0.707106769],"scale":[2.54,2.54,2.54],"name":"other"},{"mesh":0,"translation":[0.0,9.536743E-07,1.45691785E-17],"rotation":[0.707106769,0.0,0.0,0.707106769],"scale":[0.393700778,0.393700778,0.393700778],"name":"xuxian"},{"mesh":1,"translation":[0.0,9.536743E-07,-3.33477531E-22],"rotation":[0.707106769,0.0,0.0,0.707106769],"scale":[0.393700778,0.393700778,0.393700778],"name":"c"}],"meshes":[{"primitives":[{"attributes":{"POSITION":1,"NORMAL":2,"TANGENT":3,"TEXCOORD_0":4},"indices":0,"mode":4,"material":0}],"name":"xuxian"},{"primitives":[{"attributes":{"POSITION":6,"NORMAL":7,"TANGENT":8,"TEXCOORD_0":9},"indices":5,"mode":4,"material":0},{"attributes":{"POSITION":11,"NORMAL":12,"TANGENT":13,"TEXCOORD_0":14},"indices":10,"mode":4,"material":1}],"name":"c"}],"accessors":[{"bufferView":0,"componentType":5123,"count":12096,"type":"SCALAR","name":"accessorIndices"},{"bufferView":1,"componentType":5126,"count":8064,"max":[37.0597572,40.5356255,42.98107],"min":[-37.3053551,-40.4834671,-42.7190742],"type":"VEC3","name":"accessorPositions"},{"bufferView":1,"byteOffset":96768,"componentType":5126,"count":8064,"type":"VEC3","name":"accessorNormals"},{"bufferView":2,"componentType":5126,"count":8064,"type":"VEC4","name":"accessorTangents"},{"bufferView":3,"componentType":5126,"count":8064,"type":"VEC2","name":"accessorUVs"},{"bufferView":0,"byteOffset":24192,"componentType":5123,"count":8400,"type":"SCALAR","name":"accessorIndices"},{"bufferView":1,"byteOffset":193536,"componentType":5126,"count":3094,"max":[45.63724,45.36303,43.1174164],"min":[-45.62944,-14.8417559,-43.15529],"type":"VEC3","name":"accessorPositions"},{"bufferView":1,"byteOffset":230664,"componentType":5126,"count":3094,"type":"VEC3","name":"accessorNormals"},{"bufferView":2,"byteOffset":129024,"componentType":5126,"count":3094,"type":"VEC4","name":"accessorTangents"},{"bufferView":3,"byteOffset":64512,"componentType":5126,"count":3094,"type":"VEC2","name":"accessorUVs"},{"bufferView":0,"byteOffset":40992,"componentType":5123,"count":165984,"type":"SCALAR","name":"accessorIndices"},{"bufferView":1,"byteOffset":267792,"componentType":5126,"count":32908,"max":[48.9643936,48.6421738,46.42769],"min":[-48.9643936,-18.1209183,-46.42768],"type":"VEC3","name":"accessorPositions"},{"bufferView":1,"byteOffset":662688,"componentType":5126,"count":32908,"type":"VEC3","name":"accessorNormals"},{"bufferView":2,"byteOffset":178528,"componentType":5126,"count":32908,"type":"VEC4","name":"accessorTangents"},{"bufferView":3,"byteOffset":89264,"componentType":5126,"count":32908,"type":"VEC2","name":"accessorUVs"}],"bufferViews":[{"buffer":0,"byteLength":372960,"name":"bufferViewScalar"},{"buffer":0,"byteOffset":372960,"byteLength":1057584,"byteStride":12,"name":"bufferViewFloatVec3"},{"buffer":0,"byteOffset":1430544,"byteLength":705056,"byteStride":16,"name":"bufferViewFloatVec4"},{"buffer":0,"byteOffset":2135600,"byteLength":352528,"byteStride":8,"name":"bufferViewFloatVec2"}],"buffers":[{"uri":"other.bin","byteLength":2488128}],"materials":[{"pbrMetallicRoughness":{"baseColorFactor":[0.601615131,0.601615131,0.601615131,1.0],"metallicFactor":0.5697856,"roughnessFactor":0.9},"emissiveFactor":[0.150726676,0.150726676,0.150726676],"alphaMode":"OPAQUE","name":"gun"},{"pbrMetallicRoughness":{"baseColorFactor":[0.20859161,0.20859161,0.20859161,1.0],"metallicFactor":0.93717587,"roughnessFactor":0.9},"emissiveFactor":[0.000246059237,0.000246059237,0.000246059237],"alphaMode":"OPAQUE","name":"hei"}],"extensions":{"KHR_lights":{"lights":[{"color":[1.0,1.0,1.0],"intensity":1.0,"type":"ambient"}]}}}