{"asset":{"version":"2.0","generator":"babylon.js glTF exporter for maya 2018 v1.2.16","copyright":"2017 (c) BabylonJS"},"extensionsUsed":["KHR_lights"],"scene":0,"scenes":[{"nodes":[0],"extensions":{"KHR_lights":{"light":0}}}],"nodes":[{"children":[1,2,3,4,5],"translation":[0.0,0.0,0.0],"rotation":[0.0,0.0,0.0,1.0],"scale":[1.0,1.0,1.0],"name":"yuanhuan_animation"},{"mesh":0,"translation":[0.0,0.0,88.0],"rotation":[0.0,0.0,0.0,1.0],"scale":[1.0,1.0,1.0],"name":"baozha_2"},{"mesh":1,"translation":[0.0,0.0,-88.0],"rotation":[0.0,0.0,0.0,1.0],"scale":[1.0,1.0,1.0],"name":"baozha3"},{"mesh":2,"translation":[-88.0,0.0,0.0],"rotation":[0.0,0.0,0.0,1.0],"scale":[1.0,1.0,1.0],"name":"baozha_1"},{"mesh":3,"translation":[88.0,0.0,0.0],"rotation":[0.0,0.0,0.0,1.0],"scale":[1.0,1.0,1.0],"name":"baozha_4"},{"mesh":4,"translation":[0.0,0.0,0.0],"rotation":[0.0,0.0,0.0,1.0],"scale":[1.0,1.0,1.0],"name":"shengxia1"}],"meshes":[{"primitives":[{"attributes":{"POSITION":1,"NORMAL":2,"TANGENT":3},"indices":0,"mode":4,"material":0},{"attributes":{"POSITION":5,"NORMAL":6,"TANGENT":7},"indices":4,"mode":4,"material":1},{"attributes":{"POSITION":9,"NORMAL":10,"TANGENT":11},"indices":8,"mode":4,"material":2}],"name":"baozha_2"},{"primitives":[{"attributes":{"POSITION":13,"NORMAL":14,"TANGENT":15},"indices":12,"mode":4,"material":0},{"attributes":{"POSITION":17,"NORMAL":18,"TANGENT":19},"indices":16,"mode":4,"material":1},{"attributes":{"POSITION":21,"NORMAL":22,"TANGENT":23},"indices":20,"mode":4,"material":2}],"name":"baozha3"},{"primitives":[{"attributes":{"POSITION":25,"NORMAL":26,"TANGENT":27},"indices":24,"mode":4,"material":0},{"attributes":{"POSITION":29,"NORMAL":30,"TANGENT":31},"indices":28,"mode":4,"material":1},{"attributes":{"POSITION":33,"NORMAL":34,"TANGENT":35},"indices":32,"mode":4,"material":2}],"name":"baozha_1"},{"primitives":[{"attributes":{"POSITION":37,"NORMAL":38,"TANGENT":39,"TEXCOORD_0":40},"indices":36,"mode":4,"material":0}],"name":"baozha_4"},{"primitives":[{"attributes":{"POSITION":42,"NORMAL":43,"TANGENT":44},"indices":41,"mode":4,"material":3},{"attributes":{"POSITION":46,"NORMAL":47,"TANGENT":48},"indices":45,"mode":4,"material":1}],"name":"shengxia1"}],"accessors":[{"bufferView":0,"componentType":5123,"count":16044,"type":"SCALAR","name":"accessorIndices"},{"bufferView":1,"componentType":5126,"count":2882,"max":[48.9643936,-40.84149,46.42768],"min":[8.396432,-48.6421738,10.77168],"type":"VEC3","name":"accessorPositions"},{"bufferView":1,"byteOffset":34584,"componentType":5126,"count":2882,"type":"VEC3","name":"accessorNormals"},{"bufferView":2,"componentType":5126,"count":2882,"type":"VEC4","name":"accessorTangents"},{"bufferView":0,"byteOffset":32088,"componentType":5123,"count":180,"type":"SCALAR","name":"accessorIndices"},{"bufferView":1,"byteOffset":69168,"componentType":5126,"count":72,"max":[45.63724,-44.1206436,42.83794],"min":[11.7586575,-45.3630142,13.8343067],"type":"VEC3","name":"accessorPositions"},{"bufferView":1,"byteOffset":70032,"componentType":5126,"count":72,"type":"VEC3","name":"accessorNormals"},{"bufferView":2,"byteOffset":46112,"componentType":5126,"count":72,"type":"VEC4","name":"accessorTangents"},{"bufferView":0,"byteOffset":32448,"componentType":5123,"count":360,"type":"SCALAR","name":"accessorIndices"},{"bufferView":1,"byteOffset":70896,"componentType":5126,"count":120,"max":[45.63724,-44.1206436,43.11741],"min":[11.7571487,-45.3630142,13.8343039],"type":"VEC3","name":"accessorPositions"},{"bufferView":1,"byteOffset":72336,"componentType":5126,"count":120,"type":"VEC3","name":"accessorNormals"},{"bufferView":2,"byteOffset":47264,"componentType":5126,"count":120,"type":"VEC4","name":"accessorTangents"},{"bufferView":0,"byteOffset":33168,"componentType":5123,"count":16044,"type":"SCALAR","name":"accessorIndices"},{"bufferView":1,"byteOffset":73776,"componentType":5126,"count":2847,"max":[48.9520874,-40.84149,-10.849082],"min":[8.405409,-48.6421738,-46.410202],"type":"VEC3","name":"accessorPositions"},{"bufferView":1,"byteOffset":107940,"componentType":5126,"count":2847,"type":"VEC3","name":"accessorNormals"},{"bufferView":2,"byteOffset":49184,"componentType":5126,"count":2847,"type":"VEC4","name":"accessorTangents"},{"bufferView":0,"byteOffset":65256,"componentType":5123,"count":60,"type":"SCALAR","name":"accessorIndices"},{"bufferView":1,"byteOffset":142104,"componentType":5126,"count":24,"max":[45.6124268,-44.1206436,-13.8572054],"min":[36.3464661,-45.3630142,-28.6639652],"type":"VEC3","name":"accessorPositions"},{"bufferView":1,"byteOffset":142392,"componentType":5126,"count":24,"type":"VEC3","name":"accessorNormals"},{"bufferView":2,"byteOffset":94736,"componentType":5126,"count":24,"type":"VEC4","name":"accessorTangents"},{"bufferView":0,"byteOffset":65376,"componentType":5123,"count":360,"type":"SCALAR","name":"accessorIndices"},{"bufferView":1,"byteOffset":142680,"componentType":5126,"count":120,"max":[45.6124268,-44.1206436,-13.8572054],"min":[11.71479,-45.3630142,-43.1378136],"type":"VEC3","name":"accessorPositions"},{"bufferView":1,"byteOffset":144120,"componentType":5126,"count":120,"type":"VEC3","name":"accessorNormals"},{"bufferView":2,"byteOffset":95120,"componentType":5126,"count":120,"type":"VEC4","name":"accessorTangents"},{"bufferView":0,"byteOffset":66096,"componentType":5123,"count":300,"type":"SCALAR","name":"accessorIndices"},{"bufferView":1,"byteOffset":145560,"componentType":5126,"count":120,"max":[12.281641,-44.1206436,42.83794],"min":[-37.4450378,-45.3630142,-28.9813423],"type":"VEC3","name":"accessorPositions"},{"bufferView":1,"byteOffset":147000,"componentType":5126,"count":120,"type":"VEC3","name":"accessorNormals"},{"bufferView":2,"byteOffset":97040,"componentType":5126,"count":120,"type":"VEC4","name":"accessorTangents"},{"bufferView":0,"byteOffset":66696,"componentType":5123,"count":34230,"type":"SCALAR","name":"accessorIndices"},{"bufferView":1,"byteOffset":148440,"componentType":5126,"count":6735,"max":[14.2355461,-40.84149,46.42768],"min":[-40.8197479,-48.6421738,-46.410202],"type":"VEC3","name":"accessorPositions"},{"bufferView":1,"byteOffset":229260,"componentType":5126,"count":6735,"type":"VEC3","name":"accessorNormals"},{"bufferView":2,"byteOffset":98960,"componentType":5126,"count":6735,"type":"VEC4","name":"accessorTangents"},{"bufferView":0,"byteOffset":135156,"componentType":5123,"count":1428,"type":"SCALAR","name":"accessorIndices"},{"bufferView":1,"byteOffset":310080,"componentType":5126,"count":480,"max":[12.29664,-44.1206436,43.11741],"min":[-37.47397,-45.363018,-43.1378136],"type":"VEC3","name":"accessorPositions"},{"bufferView":1,"byteOffset":315840,"componentType":5126,"count":480,"type":"VEC3","name":"accessorNormals"},{"bufferView":2,"byteOffset":206720,"componentType":5126,"count":480,"type":"VEC4","name":"accessorTangents"},{"bufferView":0,"byteOffset":138012,"componentType":5123,"count":3654,"type":"SCALAR","name":"accessorIndices"},{"bufferView":1,"byteOffset":321600,"componentType":5126,"count":709,"max":[48.9270134,-40.854744,3.819967],"min":[43.0963745,-48.62891,-3.91162848],"type":"VEC3","name":"accessorPositions"},{"bufferView":1,"byteOffset":330108,"componentType":5126,"count":709,"type":"VEC3","name":"accessorNormals"},{"bufferView":2,"byteOffset":214400,"componentType":5126,"count":709,"type":"VEC4","name":"accessorTangents"},{"bufferView":3,"componentType":5126,"count":709,"type":"VEC2","name":"accessorUVs"},{"bufferView":0,"byteOffset":145320,"componentType":5123,"count":11484,"type":"SCALAR","name":"accessorIndices"},{"bufferView":1,"byteOffset":338616,"componentType":5126,"count":2570,"max":[45.0399246,-40.854744,14.1451311],"min":[12.291997,-48.62891,-14.2225332],"type":"VEC3","name":"accessorPositions"},{"bufferView":1,"byteOffset":369456,"componentType":5126,"count":2570,"type":"VEC3","name":"accessorNormals"},{"bufferView":2,"byteOffset":225744,"componentType":5126,"count":2570,"type":"VEC4","name":"accessorTangents"},{"bufferView":0,"byteOffset":168288,"componentType":5123,"count":432,"type":"SCALAR","name":"accessorIndices"},{"bufferView":1,"byteOffset":400296,"componentType":5126,"count":72,"max":[45.7742,-44.12064,14.7549715],"min":[11.5500126,-45.3630142,-14.8528748],"type":"VEC3","name":"accessorPositions"},{"bufferView":1,"byteOffset":401160,"componentType":5126,"count":72,"type":"VEC3","name":"accessorNormals"},{"bufferView":2,"byteOffset":266864,"componentType":5126,"count":72,"type":"VEC4","name":"accessorTangents"},{"bufferView":4,"componentType":5126,"count":3,"max":[3.33333325],"min":[0.0],"type":"SCALAR","name":"accessorAnimationInput"},{"bufferView":5,"componentType":5126,"count":3,"type":"VEC3","name":"accessorAnimationPositions"},{"bufferView":4,"byteOffset":12,"componentType":5126,"count":3,"max":[3.33333325],"min":[0.0],"type":"SCALAR","name":"accessorAnimationInput"},{"bufferView":5,"byteOffset":36,"componentType":5126,"count":3,"type":"VEC3","name":"accessorAnimationPositions"},{"bufferView":4,"byteOffset":24,"componentType":5126,"count":3,"max":[3.33333325],"min":[0.0],"type":"SCALAR","name":"accessorAnimationInput"},{"bufferView":5,"byteOffset":72,"componentType":5126,"count":3,"type":"VEC3","name":"accessorAnimationPositions"},{"bufferView":4,"byteOffset":36,"componentType":5126,"count":3,"max":[3.33333325],"min":[0.0],"type":"SCALAR","name":"accessorAnimationInput"},{"bufferView":5,"byteOffset":108,"componentType":5126,"count":3,"type":"VEC3","name":"accessorAnimationPositions"}],"bufferViews":[{"buffer":0,"byteLength":169152,"name":"bufferViewScalar"},{"buffer":0,"byteOffset":169152,"byteLength":402024,"byteStride":12,"name":"bufferViewFloatVec3"},{"buffer":0,"byteOffset":571176,"byteLength":268016,"byteStride":16,"name":"bufferViewFloatVec4"},{"buffer":0,"byteOffset":839192,"byteLength":5672,"byteStride":8,"name":"bufferViewFloatVec2"},{"buffer":0,"byteOffset":844864,"byteLength":48,"name":"bufferViewAnimationFloatScalar"},{"buffer":0,"byteOffset":844912,"byteLength":144,"name":"bufferViewAnimationFloatVec3"}],"buffers":[{"uri":"yuanhuan_animation.bin","byteLength":845056}],"materials":[{"pbrMetallicRoughness":{"baseColorFactor":[0.20859161,0.20859161,0.20859161,1.0],"metallicFactor":0.93717587,"roughnessFactor":0.9},"emissiveFactor":[0.000246059237,0.000246059237,0.000246059237],"alphaMode":"OPAQUE","name":"hei1"},{"pbrMetallicRoughness":{"baseColorFactor":[0.601615131,0.601615131,0.601615131,1.0],"metallicFactor":0.5697856,"roughnessFactor":0.9},"emissiveFactor":[0.150726676,0.150726676,0.150726676],"alphaMode":"OPAQUE","name":"gun"},{"pbrMetallicRoughness":{"baseColorFactor":[0.601615131,0.601615131,0.601615131,1.0],"metallicFactor":0.5697856,"roughnessFactor":0.9},"emissiveFactor":[0.150726676,0.150726676,0.150726676],"alphaMode":"OPAQUE","name":"gun1"},{"pbrMetallicRoughness":{"baseColorFactor":[0.20859161,0.20859161,0.20859161,1.0],"metallicFactor":0.93717587,"roughnessFactor":0.9},"emissiveFactor":[0.000246059237,0.000246059237,0.000246059237],"alphaMode":"OPAQUE","name":"hei"}],"animations":[{"channels":[{"sampler":0,"target":{"node":1,"path":"translation"}},{"sampler":1,"target":{"node":2,"path":"translation"}},{"sampler":2,"target":{"node":3,"path":"translation"}},{"sampler":3,"target":{"node":4,"path":"translation"}}],"samplers":[{"input":49,"interpolation":"LINEAR","output":50},{"input":51,"interpolation":"LINEAR","output":52},{"input":53,"interpolation":"LINEAR","output":54},{"input":55,"interpolation":"LINEAR","output":56}],"name":"All Animations"}],"extensions":{"KHR_lights":{"lights":[{"color":[1.0,1.0,1.0],"intensity":1.0,"type":"ambient"}]}}}