{"asset":{"version":"2.0","generator":"Babylon2Gltf2017","copyright":"2017 (c) BabylonJS"},"scene":0,"scenes":[{"nodes":[0]}],"nodes":[{"mesh":0,"translation":[0.0,0.0,0.0],"rotation":[-0.7071068,0.0,0.0,-0.7071067],"scale":[1.0,1.0,1.0],"name":"Line008"}],"meshes":[{"primitives":[{"attributes":{"POSITION":1,"NORMAL":2},"indices":0,"mode":4,"material":0}],"name":"Line008"}],"accessors":[{"bufferView":0,"componentType":5123,"count":3804,"type":"SCALAR","name":"accessorIndices"},{"bufferView":1,"componentType":5126,"count":3804,"max":[28.4857254,54.3783875,33.46232],"min":[-7.22899055,16.827898,1.67894638],"type":"VEC3","name":"accessorPositions"},{"bufferView":1,"byteOffset":45648,"componentType":5126,"count":3804,"type":"VEC3","name":"accessorNormals"}],"bufferViews":[{"buffer":0,"byteLength":7608,"name":"bufferViewScalar"},{"buffer":0,"byteOffset":7608,"byteLength":91296,"byteStride":12,"name":"bufferViewFloatVec3"}],"buffers":[{"uri":"2x.bin","byteLength":98904}],"materials":[{"pbrMetallicRoughness":{"baseColorFactor":[1.0,1.0,1.0,1.0],"baseColorTexture":{"index":0},"metallicFactor":0.0,"roughnessFactor":0.9},"emissiveFactor":[0.0,0.0,0.0],"alphaMode":"BLEND","name":"Material #3"}],"textures":[{"sampler":0,"source":0,"name":"image03.png"}],"images":[{"uri":"image03.png"}],"samplers":[{"magFilter":9729,"minFilter":9987,"wrapS":10497,"wrapT":10497}]}