{"asset":{"version":"2.0","generator":"Babylon2Gltf2017","copyright":"2017 (c) BabylonJS"},"scene":0,"scenes":[{"nodes":[0]}],"nodes":[{"mesh":0,"translation":[0.0,0.0,0.0],"rotation":[-0.5,0.5,-0.5,-0.5],"scale":[1.0,1.0,1.0],"name":"GeoSphere292"}],"meshes":[{"primitives":[{"attributes":{"POSITION":1,"NORMAL":2,"TEXCOORD_0":3},"indices":0,"mode":4,"material":0}],"name":"GeoSphere292"}],"accessors":[{"bufferView":0,"componentType":5123,"count":960,"type":"SCALAR","name":"accessorIndices"},{"bufferView":1,"componentType":5126,"count":960,"max":[40.1532936,11.2048082,71.14067],"min":[0.153293222,-28.79519,31.14067],"type":"VEC3","name":"accessorPositions"},{"bufferView":1,"byteOffset":11520,"componentType":5126,"count":960,"type":"VEC3","name":"accessorNormals"},{"bufferView":2,"componentType":5126,"count":960,"type":"VEC2","name":"accessorUVs"}],"bufferViews":[{"buffer":0,"byteLength":1920,"name":"bufferViewScalar"},{"buffer":0,"byteOffset":1920,"byteLength":23040,"byteStride":12,"name":"bufferViewFloatVec3"},{"buffer":0,"byteOffset":24960,"byteLength":7680,"byteStride":8,"name":"bufferViewFloatVec2"}],"buffers":[{"uri":"E01.bin","byteLength":32640}],"materials":[{"pbrMetallicRoughness":{"baseColorFactor":[1.0,1.0,1.0,1.0],"baseColorTexture":{"index":0},"metallicFactor":0.0,"roughnessFactor":0.9},"emissiveFactor":[0.0,0.0,0.0],"alphaMode":"BLEND","name":"Material #4"}],"textures":[{"sampler":0,"source":0,"name":"image02.png"}],"images":[{"uri":"image02.png"}],"samplers":[{"magFilter":9729,"minFilter":9987,"wrapS":10497,"wrapT":10497}]}