{"asset":{"version":"2.0","generator":"Babylon2Gltf2017","copyright":"2017 (c) BabylonJS"},"scene":0,"scenes":[{"nodes":[0]}],"nodes":[{"mesh":0,"translation":[0.0,0.0,0.0],"rotation":[-0.5,0.5,-0.5,-0.5],"scale":[1.0,1.0,1.0],"name":"GeoSphere287"}],"meshes":[{"primitives":[{"attributes":{"POSITION":1,"NORMAL":2,"TEXCOORD_0":3},"indices":0,"mode":4,"material":0}],"name":"GeoSphere287"}],"accessors":[{"bufferView":0,"componentType":5123,"count":28800,"type":"SCALAR","name":"accessorIndices"},{"bufferView":1,"componentType":5126,"count":28800,"max":[100.5845,63.19559,71.14067],"min":[-100.5845,-63.1955833,-36.21865],"type":"VEC3","name":"accessorPositions"},{"bufferView":1,"byteOffset":345600,"componentType":5126,"count":28800,"type":"VEC3","name":"accessorNormals"},{"bufferView":2,"componentType":5126,"count":28800,"type":"VEC2","name":"accessorUVs"}],"bufferViews":[{"buffer":0,"byteLength":57600,"name":"bufferViewScalar"},{"buffer":0,"byteOffset":57600,"byteLength":691200,"byteStride":12,"name":"bufferViewFloatVec3"},{"buffer":0,"byteOffset":748800,"byteLength":230400,"byteStride":8,"name":"bufferViewFloatVec2"}],"buffers":[{"uri":"E05.bin","byteLength":979200}],"materials":[{"pbrMetallicRoughness":{"baseColorFactor":[1.0,1.0,1.0,1.0],"baseColorTexture":{"index":0},"metallicFactor":0.0,"roughnessFactor":0.9},"emissiveFactor":[0.0,0.0,0.0],"alphaMode":"BLEND","name":"Material #3"}],"textures":[{"sampler":0,"source":0,"name":"image01.png"}],"images":[{"uri":"image01.png"}],"samplers":[{"magFilter":9729,"minFilter":9987,"wrapS":10497,"wrapT":10497}]}