{"asset":{"version":"2.0","generator":"Babylon2Gltf2017","copyright":"2017 (c) BabylonJS"},"scene":0,"scenes":[{"nodes":[0]}],"nodes":[{"mesh":0,"translation":[0.0,0.0,0.0],"rotation":[-0.3535534,0.6123724,-0.612372458,-0.353553385],"scale":[1.0,1.0,1.0],"name":"对象068"}],"meshes":[{"primitives":[{"attributes":{"POSITION":1,"NORMAL":2,"TEXCOORD_0":3},"indices":0,"mode":4,"material":0}],"name":"对象068"}],"accessors":[{"bufferView":0,"componentType":5123,"count":16320,"type":"SCALAR","name":"accessorIndices"},{"bufferView":1,"componentType":5126,"count":16320,"max":[80.41989,45.27749,68.43785],"min":[-39.9117851,-63.462883,-31.1246243],"type":"VEC3","name":"accessorPositions"},{"bufferView":1,"byteOffset":195840,"componentType":5126,"count":16320,"type":"VEC3","name":"accessorNormals"},{"bufferView":2,"componentType":5126,"count":16320,"type":"VEC2","name":"accessorUVs"}],"bufferViews":[{"buffer":0,"byteLength":32640,"name":"bufferViewScalar"},{"buffer":0,"byteOffset":32640,"byteLength":391680,"byteStride":12,"name":"bufferViewFloatVec3"},{"buffer":0,"byteOffset":424320,"byteLength":130560,"byteStride":8,"name":"bufferViewFloatVec2"}],"buffers":[{"uri":"E07.bin","byteLength":554880}],"materials":[{"pbrMetallicRoughness":{"baseColorFactor":[1.0,1.0,1.0,1.0],"baseColorTexture":{"index":0},"metallicFactor":0.0,"roughnessFactor":0.9},"emissiveFactor":[0.0,0.0,0.0],"alphaMode":"BLEND","name":"Material #3"}],"textures":[{"sampler":0,"source":0,"name":"image01.png"}],"images":[{"uri":"image01.png"}],"samplers":[{"magFilter":9729,"minFilter":9987,"wrapS":10497,"wrapT":10497}]}