{"asset":{"version":"2.0","generator":"Babylon2Gltf2017","copyright":"2017 (c) BabylonJS"},"scene":0,"scenes":[{"nodes":[0]}],"nodes":[{"mesh":0,"translation":[0.0,0.0,0.0],"rotation":[-0.3535534,0.6123724,-0.612372458,-0.353553385],"scale":[1.0,1.0,1.0],"name":"对象070"}],"meshes":[{"primitives":[{"attributes":{"POSITION":1,"NORMAL":2,"TEXCOORD_0":3},"indices":0,"mode":4,"material":0}],"name":"对象070"}],"accessors":[{"bufferView":0,"componentType":5123,"count":8640,"type":"SCALAR","name":"accessorIndices"},{"bufferView":1,"componentType":5126,"count":8640,"max":[80.41989,10.937644,68.43785],"min":[-20.0716362,-63.462883,-31.12461],"type":"VEC3","name":"accessorPositions"},{"bufferView":1,"byteOffset":103680,"componentType":5126,"count":8640,"type":"VEC3","name":"accessorNormals"},{"bufferView":2,"componentType":5126,"count":8640,"type":"VEC2","name":"accessorUVs"}],"bufferViews":[{"buffer":0,"byteLength":17280,"name":"bufferViewScalar"},{"buffer":0,"byteOffset":17280,"byteLength":207360,"byteStride":12,"name":"bufferViewFloatVec3"},{"buffer":0,"byteOffset":224640,"byteLength":69120,"byteStride":8,"name":"bufferViewFloatVec2"}],"buffers":[{"uri":"E09.bin","byteLength":293760}],"materials":[{"pbrMetallicRoughness":{"baseColorFactor":[1.0,1.0,1.0,1.0],"baseColorTexture":{"index":0},"metallicFactor":0.0,"roughnessFactor":0.9},"emissiveFactor":[0.0,0.0,0.0],"alphaMode":"BLEND","name":"Material #3"}],"textures":[{"sampler":0,"source":0,"name":"image01.png"}],"images":[{"uri":"image01.png"}],"samplers":[{"magFilter":9729,"minFilter":9987,"wrapS":10497,"wrapT":10497}]}