{"asset":{"version":"2.0","generator":"Babylon2Gltf2017","copyright":"2017 (c) BabylonJS"},"scene":0,"scenes":[{"nodes":[0]}],"nodes":[{"mesh":0,"translation":[0.0,0.0,0.0],"rotation":[0.0,0.0,0.0,-1.0],"scale":[1.0,1.0,1.0],"name":"GeoSphere404"}],"meshes":[{"primitives":[{"attributes":{"POSITION":1,"NORMAL":2,"TEXCOORD_0":3},"indices":0,"mode":4,"material":0}],"name":"GeoSphere404"}],"accessors":[{"bufferView":0,"componentType":5125,"count":72000,"type":"SCALAR","name":"accessorIndices"},{"bufferView":1,"componentType":5126,"count":72000,"max":[63.1010437,71.14067,100.462051],"min":[-63.1010437,-71.1406555,-100.462051],"type":"VEC3","name":"accessorPositions"},{"bufferView":1,"byteOffset":864000,"componentType":5126,"count":72000,"type":"VEC3","name":"accessorNormals"},{"bufferView":2,"componentType":5126,"count":72000,"type":"VEC2","name":"accessorUVs"}],"bufferViews":[{"buffer":0,"byteLength":288000,"name":"bufferViewScalar"},{"buffer":0,"byteOffset":288000,"byteLength":1728000,"byteStride":12,"name":"bufferViewFloatVec3"},{"buffer":0,"byteOffset":2016000,"byteLength":576000,"byteStride":8,"name":"bufferViewFloatVec2"}],"buffers":[{"uri":"x5.bin","byteLength":2592000}],"materials":[{"pbrMetallicRoughness":{"baseColorFactor":[1.0,1.0,1.0,1.0],"baseColorTexture":{"index":0},"metallicFactor":0.0,"roughnessFactor":0.9},"emissiveFactor":[0.0,0.0,0.0],"alphaMode":"BLEND","name":"Material #3"}],"textures":[{"sampler":0,"source":0,"name":"image01.png"}],"images":[{"uri":"image01.png"}],"samplers":[{"magFilter":9729,"minFilter":9987,"wrapS":10497,"wrapT":10497}]}