{"asset":{"version":"2.0","generator":"Babylon2Gltf2017","copyright":"2017 (c) BabylonJS"},"scene":0,"scenes":[{"nodes":[0]}],"nodes":[{"mesh":0,"translation":[0.0,0.0,0.0],"rotation":[0.0,0.0,0.0,-1.0],"scale":[1.0,1.0,1.0],"name":"Line006"}],"meshes":[{"primitives":[{"attributes":{"POSITION":1,"NORMAL":2},"indices":0,"mode":4,"material":0}],"name":"Line006"}],"accessors":[{"bufferView":0,"componentType":5123,"count":3984,"type":"SCALAR","name":"accessorIndices"},{"bufferView":1,"componentType":5126,"count":3984,"max":[38.0743561,14.4632387,56.5894928],"min":[-3.61270142,-50.4075737,20.2964649],"type":"VEC3","name":"accessorPositions"},{"bufferView":1,"byteOffset":47808,"componentType":5126,"count":3984,"type":"VEC3","name":"accessorNormals"}],"bufferViews":[{"buffer":0,"byteLength":7968,"name":"bufferViewScalar"},{"buffer":0,"byteOffset":7968,"byteLength":95616,"byteStride":12,"name":"bufferViewFloatVec3"}],"buffers":[{"uri":"xian2.bin","byteLength":103584}],"materials":[{"pbrMetallicRoughness":{"baseColorFactor":[1.0,1.0,1.0,1.0],"baseColorTexture":{"index":0},"metallicFactor":0.0,"roughnessFactor":0.9},"emissiveFactor":[0.0,0.0,0.0],"alphaMode":"BLEND","name":"Material #3"}],"textures":[{"sampler":0,"source":0,"name":"image01.png"}],"images":[{"uri":"image01.png"}],"samplers":[{"magFilter":9729,"minFilter":9987,"wrapS":10497,"wrapT":10497}]}