{"asset":{"version":"2.0","generator":"babylon.js glTF exporter for maya 2018 v1.2.16","copyright":"2017 (c) BabylonJS"},"extensionsUsed":["KHR_lights"],"scene":0,"scenes":[{"nodes":[0],"extensions":{"KHR_lights":{"light":0}}}],"nodes":[{"mesh":0,"translation":[0.0,0.0,0.0],"rotation":[0.0,0.0,0.0,1.0],"scale":[0.5858626,0.5858626,0.5858626],"name":"hongxibao"}],"meshes":[{"primitives":[{"attributes":{"POSITION":1,"NORMAL":2,"TANGENT":3,"TEXCOORD_0":4},"indices":0,"mode":4,"material":0}],"name":"hongxibao"}],"accessors":[{"bufferView":0,"componentType":5123,"count":10752,"type":"SCALAR","name":"accessorIndices"},{"bufferView":1,"componentType":5126,"count":1858,"max":[19.06,17.9588,11.8824],"min":[-19.3538,-17.9588,-11.5903],"type":"VEC3","name":"accessorPositions"},{"bufferView":1,"byteOffset":22296,"componentType":5126,"count":1858,"type":"VEC3","name":"accessorNormals"},{"bufferView":2,"componentType":5126,"count":1858,"type":"VEC4","name":"accessorTangents"},{"bufferView":3,"componentType":5126,"count":1858,"type":"VEC2","name":"accessorUVs"}],"bufferViews":[{"buffer":0,"byteLength":21504,"name":"bufferViewScalar"},{"buffer":0,"byteOffset":21504,"byteLength":44592,"byteStride":12,"name":"bufferViewFloatVec3"},{"buffer":0,"byteOffset":66096,"byteLength":29728,"byteStride":16,"name":"bufferViewFloatVec4"},{"buffer":0,"byteOffset":95824,"byteLength":14864,"byteStride":8,"name":"bufferViewFloatVec2"}],"buffers":[{"uri":"hxb.bin","byteLength":110688}],"materials":[{"pbrMetallicRoughness":{"baseColorFactor":[1.0,1.0,1.0,1.0],"baseColorTexture":{"index":0,"texCoord":0},"metallicFactor":0.0,"roughnessFactor":0.9},"emissiveFactor":[0.0,0.0,0.0],"alphaMode":"OPAQUE","name":"lambert2"}],"textures":[{"sampler":0,"source":0,"name":"lambert2_baseColor.jpg"}],"images":[{"uri":"lambert2_baseColor.jpg"}],"samplers":[{"magFilter":9729,"minFilter":9987,"wrapS":10497,"wrapT":10497}],"extensions":{"KHR_lights":{"lights":[{"color":[1.0,1.0,1.0],"intensity":1.0,"type":"ambient"}]}}}