{"asset":{"version":"2.0","generator":"babylon.js glTF exporter for maya 2018 v1.2.16","copyright":"2017 (c) BabylonJS"},"extensionsUsed":["KHR_lights"],"scene":0,"scenes":[{"nodes":[0],"extensions":{"KHR_lights":{"light":0}}}],"nodes":[{"mesh":0,"translation":[0.0,0.0,0.0],"rotation":[0.0,0.0,0.0,1.0],"scale":[23.1730118,23.1730118,23.1730118],"name":"xuexiaoban1"}],"meshes":[{"primitives":[{"attributes":{"POSITION":1,"NORMAL":2,"TANGENT":3,"TEXCOORD_0":4},"indices":0,"mode":4,"material":0}],"name":"xuexiaoban1"}],"accessors":[{"bufferView":0,"componentType":5123,"count":41088,"type":"SCALAR","name":"accessorIndices"},{"bufferView":1,"componentType":5126,"count":7461,"max":[2.00990176,1.771832,1.97434974],"min":[-2.19405746,-2.66201067,-2.130623],"type":"VEC3","name":"accessorPositions"},{"bufferView":1,"byteOffset":89532,"componentType":5126,"count":7461,"type":"VEC3","name":"accessorNormals"},{"bufferView":2,"componentType":5126,"count":7461,"type":"VEC4","name":"accessorTangents"},{"bufferView":3,"componentType":5126,"count":7461,"type":"VEC2","name":"accessorUVs"}],"bufferViews":[{"buffer":0,"byteLength":82176,"name":"bufferViewScalar"},{"buffer":0,"byteOffset":82176,"byteLength":179064,"byteStride":12,"name":"bufferViewFloatVec3"},{"buffer":0,"byteOffset":261240,"byteLength":119376,"byteStride":16,"name":"bufferViewFloatVec4"},{"buffer":0,"byteOffset":380616,"byteLength":59688,"byteStride":8,"name":"bufferViewFloatVec2"}],"buffers":[{"uri":"xuexiaoban.bin","byteLength":440304}],"materials":[{"pbrMetallicRoughness":{"baseColorFactor":[1.0,1.0,1.0,1.0],"baseColorTexture":{"index":0,"texCoord":0},"metallicFactor":0.0,"roughnessFactor":0.9},"emissiveFactor":[0.0,0.0,0.0],"alphaMode":"OPAQUE","name":"lambert2"}],"textures":[{"sampler":0,"source":0,"name":"lambert2_baseColor.jpg"}],"images":[{"uri":"lambert2_baseColor.jpg"}],"samplers":[{"magFilter":9729,"minFilter":9987,"wrapS":10497,"wrapT":10497}],"extensions":{"KHR_lights":{"lights":[{"color":[1.0,1.0,1.0],"intensity":1.0,"type":"ambient"}]}}}