{"asset":{"version":"2.0","generator":"babylon.js glTF exporter for maya 2018 v1.2.16","copyright":"2017 (c) BabylonJS"},"extensionsUsed":["KHR_lights"],"scene":0,"scenes":[{"nodes":[0,2,3,5,6,7,8,9,10,11,12],"extensions":{"KHR_lights":{"light":0}}}],"nodes":[{"children":[1],"mesh":0,"translation":[0.0,0.0,0.0],"rotation":[0.0,0.0,0.0,1.0],"scale":[1.0,1.0,1.0],"name":"chidao_line"},{"mesh":1,"translation":[0.0,0.0,0.0],"rotation":[0.0,0.0,0.0,1.0],"scale":[1.0,1.0,1.0],"name":"type1"},{"translation":[0.0,0.0,0.0],"rotation":[0.0,0.0,0.0,1.0],"scale":[1.0,1.0,1.0],"name":"transform1"},{"children":[4],"translation":[0.0,0.0,0.0],"rotation":[0.0,0.0,0.0,1.0],"scale":[1.0,1.0,1.0],"name":"hide_grp"},{"mesh":2,"translation":[0.0,0.0,0.0],"rotation":[0.0,0.0,0.0,1.0],"scale":[1.0,1.0,1.0],"name":"eluosi"},{"mesh":3,"translation":[0.0,0.0,0.0],"rotation":[0.0,0.0,0.0,1.0],"scale":[1.0,1.0,1.0],"name":"other_line"},{"mesh":4,"translation":[0.0,0.0,0.0],"rotation":[0.0,0.0,0.0,1.0],"scale":[1.0,1.0,1.0],"name":"eartn_main"},{"mesh":5,"translation":[0.0,0.0,0.0],"rotation":[0.0,0.0,0.0,1.0],"scale":[1.0,1.0,1.0],"name":"center"},{"mesh":6,"translation":[0.0,0.0,0.0],"rotation":[0.0,0.0,0.0,1.0],"scale":[1.0,1.0,1.0],"name":"six_on"},{"mesh":7,"translation":[0.0,0.0,0.0],"rotation":[0.0,0.0,0.0,1.0],"scale":[1.0,1.0,1.0],"name":"chidao2"},{"mesh":8,"translation":[0.0,0.0,0.0],"rotation":[0.0,0.0,0.0,1.0],"scale":[1.0,1.0,1.0],"name":"chidao1"},{"mesh":9,"translation":[0.0,0.0,0.0],"rotation":[0.0,0.0,0.0,1.0],"scale":[1.0,1.0,1.0],"name":"frame"},{"children":[13,14,15,16],"translation":[0.0,0.0,0.0],"rotation":[0.0,0.0,0.0,1.0],"scale":[1.0,1.0,1.0],"name":"type_grp"},{"mesh":10,"translation":[0.0,0.0,0.0],"rotation":[0.0,0.0,0.0,1.0],"scale":[1.0,1.0,1.0],"name":"type2"},{"mesh":11,"translation":[0.0,0.0,0.0],"rotation":[0.0,0.0,0.0,1.0],"scale":[1.0,1.0,1.0],"name":"type3"},{"mesh":12,"translation":[0.0,0.0,0.0],"rotation":[0.0,0.0,0.0,1.0],"scale":[1.0,1.0,1.0],"name":"type4"},{"mesh":13,"translation":[0.0,0.0,0.0],"rotation":[0.0,0.0,0.0,1.0],"scale":[1.0,1.0,1.0],"name":"type5"}],"meshes":[{"primitives":[{"attributes":{"POSITION":1,"NORMAL":2,"TANGENT":3,"TEXCOORD_0":4},"indices":0,"mode":4,"material":0}],"name":"chidao_line"},{"primitives":[{"attributes":{"POSITION":6,"NORMAL":7,"TANGENT":8,"COLOR_0":9,"TEXCOORD_0":10},"indices":5,"mode":4,"material":1}],"name":"type1"},{"primitives":[{"attributes":{"POSITION":12,"NORMAL":13,"TANGENT":14,"TEXCOORD_0":15},"indices":11,"mode":4,"material":2},{"attributes":{"POSITION":17,"NORMAL":18,"TANGENT":19,"TEXCOORD_0":20},"indices":16,"mode":4,"material":3}],"name":"eluosi"},{"primitives":[{"attributes":{"POSITION":22,"NORMAL":23,"TANGENT":24,"TEXCOORD_0":25},"indices":21,"mode":4,"material":4},{"attributes":{"POSITION":27,"NORMAL":28,"TANGENT":29,"TEXCOORD_0":30},"indices":26,"mode":4,"material":5}],"name":"other_line"},{"primitives":[{"attributes":{"POSITION":32,"NORMAL":33,"TANGENT":34,"TEXCOORD_0":35},"indices":31,"mode":4,"material":3}],"name":"eartn_main"},{"primitives":[{"attributes":{"POSITION":37,"NORMAL":38,"TANGENT":39,"TEXCOORD_0":40},"indices":36,"mode":4,"material":2}],"name":"center"},{"primitives":[{"attributes":{"POSITION":42,"NORMAL":43,"TANGENT":44,"TEXCOORD_0":45},"indices":41,"mode":4,"material":6},{"attributes":{"POSITION":47,"NORMAL":48,"TANGENT":49,"TEXCOORD_0":50},"indices":46,"mode":4,"material":7}],"name":"six_on"},{"primitives":[{"attributes":{"POSITION":52,"NORMAL":53,"TANGENT":54,"TEXCOORD_0":55},"indices":51,"mode":4,"material":8}],"name":"chidao2"},{"primitives":[{"attributes":{"POSITION":57,"NORMAL":58,"TANGENT":59,"TEXCOORD_0":60},"indices":56,"mode":4,"material":2}],"name":"chidao1"},{"primitives":[{"attributes":{"POSITION":62,"NORMAL":63,"TANGENT":64,"TEXCOORD_0":65},"indices":61,"mode":4,"material":2}],"name":"frame"},{"primitives":[{"attributes":{"POSITION":67,"NORMAL":68,"TANGENT":69,"COLOR_0":70,"TEXCOORD_0":71},"indices":66,"mode":4,"material":1}],"name":"type2"},{"primitives":[{"attributes":{"POSITION":73,"NORMAL":74,"TANGENT":75,"COLOR_0":76,"TEXCOORD_0":77},"indices":72,"mode":4,"material":1}],"name":"type3"},{"primitives":[{"attributes":{"POSITION":79,"NORMAL":80,"TANGENT":81,"COLOR_0":82,"TEXCOORD_0":83},"indices":78,"mode":4,"material":1}],"name":"type4"},{"primitives":[{"attributes":{"POSITION":85,"NORMAL":86,"TANGENT":87,"COLOR_0":88,"TEXCOORD_0":89},"indices":84,"mode":4,"material":1}],"name":"type5"}],"accessors":[{"bufferView":0,"componentType":5123,"count":240,"type":"SCALAR","name":"accessorIndices"},{"bufferView":1,"componentType":5126,"count":84,"max":[49.9717827,0.5000001,0.50000006],"min":[0.0,-0.5,-0.500000238],"type":"VEC3","name":"accessorPositions"},{"bufferView":1,"byteOffset":1008,"componentType":5126,"count":84,"type":"VEC3","name":"accessorNormals"},{"bufferView":2,"componentType":5126,"count":84,"type":"VEC4","name":"accessorTangents"},{"bufferView":3,"componentType":5126,"count":84,"type":"VEC2","name":"accessorUVs"},{"bufferView":0,"byteOffset":480,"componentType":5123,"count":9396,"type":"SCALAR","name":"accessorIndices"},{"bufferView":1,"byteOffset":2016,"componentType":5126,"count":3718,"max":[80.9157,1.84467316,0.25],"min":[51.0375938,-1.24868774,-1.98186313E-14],"type":"VEC3","name":"accessorPositions"},{"bufferView":1,"byteOffset":46632,"componentType":5126,"count":3718,"type":"VEC3","name":"accessorNormals"},{"bufferView":2,"byteOffset":1344,"componentType":5126,"count":3718,"type":"VEC4","name":"accessorTangents"},{"bufferView":2,"byteOffset":60832,"componentType":5126,"count":3718,"type":"VEC4","name":"accessorColors"},{"bufferView":3,"byteOffset":672,"componentType":5126,"count":3718,"type":"VEC2","name":"accessorUVs"},{"bufferView":0,"byteOffset":19272,"componentType":5123,"count":606,"type":"SCALAR","name":"accessorIndices"},{"bufferView":1,"byteOffset":91248,"componentType":5126,"count":404,"max":[44.9761467,49.89295,50.00054],"min":[-22.4880562,-3.70964829E-16,5.722046E-06],"type":"VEC3","name":"accessorPositions"},{"bufferView":1,"byteOffset":96096,"componentType":5126,"count":404,"type":"VEC3","name":"accessorNormals"},{"bufferView":2,"byteOffset":120320,"componentType":5126,"count":404,"type":"VEC4","name":"accessorTangents"},{"bufferView":3,"byteOffset":30416,"componentType":5126,"count":404,"type":"VEC2","name":"accessorUVs"},{"bufferView":0,"byteOffset":20484,"componentType":5123,"count":2256,"type":"SCALAR","name":"accessorIndices"},{"bufferView":1,"byteOffset":100944,"componentType":5126,"count":448,"max":[49.9911,50.3057327,49.9910431],"min":[-24.995533,0.3057356,-3.307056E-17],"type":"VEC3","name":"accessorPositions"},{"bufferView":1,"byteOffset":106320,"componentType":5126,"count":448,"type":"VEC3","name":"accessorNormals"},{"bufferView":2,"byteOffset":126784,"componentType":5126,"count":448,"type":"VEC4","name":"accessorTangents"},{"bufferView":3,"byteOffset":33648,"componentType":5126,"count":448,"type":"VEC2","name":"accessorUVs"},{"bufferView":0,"byteOffset":24996,"componentType":5123,"count":240,"type":"SCALAR","name":"accessorIndices"},{"bufferView":1,"byteOffset":111696,"componentType":5126,"count":84,"max":[0.4815364,50.0,0.50000006],"min":[-0.518463731,0.0,-0.500000238],"type":"VEC3","name":"accessorPositions"},{"bufferView":1,"byteOffset":112704,"componentType":5126,"count":84,"type":"VEC3","name":"accessorNormals"},{"bufferView":2,"byteOffset":133952,"componentType":5126,"count":84,"type":"VEC4","name":"accessorTangents"},{"bufferView":3,"byteOffset":37232,"componentType":5126,"count":84,"type":"VEC2","name":"accessorUVs"},{"bufferView":0,"byteOffset":25476,"componentType":5123,"count":240,"type":"SCALAR","name":"accessorIndices"},{"bufferView":1,"byteOffset":113712,"componentType":5126,"count":84,"max":[35.695755,35.6687546,0.50000006],"min":[-0.391708255,-0.418707222,-0.500000238],"type":"VEC3","name":"accessorPositions"},{"bufferView":1,"byteOffset":114720,"componentType":5126,"count":84,"type":"VEC3","name":"accessorNormals"},{"bufferView":2,"byteOffset":135296,"componentType":5126,"count":84,"type":"VEC4","name":"accessorTangents"},{"bufferView":3,"byteOffset":37904,"componentType":5126,"count":84,"type":"VEC2","name":"accessorUVs"},{"bufferView":0,"byteOffset":25956,"componentType":5123,"count":11280,"type":"SCALAR","name":"accessorIndices"},{"bufferView":1,"byteOffset":115728,"componentType":5126,"count":2096,"max":[50.0000648,50.0,49.9910431],"min":[-50.00003,-50.0,-50.0000534],"type":"VEC3","name":"accessorPositions"},{"bufferView":1,"byteOffset":140880,"componentType":5126,"count":2096,"type":"VEC3","name":"accessorNormals"},{"bufferView":2,"byteOffset":136640,"componentType":5126,"count":2096,"type":"VEC4","name":"accessorTangents"},{"bufferView":3,"byteOffset":38576,"componentType":5126,"count":2096,"type":"VEC2","name":"accessorUVs"},{"bufferView":0,"byteOffset":48516,"componentType":5123,"count":2280,"type":"SCALAR","name":"accessorIndices"},{"bufferView":1,"byteOffset":166032,"componentType":5126,"count":439,"max":[1.0,1.0,1.00000012],"min":[-1.00000024,-1.0,-1.00000048],"type":"VEC3","name":"accessorPositions"},{"bufferView":1,"byteOffset":171300,"componentType":5126,"count":439,"type":"VEC3","name":"accessorNormals"},{"bufferView":2,"byteOffset":170176,"componentType":5126,"count":439,"type":"VEC4","name":"accessorTangents"},{"bufferView":3,"byteOffset":55344,"componentType":5126,"count":439,"type":"VEC2","name":"accessorUVs"},{"bufferView":0,"byteOffset":53076,"componentType":5123,"count":324,"type":"SCALAR","name":"accessorIndices"},{"bufferView":1,"byteOffset":176568,"componentType":5126,"count":224,"max":[48.5025864,48.82934,48.38514],"min":[-24.2471676,-2.98023224E-08,-0.003816453],"type":"VEC3","name":"accessorPositions"},{"bufferView":1,"byteOffset":179256,"componentType":5126,"count":224,"type":"VEC3","name":"accessorNormals"},{"bufferView":2,"byteOffset":177200,"componentType":5126,"count":224,"type":"VEC4","name":"accessorTangents"},{"bufferView":3,"byteOffset":58856,"componentType":5126,"count":224,"type":"VEC2","name":"accessorUVs"},{"bufferView":0,"byteOffset":53724,"componentType":5123,"count":408,"type":"SCALAR","name":"accessorIndices"},{"bufferView":1,"byteOffset":181944,"componentType":5126,"count":276,"max":[50.0000572,50.0,50.0000076],"min":[-25.000021,-9.1043767E-10,-0.00339180115],"type":"VEC3","name":"accessorPositions"},{"bufferView":1,"byteOffset":185256,"componentType":5126,"count":276,"type":"VEC3","name":"accessorNormals"},{"bufferView":2,"byteOffset":180784,"componentType":5126,"count":276,"type":"VEC4","name":"accessorTangents"},{"bufferView":3,"byteOffset":60648,"componentType":5126,"count":276,"type":"VEC2","name":"accessorUVs"},{"bufferView":0,"byteOffset":54540,"componentType":5123,"count":288,"type":"SCALAR","name":"accessorIndices"},{"bufferView":1,"byteOffset":188568,"componentType":5126,"count":100,"max":[50.10297,0.15286766,50.1029129],"min":[-50.1029434,-0.3489001,-50.10296],"type":"VEC3","name":"accessorPositions"},{"bufferView":1,"byteOffset":189768,"componentType":5126,"count":100,"type":"VEC3","name":"accessorNormals"},{"bufferView":2,"byteOffset":185200,"componentType":5126,"count":100,"type":"VEC4","name":"accessorTangents"},{"bufferView":3,"byteOffset":62856,"componentType":5126,"count":100,"type":"VEC2","name":"accessorUVs"},{"bufferView":0,"byteOffset":55116,"componentType":5123,"count":288,"type":"SCALAR","name":"accessorIndices"},{"bufferView":1,"byteOffset":190968,"componentType":5126,"count":100,"max":[50.10297,0.15286766,50.1029129],"min":[-50.1029434,-0.3489001,-50.10296],"type":"VEC3","name":"accessorPositions"},{"bufferView":1,"byteOffset":192168,"componentType":5126,"count":100,"type":"VEC3","name":"accessorNormals"},{"bufferView":2,"byteOffset":186800,"componentType":5126,"count":100,"type":"VEC4","name":"accessorTangents"},{"bufferView":3,"byteOffset":63656,"componentType":5126,"count":100,"type":"VEC2","name":"accessorUVs"},{"bufferView":0,"byteOffset":55692,"componentType":5123,"count":3930,"type":"SCALAR","name":"accessorIndices"},{"bufferView":1,"byteOffset":193368,"componentType":5126,"count":1394,"max":[50.00096,49.89295,50.00054],"min":[-50.00193,-49.89295,-50.0072174],"type":"VEC3","name":"accessorPositions"},{"bufferView":1,"byteOffset":210096,"componentType":5126,"count":1394,"type":"VEC3","name":"accessorNormals"},{"bufferView":2,"byteOffset":188400,"componentType":5126,"count":1394,"type":"VEC4","name":"accessorTangents"},{"bufferView":3,"byteOffset":64456,"componentType":5126,"count":1394,"type":"VEC2","name":"accessorUVs"},{"bufferView":0,"byteOffset":63552,"componentType":5123,"count":7908,"type":"SCALAR","name":"accessorIndices"},{"bufferView":1,"byteOffset":226824,"componentType":5126,"count":3114,"max":[15.2314835,54.387825,0.25],"min":[-10.5534515,51.3010178,0.0],"type":"VEC3","name":"accessorPositions"},{"bufferView":1,"byteOffset":264192,"componentType":5126,"count":3114,"type":"VEC3","name":"accessorNormals"},{"bufferView":2,"byteOffset":210704,"componentType":5126,"count":3114,"type":"VEC4","name":"accessorTangents"},{"bufferView":2,"byteOffset":260528,"componentType":5126,"count":3114,"type":"VEC4","name":"accessorColors"},{"bufferView":3,"byteOffset":75608,"componentType":5126,"count":3114,"type":"VEC2","name":"accessorUVs"},{"bufferView":0,"byteOffset":79368,"componentType":5123,"count":7248,"type":"SCALAR","name":"accessorIndices"},{"bufferView":1,"byteOffset":301560,"componentType":5126,"count":2946,"max":[65.34376,39.2732925,0.25],"min":[36.2454872,36.1894379,0.0],"type":"VEC3","name":"accessorPositions"},{"bufferView":1,"byteOffset":336912,"componentType":5126,"count":2946,"type":"VEC3","name":"accessorNormals"},{"bufferView":2,"byteOffset":310352,"componentType":5126,"count":2946,"type":"VEC4","name":"accessorTangents"},{"bufferView":2,"byteOffset":357488,"componentType":5126,"count":2946,"type":"VEC4","name":"accessorColors"},{"bufferView":3,"byteOffset":100520,"componentType":5126,"count":2946,"type":"VEC2","name":"accessorUVs"},{"bufferView":0,"byteOffset":93864,"componentType":5123,"count":9288,"type":"SCALAR","name":"accessorIndices"},{"bufferView":1,"byteOffset":372264,"componentType":5126,"count":3678,"max":[-50.7488861,1.421669,0.25],"min":[-81.73811,-1.69197845,0.0],"type":"VEC3","name":"accessorPositions"},{"bufferView":1,"byteOffset":416400,"componentType":5126,"count":3678,"type":"VEC3","name":"accessorNormals"},{"bufferView":2,"byteOffset":404624,"componentType":5126,"count":3678,"type":"VEC4","name":"accessorTangents"},{"bufferView":2,"byteOffset":463472,"componentType":5126,"count":3678,"type":"VEC4","name":"accessorColors"},{"bufferView":3,"byteOffset":124088,"componentType":5126,"count":3678,"type":"VEC2","name":"accessorUVs"},{"bufferView":0,"byteOffset":112440,"componentType":5123,"count":7500,"type":"SCALAR","name":"accessorIndices"},{"bufferView":1,"byteOffset":460536,"componentType":5126,"count":3080,"max":[63.99913,-40.067337,0.25],"min":[30.8852844,-43.17105,0.0],"type":"VEC3","name":"accessorPositions"},{"bufferView":1,"byteOffset":497496,"componentType":5126,"count":3080,"type":"VEC3","name":"accessorNormals"},{"bufferView":2,"byteOffset":522320,"componentType":5126,"count":3080,"type":"VEC4","name":"accessorTangents"},{"bufferView":2,"byteOffset":571600,"componentType":5126,"count":3080,"type":"VEC4","name":"accessorColors"},{"bufferView":3,"byteOffset":153512,"componentType":5126,"count":3080,"type":"VEC2","name":"accessorUVs"},{"bufferView":4,"componentType":5126,"count":180,"max":[5.9666667],"min":[0.0],"type":"SCALAR","name":"accessorAnimationInput"},{"bufferView":5,"componentType":5126,"count":180,"type":"VEC4","name":"accessorAnimationRotations"}],"bufferViews":[{"buffer":0,"byteLength":127440,"name":"bufferViewScalar"},{"buffer":0,"byteOffset":127440,"byteLength":534456,"byteStride":12,"name":"bufferViewFloatVec3"},{"buffer":0,"byteOffset":661896,"byteLength":620880,"byteStride":16,"name":"bufferViewFloatVec4"},{"buffer":0,"byteOffset":1282776,"byteLength":178152,"byteStride":8,"name":"bufferViewFloatVec2"},{"buffer":0,"byteOffset":1460928,"byteLength":720,"name":"bufferViewAnimationFloatScalar"},{"buffer":0,"byteOffset":1461648,"byteLength":2880,"name":"bufferViewAnimationFloatVec4"}],"buffers":[{"uri":"earth_measure_01.bin","byteLength":1464528}],"materials":[{"pbrMetallicRoughness":{"baseColorFactor":[0.8989584,0.178892717,0.4915691,1.0],"metallicFactor":0.0,"roughnessFactor":0.9},"emissiveFactor":[0.21575,0.04293425,0.117976576],"alphaMode":"OPAQUE","name":"Pink_m"},{"pbrMetallicRoughness":{"baseColorFactor":[1.0,1.0,1.0,1.0],"metallicFactor":0.0,"roughnessFactor":0.9},"emissiveFactor":[0.5116279,0.5116279,0.5116279],"alphaMode":"OPAQUE","name":"type_m"},{"pbrMetallicRoughness":{"baseColorFactor":[0.440998,0.6320263,0.8927084,1.0],"metallicFactor":0.0,"roughnessFactor":0.9},"emissiveFactor":[0.0,0.0,0.0],"alphaMode":"OPAQUE","name":"jingwei_m"},{"pbrMetallicRoughness":{"baseColorFactor":[0.142394185,0.404378265,0.6118377,0.16618073],"metallicFactor":0.18738234,"roughnessFactor":0.199999988},"emissiveFactor":[0.0,0.0,0.0],"alphaMode":"BLEND","name":"earth_01"},{"pbrMetallicRoughness":{"baseColorFactor":[1.0,0.8526514,0.186458364,1.0],"metallicFactor":0.0,"roughnessFactor":0.9},"emissiveFactor":[0.25,0.20463632,0.044750005],"alphaMode":"OPAQUE","name":"yellow_m"},{"pbrMetallicRoughness":{"baseColorFactor":[0.284404069,1.0,0.252343774,1.0],"metallicFactor":0.0,"roughnessFactor":0.9},"emissiveFactor":[0.0682569742,0.24225,0.0605625],"alphaMode":"OPAQUE","name":"Lv_m"},{"pbrMetallicRoughness":{"baseColorFactor":[0.6575001,0.4519792,0.28343752,0.366197169],"metallicFactor":0.0,"roughnessFactor":0.9},"emissiveFactor":[0.0,0.0,0.0],"alphaMode":"BLEND","name":"six_one"},{"pbrMetallicRoughness":{"baseColorFactor":[0.30375,0.145729169,0.0594791733,0.886297345],"metallicFactor":0.0,"roughnessFactor":0.0},"emissiveFactor":[0.0331556872,0.0159069989,0.00649242057],"alphaMode":"BLEND","name":"bianyuan"},{"pbrMetallicRoughness":{"baseColorFactor":[1.0,0.0375,0.0,1.0],"metallicFactor":0.0,"roughnessFactor":0.9},"emissiveFactor":[0.48732394,0.01754366,0.0],"alphaMode":"OPAQUE","name":"chidao_m"}],"animations":[{"channels":[{"sampler":0,"target":{"node":0,"path":"rotation"}}],"samplers":[{"input":90,"interpolation":"LINEAR","output":91}],"name":"machi"}],"extensions":{"KHR_lights":{"lights":[{"color":[1.0,1.0,1.0],"intensity":1.0,"type":"ambient"}]}}}