{"asset":{"version":"2.0","generator":"babylon.js glTF exporter for maya 2018 v1.2.16","copyright":"2017 (c) BabylonJS"},"extensionsUsed":["KHR_lights"],"scene":0,"scenes":[{"nodes":[0],"extensions":{"KHR_lights":{"light":0}}}],"nodes":[{"children":[1,2,3],"translation":[0.0,0.0,0.0],"rotation":[0.0,0.0,0.0,1.0],"scale":[1.0,1.0,1.0],"name":"B"},{"mesh":0,"translation":[0.0,0.0,0.0],"rotation":[0.0,0.0,0.0,1.0],"scale":[1.0,1.0,1.0],"name":"O"},{"mesh":1,"translation":[0.0,0.0,0.0],"rotation":[0.0,0.0,0.0,1.0],"scale":[1.0,1.0,1.0],"name":"gun"},{"mesh":2,"translation":[0.0,0.0,0.0],"rotation":[0.0,0.0,0.0,1.0],"scale":[1.0,1.0,1.0],"name":"Si"}],"meshes":[{"primitives":[{"attributes":{"POSITION":1,"NORMAL":2,"TANGENT":3,"TEXCOORD_0":4},"indices":0,"mode":4,"material":0}],"name":"O"},{"primitives":[{"attributes":{"POSITION":6,"NORMAL":7,"TANGENT":8,"TEXCOORD_0":9},"indices":5,"mode":4,"material":1}],"name":"gun"},{"primitives":[{"attributes":{"POSITION":11,"NORMAL":12,"TANGENT":13,"TEXCOORD_0":14},"indices":10,"mode":4,"material":2}],"name":"Si"}],"accessors":[{"bufferView":0,"componentType":5123,"count":109200,"type":"SCALAR","name":"accessorIndices"},{"bufferView":1,"componentType":5126,"count":21650,"max":[67.90744,70.45915,41.0723457],"min":[-67.90743,-57.649044,-77.729744],"type":"VEC3","name":"accessorPositions"},{"bufferView":1,"byteOffset":259800,"componentType":5126,"count":21650,"type":"VEC3","name":"accessorNormals"},{"bufferView":2,"componentType":5126,"count":21650,"type":"VEC4","name":"accessorTangents"},{"bufferView":3,"componentType":5126,"count":21650,"type":"VEC2","name":"accessorUVs"},{"bufferView":0,"byteOffset":218400,"componentType":5123,"count":3600,"type":"SCALAR","name":"accessorIndices"},{"bufferView":1,"byteOffset":519600,"componentType":5126,"count":1300,"max":[64.25586,78.69433,37.4207726],"min":[-64.25586,-52.23657,-74.07816],"type":"VEC3","name":"accessorPositions"},{"bufferView":1,"byteOffset":535200,"componentType":5126,"count":1300,"type":"VEC3","name":"accessorNormals"},{"bufferView":2,"byteOffset":346400,"componentType":5126,"count":1300,"type":"VEC4","name":"accessorTangents"},{"bufferView":3,"byteOffset":173200,"componentType":5126,"count":1300,"type":"VEC2","name":"accessorUVs"},{"bufferView":0,"byteOffset":225600,"componentType":5123,"count":65520,"type":"SCALAR","name":"accessorIndices"},{"bufferView":1,"byteOffset":550800,"componentType":5126,"count":12990,"max":[68.84715,84.06399,42.02708],"min":[-68.86217,-45.9289169,-78.66946],"type":"VEC3","name":"accessorPositions"},{"bufferView":1,"byteOffset":706680,"componentType":5126,"count":12990,"type":"VEC3","name":"accessorNormals"},{"bufferView":2,"byteOffset":367200,"componentType":5126,"count":12990,"type":"VEC4","name":"accessorTangents"},{"bufferView":3,"byteOffset":183600,"componentType":5126,"count":12990,"type":"VEC2","name":"accessorUVs"}],"bufferViews":[{"buffer":0,"byteLength":356640,"name":"bufferViewScalar"},{"buffer":0,"byteOffset":356640,"byteLength":862560,"byteStride":12,"name":"bufferViewFloatVec3"},{"buffer":0,"byteOffset":1219200,"byteLength":575040,"byteStride":16,"name":"bufferViewFloatVec4"},{"buffer":0,"byteOffset":1794240,"byteLength":287520,"byteStride":8,"name":"bufferViewFloatVec2"}],"buffers":[{"uri":"yzjt2_B.bin","byteLength":2081760}],"materials":[{"pbrMetallicRoughness":{"baseColorFactor":[0.931361437,0.04331707,0.04331707,1.0],"metallicFactor":0.126618534,"roughnessFactor":0.6},"emissiveFactor":[0.0,0.0,0.0],"alphaMode":"OPAQUE","name":"O_m"},{"pbrMetallicRoughness":{"baseColorFactor":[0.520096064,0.520096064,0.520096064,1.0],"metallicFactor":0.124974996,"roughnessFactor":0.6},"emissiveFactor":[0.0,0.0,0.0],"alphaMode":"OPAQUE","name":"blinn4"},{"pbrMetallicRoughness":{"baseColorFactor":[0.3546105,0.414712042,0.414712042,1.0],"metallicFactor":0.167727992,"roughnessFactor":0.6},"emissiveFactor":[0.0,0.0,0.0],"alphaMode":"OPAQUE","name":"blinn5"}],"extensions":{"KHR_lights":{"lights":[{"color":[1.0,1.0,1.0],"intensity":1.0,"type":"ambient"}]}}}