{"asset":{"version":"2.0","generator":"Babylon2Gltf2017","copyright":"2017(c)BabylonJS"},"scene":0,"scenes":[{"nodes":[0]}],"nodes":[{"mesh":0,"translation":[0.0,0.0,0.0],"rotation":[0.0,0.0,0.0,-1.0],"scale":[0.9365708,0.9365708,0.9365708],"name":"Sphere053"}],"meshes":[{"primitives":[{"attributes":{"POSITION":1,"NORMAL":2,"TEXCOORD_0":3},"indices":0,"mode":4,"material":0},{"attributes":{"POSITION":5,"NORMAL":6,"TEXCOORD_0":7},"indices":4,"mode":4,"material":1}],"name":"Sphere053"}],"accessors":[{"bufferView":0,"componentType":5125,"count":32856,"type":"SCALAR","name":"accessorIndices"},{"bufferView":1,"componentType":5126,"count":32856,"max":[19.1691341,12.0136509,5.269937],"min":[-19.1691341,-9.878116,-5.26993561],"type":"VEC3","name":"accessorPositions"},{"bufferView":1,"byteOffset":394272,"componentType":5126,"count":32856,"type":"VEC3","name":"accessorNormals"},{"bufferView":2,"componentType":5126,"count":32856,"type":"VEC2","name":"accessorUVs"},{"bufferView":0,"byteOffset":131424,"componentType":5125,"count":59712,"type":"SCALAR","name":"accessorIndices"},{"bufferView":1,"byteOffset":788544,"componentType":5126,"count":59712,"max":[26.533823,16.23197,10.8352232],"min":[-26.5338249,-16.23197,-10.8352232],"type":"VEC3","name":"accessorPositions"},{"bufferView":1,"byteOffset":1505088,"componentType":5126,"count":59712,"type":"VEC3","name":"accessorNormals"},{"bufferView":2,"byteOffset":262848,"componentType":5126,"count":59712,"type":"VEC2","name":"accessorUVs"}],"bufferViews":[{"buffer":0,"byteLength":370272,"name":"bufferViewScalar"},{"buffer":0,"byteOffset":370272,"byteLength":2221632,"byteStride":12,"name":"bufferViewFloatVec3"},{"buffer":0,"byteOffset":2591904,"byteLength":740544,"byteStride":8,"name":"bufferViewFloatVec2"}],"buffers":[{"uri":"sdx.bin","byteLength":3332448}],"materials":[{"pbrMetallicRoughness":{"baseColorFactor":[1.0,1.0,1.0,1.0],"baseColorTexture":{"index":0},"metallicFactor":0.0,"roughnessFactor":0.9},"emissiveFactor":[0.0,0.0,0.0],"alphaMode":"BLEND","name":"Material126"},{"pbrMetallicRoughness":{"baseColorFactor":[1.0,1.0,1.0,1.0],"baseColorTexture":{"index":1},"metallicFactor":0.0,"roughnessFactor":0.9},"emissiveFactor":[0.0,0.0,0.0],"alphaMode":"BLEND","name":"Material5077"}],"textures":[{"sampler":0,"source":0,"name":"Material126_baseColor.png"},{"sampler":1,"source":1,"name":"Material5077_baseColor.png"}],"images":[{"uri":"Material126_baseColor.png"},{"uri":"Material5077_baseColor.png"}],"samplers":[{"magFilter":9729,"minFilter":9987,"wrapS":10497,"wrapT":10497},{"magFilter":9729,"minFilter":9987,"wrapS":10497,"wrapT":10497}]}