{"asset":{"version":"2.0","generator":"Babylon2Gltf2017","copyright":"2017 (c) BabylonJS"},"scene":0,"scenes":[{"nodes":[0]}],"nodes":[{"mesh":0,"translation":[0.0,1.90734863E-06,-1.52587891E-05],"rotation":[-0.7071068,0.0,0.0,-0.7071067],"scale":[1.0,1.0,1.0],"name":"1"}],"meshes":[{"primitives":[{"attributes":{"POSITION":1,"NORMAL":2,"TEXCOORD_0":3},"indices":0,"mode":4,"material":0}],"name":"1"}],"accessors":[{"bufferView":0,"componentType":5123,"count":12636,"type":"SCALAR","name":"accessorIndices"},{"bufferView":1,"componentType":5126,"count":12636,"max":[25.0000668,25.0000267,25.0000248],"min":[-25.0000668,-25.0000267,-25.0000248],"type":"VEC3","name":"accessorPositions"},{"bufferView":1,"byteOffset":151632,"componentType":5126,"count":12636,"type":"VEC3","name":"accessorNormals"},{"bufferView":2,"componentType":5126,"count":12636,"type":"VEC2","name":"accessorUVs"}],"bufferViews":[{"buffer":0,"byteLength":25272,"name":"bufferViewScalar"},{"buffer":0,"byteOffset":25272,"byteLength":303264,"byteStride":12,"name":"bufferViewFloatVec3"},{"buffer":0,"byteOffset":328536,"byteLength":101088,"byteStride":8,"name":"bufferViewFloatVec2"}],"buffers":[{"uri":"jingbao3.bin","byteLength":429624}],"materials":[{"pbrMetallicRoughness":{"baseColorFactor":[0.612745166,0.612745166,0.612745166,1.0],"metallicFactor":0.0,"roughnessFactor":0.9},"emissiveFactor":[0.0,0.0,0.0],"alphaMode":"OPAQUE","name":"01 - Default"}]}