{
    "accessors" : [
        {
            "bufferView" : 0, 
            "componentType" : 5121, 
            "count" : 444, 
            "max" : [
                241
            ], 
            "min" : [
                0
            ], 
            "type" : "SCALAR"
        }, 
        {
            "bufferView" : 1, 
            "componentType" : 5126, 
            "count" : 242, 
            "max" : [
                -13.258460998535156, 
                -19.736494064331055, 
                3.6271791458129883
            ], 
            "min" : [
                -19.528522491455078, 
                -24.703519821166992, 
                -3.6271791458129883
            ], 
            "type" : "VEC3"
        }, 
        {
            "bufferView" : 2, 
            "componentType" : 5126, 
            "count" : 242, 
            "max" : [
                0.49616992473602295, 
                -0.0035096285864710808, 
                0.8646809458732605
            ], 
            "min" : [
                -0.9985045790672302, 
                -0.999359130859375, 
                -0.8646809458732605
            ], 
            "type" : "VEC3"
        }, 
        {
            "bufferView" : 3, 
            "componentType" : 5126, 
            "count" : 242, 
            "max" : [
                1.0, 
                0.0, 
                -0.0, 
                1.0
            ], 
            "min" : [
                1.0, 
                0.0, 
                -0.0, 
                1.0
            ], 
            "type" : "VEC4"
        }, 
        {
            "bufferView" : 4, 
            "componentType" : 5126, 
            "count" : 242, 
            "max" : [
                0.9800000190734863, 
                1.0
            ], 
            "min" : [
                4.470348358154297e-08, 
                1.0
            ], 
            "type" : "VEC2"
        }, 
        {
            "bufferView" : 5, 
            "componentType" : 5123, 
            "count" : 25458, 
            "max" : [
                7107
            ], 
            "min" : [
                0
            ], 
            "type" : "SCALAR"
        }, 
        {
            "bufferView" : 6, 
            "componentType" : 5126, 
            "count" : 7108, 
            "max" : [
                13.083662033081055, 
                52.37873840332031, 
                13.066391944885254
            ], 
            "min" : [
                -13.09645938873291, 
                -4.303840637207031, 
                -13.062067985534668
            ], 
            "type" : "VEC3"
        }, 
        {
            "bufferView" : 7, 
            "componentType" : 5126, 
            "count" : 7108, 
            "max" : [
                1.0, 
                1.0, 
                1.0
            ], 
            "min" : [
                -1.0, 
                -1.0, 
                -1.0
            ], 
            "type" : "VEC3"
        }, 
        {
            "bufferView" : 8, 
            "componentType" : 5126, 
            "count" : 7108, 
            "max" : [
                1.0, 
                1.0, 
                1.0, 
                1.0
            ], 
            "min" : [
                -1.0, 
                -1.0, 
                -1.0, 
                1.0
            ], 
            "type" : "VEC4"
        }, 
        {
            "bufferView" : 9, 
            "componentType" : 5126, 
            "count" : 7108, 
            "max" : [
                4.286273002624512, 
                1.3179241716861725
            ], 
            "min" : [
                -10.644696235656738, 
                0.0
            ], 
            "type" : "VEC2"
        }, 
        {
            "bufferView" : 10, 
            "componentType" : 5123, 
            "count" : 27816, 
            "max" : [
                7240
            ], 
            "min" : [
                0
            ], 
            "type" : "SCALAR"
        }, 
        {
            "bufferView" : 11, 
            "componentType" : 5126, 
            "count" : 7241, 
            "max" : [
                18.203346252441406, 
                0.6034202575683594, 
                13.071389198303223
            ], 
            "min" : [
                -22.472036361694336, 
                -28.94224739074707, 
                -13.062067985534668
            ], 
            "type" : "VEC3"
        }, 
        {
            "bufferView" : 12, 
            "componentType" : 5126, 
            "count" : 7241, 
            "max" : [
                1.0, 
                0.9973143935203552, 
                1.0
            ], 
            "min" : [
                -1.0, 
                -1.0, 
                -1.0
            ], 
            "type" : "VEC3"
        }, 
        {
            "bufferView" : 13, 
            "componentType" : 5126, 
            "count" : 7241, 
            "max" : [
                1.0, 
                0.0, 
                -0.0, 
                1.0
            ], 
            "min" : [
                1.0, 
                0.0, 
                -0.0, 
                1.0
            ], 
            "type" : "VEC4"
        }, 
        {
            "bufferView" : 14, 
            "componentType" : 5126, 
            "count" : 7241, 
            "max" : [
                1.0205144882202148, 
                1.0
            ], 
            "min" : [
                -0.030000079423189163, 
                1.0
            ], 
            "type" : "VEC2"
        }, 
        {
            "bufferView" : 15, 
            "componentType" : 5126, 
            "count" : 1, 
            "max" : [
                0.0
            ], 
            "min" : [
                0.0
            ], 
            "type" : "SCALAR"
        }, 
        {
            "bufferView" : 16, 
            "componentType" : 5126, 
            "count" : 1, 
            "max" : [
                0.0, 
                0.0, 
                -0.0
            ], 
            "min" : [
                0.0, 
                0.0, 
                -0.0
            ], 
            "type" : "VEC3"
        }, 
        {
            "bufferView" : 17, 
            "componentType" : 5126, 
            "count" : 1, 
            "max" : [
                0.0
            ], 
            "min" : [
                0.0
            ], 
            "type" : "SCALAR"
        }, 
        {
            "bufferView" : 18, 
            "componentType" : 5126, 
            "count" : 1, 
            "max" : [
                8.881785255792436e-16, 
                -8.88178366760566e-16, 
                -0.7071067094802856, 
                0.7071068286895752
            ], 
            "min" : [
                8.881785255792436e-16, 
                -8.88178366760566e-16, 
                -0.7071067094802856, 
                0.7071068286895752
            ], 
            "type" : "VEC4"
        }, 
        {
            "bufferView" : 19, 
            "componentType" : 5126, 
            "count" : 1, 
            "max" : [
                0.0
            ], 
            "min" : [
                0.0
            ], 
            "type" : "SCALAR"
        }, 
        {
            "bufferView" : 20, 
            "componentType" : 5126, 
            "count" : 1, 
            "max" : [
                0.589414119720459, 
                0.589414119720459, 
                0.589414119720459
            ], 
            "min" : [
                0.589414119720459, 
                0.589414119720459, 
                0.589414119720459
            ], 
            "type" : "VEC3"
        }
    ], 
    "animations" : [
        {
            "channels" : [
                {
                    "sampler" : 0, 
                    "target" : {
                        "node" : 0, 
                        "path" : "translation"
                    }
                }, 
                {
                    "sampler" : 1, 
                    "target" : {
                        "node" : 0, 
                        "path" : "rotation"
                    }
                }, 
                {
                    "sampler" : 2, 
                    "target" : {
                        "node" : 0, 
                        "path" : "scale"
                    }
                }
            ], 
            "samplers" : [
                {
                    "input" : 15, 
                    "interpolation" : "LINEAR", 
                    "output" : 16
                }, 
                {
                    "input" : 17, 
                    "interpolation" : "LINEAR", 
                    "output" : 18
                }, 
                {
                    "input" : 19, 
                    "interpolation" : "LINEAR", 
                    "output" : 20
                }
            ]
        }
    ], 
    "asset" : {
        "generator" : "Khronos Blender glTF 2.0 exporter", 
        "version" : "2.0"
    }, 
    "bufferViews" : [
        {
            "buffer" : 0, 
            "byteLength" : 444, 
            "byteOffset" : 0, 
            "target" : 34963
        }, 
        {
            "buffer" : 0, 
            "byteLength" : 2904, 
            "byteOffset" : 444, 
            "target" : 34962
        }, 
        {
            "buffer" : 0, 
            "byteLength" : 2904, 
            "byteOffset" : 3348, 
            "target" : 34962
        }, 
        {
            "buffer" : 0, 
            "byteLength" : 3872, 
            "byteOffset" : 6252, 
            "target" : 34962
        }, 
        {
            "buffer" : 0, 
            "byteLength" : 1936, 
            "byteOffset" : 10124, 
            "target" : 34962
        }, 
        {
            "buffer" : 0, 
            "byteLength" : 50916, 
            "byteOffset" : 12060, 
            "target" : 34963
        }, 
        {
            "buffer" : 0, 
            "byteLength" : 85296, 
            "byteOffset" : 62976, 
            "target" : 34962
        }, 
        {
            "buffer" : 0, 
            "byteLength" : 85296, 
            "byteOffset" : 148272, 
            "target" : 34962
        }, 
        {
            "buffer" : 0, 
            "byteLength" : 113728, 
            "byteOffset" : 233568, 
            "target" : 34962
        }, 
        {
            "buffer" : 0, 
            "byteLength" : 56864, 
            "byteOffset" : 347296, 
            "target" : 34962
        }, 
        {
            "buffer" : 0, 
            "byteLength" : 55632, 
            "byteOffset" : 404160, 
            "target" : 34963
        }, 
        {
            "buffer" : 0, 
            "byteLength" : 86892, 
            "byteOffset" : 459792, 
            "target" : 34962
        }, 
        {
            "buffer" : 0, 
            "byteLength" : 86892, 
            "byteOffset" : 546684, 
            "target" : 34962
        }, 
        {
            "buffer" : 0, 
            "byteLength" : 115856, 
            "byteOffset" : 633576, 
            "target" : 34962
        }, 
        {
            "buffer" : 0, 
            "byteLength" : 57928, 
            "byteOffset" : 749432, 
            "target" : 34962
        }, 
        {
            "buffer" : 0, 
            "byteLength" : 4, 
            "byteOffset" : 807360
        }, 
        {
            "buffer" : 0, 
            "byteLength" : 12, 
            "byteOffset" : 807364
        }, 
        {
            "buffer" : 0, 
            "byteLength" : 4, 
            "byteOffset" : 807376
        }, 
        {
            "buffer" : 0, 
            "byteLength" : 16, 
            "byteOffset" : 807380
        }, 
        {
            "buffer" : 0, 
            "byteLength" : 4, 
            "byteOffset" : 807396
        }, 
        {
            "buffer" : 0, 
            "byteLength" : 12, 
            "byteOffset" : 807400
        }
    ], 
    "buffers" : [
        {
            "byteLength" : 807412, 
            "uri" : "dinengdianziqiang.bin"
        }
    ], 
    "materials" : [
        {
            "name" : "Material #0", 
            "pbrMetallicRoughness" : {
                "baseColorFactor" : [
                    0.4704000066280365, 
                    0.4704000066280365, 
                    0.4704000066280365, 
                    1.0
                ], 
                "metallicFactor" : 0.0
            }
        }, 
        {
            "name" : "Material #1", 
            "pbrMetallicRoughness" : {
                "baseColorFactor" : [
                    0.4704000066280365, 
                    0.4704000066280365, 
                    0.4704000066280365, 
                    1.0
                ], 
                "metallicFactor" : 0.0
            }
        }, 
        {
            "name" : "Material #3", 
            "pbrMetallicRoughness" : {
                "baseColorFactor" : [
                    0.4704000066280365, 
                    0.4704000066280365, 
                    0.4704000066280365, 
                    1.0
                ], 
                "metallicFactor" : 0.0
            }
        }
    ], 
    "meshes" : [
        {
            "name" : "Untitled", 
            "primitives" : [
                {
                    "attributes" : {
                        "NORMAL" : 2, 
                        "POSITION" : 1, 
                        "TANGENT" : 3, 
                        "TEXCOORD_0" : 4
                    }, 
                    "indices" : 0, 
                    "material" : 1
                }, 
                {
                    "attributes" : {
                        "NORMAL" : 7, 
                        "POSITION" : 6, 
                        "TANGENT" : 8, 
                        "TEXCOORD_0" : 9
                    }, 
                    "indices" : 5, 
                    "material" : 0
                }, 
                {
                    "attributes" : {
                        "NORMAL" : 12, 
                        "POSITION" : 11, 
                        "TANGENT" : 13, 
                        "TEXCOORD_0" : 14
                    }, 
                    "indices" : 10, 
                    "material" : 2
                }
            ]
        }
    ], 
    "nodes" : [
        {
            "mesh" : 0, 
            "name" : "\u5bf9\u8c61001", 
            "rotation" : [
                8.881785255792436e-16, 
                -8.88178366760566e-16, 
                -0.7071067094802856, 
                0.70710688829422
            ], 
            "scale" : [
                0.589414119720459, 
                0.589414119720459, 
                0.589414119720459
            ]
        }
    ], 
    "scene" : 0, 
    "scenes" : [
        {
            "name" : "Scene", 
            "nodes" : [
                0
            ]
        }
    ]
}
