{"asset":{"version":"2.0","generator":"Babylon2Gltf2017","copyright":"2017 (c) BabylonJS"},"scene":0,"scenes":[{"nodes":[0]}],"nodes":[{"mesh":0,"translation":[6.60253136E-07,0.0,-9.903797E-07],"rotation":[0.0,0.0,0.0,-1.0],"scale":[0.6923256,1.0,0.6923256],"name":"Cylinder005"}],"meshes":[{"primitives":[{"attributes":{"POSITION":1,"NORMAL":2,"TEXCOORD_0":3},"indices":0,"mode":4,"material":0},{"attributes":{"POSITION":5,"NORMAL":6,"TEXCOORD_0":7},"indices":4,"mode":4,"material":1},{"attributes":{"POSITION":9,"NORMAL":10,"TEXCOORD_0":11},"indices":8,"mode":4,"material":2},{"attributes":{"POSITION":13,"NORMAL":14,"TEXCOORD_0":15},"indices":12,"mode":4,"material":3},{"attributes":{"POSITION":17,"NORMAL":18,"TEXCOORD_0":19},"indices":16,"mode":4,"material":4}],"name":"Cylinder005"}],"accessors":[{"bufferView":0,"componentType":5123,"count":6588,"type":"SCALAR","name":"accessorIndices"},{"bufferView":1,"componentType":5126,"count":6588,"max":[12.8411427,33.7753143,12.8396378],"min":[-12.8411417,-33.95034,-12.8396378],"type":"VEC3","name":"accessorPositions"},{"bufferView":1,"byteOffset":79056,"componentType":5126,"count":6588,"type":"VEC3","name":"accessorNormals"},{"bufferView":2,"componentType":5126,"count":6588,"type":"VEC2","name":"accessorUVs"},{"bufferView":0,"byteOffset":13176,"componentType":5123,"count":216,"type":"SCALAR","name":"accessorIndices"},{"bufferView":1,"byteOffset":158112,"componentType":5126,"count":216,"max":[7.914509,-11.6753626,7.913585],"min":[-7.91451073,-24.3184147,-7.91358232],"type":"VEC3","name":"accessorPositions"},{"bufferView":1,"byteOffset":160704,"componentType":5126,"count":216,"type":"VEC3","name":"accessorNormals"},{"bufferView":2,"byteOffset":52704,"componentType":5126,"count":216,"type":"VEC2","name":"accessorUVs"},{"bufferView":0,"byteOffset":13608,"componentType":5123,"count":2880,"type":"SCALAR","name":"accessorIndices"},{"bufferView":1,"byteOffset":163296,"componentType":5126,"count":2880,"max":[1.77063119,9.907535,-7.703137],"min":[-1.77063477,6.58558226,-8.874168],"type":"VEC3","name":"accessorPositions"},{"bufferView":1,"byteOffset":197856,"componentType":5126,"count":2880,"type":"VEC3","name":"accessorNormals"},{"bufferView":2,"byteOffset":54432,"componentType":5126,"count":2880,"type":"VEC2","name":"accessorUVs"},{"bufferView":0,"byteOffset":19368,"componentType":5123,"count":2160,"type":"SCALAR","name":"accessorIndices"},{"bufferView":1,"byteOffset":232416,"componentType":5126,"count":2160,"max":[12.8411427,33.9503479,12.8396378],"min":[-12.8411417,26.1545315,-12.8396378],"type":"VEC3","name":"accessorPositions"},{"bufferView":1,"byteOffset":258336,"componentType":5126,"count":2160,"type":"VEC3","name":"accessorNormals"},{"bufferView":2,"byteOffset":77472,"componentType":5126,"count":2160,"type":"VEC2","name":"accessorUVs"},{"bufferView":0,"byteOffset":23688,"componentType":5123,"count":1836,"type":"SCALAR","name":"accessorIndices"},{"bufferView":1,"byteOffset":284256,"componentType":5126,"count":1836,"max":[11.8415308,33.5694122,11.8401432],"min":[-11.8415337,32.87555,-11.8401451],"type":"VEC3","name":"accessorPositions"},{"bufferView":1,"byteOffset":306288,"componentType":5126,"count":1836,"type":"VEC3","name":"accessorNormals"},{"bufferView":2,"byteOffset":94752,"componentType":5126,"count":1836,"type":"VEC2","name":"accessorUVs"}],"bufferViews":[{"buffer":0,"byteLength":27360,"name":"bufferViewScalar"},{"buffer":0,"byteOffset":27360,"byteLength":328320,"byteStride":12,"name":"bufferViewFloatVec3"},{"buffer":0,"byteOffset":355680,"byteLength":109440,"byteStride":8,"name":"bufferViewFloatVec2"}],"buffers":[{"uri":"Sdt.bin","byteLength":465120}],"materials":[{"pbrMetallicRoughness":{"baseColorFactor":[1.0,1.0,1.0,1.0],"baseColorTexture":{"index":0},"metallicFactor":0.0,"roughnessFactor":0.9},"emissiveFactor":[0.0,0.0,0.0],"alphaMode":"BLEND","name":"Material #0"},{"pbrMetallicRoughness":{"baseColorFactor":[1.0,1.0,1.0,1.0],"baseColorTexture":{"index":1},"metallicFactor":0.0,"roughnessFactor":0.9},"emissiveFactor":[0.0,0.0,0.0],"alphaMode":"BLEND","name":"Material #35"},{"pbrMetallicRoughness":{"baseColorFactor":[1.0,1.0,1.0,1.0],"baseColorTexture":{"index":2},"metallicFactor":0.0,"roughnessFactor":0.9},"emissiveFactor":[0.0,0.0,0.0],"alphaMode":"BLEND","name":"Material #464"},{"pbrMetallicRoughness":{"baseColorFactor":[1.0,1.0,1.0,1.0],"baseColorTexture":{"index":3},"metallicFactor":0.0,"roughnessFactor":0.9},"emissiveFactor":[0.0,0.0,0.0],"alphaMode":"BLEND","name":"Material #1"},{"pbrMetallicRoughness":{"baseColorFactor":[1.0,1.0,1.0,1.0],"baseColorTexture":{"index":4},"metallicFactor":0.0,"roughnessFactor":0.9},"emissiveFactor":[0.0,0.0,0.0],"alphaMode":"BLEND","name":"Material #463"}],"textures":[{"sampler":0,"source":0,"name":"Material #0_baseColor.png"},{"sampler":1,"source":1,"name":"Material #35_baseColor.png"},{"sampler":2,"source":2,"name":"Material #464_baseColor.png"},{"sampler":3,"source":3,"name":"Material #1_baseColor.png"},{"sampler":4,"source":4,"name":"Material #463_baseColor.png"}],"images":[{"uri":"Material #0_baseColor.png"},{"uri":"Material #35_baseColor.png"},{"uri":"Material #464_baseColor.png"},{"uri":"Material #1_baseColor.png"},{"uri":"Material #463_baseColor.png"}],"samplers":[{"magFilter":9729,"minFilter":9987,"wrapS":10497,"wrapT":10497},{"magFilter":9729,"minFilter":9987,"wrapS":10497,"wrapT":10497},{"magFilter":9729,"minFilter":9987,"wrapS":10497,"wrapT":10497},{"magFilter":9729,"minFilter":9987,"wrapS":10497,"wrapT":10497},{"magFilter":9729,"minFilter":9987,"wrapS":10497,"wrapT":10497}]}