{"asset":{"version":"2.0","generator":"babylon.js glTF exporter for maya 2018 v1.2.16","copyright":"2017 (c) BabylonJS"},"extensionsUsed":["KHR_lights"],"scene":0,"scenes":[{"nodes":[0],"extensions":{"KHR_lights":{"light":0}}}],"nodes":[{"children":[1,2],"translation":[-1.68587391E-07,0.0,6.983119E-08],"rotation":[0.0,0.382683426,0.0,0.9238795],"scale":[1.0,1.0,1.0],"name":"pHelix3"},{"mesh":0,"translation":[0.0,0.0,0.0],"rotation":[0.0,0.0,0.0,1.0],"scale":[1.0,1.0,1.0],"name":"polySurface1"},{"mesh":1,"translation":[0.0,0.0,0.0],"rotation":[0.0,0.0,0.0,1.0],"scale":[1.0,1.0,1.0],"name":"polySurface2"}],"meshes":[{"primitives":[{"attributes":{"POSITION":1,"NORMAL":2,"TANGENT":3,"TEXCOORD_0":4},"indices":0,"mode":4,"material":0}],"name":"polySurface1"},{"primitives":[{"attributes":{"POSITION":6,"NORMAL":7,"TANGENT":8,"TEXCOORD_0":9},"indices":5,"mode":4,"material":0}],"name":"polySurface2"}],"accessors":[{"bufferView":0,"componentType":5123,"count":3750,"type":"SCALAR","name":"accessorIndices"},{"bufferView":1,"componentType":5126,"count":1266,"max":[10.596138,10.086606,7.496302],"min":[-7.49629974,-10.9334249,-7.4963],"type":"VEC3","name":"accessorPositions"},{"bufferView":1,"byteOffset":15192,"componentType":5126,"count":1266,"type":"VEC3","name":"accessorNormals"},{"bufferView":2,"componentType":5126,"count":1266,"type":"VEC4","name":"accessorTangents"},{"bufferView":3,"componentType":5126,"count":1266,"type":"VEC2","name":"accessorUVs"},{"bufferView":0,"byteOffset":7500,"componentType":5123,"count":147,"type":"SCALAR","name":"accessorIndices"},{"bufferView":1,"byteOffset":30384,"componentType":5126,"count":57,"max":[15.8889761,10.9334326,5.388441],"min":[10.4900723,9.913402,-0.0104625821],"type":"VEC3","name":"accessorPositions"},{"bufferView":1,"byteOffset":31068,"componentType":5126,"count":57,"type":"VEC3","name":"accessorNormals"},{"bufferView":2,"byteOffset":20256,"componentType":5126,"count":57,"type":"VEC4","name":"accessorTangents"},{"bufferView":3,"byteOffset":10128,"componentType":5126,"count":57,"type":"VEC2","name":"accessorUVs"}],"bufferViews":[{"buffer":0,"byteLength":7796,"name":"bufferViewScalar"},{"buffer":0,"byteOffset":7796,"byteLength":31752,"byteStride":12,"name":"bufferViewFloatVec3"},{"buffer":0,"byteOffset":39548,"byteLength":21168,"byteStride":16,"name":"bufferViewFloatVec4"},{"buffer":0,"byteOffset":60716,"byteLength":10584,"byteStride":8,"name":"bufferViewFloatVec2"}],"buffers":[{"uri":"dzgj.bin","byteLength":71300}],"materials":[{"pbrMetallicRoughness":{"baseColorFactor":[0.5208334,0.5208334,0.5208334,1.0],"metallicFactor":0.0,"roughnessFactor":0.9},"emissiveFactor":[0.0,0.0,0.0],"alphaMode":"OPAQUE","name":"lambert1"}],"extensions":{"KHR_lights":{"lights":[{"color":[1.0,1.0,1.0],"intensity":1.0,"type":"ambient"}]}}}