{"asset":{"version":"2.0","generator":"babylon.js glTF exporter for maya 2018 v1.2.16","copyright":"2017 (c) BabylonJS"},"extensionsUsed":["KHR_lights"],"scene":0,"scenes":[{"nodes":[0],"extensions":{"KHR_lights":{"light":0}}}],"nodes":[{"mesh":0,"translation":[0.0,0.0,0.0],"rotation":[0.0,0.0,0.0,1.0],"scale":[1.0,1.0,1.0],"name":"pHelix1"}],"meshes":[{"primitives":[{"attributes":{"POSITION":1,"NORMAL":2,"TANGENT":3,"TEXCOORD_0":4},"indices":0,"mode":4,"material":0}],"name":"pHelix1"}],"accessors":[{"bufferView":0,"componentType":5123,"count":9006,"type":"SCALAR","name":"accessorIndices"},{"bufferView":1,"componentType":5126,"count":3012,"max":[10.0,50.0868378,9.98028],"min":[-10.0,-50.0866,-9.98028],"type":"VEC3","name":"accessorPositions"},{"bufferView":1,"byteOffset":36144,"componentType":5126,"count":3012,"type":"VEC3","name":"accessorNormals"},{"bufferView":2,"componentType":5126,"count":3012,"type":"VEC4","name":"accessorTangents"},{"bufferView":3,"componentType":5126,"count":3012,"type":"VEC2","name":"accessorUVs"}],"bufferViews":[{"buffer":0,"byteLength":18012,"name":"bufferViewScalar"},{"buffer":0,"byteOffset":18012,"byteLength":72288,"byteStride":12,"name":"bufferViewFloatVec3"},{"buffer":0,"byteOffset":90300,"byteLength":48192,"byteStride":16,"name":"bufferViewFloatVec4"},{"buffer":0,"byteOffset":138492,"byteLength":24096,"byteStride":8,"name":"bufferViewFloatVec2"}],"buffers":[{"uri":"helix_01.bin","byteLength":162588}],"materials":[{"pbrMetallicRoughness":{"baseColorFactor":[1.0,0.4429167,0.0,1.0],"metallicFactor":0.0,"roughnessFactor":0.9},"emissiveFactor":[0.5204301,0.221286863,0.0],"alphaMode":"OPAQUE","name":"lambert2"}],"extensions":{"KHR_lights":{"lights":[{"color":[1.0,1.0,1.0],"intensity":1.0,"type":"ambient"}]}}}