<?xml version="1.0" encoding="UTF-8"?>
<svg width="88px" height="108px" viewBox="0 0 88 108" version="1.1" xmlns="http://www.w3.org/2000/svg" xmlns:xlink="http://www.w3.org/1999/xlink">
    <!-- Generator: Sketch 54 (76480) - https://sketchapp.com -->
    <title>编组</title>
    <desc>Created with Sketch.</desc>
    <g id="页面1" stroke="none" stroke-width="1" fill="none" fill-rule="evenodd">
        <g id="画板复制-2" transform="translate(-230.000000, -149.000000)">
            <g id="编组" transform="translate(214.000000, 143.000000)">
                <rect id="矩形复制-4" x="0" y="0" width="120" height="120"></rect>
                <path d="M75.2121339,28.7005629 C92.0160905,34.8921416 104,51.0465748 104,70 C104,94.300529 84.300529,114 60,114 C35.699471,114 16,94.300529 16,70 C16,50.6681338 28.4672501,34.2481498 45.8001424,28.341656 C45.9253289,28.2989965 46.0507691,28.2568854 46.1764603,28.2153256 L52.6063182,34.7600025 C52.5246294,34.7770552 52.4430419,34.7943844 52.361557,34.8119895 C36.1483632,38.3149024 24,52.73875 24,70 C24,89.882251 40.117749,106 60,106 C79.882251,106 96,89.882251 96,70 C96,53.3786555 84.7356643,39.3882376 69.4244286,35.246182 L75.2121339,28.7005629 Z M48,6 L72,6 L79,14 L61,34 L41,14 L48,6 Z" id="戒指" fill="#E5E5E5" fill-rule="nonzero"></path>
            </g>
        </g>
    </g>
</svg>