{"asset":{"version":"2.0","generator":"Babylon2Gltf2017","copyright":"2017 (c) BabylonJS"},"scene":0,"scenes":[{"nodes":[0,1]}],"nodes":[{"mesh":0,"translation":[0.0,0.0,-5.957258E-14],"rotation":[-0.7071068,0.0,0.0,-0.7071067],"scale":[1.0,1.0,1.0],"name":"对象188"},{"mesh":1,"translation":[0.0,0.0,-5.957258E-14],"rotation":[-0.7071068,0.0,0.0,-0.7071067],"scale":[1.0,1.0,1.0],"name":"对象189"}],"meshes":[{"primitives":[{"attributes":{"POSITION":1,"NORMAL":2,"TEXCOORD_0":3},"indices":0,"mode":4,"material":0}],"name":"对象188"},{"primitives":[{"attributes":{"POSITION":5,"NORMAL":6,"TEXCOORD_0":7},"indices":4,"mode":4,"material":0}],"name":"对象189"}],"accessors":[{"bufferView":0,"componentType":5125,"count":100800,"type":"SCALAR","name":"accessorIndices"},{"bufferView":1,"componentType":5126,"count":100800,"max":[35.59503,60.5767059,38.14066],"min":[-35.59503,-60.57671,-38.14066],"type":"VEC3","name":"accessorPositions"},{"bufferView":1,"byteOffset":1209600,"componentType":5126,"count":100800,"type":"VEC3","name":"accessorNormals"},{"bufferView":2,"componentType":5126,"count":100800,"type":"VEC2","name":"accessorUVs"},{"bufferView":0,"byteOffset":403200,"componentType":5123,"count":37440,"type":"SCALAR","name":"accessorIndices"},{"bufferView":1,"byteOffset":2419200,"componentType":5126,"count":37440,"max":[35.59503,38.30869,38.1406555],"min":[-24.4661255,-27.6100559,-20.1905823],"type":"VEC3","name":"accessorPositions"},{"bufferView":1,"byteOffset":2868480,"componentType":5126,"count":37440,"type":"VEC3","name":"accessorNormals"},{"bufferView":2,"byteOffset":806400,"componentType":5126,"count":37440,"type":"VEC2","name":"accessorUVs"}],"bufferViews":[{"buffer":0,"byteLength":478080,"name":"bufferViewScalar"},{"buffer":0,"byteOffset":478080,"byteLength":3317760,"byteStride":12,"name":"bufferViewFloatVec3"},{"buffer":0,"byteOffset":3795840,"byteLength":1105920,"byteStride":8,"name":"bufferViewFloatVec2"}],"buffers":[{"uri":"4ceng.bin","byteLength":4901760}],"materials":[{"pbrMetallicRoughness":{"baseColorFactor":[0.612745166,0.612745166,0.612745166,1.0],"metallicFactor":0.0,"roughnessFactor":0.9},"emissiveFactor":[0.0,0.0,0.0],"alphaMode":"OPAQUE","name":"01 - Default"}]}