{"asset":{"version":"2.0","generator":"Babylon2Gltf2017","copyright":"2017 (c) BabylonJS"},"scene":0,"scenes":[{"nodes":[0,1]}],"nodes":[{"mesh":0,"translation":[0.0,0.0,0.0],"rotation":[-0.7071068,0.0,0.0,-0.7071067],"scale":[1.0,1.0,1.0],"name":"对象226"},{"mesh":1,"translation":[0.0,0.0,0.0],"rotation":[-0.7071068,0.0,0.0,-0.7071067],"scale":[1.0,1.0,1.0],"name":"对象227"}],"meshes":[{"primitives":[{"attributes":{"POSITION":1,"NORMAL":2,"TEXCOORD_0":3},"indices":0,"mode":4,"material":0}],"name":"对象226"},{"primitives":[{"attributes":{"POSITION":5,"NORMAL":6,"TEXCOORD_0":7},"indices":4,"mode":4,"material":0}],"name":"对象227"}],"accessors":[{"bufferView":0,"componentType":5123,"count":34560,"type":"SCALAR","name":"accessorIndices"},{"bufferView":1,"componentType":5126,"count":34560,"max":[35.59503,38.30869,38.1406555],"min":[-24.4661255,-27.6100559,-20.1905823],"type":"VEC3","name":"accessorPositions"},{"bufferView":1,"byteOffset":414720,"componentType":5126,"count":34560,"type":"VEC3","name":"accessorNormals"},{"bufferView":2,"componentType":5126,"count":34560,"type":"VEC2","name":"accessorUVs"},{"bufferView":0,"byteOffset":69120,"componentType":5123,"count":2880,"type":"SCALAR","name":"accessorIndices"},{"bufferView":1,"byteOffset":829440,"componentType":5126,"count":2880,"max":[16.5750122,16.3672276,19.35611],"min":[-5.424988,-5.632773,-2.64389133],"type":"VEC3","name":"accessorPositions"},{"bufferView":1,"byteOffset":864000,"componentType":5126,"count":2880,"type":"VEC3","name":"accessorNormals"},{"bufferView":2,"byteOffset":276480,"componentType":5126,"count":2880,"type":"VEC2","name":"accessorUVs"}],"bufferViews":[{"buffer":0,"byteLength":74880,"name":"bufferViewScalar"},{"buffer":0,"byteOffset":74880,"byteLength":898560,"byteStride":12,"name":"bufferViewFloatVec3"},{"buffer":0,"byteOffset":973440,"byteLength":299520,"byteStride":8,"name":"bufferViewFloatVec2"}],"buffers":[{"uri":"peiweishu.bin","byteLength":1272960}],"materials":[{"pbrMetallicRoughness":{"baseColorFactor":[0.612745166,0.612745166,0.612745166,1.0],"metallicFactor":0.0,"roughnessFactor":0.9},"emissiveFactor":[0.0,0.0,0.0],"alphaMode":"OPAQUE","name":"01 - Default"}]}