<?xml version="1.0" encoding="UTF-8" standalone="no"?>
<svg width="50px" height="50px" viewBox="0 0 50 50" version="1.1" xmlns="http://www.w3.org/2000/svg" xmlns:xlink="http://www.w3.org/1999/xlink">
    <!-- Generator: Sketch 43 (38999) - http://www.bohemiancoding.com/sketch -->
    <title>叉叉</title>
    <desc>Created with Sketch.</desc>
    <defs></defs>
    <g id="Page-1" stroke="none" stroke-width="1" fill="none" fill-rule="evenodd">
        <g id="叉叉">
            <rect id="Rectangle-5" fill="#F22C44" x="0" y="0" width="50" height="50" rx="25"></rect>
            <path d="M14.4490956,37.5477862 C14.7357758,37.8371738 15.1262534,38 15.5335995,38 C15.9409737,38 16.3314232,37.8371738 16.6181033,37.5477862 L25.4996486,28.6654089 L34.3826276,37.5477862 C34.6692515,37.836724 35.0593918,37.9992691 35.4664005,37.9992691 C35.8734093,37.9992691 36.2635776,37.836724 36.5502015,37.5477862 C36.8381749,37.2603665 37,36.8702246 37,36.4633558 C37,36.0565152 36.8381749,35.6663452 36.5502015,35.3789255 L27.6672224,26.4979819 L36.5502015,17.6156046 C37.1483584,17.016701 37.1477118,16.0463221 36.5487396,15.4482057 C35.9497954,14.8500893 34.9793508,14.8507359 34.3811938,15.4496394 L25.4996486,24.330583 L16.6166695,15.4482057 C16.2292001,15.0612967 15.6647521,14.9104463 15.1359246,15.0525257 C14.6070972,15.1945769 14.1942408,15.6079677 14.0528827,16.136956 C13.9114966,16.6659163 14.0630882,17.2301293 14.4505295,17.6170664 L23.3320747,26.4979819 L14.4490956,35.3803592 C14.161544,35.6677227 14,36.0575835 14,36.4640868 C14,36.87059 14.161544,37.2604227 14.4490956,37.5477862" id="叉-(3)" fill="#FFFFFF"></path>
        </g>
    </g>
</svg>