<?xml version="1.0" encoding="UTF-8" standalone="no"?>
<svg width="60px" height="60px" viewBox="0 0 60 60" version="1.1" xmlns="http://www.w3.org/2000/svg" xmlns:xlink="http://www.w3.org/1999/xlink">
    <!-- Generator: Sketch 42 (36781) - http://www.bohemiancoding.com/sketch -->
    <title>重置按钮</title>
    <desc>Created with Sketch.</desc>
    <defs></defs>
    <g id="Page-1" stroke="none" stroke-width="1" fill="none" fill-rule="evenodd">
        <g id="重置按钮">
            <circle id="Oval" fill="#C6E2FF" cx="30" cy="30" r="30"></circle>
            <path d="M45.9166968,42.9173334 L18.1666968,42.9173334 L18.1666968,47.5107027 L12,41.3858937 L18.0973218,35.3197513 L18.1666968,39.8557205 L44.375,39.8557205 C45.4032947,39.8557205 45.9166516,39.4419327 45.9166516,38.4198572 L45.9166516,29.1361399 L49,24.3391334 L49,39.8557205 C48.996748,40.671264 48.6700171,41.452069 48.0917114,42.0262967 C47.5134509,42.6005244 46.7309949,42.9210425 45.9166516,42.9173334 L45.9166968,42.9173334 Z M42.8333032,19.718127 L16.625,19.718127 C15.5967053,19.718127 15.0833484,20.1365284 15.0833484,21.1663388 L15.0833484,30.5272229 L12,35.3628579 L12,19.718127 C12,18.0127679 13.3804541,16.6302791 15.0833484,16.6302791 L42.8333484,16.6302791 L42.8333484,12 L49,18.175741 L42.9027234,24.2928152 L42.8333032,19.718127 L42.8333032,19.718127 Z" id="重置-(1)" fill="#FFFFFF"></path>
        </g>
    </g>
</svg>