{"asset":{"version":"2.0","generator":"Babylon2Gltf2017","copyright":"2017(c)BabylonJS"},"scene":0,"scenes":[{"nodes":[0]}],"nodes":[{"mesh":0,"translation":[0.0,0.0,0.0],"rotation":[0.0,0.0,0.0,-1.0],"scale":[0.9365708,0.9365708,0.9365708],"name":"对象003"}],"meshes":[{"primitives":[{"attributes":{"POSITION":1,"NORMAL":2,"TEXCOORD_0":3},"indices":0,"mode":4,"material":0},{"attributes":{"POSITION":5,"NORMAL":6,"TEXCOORD_0":7},"indices":4,"mode":4,"material":1},{"attributes":{"POSITION":9,"NORMAL":10,"TEXCOORD_0":11},"indices":8,"mode":4,"material":2}],"name":"对象003"}],"accessors":[{"bufferView":0,"componentType":5125,"count":16512,"type":"SCALAR","name":"accessorIndices"},{"bufferView":1,"componentType":5126,"count":16512,"max":[16.7012119,6.500186,6.04662037],"min":[-16.70121,-3.56897378,-6.08945656],"type":"VEC3","name":"accessorPositions"},{"bufferView":1,"byteOffset":198144,"componentType":5126,"count":16512,"type":"VEC3","name":"accessorNormals"},{"bufferView":2,"componentType":5126,"count":16512,"type":"VEC2","name":"accessorUVs"},{"bufferView":0,"byteOffset":66048,"componentType":5125,"count":7560,"type":"SCALAR","name":"accessorIndices"},{"bufferView":1,"byteOffset":396288,"componentType":5126,"count":7560,"max":[6.503455,-1.047514,3.99210548],"min":[-6.50345325,-10.6296377,-3.99210858],"type":"VEC3","name":"accessorPositions"},{"bufferView":1,"byteOffset":487008,"componentType":5126,"count":7560,"type":"VEC3","name":"accessorNormals"},{"bufferView":2,"byteOffset":132096,"componentType":5126,"count":7560,"type":"VEC2","name":"accessorUVs"},{"bufferView":0,"byteOffset":96288,"componentType":5125,"count":44784,"type":"SCALAR","name":"accessorIndices"},{"bufferView":1,"byteOffset":577728,"componentType":5126,"count":44784,"max":[22.1753159,10.6296377,12.3928556],"min":[-22.1753178,-8.317478,-12.3928547],"type":"VEC3","name":"accessorPositions"},{"bufferView":1,"byteOffset":1115136,"componentType":5126,"count":44784,"type":"VEC3","name":"accessorNormals"},{"bufferView":2,"byteOffset":192576,"componentType":5126,"count":44784,"type":"VEC2","name":"accessorUVs"}],"bufferViews":[{"buffer":0,"byteLength":275424,"name":"bufferViewScalar"},{"buffer":0,"byteOffset":275424,"byteLength":1652544,"byteStride":12,"name":"bufferViewFloatVec3"},{"buffer":0,"byteOffset":1927968,"byteLength":550848,"byteStride":8,"name":"bufferViewFloatVec2"}],"buffers":[{"uri":"jm.bin","byteLength":2478816}],"materials":[{"pbrMetallicRoughness":{"baseColorFactor":[1.0,1.0,1.0,1.0],"baseColorTexture":{"index":0},"metallicFactor":0.0,"roughnessFactor":0.9},"emissiveFactor":[0.0,0.0,0.0],"alphaMode":"BLEND","name":"Material126"},{"pbrMetallicRoughness":{"baseColorFactor":[1.0,1.0,1.0,1.0],"baseColorTexture":{"index":1},"metallicFactor":0.0,"roughnessFactor":0.9},"emissiveFactor":[0.0,0.0,0.0],"alphaMode":"BLEND","name":"Material5078"},{"pbrMetallicRoughness":{"baseColorFactor":[1.0,1.0,1.0,1.0],"baseColorTexture":{"index":2},"metallicFactor":0.0,"roughnessFactor":0.9},"emissiveFactor":[0.0,0.0,0.0],"alphaMode":"BLEND","name":"Material5077"}],"textures":[{"sampler":0,"source":0,"name":"Material126_baseColor.png"},{"sampler":1,"source":1,"name":"Material5078_baseColor.png"},{"sampler":2,"source":2,"name":"Material5077_baseColor.png"}],"images":[{"uri":"Material126_baseColor.png"},{"uri":"Material5078_baseColor.png"},{"uri":"Material5077_baseColor.png"}],"samplers":[{"magFilter":9729,"minFilter":9987,"wrapS":10497,"wrapT":10497},{"magFilter":9729,"minFilter":9987,"wrapS":10497,"wrapT":10497},{"magFilter":9729,"minFilter":9987,"wrapS":10497,"wrapT":10497}]}