# This file uses centimeters as units for non-parametric coordinates.

mtllib line.mtl
g default
v -8.002507 21.351894 14.047864
v -8.084146 21.351131 14.000729
v -8.029000 21.274672 14.000729
v 16.246405 21.578585 -0.047136
v 16.246405 21.578585 0.047136
v 16.219912 21.501362 0.000000
v -0.133261 44.289555 0.047136
v -0.133261 44.289555 -0.047136
v -0.214899 44.288792 0.000000
v -8.002507 21.351894 -14.047864
v -8.029000 21.274672 -14.000729
v -8.084146 21.351131 -14.000729
v -8.120972 21.311823 14.085822
v -8.057243 21.312418 14.122619
v -0.140166 44.389492 0.036798
v -0.203896 44.388897 -0.000000
v -8.077922 21.252136 14.085824
v -8.120970 21.311823 -14.085824
v -8.077923 21.252138 -14.085826
v 16.318378 21.480209 -0.000000
v 16.339054 21.540485 0.036793
v 16.339054 21.540485 -0.036794
v -0.140167 44.389492 -0.036795
v -8.057245 21.312416 -14.122617
vt 0.375833 0.499167
vt 0.624167 0.252500
vt 0.375833 0.004166
vt 0.375278 0.003055
vt 0.375278 0.498056
vt 0.376667 0.995556
vt 0.624167 0.253055
vt 0.623889 0.251667
vt 0.625833 0.249722
vt 0.872500 0.004166
vt 0.873334 0.002222
vt 0.376389 0.500833
vt 0.624167 0.747500
vt 0.623889 0.748334
vt 0.377500 0.994723
vt 0.377500 0.994167
vt 0.625000 0.251667
vt 0.376389 0.499167
vt 0.376667 0.500000
vt 0.872500 0.004722
vt 0.375833 0.004166
vt 0.375278 0.003055
vt 0.375278 0.498056
vt 0.375833 0.499167
vt 0.377500 0.994167
vt 0.377500 0.994723
vt 0.872500 0.004722
vt 0.872500 0.004166
vt 0.376667 0.995556
vt 0.625000 0.251667
vt 0.624167 0.253055
vt 0.623889 0.251667
vt 0.624167 0.252500
vt 0.376667 0.500000
vt 0.376389 0.499167
vt 0.625833 0.249722
vt 0.873334 0.002222
vt 0.376389 0.500833
vt 0.624167 0.747500
vt 0.623889 0.748334
vt 0.375278 0.003055
vt 0.375278 0.498056
vt 0.375833 0.499167
vt 0.375833 0.004166
vt 0.377500 0.994723
vt 0.872500 0.004722
vt 0.872500 0.004166
vt 0.377500 0.994167
vt 0.625000 0.251667
vt 0.624167 0.253055
vt 0.376667 0.995556
vt 0.624167 0.252500
vt 0.376667 0.500000
vt 0.376389 0.499167
vt 0.623889 0.251667
vt 0.873334 0.002222
vt 0.625833 0.249722
vt 0.624167 0.747500
vt 0.623889 0.748334
vt 0.376389 0.500833
vn -0.413631 0.573512 0.707103
vn -0.413631 0.573512 0.707103
vn -0.413631 0.573512 0.707103
vn -0.413631 0.573512 0.707103
vn -0.811058 -0.584966 -0.000000
vn -0.811058 -0.584966 -0.000000
vn -0.811058 -0.584966 -0.000000
vn -0.811058 -0.584966 -0.000000
vn 0.413636 -0.573512 0.707099
vn 0.413636 -0.573512 0.707099
vn 0.413636 -0.573512 0.707099
vn 0.413636 -0.573512 0.707099
vn 0.811064 0.584958 0.000000
vn 0.811064 0.584958 0.000000
vn 0.811064 0.584958 0.000000
vn 0.811064 0.584958 0.000000
vn 0.413631 -0.573499 -0.707113
vn 0.413631 -0.573499 -0.707113
vn 0.413631 -0.573499 -0.707113
vn 0.413631 -0.573499 -0.707113
vn -0.413606 0.573503 -0.707124
vn -0.413606 0.573503 -0.707124
vn -0.413606 0.573503 -0.707124
vn -0.413606 0.573503 -0.707124
vn -0.468266 -0.337722 0.816499
vn -0.468266 -0.337722 0.816499
vn -0.468266 -0.337722 0.816499
vn 0.945899 -0.324460 0.000000
vn 0.945899 -0.324460 0.000000
vn 0.945899 -0.324460 0.000000
vn -0.009337 0.999956 -0.000102
vn -0.009337 0.999956 -0.000102
vn -0.009337 0.999956 -0.000102
vn -0.468302 -0.337732 -0.816474
vn -0.468302 -0.337732 -0.816474
vn -0.468302 -0.337732 -0.816474
vn 0.413625 -0.573508 -0.707108
vn 0.413625 -0.573508 -0.707108
vn 0.413625 -0.573508 -0.707108
vn 0.413625 -0.573508 -0.707108
vn 0.811061 0.584961 0.000000
vn 0.811061 0.584961 0.000000
vn 0.811061 0.584961 0.000000
vn 0.811061 0.584961 0.000000
vn -0.413623 0.573506 -0.707111
vn -0.413623 0.573506 -0.707111
vn -0.413623 0.573506 -0.707111
vn -0.413623 0.573506 -0.707111
vn -0.811064 -0.584958 0.000000
vn -0.811064 -0.584958 0.000000
vn -0.811064 -0.584958 0.000000
vn -0.811064 -0.584958 0.000000
vn -0.413623 0.573506 0.707112
vn -0.413623 0.573506 0.707112
vn -0.413623 0.573506 0.707112
vn -0.413623 0.573506 0.707112
vn 0.413622 -0.573507 0.707112
vn 0.413622 -0.573507 0.707112
vn 0.413622 -0.573507 0.707112
vn 0.413622 -0.573507 0.707112
vn 0.468268 0.337722 -0.816498
vn 0.468268 0.337722 -0.816498
vn 0.468268 0.337722 -0.816498
vn -0.945888 0.324495 0.000000
vn -0.945888 0.324495 0.000000
vn -0.945888 0.324495 0.000000
vn 0.009345 -0.999956 0.000000
vn 0.009345 -0.999956 0.000000
vn 0.009345 -0.999956 0.000000
vn 0.468280 0.337719 0.816492
vn 0.468280 0.337719 0.816492
vn 0.468280 0.337719 0.816492
vn 0.770463 0.118052 0.626459
vn 0.770463 0.118052 0.626459
vn 0.770463 0.118052 0.626459
vn 0.770463 0.118052 0.626459
vn -0.929281 0.102135 -0.354972
vn -0.929281 0.102135 -0.354972
vn -0.929281 0.102135 -0.354972
vn -0.929281 0.102135 -0.354972
vn -0.729783 0.683679 0.000000
vn -0.729783 0.683679 0.000000
vn -0.729783 0.683679 0.000000
vn -0.729783 0.683679 0.000000
vn 0.418367 -0.908278 0.000000
vn 0.418367 -0.908278 0.000000
vn 0.418367 -0.908278 0.000000
vn 0.418367 -0.908278 0.000000
vn -0.196384 -0.914047 -0.354897
vn -0.196384 -0.914047 -0.354897
vn -0.196384 -0.914047 -0.354897
vn -0.196384 -0.914047 -0.354897
vn 0.355229 0.693780 0.626483
vn 0.355229 0.693780 0.626483
vn 0.355229 0.693780 0.626483
vn 0.355229 0.693780 0.626483
vn 0.155712 0.112303 -0.981398
vn 0.155712 0.112303 -0.981398
vn 0.155712 0.112303 -0.981398
vn 0.155712 0.112303 -0.981398
vn 0.155709 0.112301 0.981399
vn 0.155709 0.112301 0.981399
vn 0.155709 0.112301 0.981399
vn 0.155709 0.112301 0.981399
vn -0.196370 -0.914047 0.354905
vn -0.196370 -0.914047 0.354905
vn -0.196370 -0.914047 0.354905
vn -0.196370 -0.914047 0.354905
vn 0.355234 0.693762 -0.626501
vn 0.355234 0.693762 -0.626501
vn 0.355234 0.693762 -0.626501
vn 0.355234 0.693762 -0.626501
vn 0.770454 0.118076 -0.626465
vn 0.770454 0.118076 -0.626465
vn 0.770454 0.118076 -0.626465
vn 0.770454 0.118076 -0.626465
vn -0.929287 0.102147 0.354953
vn -0.929287 0.102147 0.354953
vn -0.929287 0.102147 0.354953
vn -0.929287 0.102147 0.354953
s off
g pCube4
usemtl color3SG
f 13/44/1 14/41/2 15/42/3 16/43/4
f 17/48/5 13/45/6 18/46/7 19/47/8
f 14/51/9 17/48/10 20/49/11 21/50/12
f 21/55/13 22/52/14 23/53/15 15/54/16
f 22/57/17 20/49/18 19/47/19 24/56/20
f 16/60/21 23/53/22 24/58/23 18/59/24
f 14/51/25 13/45/26 17/48/27
f 22/57/28 21/50/29 20/49/30
f 15/54/31 23/53/32 16/60/33
f 24/56/34 19/47/35 18/46/36
f 2/21/37 9/24/38 7/23/39 1/22/40
f 3/25/41 11/28/42 12/27/43 2/26/44
f 1/29/45 5/31/46 6/30/47 3/25/48
f 5/32/49 7/35/50 8/34/51 4/33/52
f 4/36/53 10/37/54 11/28/55 6/30/56
f 9/38/57 12/40/58 10/39/59 8/34/60
f 1/29/61 3/25/62 2/26/63
f 4/36/64 6/30/65 5/31/66
f 7/35/67 9/38/68 8/34/69
f 10/37/70 12/27/71 11/28/72
f 1/4/73 7/5/74 15/42/75 14/41/76
f 9/1/77 2/3/78 13/44/79 16/43/80
f 2/15/81 12/20/82 18/46/83 13/45/84
f 11/10/85 3/16/86 17/48/87 19/47/88
f 3/16/89 6/17/90 20/49/91 17/48/92
f 5/7/93 1/6/94 14/51/95 21/50/96
f 4/2/97 8/19/98 23/53/99 22/52/100
f 7/18/101 5/8/102 21/55/103 15/54/104
f 6/17/105 11/10/106 19/47/107 20/49/108
f 10/11/109 4/9/110 22/57/111 24/56/112
f 8/19/113 10/13/114 24/58/115 23/53/116
f 12/14/117 9/12/118 16/60/119 18/59/120
