{"asset":{"version":"2.0","generator":"Babylon2Gltf2017","copyright":"2017 (c) BabylonJS"},"scene":0,"scenes":[{"nodes":[0]}],"nodes":[{"mesh":0,"translation":[4.7633668E-07,0.0,-5.680258E-15],"rotation":[-0.707106948,-4.494624E-08,4.494626E-08,-0.70710665],"scale":[1.0,1.0,1.0],"name":"Line001"}],"meshes":[{"primitives":[{"attributes":{"POSITION":1,"NORMAL":2},"indices":0,"mode":4,"material":0}],"name":"Line001"}],"accessors":[{"bufferView":0,"componentType":5123,"count":1728,"type":"SCALAR","name":"accessorIndices"},{"bufferView":1,"componentType":5126,"count":1728,"max":[14.8325462,38.1932831,30.0285416],"min":[-41.44973,37.7632637,-26.2021217],"type":"VEC3","name":"accessorPositions"},{"bufferView":1,"byteOffset":20736,"componentType":5126,"count":1728,"type":"VEC3","name":"accessorNormals"}],"bufferViews":[{"buffer":0,"byteLength":3456,"name":"bufferViewScalar"},{"buffer":0,"byteOffset":3456,"byteLength":41472,"byteStride":12,"name":"bufferViewFloatVec3"}],"buffers":[{"uri":"11.bin","byteLength":44928}],"materials":[{"pbrMetallicRoughness":{"baseColorFactor":[1.0,1.0,1.0,1.0],"baseColorTexture":{"index":0},"metallicFactor":0.0,"roughnessFactor":0.9},"emissiveFactor":[0.0,0.0,0.0],"alphaMode":"BLEND","name":"Material #3"}],"textures":[{"sampler":0,"source":0,"name":"image01.png"}],"images":[{"uri":"image01.png"}],"samplers":[{"magFilter":9729,"minFilter":9987,"wrapS":10497,"wrapT":10497}]}