{"asset":{"version":"2.0","generator":"Babylon2Gltf2017","copyright":"2017 (c) BabylonJS"},"scene":0,"scenes":[{"nodes":[0]}],"nodes":[{"mesh":0,"translation":[0.0,0.0,-1.68474176E-13],"rotation":[-0.7071068,0.0,0.0,-0.7071067],"scale":[1.0,1.0,1.0],"name":"GeoSphere566"}],"meshes":[{"primitives":[{"attributes":{"POSITION":1,"NORMAL":2,"TEXCOORD_0":3},"indices":0,"mode":4,"material":0}],"name":"GeoSphere566"}],"accessors":[{"bufferView":0,"componentType":5123,"count":9000,"type":"SCALAR","name":"accessorIndices"},{"bufferView":1,"componentType":5126,"count":9000,"max":[44.1288528,70.85735,63.77725],"min":[-64.4224243,-49.4743042,24.02212],"type":"VEC3","name":"accessorPositions"},{"bufferView":1,"byteOffset":108000,"componentType":5126,"count":9000,"type":"VEC3","name":"accessorNormals"},{"bufferView":2,"componentType":5126,"count":9000,"type":"VEC2","name":"accessorUVs"}],"bufferViews":[{"buffer":0,"byteLength":18000,"name":"bufferViewScalar"},{"buffer":0,"byteOffset":18000,"byteLength":216000,"byteStride":12,"name":"bufferViewFloatVec3"},{"buffer":0,"byteOffset":234000,"byteLength":72000,"byteStride":8,"name":"bufferViewFloatVec2"}],"buffers":[{"uri":"2.bin","byteLength":306000}],"materials":[{"pbrMetallicRoughness":{"baseColorFactor":[1.0,1.0,1.0,1.0],"baseColorTexture":{"index":0},"metallicFactor":0.0,"roughnessFactor":0.9},"emissiveFactor":[0.0,0.0,0.0],"alphaMode":"BLEND","name":"Material #3"}],"textures":[{"sampler":0,"source":0,"name":"image01.png"}],"images":[{"uri":"image01.png"}],"samplers":[{"magFilter":9729,"minFilter":9987,"wrapS":10497,"wrapT":10497}]}