{"asset":{"version":"2.0","generator":"Babylon2Gltf2017","copyright":"2017 (c) BabylonJS"},"scene":0,"scenes":[{"nodes":[0]}],"nodes":[{"mesh":0,"translation":[0.0,0.0,-1.68474176E-13],"rotation":[-0.7071068,0.0,0.0,-0.7071067],"scale":[1.0,1.0,1.0],"name":"GeoSphere563"}],"meshes":[{"primitives":[{"attributes":{"POSITION":1,"NORMAL":2,"TEXCOORD_0":3},"indices":0,"mode":4,"material":0}],"name":"GeoSphere563"}],"accessors":[{"bufferView":0,"componentType":5123,"count":7500,"type":"SCALAR","name":"accessorIndices"},{"bufferView":1,"componentType":5126,"count":7500,"max":[44.1288643,91.1227341,63.7772636],"min":[-64.42243,-110.046288,24.0221062],"type":"VEC3","name":"accessorPositions"},{"bufferView":1,"byteOffset":90000,"componentType":5126,"count":7500,"type":"VEC3","name":"accessorNormals"},{"bufferView":2,"componentType":5126,"count":7500,"type":"VEC2","name":"accessorUVs"}],"bufferViews":[{"buffer":0,"byteLength":15000,"name":"bufferViewScalar"},{"buffer":0,"byteOffset":15000,"byteLength":180000,"byteStride":12,"name":"bufferViewFloatVec3"},{"buffer":0,"byteOffset":195000,"byteLength":60000,"byteStride":8,"name":"bufferViewFloatVec2"}],"buffers":[{"uri":"3.bin","byteLength":255000}],"materials":[{"pbrMetallicRoughness":{"baseColorFactor":[1.0,1.0,1.0,1.0],"baseColorTexture":{"index":0},"metallicFactor":0.0,"roughnessFactor":0.9},"emissiveFactor":[0.0,0.0,0.0],"alphaMode":"BLEND","name":"Material #3"}],"textures":[{"sampler":0,"source":0,"name":"image01.png"}],"images":[{"uri":"image01.png"}],"samplers":[{"magFilter":9729,"minFilter":9987,"wrapS":10497,"wrapT":10497}]}