{"asset":{"version":"2.0","generator":"Babylon2Gltf2017","copyright":"2017 (c) BabylonJS"},"scene":0,"scenes":[{"nodes":[0]}],"nodes":[{"mesh":0,"translation":[0.0,0.0,-1.68474176E-13],"rotation":[-0.7071068,0.0,0.0,-0.7071067],"scale":[1.0,1.0,1.0],"name":"GeoSphere561"}],"meshes":[{"primitives":[{"attributes":{"POSITION":1,"NORMAL":2,"TEXCOORD_0":3},"indices":0,"mode":4,"material":0}],"name":"GeoSphere561"}],"accessors":[{"bufferView":0,"componentType":5123,"count":54000,"type":"SCALAR","name":"accessorIndices"},{"bufferView":1,"componentType":5126,"count":54000,"max":[64.42243,110.407722,63.7772636],"min":[-64.42243,-110.407715,-31.1453056],"type":"VEC3","name":"accessorPositions"},{"bufferView":1,"byteOffset":648000,"componentType":5126,"count":54000,"type":"VEC3","name":"accessorNormals"},{"bufferView":2,"componentType":5126,"count":54000,"type":"VEC2","name":"accessorUVs"}],"bufferViews":[{"buffer":0,"byteLength":108000,"name":"bufferViewScalar"},{"buffer":0,"byteOffset":108000,"byteLength":1296000,"byteStride":12,"name":"bufferViewFloatVec3"},{"buffer":0,"byteOffset":1404000,"byteLength":432000,"byteStride":8,"name":"bufferViewFloatVec2"}],"buffers":[{"uri":"5.bin","byteLength":1836000}],"materials":[{"pbrMetallicRoughness":{"baseColorFactor":[1.0,1.0,1.0,1.0],"baseColorTexture":{"index":0},"metallicFactor":0.0,"roughnessFactor":0.9},"emissiveFactor":[0.0,0.0,0.0],"alphaMode":"BLEND","name":"Material #3"}],"textures":[{"sampler":0,"source":0,"name":"image01.png"}],"images":[{"uri":"image01.png"}],"samplers":[{"magFilter":9729,"minFilter":9987,"wrapS":10497,"wrapT":10497}]}