{"asset":{"version":"2.0","generator":"Babylon2Gltf2017","copyright":"2017 (c) BabylonJS"},"scene":0,"scenes":[{"nodes":[0]}],"nodes":[{"mesh":0,"translation":[0.0,0.0,0.0],"rotation":[-0.7071069,-4.214684E-08,4.21468549E-08,-0.70710665],"scale":[1.0,1.0,1.0],"name":"对象036"}],"meshes":[{"primitives":[{"attributes":{"POSITION":1,"NORMAL":2,"TEXCOORD_0":3},"indices":0,"mode":4,"material":0}],"name":"对象036"}],"accessors":[{"bufferView":0,"componentType":5123,"count":18000,"type":"SCALAR","name":"accessorIndices"},{"bufferView":1,"componentType":5126,"count":18000,"max":[64.3381653,70.37006,63.8015022],"min":[-44.2131157,-49.9615974,-31.2008572],"type":"VEC3","name":"accessorPositions"},{"bufferView":1,"byteOffset":216000,"componentType":5126,"count":18000,"type":"VEC3","name":"accessorNormals"},{"bufferView":2,"componentType":5126,"count":18000,"type":"VEC2","name":"accessorUVs"}],"bufferViews":[{"buffer":0,"byteLength":36000,"name":"bufferViewScalar"},{"buffer":0,"byteOffset":36000,"byteLength":432000,"byteStride":12,"name":"bufferViewFloatVec3"},{"buffer":0,"byteOffset":468000,"byteLength":144000,"byteStride":8,"name":"bufferViewFloatVec2"}],"buffers":[{"uri":"7.bin","byteLength":612000}],"materials":[{"pbrMetallicRoughness":{"baseColorFactor":[1.0,1.0,1.0,1.0],"baseColorTexture":{"index":0},"metallicFactor":0.0,"roughnessFactor":0.9},"emissiveFactor":[0.0,0.0,0.0],"alphaMode":"BLEND","name":"Material #3"}],"textures":[{"sampler":0,"source":0,"name":"image01.png"}],"images":[{"uri":"image01.png"}],"samplers":[{"magFilter":9729,"minFilter":9987,"wrapS":10497,"wrapT":10497}]}