{"asset":{"version":"2.0","generator":"Babylon2Gltf2017","copyright":"2017 (c) BabylonJS"},"scene":0,"scenes":[{"nodes":[0]}],"nodes":[{"mesh":0,"translation":[0.0,2.14150659E-12,-2.2082836E-13],"rotation":[-0.7071068,0.0,0.0,-0.7071067],"scale":[1.0,1.0,1.0],"name":"GeoSphere560"}],"meshes":[{"primitives":[{"attributes":{"POSITION":1,"NORMAL":2,"TEXCOORD_0":3},"indices":0,"mode":4,"material":0}],"name":"GeoSphere560"}],"accessors":[{"bufferView":0,"componentType":5123,"count":39000,"type":"SCALAR","name":"accessorIndices"},{"bufferView":1,"componentType":5126,"count":39000,"max":[53.3186646,70.82661,63.77725],"min":[-78.97474,-50.07397,-63.77726],"type":"VEC3","name":"accessorPositions"},{"bufferView":1,"byteOffset":468000,"componentType":5126,"count":39000,"type":"VEC3","name":"accessorNormals"},{"bufferView":2,"componentType":5126,"count":39000,"type":"VEC2","name":"accessorUVs"}],"bufferViews":[{"buffer":0,"byteLength":78000,"name":"bufferViewScalar"},{"buffer":0,"byteOffset":78000,"byteLength":936000,"byteStride":12,"name":"bufferViewFloatVec3"},{"buffer":0,"byteOffset":1014000,"byteLength":312000,"byteStride":8,"name":"bufferViewFloatVec2"}],"buffers":[{"uri":"8.bin","byteLength":1326000}],"materials":[{"pbrMetallicRoughness":{"baseColorFactor":[1.0,1.0,1.0,1.0],"baseColorTexture":{"index":0},"metallicFactor":0.0,"roughnessFactor":0.9},"emissiveFactor":[0.0,0.0,0.0],"alphaMode":"BLEND","name":"Material #5"}],"textures":[{"sampler":0,"source":0,"name":"image01.png"}],"images":[{"uri":"image01.png"}],"samplers":[{"magFilter":9729,"minFilter":9987,"wrapS":10497,"wrapT":10497}]}