{"asset":{"version":"2.0","generator":"Babylon2Gltf2017","copyright":"2017 (c) BabylonJS"},"scene":0,"scenes":[{"nodes":[0]}],"nodes":[{"mesh":0,"translation":[0.0,0.0,0.0],"rotation":[-0.7071069,-4.214684E-08,4.21468549E-08,-0.70710665],"scale":[1.0,1.0,1.0],"name":"对象037"}],"meshes":[{"primitives":[{"attributes":{"POSITION":1,"NORMAL":2,"TEXCOORD_0":3},"indices":0,"mode":4,"material":0}],"name":"对象037"}],"accessors":[{"bufferView":0,"componentType":5123,"count":1500,"type":"SCALAR","name":"accessorIndices"},{"bufferView":1,"componentType":5126,"count":1500,"max":[29.9377632,30.2042313,35.2275047],"min":[-9.873151,-9.795767,-4.527591],"type":"VEC3","name":"accessorPositions"},{"bufferView":1,"byteOffset":18000,"componentType":5126,"count":1500,"type":"VEC3","name":"accessorNormals"},{"bufferView":2,"componentType":5126,"count":1500,"type":"VEC2","name":"accessorUVs"}],"bufferViews":[{"buffer":0,"byteLength":3000,"name":"bufferViewScalar"},{"buffer":0,"byteOffset":3000,"byteLength":36000,"byteStride":12,"name":"bufferViewFloatVec3"},{"buffer":0,"byteOffset":39000,"byteLength":12000,"byteStride":8,"name":"bufferViewFloatVec2"}],"buffers":[{"uri":"x7.bin","byteLength":51000}],"materials":[{"pbrMetallicRoughness":{"baseColorFactor":[1.0,1.0,1.0,1.0],"baseColorTexture":{"index":0},"metallicFactor":0.0,"roughnessFactor":0.9},"emissiveFactor":[0.0,0.0,0.0],"alphaMode":"BLEND","name":"Material #3"}],"textures":[{"sampler":0,"source":0,"name":"image01.png"}],"images":[{"uri":"image01.png"}],"samplers":[{"magFilter":9729,"minFilter":9987,"wrapS":10497,"wrapT":10497}]}