{"asset":{"version":"2.0","generator":"Babylon2Gltf2017","copyright":"2017 (c) BabylonJS"},"scene":0,"scenes":[{"nodes":[0]}],"nodes":[{"mesh":0,"translation":[-4.76837158E-07,1.23977661E-05,-1.07305686E-06],"rotation":[-0.7071068,0.0,0.0,-0.7071067],"scale":[1.0,1.0,1.0],"name":"对象001"}],"meshes":[{"primitives":[{"attributes":{"POSITION":1,"NORMAL":2,"TEXCOORD_0":3},"indices":0,"mode":4,"material":0}],"name":"对象001"}],"accessors":[{"bufferView":0,"componentType":5123,"count":444,"type":"SCALAR","name":"accessorIndices"},{"bufferView":1,"componentType":5126,"count":444,"max":[61.828373,47.16259,51.3931656],"min":[-61.828373,-47.16259,-51.3931656],"type":"VEC3","name":"accessorPositions"},{"bufferView":1,"byteOffset":5328,"componentType":5126,"count":444,"type":"VEC3","name":"accessorNormals"},{"bufferView":2,"componentType":5126,"count":444,"type":"VEC2","name":"accessorUVs"}],"bufferViews":[{"buffer":0,"byteLength":888,"name":"bufferViewScalar"},{"buffer":0,"byteOffset":888,"byteLength":10656,"byteStride":12,"name":"bufferViewFloatVec3"},{"buffer":0,"byteOffset":11544,"byteLength":3552,"byteStride":8,"name":"bufferViewFloatVec2"}],"buffers":[{"uri":"qiang.bin","byteLength":15096}],"materials":[{"pbrMetallicRoughness":{"baseColorFactor":[1.0,1.0,1.0,1.0],"baseColorTexture":{"index":0},"metallicFactor":0.0,"roughnessFactor":0.9},"emissiveFactor":[0.0,0.0,0.0],"alphaMode":"BLEND","name":"Material #328"}],"textures":[{"sampler":0,"source":0,"name":"image02.png"}],"images":[{"uri":"image02.png"}],"samplers":[{"magFilter":9729,"minFilter":9987,"wrapS":10497,"wrapT":10497}]}