{"asset":{"version":"2.0","generator":"Babylon2Gltf2017","copyright":"2017 (c) BabylonJS"},"scene":0,"scenes":[{"nodes":[0]}],"nodes":[{"mesh":0,"translation":[-4.76837158E-07,1.23977661E-05,-1.07305686E-06],"rotation":[-0.7071068,0.0,0.0,-0.7071067],"scale":[1.0,1.0,1.0],"name":"对象002"}],"meshes":[{"primitives":[{"attributes":{"POSITION":1,"NORMAL":2,"TEXCOORD_0":3},"indices":0,"mode":4,"material":0}],"name":"对象002"}],"accessors":[{"bufferView":0,"componentType":5123,"count":1836,"type":"SCALAR","name":"accessorIndices"},{"bufferView":1,"componentType":5126,"count":1836,"max":[20.5124378,18.1398849,16.14038],"min":[-22.2074127,-18.095293,-20.1659546],"type":"VEC3","name":"accessorPositions"},{"bufferView":1,"byteOffset":22032,"componentType":5126,"count":1836,"type":"VEC3","name":"accessorNormals"},{"bufferView":2,"componentType":5126,"count":1836,"type":"VEC2","name":"accessorUVs"}],"bufferViews":[{"buffer":0,"byteLength":3672,"name":"bufferViewScalar"},{"buffer":0,"byteOffset":3672,"byteLength":44064,"byteStride":12,"name":"bufferViewFloatVec3"},{"buffer":0,"byteOffset":47736,"byteLength":14688,"byteStride":8,"name":"bufferViewFloatVec2"}],"buffers":[{"uri":"wapian.bin","byteLength":62424}],"materials":[{"pbrMetallicRoughness":{"baseColorFactor":[1.0,1.0,1.0,1.0],"baseColorTexture":{"index":0},"metallicFactor":0.0,"roughnessFactor":0.9},"emissiveFactor":[0.0,0.0,0.0],"alphaMode":"BLEND","name":"Material #328"}],"textures":[{"sampler":0,"source":0,"name":"image02.png"}],"images":[{"uri":"image02.png"}],"samplers":[{"magFilter":9729,"minFilter":9987,"wrapS":10497,"wrapT":10497}]}