{"asset":{"version":"2.0","generator":"Babylon2Gltf2017","copyright":"2017 (c) BabylonJS"},"scene":0,"scenes":[{"nodes":[0,1,2,3,4]}],"nodes":[{"mesh":0,"translation":[0.0,0.5,0.0],"rotation":[0.0,1.0,0.0,-4.371139E-08],"scale":[1.0,1.0,1.0],"name":"Line003"},{"mesh":1,"translation":[-97.99105,0.0,11.8153992],"rotation":[0.0,0.0,0.0,-1.0],"scale":[1.0,1.0,1.0],"name":"Text001"},{"mesh":2,"translation":[0.599369049,0.0,105.264244],"rotation":[0.0,0.0,0.0,-1.0],"scale":[1.0,1.0,1.0],"name":"Text002"},{"mesh":3,"translation":[-0.332819223,0.0,-81.9648056],"rotation":[0.0,0.0,0.0,-1.0],"scale":[1.0,1.0,1.0],"name":"Text003"},{"mesh":4,"translation":[88.75292,0.0,11.8153992],"rotation":[0.0,0.0,0.0,-1.0],"scale":[1.0,1.0,1.0],"name":"Text004"}],"meshes":[{"primitives":[{"attributes":{"POSITION":1,"NORMAL":2},"indices":0,"mode":4,"material":0}],"name":"Line003"},{"primitives":[{"attributes":{"POSITION":4,"NORMAL":5},"indices":3,"mode":4,"material":0}],"name":"Text001"},{"primitives":[{"attributes":{"POSITION":7,"NORMAL":8},"indices":6,"mode":4,"material":0}],"name":"Text002"},{"primitives":[{"attributes":{"POSITION":10,"NORMAL":11},"indices":9,"mode":4,"material":0}],"name":"Text003"},{"primitives":[{"attributes":{"POSITION":13,"NORMAL":14},"indices":12,"mode":4,"material":0}],"name":"Text004"}],"accessors":[{"bufferView":0,"componentType":5123,"count":276,"type":"SCALAR","name":"accessorIndices"},{"bufferView":1,"componentType":5126,"count":276,"max":[71.9648,2.16496849,71.9648056],"min":[-71.9648,-0.5,-71.9648],"type":"VEC3","name":"accessorPositions"},{"bufferView":1,"byteOffset":3312,"componentType":5126,"count":276,"type":"VEC3","name":"accessorNormals"},{"bufferView":0,"byteOffset":552,"componentType":5123,"count":684,"type":"SCALAR","name":"accessorIndices"},{"bufferView":1,"byteOffset":6624,"componentType":5126,"count":684,"max":[16.0262527,4.0,0.0],"min":[-16.0262527,0.0,-22.9325],"type":"VEC3","name":"accessorPositions"},{"bufferView":1,"byteOffset":14832,"componentType":5126,"count":684,"type":"VEC3","name":"accessorNormals"},{"bufferView":0,"byteOffset":1920,"componentType":5123,"count":1608,"type":"SCALAR","name":"accessorIndices"},{"bufferView":1,"byteOffset":23040,"componentType":5126,"count":1608,"max":[7.76500034,4.0,0.400001526],"min":[-7.76500034,0.0,-23.3174973],"type":"VEC3","name":"accessorPositions"},{"bufferView":1,"byteOffset":42336,"componentType":5126,"count":1608,"type":"VEC3","name":"accessorNormals"},{"bufferView":0,"byteOffset":5136,"componentType":5123,"count":396,"type":"SCALAR","name":"accessorIndices"},{"bufferView":1,"byteOffset":61632,"componentType":5126,"count":396,"max":[10.1931257,4.0,0.0],"min":[-10.1931248,0.0,-22.9325027],"type":"VEC3","name":"accessorPositions"},{"bufferView":1,"byteOffset":66384,"componentType":5126,"count":396,"type":"VEC3","name":"accessorNormals"},{"bufferView":0,"byteOffset":5928,"componentType":5123,"count":132,"type":"SCALAR","name":"accessorIndices"},{"bufferView":1,"byteOffset":71136,"componentType":5126,"count":132,"max":[6.788124,4.0,0.0],"min":[-6.788124,0.0,-22.9325],"type":"VEC3","name":"accessorPositions"},{"bufferView":1,"byteOffset":72720,"componentType":5126,"count":132,"type":"VEC3","name":"accessorNormals"}],"bufferViews":[{"buffer":0,"byteLength":6192,"name":"bufferViewScalar"},{"buffer":0,"byteOffset":6192,"byteLength":74304,"byteStride":12,"name":"bufferViewFloatVec3"}],"buffers":[{"uri":"FW.bin","byteLength":80496}],"materials":[{"pbrMetallicRoughness":{"baseColorFactor":[1.0,1.0,1.0,1.0],"baseColorTexture":{"index":0},"metallicFactor":0.0,"roughnessFactor":0.9},"emissiveFactor":[0.0,0.0,0.0],"alphaMode":"BLEND","name":"Material #25"}],"textures":[{"sampler":0,"source":0,"name":"Material_baseColor.png"}],"images":[{"uri":"Material_baseColor.png"}],"samplers":[{"magFilter":9729,"minFilter":9987,"wrapS":10497,"wrapT":10497}]}