{"asset":{"version":"2.0","generator":"Babylon2Gltf2017","copyright":"2017 (c) BabylonJS"},"scene":0,"scenes":[{"nodes":[0]}],"nodes":[{"mesh":0,"translation":[0.0,0.0,0.0],"rotation":[-0.382683367,0.923879564,2.88917956E-08,-6.975097E-08],"scale":[1.33399534,0.4248547,1.0],"name":"对象003"}],"meshes":[{"primitives":[{"attributes":{"POSITION":1,"NORMAL":2},"indices":0,"mode":4,"material":0}],"name":"对象003"}],"accessors":[{"bufferView":0,"componentType":5123,"count":156,"type":"SCALAR","name":"accessorIndices"},{"bufferView":1,"componentType":5126,"count":156,"max":[6.407771,20.1196766,34.6716],"min":[-6.40777,-20.1196728,-34.6715927],"type":"VEC3","name":"accessorPositions"},{"bufferView":1,"byteOffset":1872,"componentType":5126,"count":156,"type":"VEC3","name":"accessorNormals"}],"bufferViews":[{"buffer":0,"byteLength":312,"name":"bufferViewScalar"},{"buffer":0,"byteOffset":312,"byteLength":3744,"byteStride":12,"name":"bufferViewFloatVec3"}],"buffers":[{"uri":"JT01.bin","byteLength":4056}],"materials":[{"pbrMetallicRoughness":{"baseColorFactor":[1.0,1.0,1.0,1.0],"baseColorTexture":{"index":0},"metallicFactor":0.0,"roughnessFactor":0.9},"emissiveFactor":[0.0,0.0,0.0],"alphaMode":"BLEND","name":"Material #27"}],"textures":[{"sampler":0,"source":0,"name":"Material27_baseColor.png"}],"images":[{"uri":"Material27_baseColor.png"}],"samplers":[{"magFilter":9729,"minFilter":9987,"wrapS":10497,"wrapT":10497}]}