{"asset":{"version":"2.0","generator":"babylon.js glTF exporter for maya 2018 v1.2.16","copyright":"2017 (c) BabylonJS"},"extensionsUsed":["KHR_lights"],"scene":0,"scenes":[{"nodes":[0,3,9],"extensions":{"KHR_lights":{"light":0}}}],"nodes":[{"children":[1,2],"translation":[0.0,0.0,0.0],"rotation":[0.0,0.0,0.0,1.0],"scale":[1.0,1.0,1.0],"name":"qw"},{"mesh":0,"translation":[0.0,0.0,0.0],"rotation":[0.0,0.0,0.0,1.0],"scale":[1.0,1.0,1.0],"name":"body"},{"mesh":1,"translation":[0.0,0.0,0.0],"rotation":[0.0,0.0,0.0,1.0],"scale":[1.0,1.0,1.0],"name":"eye"},{"children":[4,5,6,7,8],"translation":[0.0,0.0,0.0],"rotation":[0.0,0.0,0.0,1.0],"scale":[1.0,1.0,1.0],"name":"line"},{"mesh":2,"translation":[0.0,0.0,0.0],"rotation":[0.0,0.0,0.0,1.0],"scale":[1.0,1.0,1.0],"name":"pCylinder4"},{"mesh":3,"translation":[0.0,0.0,0.0],"rotation":[0.0,0.0,0.0,1.0],"scale":[1.0,1.0,1.0],"name":"pCylinder5"},{"mesh":4,"translation":[0.0,0.0,0.0],"rotation":[0.0,0.0,0.0,1.0],"scale":[1.0,1.0,1.0],"name":"pCylinder6"},{"mesh":5,"translation":[0.0,0.0,0.0],"rotation":[0.0,0.0,0.0,1.0],"scale":[1.0,1.0,1.0],"name":"pCylinder7"},{"mesh":6,"translation":[0.0,0.0,0.0],"rotation":[0.0,0.0,0.0,1.0],"scale":[1.0,1.0,1.0],"name":"pCylinder8"},{"children":[10,11,12,13,14],"translation":[0.0,0.0,0.0],"rotation":[0.0,0.0,0.0,1.0],"scale":[1.0,1.0,1.0],"name":"font"},{"mesh":7,"translation":[0.0,0.0,0.0],"rotation":[0.0,0.0,0.0,1.0],"scale":[1.0,1.0,1.0],"name":"f2"},{"mesh":8,"translation":[0.0,0.0,0.0],"rotation":[0.0,0.0,0.0,1.0],"scale":[1.0,1.0,1.0],"name":"f1"},{"mesh":9,"translation":[0.0,0.0,0.0],"rotation":[0.0,0.0,0.0,1.0],"scale":[1.0,1.0,1.0],"name":"f3"},{"mesh":10,"translation":[0.0,0.0,0.0],"rotation":[0.0,0.0,0.0,1.0],"scale":[1.0,1.0,1.0],"name":"f4"},{"mesh":11,"translation":[0.0,0.0,0.0],"rotation":[0.0,0.0,0.0,1.0],"scale":[1.0,1.0,1.0],"name":"f5"}],"meshes":[{"primitives":[{"attributes":{"POSITION":1,"NORMAL":2,"TANGENT":3,"TEXCOORD_0":4},"indices":0,"mode":4,"material":0}],"name":"body"},{"primitives":[{"attributes":{"POSITION":6,"NORMAL":7,"TANGENT":8,"TEXCOORD_0":9},"indices":5,"mode":4,"material":0}],"name":"eye"},{"primitives":[{"attributes":{"POSITION":11,"NORMAL":12,"TANGENT":13,"TEXCOORD_0":14},"indices":10,"mode":4,"material":1}],"name":"pCylinder4"},{"primitives":[{"attributes":{"POSITION":16,"NORMAL":17,"TANGENT":18,"TEXCOORD_0":19},"indices":15,"mode":4,"material":1}],"name":"pCylinder5"},{"primitives":[{"attributes":{"POSITION":21,"NORMAL":22,"TANGENT":23,"TEXCOORD_0":24},"indices":20,"mode":4,"material":1}],"name":"pCylinder6"},{"primitives":[{"attributes":{"POSITION":26,"NORMAL":27,"TANGENT":28,"TEXCOORD_0":29},"indices":25,"mode":4,"material":1}],"name":"pCylinder7"},{"primitives":[{"attributes":{"POSITION":31,"NORMAL":32,"TANGENT":33,"TEXCOORD_0":34},"indices":30,"mode":4,"material":1}],"name":"pCylinder8"},{"primitives":[{"attributes":{"POSITION":36,"NORMAL":37,"TANGENT":38,"TEXCOORD_0":39},"indices":35,"mode":4,"material":1}],"name":"f2"},{"primitives":[{"attributes":{"POSITION":41,"NORMAL":42,"TANGENT":43,"TEXCOORD_0":44},"indices":40,"mode":4,"material":1}],"name":"f1"},{"primitives":[{"attributes":{"POSITION":46,"NORMAL":47,"TANGENT":48,"TEXCOORD_0":49},"indices":45,"mode":4,"material":1}],"name":"f3"},{"primitives":[{"attributes":{"POSITION":51,"NORMAL":52,"TANGENT":53,"TEXCOORD_0":54},"indices":50,"mode":4,"material":1}],"name":"f4"},{"primitives":[{"attributes":{"POSITION":56,"NORMAL":57,"TANGENT":58,"TEXCOORD_0":59},"indices":55,"mode":4,"material":1}],"name":"f5"}],"accessors":[{"bufferView":0,"componentType":5123,"count":36912,"type":"SCALAR","name":"accessorIndices"},{"bufferView":1,"componentType":5126,"count":6926,"max":[49.14455,17.2362957,32.14315],"min":[-49.14455,-25.8012142,-39.8294525],"type":"VEC3","name":"accessorPositions"},{"bufferView":1,"byteOffset":83112,"componentType":5126,"count":6926,"type":"VEC3","name":"accessorNormals"},{"bufferView":2,"componentType":5126,"count":6926,"type":"VEC4","name":"accessorTangents"},{"bufferView":3,"componentType":5126,"count":6926,"type":"VEC2","name":"accessorUVs"},{"bufferView":0,"byteOffset":73824,"componentType":5123,"count":4560,"type":"SCALAR","name":"accessorIndices"},{"bufferView":1,"byteOffset":166224,"componentType":5126,"count":802,"max":[11.8762226,15.0699177,22.0826244],"min":[-11.8389683,7.22847557,14.245348],"type":"VEC3","name":"accessorPositions"},{"bufferView":1,"byteOffset":175848,"componentType":5126,"count":802,"type":"VEC3","name":"accessorNormals"},{"bufferView":2,"byteOffset":110816,"componentType":5126,"count":802,"type":"VEC4","name":"accessorTangents"},{"bufferView":3,"byteOffset":55408,"componentType":5126,"count":802,"type":"VEC2","name":"accessorUVs"},{"bufferView":0,"byteOffset":82944,"componentType":5123,"count":36,"type":"SCALAR","name":"accessorIndices"},{"bufferView":1,"byteOffset":185472,"componentType":5126,"count":20,"max":[21.7108059,-21.7183361,4.88348961],"min":[21.5501232,-35.38714,4.697949],"type":"VEC3","name":"accessorPositions"},{"bufferView":1,"byteOffset":185712,"componentType":5126,"count":20,"type":"VEC3","name":"accessorNormals"},{"bufferView":2,"byteOffset":123648,"componentType":5126,"count":20,"type":"VEC4","name":"accessorTangents"},{"bufferView":3,"byteOffset":61824,"componentType":5126,"count":20,"type":"VEC2","name":"accessorUVs"},{"bufferView":0,"byteOffset":83016,"componentType":5123,"count":36,"type":"SCALAR","name":"accessorIndices"},{"bufferView":1,"byteOffset":185952,"componentType":5126,"count":20,"max":[31.6077976,-14.6798325,-16.5136127],"min":[31.4471149,-28.3486385,-16.699152],"type":"VEC3","name":"accessorPositions"},{"bufferView":1,"byteOffset":186192,"componentType":5126,"count":20,"type":"VEC3","name":"accessorNormals"},{"bufferView":2,"byteOffset":123968,"componentType":5126,"count":20,"type":"VEC4","name":"accessorTangents"},{"bufferView":3,"byteOffset":61984,"componentType":5126,"count":20,"type":"VEC2","name":"accessorUVs"},{"bufferView":0,"byteOffset":83088,"componentType":5123,"count":36,"type":"SCALAR","name":"accessorIndices"},{"bufferView":1,"byteOffset":186432,"componentType":5126,"count":20,"max":[12.5491972,17.6033611,12.0055876],"min":[12.3885145,3.93455839,11.8200464],"type":"VEC3","name":"accessorPositions"},{"bufferView":1,"byteOffset":186672,"componentType":5126,"count":20,"type":"VEC3","name":"accessorNormals"},{"bufferView":2,"byteOffset":124288,"componentType":5126,"count":20,"type":"VEC4","name":"accessorTangents"},{"bufferView":3,"byteOffset":62144,"componentType":5126,"count":20,"type":"VEC2","name":"accessorUVs"},{"bufferView":0,"byteOffset":83160,"componentType":5123,"count":36,"type":"SCALAR","name":"accessorIndices"},{"bufferView":1,"byteOffset":186912,"componentType":5126,"count":20,"max":[10.3924389,28.6501369,20.4851952],"min":[10.2317562,14.9813328,20.2996559],"type":"VEC3","name":"accessorPositions"},{"bufferView":1,"byteOffset":187152,"componentType":5126,"count":20,"type":"VEC3","name":"accessorNormals"},{"bufferView":2,"byteOffset":124608,"componentType":5126,"count":20,"type":"VEC4","name":"accessorTangents"},{"bufferView":3,"byteOffset":62304,"componentType":5126,"count":20,"type":"VEC2","name":"accessorUVs"},{"bufferView":0,"byteOffset":83232,"componentType":5123,"count":36,"type":"SCALAR","name":"accessorIndices"},{"bufferView":1,"byteOffset":187392,"componentType":5126,"count":20,"max":[0.93513155,27.1374187,30.6923637],"min":[0.7744486,13.4686155,30.5068226],"type":"VEC3","name":"accessorPositions"},{"bufferView":1,"byteOffset":187632,"componentType":5126,"count":20,"type":"VEC3","name":"accessorNormals"},{"bufferView":2,"byteOffset":124928,"componentType":5126,"count":20,"type":"VEC4","name":"accessorTangents"},{"bufferView":3,"byteOffset":62464,"componentType":5126,"count":20,"type":"VEC2","name":"accessorUVs"},{"bufferView":0,"byteOffset":83304,"componentType":5123,"count":2640,"type":"SCALAR","name":"accessorIndices"},{"bufferView":1,"byteOffset":187872,"componentType":5126,"count":1070,"max":[13.8791265,32.4961739,20.5326633],"min":[6.61506557,28.9555969,20.3886929],"type":"VEC3","name":"accessorPositions"},{"bufferView":1,"byteOffset":200712,"componentType":5126,"count":1070,"type":"VEC3","name":"accessorNormals"},{"bufferView":2,"byteOffset":125248,"componentType":5126,"count":1070,"type":"VEC4","name":"accessorTangents"},{"bufferView":3,"byteOffset":62624,"componentType":5126,"count":1070,"type":"VEC2","name":"accessorUVs"},{"bufferView":0,"byteOffset":88584,"componentType":5123,"count":2796,"type":"SCALAR","name":"accessorIndices"},{"bufferView":1,"byteOffset":213552,"componentType":5126,"count":1088,"max":[4.45443439,31.27397,30.6899166],"min":[-2.957996,27.7129688,30.5459461],"type":"VEC3","name":"accessorPositions"},{"bufferView":1,"byteOffset":226608,"componentType":5126,"count":1088,"type":"VEC3","name":"accessorNormals"},{"bufferView":2,"byteOffset":142368,"componentType":5126,"count":1088,"type":"VEC4","name":"accessorTangents"},{"bufferView":3,"byteOffset":71184,"componentType":5126,"count":1088,"type":"VEC2","name":"accessorUVs"},{"bufferView":0,"byteOffset":94176,"componentType":5123,"count":4356,"type":"SCALAR","name":"accessorIndices"},{"bufferView":1,"byteOffset":239664,"componentType":5126,"count":1730,"max":[16.21822,21.9330654,11.8882179],"min":[8.794121,18.3766575,11.7442513],"type":"VEC3","name":"accessorPositions"},{"bufferView":1,"byteOffset":260424,"componentType":5126,"count":1730,"type":"VEC3","name":"accessorNormals"},{"bufferView":2,"byteOffset":159776,"componentType":5126,"count":1730,"type":"VEC4","name":"accessorTangents"},{"bufferView":3,"byteOffset":79888,"componentType":5126,"count":1730,"type":"VEC2","name":"accessorUVs"},{"bufferView":0,"byteOffset":102888,"componentType":5123,"count":3948,"type":"SCALAR","name":"accessorIndices"},{"bufferView":1,"byteOffset":281184,"componentType":5126,"count":1498,"max":[25.3675251,-35.96681,4.79668045],"min":[17.94366,-39.5343437,4.652706],"type":"VEC3","name":"accessorPositions"},{"bufferView":1,"byteOffset":299160,"componentType":5126,"count":1498,"type":"VEC3","name":"accessorNormals"},{"bufferView":2,"byteOffset":187456,"componentType":5126,"count":1498,"type":"VEC4","name":"accessorTangents"},{"bufferView":3,"byteOffset":93728,"componentType":5126,"count":1498,"type":"VEC2","name":"accessorUVs"},{"bufferView":0,"byteOffset":110784,"componentType":5123,"count":3144,"type":"SCALAR","name":"accessorIndices"},{"bufferView":1,"byteOffset":317136,"componentType":5126,"count":1186,"max":[35.28381,-28.9292488,-16.5697212],"min":[27.7818871,-32.4853859,-16.7136917],"type":"VEC3","name":"accessorPositions"},{"bufferView":1,"byteOffset":331368,"componentType":5126,"count":1186,"type":"VEC3","name":"accessorNormals"},{"bufferView":2,"byteOffset":211424,"componentType":5126,"count":1186,"type":"VEC4","name":"accessorTangents"},{"bufferView":3,"byteOffset":105712,"componentType":5126,"count":1186,"type":"VEC2","name":"accessorUVs"}],"bufferViews":[{"buffer":0,"byteLength":117072,"name":"bufferViewScalar"},{"buffer":0,"byteOffset":117072,"byteLength":345600,"byteStride":12,"name":"bufferViewFloatVec3"},{"buffer":0,"byteOffset":462672,"byteLength":230400,"byteStride":16,"name":"bufferViewFloatVec4"},{"buffer":0,"byteOffset":693072,"byteLength":115200,"byteStride":8,"name":"bufferViewFloatVec2"}],"buffers":[{"uri":"qingwa.bin","byteLength":808272}],"materials":[{"pbrMetallicRoughness":{"baseColorFactor":[1.0,1.0,1.0,1.0],"baseColorTexture":{"index":1,"texCoord":0},"metallicFactor":0.0,"roughnessFactor":0.0},"emissiveTexture":{"index":0,"texCoord":0},"emissiveFactor":[1.0,1.0,1.0],"alphaMode":"OPAQUE","name":"qingwa_qingwa_blinn1"},{"pbrMetallicRoughness":{"baseColorFactor":[0.5208334,0.5208334,0.5208334,1.0],"metallicFactor":0.0,"roughnessFactor":0.9},"emissiveFactor":[0.0,0.0,0.0],"alphaMode":"OPAQUE","name":"lambert1"}],"textures":[{"sampler":0,"source":0,"name":"qingwa_qingwa_blinn1_emissive.jpg"},{"sampler":1,"source":1,"name":"qingwa_qingwa_blinn1_baseColor.jpg"}],"images":[{"uri":"qingwa_qingwa_blinn1_emissive.jpg"},{"uri":"qingwa_qingwa_blinn1_baseColor.jpg"}],"samplers":[{"magFilter":9729,"minFilter":9987,"wrapS":10497,"wrapT":10497},{"magFilter":9729,"minFilter":9987,"wrapS":10497,"wrapT":10497}],"extensions":{"KHR_lights":{"lights":[{"color":[1.0,1.0,1.0],"intensity":1.0,"type":"ambient"}]}}}