{"asset":{"version":"2.0","generator":"Babylon2Gltf2017","copyright":"2017 (c) BabylonJS"},"scene":0,"scenes":[{"nodes":[0]}],"nodes":[{"mesh":0,"translation":[0.0,0.0,0.0],"rotation":[0.0,0.7071068,0.0,-0.7071067],"scale":[1.0,1.0,1.0],"name":"对象001"}],"meshes":[{"primitives":[{"attributes":{"POSITION":1,"NORMAL":2,"TEXCOORD_0":3},"indices":0,"mode":4,"material":0}],"name":"对象001"}],"accessors":[{"bufferView":0,"componentType":5123,"count":14106,"type":"SCALAR","name":"accessorIndices"},{"bufferView":1,"componentType":5126,"count":14106,"max":[68.1616058,56.77379,28.2798119],"min":[-75.9091949,-35.0742722,-28.54259],"type":"VEC3","name":"accessorPositions"},{"bufferView":1,"byteOffset":169272,"componentType":5126,"count":14106,"type":"VEC3","name":"accessorNormals"},{"bufferView":2,"componentType":5126,"count":14106,"type":"VEC2","name":"accessorUVs"}],"bufferViews":[{"buffer":0,"byteLength":28212,"name":"bufferViewScalar"},{"buffer":0,"byteOffset":28212,"byteLength":338544,"byteStride":12,"name":"bufferViewFloatVec3"},{"buffer":0,"byteOffset":366756,"byteLength":112848,"byteStride":8,"name":"bufferViewFloatVec2"}],"buffers":[{"uri":"jiantou.bin","byteLength":479604}],"materials":[{"pbrMetallicRoughness":{"baseColorFactor":[1.0,1.0,1.0,1.0],"baseColorTexture":{"index":0},"metallicFactor":0.0,"roughnessFactor":0.9},"emissiveFactor":[0.0,0.0,0.0],"alphaMode":"BLEND","name":"Material #341"}],"textures":[{"sampler":0,"source":0,"name":"image01.png"}],"images":[{"uri":"image01.png"}],"samplers":[{"magFilter":9729,"minFilter":9987,"wrapS":10497,"wrapT":10497}]}