{"asset":{"version":"2.0","generator":"Babylon2Gltf2017","copyright":"2017 (c) BabylonJS"},"scene":0,"scenes":[{"nodes":[0]}],"nodes":[{"mesh":0,"translation":[0.0,0.0,0.0],"rotation":[0.0,0.7071068,0.0,-0.7071067],"scale":[1.0,1.0,1.0],"name":"对象006"}],"meshes":[{"primitives":[{"attributes":{"POSITION":1,"NORMAL":2,"TEXCOORD_0":3},"indices":0,"mode":4,"material":0}],"name":"对象006"}],"accessors":[{"bufferView":0,"componentType":5123,"count":1296,"type":"SCALAR","name":"accessorIndices"},{"bufferView":1,"componentType":5126,"count":1296,"max":[75.10003,44.2673035,19.5670757],"min":[-75.10004,-0.000535964966,-19.82986],"type":"VEC3","name":"accessorPositions"},{"bufferView":1,"byteOffset":15552,"componentType":5126,"count":1296,"type":"VEC3","name":"accessorNormals"},{"bufferView":2,"componentType":5126,"count":1296,"type":"VEC2","name":"accessorUVs"}],"bufferViews":[{"buffer":0,"byteLength":2592,"name":"bufferViewScalar"},{"buffer":0,"byteOffset":2592,"byteLength":31104,"byteStride":12,"name":"bufferViewFloatVec3"},{"buffer":0,"byteOffset":33696,"byteLength":10368,"byteStride":8,"name":"bufferViewFloatVec2"}],"buffers":[{"uri":"yuanzhuX.bin","byteLength":44064}],"materials":[{"pbrMetallicRoughness":{"baseColorFactor":[1.0,1.0,1.0,1.0],"baseColorTexture":{"index":0},"metallicFactor":0.0,"roughnessFactor":0.9},"emissiveFactor":[0.0,0.0,0.0],"alphaMode":"BLEND","name":"Material #279"}],"textures":[{"sampler":0,"source":0,"name":"image02.png"}],"images":[{"uri":"image02.png"}],"samplers":[{"magFilter":9729,"minFilter":9987,"wrapS":10497,"wrapT":10497}]}