{"asset":{"version":"2.0","generator":"Babylon2Gltf2017","copyright":"2017(c)BabylonJS"},"scene":0,"scenes":[{"nodes":[0]}],"nodes":[{"mesh":0,"translation":[0.0,0.0,0.0],"rotation":[0.0,0.0,0.0,-1.0],"scale":[1.0,1.0,1.0],"name":"Sphere042"}],"meshes":[{"primitives":[{"attributes":{"POSITION":1,"NORMAL":2,"TEXCOORD_0":3},"indices":0,"mode":4,"material":0},{"attributes":{"POSITION":5,"NORMAL":6,"TEXCOORD_0":7},"indices":4,"mode":4,"material":1}],"name":"Sphere042"}],"accessors":[{"bufferView":0,"componentType":5125,"count":41280,"type":"SCALAR","name":"accessorIndices"},{"bufferView":1,"componentType":5126,"count":41280,"max":[13.102478,16.825531,15.9455585],"min":[-15.1827488,-13.5060234,-15.95463],"type":"VEC3","name":"accessorPositions"},{"bufferView":1,"byteOffset":495360,"componentType":5126,"count":41280,"type":"VEC3","name":"accessorNormals"},{"bufferView":2,"componentType":5126,"count":41280,"type":"VEC2","name":"accessorUVs"},{"bufferView":0,"byteOffset":165120,"componentType":5125,"count":89568,"type":"SCALAR","name":"accessorIndices"},{"bufferView":1,"byteOffset":990720,"componentType":5126,"count":89568,"max":[19.6329765,20.4626732,22.2064514],"min":[-19.6329765,-20.4626732,-22.2064514],"type":"VEC3","name":"accessorPositions"},{"bufferView":1,"byteOffset":2065536,"componentType":5126,"count":89568,"type":"VEC3","name":"accessorNormals"},{"bufferView":2,"byteOffset":330240,"componentType":5126,"count":89568,"type":"VEC2","name":"accessorUVs"}],"bufferViews":[{"buffer":0,"byteLength":523392,"name":"bufferViewScalar"},{"buffer":0,"byteOffset":523392,"byteLength":3140352,"byteStride":12,"name":"bufferViewFloatVec3"},{"buffer":0,"byteOffset":3663744,"byteLength":1046784,"byteStride":8,"name":"bufferViewFloatVec2"}],"buffers":[{"uri":"xww.bin","byteLength":4710528}],"materials":[{"pbrMetallicRoughness":{"baseColorFactor":[1.0,1.0,1.0,1.0],"baseColorTexture":{"index":0},"metallicFactor":0.0,"roughnessFactor":0.9},"emissiveFactor":[0.0,0.0,0.0],"alphaMode":"BLEND","name":"Material126"},{"pbrMetallicRoughness":{"baseColorFactor":[1.0,1.0,1.0,1.0],"baseColorTexture":{"index":1},"metallicFactor":0.0,"roughnessFactor":0.9},"emissiveFactor":[0.0,0.0,0.0],"alphaMode":"BLEND","name":"Material5077"}],"textures":[{"sampler":0,"source":0,"name":"Material126_baseColor.png"},{"sampler":1,"source":1,"name":"Material5077_baseColor.png"}],"images":[{"uri":"Material126_baseColor.png"},{"uri":"Material5077_baseColor.png"}],"samplers":[{"magFilter":9729,"minFilter":9987,"wrapS":10497,"wrapT":10497},{"magFilter":9729,"minFilter":9987,"wrapS":10497,"wrapT":10497}]}