{"asset":{"version":"2.0","generator":"babylon.js glTF exporter for maya 2018 v1.2.16","copyright":"2017 (c) BabylonJS"},"extensionsUsed":["KHR_lights"],"scene":0,"scenes":[{"nodes":[0,1,2,3,4,5,6,7,8],"extensions":{"KHR_lights":{"light":0}}}],"nodes":[{"mesh":0,"translation":[0.0,0.0,0.0],"rotation":[0.0,0.0,0.0,1.0],"scale":[1.0,1.0,1.0],"name":"dimian"},{"mesh":1,"translation":[0.0,0.0,0.0],"rotation":[0.0,0.0,0.0,1.0],"scale":[1.0,1.0,1.0],"name":"plan"},{"mesh":2,"translation":[0.0,0.0,0.0],"rotation":[0.0,0.0,0.0,1.0],"scale":[1.0,1.0,1.0],"name":"number"},{"mesh":3,"translation":[0.0,0.0,0.0],"rotation":[0.0,0.0,0.0,1.0],"scale":[1.0,1.0,1.0],"name":"arr"},{"mesh":4,"translation":[0.0,0.0,0.0],"rotation":[0.0,0.0,0.0,1.0],"scale":[1.0,1.0,1.0],"name":"ctrl"},{"mesh":5,"translation":[0.0,0.0,0.0],"rotation":[0.0,0.0,0.0,1.0],"scale":[1.0,1.0,1.0],"name":"nurbsToPoly1"},{"mesh":6,"translation":[0.0,0.0,0.0],"rotation":[0.0,0.0,0.0,1.0],"scale":[1.0,1.0,1.0],"name":"nurbsToPoly2"},{"mesh":7,"translation":[0.0,0.0,0.0],"rotation":[0.0,0.0,0.0,1.0],"scale":[1.0,1.0,1.0],"name":"nurbsToPoly3"},{"mesh":8,"translation":[0.0,0.0,0.0],"rotation":[0.0,0.0,0.0,1.0],"scale":[1.0,1.0,1.0],"name":"nurbsToPoly4"}],"meshes":[{"primitives":[{"attributes":{"POSITION":1,"NORMAL":2,"TANGENT":3,"TEXCOORD_0":4},"indices":0,"mode":4,"material":0}],"name":"dimian"},{"primitives":[{"attributes":{"POSITION":6,"NORMAL":7,"TANGENT":8,"TEXCOORD_0":9},"indices":5,"mode":4,"material":0}],"name":"plan"},{"primitives":[{"attributes":{"POSITION":11,"NORMAL":12,"TANGENT":13,"TEXCOORD_0":14},"indices":10,"mode":4,"material":0}],"name":"number"},{"primitives":[{"attributes":{"POSITION":16,"NORMAL":17,"TANGENT":18,"TEXCOORD_0":19},"indices":15,"mode":4,"material":0}],"name":"arr"},{"primitives":[{"attributes":{"POSITION":21,"NORMAL":22,"TANGENT":23,"TEXCOORD_0":24},"indices":20,"mode":4,"material":0}],"name":"ctrl"},{"primitives":[{"attributes":{"POSITION":26,"NORMAL":27,"TANGENT":28,"TEXCOORD_0":29},"indices":25,"mode":4,"material":0}],"name":"nurbsToPoly1"},{"primitives":[{"attributes":{"POSITION":31,"NORMAL":32,"TANGENT":33,"TEXCOORD_0":34},"indices":30,"mode":4,"material":0}],"name":"nurbsToPoly2"},{"primitives":[{"attributes":{"POSITION":36,"NORMAL":37,"TANGENT":38,"TEXCOORD_0":39},"indices":35,"mode":4,"material":0}],"name":"nurbsToPoly3"},{"primitives":[{"attributes":{"POSITION":41,"NORMAL":42,"TANGENT":43,"TEXCOORD_0":44},"indices":40,"mode":4,"material":0}],"name":"nurbsToPoly4"}],"accessors":[{"bufferView":0,"componentType":5123,"count":6,"type":"SCALAR","name":"accessorIndices"},{"bufferView":1,"componentType":5126,"count":4,"max":[25.0,1.110223E-14,50.0],"min":[-25.0,-1.110223E-14,-50.0],"type":"VEC3","name":"accessorPositions"},{"bufferView":1,"byteOffset":48,"componentType":5126,"count":4,"type":"VEC3","name":"accessorNormals"},{"bufferView":2,"componentType":5126,"count":4,"type":"VEC4","name":"accessorTangents"},{"bufferView":3,"componentType":5126,"count":4,"type":"VEC2","name":"accessorUVs"},{"bufferView":0,"byteOffset":12,"componentType":5123,"count":6,"type":"SCALAR","name":"accessorIndices"},{"bufferView":1,"byteOffset":96,"componentType":5126,"count":4,"max":[25.0,1.110223E-14,50.0],"min":[-25.0,-1.110223E-14,-50.0],"type":"VEC3","name":"accessorPositions"},{"bufferView":1,"byteOffset":144,"componentType":5126,"count":4,"type":"VEC3","name":"accessorNormals"},{"bufferView":2,"byteOffset":64,"componentType":5126,"count":4,"type":"VEC4","name":"accessorTangents"},{"bufferView":3,"byteOffset":32,"componentType":5126,"count":4,"type":"VEC2","name":"accessorUVs"},{"bufferView":0,"byteOffset":24,"componentType":5123,"count":43116,"type":"SCALAR","name":"accessorIndices"},{"bufferView":1,"byteOffset":192,"componentType":5126,"count":8568,"max":[25.37951,43.066658,53.83648],"min":[24.9295063,6.933327,51.89516],"type":"VEC3","name":"accessorPositions"},{"bufferView":1,"byteOffset":103008,"componentType":5126,"count":8568,"type":"VEC3","name":"accessorNormals"},{"bufferView":2,"byteOffset":128,"componentType":5126,"count":8568,"type":"VEC4","name":"accessorTangents"},{"bufferView":3,"byteOffset":64,"componentType":5126,"count":8568,"type":"VEC2","name":"accessorUVs"},{"bufferView":0,"byteOffset":86256,"componentType":5123,"count":600,"type":"SCALAR","name":"accessorIndices"},{"bufferView":1,"byteOffset":205824,"componentType":5126,"count":147,"max":[25.6410141,51.5551529,50.6410141],"min":[24.3589859,0.0,49.3589859],"type":"VEC3","name":"accessorPositions"},{"bufferView":1,"byteOffset":207588,"componentType":5126,"count":147,"type":"VEC3","name":"accessorNormals"},{"bufferView":2,"byteOffset":137216,"componentType":5126,"count":147,"type":"VEC4","name":"accessorTangents"},{"bufferView":3,"byteOffset":68608,"componentType":5126,"count":147,"type":"VEC2","name":"accessorUVs"},{"bufferView":0,"byteOffset":87456,"componentType":5123,"count":792,"type":"SCALAR","name":"accessorIndices"},{"bufferView":1,"byteOffset":209352,"componentType":5126,"count":212,"max":[25.4536057,0.6642451,50.4536057],"min":[23.04552,-0.6642451,48.04552],"type":"VEC3","name":"accessorPositions"},{"bufferView":1,"byteOffset":211896,"componentType":5126,"count":212,"type":"VEC3","name":"accessorNormals"},{"bufferView":2,"byteOffset":139568,"componentType":5126,"count":212,"type":"VEC4","name":"accessorTangents"},{"bufferView":3,"byteOffset":69784,"componentType":5126,"count":212,"type":"VEC2","name":"accessorUVs"},{"bufferView":0,"byteOffset":89040,"componentType":5123,"count":8184,"type":"SCALAR","name":"accessorIndices"},{"bufferView":1,"byteOffset":214440,"componentType":5126,"count":1449,"max":[24.8306313,46.29599,50.37956],"min":[-24.8485737,26.4160938,-50.32195],"type":"VEC3","name":"accessorPositions"},{"bufferView":1,"byteOffset":231828,"componentType":5126,"count":1449,"type":"VEC3","name":"accessorNormals"},{"bufferView":2,"byteOffset":142960,"componentType":5126,"count":1449,"type":"VEC4","name":"accessorTangents"},{"bufferView":3,"byteOffset":71480,"componentType":5126,"count":1449,"type":"VEC2","name":"accessorUVs"},{"bufferView":0,"byteOffset":105408,"componentType":5123,"count":8184,"type":"SCALAR","name":"accessorIndices"},{"bufferView":1,"byteOffset":249216,"componentType":5126,"count":1449,"max":[24.848753,44.814373,50.5445251],"min":[-24.8523674,24.6205368,-50.2781143],"type":"VEC3","name":"accessorPositions"},{"bufferView":1,"byteOffset":266604,"componentType":5126,"count":1449,"type":"VEC3","name":"accessorNormals"},{"bufferView":2,"byteOffset":166144,"componentType":5126,"count":1449,"type":"VEC4","name":"accessorTangents"},{"bufferView":3,"byteOffset":83072,"componentType":5126,"count":1449,"type":"VEC2","name":"accessorUVs"},{"bufferView":0,"byteOffset":121776,"componentType":5123,"count":8184,"type":"SCALAR","name":"accessorIndices"},{"bufferView":1,"byteOffset":283992,"componentType":5126,"count":1449,"max":[24.8474426,42.36728,50.5217667],"min":[-24.85428,20.0422573,-50.2061729],"type":"VEC3","name":"accessorPositions"},{"bufferView":1,"byteOffset":301380,"componentType":5126,"count":1449,"type":"VEC3","name":"accessorNormals"},{"bufferView":2,"byteOffset":189328,"componentType":5126,"count":1449,"type":"VEC4","name":"accessorTangents"},{"bufferView":3,"byteOffset":94664,"componentType":5126,"count":1449,"type":"VEC2","name":"accessorUVs"},{"bufferView":0,"byteOffset":138144,"componentType":5123,"count":8184,"type":"SCALAR","name":"accessorIndices"},{"bufferView":1,"byteOffset":318768,"componentType":5126,"count":1449,"max":[24.83921,39.6954842,50.47594],"min":[-24.8327885,17.59523,-50.2438126],"type":"VEC3","name":"accessorPositions"},{"bufferView":1,"byteOffset":336156,"componentType":5126,"count":1449,"type":"VEC3","name":"accessorNormals"},{"bufferView":2,"byteOffset":212512,"componentType":5126,"count":1449,"type":"VEC4","name":"accessorTangents"},{"bufferView":3,"byteOffset":106256,"componentType":5126,"count":1449,"type":"VEC2","name":"accessorUVs"}],"bufferViews":[{"buffer":0,"byteLength":154512,"name":"bufferViewScalar"},{"buffer":0,"byteOffset":154512,"byteLength":353544,"byteStride":12,"name":"bufferViewFloatVec3"},{"buffer":0,"byteOffset":508056,"byteLength":235696,"byteStride":16,"name":"bufferViewFloatVec4"},{"buffer":0,"byteOffset":743752,"byteLength":117848,"byteStride":8,"name":"bufferViewFloatVec2"}],"buffers":[{"uri":"dengyamian.bin","byteLength":861600}],"materials":[{"pbrMetallicRoughness":{"baseColorFactor":[1.0,1.0,1.0,1.0],"baseColorTexture":{"index":0,"texCoord":0},"metallicFactor":0.0,"roughnessFactor":0.9},"emissiveFactor":[0.0,0.0,0.0],"alphaMode":"BLEND","name":"lambert1"}],"textures":[{"sampler":0,"source":0,"name":"lambert1_baseColor.png"}],"images":[{"uri":"lambert1_baseColor.png"}],"samplers":[{"magFilter":9729,"minFilter":9987,"wrapS":10497,"wrapT":10497}],"extensions":{"KHR_lights":{"lights":[{"color":[1.0,1.0,1.0],"intensity":1.0,"type":"ambient"}]}}}