{"asset":{"version":"2.0","generator":"Babylon2Gltf2017","copyright":"2017 (c) BabylonJS"},"scene":0,"scenes":[{"nodes":[0,1,2,3,4,5,6,7]}],"nodes":[{"mesh":0,"translation":[0.0,0.0,0.0],"rotation":[-0.7071068,0.0,0.0,-0.7071067],"scale":[1.0,1.0,1.0],"name":"对象001"},{"mesh":1,"translation":[0.0,0.0,0.0],"rotation":[-0.7071068,0.0,0.0,-0.7071067],"scale":[1.0,1.0,1.0],"name":"对象002"},{"mesh":2,"translation":[0.0,0.0,0.0],"rotation":[-0.7071068,0.0,0.0,-0.7071067],"scale":[1.0,1.0,1.0],"name":"对象003"},{"mesh":3,"translation":[0.0,0.0,0.0],"rotation":[-0.7071068,0.0,0.0,-0.7071067],"scale":[1.0,1.0,1.0],"name":"对象004"},{"mesh":4,"translation":[0.0,0.0,0.0],"rotation":[-0.7071068,0.0,0.0,-0.7071067],"scale":[1.0,1.0,1.0],"name":"对象005"},{"mesh":5,"translation":[0.0,0.0,0.0],"rotation":[-0.7071068,0.0,0.0,-0.7071067],"scale":[1.0,1.0,1.0],"name":"对象006"},{"mesh":6,"translation":[0.0,0.0,0.0],"rotation":[-0.7071068,0.0,0.0,-0.7071067],"scale":[1.0,1.0,1.0],"name":"对象007"},{"mesh":7,"translation":[0.0,0.0,0.0],"rotation":[-0.7071068,0.0,0.0,-0.7071067],"scale":[1.0,1.0,1.0],"name":"对象008"}],"meshes":[{"primitives":[{"attributes":{"POSITION":1,"NORMAL":2,"TEXCOORD_0":3},"indices":0,"mode":4,"material":0}],"name":"对象001"},{"primitives":[{"attributes":{"POSITION":5,"NORMAL":6,"TEXCOORD_0":7},"indices":4,"mode":4,"material":0}],"name":"对象002"},{"primitives":[{"attributes":{"POSITION":9,"NORMAL":10,"TEXCOORD_0":11},"indices":8,"mode":4,"material":0}],"name":"对象003"},{"primitives":[{"attributes":{"POSITION":13,"NORMAL":14,"TEXCOORD_0":15},"indices":12,"mode":4,"material":0}],"name":"对象004"},{"primitives":[{"attributes":{"POSITION":17,"NORMAL":18,"TEXCOORD_0":19},"indices":16,"mode":4,"material":0}],"name":"对象005"},{"primitives":[{"attributes":{"POSITION":21,"NORMAL":22,"TEXCOORD_0":23},"indices":20,"mode":4,"material":0}],"name":"对象006"},{"primitives":[{"attributes":{"POSITION":25,"NORMAL":26,"TEXCOORD_0":27},"indices":24,"mode":4,"material":0}],"name":"对象007"},{"primitives":[{"attributes":{"POSITION":29,"NORMAL":30,"TEXCOORD_0":31},"indices":28,"mode":4,"material":0}],"name":"对象008"}],"accessors":[{"bufferView":0,"componentType":5123,"count":2592,"type":"SCALAR","name":"accessorIndices"},{"bufferView":1,"componentType":5126,"count":2592,"max":[23.8866119,-1.565385,-1.37249935],"min":[1.88661194,-23.5653858,-23.3725],"type":"VEC3","name":"accessorPositions"},{"bufferView":1,"byteOffset":31104,"componentType":5126,"count":2592,"type":"VEC3","name":"accessorNormals"},{"bufferView":2,"componentType":5126,"count":2592,"type":"VEC2","name":"accessorUVs"},{"bufferView":0,"byteOffset":5184,"componentType":5123,"count":2592,"type":"SCALAR","name":"accessorIndices"},{"bufferView":1,"byteOffset":62208,"componentType":5126,"count":2592,"max":[-1.876648,23.6475677,-1.37250721],"min":[-23.8766479,1.64756763,-23.3725071],"type":"VEC3","name":"accessorPositions"},{"bufferView":1,"byteOffset":93312,"componentType":5126,"count":2592,"type":"VEC3","name":"accessorNormals"},{"bufferView":2,"byteOffset":20736,"componentType":5126,"count":2592,"type":"VEC2","name":"accessorUVs"},{"bufferView":0,"byteOffset":10368,"componentType":5123,"count":2592,"type":"SCALAR","name":"accessorIndices"},{"bufferView":1,"byteOffset":124416,"componentType":5126,"count":2592,"max":[-1.876648,-1.56536782,-1.3725909],"min":[-23.8766479,-23.56537,-23.372591],"type":"VEC3","name":"accessorPositions"},{"bufferView":1,"byteOffset":155520,"componentType":5126,"count":2592,"type":"VEC3","name":"accessorNormals"},{"bufferView":2,"byteOffset":41472,"componentType":5126,"count":2592,"type":"VEC2","name":"accessorUVs"},{"bufferView":0,"byteOffset":15552,"componentType":5123,"count":2592,"type":"SCALAR","name":"accessorIndices"},{"bufferView":1,"byteOffset":186624,"componentType":5126,"count":2592,"max":[-1.876648,-1.565338,23.3352566],"min":[-23.8766479,-23.5653381,1.3352567],"type":"VEC3","name":"accessorPositions"},{"bufferView":1,"byteOffset":217728,"componentType":5126,"count":2592,"type":"VEC3","name":"accessorNormals"},{"bufferView":2,"byteOffset":62208,"componentType":5126,"count":2592,"type":"VEC2","name":"accessorUVs"},{"bufferView":0,"byteOffset":20736,"componentType":5123,"count":2592,"type":"SCALAR","name":"accessorIndices"},{"bufferView":1,"byteOffset":248832,"componentType":5126,"count":2592,"max":[-1.876648,23.6475735,23.33526],"min":[-23.8766479,1.64757359,1.33526027],"type":"VEC3","name":"accessorPositions"},{"bufferView":1,"byteOffset":279936,"componentType":5126,"count":2592,"type":"VEC3","name":"accessorNormals"},{"bufferView":2,"byteOffset":82944,"componentType":5126,"count":2592,"type":"VEC2","name":"accessorUVs"},{"bufferView":0,"byteOffset":25920,"componentType":5123,"count":2592,"type":"SCALAR","name":"accessorIndices"},{"bufferView":1,"byteOffset":311040,"componentType":5126,"count":2592,"max":[23.8866119,23.6475677,23.3352547],"min":[1.88661194,1.64756787,1.33525264],"type":"VEC3","name":"accessorPositions"},{"bufferView":1,"byteOffset":342144,"componentType":5126,"count":2592,"type":"VEC3","name":"accessorNormals"},{"bufferView":2,"byteOffset":103680,"componentType":5126,"count":2592,"type":"VEC2","name":"accessorUVs"},{"bufferView":0,"byteOffset":31104,"componentType":5123,"count":2592,"type":"SCALAR","name":"accessorIndices"},{"bufferView":1,"byteOffset":373248,"componentType":5126,"count":2592,"max":[23.8866119,-1.56538,23.3352871],"min":[1.88661194,-23.5653839,1.33528721],"type":"VEC3","name":"accessorPositions"},{"bufferView":1,"byteOffset":404352,"componentType":5126,"count":2592,"type":"VEC3","name":"accessorNormals"},{"bufferView":2,"byteOffset":124416,"componentType":5126,"count":2592,"type":"VEC2","name":"accessorUVs"},{"bufferView":0,"byteOffset":36288,"componentType":5123,"count":2592,"type":"SCALAR","name":"accessorIndices"},{"bufferView":1,"byteOffset":435456,"componentType":5126,"count":2592,"max":[23.8866119,23.6475754,-1.37251484],"min":[1.88661194,1.64757526,-23.3725147],"type":"VEC3","name":"accessorPositions"},{"bufferView":1,"byteOffset":466560,"componentType":5126,"count":2592,"type":"VEC3","name":"accessorNormals"},{"bufferView":2,"byteOffset":145152,"componentType":5126,"count":2592,"type":"VEC2","name":"accessorUVs"},{"bufferView":3,"componentType":5126,"count":21,"max":[1.6],"min":[0.0],"type":"SCALAR","name":"accessorAnimationInput"},{"bufferView":4,"componentType":5126,"count":21,"type":"VEC3","name":"accessorAnimationPositions"},{"bufferView":3,"byteOffset":84,"componentType":5126,"count":21,"max":[1.6],"min":[0.0],"type":"SCALAR","name":"accessorAnimationInput"},{"bufferView":4,"byteOffset":252,"componentType":5126,"count":21,"type":"VEC3","name":"accessorAnimationPositions"},{"bufferView":3,"byteOffset":168,"componentType":5126,"count":21,"max":[1.6],"min":[0.0],"type":"SCALAR","name":"accessorAnimationInput"},{"bufferView":4,"byteOffset":504,"componentType":5126,"count":21,"type":"VEC3","name":"accessorAnimationPositions"},{"bufferView":3,"byteOffset":252,"componentType":5126,"count":21,"max":[1.6],"min":[0.0],"type":"SCALAR","name":"accessorAnimationInput"},{"bufferView":4,"byteOffset":756,"componentType":5126,"count":21,"type":"VEC3","name":"accessorAnimationPositions"},{"bufferView":3,"byteOffset":336,"componentType":5126,"count":21,"max":[1.6],"min":[0.0],"type":"SCALAR","name":"accessorAnimationInput"},{"bufferView":4,"byteOffset":1008,"componentType":5126,"count":21,"type":"VEC3","name":"accessorAnimationPositions"},{"bufferView":3,"byteOffset":420,"componentType":5126,"count":21,"max":[1.6],"min":[0.0],"type":"SCALAR","name":"accessorAnimationInput"},{"bufferView":4,"byteOffset":1260,"componentType":5126,"count":21,"type":"VEC3","name":"accessorAnimationPositions"},{"bufferView":3,"byteOffset":504,"componentType":5126,"count":21,"max":[1.6],"min":[0.0],"type":"SCALAR","name":"accessorAnimationInput"},{"bufferView":4,"byteOffset":1512,"componentType":5126,"count":21,"type":"VEC3","name":"accessorAnimationPositions"},{"bufferView":3,"byteOffset":588,"componentType":5126,"count":21,"max":[1.6],"min":[0.0],"type":"SCALAR","name":"accessorAnimationInput"},{"bufferView":4,"byteOffset":1764,"componentType":5126,"count":21,"type":"VEC3","name":"accessorAnimationPositions"}],"bufferViews":[{"buffer":0,"byteLength":41472,"name":"bufferViewScalar"},{"buffer":0,"byteOffset":41472,"byteLength":497664,"byteStride":12,"name":"bufferViewFloatVec3"},{"buffer":0,"byteOffset":539136,"byteLength":165888,"byteStride":8,"name":"bufferViewFloatVec2"},{"buffer":0,"byteOffset":705024,"byteLength":672,"name":"bufferViewAnimationFloatScalar"},{"buffer":0,"byteOffset":705696,"byteLength":2016,"name":"bufferViewAnimationFloatVec3"}],"buffers":[{"uri":"jingbao2.bin","byteLength":707712}],"materials":[{"pbrMetallicRoughness":{"baseColorFactor":[0.612745166,0.612745166,0.612745166,1.0],"metallicFactor":0.0,"roughnessFactor":0.9},"emissiveFactor":[0.0,0.0,0.0],"alphaMode":"OPAQUE","name":"01 - Default"}],"animations":[{"channels":[{"sampler":0,"target":{"node":0,"path":"translation"}},{"sampler":1,"target":{"node":1,"path":"translation"}},{"sampler":2,"target":{"node":2,"path":"translation"}},{"sampler":3,"target":{"node":3,"path":"translation"}},{"sampler":4,"target":{"node":4,"path":"translation"}},{"sampler":5,"target":{"node":5,"path":"translation"}},{"sampler":6,"target":{"node":6,"path":"translation"}},{"sampler":7,"target":{"node":7,"path":"translation"}}],"samplers":[{"input":32,"interpolation":"LINEAR","output":33},{"input":34,"interpolation":"LINEAR","output":35},{"input":36,"interpolation":"LINEAR","output":37},{"input":38,"interpolation":"LINEAR","output":39},{"input":40,"interpolation":"LINEAR","output":41},{"input":42,"interpolation":"LINEAR","output":43},{"input":44,"interpolation":"LINEAR","output":45},{"input":46,"interpolation":"LINEAR","output":47}]}]}