{"asset":{"version":"2.0","generator":"babylon.js glTF exporter for maya 2018 v1.2.16","copyright":"2017 (c) BabylonJS"},"extensionsUsed":["KHR_lights"],"scene":0,"scenes":[{"nodes":[0,1,2,3,4,5,6],"extensions":{"KHR_lights":{"light":0}}}],"nodes":[{"mesh":0,"translation":[0.0,0.0,0.0],"rotation":[0.0,0.0,0.0,1.0],"scale":[1.0,1.0,1.0],"name":"main"},{"translation":[0.0,0.0,0.0],"rotation":[0.0,0.0,0.0,1.0],"scale":[1.0,1.0,1.0],"name":"transform1"},{"mesh":1,"translation":[0.0,0.0,0.0],"rotation":[0.0,0.0,0.0,1.0],"scale":[1.0,1.0,1.0],"name":"font1"},{"mesh":2,"translation":[0.0,0.0,0.0],"rotation":[0.0,0.0,0.0,1.0],"scale":[1.0,1.0,1.0],"name":"font2"},{"mesh":3,"translation":[0.0,0.0,0.0],"rotation":[0.0,0.0,0.0,1.0],"scale":[1.0,1.0,1.0],"name":"font3"},{"mesh":4,"translation":[0.0,0.0,0.0],"rotation":[0.0,0.0,0.0,1.0],"scale":[1.0,1.0,1.0],"name":"font4"},{"mesh":5,"translation":[0.0,0.0,0.0],"rotation":[0.0,0.0,0.0,1.0],"scale":[1.0,1.0,1.0],"name":"line"}],"meshes":[{"primitives":[{"attributes":{"POSITION":1,"NORMAL":2,"TANGENT":3,"TEXCOORD_0":4},"indices":0,"mode":4,"material":0}],"name":"main"},{"primitives":[{"attributes":{"POSITION":6,"NORMAL":7,"TANGENT":8,"COLOR_0":9,"TEXCOORD_0":10},"indices":5,"mode":4,"material":1}],"name":"font1"},{"primitives":[{"attributes":{"POSITION":12,"NORMAL":13,"TANGENT":14,"COLOR_0":15,"TEXCOORD_0":16},"indices":11,"mode":4,"material":1}],"name":"font2"},{"primitives":[{"attributes":{"POSITION":18,"NORMAL":19,"TANGENT":20,"COLOR_0":21,"TEXCOORD_0":22},"indices":17,"mode":4,"material":1}],"name":"font3"},{"primitives":[{"attributes":{"POSITION":24,"NORMAL":25,"TANGENT":26,"COLOR_0":27,"TEXCOORD_0":28},"indices":23,"mode":4,"material":1}],"name":"font4"},{"primitives":[{"attributes":{"POSITION":30,"NORMAL":31,"TANGENT":32,"TEXCOORD_0":33},"indices":29,"mode":4,"material":1}],"name":"line"}],"accessors":[{"bufferView":0,"componentType":5123,"count":176817,"type":"SCALAR","name":"accessorIndices"},{"bufferView":1,"componentType":5126,"count":30398,"max":[30.1882515,6.38340473,37.3261375],"min":[-29.6464272,-2.77001929,-37.8825569],"type":"VEC3","name":"accessorPositions"},{"bufferView":1,"byteOffset":364776,"componentType":5126,"count":30398,"type":"VEC3","name":"accessorNormals"},{"bufferView":2,"componentType":5126,"count":30398,"type":"VEC4","name":"accessorTangents"},{"bufferView":3,"componentType":5126,"count":30398,"type":"VEC2","name":"accessorUVs"},{"bufferView":0,"byteOffset":353636,"componentType":5123,"count":2724,"type":"SCALAR","name":"accessorIndices"},{"bufferView":1,"byteOffset":729552,"componentType":5126,"count":1132,"max":[-18.8986244,20.819973,-5.26695347],"min":[-19.0986252,17.3020039,-16.1534157],"type":"VEC3","name":"accessorPositions"},{"bufferView":1,"byteOffset":743136,"componentType":5126,"count":1132,"type":"VEC3","name":"accessorNormals"},{"bufferView":2,"byteOffset":486368,"componentType":5126,"count":1132,"type":"VEC4","name":"accessorTangents"},{"bufferView":2,"byteOffset":504480,"componentType":5126,"count":1132,"type":"VEC4","name":"accessorColors"},{"bufferView":3,"byteOffset":243184,"componentType":5126,"count":1132,"type":"VEC2","name":"accessorUVs"},{"bufferView":0,"byteOffset":359084,"componentType":5123,"count":3456,"type":"SCALAR","name":"accessorIndices"},{"bufferView":1,"byteOffset":756720,"componentType":5126,"count":1416,"max":[-3.92036438,20.8556728,11.68968],"min":[-4.11461639,17.2589455,0.377393723],"type":"VEC3","name":"accessorPositions"},{"bufferView":1,"byteOffset":773712,"componentType":5126,"count":1416,"type":"VEC3","name":"accessorNormals"},{"bufferView":2,"byteOffset":522592,"componentType":5126,"count":1416,"type":"VEC4","name":"accessorTangents"},{"bufferView":2,"byteOffset":545248,"componentType":5126,"count":1416,"type":"VEC4","name":"accessorColors"},{"bufferView":3,"byteOffset":252240,"componentType":5126,"count":1416,"type":"VEC2","name":"accessorUVs"},{"bufferView":0,"byteOffset":365996,"componentType":5123,"count":3024,"type":"SCALAR","name":"accessorIndices"},{"bufferView":1,"byteOffset":790704,"componentType":5126,"count":1276,"max":[16.5580044,20.9781322,30.1592369],"min":[16.3637486,17.3814068,18.8469467],"type":"VEC3","name":"accessorPositions"},{"bufferView":1,"byteOffset":806016,"componentType":5126,"count":1276,"type":"VEC3","name":"accessorNormals"},{"bufferView":2,"byteOffset":567904,"componentType":5126,"count":1276,"type":"VEC4","name":"accessorTangents"},{"bufferView":2,"byteOffset":588320,"componentType":5126,"count":1276,"type":"VEC4","name":"accessorColors"},{"bufferView":3,"byteOffset":263568,"componentType":5126,"count":1276,"type":"VEC2","name":"accessorUVs"},{"bufferView":0,"byteOffset":372044,"componentType":5123,"count":2076,"type":"SCALAR","name":"accessorIndices"},{"bufferView":1,"byteOffset":821328,"componentType":5126,"count":864,"max":[7.913162,20.79743,-20.0003338],"min":[7.71891,17.2007027,-30.9939251],"type":"VEC3","name":"accessorPositions"},{"bufferView":1,"byteOffset":831696,"componentType":5126,"count":864,"type":"VEC3","name":"accessorNormals"},{"bufferView":2,"byteOffset":608736,"componentType":5126,"count":864,"type":"VEC4","name":"accessorTangents"},{"bufferView":2,"byteOffset":622560,"componentType":5126,"count":864,"type":"VEC4","name":"accessorColors"},{"bufferView":3,"byteOffset":273776,"componentType":5126,"count":864,"type":"VEC2","name":"accessorUVs"},{"bufferView":0,"byteOffset":376196,"componentType":5123,"count":192,"type":"SCALAR","name":"accessorIndices"},{"bufferView":1,"byteOffset":842064,"componentType":5126,"count":104,"max":[16.58126,17.10879,24.561554],"min":[-19.1550331,3.20181847,-25.7871017],"type":"VEC3","name":"accessorPositions"},{"bufferView":1,"byteOffset":843312,"componentType":5126,"count":104,"type":"VEC3","name":"accessorNormals"},{"bufferView":2,"byteOffset":636384,"componentType":5126,"count":104,"type":"VEC4","name":"accessorTangents"},{"bufferView":3,"byteOffset":280688,"componentType":5126,"count":104,"type":"VEC2","name":"accessorUVs"}],"bufferViews":[{"buffer":0,"byteLength":376580,"name":"bufferViewScalar"},{"buffer":0,"byteOffset":376580,"byteLength":844560,"byteStride":12,"name":"bufferViewFloatVec3"},{"buffer":0,"byteOffset":1221140,"byteLength":638048,"byteStride":16,"name":"bufferViewFloatVec4"},{"buffer":0,"byteOffset":1859188,"byteLength":281520,"byteStride":8,"name":"bufferViewFloatVec2"}],"buffers":[{"uri":"htgy_06.bin","byteLength":2140708}],"materials":[{"pbrMetallicRoughness":{"baseColorFactor":[1.0,1.0,1.0,1.0],"baseColorTexture":{"index":1,"texCoord":0},"metallicFactor":0.0,"roughnessFactor":0.9},"emissiveTexture":{"index":0,"texCoord":0},"emissiveFactor":[1.0,1.0,1.0],"alphaMode":"OPAQUE","name":"lambert1"},{"pbrMetallicRoughness":{"baseColorFactor":[0.255675018,0.525000036,0.2763906,1.0],"metallicFactor":0.0,"roughnessFactor":0.9},"emissiveFactor":[0.05669503,0.1164169,0.0612886362],"alphaMode":"OPAQUE","name":"lv1"}],"textures":[{"sampler":0,"source":0,"name":"lambert1_emissive.jpg"},{"sampler":1,"source":1,"name":"lambert1_baseColor.jpg"}],"images":[{"uri":"lambert1_emissive.jpg"},{"uri":"lambert1_baseColor.jpg"}],"samplers":[{"magFilter":9729,"minFilter":9987,"wrapS":10497,"wrapT":10497},{"magFilter":9729,"minFilter":9987,"wrapS":10497,"wrapT":10497}],"extensions":{"KHR_lights":{"lights":[{"color":[1.0,1.0,1.0],"intensity":1.0,"type":"ambient"}]}}}