{"asset":{"version":"2.0","generator":"Babylon2Gltf2017","copyright":"2017 (c) BabylonJS"},"scene":0,"scenes":[{"nodes":[0]}],"nodes":[{"mesh":0,"translation":[0.0,0.0,0.0],"rotation":[0.0,0.0,0.0,-1.0],"scale":[1.0,1.0,1.0],"name":"Cylinder177_001"}],"meshes":[{"primitives":[{"attributes":{"POSITION":1,"NORMAL":2,"TEXCOORD_0":3},"indices":0,"mode":4,"material":0},{"attributes":{"POSITION":5,"NORMAL":6,"TEXCOORD_0":7},"indices":4,"mode":4,"material":1}],"name":"Cylinder177_001"}],"accessors":[{"bufferView":0,"componentType":5125,"count":40560,"type":"SCALAR","name":"accessorIndices"},{"bufferView":1,"componentType":5126,"count":40560,"max":[11.335434,13.8848133,17.7897015],"min":[-9.727676,-12.0458431,-19.130125],"type":"VEC3","name":"accessorPositions"},{"bufferView":1,"byteOffset":486720,"componentType":5126,"count":40560,"type":"VEC3","name":"accessorNormals"},{"bufferView":2,"componentType":5126,"count":40560,"type":"VEC2","name":"accessorUVs"},{"bufferView":0,"byteOffset":162240,"componentType":5125,"count":89568,"type":"SCALAR","name":"accessorIndices"},{"bufferView":1,"byteOffset":973440,"componentType":5126,"count":89568,"max":[15.7902031,16.5596485,23.7680435],"min":[-15.7902031,-16.5596485,-23.7680435],"type":"VEC3","name":"accessorPositions"},{"bufferView":1,"byteOffset":2048256,"componentType":5126,"count":89568,"type":"VEC3","name":"accessorNormals"},{"bufferView":2,"byteOffset":324480,"componentType":5126,"count":89568,"type":"VEC2","name":"accessorUVs"}],"bufferViews":[{"buffer":0,"byteLength":520512,"name":"bufferViewScalar"},{"buffer":0,"byteOffset":520512,"byteLength":3123072,"byteStride":12,"name":"bufferViewFloatVec3"},{"buffer":0,"byteOffset":3643584,"byteLength":1041024,"byteStride":8,"name":"bufferViewFloatVec2"}],"buffers":[{"uri":"yiwuwang.bin","byteLength":4684608}],"materials":[{"pbrMetallicRoughness":{"baseColorFactor":[1.0,1.0,1.0,1.0],"baseColorTexture":{"index":0},"metallicFactor":0.0,"roughnessFactor":0.9},"emissiveFactor":[0.0,0.0,0.0],"alphaMode":"BLEND","name":"Material3809"},{"pbrMetallicRoughness":{"baseColorFactor":[1.0,1.0,1.0,1.0],"baseColorTexture":{"index":1},"metallicFactor":0.0,"roughnessFactor":0.9},"emissiveFactor":[0.0,0.0,0.0],"alphaMode":"BLEND","name":"Material3810"}],"textures":[{"sampler":0,"source":0,"name":"Material3809_baseColor.png"},{"sampler":1,"source":1,"name":"Material3810_baseColor.png"}],"images":[{"uri":"Material3809_baseColor.png"},{"uri":"Material3810_baseColor.png"}],"samplers":[{"magFilter":9729,"minFilter":9987,"wrapS":10497,"wrapT":10497},{"magFilter":9729,"minFilter":9987,"wrapS":10497,"wrapT":10497}]}