{"asset":{"version":"2.0","generator":"Babylon2Gltf2017","copyright":"2017 (c) BabylonJS"},"scene":0,"scenes":[{"nodes":[0]}],"nodes":[{"children":[1],"translation":[-1218.19385,0.0,0.0],"rotation":[-0.7071068,0.0,0.0,-0.7071067],"scale":[1.0,1.0,1.0],"name":"033"},{"mesh":0,"translation":[1218.19385,0.0,-1.562728E-41],"rotation":[0.0,0.0,0.0,-1.0],"scale":[1.0,1.0,1.0],"name":"050"}],"meshes":[{"primitives":[{"attributes":{"POSITION":1,"NORMAL":2,"TEXCOORD_0":3},"indices":0,"mode":4,"material":0}],"name":"050"}],"accessors":[{"bufferView":0,"componentType":5123,"count":6336,"type":"SCALAR","name":"accessorIndices"},{"bufferView":1,"componentType":5126,"count":6336,"max":[12.88665,12.6475983,12.3353062],"min":[-12.8767662,-12.5653791,-12.3725548],"type":"VEC3","name":"accessorPositions"},{"bufferView":1,"byteOffset":76032,"componentType":5126,"count":6336,"type":"VEC3","name":"accessorNormals"},{"bufferView":2,"componentType":5126,"count":6336,"type":"VEC2","name":"accessorUVs"}],"bufferViews":[{"buffer":0,"byteLength":12672,"name":"bufferViewScalar"},{"buffer":0,"byteOffset":12672,"byteLength":152064,"byteStride":12,"name":"bufferViewFloatVec3"},{"buffer":0,"byteOffset":164736,"byteLength":50688,"byteStride":8,"name":"bufferViewFloatVec2"}],"buffers":[{"uri":"jingbao3.bin","byteLength":215424}],"materials":[{"pbrMetallicRoughness":{"baseColorFactor":[0.612745166,0.612745166,0.612745166,1.0],"metallicFactor":0.0,"roughnessFactor":0.9},"emissiveFactor":[0.0,0.0,0.0],"alphaMode":"OPAQUE","name":"01 - Default"}]}