{"asset":{"version":"2.0","generator":"Babylon2Gltf2017","copyright":"2017(c)BabylonJS"},"scene":0,"scenes":[{"nodes":[0]}],"nodes":[{"mesh":0,"translation":[0.0,0.0,0.0],"rotation":[0.0,0.0,0.0,-1.0],"scale":[1.0,1.0,1.0],"name":"Box003"}],"meshes":[{"primitives":[{"attributes":{"POSITION":1,"NORMAL":2,"TEXCOORD_0":3},"indices":0,"mode":4,"material":0},{"attributes":{"POSITION":5,"NORMAL":6,"TEXCOORD_0":7},"indices":4,"mode":4,"material":1},{"attributes":{"POSITION":9,"NORMAL":10,"TEXCOORD_0":11},"indices":8,"mode":4,"material":2}],"name":"Box003"}],"accessors":[{"bufferView":0,"componentType":5125,"count":16428,"type":"SCALAR","name":"accessorIndices"},{"bufferView":1,"componentType":5126,"count":16428,"max":[5.73579931,4.421378,5.702896],"min":[-15.179966,-8.006387,-5.623049],"type":"VEC3","name":"accessorPositions"},{"bufferView":1,"byteOffset":197136,"componentType":5126,"count":16428,"type":"VEC3","name":"accessorNormals"},{"bufferView":2,"componentType":5126,"count":16428,"type":"VEC2","name":"accessorUVs"},{"bufferView":0,"byteOffset":65712,"componentType":5125,"count":7728,"type":"SCALAR","name":"accessorIndices"},{"bufferView":1,"byteOffset":394272,"componentType":5126,"count":7728,"max":[11.9034662,13.8152456,3.70531654],"min":[2.42903543,3.42013073,-3.70531464],"type":"VEC3","name":"accessorPositions"},{"bufferView":1,"byteOffset":487008,"componentType":5126,"count":7728,"type":"VEC3","name":"accessorNormals"},{"bufferView":2,"byteOffset":131424,"componentType":5126,"count":7728,"type":"VEC2","name":"accessorUVs"},{"bufferView":0,"byteOffset":96624,"componentType":5125,"count":44784,"type":"SCALAR","name":"accessorIndices"},{"bufferView":1,"byteOffset":579744,"componentType":5126,"count":44784,"max":[18.9924583,11.4516592,11.6595955],"min":[-18.9924583,-13.8152456,-11.6595964],"type":"VEC3","name":"accessorPositions"},{"bufferView":1,"byteOffset":1117152,"componentType":5126,"count":44784,"type":"VEC3","name":"accessorNormals"},{"bufferView":2,"byteOffset":193248,"componentType":5126,"count":44784,"type":"VEC2","name":"accessorUVs"}],"bufferViews":[{"buffer":0,"byteLength":275760,"name":"bufferViewScalar"},{"buffer":0,"byteOffset":275760,"byteLength":1654560,"byteStride":12,"name":"bufferViewFloatVec3"},{"buffer":0,"byteOffset":1930320,"byteLength":551520,"byteStride":8,"name":"bufferViewFloatVec2"}],"buffers":[{"uri":"ycc.bin","byteLength":2481840}],"materials":[{"pbrMetallicRoughness":{"baseColorFactor":[1.0,1.0,1.0,1.0],"baseColorTexture":{"index":0},"metallicFactor":0.0,"roughnessFactor":0.9},"emissiveFactor":[0.0,0.0,0.0],"alphaMode":"BLEND","name":"Material126"},{"pbrMetallicRoughness":{"baseColorFactor":[1.0,1.0,1.0,1.0],"baseColorTexture":{"index":1},"metallicFactor":0.0,"roughnessFactor":0.9},"emissiveFactor":[0.0,0.0,0.0],"alphaMode":"BLEND","name":"Material5078"},{"pbrMetallicRoughness":{"baseColorFactor":[1.0,1.0,1.0,1.0],"baseColorTexture":{"index":2},"metallicFactor":0.0,"roughnessFactor":0.9},"emissiveFactor":[0.0,0.0,0.0],"alphaMode":"BLEND","name":"Material5077"}],"textures":[{"sampler":0,"source":0,"name":"Material126_baseColor.png"},{"sampler":1,"source":1,"name":"Material5078_baseColor.png"},{"sampler":2,"source":2,"name":"Material5077_baseColor.png"}],"images":[{"uri":"Material126_baseColor.png"},{"uri":"Material5078_baseColor.png"},{"uri":"Material5077_baseColor.png"}],"samplers":[{"magFilter":9729,"minFilter":9987,"wrapS":10497,"wrapT":10497},{"magFilter":9729,"minFilter":9987,"wrapS":10497,"wrapT":10497},{"magFilter":9729,"minFilter":9987,"wrapS":10497,"wrapT":10497}]}