{"asset":{"version":"2.0","generator":"babylon.js glTF exporter for maya 2018 v1.2.16","copyright":"2017 (c) BabylonJS"},"extensionsUsed":["KHR_lights"],"scene":0,"scenes":[{"nodes":[0],"extensions":{"KHR_lights":{"light":0}}}],"nodes":[{"children":[1,2,3,4,5,6,7,8,9,10],"translation":[0.0,0.0,0.0],"rotation":[0.0,0.0,0.0,1.0],"scale":[1.0,1.0,1.0],"name":"xiaokongchengxiang"},{"mesh":0,"translation":[0.0,0.0,0.0],"rotation":[0.0,0.0,0.0,1.0],"scale":[1.0,1.0,1.0],"name":"xkcx_4"},{"mesh":1,"translation":[0.0,0.0,0.0],"rotation":[0.0,0.0,0.0,1.0],"scale":[1.0,1.0,1.0],"name":"xkcx_guanzi"},{"mesh":2,"translation":[0.0,0.0,0.0],"rotation":[0.0,0.0,0.0,1.0],"scale":[1.0,1.0,1.0],"name":"xkcx_guangping"},{"mesh":3,"translation":[0.0,0.0,0.0],"rotation":[0.0,0.0,0.0,1.0],"scale":[1.0,1.0,1.0],"name":"xkcx_chizi"},{"mesh":4,"translation":[0.0,0.0,0.0],"rotation":[0.0,0.0,0.0,1.0],"scale":[1.0,1.0,1.0],"name":"xkcx_hengla_4"},{"mesh":5,"translation":[0.0,0.0,0.0],"rotation":[0.0,0.0,0.0,1.0],"scale":[1.0,1.0,1.0],"name":"xkcx_hengla_dangban"},{"mesh":6,"translation":[0.0,0.0,0.0],"rotation":[0.0,0.0,0.0,1.0],"scale":[1.0,1.0,1.0],"name":"xkcx_hengla_guangping"},{"mesh":7,"translation":[0.0,0.0,0.0],"rotation":[0.0,0.0,0.0,1.0],"scale":[1.0,1.0,1.0],"name":"xkcx_dizuo_front"},{"mesh":8,"translation":[0.0,0.0,0.0],"rotation":[0.0,0.0,0.0,1.0],"scale":[1.0,1.0,1.0],"name":"xkcx_dizuo_back"},{"mesh":9,"translation":[0.0,-3.64853024,0.0],"rotation":[0.0,0.0,0.0,1.0],"scale":[1.0,1.0,1.0],"name":"tutoujing"}],"meshes":[{"primitives":[{"attributes":{"POSITION":1,"NORMAL":2,"TANGENT":3,"TEXCOORD_0":4},"indices":0,"mode":4,"material":0}],"name":"xkcx_4"},{"primitives":[{"attributes":{"POSITION":6,"NORMAL":7,"TANGENT":8,"TEXCOORD_0":9},"indices":5,"mode":4,"material":1}],"name":"xkcx_guanzi"},{"primitives":[{"attributes":{"POSITION":11,"NORMAL":12,"TANGENT":13,"TEXCOORD_0":14},"indices":10,"mode":4,"material":2}],"name":"xkcx_guangping"},{"primitives":[{"attributes":{"POSITION":16,"NORMAL":17,"TANGENT":18,"TEXCOORD_0":19},"indices":15,"mode":4,"material":1},{"attributes":{"POSITION":21,"NORMAL":22,"TANGENT":23,"TEXCOORD_0":24},"indices":20,"mode":4,"material":3}],"name":"xkcx_chizi"},{"primitives":[{"attributes":{"POSITION":26,"NORMAL":27,"TANGENT":28,"TEXCOORD_0":29},"indices":25,"mode":4,"material":4},{"attributes":{"POSITION":31,"NORMAL":32,"TANGENT":33,"TEXCOORD_0":34},"indices":30,"mode":4,"material":1},{"attributes":{"POSITION":36,"NORMAL":37,"TANGENT":38,"TEXCOORD_0":39},"indices":35,"mode":4,"material":5},{"attributes":{"POSITION":41,"NORMAL":42,"TANGENT":43,"TEXCOORD_0":44},"indices":40,"mode":4,"material":6}],"name":"xkcx_hengla_4"},{"primitives":[{"attributes":{"POSITION":46,"NORMAL":47,"TANGENT":48,"TEXCOORD_0":49},"indices":45,"mode":4,"material":4},{"attributes":{"POSITION":51,"NORMAL":52,"TANGENT":53,"TEXCOORD_0":54},"indices":50,"mode":4,"material":1},{"attributes":{"POSITION":56,"NORMAL":57,"TANGENT":58,"TEXCOORD_0":59},"indices":55,"mode":4,"material":5},{"attributes":{"POSITION":61,"NORMAL":62,"TANGENT":63,"TEXCOORD_0":64},"indices":60,"mode":4,"material":6}],"name":"xkcx_hengla_dangban"},{"primitives":[{"attributes":{"POSITION":66,"NORMAL":67,"TANGENT":68,"TEXCOORD_0":69},"indices":65,"mode":4,"material":4},{"attributes":{"POSITION":71,"NORMAL":72,"TANGENT":73,"TEXCOORD_0":74},"indices":70,"mode":4,"material":1},{"attributes":{"POSITION":76,"NORMAL":77,"TANGENT":78,"TEXCOORD_0":79},"indices":75,"mode":4,"material":5},{"attributes":{"POSITION":81,"NORMAL":82,"TANGENT":83,"TEXCOORD_0":84},"indices":80,"mode":4,"material":6}],"name":"xkcx_hengla_guangping"},{"primitives":[{"attributes":{"POSITION":86,"NORMAL":87,"TANGENT":88,"TEXCOORD_0":89},"indices":85,"mode":4,"material":1}],"name":"xkcx_dizuo_front"},{"primitives":[{"attributes":{"POSITION":91,"NORMAL":92,"TANGENT":93,"TEXCOORD_0":94},"indices":90,"mode":4,"material":1}],"name":"xkcx_dizuo_back"},{"primitives":[{"attributes":{"POSITION":96,"NORMAL":97,"TANGENT":98,"TEXCOORD_0":99},"indices":95,"mode":4,"material":7}],"name":"tutoujing"}],"accessors":[{"bufferView":0,"componentType":5123,"count":5544,"type":"SCALAR","name":"accessorIndices"},{"bufferView":1,"componentType":5126,"count":1114,"max":[0.171360016,32.5258369,3.70695972],"min":[-0.171360016,24.6715946,-1.59617865],"type":"VEC3","name":"accessorPositions"},{"bufferView":1,"byteOffset":13368,"componentType":5126,"count":1114,"type":"VEC3","name":"accessorNormals"},{"bufferView":2,"componentType":5126,"count":1114,"type":"VEC4","name":"accessorTangents"},{"bufferView":3,"componentType":5126,"count":1114,"type":"VEC2","name":"accessorUVs"},{"bufferView":0,"byteOffset":11088,"componentType":5123,"count":528,"type":"SCALAR","name":"accessorIndices"},{"bufferView":1,"byteOffset":26736,"componentType":5126,"count":146,"max":[53.1644,1.727577,2.38350987],"min":[-53.00903,-3.88048577,-2.38350987],"type":"VEC3","name":"accessorPositions"},{"bufferView":1,"byteOffset":28488,"componentType":5126,"count":146,"type":"VEC3","name":"accessorNormals"},{"bufferView":2,"byteOffset":17824,"componentType":5126,"count":146,"type":"VEC4","name":"accessorTangents"},{"bufferView":3,"byteOffset":8912,"componentType":5126,"count":146,"type":"VEC2","name":"accessorUVs"},{"bufferView":0,"byteOffset":12144,"componentType":5123,"count":324,"type":"SCALAR","name":"accessorIndices"},{"bufferView":1,"byteOffset":30240,"componentType":5126,"count":56,"max":[0.06013632,36.5189743,11.1874228],"min":[-0.06013921,11.0861759,-11.2362528],"type":"VEC3","name":"accessorPositions"},{"bufferView":1,"byteOffset":30912,"componentType":5126,"count":56,"type":"VEC3","name":"accessorNormals"},{"bufferView":2,"byteOffset":20160,"componentType":5126,"count":56,"type":"VEC4","name":"accessorTangents"},{"bufferView":3,"byteOffset":10080,"componentType":5126,"count":56,"type":"VEC2","name":"accessorUVs"},{"bufferView":0,"byteOffset":12792,"componentType":5123,"count":36,"type":"SCALAR","name":"accessorIndices"},{"bufferView":1,"byteOffset":31584,"componentType":5126,"count":24,"max":[51.698246,-0.4639399,0.135849953],"min":[-51.698246,-3.40343261,-0.135849953],"type":"VEC3","name":"accessorPositions"},{"bufferView":1,"byteOffset":31872,"componentType":5126,"count":24,"type":"VEC3","name":"accessorNormals"},{"bufferView":2,"byteOffset":21056,"componentType":5126,"count":24,"type":"VEC4","name":"accessorTangents"},{"bufferView":3,"byteOffset":10528,"componentType":5126,"count":24,"type":"VEC2","name":"accessorUVs"},{"bufferView":0,"byteOffset":12864,"componentType":5123,"count":3636,"type":"SCALAR","name":"accessorIndices"},{"bufferView":1,"byteOffset":32160,"componentType":5126,"count":2424,"max":[50.909008,-0.6538973,0.177777857],"min":[-50.909008,-1.98759818,-0.177777857],"type":"VEC3","name":"accessorPositions"},{"bufferView":1,"byteOffset":61248,"componentType":5126,"count":2424,"type":"VEC3","name":"accessorNormals"},{"bufferView":2,"byteOffset":21440,"componentType":5126,"count":2424,"type":"VEC4","name":"accessorTangents"},{"bufferView":3,"byteOffset":10720,"componentType":5126,"count":2424,"type":"VEC2","name":"accessorUVs"},{"bufferView":0,"byteOffset":20136,"componentType":5123,"count":678,"type":"SCALAR","name":"accessorIndices"},{"bufferView":1,"byteOffset":90336,"componentType":5126,"count":428,"max":[2.0478096,9.644319,2.88566256],"min":[-2.0478096,0.110508919,-2.94278717],"type":"VEC3","name":"accessorPositions"},{"bufferView":1,"byteOffset":95472,"componentType":5126,"count":428,"type":"VEC3","name":"accessorNormals"},{"bufferView":2,"byteOffset":60224,"componentType":5126,"count":428,"type":"VEC4","name":"accessorTangents"},{"bufferView":3,"byteOffset":30112,"componentType":5126,"count":428,"type":"VEC2","name":"accessorUVs"},{"bufferView":0,"byteOffset":21492,"componentType":5123,"count":180,"type":"SCALAR","name":"accessorIndices"},{"bufferView":1,"byteOffset":100608,"componentType":5126,"count":102,"max":[0.544963837,24.6715927,0.512902439],"min":[-0.5336342,9.611757,-0.512902558],"type":"VEC3","name":"accessorPositions"},{"bufferView":1,"byteOffset":101832,"componentType":5126,"count":102,"type":"VEC3","name":"accessorNormals"},{"bufferView":2,"byteOffset":67072,"componentType":5126,"count":102,"type":"VEC4","name":"accessorTangents"},{"bufferView":3,"byteOffset":33536,"componentType":5126,"count":102,"type":"VEC2","name":"accessorUVs"},{"bufferView":0,"byteOffset":21852,"componentType":5123,"count":660,"type":"SCALAR","name":"accessorIndices"},{"bufferView":1,"byteOffset":103056,"componentType":5126,"count":404,"max":[2.0478096,24.6715927,2.88566256],"min":[-2.0478096,0.110508919,-2.94278717],"type":"VEC3","name":"accessorPositions"},{"bufferView":1,"byteOffset":107904,"componentType":5126,"count":404,"type":"VEC3","name":"accessorNormals"},{"bufferView":2,"byteOffset":68704,"componentType":5126,"count":404,"type":"VEC4","name":"accessorTangents"},{"bufferView":3,"byteOffset":34352,"componentType":5126,"count":404,"type":"VEC2","name":"accessorUVs"},{"bufferView":0,"byteOffset":23172,"componentType":5123,"count":60,"type":"SCALAR","name":"accessorIndices"},{"bufferView":1,"byteOffset":112752,"componentType":5126,"count":41,"max":[1.51165009,8.992523,1.50598383],"min":[-1.50032043,8.992522,-1.50598431],"type":"VEC3","name":"accessorPositions"},{"bufferView":1,"byteOffset":113244,"componentType":5126,"count":41,"type":"VEC3","name":"accessorNormals"},{"bufferView":2,"byteOffset":75168,"componentType":5126,"count":41,"type":"VEC4","name":"accessorTangents"},{"bufferView":3,"byteOffset":37584,"componentType":5126,"count":41,"type":"VEC2","name":"accessorUVs"},{"bufferView":0,"byteOffset":23292,"componentType":5123,"count":678,"type":"SCALAR","name":"accessorIndices"},{"bufferView":1,"byteOffset":113736,"componentType":5126,"count":428,"max":[2.04478836,9.644319,2.88566256],"min":[-2.05083084,0.110508919,-2.94278717],"type":"VEC3","name":"accessorPositions"},{"bufferView":1,"byteOffset":118872,"componentType":5126,"count":428,"type":"VEC3","name":"accessorNormals"},{"bufferView":2,"byteOffset":75824,"componentType":5126,"count":428,"type":"VEC4","name":"accessorTangents"},{"bufferView":3,"byteOffset":37912,"componentType":5126,"count":428,"type":"VEC2","name":"accessorUVs"},{"bufferView":0,"byteOffset":24648,"componentType":5123,"count":180,"type":"SCALAR","name":"accessorIndices"},{"bufferView":1,"byteOffset":124008,"componentType":5126,"count":100,"max":[0.5419426,16.6850586,0.512902439],"min":[-0.5366554,9.611757,-0.512902558],"type":"VEC3","name":"accessorPositions"},{"bufferView":1,"byteOffset":125208,"componentType":5126,"count":100,"type":"VEC3","name":"accessorNormals"},{"bufferView":2,"byteOffset":82672,"componentType":5126,"count":100,"type":"VEC4","name":"accessorTangents"},{"bufferView":3,"byteOffset":41336,"componentType":5126,"count":100,"type":"VEC2","name":"accessorUVs"},{"bufferView":0,"byteOffset":25008,"componentType":5123,"count":660,"type":"SCALAR","name":"accessorIndices"},{"bufferView":1,"byteOffset":126408,"componentType":5126,"count":402,"max":[2.04478836,16.6850586,2.88566256],"min":[-2.05083084,0.110508919,-2.94278717],"type":"VEC3","name":"accessorPositions"},{"bufferView":1,"byteOffset":131232,"componentType":5126,"count":402,"type":"VEC3","name":"accessorNormals"},{"bufferView":2,"byteOffset":84272,"componentType":5126,"count":402,"type":"VEC4","name":"accessorTangents"},{"bufferView":3,"byteOffset":42136,"componentType":5126,"count":402,"type":"VEC2","name":"accessorUVs"},{"bufferView":0,"byteOffset":26328,"componentType":5123,"count":84,"type":"SCALAR","name":"accessorIndices"},{"bufferView":1,"byteOffset":136056,"componentType":5126,"count":51,"max":[1.50862885,16.6850586,1.50598383],"min":[-1.50334167,8.992522,-1.50598431],"type":"VEC3","name":"accessorPositions"},{"bufferView":1,"byteOffset":136668,"componentType":5126,"count":51,"type":"VEC3","name":"accessorNormals"},{"bufferView":2,"byteOffset":90704,"componentType":5126,"count":51,"type":"VEC4","name":"accessorTangents"},{"bufferView":3,"byteOffset":45352,"componentType":5126,"count":51,"type":"VEC2","name":"accessorUVs"},{"bufferView":0,"byteOffset":26496,"componentType":5123,"count":678,"type":"SCALAR","name":"accessorIndices"},{"bufferView":1,"byteOffset":137280,"componentType":5126,"count":428,"max":[2.04478836,9.616272,2.88566256],"min":[-2.05083084,0.08246231,-2.94278717],"type":"VEC3","name":"accessorPositions"},{"bufferView":1,"byteOffset":142416,"componentType":5126,"count":428,"type":"VEC3","name":"accessorNormals"},{"bufferView":2,"byteOffset":91520,"componentType":5126,"count":428,"type":"VEC4","name":"accessorTangents"},{"bufferView":3,"byteOffset":45760,"componentType":5126,"count":428,"type":"VEC2","name":"accessorUVs"},{"bufferView":0,"byteOffset":27852,"componentType":5123,"count":288,"type":"SCALAR","name":"accessorIndices"},{"bufferView":1,"byteOffset":147552,"componentType":5126,"count":160,"max":[0.664154053,14.2171249,11.4171715],"min":[-0.654735565,9.583711,-11.4666424],"type":"VEC3","name":"accessorPositions"},{"bufferView":1,"byteOffset":149472,"componentType":5126,"count":160,"type":"VEC3","name":"accessorNormals"},{"bufferView":2,"byteOffset":98368,"componentType":5126,"count":160,"type":"VEC4","name":"accessorTangents"},{"bufferView":3,"byteOffset":49184,"componentType":5126,"count":160,"type":"VEC2","name":"accessorUVs"},{"bufferView":0,"byteOffset":28428,"componentType":5123,"count":660,"type":"SCALAR","name":"accessorIndices"},{"bufferView":1,"byteOffset":151392,"componentType":5126,"count":462,"max":[2.04478836,14.2171249,11.4171715],"min":[-2.05083084,0.08246231,-11.4666424],"type":"VEC3","name":"accessorPositions"},{"bufferView":1,"byteOffset":156936,"componentType":5126,"count":462,"type":"VEC3","name":"accessorNormals"},{"bufferView":2,"byteOffset":100928,"componentType":5126,"count":462,"type":"VEC4","name":"accessorTangents"},{"bufferView":3,"byteOffset":50464,"componentType":5126,"count":462,"type":"VEC2","name":"accessorUVs"},{"bufferView":0,"byteOffset":29748,"componentType":5123,"count":60,"type":"SCALAR","name":"accessorIndices"},{"bufferView":1,"byteOffset":162480,"componentType":5126,"count":41,"max":[1.50862885,8.964477,1.50598383],"min":[-1.50334167,8.964476,-1.50598431],"type":"VEC3","name":"accessorPositions"},{"bufferView":1,"byteOffset":162972,"componentType":5126,"count":41,"type":"VEC3","name":"accessorNormals"},{"bufferView":2,"byteOffset":108320,"componentType":5126,"count":41,"type":"VEC4","name":"accessorTangents"},{"bufferView":3,"byteOffset":54160,"componentType":5126,"count":41,"type":"VEC2","name":"accessorUVs"},{"bufferView":0,"byteOffset":29868,"componentType":5123,"count":264,"type":"SCALAR","name":"accessorIndices"},{"bufferView":1,"byteOffset":163464,"componentType":5126,"count":172,"max":[53.542244,4.15223551,12.9415112],"min":[51.8908272,-6.5179615,-12.9415112],"type":"VEC3","name":"accessorPositions"},{"bufferView":1,"byteOffset":165528,"componentType":5126,"count":172,"type":"VEC3","name":"accessorNormals"},{"bufferView":2,"byteOffset":108976,"componentType":5126,"count":172,"type":"VEC4","name":"accessorTangents"},{"bufferView":3,"byteOffset":54488,"componentType":5126,"count":172,"type":"VEC2","name":"accessorUVs"},{"bufferView":0,"byteOffset":30396,"componentType":5123,"count":264,"type":"SCALAR","name":"accessorIndices"},{"bufferView":1,"byteOffset":167592,"componentType":5126,"count":172,"max":[-51.89082,4.15223551,12.9415112],"min":[-53.542244,-6.5179615,-12.9415112],"type":"VEC3","name":"accessorPositions"},{"bufferView":1,"byteOffset":169656,"componentType":5126,"count":172,"type":"VEC3","name":"accessorNormals"},{"bufferView":2,"byteOffset":111728,"componentType":5126,"count":172,"type":"VEC4","name":"accessorTangents"},{"bufferView":3,"byteOffset":55864,"componentType":5126,"count":172,"type":"VEC2","name":"accessorUVs"},{"bufferView":0,"byteOffset":30924,"componentType":5123,"count":8640,"type":"SCALAR","name":"accessorIndices"},{"bufferView":1,"byteOffset":171720,"componentType":5126,"count":1556,"max":[1.894627,36.3396,8.019476],"min":[-1.894627,20.3006477,-8.019479],"type":"VEC3","name":"accessorPositions"},{"bufferView":1,"byteOffset":190392,"componentType":5126,"count":1556,"type":"VEC3","name":"accessorNormals"},{"bufferView":2,"byteOffset":114480,"componentType":5126,"count":1556,"type":"VEC4","name":"accessorTangents"},{"bufferView":3,"byteOffset":57240,"componentType":5126,"count":1556,"type":"VEC2","name":"accessorUVs"}],"bufferViews":[{"buffer":0,"byteLength":48204,"name":"bufferViewScalar"},{"buffer":0,"byteOffset":48204,"byteLength":209064,"byteStride":12,"name":"bufferViewFloatVec3"},{"buffer":0,"byteOffset":257268,"byteLength":139376,"byteStride":16,"name":"bufferViewFloatVec4"},{"buffer":0,"byteOffset":396644,"byteLength":69688,"byteStride":8,"name":"bufferViewFloatVec2"}],"buffers":[{"uri":"xkcx.bin","byteLength":466332}],"materials":[{"pbrMetallicRoughness":{"baseColorFactor":[1.0,0.902489,0.843424261,1.0],"metallicFactor":0.9372188,"roughnessFactor":0.276395082},"emissiveFactor":[0.8,0.24000001,0.0],"alphaMode":"OPAQUE","name":"_4_m"},{"pbrMetallicRoughness":{"baseColorFactor":[0.9999999,0.9999999,0.9999999,1.0],"metallicFactor":0.9999998,"roughnessFactor":0.609695137},"emissiveFactor":[0.0292668045,0.0292668045,0.0292668045],"alphaMode":"OPAQUE","name":"gray"},{"pbrMetallicRoughness":{"baseColorFactor":[0.756680548,0.756680548,0.756680548,1.0],"metallicFactor":0.6418481,"roughnessFactor":0.3},"emissiveFactor":[0.0,0.0,0.0],"alphaMode":"OPAQUE","name":"guangping_m"},{"pbrMetallicRoughness":{"baseColorFactor":[0.8448409,0.8448409,0.8448409,1.0],"metallicFactor":0.5715416,"roughnessFactor":0.3},"emissiveFactor":[0.0,0.0,0.0],"alphaMode":"OPAQUE","name":"kedu"},{"pbrMetallicRoughness":{"baseColorFactor":[0.9999999,0.9999999,0.9999999,1.0],"metallicFactor":0.9999998,"roughnessFactor":0.341429234},"emissiveFactor":[0.0,0.0,0.0],"alphaMode":"OPAQUE","name":"heibian"},{"pbrMetallicRoughness":{"baseColorFactor":[0.523571,0.523571,0.523571,1.0],"metallicFactor":0.951256156,"roughnessFactor":0.0},"emissiveFactor":[0.0,0.0,0.0],"alphaMode":"OPAQUE","name":"hei"},{"pbrMetallicRoughness":{"baseColorFactor":[0.5208334,0.5208334,0.5208334,1.0],"metallicFactor":0.0,"roughnessFactor":0.9},"emissiveFactor":[0.0,0.0,0.0],"alphaMode":"OPAQUE","name":"lambert1"},{"pbrMetallicRoughness":{"baseColorFactor":[1.0,1.0,1.0,0.5],"metallicFactor":1.0,"roughnessFactor":0.205748439},"emissiveFactor":[0.0,0.0,0.0],"alphaMode":"BLEND","name":"phong1"}],"extensions":{"KHR_lights":{"lights":[{"color":[1.0,1.0,1.0],"intensity":1.0,"type":"ambient"}]}}}