{"asset":{"version":"2.0","generator":"Babylon2Gltf2017","copyright":"2017 (c) BabylonJS"},"scene":0,
"scenes":[{"nodes":[0]}],"nodes":[{"mesh":0,"translation":[0.0,1.1920929E-07,0.0],"rotation":[0.0,0.0,0.0,-1.0],
"scale":[1.0,1.0,1.0],"name":"GeoSphere061"}],"meshes":[{"primitives":[{"attributes":{"POSITION":1,"NORMAL":2,
"TEXCOORD_0":3},"indices":0,"mode":4,"material":0},{"attributes":{"POSITION":5,"NORMAL":6,"TEXCOORD_0":7},"indices":4,
"mode":4,"material":1}],"name":"GeoSphere061"}],"accessors":[{"bufferView":0,"componentType":5125,"count":92880,
"type":"SCALAR","name":"accessorIndices"},{"bufferView":1,"componentType":5126,"count":92880,"max":[5.298583,3.39580822,
5.359986],"min":[-5.29858351,-3.39580822,-5.359986],"type":"VEC3","name":"accessorPositions"},{"bufferView":1,"byteOffset":1114560,"componentType":5126,"count":92880,"type":"VEC3","name":"accessorNormals"},{"bufferView":2,"componentType":5126,"count":92880,"type":"VEC2","name":"accessorUVs"},{"bufferView":0,"byteOffset":371520,"componentType":5125,"count":54000,"type":"SCALAR","name":"accessorIndices"},{"bufferView":1,"byteOffset":2229120,"componentType":5126,"count":54000,"max":[4.68360424,3.03913832,5.25309324],"min":[-4.44373226,-3.37782478,-4.73302],"type":"VEC3","name":"accessorPositions"},{"bufferView":1,"byteOffset":2877120,"componentType":5126,"count":54000,"type":"VEC3","name":"accessorNormals"},{"bufferView":2,"byteOffset":743040,"componentType":5126,"count":54000,"type":"VEC2","name":"accessorUVs"}],"bufferViews":[{"buffer":0,"byteLength":587520,"name":"bufferViewScalar"},{"buffer":0,"byteOffset":587520,"byteLength":3525120,"byteStride":12,"name":"bufferViewFloatVec3"},{"buffer":0,"byteOffset":4112640,"byteLength":1175040,"byteStride":8,"name":"bufferViewFloatVec2"}],"buffers":[{"uri":"zmx.bin","byteLength":5287680}],"materials":[{"pbrMetallicRoughness":{"baseColorFactor":[1.0,1.0,1.0,1.0],"baseColorTexture":{"index":0},"metallicFactor":0.0,"roughnessFactor":0.9},"emissiveFactor":[0.0,0.0,0.0],"alphaMode":"BLEND","name":"Material_56"},{"pbrMetallicRoughness":{"baseColorFactor":[1.0,1.0,1.0,1.0],"baseColorTexture":{"index":1},"metallicFactor":0.0,"roughnessFactor":0.9},"emissiveFactor":[0.0,0.0,0.0],"alphaMode":"BLEND","name":"Material_57"}],"textures":[{"sampler":0,"source":0,"name":"Material_56_baseColor.png"},{"sampler":1,"source":1,"name":"Material_57_baseColor.png"}],"images":[{"uri":"Material_56_baseColor.png"},{"uri":"Material_57_baseColor.png"}],"samplers":[{"magFilter":9729,"minFilter":9987,"wrapS":10497,"wrapT":10497},{"magFilter":9729,"minFilter":9987,"wrapS":10497,"wrapT":10497}]}