{"asset":{"version":"2.0","generator":"babylon.js glTF exporter for 3ds max 2018 v1.2.23","copyright":"2017 (c) BabylonJS"},"extensionsUsed":["KHR_lights"],"scene":0,"scenes":[{"nodes":[0,1],"extensions":{"KHR_lights":{"light":0}}}],"nodes":[{"mesh":0,"translation":[0.0,0.0,0.0],"rotation":[0.7071068,0.0,0.0,0.7071067],"scale":[1.0,1.0,1.0],"name":"Line004"},{"translation":[0.0,0.0,0.0],"rotation":[0.0,0.0,0.0,1.0],"scale":[1.0,1.0,1.0],"name":"Default light"}],"meshes":[{"primitives":[{"attributes":{"POSITION":1,"NORMAL":2},"indices":0}],"name":"Line004"}],"accessors":[{"bufferView":0,"componentType":5123,"count":1164,"type":"SCALAR","name":"accessorIndices"},{"bufferView":1,"componentType":5126,"count":1164,"max":[1.41721344,0.50000006,1.59707081],"min":[-1.41721153,-0.50000006,-1.59707022],"type":"VEC3","name":"accessorPositions"},{"bufferView":1,"byteOffset":13968,"componentType":5126,"count":1164,"type":"VEC3","name":"accessorNormals"}],"bufferViews":[{"buffer":0,"byteLength":2328,"name":"bufferViewScalar"},{"buffer":0,"byteOffset":2328,"byteLength":27936,"byteStride":12,"name":"bufferViewFloatVec3"}],"buffers":[{"uri":"fangkuai.bin","byteLength":30264}],"extensions":{"KHR_lights":{"lights":[{"color":[1.0,1.0,1.0],"intensity":1.0,"type":"ambient"}]}}}