{"asset":{"version":"2.0","generator":"Babylon2Gltf2017","copyright":"2017 (c) BabylonJS"},"scene":0,"scenes":[{"nodes":[0,1]}],"nodes":[{"mesh":0,"translation":[0.0,0.845836639,0.0],"rotation":[1.0,0.0,0.0,-1.94707184E-07],"scale":[1.59215212,1.59215212,1.59215212],"name":"对象003"},{"children":[2,3,4],"mesh":1,"translation":[-1.1920929E-07,72.48436,2.30371952E-05],"rotation":[-2.82129974E-07,-4.01339264E-07,-1.0,1.1322984E-13],"scale":[2.41235185,2.41235185,2.41235185],"name":"Cylinder001"},{"mesh":2,"translation":[-22.4142323,10.911974,-1.0271031E-05],"rotation":[5.33850653E-08,0.707107067,0.7071065,-5.33851079E-08],"scale":[0.414533317,0.414533317,0.414533317],"name":"Line005"},{"mesh":3,"translation":[-22.4143353,10.9118061,-1.11456793E-05],"rotation":[-7.54979155E-08,-1.94707169E-07,-1.0,1.46999722E-14],"scale":[0.414533317,0.414533317,0.414533317],"name":"Sphere001"},{"mesh":4,"translation":[-23.5701847,16.4526939,-1.22711735E-05],"rotation":[5.33850653E-08,0.707107067,0.7071065,-5.33851079E-08],"scale":[0.414533317,0.414533317,0.414533317],"name":"Circle006"}],"meshes":[{"primitives":[{"attributes":{"POSITION":1,"NORMAL":2,"TEXCOORD_0":3},"indices":0,"mode":4,"material":0},{"attributes":{"POSITION":5,"NORMAL":6,"TEXCOORD_0":7},"indices":4,"mode":4,"material":1}],"name":"对象003"},{"primitives":[{"attributes":{"POSITION":9,"NORMAL":10,"TEXCOORD_0":11},"indices":8,"mode":4,"material":2},{"attributes":{"POSITION":13,"NORMAL":14,"TEXCOORD_0":15},"indices":12,"mode":4,"material":3},{"attributes":{"POSITION":17,"NORMAL":18,"TEXCOORD_0":19},"indices":16,"mode":4,"material":4}],"name":"Cylinder001"},{"primitives":[{"attributes":{"POSITION":21,"NORMAL":22},"indices":20,"mode":4,"material":5}],"name":"Line005"},{"primitives":[{"attributes":{"POSITION":24,"NORMAL":25,"TEXCOORD_0":26},"indices":23,"mode":4,"material":0}],"name":"Sphere001"},{"primitives":[{"attributes":{"POSITION":28,"NORMAL":29},"indices":27,"mode":4,"material":0}],"name":"Circle006"}],"accessors":[{"bufferView":0,"componentType":5123,"count":318,"type":"SCALAR","name":"accessorIndices"},{"bufferView":1,"componentType":5126,"count":318,"max":[9.188607,24.8506031,8.69873],"min":[-8.5008,-13.9376316,-8.988611],"type":"VEC3","name":"accessorPositions"},{"bufferView":1,"byteOffset":3816,"componentType":5126,"count":318,"type":"VEC3","name":"accessorNormals"},{"bufferView":2,"componentType":5126,"count":318,"type":"VEC2","name":"accessorUVs"},{"bufferView":0,"byteOffset":636,"componentType":5123,"count":318,"type":"SCALAR","name":"accessorIndices"},{"bufferView":1,"byteOffset":7632,"componentType":5126,"count":318,"max":[9.188607,63.7091522,8.698726],"min":[-8.5008,24.8506,-8.988617],"type":"VEC3","name":"accessorPositions"},{"bufferView":1,"byteOffset":11448,"componentType":5126,"count":318,"type":"VEC3","name":"accessorNormals"},{"bufferView":2,"byteOffset":2544,"componentType":5126,"count":318,"type":"VEC2","name":"accessorUVs"},{"bufferView":0,"byteOffset":1272,"componentType":5123,"count":36,"type":"SCALAR","name":"accessorIndices"},{"bufferView":1,"byteOffset":15264,"componentType":5126,"count":36,"max":[8.008415,-11.1628132,7.19384336],"min":[-7.47361326,-11.6502361,-7.49031734],"type":"VEC3","name":"accessorPositions"},{"bufferView":1,"byteOffset":15696,"componentType":5126,"count":36,"type":"VEC3","name":"accessorNormals"},{"bufferView":2,"byteOffset":5088,"componentType":5126,"count":36,"type":"VEC2","name":"accessorUVs"},{"bufferView":0,"byteOffset":1344,"componentType":5123,"count":6624,"type":"SCALAR","name":"accessorIndices"},{"bufferView":1,"byteOffset":16128,"componentType":5126,"count":6624,"max":[23.0333843,11.4356861,23.1406841],"min":[-23.0333824,-11.2067547,-22.9260826],"type":"VEC3","name":"accessorPositions"},{"bufferView":1,"byteOffset":95616,"componentType":5126,"count":6624,"type":"VEC3","name":"accessorNormals"},{"bufferView":2,"byteOffset":5376,"componentType":5126,"count":6624,"type":"VEC2","name":"accessorUVs"},{"bufferView":0,"byteOffset":14592,"componentType":5123,"count":2988,"type":"SCALAR","name":"accessorIndices"},{"bufferView":1,"byteOffset":175104,"componentType":5126,"count":2988,"max":[20.59092,11.6502342,11.1898069],"min":[-20.4862041,-10.787569,-23.1406841],"type":"VEC3","name":"accessorPositions"},{"bufferView":1,"byteOffset":210960,"componentType":5126,"count":2988,"type":"VEC3","name":"accessorNormals"},{"bufferView":2,"byteOffset":58368,"componentType":5126,"count":2988,"type":"VEC2","name":"accessorUVs"},{"bufferView":0,"byteOffset":20568,"componentType":5123,"count":846,"type":"SCALAR","name":"accessorIndices"},{"bufferView":1,"byteOffset":246816,"componentType":5126,"count":846,"max":[53.34808,1.85000491,89.32699],"min":[-1.84999847,-1.85,-1.84999466],"type":"VEC3","name":"accessorPositions"},{"bufferView":1,"byteOffset":256968,"componentType":5126,"count":846,"type":"VEC3","name":"accessorNormals"},{"bufferView":0,"byteOffset":22260,"componentType":5123,"count":2880,"type":"SCALAR","name":"accessorIndices"},{"bufferView":1,"byteOffset":267120,"componentType":5126,"count":2880,"max":[1.92294693,1.92294312,1.92294574],"min":[-1.92294693,-1.92294693,-1.92294574],"type":"VEC3","name":"accessorPositions"},{"bufferView":1,"byteOffset":301680,"componentType":5126,"count":2880,"type":"VEC3","name":"accessorNormals"},{"bufferView":2,"byteOffset":82272,"componentType":5126,"count":2880,"type":"VEC2","name":"accessorUVs"},{"bufferView":0,"byteOffset":28020,"componentType":5123,"count":1248,"type":"SCALAR","name":"accessorIndices"},{"bufferView":1,"byteOffset":336240,"componentType":5126,"count":1248,"max":[5.193714,0.25,5.250675],"min":[-2.212532,-0.25,0.701660156],"type":"VEC3","name":"accessorPositions"},{"bufferView":1,"byteOffset":351216,"componentType":5126,"count":1248,"type":"VEC3","name":"accessorNormals"}],"bufferViews":[{"buffer":0,"byteLength":30516,"name":"bufferViewScalar"},{"buffer":0,"byteOffset":30516,"byteLength":366192,"byteStride":12,"name":"bufferViewFloatVec3"},{"buffer":0,"byteOffset":396708,"byteLength":105312,"byteStride":8,"name":"bufferViewFloatVec2"}],"buffers":[{"uri":"xianquan.bin","byteLength":502020}],"materials":[{"pbrMetallicRoughness":{"baseColorFactor":[1.0,1.0,1.0,1.0],"baseColorTexture":{"index":0},"metallicFactor":0.0,"roughnessFactor":0.9},"emissiveFactor":[0.0,0.0,0.0],"alphaMode":"OPAQUE","name":"04 - Default"},{"pbrMetallicRoughness":{"baseColorFactor":[1.0,1.0,1.0,1.0],"baseColorTexture":{"index":1},"metallicFactor":0.0,"roughnessFactor":0.9},"emissiveFactor":[0.0,0.0,0.0],"alphaMode":"OPAQUE","name":"05 - Default"},{"pbrMetallicRoughness":{"baseColorFactor":[1.0,1.0,1.0,1.0],"baseColorTexture":{"index":2},"metallicFactor":0.0,"roughnessFactor":0.9},"emissiveFactor":[0.0,0.0,0.0],"alphaMode":"OPAQUE","name":"01 - Default"},{"pbrMetallicRoughness":{"baseColorFactor":[1.0,1.0,1.0,1.0],"baseColorTexture":{"index":3},"metallicFactor":0.0,"roughnessFactor":0.9},"emissiveFactor":[0.0,0.0,0.0],"alphaMode":"OPAQUE","name":"02 - Default"},{"pbrMetallicRoughness":{"baseColorFactor":[1.0,1.0,1.0,1.0],"baseColorTexture":{"index":4},"metallicFactor":0.0,"roughnessFactor":0.9},"emissiveFactor":[0.0,0.0,0.0],"alphaMode":"OPAQUE","name":"03 - Default"},{"pbrMetallicRoughness":{"baseColorFactor":[1.0,1.0,1.0,1.0],"baseColorTexture":{"index":5},"metallicFactor":0.0,"roughnessFactor":0.9},"emissiveFactor":[0.0,0.0,0.0],"alphaMode":"BLEND","name":"Material #290"}],"textures":[{"sampler":0,"source":0,"name":"image04.jpg"},{"sampler":1,"source":1,"name":"image05.jpg"},{"sampler":2,"source":2,"name":"image01.jpg"},{"sampler":3,"source":3,"name":"image02.jpg"},{"sampler":4,"source":4,"name":"image03.jpg"},{"sampler":5,"source":5,"name":"image06.png"}],"images":[{"uri":"image04.jpg"},{"uri":"image05.jpg"},{"uri":"image01.jpg"},{"uri":"image02.jpg"},{"uri":"image03.jpg"},{"uri":"image06.png"}],"samplers":[{"magFilter":9729,"minFilter":9987,"wrapS":10497,"wrapT":10497},{"magFilter":9729,"minFilter":9987,"wrapS":10497,"wrapT":10497},{"magFilter":9729,"minFilter":9987,"wrapS":10497,"wrapT":10497},{"magFilter":9729,"minFilter":9987,"wrapS":10497,"wrapT":10497},{"magFilter":9729,"minFilter":9987,"wrapS":10497,"wrapT":10497},{"magFilter":9729,"minFilter":9987,"wrapS":10497,"wrapT":10497}]}