<?xml version="1.0" encoding="UTF-8" standalone="no"?>
<svg width="465px" height="502px" viewBox="0 0 465 502" version="1.1" xmlns="http://www.w3.org/2000/svg" xmlns:xlink="http://www.w3.org/1999/xlink">
    <!-- Generator: Sketch 44.1 (41455) - http://www.bohemiancoding.com/sketch -->
    <title>酵母菌</title>
    <desc>Created with Sketch.</desc>
    <defs>
        <radialGradient cx="50%" cy="51.4896674%" fx="50%" fy="51.4896674%" r="37.7839046%" gradientTransform="translate(0.500000,0.514897),scale(1.000000,0.924532),rotate(90.000000),translate(-0.500000,-0.514897)" id="radialGradient-1">
            <stop stop-color="#FFE4B1" offset="0%"></stop>
            <stop stop-color="#FAF0DD" offset="41.1272321%"></stop>
            <stop stop-color="#FDC895" offset="100%"></stop>
        </radialGradient>
        <linearGradient x1="50%" y1="51.3482541%" x2="50%" y2="100%" id="linearGradient-2">
            <stop stop-color="#FEB600" offset="0%"></stop>
            <stop stop-color="#EB9200" offset="100%"></stop>
        </linearGradient>
        <linearGradient x1="50%" y1="50.8659518%" x2="50%" y2="100%" id="linearGradient-3">
            <stop stop-color="#FEB600" offset="0%"></stop>
            <stop stop-color="#E99100" offset="100%"></stop>
        </linearGradient>
        <linearGradient x1="50%" y1="131.605622%" x2="50%" y2="19.3602088%" id="linearGradient-4">
            <stop stop-color="#FEB600" offset="0%"></stop>
            <stop stop-color="#E79000" offset="100%"></stop>
        </linearGradient>
        <linearGradient x1="50%" y1="22.6686638%" x2="50%" y2="100%" id="linearGradient-5">
            <stop stop-color="#FEB600" offset="0%"></stop>
            <stop stop-color="#E79000" offset="100%"></stop>
        </linearGradient>
        <linearGradient x1="50%" y1="0%" x2="50%" y2="100%" id="linearGradient-6">
            <stop stop-color="#FEB600" offset="0%"></stop>
            <stop stop-color="#EA9000" offset="100%"></stop>
        </linearGradient>
        <linearGradient x1="52.7221494%" y1="105.456307%" x2="47.6923179%" y2="9.99150231%" id="linearGradient-7">
            <stop stop-color="#DE6047" offset="0%"></stop>
            <stop stop-color="#DC5E45" offset="100%"></stop>
        </linearGradient>
        <linearGradient x1="50%" y1="0%" x2="50%" y2="100%" id="linearGradient-8">
            <stop stop-color="#FC7559" offset="0%"></stop>
            <stop stop-color="#D2523C" offset="100%"></stop>
        </linearGradient>
        <radialGradient cx="50%" cy="50%" fx="50%" fy="50%" r="100%" gradientTransform="translate(0.500000,0.500000),scale(0.825101,1.000000),rotate(90.000000),translate(-0.500000,-0.500000)" id="radialGradient-9">
            <stop stop-color="#A3437E" offset="0%"></stop>
            <stop stop-color="#782F48" offset="100%"></stop>
        </radialGradient>
        <linearGradient x1="100%" y1="40.677721%" x2="6.68612797%" y2="76.498146%" id="linearGradient-10">
            <stop stop-color="#E9644A" offset="0%"></stop>
            <stop stop-color="#B74731" offset="100%"></stop>
        </linearGradient>
        <linearGradient x1="82.9054606%" y1="47.2314137%" x2="11.0263424%" y2="60.9688789%" id="linearGradient-11">
            <stop stop-color="#F77156" offset="0%"></stop>
            <stop stop-color="#C04732" offset="100%"></stop>
        </linearGradient>
        <linearGradient x1="50%" y1="0%" x2="50%" y2="100%" id="linearGradient-12">
            <stop stop-color="#B6E3EA" offset="0%"></stop>
            <stop stop-color="#6EAFE0" offset="30.9390944%"></stop>
            <stop stop-color="#B7A5D0" offset="66.7809311%"></stop>
            <stop stop-color="#6CC8C0" offset="100%"></stop>
        </linearGradient>
        <path d="M4.26800733,3.08231028 C4.26800733,3.08231028 2.2544347,3.43909083 1.54443509,4.8466849 C0.834435481,6.25427896 1.04640555,7.32697255 1.04640555,7.32697255 C1.04640555,7.32697255 1.1741311,7.80063686 0.628544176,8.37407999 C0.082957247,8.94752312 0.0440531588,10.606346 0.0331828988,10.7962108 C0.0223126389,10.9860757 -0.0858893566,12.2763584 0.780084181,13.1355253 C1.64605772,13.9946922 1.93619354,14.4990741 1.93619354,14.4990741 C1.93619354,14.4990741 1.99462119,15.1395829 2.29341031,15.3965846 C2.59219942,15.6535863 1.80632254,16.9978208 2.94727074,17.7016891 C4.08821895,18.4055574 3.19185159,18.3805415 3.92580869,19.0325961 C4.65976578,19.6846506 4.12926848,19.8323233 5.09922464,19.8783641 C6.0691808,19.9244049 6.87229277,21.5085362 6.93944523,21.6082437 C7.00659769,21.7079513 6.98921958,22.6936948 7.3832665,23.1136923 C7.77731342,23.5336899 8.31853794,23.7446508 8.75156047,23.6391703 C9.184583,23.5336899 9.65221872,23.8002419 9.65221872,23.8002419 C9.65221872,23.8002419 10.5593848,24.4944174 11.4816406,24.3160984 C12.4038963,24.1377794 12.2718083,23.9498388 13.0122733,23.9268184 C13.7527382,23.903798 13.8025126,23.4090376 13.8025126,23.4090376 C13.8025126,23.4090376 14.4628809,23.0752775 14.5906064,22.8355945 C14.718332,22.5959115 14.8936149,22.5919916 15.151283,22.5805171 C15.4089511,22.5690425 15.8052149,22.5192244 16.0086747,22.1183986 C16.2121345,21.7175728 16.7598669,21.6562801 16.8681404,21.5162334 C16.9764139,21.3761867 17.6942802,21.8526306 18.0601502,20.9531958 C18.4260203,20.053761 18.6057372,20.5447441 18.6057372,19.6011928 C18.6057372,18.6576415 19.1155667,18.0973834 19.1155667,18.0973834 L19.4857991,16.9544171 C19.4857991,16.9544171 19.9859026,16.3062823 20.0552005,15.2092855 C20.1244984,14.1122886 21.2230383,14.5803226 21.5001584,14.5396983 C21.7772785,14.4990741 22.6064934,14.5895165 22.7948636,13.950932 C22.9832338,13.3123476 23.7603858,13.692006 23.8275383,12.838612 C23.8946908,11.985218 25.2651302,11.158693 25.2651302,11.158693 C25.2651302,11.158693 26.0705306,10.9400349 25.6678304,9.08749855 C25.2651302,7.23496222 24.6587556,7.88466488 23.7711131,6.89892141 C22.8834705,5.91317794 21.5549388,6.37059256 21.5549388,6.37059256 C21.5549388,6.37059256 20.8810542,5.9275746 20.4681274,5.9736154 C20.0552005,6.0196562 20.7797892,5.3523497 20.9314007,5.29091446 C21.0830122,5.22947921 21.3687856,4.98209901 21.2518588,4.52375788 C21.134932,4.06541674 21.2430625,2.26533556 21.2430625,2.26533556 C21.2430625,2.26533556 21.3166513,0.965146269 20.8338544,0.648704869 C20.3510575,0.33226347 19.7535508,0.0388424691 19.7535508,0.0388424691 C19.7535508,0.0388424691 19.0737305,0.0426910807 18.4501923,0.272823801 C17.8266542,0.502956522 17.1662859,0.591118236 16.925996,0.619911553 C16.685706,0.648704869 16.0600224,0.689044021 15.4733144,1.11281892 C14.8866065,1.53659382 14.7773317,0.417004196 13.2120858,1.43531832 C11.6468399,2.45363245 10.2157559,2.79694286 10.2157559,2.79694286 C10.2157559,2.79694286 9.06672649,2.38457125 8.00308586,2.46895562 C6.93944523,2.55334 6.08927648,2.72788166 6.08927648,2.72788166 L4.26800733,3.08231028 Z" id="path-13"></path>
        <filter x="-22.3%" y="-23.7%" width="144.7%" height="147.3%" filterUnits="objectBoundingBox" id="filter-14">
            <feGaussianBlur stdDeviation="4.5" in="SourceAlpha" result="shadowBlurInner1"></feGaussianBlur>
            <feOffset dx="0" dy="-2" in="shadowBlurInner1" result="shadowOffsetInner1"></feOffset>
            <feComposite in="shadowOffsetInner1" in2="SourceAlpha" operator="arithmetic" k2="-1" k3="1" result="shadowInnerInner1"></feComposite>
            <feColorMatrix values="0 0 0 0 0.983205782   0 0 0 0 0.974963712   0 0 0 0 0.870352814  0 0 0 1 0" type="matrix" in="shadowInnerInner1"></feColorMatrix>
        </filter>
        <linearGradient x1="41.0419169%" y1="43.1249315%" x2="74.3353896%" y2="124.999104%" id="linearGradient-15">
            <stop stop-color="#D8F3FA" stop-opacity="0" offset="0%"></stop>
            <stop stop-color="#396A95" offset="100%"></stop>
        </linearGradient>
        <path d="M4.26800733,3.08231028 C4.26800733,3.08231028 2.2544347,3.43909083 1.54443509,4.8466849 C0.834435481,6.25427896 1.04640555,7.32697255 1.04640555,7.32697255 C1.04640555,7.32697255 1.1741311,7.80063686 0.628544176,8.37407999 C0.082957247,8.94752312 0.0440531588,10.606346 0.0331828988,10.7962108 C0.0223126389,10.9860757 -0.0858893566,12.2763584 0.780084181,13.1355253 C1.64605772,13.9946922 1.93619354,14.4990741 1.93619354,14.4990741 C1.93619354,14.4990741 1.99462119,15.1395829 2.29341031,15.3965846 C2.59219942,15.6535863 1.80632254,16.9978208 2.94727074,17.7016891 C4.08821895,18.4055574 3.19185159,18.3805415 3.92580869,19.0325961 C4.65976578,19.6846506 4.12926848,19.8323233 5.09922464,19.8783641 C6.0691808,19.9244049 6.87229277,21.5085362 6.93944523,21.6082437 C7.00659769,21.7079513 6.98921958,22.6936948 7.3832665,23.1136923 C7.77731342,23.5336899 8.31853794,23.7446508 8.75156047,23.6391703 C9.184583,23.5336899 9.65221872,23.8002419 9.65221872,23.8002419 C9.65221872,23.8002419 10.5593848,24.4944174 11.4816406,24.3160984 C12.4038963,24.1377794 12.2718083,23.9498388 13.0122733,23.9268184 C13.7527382,23.903798 13.8025126,23.4090376 13.8025126,23.4090376 C13.8025126,23.4090376 14.4628809,23.0752775 14.5906064,22.8355945 C14.718332,22.5959115 14.8936149,22.5919916 15.151283,22.5805171 C15.4089511,22.5690425 15.8052149,22.5192244 16.0086747,22.1183986 C16.2121345,21.7175728 16.7598669,21.6562801 16.8681404,21.5162334 C16.9764139,21.3761867 17.6942802,21.8526306 18.0601502,20.9531958 C18.4260203,20.053761 18.6057372,20.5447441 18.6057372,19.6011928 C18.6057372,18.6576415 19.1155667,18.0973834 19.1155667,18.0973834 L19.4857991,16.9544171 C19.4857991,16.9544171 19.9859026,16.3062823 20.0552005,15.2092855 C20.1244984,14.1122886 21.2230383,14.5803226 21.5001584,14.5396983 C21.7772785,14.4990741 22.6064934,14.5895165 22.7948636,13.950932 C22.9832338,13.3123476 23.7603858,13.692006 23.8275383,12.838612 C23.8946908,11.985218 25.2651302,11.158693 25.2651302,11.158693 C25.2651302,11.158693 26.0705306,10.9400349 25.6678304,9.08749855 C25.2651302,7.23496222 24.6587556,7.88466488 23.7711131,6.89892141 C22.8834705,5.91317794 21.5549388,6.37059256 21.5549388,6.37059256 C21.5549388,6.37059256 20.8810542,5.9275746 20.4681274,5.9736154 C20.0552005,6.0196562 20.7797892,5.3523497 20.9314007,5.29091446 C21.0830122,5.22947921 21.3687856,4.98209901 21.2518588,4.52375788 C21.134932,4.06541674 21.2430625,2.26533556 21.2430625,2.26533556 C21.2430625,2.26533556 21.3166513,0.965146269 20.8338544,0.648704869 C20.3510575,0.33226347 19.7535508,0.0388424691 19.7535508,0.0388424691 C19.7535508,0.0388424691 19.0737305,0.0426910807 18.4501923,0.272823801 C17.8266542,0.502956522 17.1662859,0.591118236 16.925996,0.619911553 C16.685706,0.648704869 16.0600224,0.689044021 15.4733144,1.11281892 C14.8866065,1.53659382 14.7773317,0.417004196 13.2120858,1.43531832 C11.6468399,2.45363245 10.2157559,2.79694286 10.2157559,2.79694286 C10.2157559,2.79694286 9.06672649,2.38457125 8.00308586,2.46895562 C6.93944523,2.55334 6.08927648,2.72788166 6.08927648,2.72788166 L4.26800733,3.08231028 Z" id="path-16"></path>
        <filter x="-22.3%" y="-23.7%" width="144.7%" height="147.3%" filterUnits="objectBoundingBox" id="filter-17">
            <feGaussianBlur stdDeviation="4.5" in="SourceAlpha" result="shadowBlurInner1"></feGaussianBlur>
            <feOffset dx="0" dy="-2" in="shadowBlurInner1" result="shadowOffsetInner1"></feOffset>
            <feComposite in="shadowOffsetInner1" in2="SourceAlpha" operator="arithmetic" k2="-1" k3="1" result="shadowInnerInner1"></feComposite>
            <feColorMatrix values="0 0 0 0 0.983205782   0 0 0 0 0.974963712   0 0 0 0 0.870352814  0 0 0 1 0" type="matrix" in="shadowInnerInner1"></feColorMatrix>
        </filter>
        <radialGradient cx="50%" cy="50%" fx="50%" fy="50%" r="97.3014987%" gradientTransform="translate(0.500000,0.500000),scale(1.000000,0.736309),rotate(90.000000),translate(-0.500000,-0.500000)" id="radialGradient-18">
            <stop stop-color="#8FFAE6" offset="0%"></stop>
            <stop stop-color="#05AC8E" offset="100%"></stop>
        </radialGradient>
    </defs>
    <g id="草稿区域" stroke="none" stroke-width="1" fill="none" fill-rule="evenodd">
        <g id="02细胞的无氧呼吸" transform="translate(-117.000000, -105.000000)">
            <g id="酵母菌" transform="translate(117.000000, 111.000000)">
                <path d="M232.114537,488.884483 C353.898191,488.884483 458.228387,427.032363 458.228387,297.831728 C458.228387,168.631092 363.538033,0.763237379 241.754379,0.763237379 C119.970726,0.763237379 6.9444779,110.961288 6.9444779,240.161924 C6.9444779,369.362559 110.330884,488.884483 232.114537,488.884483 Z" id="Oval-12" stroke="#FFD877" stroke-width="13"></path>
                <path d="M232.114537,488.884483 C353.898191,488.884483 458.228387,427.032363 458.228387,297.831728 C458.228387,168.631092 363.538033,0.763237379 241.754379,0.763237379 C119.970726,0.763237379 6.9444779,110.961288 6.9444779,240.161924 C6.9444779,369.362559 110.330884,488.884483 232.114537,488.884483 Z" id="Oval-12" stroke="#FFECBD" stroke-width="2" fill="url(#radialGradient-1)"></path>
                <g id="Group-3" transform="translate(172.776907, 99.759925) rotate(-28.000000) translate(-172.776907, -99.759925) translate(108.276907, 32.759925)">
                    <path d="M44.9150823,13.949935 C43.0483831,14.4425513 42.5903753,15.8727865 43.6548284,17.3703451 C44.7192816,18.8679037 65.8315863,35.142806 65.8315863,35.142806 C65.8315863,35.142806 77.7812933,45.8903646 81.1221136,52.7092123 C84.4629339,59.52806 84.6894964,63.2140951 84.6894964,65.8019857 C84.6894964,68.3898764 84.4726995,73.1008139 83.9751409,79.5915365 C83.4775823,86.0822592 83.8564886,95.2922201 81.1221136,98.4323568 C78.3877386,101.572494 54.3418402,122.941634 58.4365667,126.081771 C62.5312933,129.221908 84.6894964,102.983626 84.6894964,102.983626 C84.6894964,102.983626 91.0015081,93.6423178 91.5483831,76.4435873 C92.0952581,59.2448568 87.3579534,59.3835287 89.4531683,57.2419271 C91.5483831,55.1003256 94.1416448,60.0344076 95.0727972,64.4225912 C96.0039495,68.8107748 96.9331488,84.2946615 94.5532659,91.7048178 C92.1733831,99.114974 89.5571722,106.393783 87.6352972,108.679915 C85.7134222,110.966048 74.3013128,119.480208 76.5928167,123.855208 C78.8843206,128.230208 90.0000433,119.046126 92.5869573,115.498763 C95.1738714,111.9514 97.9673284,103.79222 99.1352972,95.9616537 C100.303266,88.1310873 106.245649,66.333724 92.6758245,49.7790365 C79.1060003,33.224349 86.0684027,35.142806 86.0684027,35.142806 L100.317914,52.7092123 C100.317914,52.7092123 108.034223,62.7150717 107.162153,69.5793295 C106.290082,76.4435873 102.328168,83.6638021 102.31352,94.9763021 C102.298871,106.288802 93.3999456,110.072982 96.2676214,114.566146 C99.1352972,119.05931 108.196821,100.546615 108.314985,97.7614584 C108.433149,94.9763021 108.314985,78.8293295 110.428754,73.7443685 C112.542524,68.6594076 113.946821,68.1472006 112.749555,62.6945639 C111.552289,57.2419271 91.6709417,26.9567709 76.4009222,15.618392 C61.1309027,4.28001308 60.7021203,7.98540343 59.8599066,9.43040371 C59.0176928,10.875404 64.752973,14.6071615 72.7939886,21.8068685 C80.8350042,29.0065756 53.9473089,7.24534511 46.8223089,10.6130209 C39.6973089,13.9806967 58.8147876,14.6330404 68.5073675,26.9704428 C78.1999475,39.3078451 79.2920355,38.927474 80.4956488,39.9582357 C81.699262,40.9889975 84.5918402,43.0588217 83.9751409,44.5827475 C83.3584417,46.1066732 79.933637,42.4347982 79.933637,42.4347982 L65.8315863,30.2419271 C65.8315863,30.2419271 46.7817816,13.4573186 44.9150823,13.949935 Z" id="Path-103" stroke="#7ABFE5" fill="#5CA6D1" transform="translate(78.140525, 67.012965) rotate(16.000000) translate(-78.140525, -67.012965) "></path>
                    <g id="Group-11" transform="translate(0.430626, 23.270850)">
                        <path d="M39.9761895,80.6442775 C60.2504258,80.6442775 80.2018751,62.9227203 80.2018751,41.0620717 C80.2018751,28.0593065 75.4843864,14.418277 65.4977045,7.20247535 C55.5110227,-0.0133263417 47.4731061,-0.538285755 39.3039465,0.336506492 C19.5889509,2.44768147 0.413043428,21.8479483 0.413043428,43.7085969 C0.413043428,65.5692456 19.7019533,80.6442775 39.9761895,80.6442775 Z" id="Oval-2" fill="#57397E"></path>
                        <ellipse id="Oval-4" stroke="#6458A8" fill="#774884" cx="46.6005057" cy="7.72968782" rx="2.48411856" ry="2.67849513"></ellipse>
                        <ellipse id="Oval-4" stroke="#6458A8" fill="#774884" cx="30.5917416" cy="10.7057935" rx="2.48411856" ry="2.67849513"></ellipse>
                        <ellipse id="Oval-4" stroke="#6458A8" fill="#774884" cx="20.6552674" cy="16.0627838" rx="2.48411856" ry="2.67849513"></ellipse>
                        <ellipse id="Oval-4" stroke="#6458A8" fill="#774884" cx="15.6870302" cy="26.1815432" rx="2.48411856" ry="2.67849513"></ellipse>
                        <ellipse id="Oval-4" stroke="#6458A8" fill="#774884" cx="6.85460869" cy="31.5385334" rx="2.48411856" ry="2.67849513"></ellipse>
                        <ellipse id="Oval-4" stroke="#6458A8" fill="#774884" cx="11.8228458" cy="44.6333985" rx="2.48411856" ry="2.67849513"></ellipse>
                        <ellipse id="Oval-4" stroke="#6458A8" fill="#774884" cx="4.6465033" cy="49.9903888" rx="2.48411856" ry="2.67849513"></ellipse>
                        <ellipse id="Oval-4" stroke="#6458A8" fill="#774884" cx="11.8228458" cy="59.513927" rx="2.48411856" ry="2.67849513"></ellipse>
                        <ellipse id="Oval-4" stroke="#6458A8" fill="#774884" cx="23.4153991" cy="67.2518018" rx="2.48411856" ry="2.67849513"></ellipse>
                        <ellipse id="Oval-4" stroke="#6458A8" fill="#774884" cx="37.7680841" cy="75.5848978" rx="2.48411856" ry="2.67849513"></ellipse>
                        <ellipse id="Oval-4" stroke="#6458A8" fill="#774884" cx="26.1755309" cy="55.347379" rx="2.48411856" ry="2.67849513"></ellipse>
                        <ellipse id="Oval-4" stroke="#6458A8" fill="#774884" cx="41.6322686" cy="61.8948116" rx="2.48411856" ry="2.67849513"></ellipse>
                        <ellipse id="Oval-4" stroke="#6458A8" fill="#774884" cx="55.4329273" cy="64.8709173" rx="2.48411856" ry="2.67849513"></ellipse>
                        <ellipse id="Oval-4" stroke="#6458A8" fill="#774884" cx="69.233586" cy="62.4900327" rx="2.48411856" ry="2.67849513"></ellipse>
                        <ellipse id="Oval-4" stroke="#6458A8" fill="#774884" cx="67.0254806" cy="49.9903888" rx="2.48411856" ry="2.67849513"></ellipse>
                        <ellipse id="Oval-4" stroke="#6458A8" fill="#774884" cx="75.8579021" cy="44.6333985" rx="2.48411856" ry="2.67849513"></ellipse>
                        <ellipse id="Oval-4" stroke="#6458A8" fill="#774884" cx="51.5687428" cy="49.9903888" rx="2.48411856" ry="2.67849513"></ellipse>
                        <ellipse id="Oval-4" stroke="#6458A8" fill="#774884" cx="40.5282159" cy="47.6095042" rx="2.48411856" ry="2.67849513"></ellipse>
                        <ellipse id="Oval-4" stroke="#6458A8" fill="#774884" cx="25.6235045" cy="42.8477351" rx="2.48411856" ry="2.67849513"></ellipse>
                        <ellipse id="Oval-4" stroke="#6458A8" fill="#774884" cx="28.9356626" cy="31.5385334" rx="2.48411856" ry="2.67849513"></ellipse>
                        <ellipse id="Oval-4" stroke="#6458A8" fill="#774884" cx="41.6322686" cy="19.0388895" rx="2.48411856" ry="2.67849513"></ellipse>
                        <ellipse id="Oval-4" stroke="#6458A8" fill="#774884" cx="42.7363213" cy="31.5385334" rx="2.48411856" ry="2.67849513"></ellipse>
                        <ellipse id="Oval-4" stroke="#6458A8" fill="#774884" cx="56.53698" cy="39.2764082" rx="2.48411856" ry="2.67849513"></ellipse>
                        <ellipse id="Oval-4" stroke="#6458A8" fill="#774884" cx="58.193059" cy="22.0149952" rx="2.48411856" ry="2.67849513"></ellipse>
                        <ellipse id="Oval-4" stroke="#6458A8" fill="#774884" cx="60.4011644" cy="8.32490896" rx="2.48411856" ry="2.67849513"></ellipse>
                        <ellipse id="Oval-4" stroke="#6458A8" fill="#774884" cx="69.7856123" cy="29.1576489" rx="2.48411856" ry="2.67849513"></ellipse>
                    </g>
                </g>
                <g id="Group-13" transform="translate(316.303997, 148.118008) rotate(-7.000000) translate(-316.303997, -148.118008) translate(232.303997, 26.618008)" stroke="#C47C69" stroke-linecap="round" stroke-linejoin="round">
                    <path d="M0.448252753,5.56634919 C0.448252753,5.56634919 7.14457049,5.43874488 12.311045,3.05316665 C17.4775194,0.667588427 19.9356797,-0.883893302 23.4378351,1.08463667 C26.9399905,3.05316665 29.8283288,3.7230893 32.105019,4.05766159 C34.3817092,4.39223388 36.5044028,7.01045656 40.269003,9.81541725 C44.0336031,12.620378 49.8124487,9.20851868 56.7068652,12.5161159 C63.6012818,15.8237131 66.0522121,23.2566644 70.2983225,26.5642616 C74.5444328,29.8718588 80.6074128,32.8246538 84.2187394,35.5253524 C87.8300661,38.2260511 93.3674335,46.9778397 103.414079,47.33342 C113.460725,47.6890003 115.276871,48.296677 119.829529,52.7348173 C124.382186,57.1729576 125.366896,55.1841976 130.313582,60.2090066 C135.260268,65.2338155 139.11235,65.5473798 141.169975,66.1340484" id="Path-51"></path>
                    <path d="M24.1159981,7.00967848 C24.1159981,7.00967848 29.259337,3.76432728 33.2430026,10.5685939 C37.2266682,17.3728606 35.8696191,16.4516197 42.3483174,16.2843335 C48.8270156,16.1170474 50.1833417,16.1170474 53.007334,19.4876687 C55.8313264,22.85829 56.5311791,26.4389915 61.8061018,28.6160456 C67.0810245,30.7930997 66.7318211,33.4945765 70.07998,36.2162831 C73.4281389,38.9379898 77.9807963,38.4765913 81.4829517,42.8314775 C84.985107,47.1863638 84.2404291,48.0033426 90.3034091,48.4849711 C96.366389,48.9665996 92.5793763,53.9065984 99.6711686,55.6238101 C106.762961,57.3410218 101.094733,61.5480738 106.500516,65.1497834 C111.9063,68.751493 114.051406,74.3832005 114.051406,74.3832005" id="Path-52"></path>
                    <path d="M94.5719321,28.4487595 C94.5719321,28.4487595 105.602565,33.4735684 109.826985,42.3296191 C114.051406,51.1856698 115.803207,55.7070641 119.939423,59.7273781 C124.075639,63.7476921 130.226101,66.0920323 133.115162,78.6960707 C136.004223,91.3001091 132.481101,96.2401078 136.989656,104.991896 C141.498211,113.743685 141.673175,112.9695 140.863428,118.538184 C140.053681,124.106867 139.053788,125.685582 142.096123,137.640705 C145.138458,149.595829 137.433571,152.589862 143.321588,169.632041 C149.209605,186.674219 160.897434,191.321662 160.897434,191.321662" id="Path-54"></path>
                    <path d="M137.471889,123.446281 C137.471889,123.446281 134.999269,126.711863 132.810061,134.77272 C130.620852,142.833578 138.040881,150.496062 136.924587,157.133042 C135.808293,163.770023 131.119066,165.550259 133.028403,174.259253 C134.93774,182.968248 134.866963,195.341976 130.445889,202.921205" id="Path-55" transform="translate(133.958889, 163.183743) rotate(-10.000000) translate(-133.958889, -163.183743) "></path>
                    <path d="M134.487394,56.1077728 C134.487394,56.1077728 143.965048,61.6134321 142.629688,71.2864616 C141.294329,80.9594911 142.191557,78.5513487 143.636088,82.6759248 C145.080618,86.8005008 144.337386,92.3271682 143.986737,99.0481808 C143.636088,105.769193 146.525149,105.434621 146.087741,114.415942 C145.650333,123.397263 145.366199,123.941915 147.248137,128.233777 C149.130076,132.52564 148.386121,140.482235 147.817129,146.532547 C147.248137,152.582859 146.021949,153.169528 148.167056,157.6917 C150.312162,162.213873 151.362664,164.684261 150.815362,168.745813 C150.26806,172.807365 146.854109,174.880157 150.290472,184.657449 C153.726836,194.43474 147.838096,200.548076 149.064284,204.630636 C150.290472,208.713196 153.222913,214.86777 151.143598,219.851341" id="Path-56"></path>
                    <path d="M157.935351,94.2622409 C157.935351,94.2622409 158.61496,104.939765 156.994743,111.492714 C155.374526,118.045662 155.225826,120.139462 156.119204,127.174039 C157.012582,134.208616 156.842192,133.518463 156.031722,145.682111 C155.221253,157.845759 175.030409,187.659262 165.158727,215.253695 C155.287044,242.848128 151.325069,228.967269 149.224064,242.638826" id="Path-57"></path>
                </g>
                <g id="Group-8" transform="translate(386.877561, 368.714749) rotate(-51.000000) translate(-386.877561, -368.714749) translate(326.877561, 339.214749)" stroke="#FFD948">
                    <path d="M62.2184004,23.3229818 C77.3380801,23.3229818 97.680037,9.96250521 88.9850632,5.21759391 C80.2900895,0.472682605 81.6787287,16.9998258 63.31792,17.9176521 C49.3494988,18.6159103 46.7702431,14.8882321 42.8168378,12.5947308 C38.8634325,10.3012295 36.8055068,12.104562 35.4402796,13.5347526 C31.0927927,18.0891117 47.0987206,23.3229818 62.2184004,23.3229818 Z" id="Oval-9" fill="url(#linearGradient-2)"></path>
                    <path d="M58.7852941,32.2879139 C86.2167131,32.2879139 114.526119,17.7486153 105.588621,12.6280241 C96.6511229,7.50743286 86.4582992,27.4369269 59.0268802,27.4369269 C37.8094007,27.4369269 23.5772127,19.1752947 18.2932383,18.0474329 C13.0092639,16.9195711 12.1496549,18.1459734 10.8819247,19.2307835 C9.3394521,20.5506936 8.7194481,23.1462396 12.0032654,24.9046189 C15.2870827,26.6629982 38.9144989,32.2879139 58.7852941,32.2879139 Z" id="Oval-10" fill="url(#linearGradient-3)"></path>
                    <path d="M57.9890604,58.2897414 C68.3481683,58.2897414 79.0708324,57.7243075 88.0512492,56.645804 C94.1344236,55.915245 106.712635,55.7021324 109.025209,54.456256 C111.337784,53.2103796 110.564366,50.5975802 109.025209,49.0697294 C101.359532,41.4603615 86.9297295,51.6724987 59.4983105,51.6724987 C38.280831,51.6724987 23.5772127,47.6164008 18.2932383,46.488539 C13.0092639,45.3606772 12.4491238,46.159229 11.2661443,48.1962942 C9.86981536,50.6007424 11.3467311,54.1685361 14.6305484,55.9269154 C17.9143657,57.6852947 38.1182652,58.2897414 57.9890604,58.2897414 Z" id="Oval-10" fill="url(#linearGradient-4)" transform="translate(60.612328, 52.132130) scale(1, -1) translate(-60.612328, -52.132130) "></path>
                    <path d="M55.1043331,42.5202337 C67.8762601,42.5202337 87.0347018,39.0217813 94.6427083,37.7163553 C102.250715,36.4109292 106.259182,37.3518865 109.401791,35.9345648 C122.571051,29.9952051 120.478468,27.0423774 118.61695,25.2502938 C115.267394,22.025674 102.893483,28.0125124 86.9475579,32.4833905 C71.0016326,36.9542687 65.6659786,36.1310988 55.1697092,36.1310988 C45.5883911,36.1310988 35.9635795,33.338457 28.0585124,31.9259025 C20.1534453,30.5133479 11.0138568,30.6137508 8.1160018,29.9952051 C2.83202736,28.8673433 1.1668211,30.0946739 0.427026482,31.9739294 C-0.104409431,33.3239038 -0.819783895,36.8687891 5.43372117,38.301266 C9.00627606,39.1196235 14.5292635,38.4295556 23.2700686,38.4295556 C32.0108738,38.4295556 44.8491999,42.5202337 55.1043331,42.5202337 Z" id="Oval-10" fill="url(#linearGradient-5)"></path>
                    <path d="M26.86103,11.5663378 C30.9649431,11.5663378 33.7174022,10.7722371 33.7174022,7.75035062 C33.7174022,4.72846417 31.5292418,0.716422419 27.4253287,0.716422419 C23.3214156,0.716422419 20.3281509,0.979474568 20.3281509,4.00136101 C20.3281509,7.02324746 22.757117,11.5663378 26.86103,11.5663378 Z" id="Oval-7" fill="url(#linearGradient-6)"></path>
                </g>
                <g id="Group-4" transform="translate(217.343612, 414.012959)">
                    <path d="M47.4155445,58.8532005 C77.9046977,57.8252357 99.2782773,20.7184514 81.7920664,5.00067007 C75.543501,-0.615960315 65.7105731,-0.723002805 61.5201983,2.24760713 C57.3298234,5.21821707 55.1885615,10.9016312 44.2610502,12.4706384 C33.7136504,13.985068 28.7534947,9.80450036 22.6855059,7.90039022 C16.6175171,5.99628009 7.64139101,6.00100476 2.31211709,15.5729502 C-7.43723152,33.083822 16.9263913,59.8811653 47.4155445,58.8532005 Z" id="Oval-5" stroke="#FF987F" stroke-width="2" fill="url(#linearGradient-7)"></path>
                    <path d="M4.48976967,24.4017147 C4.48976967,24.4017147 5.77188869,13.3151111 13.05852,13.7189301 C20.3451513,14.122749 21.0369711,22.0333711 21.0369711,22.0333711 C21.0369711,22.0333711 22.8287106,16.6745846 26.1459498,16.1786786 C29.463189,15.6827725 31.5393209,19.4276476 31.5393209,19.4276476 C31.5393209,19.4276476 33.3108907,15.8485293 36.7706623,16.0136039 C40.2304339,16.1786786 42.7133209,21.1159109 42.7133209,21.1159109 C42.7133209,21.1159109 44.4445514,14.7284774 48.6774938,15.3710407 C52.9104363,16.0136039 54.0298533,18.7666669 54.0298533,18.7666669 C54.0298533,18.7666669 55.5358557,8.87310275 61.9067837,8.76328037 C68.2777118,8.65345799 67.5858919,12.8014698 67.5858919,12.8014698 C67.5858919,12.8014698 69.3359474,4.06411025 76.1748119,5.09207503 C83.0136764,6.12003981 82.0367918,18.7666669 82.0367918,18.7666669 C82.0367918,18.7666669 82.6472606,25.6493242 80.0009992,30.80241 C77.3547379,35.9554957 75.4218107,35.2304744 75.4218107,35.2304744 C75.4218107,35.2304744 74.6889791,44.6465499 70.6389084,46.7024795 C66.5888376,48.758409 63.2299144,46.7024795 63.2299144,46.7024795 C63.2299144,46.7024795 63.2299144,53.1083303 58.5687025,53.8422985 C53.9074906,54.5762667 50.5089003,49.5476295 50.5089003,49.5476295 C50.5089003,49.5476295 49.6133668,56.714285 44.5864114,56.5953615 C39.5594561,56.476438 37.6251842,50.024436 37.6251842,50.024436 C37.6251842,50.024436 35.569222,53.8422985 30.6236177,53.1083303 C25.6780133,52.3743621 25.2907556,48.3723254 25.2907556,48.3723254 C25.2907556,48.3723254 22.3648081,49.7393071 18.0505146,46.7024795 C13.7362211,43.6656519 12.6309229,34.2945967 12.6309229,34.2945967 C12.6309229,34.2945967 8.98760722,37.1213293 5.79205836,34.2945967 C2.59650951,31.4678641 4.48976967,27.0995254 4.48976967,24.4017147 Z" id="Path-30" stroke="#FF967F" fill="url(#linearGradient-8)"></path>
                    <path d="M12.7025252,34.2666295 C12.7025252,34.2666295 11.9700298,24.7499403 14.2391183,21.978801" id="Path-31" stroke="#FF967F" stroke-linecap="round" stroke-linejoin="round"></path>
                    <path d="M25.3519369,48.262503 C25.3519369,48.262503 26.3900029,41.3982631 26.898951,39.9296445" id="Path-32" stroke="#FF967F" stroke-linecap="round" stroke-linejoin="round"></path>
                    <path d="M37.6356052,49.6479021 C37.6356052,49.6479021 36.9696218,46.8198889 36.3475147,43.1224775" id="Path-33" stroke="#FF967F" stroke-linecap="round" stroke-linejoin="round"></path>
                    <path d="M50.6517689,49.776483 C50.6517689,49.776483 49.09467,39.6080218 49.6137029,34.7257007" id="Path-34" stroke="#FF967F" stroke-linecap="round" stroke-linejoin="round"></path>
                    <path d="M63.4144669,46.8368584 C63.4144669,46.8368584 62.2647955,45.827311 60.575249,39.8529053" id="Path-35" stroke="#FF967F" stroke-linecap="round" stroke-linejoin="round"></path>
                    <path d="M42.8575341,20.8181626 C42.8575341,20.8181626 42.9082944,24.2318652 43.284795,25.6636489" id="Path-36" stroke="#FF967F" stroke-linecap="round" stroke-linejoin="round"></path>
                    <path d="M54.0822944,18.6442252 C54.0822944,18.6442252 54.306514,21.7458548 54.7236901,22.8563569" id="Path-37" stroke="#FF967F" stroke-linecap="round" stroke-linejoin="round"></path>
                    <path d="M67.6786724,12.155837 C67.6786724,12.155837 66.5592554,23.9484416 67.1189639,28.2618691" id="Path-38" stroke="#FF967F" stroke-linecap="round" stroke-linejoin="round"></path>
                </g>
                <g id="Group-6" transform="translate(49.588106, 297.835853)">
                    <path d="M17.3560457,28.0243003 C26.5728527,28.0243003 33.9751243,22.9120213 33.9751243,15.3717526 C33.9751243,7.83148385 26.5728527,0.407705291 17.3560457,0.407705291 C8.13923861,0.407705291 0.504566532,7.33115017 0.504566532,14.8714189 C0.504566532,22.4116876 8.13923861,28.0243003 17.3560457,28.0243003 Z" id="Oval-6" stroke="#E772B9" stroke-width="2" fill="url(#radialGradient-9)"></path>
                    <path d="M18.1454902,6.16680567 C18.1454902,6.16680567 20.4150618,8.13024699 23.0793556,7.94148154" id="Path-39" stroke="#E575BA" stroke-width="2" stroke-linecap="round" stroke-linejoin="round"></path>
                    <path d="M14.7611786,7.56395065 C14.7611786,7.56395065 14.3762348,11.8883635 12.609926,12.331857" id="Path-40" stroke="#E575BA" stroke-width="2" stroke-linecap="round" stroke-linejoin="round"></path>
                    <path d="M6.20571202,12.0578313 C6.20571202,12.0578313 6.26536039,15.5415713 7.76504425,16.4857494" id="Path-41" stroke="#E575BA" stroke-width="2" stroke-linecap="round" stroke-linejoin="round"></path>
                    <path d="M17.5535698,17.8642985 C17.5535698,17.8642985 20.8094581,17.7130756 21.6484466,15.7587568" id="Path-42" stroke="#E575BA" stroke-width="2" stroke-linecap="round" stroke-linejoin="round"></path>
                    <path d="M19.1027976,22.7736035 C19.1027976,22.7736035 21.5298018,23.2837615 22.4082299,22.2922166" id="Path-43" stroke="#E575BA" stroke-width="2" stroke-linecap="round" stroke-linejoin="round"></path>
                    <path d="M18.5897565,11.9445019 C18.5897565,11.9445019 19.2312209,13.3981362 19.9711214,13.5777791" id="Path-44" stroke="#E575BA" stroke-width="2" stroke-linecap="round" stroke-linejoin="round"></path>
                    <path d="M26.9079334,14.1065329 C26.9079334,14.1065329 26.8388326,15.8064745 27.3323169,16.2310213" id="Path-45" stroke="#E575BA" stroke-width="2" stroke-linecap="round" stroke-linejoin="round"></path>
                    <path d="M9.42281258,6.15733231 C9.42281258,6.15733231 9.41303416,7.97902411 11.8403642,7.63938666" id="Path-46" stroke="#7593DB" stroke-linecap="round" stroke-linejoin="round"></path>
                    <path d="M23.6419407,10.7550691 C23.6419407,10.7550691 25.2795003,11.208036 26.5229896,9.08389843" id="Path-47" stroke="#7593DB" stroke-linecap="round" stroke-linejoin="round"></path>
                    <path d="M8.06100446,19.9130001 C8.06100446,19.9130001 9.84834999,20.2305985 11.3468799,19.809144 C12.8454098,19.3876894 12.5010596,18.8835618 13.0636447,18.5060309" id="Path-48" stroke="#7593DB" stroke-linecap="round" stroke-linejoin="round"></path>
                    <path d="M16.05356,21.055417 C16.05356,21.055417 16.1125565,21.5932932 16.5568227,22.0181909" id="Path-49" stroke="#7593DB" stroke-linecap="round" stroke-linejoin="round"></path>
                    <path d="M25.467246,20.1582548 C25.467246,20.1582548 25.4274805,21.3382143 25.8323071,21.6971493" id="Path-50" stroke="#7593DB" stroke-linecap="round" stroke-linejoin="round"></path>
                </g>
                <g id="Group-12" transform="translate(94.955947, 360.149028)">
                    <path d="M12.730476,4.80334637 L2.24448264,24.1880542 C2.24448264,24.1880542 1.56318008,25.9111082 2.24448264,26.7515709 C2.92578521,27.5920337 -1.09778096,29.8690768 0.573350841,32.0228942 C2.24448264,34.1767117 5.07536166,31.9000196 5.07536166,31.9000196 C5.07536166,31.9000196 1.95552426,36.8125489 3.51544296,37.4830935 C5.07536166,38.1536381 6.86259864,35.1969225 6.86259864,35.1969225 L7.57357977,35.0835267 C7.57357977,35.0835267 6.67474307,39.3630759 8.36316019,39.7313489 C10.0515773,40.0996218 12.1943049,35.7449435 12.1943049,35.7449435 C12.1943049,35.7449435 13.3788386,37.5115302 14.4945571,38.0121567 C15.6102757,38.5127832 25.5033499,18.0703 25.5033499,18.0703 L26.7374566,17.0121735 L26.4413232,15.6991699 L27.951995,12.7140176 L27.1226257,11.2026592 L26.4612176,10.664117 L28.1199561,7.09337914 L27.3496179,5.83689787 L22.0280219,7.09337914 L18.2197069,0.800791775 L15.4553601,4.36205077 L12.730476,4.80334637 Z" id="Path-59" fill="#7C9C37"></path>
                    <path d="M11.6887908,12.5823662 L1.00189635,31.9951597" id="Line" stroke="#88A74D" stroke-width="2" stroke-linecap="round" stroke-linejoin="round"></path>
                    <path d="M14.3605144,17.6153126 L3.67361995,37.0281061" id="Line" stroke="#89A84B" stroke-width="2" stroke-linecap="round" stroke-linejoin="round"></path>
                    <path d="M19.0360307,19.7722897 L8.34913625,39.1850832" id="Line" stroke="#88A74D" stroke-width="2" stroke-linecap="round" stroke-linejoin="round"></path>
                    <path d="M25.0474088,18.334305 L14.3605144,37.7470985" id="Line" stroke="#88A74D" stroke-width="2" stroke-linecap="round" stroke-linejoin="round"></path>
                    <path d="M16.8163345,4.44209484 C15.3260159,5.48036958 13.9531678,2.83594737 12.8472334,4.63097076 C11.741299,6.42599415 15.6461486,6.7100633 15.2466317,8.4664158 C14.8471147,10.2227683 10.8131099,9.40201864 11.3365616,11.2721711 C11.8600133,13.1423236 14.7679681,10.8567786 15.4931921,12.3109887 C16.2184161,13.7651988 12.3632444,15.7023296 14.2196227,17.0532488 C16.0760009,18.404168 16.5406772,14.2685606 17.8629118,14.9278681 C19.1851463,15.5871755 17.7836602,19.2256729 19.3536892,19.6132548 C20.9237182,20.0008366 21.0222119,15.7402452 22.3453543,15.7402452 C23.6684967,15.7402452 24.764647,18.5839161 26.3046713,17.6107487 C27.8446955,16.6375813 24.2070587,14.3393087 24.5767914,13.1423236 C24.9465242,11.9453384 27.8446955,13.5959067 27.9532995,12.2734241 C28.0619035,10.9509416 25.3066143,11.376163 25.2776623,9.81733503 C25.2487103,8.25850701 28.5064298,7.55960074 27.8446955,6.42599415 C27.1829613,5.29238755 24.8420132,6.7102945 24.0533397,5.63222378 C23.2646663,4.55415307 25.909718,2.48663224 24.4584033,1.79712981 C23.0070886,1.10762738 22.3113569,5.03778165 20.9237182,4.70645091 C19.5360795,4.37512017 20.429945,0.455689489 18.8403478,0.455689489 C17.2507505,0.455689489 18.3066531,3.4038201 16.8163345,4.44209484 Z" id="Path-58" stroke="#BAEF7C" stroke-width="1.5" fill="#9AB95D"></path>
                    <path d="M27.135019,22.7297074 C27.135019,21.2938292 27.0068467,21.0484309 28.9418242,20.3585774 C30.8768018,19.6687239 54.8789378,17.9590106 54.8789378,17.9590106 C54.8789378,17.9590106 56.2020802,18.5066806 56.0934762,19.7915986 C55.9848722,21.0765165 55.2539967,21.6055798 55.2539967,21.6055798 C55.2539967,21.6055798 57.8014617,21.7000177 57.5842537,23.5796491 C57.3670457,25.4592805 56.9326297,26.4138411 56.9326297,26.4138411 C56.9326297,26.4138411 58.6503992,27.5846612 58.3839444,29.2097664 C58.1174895,30.8348717 57.0904805,30.627038 57.0904805,30.627038 C57.0904805,30.627038 57.8115719,32.4125825 56.9525241,33.3948777 C56.0934762,34.3771729 29.8895817,36.5404692 29.8895817,36.5404692 C29.8895817,36.5404692 27.5792191,35.7660077 28.2605217,33.3948777 C28.9418242,31.0237476 26.3353283,32.9507735 28.2605217,28.340867 C28.8659648,26.8911236 27.5184978,29.1956886 27.135019,27.3301351 C26.6709244,25.0724008 27.7117477,25.5718162 27.7175017,24.9116105 C27.7232557,24.2514048 27.135019,24.1655857 27.135019,22.7297074 Z" id="Path-60" fill="#7C9C37"></path>
                    <path d="M27.7191324,22.6482591 L55.1042993,19.0532973" id="Line" stroke="#89A84B" stroke-width="2" stroke-linecap="round" stroke-linejoin="round"></path>
                    <path d="M27.7191324,27.6812056 L57.108092,23.3672514" id="Line" stroke="#89A84B" stroke-width="2" stroke-linecap="round" stroke-linejoin="round"></path>
                    <path d="M28.3870633,32.714152 L57.7760229,28.4001979" id="Line" stroke="#89A84B" stroke-width="2" stroke-linecap="round" stroke-linejoin="round"></path>
                    <path d="M29.7229251,36.3091138 L56.4401611,32.714152" id="Line" stroke="#89A84B" stroke-width="2" stroke-linecap="round" stroke-linejoin="round"></path>
                </g>
                <g id="Group-9" transform="translate(45.367841, 165.816415)">
                    <path d="M39.2356922,85.3566533 C50.0401018,79.3924699 47.948855,65.6903199 46.0794939,59.1444745 C44.2101329,52.598629 35.7225747,47.5611481 34.2468611,37.9558745 C32.4929358,26.5397488 35.2866844,20.1206302 33.5301257,12.2382088 C31.7735669,4.3557875 25.9057969,0.334640462 19.139713,0.334640462 C5.75081797,0.334640462 0.392719003,19.8834851 0.392719003,43.891026 C0.392719003,67.8985669 20.3341173,95.7905841 39.2356922,85.3566533 Z" id="Oval-8" stroke="#FF987F" stroke-width="2" fill="url(#linearGradient-10)"></path>
                    <path d="M16.6524927,3.82155436 C16.1321168,3.82155436 11.1293595,4.36919298 10.4971097,7.74935955 C9.86485998,11.1295261 12.0519706,11.4266809 12.0519706,11.4266809 C12.0519706,11.4266809 7.05617637,13.7778529 7.09122399,17.2915777 C7.12627161,20.8053026 8.73544469,20.6248251 8.73544469,20.6248251 C8.73544469,20.6248251 3.94715093,22.5713502 5.83716916,26.6595247 C7.72718739,30.7476991 10.4971097,28.2140637 10.4971097,28.2140637 C10.4971097,28.2140637 5.78726692,30.0280235 4.57174126,33.1944472 C3.3562156,36.3608708 4.69127453,38.7453082 7.08031513,39.5871226 C9.46935573,40.428937 1.24430649,40.2447358 2.41642881,44.6923757 C3.58855113,49.1400155 8.27100572,48.8820842 8.27100572,48.8820842 C8.27100572,48.8820842 4.97744513,53.6529726 7.26506946,56.1078853 C9.55269379,58.5627981 15.0293934,56.1346963 15.0293934,56.1346963 C15.0293934,56.1346963 8.22597766,59.8648948 11.2839403,65.6940437 C14.341903,71.5231926 17.8083678,70.1195893 17.8083678,70.1195893 C17.8083678,70.1195893 15.4765604,74.2695404 17.4641584,77.0065298 C19.4517563,79.7435191 23.8848356,78.4870904 23.8848356,78.4870904 C23.8848356,78.4870904 24.8664118,80.510764 25.9343088,81.0512605 C27.0022059,81.591757 29.534233,81.3464293 29.534233,81.3464293 C29.534233,81.3464293 29.9397177,83.3493071 32.5534345,84.0238012 C35.1671512,84.6982954 36.4625204,83.4436419 36.4625204,83.4436419 C36.4625204,83.4436419 38.1253094,83.1018022 39.4814897,78.9736596 C40.8376701,74.845517 39.2171239,72.9560893 39.2171239,72.9560893 C39.2171239,72.9560893 41.8077599,67.4649535 41.477115,64.3045907 C41.1464701,61.1442279 37.9521602,60.8653407 37.9521602,60.8653407 C37.9521602,60.8653407 38.244572,58.5603817 37.9521602,57.6313931 C37.6597484,56.7024046 36.3079395,55.6416726 36.3079395,55.6416726 C36.3079395,55.6416726 39.5282431,51.2804461 36.870094,48.2805754 C34.211945,45.2807047 28.6489906,46.998118 28.6489906,46.998118 C28.6489906,46.998118 31.2129871,44.2130969 31.0382633,42.1617192 C30.8635395,40.1103416 27.9605718,38.9156075 27.9605718,38.9156075 C27.9605718,38.9156075 28.8926992,37.6621952 28.6489906,36.1056702 C28.405282,34.5491452 27.173277,34.0121813 27.173277,34.0121813 C27.173277,34.0121813 29.1315336,33.1944472 29.1315336,31.4097808 C29.1315336,29.6251144 27.8621599,28.2140637 27.8621599,28.2140637 C27.8621599,28.2140637 28.5203677,27.585158 28.6489906,27.1545344 C28.7776134,26.7239107 28.5645049,25.8626434 28.5645049,25.8626434 C28.5645049,25.8626434 32.5534345,25.0838844 32.2465937,21.7213436 C31.939753,18.3588027 26.8641152,19.263176 26.8641152,19.263176 C26.8641152,19.263176 33.8344133,12.3519072 29.534233,10.2276353 C25.2340528,8.10336348 23.3509977,13.0643835 23.3509977,13.0643835 C23.3509977,13.0643835 24.5104963,8.7777373 22.7934852,6.32664108 C21.0764741,3.87554487 16.8956909,3.82155436 16.6524927,3.82155436 Z" id="Path-61" stroke="#FF967F" fill="url(#linearGradient-11)"></path>
                    <path d="M6.77974119,39.8753404 C6.77974119,39.8753404 12.2675947,39.1871925 14.0171903,36.7558359" id="Path-62" stroke="#FF967F" stroke-linecap="round" stroke-linejoin="round"></path>
                    <path d="M17.7364157,70.1754455 C17.7364157,70.1754455 25.416254,63.5958381 28.1566992,62.2731642" id="Path-63" stroke="#FF967F" stroke-linecap="round" stroke-linejoin="round"></path>
                    <path d="M28.8499921,46.8633184 C28.8499921,46.8633184 22.0765177,49.5153689 21.1137527,50.6441599" id="Path-64" stroke="#FF967F" stroke-linecap="round" stroke-linejoin="round"></path>
                    <path d="M38.0150603,60.8534247 C38.0150603,60.8534247 33.3003433,62.9839028 32.0987438,64.4336805" id="Path-65" stroke="#FF967F" stroke-linecap="round" stroke-linejoin="round"></path>
                    <path d="M36.4411669,55.5696802 C36.4411669,55.5696802 32.2814092,56.7250338 30.7356004,57.6068164" id="Path-66" stroke="#FF967F" stroke-linecap="round" stroke-linejoin="round"></path>
                    <path d="M10.0941782,20.3140166 C10.0941782,20.3140166 15.9615208,18.8843472 17.7322378,18.9645318" id="Path-67" stroke="#FF967F" stroke-linecap="round" stroke-linejoin="round"></path>
                    <path d="M9.93750835,28.4575965 C9.93750835,28.4575965 9.43152287,27.2749354 15.9452735,26.299811" id="Path-68" stroke="#FF967F" stroke-linecap="round" stroke-linejoin="round"></path>
                    <path d="M27.92065,28.3165907 C27.92065,28.3165907 24.4353849,27.9556358 22.7069107,28.1361133" id="Path-69" stroke="#FF967F" stroke-linecap="round" stroke-linejoin="round"></path>
                </g>
                <g id="核糖体具象" transform="translate(261.361343, 84.051368) rotate(-19.000000) translate(-261.361343, -84.051368) translate(248.361343, 71.551368)">
                    <g id="Path-98">
                        <use fill="url(#linearGradient-12)" fill-rule="evenodd" xlink:href="#path-13"></use>
                        <use fill="black" fill-opacity="1" filter="url(#filter-14)" xlink:href="#path-13"></use>
                        <use stroke="#89D7D0" stroke-width="0.5" xlink:href="#path-13"></use>
                    </g>
                    <path d="M5.1609328,19.327062 L3.95080313,17.509405 L4.14191882,16.1720172 L4.14191882,14.7913634 L4.54373107,13.7441318 L5.62148764,12.4326393 L7.56630422,11.995636 L10.0893226,11.822411 L11.6520697,10.7923892 L12.8131663,9.01365548 L14.8609037,5.93645742 L16.4286674,5.43447461 L18.167804,6.01012231 L19.9020858,5.82403 C19.9020858,5.82403 20.9610482,2.3528683 19.4709832,1.42279396 C17.9809182,0.492719618 16.8647866,1.93849906 14.4935603,2.18019129 C12.122334,2.42188351 11.606266,3.38631873 9.52099215,3.72924495 C7.4357183,4.07217116 6.83015524,4.25623969 5.19523977,4.97575786 C3.5603243,5.69527602 2.6820927,7.30842582 2.6820927,7.30842582 C2.6820927,7.30842582 1.3992905,8.44559148 1.34946126,10.0697334 C1.29963202,11.6938753 1.72667606,12.8006421 1.72667606,12.8006421 L2.6820927,14.9082944 C2.6820927,14.9082944 2.68731503,15.7175363 2.75556139,16.1720172 C2.82380774,16.6264982 2.6820927,16.6524474 3.01027443,17.1631156 C3.33845616,17.6737838 5.1609328,19.327062 5.1609328,19.327062 Z" id="Path-2" fill="url(#linearGradient-15)"></path>
                    <path d="M7.72646635,21.2325765 C7.72646635,21.2325765 5.78226315,19.8786492 5.32978858,19.516167 C4.87731401,19.1536848 3.91822811,17.8343237 3.90306696,17.1209051 C3.8879058,16.4074866 4.40967828,15.872387 4.15637262,15.1513425 C3.90306696,14.430298 4.34903367,14.7332693 4.46596048,13.8607035 C4.58288729,12.9881377 5.95332671,12.3495532 5.95332671,12.3495532 C5.95332671,12.3495532 6.858991,12.0672505 9.28377412,11.9483711 C11.7085572,11.8294918 12.630813,9.34799254 12.630813,9.34799254 C12.630813,9.34799254 14.5102237,6.09163949 15.1986258,5.76179922 C15.887028,5.43195895 16.5428908,5.57107913 16.5428908,5.57107913 C16.5428908,5.57107913 17.8289427,6.06199092 18.749053,5.9699806 C19.6691633,5.87797027 19.983042,5.84532834 19.983042,5.84532834" id="Path-109" stroke="#74A3D5" stroke-width="0.2" stroke-linecap="round" stroke-linejoin="round"></path>
                    <path d="M20.0954435,14.8701709 C20.0954435,14.8701709 18.5236897,15.9747937 16.9778243,16.3295786 C15.4319589,16.6843636 14.4035751,18.1841106 14.2109141,18.7402349" id="Path-110" stroke="#A193C6" stroke-width="0.2" stroke-linecap="round" stroke-linejoin="round"></path>
                </g>
                <g id="核糖体具象" transform="translate(413.994156, 280.645118) rotate(43.000000) translate(-413.994156, -280.645118) translate(400.994156, 268.145118)">
                    <g id="Path-98">
                        <use fill="url(#linearGradient-12)" fill-rule="evenodd" xlink:href="#path-16"></use>
                        <use fill="black" fill-opacity="1" filter="url(#filter-17)" xlink:href="#path-16"></use>
                        <use stroke="#89D7D0" stroke-width="0.5" xlink:href="#path-16"></use>
                    </g>
                    <path d="M5.1609328,19.327062 L3.95080313,17.509405 L4.14191882,16.1720172 L4.14191882,14.7913634 L4.54373107,13.7441318 L5.62148764,12.4326393 L7.56630422,11.995636 L10.0893226,11.822411 L11.6520697,10.7923892 L12.8131663,9.01365548 L14.8609037,5.93645742 L16.4286674,5.43447461 L18.167804,6.01012231 L19.9020858,5.82403 C19.9020858,5.82403 20.9610482,2.3528683 19.4709832,1.42279396 C17.9809182,0.492719618 16.8647866,1.93849906 14.4935603,2.18019129 C12.122334,2.42188351 11.606266,3.38631873 9.52099215,3.72924495 C7.4357183,4.07217116 6.83015524,4.25623969 5.19523977,4.97575786 C3.5603243,5.69527602 2.6820927,7.30842582 2.6820927,7.30842582 C2.6820927,7.30842582 1.3992905,8.44559148 1.34946126,10.0697334 C1.29963202,11.6938753 1.72667606,12.8006421 1.72667606,12.8006421 L2.6820927,14.9082944 C2.6820927,14.9082944 2.68731503,15.7175363 2.75556139,16.1720172 C2.82380774,16.6264982 2.6820927,16.6524474 3.01027443,17.1631156 C3.33845616,17.6737838 5.1609328,19.327062 5.1609328,19.327062 Z" id="Path-2" fill="url(#linearGradient-15)"></path>
                    <path d="M7.72646635,21.2325765 C7.72646635,21.2325765 5.78226315,19.8786492 5.32978858,19.516167 C4.87731401,19.1536848 3.91822811,17.8343237 3.90306696,17.1209051 C3.8879058,16.4074866 4.40967828,15.872387 4.15637262,15.1513425 C3.90306696,14.430298 4.34903367,14.7332693 4.46596048,13.8607035 C4.58288729,12.9881377 5.95332671,12.3495532 5.95332671,12.3495532 C5.95332671,12.3495532 6.858991,12.0672505 9.28377412,11.9483711 C11.7085572,11.8294918 12.630813,9.34799254 12.630813,9.34799254 C12.630813,9.34799254 14.5102237,6.09163949 15.1986258,5.76179922 C15.887028,5.43195895 16.5428908,5.57107913 16.5428908,5.57107913 C16.5428908,5.57107913 17.8289427,6.06199092 18.749053,5.9699806 C19.6691633,5.87797027 19.983042,5.84532834 19.983042,5.84532834" id="Path-109" stroke="#74A3D5" stroke-width="0.2" stroke-linecap="round" stroke-linejoin="round"></path>
                    <path d="M20.0954435,14.8701709 C20.0954435,14.8701709 18.5236897,15.9747937 16.9778243,16.3295786 C15.4319589,16.6843636 14.4035751,18.1841106 14.2109141,18.7402349" id="Path-110" stroke="#A193C6" stroke-width="0.2" stroke-linecap="round" stroke-linejoin="round"></path>
                </g>
                <path d="M234.130798,376.9274 C254.230553,381.434136 263.194953,371.870528 273.080775,367.110792 C282.569806,362.5421 282.132675,355.440089 297.675551,337.904204 C313.218428,320.368319 313.535394,324.157476 318.52379,315.18236 C333.636668,287.991288 328.854091,271.878204 328.854091,252.512567 C328.854091,230.756922 336.252318,204.845341 325.266321,179.15878 C321.317056,169.924929 308.273569,149.191528 291.683564,139.580274 C275.093559,129.96902 261.408153,133.850477 239.646477,133.850477 C217.884801,133.850477 215.788538,144.835739 201.733654,156.127155 C190.434243,165.204879 169.188803,175.631917 157.350475,199.657087 C145.512146,223.682257 153.158677,238.873351 155.041106,255.589633 C157.350475,276.097208 155.515502,301.317076 157.350475,310.799536 C158.708091,317.815192 166.091023,339.817961 197.426269,355.378133 C228.761515,370.938306 214.031042,372.420664 234.130798,376.9274 Z" id="Oval-11" stroke="#FFFFFF" fill="url(#radialGradient-18)" stroke-linecap="round" stroke-linejoin="round"></path>
            </g>
        </g>
    </g>
</svg>