<svg class="loadingIco" xmlns="http://www.w3.org/2000/svg" viewBox="0 0 63.44 56.84">
    <defs>
        <style>
            .cls-1{fill:#fe5702;fill-rule:evenodd}
        </style>
    </defs>
    <title>
    </title>
    <g id="tc_2" data-name="tc2">
        <g id="tc_1-2" data-name="tc1">
            <path class="cls-1" d="M3.95,34.95a1.33,1.33,0,0,0-1.67.62A20.11,20.11,0,0,1,1,37.6c-.25.35-.5.69-.74,1a1.33,1.33,0,0,0,.77,2.13A50.36,50.36,0,0,1,18.34,48a51.22,51.22,0,0,1,9.4,8,.34.34,0,0,0,.53-.4,58.42,58.42,0,0,0-10.8-12.64A43,43,0,0,0,3.95,34.95Z"/>
            <path class="cls-1" d="M9.09,33.52a1.54,1.54,0,0,1-.16-2.62l.89-.65c.74-.56,1.42-1.13,2-1.68a1.52,1.52,0,0,1,2.06,0A54.53,54.53,0,0,1,21.18,37,54.56,54.56,0,0,1,27.06,47.7a.33.33,0,0,1-.57.34,56.87,56.87,0,0,0-8.41-8.5A56.87,56.87,0,0,0,9.09,33.52Z"/>
            <path class="cls-1" d="M19.39,11.73a2.25,2.25,0,0,1,3.31,1.09,136.53,136.53,0,0,1,4.48,13.9,150.47,150.47,0,0,1,4.49,23.83.34.34,0,0,1-.64.16,130.91,130.91,0,0,0-11.87-21.5,120.71,120.71,0,0,0-7.61-10.09,2.25,2.25,0,0,1,.75-3.48c1.19-.57,2.41-1.2,3.67-1.9S18.31,12.41,19.39,11.73Z"/>


            <path class="cls-1" d="M26.9,2.24a1.92,1.92,0,0,1,2-2.23c1.8.13,3.73.2,5.77.2S38.42.13,40.12,0A1.8,1.8,0,0,1,42,2.15c-2.62,13.53-4.66,27.07-7.23,40.6a.34.34,0,0,1-.66,0Z"/>
            <path class="cls-1" d="M50.28,14.53A1.91,1.91,0,0,1,53,14.17q1.48,1.19,3.07,2.39t3.17,2.33a1.91,1.91,0,0,1,.22,2.94A97,97,0,0,0,45.13,39a78.22,78.22,0,0,0-7.62,14.71l-1.11,2.87a.34.34,0,0,1-.65-.12c0-7,1-15.49,6.1-27.28A75.82,75.82,0,0,1,50.28,14.53Z"/>
            <path class="cls-1" d="M57.38,32.57a1.52,1.52,0,0,1,2.31.33q.65,1,1.4,2.14c.67,1,1.35,1.87,2,2.7a1.5,1.5,0,0,1-.57,2.32A71.27,71.27,0,0,0,40.76,55a.33.33,0,0,1-.53-.39,75,75,0,0,1,8.86-13.14A93.94,93.94,0,0,1,57.38,32.57Z"/>
        </g>
    </g>
</svg>