{"asset":{"version":"2.0","generator":"babylon.js glTF exporter for maya 2018 v1.2.16","copyright":"2017 (c) BabylonJS"},"extensionsUsed":["KHR_lights"],"scene":0,"scenes":[{"nodes":[0],"extensions":{"KHR_lights":{"light":0}}}],"nodes":[{"children":[1,2],"translation":[0.0,0.0,0.0],"rotation":[0.0,0.0,0.0,1.0],"scale":[1.0,1.0,1.0],"name":"gsj"},{"mesh":0,"translation":[0.0,0.0,0.0],"rotation":[0.0,0.0,0.0,1.0],"scale":[1.0,1.0,1.0],"name":"P_Si"},{"mesh":1,"translation":[-22.2006,-15.8131847,35.0118256],"rotation":[0.0,0.0,0.0,1.0],"scale":[114.492714,114.492714,114.492714],"name":"pCube1"}],"meshes":[{"primitives":[{"attributes":{"POSITION":1,"NORMAL":2,"TANGENT":3,"TEXCOORD_0":4},"indices":0,"mode":4,"material":0},{"attributes":{"POSITION":6,"NORMAL":7,"TANGENT":8,"TEXCOORD_0":9},"indices":5,"mode":4,"material":1}],"name":"P_Si"},{"primitives":[{"attributes":{"POSITION":11,"NORMAL":12,"TANGENT":13,"TEXCOORD_0":14},"indices":10,"mode":4,"material":2}],"name":"pCube1"}],"accessors":[{"bufferView":0,"componentType":5123,"count":86400,"type":"SCALAR","name":"accessorIndices"},{"bufferView":1,"componentType":5126,"count":16830,"max":[81.33751,73.1883545,47.740448],"min":[-78.00078,-48.5956421,-91.58008],"type":"VEC3","name":"accessorPositions"},{"bufferView":1,"byteOffset":201960,"componentType":5126,"count":16830,"type":"VEC3","name":"accessorNormals"},{"bufferView":2,"componentType":5126,"count":16830,"type":"VEC4","name":"accessorTangents"},{"bufferView":3,"componentType":5126,"count":16830,"type":"VEC2","name":"accessorUVs"},{"bufferView":0,"byteOffset":172800,"componentType":5123,"count":25488,"type":"SCALAR","name":"accessorIndices"},{"bufferView":1,"byteOffset":403920,"componentType":5126,"count":6180,"max":[74.59154,69.7321854,43.3478966],"min":[-73.60653,-44.43497,-85.28418],"type":"VEC3","name":"accessorPositions"},{"bufferView":1,"byteOffset":478080,"componentType":5126,"count":6180,"type":"VEC3","name":"accessorNormals"},{"bufferView":2,"byteOffset":269280,"componentType":5126,"count":6180,"type":"VEC4","name":"accessorTangents"},{"bufferView":3,"byteOffset":134640,"componentType":5126,"count":6180,"type":"VEC2","name":"accessorUVs"},{"bufferView":0,"byteOffset":223776,"componentType":5123,"count":36,"type":"SCALAR","name":"accessorIndices"},{"bufferView":1,"byteOffset":552240,"componentType":5126,"count":24,"max":[0.5,0.5,0.5],"min":[-0.5,-0.5,-0.5],"type":"VEC3","name":"accessorPositions"},{"bufferView":1,"byteOffset":552528,"componentType":5126,"count":24,"type":"VEC3","name":"accessorNormals"},{"bufferView":2,"byteOffset":368160,"componentType":5126,"count":24,"type":"VEC4","name":"accessorTangents"},{"bufferView":3,"byteOffset":184080,"componentType":5126,"count":24,"type":"VEC2","name":"accessorUVs"}],"bufferViews":[{"buffer":0,"byteLength":223848,"name":"bufferViewScalar"},{"buffer":0,"byteOffset":223848,"byteLength":552816,"byteStride":12,"name":"bufferViewFloatVec3"},{"buffer":0,"byteOffset":776664,"byteLength":368544,"byteStride":16,"name":"bufferViewFloatVec4"},{"buffer":0,"byteOffset":1145208,"byteLength":184272,"byteStride":8,"name":"bufferViewFloatVec2"}],"buffers":[{"uri":"gsj.bin","byteLength":1329480}],"materials":[{"pbrMetallicRoughness":{"baseColorFactor":[0.3546105,0.414712042,0.414712042,1.0],"metallicFactor":0.167727992,"roughnessFactor":0.6},"emissiveFactor":[0.0,0.0,0.0],"alphaMode":"OPAQUE","name":"blinn5"},{"pbrMetallicRoughness":{"baseColorFactor":[0.520096064,0.520096064,0.520096064,1.0],"metallicFactor":0.124974996,"roughnessFactor":0.6},"emissiveFactor":[0.0,0.0,0.0],"alphaMode":"OPAQUE","name":"blinn4"},{"pbrMetallicRoughness":{"baseColorFactor":[0.5208334,0.5208334,0.5208334,1.0],"metallicFactor":0.0,"roughnessFactor":0.9},"emissiveFactor":[0.0,0.0,0.0],"alphaMode":"OPAQUE","name":"lambert1"}],"extensions":{"KHR_lights":{"lights":[{"color":[1.0,1.0,1.0],"intensity":1.0,"type":"ambient"}]}}}