{"asset":{"version":"2.0","generator":"babylon.js glTF exporter for maya 2018 v1.2.16","copyright":"2017 (c) BabylonJS"},"extensionsUsed":["KHR_lights"],"scene":0,"scenes":[{"nodes":[0],"extensions":{"KHR_lights":{"light":0}}}],"nodes":[{"children":[1,2],"translation":[0.0,0.0,0.0],"rotation":[0.0,0.0,0.0,1.0],"scale":[1.0,1.0,1.0],"name":"gsj"},{"mesh":0,"translation":[-0.747696638,0.234530747,4.36109734],"rotation":[0.0,0.0,0.0,1.0],"scale":[114.492714,114.492714,114.492714],"name":"pCube1"},{"mesh":1,"translation":[0.0,0.0,0.0],"rotation":[0.0,0.0,0.0,1.0],"scale":[1.0,1.0,1.0],"name":"P_C"}],"meshes":[{"primitives":[{"attributes":{"POSITION":1,"NORMAL":2,"TANGENT":3,"TEXCOORD_0":4},"indices":0,"mode":4,"material":0}],"name":"pCube1"},{"primitives":[{"attributes":{"POSITION":6,"NORMAL":7,"TANGENT":8,"TEXCOORD_0":9},"indices":5,"mode":4,"material":1},{"attributes":{"POSITION":11,"NORMAL":12,"TANGENT":13,"TEXCOORD_0":14},"indices":10,"mode":4,"material":2}],"name":"P_C"}],"accessors":[{"bufferView":0,"componentType":5123,"count":36,"type":"SCALAR","name":"accessorIndices"},{"bufferView":1,"componentType":5126,"count":24,"max":[0.5,0.5,0.5],"min":[-0.5,-0.5,-0.5],"type":"VEC3","name":"accessorPositions"},{"bufferView":1,"byteOffset":288,"componentType":5126,"count":24,"type":"VEC3","name":"accessorNormals"},{"bufferView":2,"componentType":5126,"count":24,"type":"VEC4","name":"accessorTangents"},{"bufferView":3,"componentType":5126,"count":24,"type":"VEC2","name":"accessorUVs"},{"bufferView":0,"byteOffset":72,"componentType":5123,"count":86400,"type":"SCALAR","name":"accessorIndices"},{"bufferView":1,"byteOffset":576,"componentType":5126,"count":16830,"max":[54.2250061,48.7922363,31.8269653],"min":[-52.00052,-32.3970947,-61.0533867],"type":"VEC3","name":"accessorPositions"},{"bufferView":1,"byteOffset":202536,"componentType":5126,"count":16830,"type":"VEC3","name":"accessorNormals"},{"bufferView":2,"byteOffset":384,"componentType":5126,"count":16830,"type":"VEC4","name":"accessorTangents"},{"bufferView":3,"byteOffset":192,"componentType":5126,"count":16830,"type":"VEC2","name":"accessorUVs"},{"bufferView":0,"byteOffset":172872,"componentType":5123,"count":25488,"type":"SCALAR","name":"accessorIndices"},{"bufferView":1,"byteOffset":404496,"componentType":5126,"count":6180,"max":[49.72769,46.4881248,28.8985977],"min":[-49.071022,-29.6233139,-56.85612],"type":"VEC3","name":"accessorPositions"},{"bufferView":1,"byteOffset":478656,"componentType":5126,"count":6180,"type":"VEC3","name":"accessorNormals"},{"bufferView":2,"byteOffset":269664,"componentType":5126,"count":6180,"type":"VEC4","name":"accessorTangents"},{"bufferView":3,"byteOffset":134832,"componentType":5126,"count":6180,"type":"VEC2","name":"accessorUVs"}],"bufferViews":[{"buffer":0,"byteLength":223848,"name":"bufferViewScalar"},{"buffer":0,"byteOffset":223848,"byteLength":552816,"byteStride":12,"name":"bufferViewFloatVec3"},{"buffer":0,"byteOffset":776664,"byteLength":368544,"byteStride":16,"name":"bufferViewFloatVec4"},{"buffer":0,"byteOffset":1145208,"byteLength":184272,"byteStride":8,"name":"bufferViewFloatVec2"}],"buffers":[{"uri":"gsj2.bin","byteLength":1329480}],"materials":[{"pbrMetallicRoughness":{"baseColorFactor":[0.5208334,0.5208334,0.5208334,1.0],"metallicFactor":0.0,"roughnessFactor":0.9},"emissiveFactor":[0.0,0.0,0.0],"alphaMode":"OPAQUE","name":"lambert1"},{"pbrMetallicRoughness":{"baseColorFactor":[0.163609043,0.163609043,0.163609043,1.0],"metallicFactor":0.4854015,"roughnessFactor":0.6},"emissiveFactor":[0.0,0.0,0.0],"alphaMode":"OPAQUE","name":"blinn6"},{"pbrMetallicRoughness":{"baseColorFactor":[0.520096064,0.520096064,0.520096064,1.0],"metallicFactor":0.124974996,"roughnessFactor":0.6},"emissiveFactor":[0.0,0.0,0.0],"alphaMode":"OPAQUE","name":"blinn4"}],"extensions":{"KHR_lights":{"lights":[{"color":[1.0,1.0,1.0],"intensity":1.0,"type":"ambient"}]}}}