{"asset":{"version":"2.0","generator":"babylon.js glTF exporter for maya 2018 v1.2.16","copyright":"2017 (c) BabylonJS"},"extensionsUsed":["KHR_lights"],"scene":0,"scenes":[{"nodes":[0],"extensions":{"KHR_lights":{"light":0}}}],"nodes":[{"children":[1,2],"translation":[0.0,0.0,0.0],"rotation":[0.0,0.0,0.0,1.0],"scale":[1.0,1.0,1.0],"name":"buding"},{"mesh":0,"translation":[0.0,0.0,0.0],"rotation":[0.0,0.0,0.0,1.0],"scale":[1.0,1.0,1.0],"name":"buding_waiceng"},{"mesh":1,"translation":[0.0,0.0,0.0],"rotation":[0.0,0.0,0.0,1.0],"scale":[1.0,1.0,1.0],"name":"buding (1)"}],"meshes":[{"primitives":[{"attributes":{"POSITION":1,"NORMAL":2,"TANGENT":3,"TEXCOORD_0":4},"indices":0,"mode":4,"material":0}],"name":"buding_waiceng"},{"primitives":[{"attributes":{"POSITION":6,"NORMAL":7,"TANGENT":8,"TEXCOORD_0":9},"indices":5,"mode":4,"material":1},{"attributes":{"POSITION":11,"NORMAL":12,"TANGENT":13,"TEXCOORD_0":14},"indices":10,"mode":4,"material":2}],"name":"buding"}],"accessors":[{"bufferView":0,"componentType":5123,"count":9360,"type":"SCALAR","name":"accessorIndices"},{"bufferView":1,"componentType":5126,"count":1679,"max":[48.56785,47.96785,48.6225281],"min":[-47.3678665,-47.96785,-47.3132057],"type":"VEC3","name":"accessorPositions"},{"bufferView":1,"byteOffset":20148,"componentType":5126,"count":1679,"type":"VEC3","name":"accessorNormals"},{"bufferView":2,"componentType":5126,"count":1679,"type":"VEC4","name":"accessorTangents"},{"bufferView":3,"componentType":5126,"count":1679,"type":"VEC2","name":"accessorUVs"},{"bufferView":0,"byteOffset":18720,"componentType":5123,"count":99,"type":"SCALAR","name":"accessorIndices"},{"bufferView":1,"byteOffset":40296,"componentType":5126,"count":97,"max":[45.5763855,39.7788353,46.8773422],"min":[-38.510334,-39.5633,-45.450016],"type":"VEC3","name":"accessorPositions"},{"bufferView":1,"byteOffset":41460,"componentType":5126,"count":97,"type":"VEC3","name":"accessorNormals"},{"bufferView":2,"byteOffset":26864,"componentType":5126,"count":97,"type":"VEC4","name":"accessorTangents"},{"bufferView":3,"byteOffset":13432,"componentType":5126,"count":97,"type":"VEC2","name":"accessorUVs"},{"bufferView":0,"byteOffset":18920,"componentType":5123,"count":39009,"type":"SCALAR","name":"accessorIndices"},{"bufferView":1,"byteOffset":42624,"componentType":5126,"count":8014,"max":[50.43543,51.8950958,50.2035027],"min":[-50.3460274,-51.791832,-49.9381523],"type":"VEC3","name":"accessorPositions"},{"bufferView":1,"byteOffset":138792,"componentType":5126,"count":8014,"type":"VEC3","name":"accessorNormals"},{"bufferView":2,"byteOffset":28416,"componentType":5126,"count":8014,"type":"VEC4","name":"accessorTangents"},{"bufferView":3,"byteOffset":14208,"componentType":5126,"count":8014,"type":"VEC2","name":"accessorUVs"}],"bufferViews":[{"buffer":0,"byteLength":96940,"name":"bufferViewScalar"},{"buffer":0,"byteOffset":96940,"byteLength":234960,"byteStride":12,"name":"bufferViewFloatVec3"},{"buffer":0,"byteOffset":331900,"byteLength":156640,"byteStride":16,"name":"bufferViewFloatVec4"},{"buffer":0,"byteOffset":488540,"byteLength":78320,"byteStride":8,"name":"bufferViewFloatVec2"}],"buffers":[{"uri":"yzjg2_2.bin","byteLength":566860}],"materials":[{"pbrMetallicRoughness":{"baseColorFactor":[0.5658589,0.6137494,0.6249387,1.0],"metallicFactor":0.106923275,"roughnessFactor":0.6},"emissiveFactor":[0.0,0.0,0.0],"alphaMode":"OPAQUE","name":"shixinqiu_m"},{"pbrMetallicRoughness":{"baseColorFactor":[0.551266849,0.792198539,0.851668,1.0],"metallicFactor":0.0861777,"roughnessFactor":0.6},"emissiveFactor":[0.0,0.0,0.0],"alphaMode":"OPAQUE","name":"blinn2"},{"pbrMetallicRoughness":{"baseColorFactor":[0.761267662,0.562445462,0.144923836,1.0],"metallicFactor":0.106866695,"roughnessFactor":0.6},"emissiveFactor":[0.0116787162,0.00860078447,0.00213720533],"alphaMode":"OPAQUE","name":"blinn3"}],"extensions":{"KHR_lights":{"lights":[{"color":[1.0,1.0,1.0],"intensity":1.0,"type":"ambient"}]}}}