{"asset":{"version":"2.0","generator":"babylon.js glTF exporter for maya 2018 v1.2.16","copyright":"2017 (c) BabylonJS"},"extensionsUsed":["KHR_lights"],"scene":0,"scenes":[{"nodes":[0],"extensions":{"KHR_lights":{"light":0}}}],"nodes":[{"mesh":0,"translation":[0.0,0.0,0.0],"rotation":[0.0,0.0,0.0,1.0],"scale":[1.0,1.0,1.0],"name":"shixinqiu"}],"meshes":[{"primitives":[{"attributes":{"POSITION":1,"NORMAL":2,"TANGENT":3,"TEXCOORD_0":4},"indices":0,"mode":4,"material":0}],"name":"shixinqiu"}],"accessors":[{"bufferView":0,"componentType":5123,"count":9360,"type":"SCALAR","name":"accessorIndices"},{"bufferView":1,"componentType":5126,"count":1679,"max":[50.0,50.0,50.00001],"min":[-50.00002,-50.0,-50.00003],"type":"VEC3","name":"accessorPositions"},{"bufferView":1,"byteOffset":20148,"componentType":5126,"count":1679,"type":"VEC3","name":"accessorNormals"},{"bufferView":2,"componentType":5126,"count":1679,"type":"VEC4","name":"accessorTangents"},{"bufferView":3,"componentType":5126,"count":1679,"type":"VEC2","name":"accessorUVs"}],"bufferViews":[{"buffer":0,"byteLength":18720,"name":"bufferViewScalar"},{"buffer":0,"byteOffset":18720,"byteLength":40296,"byteStride":12,"name":"bufferViewFloatVec3"},{"buffer":0,"byteOffset":59016,"byteLength":26864,"byteStride":16,"name":"bufferViewFloatVec4"},{"buffer":0,"byteOffset":85880,"byteLength":13432,"byteStride":8,"name":"bufferViewFloatVec2"}],"buffers":[{"uri":"yzjg2_1.bin","byteLength":99312}],"materials":[{"pbrMetallicRoughness":{"baseColorFactor":[0.5658589,0.6137494,0.6249387,1.0],"metallicFactor":0.106923275,"roughnessFactor":0.6},"emissiveFactor":[0.0,0.0,0.0],"alphaMode":"OPAQUE","name":"shixinqiu_m"}],"extensions":{"KHR_lights":{"lights":[{"color":[1.0,1.0,1.0],"intensity":1.0,"type":"ambient"}]}}}