{"asset":{"version":"2.0","generator":"babylon.js glTF exporter for maya 2018 v1.2.16","copyright":"2017 (c) BabylonJS"},"extensionsUsed":["KHR_lights"],"scene":0,"scenes":[{"nodes":[0],"extensions":{"KHR_lights":{"light":0}}}],"nodes":[{"children":[1,2,3,4,5,8,11],"translation":[0.0,0.0,0.0],"rotation":[0.0,0.0,0.0,1.0],"scale":[1.0,1.0,1.0],"name":"heshi"},{"mesh":0,"translation":[0.0,0.0,0.0],"rotation":[0.0,0.0,0.0,1.0],"scale":[1.0,1.0,1.0],"name":"zhongzi"},{"mesh":1,"translation":[0.0,0.0,0.0],"rotation":[0.0,0.0,0.0,1.0],"scale":[1.0,1.0,1.0],"name":"zhizi"},{"mesh":2,"translation":[0.0,0.0,0.0],"rotation":[0.0,0.0,0.0,1.0],"scale":[1.0,1.0,1.0],"name":"heshi_waike"},{"mesh":3,"translation":[0.0,0.0,0.0],"rotation":[0.0,0.0,0.0,1.0],"scale":[1.0,1.0,1.0],"name":"heshi_guidao_i"},{"children":[6,7],"translation":[0.0,0.0,0.0],"rotation":[0.0,0.0,-0.258819044,0.9659258],"scale":[1.0,1.0,1.0],"name":"ani3"},{"mesh":4,"translation":[0.0,0.0,0.0],"rotation":[0.0,0.9422609,0.0,-0.3348796],"scale":[1.0,1.0,1.0],"name":"dianzi3"},{"mesh":5,"translation":[0.0,0.0,0.0],"rotation":[0.0,0.0,0.258819044,0.9659258],"scale":[1.0,1.0,1.0],"name":"polySurface24"},{"children":[9,10],"translation":[0.0,0.0,0.0],"rotation":[0.0,0.0,0.0,1.0],"scale":[1.0,1.0,1.0],"name":"ani2"},{"mesh":6,"translation":[0.0,0.0,0.0],"rotation":[0.0,0.0,0.0,1.0],"scale":[1.0,1.0,1.0],"name":"polySurface25"},{"mesh":7,"translation":[0.0,0.0,0.0],"rotation":[-0.9422609,0.0,0.0,0.3348796],"scale":[1.0,1.0,1.0],"name":"dianzi2"},{"children":[12,13],"translation":[0.0,0.0,0.0],"rotation":[0.0,0.0,0.258819044,0.9659258],"scale":[1.0,1.0,1.0],"name":"ani1"},{"mesh":8,"translation":[0.0,0.0,0.0],"rotation":[0.0,0.0,-0.258819044,0.9659258],"scale":[1.0,1.0,1.0],"name":"polySurface23"},{"mesh":9,"translation":[0.0,0.0,0.0],"rotation":[0.0,0.9422609,0.0,-0.3348796],"scale":[1.0,1.0,1.0],"name":"dianzi1"}],"meshes":[{"primitives":[{"attributes":{"POSITION":1,"NORMAL":2,"TANGENT":3,"TEXCOORD_0":4},"indices":0,"mode":4,"material":0}],"name":"zhongzi"},{"primitives":[{"attributes":{"POSITION":6,"NORMAL":7,"TANGENT":8,"TEXCOORD_0":9},"indices":5,"mode":4,"material":1}],"name":"zhizi"},{"primitives":[{"attributes":{"POSITION":11,"NORMAL":12,"TANGENT":13,"TEXCOORD_0":14},"indices":10,"mode":4,"material":2}],"name":"heshi_waike"},{"primitives":[{"attributes":{"POSITION":16,"NORMAL":17,"TANGENT":18,"TEXCOORD_0":19},"indices":15,"mode":4,"material":3}],"name":"heshi_guidao_i"},{"primitives":[{"attributes":{"POSITION":21,"NORMAL":22,"TANGENT":23,"TEXCOORD_0":24},"indices":20,"mode":4,"material":4}],"name":"dianzi3"},{"primitives":[{"attributes":{"POSITION":26,"NORMAL":27,"TANGENT":28,"TEXCOORD_0":29},"indices":25,"mode":4,"material":3}],"name":"polySurface24"},{"primitives":[{"attributes":{"POSITION":31,"NORMAL":32,"TANGENT":33,"TEXCOORD_0":34},"indices":30,"mode":4,"material":3}],"name":"polySurface25"},{"primitives":[{"attributes":{"POSITION":36,"NORMAL":37,"TANGENT":38,"TEXCOORD_0":39},"indices":35,"mode":4,"material":4}],"name":"dianzi2"},{"primitives":[{"attributes":{"POSITION":41,"NORMAL":42,"TANGENT":43,"TEXCOORD_0":44},"indices":40,"mode":4,"material":3}],"name":"polySurface23"},{"primitives":[{"attributes":{"POSITION":46,"NORMAL":47,"TANGENT":48,"TEXCOORD_0":49},"indices":45,"mode":4,"material":4}],"name":"dianzi1"}],"accessors":[{"bufferView":0,"componentType":5123,"count":25080,"type":"SCALAR","name":"accessorIndices"},{"bufferView":1,"componentType":5126,"count":4829,"max":[4.07239437,5.20465,3.1515336],"min":[-3.582944,-3.2021215,-3.69509578],"type":"VEC3","name":"accessorPositions"},{"bufferView":1,"byteOffset":57948,"componentType":5126,"count":4829,"type":"VEC3","name":"accessorNormals"},{"bufferView":2,"componentType":5126,"count":4829,"type":"VEC4","name":"accessorTangents"},{"bufferView":3,"componentType":5126,"count":4829,"type":"VEC2","name":"accessorUVs"},{"bufferView":0,"byteOffset":50160,"componentType":5123,"count":22800,"type":"SCALAR","name":"accessorIndices"},{"bufferView":1,"byteOffset":115896,"componentType":5126,"count":4390,"max":[3.77034116,4.77181959,4.006095],"min":[-3.37461615,-2.05761266,-3.80214453],"type":"VEC3","name":"accessorPositions"},{"bufferView":1,"byteOffset":168576,"componentType":5126,"count":4390,"type":"VEC3","name":"accessorNormals"},{"bufferView":2,"byteOffset":77264,"componentType":5126,"count":4390,"type":"VEC4","name":"accessorTangents"},{"bufferView":3,"byteOffset":38632,"componentType":5126,"count":4390,"type":"VEC2","name":"accessorUVs"},{"bufferView":0,"byteOffset":95760,"componentType":5123,"count":9360,"type":"SCALAR","name":"accessorIndices"},{"bufferView":1,"byteOffset":221256,"componentType":5126,"count":1679,"max":[50.0,50.0,50.00001],"min":[-50.00002,-50.0,-50.00003],"type":"VEC3","name":"accessorPositions"},{"bufferView":1,"byteOffset":241404,"componentType":5126,"count":1679,"type":"VEC3","name":"accessorNormals"},{"bufferView":2,"byteOffset":147504,"componentType":5126,"count":1679,"type":"VEC4","name":"accessorTangents"},{"bufferView":3,"byteOffset":73752,"componentType":5126,"count":1679,"type":"VEC2","name":"accessorUVs"},{"bufferView":0,"byteOffset":114480,"componentType":5123,"count":2880,"type":"SCALAR","name":"accessorIndices"},{"bufferView":1,"byteOffset":261552,"componentType":5126,"count":729,"max":[41.08515,47.4410553,47.4410324],"min":[-41.0851631,-47.4410553,-47.44105],"type":"VEC3","name":"accessorPositions"},{"bufferView":1,"byteOffset":270300,"componentType":5126,"count":729,"type":"VEC3","name":"accessorNormals"},{"bufferView":2,"byteOffset":174368,"componentType":5126,"count":729,"type":"VEC4","name":"accessorTangents"},{"bufferView":3,"byteOffset":87184,"componentType":5126,"count":729,"type":"VEC2","name":"accessorUVs"},{"bufferView":0,"byteOffset":120240,"componentType":5123,"count":2304,"type":"SCALAR","name":"accessorIndices"},{"bufferView":1,"byteOffset":279048,"componentType":5126,"count":515,"max":[-46.5698738,0.8064747,0.8720838],"min":[-48.04869,-0.6723442,-0.606734157],"type":"VEC3","name":"accessorPositions"},{"bufferView":1,"byteOffset":285228,"componentType":5126,"count":515,"type":"VEC3","name":"accessorNormals"},{"bufferView":2,"byteOffset":186032,"componentType":5126,"count":515,"type":"VEC4","name":"accessorTangents"},{"bufferView":3,"byteOffset":93016,"componentType":5126,"count":515,"type":"VEC2","name":"accessorUVs"},{"bufferView":0,"byteOffset":124848,"componentType":5123,"count":960,"type":"SCALAR","name":"accessorIndices"},{"bufferView":1,"byteOffset":291408,"componentType":5126,"count":243,"max":[41.08515,23.7205276,47.4410324],"min":[-41.0851631,-23.7205276,-47.44105],"type":"VEC3","name":"accessorPositions"},{"bufferView":1,"byteOffset":294324,"componentType":5126,"count":243,"type":"VEC3","name":"accessorNormals"},{"bufferView":2,"byteOffset":194272,"componentType":5126,"count":243,"type":"VEC4","name":"accessorTangents"},{"bufferView":3,"byteOffset":97136,"componentType":5126,"count":243,"type":"VEC2","name":"accessorUVs"},{"bufferView":0,"byteOffset":126768,"componentType":5123,"count":960,"type":"SCALAR","name":"accessorIndices"},{"bufferView":1,"byteOffset":297240,"componentType":5126,"count":243,"max":[-1.10545216E-05,47.4410553,47.4410324],"min":[-1.52587891E-05,-47.4410553,-47.44105],"type":"VEC3","name":"accessorPositions"},{"bufferView":1,"byteOffset":300156,"componentType":5126,"count":243,"type":"VEC3","name":"accessorNormals"},{"bufferView":2,"byteOffset":198160,"componentType":5126,"count":243,"type":"VEC4","name":"accessorTangents"},{"bufferView":3,"byteOffset":99080,"componentType":5126,"count":243,"type":"VEC2","name":"accessorUVs"},{"bufferView":0,"byteOffset":128688,"componentType":5123,"count":2304,"type":"SCALAR","name":"accessorIndices"},{"bufferView":1,"byteOffset":303072,"componentType":5126,"count":515,"max":[0.781755567,-46.5339279,0.872083664],"min":[-0.6905909,-48.005825,-0.606734157],"type":"VEC3","name":"accessorPositions"},{"bufferView":1,"byteOffset":309252,"componentType":5126,"count":515,"type":"VEC3","name":"accessorNormals"},{"bufferView":2,"byteOffset":202048,"componentType":5126,"count":515,"type":"VEC4","name":"accessorTangents"},{"bufferView":3,"byteOffset":101024,"componentType":5126,"count":515,"type":"VEC2","name":"accessorUVs"},{"bufferView":0,"byteOffset":133296,"componentType":5123,"count":960,"type":"SCALAR","name":"accessorIndices"},{"bufferView":1,"byteOffset":315432,"componentType":5126,"count":243,"max":[41.08515,23.7205276,47.4410324],"min":[-41.0851631,-23.7205276,-47.44105],"type":"VEC3","name":"accessorPositions"},{"bufferView":1,"byteOffset":318348,"componentType":5126,"count":243,"type":"VEC3","name":"accessorNormals"},{"bufferView":2,"byteOffset":210288,"componentType":5126,"count":243,"type":"VEC4","name":"accessorTangents"},{"bufferView":3,"byteOffset":105144,"componentType":5126,"count":243,"type":"VEC2","name":"accessorUVs"},{"bufferView":0,"byteOffset":135216,"componentType":5123,"count":2304,"type":"SCALAR","name":"accessorIndices"},{"bufferView":1,"byteOffset":321264,"componentType":5126,"count":515,"max":[48.08689,0.7359543,0.739397764],"min":[46.61454,-0.735942841,-0.739420652],"type":"VEC3","name":"accessorPositions"},{"bufferView":1,"byteOffset":327444,"componentType":5126,"count":515,"type":"VEC3","name":"accessorNormals"},{"bufferView":2,"byteOffset":214176,"componentType":5126,"count":515,"type":"VEC4","name":"accessorTangents"},{"bufferView":3,"byteOffset":107088,"componentType":5126,"count":515,"type":"VEC2","name":"accessorUVs"},{"bufferView":4,"componentType":5126,"count":70,"max":[2.875],"min":[0.0],"type":"SCALAR","name":"accessorAnimationInput"},{"bufferView":5,"componentType":5126,"count":70,"type":"VEC4","name":"accessorAnimationRotations"},{"bufferView":4,"byteOffset":280,"componentType":5126,"count":70,"max":[2.875],"min":[0.0],"type":"SCALAR","name":"accessorAnimationInput"},{"bufferView":5,"byteOffset":1120,"componentType":5126,"count":70,"type":"VEC4","name":"accessorAnimationRotations"},{"bufferView":4,"byteOffset":560,"componentType":5126,"count":70,"max":[2.875],"min":[0.0],"type":"SCALAR","name":"accessorAnimationInput"},{"bufferView":5,"byteOffset":2240,"componentType":5126,"count":70,"type":"VEC4","name":"accessorAnimationRotations"}],"bufferViews":[{"buffer":0,"byteLength":139824,"name":"bufferViewScalar"},{"buffer":0,"byteOffset":139824,"byteLength":333624,"byteStride":12,"name":"bufferViewFloatVec3"},{"buffer":0,"byteOffset":473448,"byteLength":222416,"byteStride":16,"name":"bufferViewFloatVec4"},{"buffer":0,"byteOffset":695864,"byteLength":111208,"byteStride":8,"name":"bufferViewFloatVec2"},{"buffer":0,"byteOffset":807072,"byteLength":840,"name":"bufferViewAnimationFloatScalar"},{"buffer":0,"byteOffset":807912,"byteLength":3360,"name":"bufferViewAnimationFloatVec4"}],"buffers":[{"uri":"yzjg2_3.bin","byteLength":811272}],"materials":[{"pbrMetallicRoughness":{"baseColorFactor":[0.52696085,0.7312092,1.0,1.0],"metallicFactor":0.0,"roughnessFactor":0.9},"emissiveFactor":[0.303529441,0.4211765,0.5835295],"alphaMode":"OPAQUE","name":"zhongzi_m"},{"pbrMetallicRoughness":{"baseColorFactor":[0.7843139,0.310457528,0.236928135,1.0],"metallicFactor":0.0,"roughnessFactor":0.9},"emissiveFactor":[0.4517648,0.178823531,0.1364706],"alphaMode":"OPAQUE","name":"zhizi_m"},{"pbrMetallicRoughness":{"baseColorFactor":[0.5336121,0.5336121,0.5336121,0.5436893],"metallicFactor":0.121552825,"roughnessFactor":0.6},"emissiveFactor":[0.0,0.0,0.0],"alphaMode":"BLEND","name":"guidao_waiceng_touming"},{"pbrMetallicRoughness":{"baseColorFactor":[0.27610445,0.27610445,0.27610445,1.0],"metallicFactor":0.0,"roughnessFactor":0.0},"emissiveFactor":[0.0,0.0,0.0],"alphaMode":"OPAQUE","name":"guidao_m"},{"pbrMetallicRoughness":{"baseColorFactor":[1.0,0.959282458,0.1572975,1.0],"metallicFactor":0.0,"roughnessFactor":0.9},"emissiveFactor":[0.3911765,0.368364424,0.06040224],"alphaMode":"OPAQUE","name":"dianzi_m0_6"}],"animations":[{"channels":[{"sampler":0,"target":{"node":6,"path":"rotation"}},{"sampler":1,"target":{"node":10,"path":"rotation"}},{"sampler":2,"target":{"node":13,"path":"rotation"}}],"samplers":[{"input":50,"interpolation":"LINEAR","output":51},{"input":52,"interpolation":"LINEAR","output":53},{"input":54,"interpolation":"LINEAR","output":55}],"name":"Animation"}],"extensions":{"KHR_lights":{"lights":[{"color":[1.0,1.0,1.0],"intensity":1.0,"type":"ambient"}]}}}