{"asset":{"version":"2.0","generator":"babylon.js glTF exporter for maya 2018 v1.2.16","copyright":"2017 (c) BabylonJS"},"extensionsUsed":["KHR_lights"],"scene":0,"scenes":[{"nodes":[0],"extensions":{"KHR_lights":{"light":0}}}],"nodes":[{"children":[1,2,3,4,5,6,7,23,24],"translation":[0.0,0.0,0.0],"rotation":[0.0,0.0,0.0,1.0],"scale":[1.0,1.0,1.0],"name":"guidao"},{"mesh":0,"translation":[0.0,0.0,0.0],"rotation":[0.0,0.0,0.0,1.0],"scale":[1.0,1.0,1.0],"name":"guidao_waike"},{"mesh":1,"translation":[0.0,0.0,0.0],"rotation":[0.0,0.0,0.0,1.0],"scale":[1.0,1.0,1.0],"name":"guidao_neiceng"},{"mesh":2,"translation":[0.0,0.0,0.0],"rotation":[0.0,0.0,0.0,1.0],"scale":[1.0,1.0,1.0],"name":"zhongzi1"},{"mesh":3,"translation":[0.0,0.0,0.0],"rotation":[0.0,0.0,0.0,1.0],"scale":[1.0,1.0,1.0],"name":"zhizi1"},{"mesh":4,"translation":[0.0,0.0,0.0],"rotation":[0.0,0.0,0.0,1.0],"scale":[1.0,1.0,1.0],"name":"guidao_neiceng1"},{"mesh":5,"translation":[0.0,0.0,0.0],"rotation":[0.0,0.0,0.0,1.0],"scale":[1.0,1.0,1.0],"name":"guidao_waiceng2"},{"children":[8,11,14,17,20],"translation":[0.0,0.0,0.0],"rotation":[0.0,0.0,0.0,1.0],"scale":[1.0,1.0,1.0],"name":"guidao_waiceng1"},{"children":[9,10],"translation":[0.0,0.0,0.0],"rotation":[0.707106769,0.0,0.0,0.707106769],"scale":[1.0,1.0,1.0],"name":"ani8"},{"mesh":6,"translation":[0.0,0.0,0.0],"rotation":[0.0,0.181116208,0.0,0.9834617],"scale":[1.0,1.0,1.0],"name":"dianzi3"},{"mesh":7,"translation":[0.0,0.0,0.0],"rotation":[0.0,0.0,0.258819044,0.9659258],"scale":[1.0,1.0,1.0],"name":"polySurface24"},{"children":[12,13],"translation":[0.0,0.0,0.0],"rotation":[0.0,0.0,0.0,1.0],"scale":[1.0,1.0,1.0],"name":"ani7"},{"mesh":8,"translation":[0.0,0.0,0.0],"rotation":[0.0,0.181116208,0.0,0.9834617],"scale":[1.0,1.0,1.0],"name":"dianzi3 (1)"},{"mesh":9,"translation":[0.0,0.0,0.0],"rotation":[0.0,0.0,0.258819044,0.9659258],"scale":[1.0,1.0,1.0],"name":"polySurface24 (1)"},{"children":[15,16],"translation":[0.0,0.0,0.0],"rotation":[0.0,0.0,-0.258819044,0.9659258],"scale":[1.0,1.0,1.0],"name":"ani6"},{"mesh":10,"translation":[0.0,0.0,0.0],"rotation":[0.0,0.181116208,0.0,0.9834617],"scale":[1.0,1.0,1.0],"name":"dianzi3 (2)"},{"mesh":11,"translation":[0.0,0.0,0.0],"rotation":[0.0,0.0,0.258819044,0.9659258],"scale":[1.0,1.0,1.0],"name":"polySurface24 (2)"},{"children":[18,19],"translation":[0.0,0.0,0.0],"rotation":[0.0,0.0,0.0,1.0],"scale":[1.0,1.0,1.0],"name":"ani5"},{"mesh":12,"translation":[0.0,0.0,0.0],"rotation":[0.0,0.0,0.0,1.0],"scale":[1.0,1.0,1.0],"name":"polySurface25"},{"mesh":13,"translation":[0.0,0.0,0.0],"rotation":[0.181116208,0.0,0.0,0.9834617],"scale":[1.0,1.0,1.0],"name":"dianzi2"},{"children":[21,22],"translation":[0.0,0.0,0.0],"rotation":[0.0,0.0,0.258819044,0.9659258],"scale":[1.0,1.0,1.0],"name":"ani4"},{"mesh":14,"translation":[0.0,0.0,0.0],"rotation":[0.0,0.0,-0.258819044,0.9659258],"scale":[1.0,1.0,1.0],"name":"polySurface23"},{"mesh":15,"translation":[0.0,0.0,0.0],"rotation":[0.0,0.181116208,0.0,0.9834617],"scale":[1.0,1.0,1.0],"name":"dianzi1"},{"mesh":16,"translation":[0.0,0.0,0.0],"rotation":[0.0,0.181116208,0.0,0.9834617],"scale":[1.0,1.0,1.0],"name":"dianzi2 (1)"},{"mesh":17,"translation":[0.0,0.0,0.0],"rotation":[0.0,0.0,0.181116208,0.9834617],"scale":[1.0,1.0,1.0],"name":"dianzi1 (1)"}],"meshes":[{"primitives":[{"attributes":{"POSITION":1,"NORMAL":2,"TANGENT":3,"TEXCOORD_0":4},"indices":0,"mode":4,"material":0}],"name":"guidao_waike"},{"primitives":[{"attributes":{"POSITION":6,"NORMAL":7,"TANGENT":8,"TEXCOORD_0":9},"indices":5,"mode":4,"material":1}],"name":"guidao_neiceng"},{"primitives":[{"attributes":{"POSITION":11,"NORMAL":12,"TANGENT":13,"TEXCOORD_0":14},"indices":10,"mode":4,"material":2}],"name":"zhongzi1"},{"primitives":[{"attributes":{"POSITION":16,"NORMAL":17,"TANGENT":18,"TEXCOORD_0":19},"indices":15,"mode":4,"material":3}],"name":"zhizi1"},{"primitives":[{"attributes":{"POSITION":21,"NORMAL":22,"TANGENT":23,"TEXCOORD_0":24},"indices":20,"mode":4,"material":1}],"name":"guidao_neiceng1"},{"primitives":[{"attributes":{"POSITION":26,"NORMAL":27,"TANGENT":28,"TEXCOORD_0":29},"indices":25,"mode":4,"material":1}],"name":"guidao_waiceng2"},{"primitives":[{"attributes":{"POSITION":31,"NORMAL":32,"TANGENT":33,"TEXCOORD_0":34},"indices":30,"mode":4,"material":4}],"name":"dianzi3"},{"primitives":[{"attributes":{"POSITION":36,"NORMAL":37,"TANGENT":38,"TEXCOORD_0":39},"indices":35,"mode":4,"material":1}],"name":"polySurface24"},{"primitives":[{"attributes":{"POSITION":41,"NORMAL":42,"TANGENT":43,"TEXCOORD_0":44},"indices":40,"mode":4,"material":4}],"name":"dianzi3"},{"primitives":[{"attributes":{"POSITION":46,"NORMAL":47,"TANGENT":48,"TEXCOORD_0":49},"indices":45,"mode":4,"material":1}],"name":"polySurface24"},{"primitives":[{"attributes":{"POSITION":51,"NORMAL":52,"TANGENT":53,"TEXCOORD_0":54},"indices":50,"mode":4,"material":4}],"name":"dianzi3"},{"primitives":[{"attributes":{"POSITION":56,"NORMAL":57,"TANGENT":58,"TEXCOORD_0":59},"indices":55,"mode":4,"material":1}],"name":"polySurface24"},{"primitives":[{"attributes":{"POSITION":61,"NORMAL":62,"TANGENT":63,"TEXCOORD_0":64},"indices":60,"mode":4,"material":1}],"name":"polySurface25"},{"primitives":[{"attributes":{"POSITION":66,"NORMAL":67,"TANGENT":68,"TEXCOORD_0":69},"indices":65,"mode":4,"material":4}],"name":"dianzi2"},{"primitives":[{"attributes":{"POSITION":71,"NORMAL":72,"TANGENT":73,"TEXCOORD_0":74},"indices":70,"mode":4,"material":1}],"name":"polySurface23"},{"primitives":[{"attributes":{"POSITION":76,"NORMAL":77,"TANGENT":78,"TEXCOORD_0":79},"indices":75,"mode":4,"material":4}],"name":"dianzi1"},{"primitives":[{"attributes":{"POSITION":81,"NORMAL":82,"TANGENT":83,"TEXCOORD_0":84},"indices":80,"mode":4,"material":4}],"name":"dianzi2"},{"primitives":[{"attributes":{"POSITION":86,"NORMAL":87,"TANGENT":88,"TEXCOORD_0":89},"indices":85,"mode":4,"material":4}],"name":"dianzi1"}],"accessors":[{"bufferView":0,"componentType":5123,"count":9360,"type":"SCALAR","name":"accessorIndices"},{"bufferView":1,"componentType":5126,"count":1679,"max":[50.0,50.0,50.00001],"min":[-50.00002,-50.0,-50.00003],"type":"VEC3","name":"accessorPositions"},{"bufferView":1,"byteOffset":20148,"componentType":5126,"count":1679,"type":"VEC3","name":"accessorNormals"},{"bufferView":2,"componentType":5126,"count":1679,"type":"VEC4","name":"accessorTangents"},{"bufferView":3,"componentType":5126,"count":1679,"type":"VEC2","name":"accessorUVs"},{"bufferView":0,"byteOffset":18720,"componentType":5123,"count":1920,"type":"SCALAR","name":"accessorIndices"},{"bufferView":1,"byteOffset":40296,"componentType":5126,"count":486,"max":[19.9106026,19.91061,19.9106083],"min":[-19.9106064,-19.91061,-19.9106121],"type":"VEC3","name":"accessorPositions"},{"bufferView":1,"byteOffset":46128,"componentType":5126,"count":486,"type":"VEC3","name":"accessorNormals"},{"bufferView":2,"byteOffset":26864,"componentType":5126,"count":486,"type":"VEC4","name":"accessorTangents"},{"bufferView":3,"byteOffset":13432,"componentType":5126,"count":486,"type":"VEC2","name":"accessorUVs"},{"bufferView":0,"byteOffset":22560,"componentType":5123,"count":25080,"type":"SCALAR","name":"accessorIndices"},{"bufferView":1,"byteOffset":51960,"componentType":5126,"count":4829,"max":[4.07239437,5.20465,3.1515336],"min":[-3.582944,-3.2021215,-3.69509578],"type":"VEC3","name":"accessorPositions"},{"bufferView":1,"byteOffset":109908,"componentType":5126,"count":4829,"type":"VEC3","name":"accessorNormals"},{"bufferView":2,"byteOffset":34640,"componentType":5126,"count":4829,"type":"VEC4","name":"accessorTangents"},{"bufferView":3,"byteOffset":17320,"componentType":5126,"count":4829,"type":"VEC2","name":"accessorUVs"},{"bufferView":0,"byteOffset":72720,"componentType":5123,"count":22800,"type":"SCALAR","name":"accessorIndices"},{"bufferView":1,"byteOffset":167856,"componentType":5126,"count":4390,"max":[3.77034116,4.77181959,4.006095],"min":[-3.37461615,-2.05761266,-3.80214453],"type":"VEC3","name":"accessorPositions"},{"bufferView":1,"byteOffset":220536,"componentType":5126,"count":4390,"type":"VEC3","name":"accessorNormals"},{"bufferView":2,"byteOffset":111904,"componentType":5126,"count":4390,"type":"VEC4","name":"accessorTangents"},{"bufferView":3,"byteOffset":55952,"componentType":5126,"count":4390,"type":"VEC2","name":"accessorUVs"},{"bufferView":0,"byteOffset":118320,"componentType":5123,"count":1920,"type":"SCALAR","name":"accessorIndices"},{"bufferView":1,"byteOffset":273216,"componentType":5126,"count":486,"max":[19.9106026,19.91061,19.9106083],"min":[-19.9106064,-19.91061,-19.9106121],"type":"VEC3","name":"accessorPositions"},{"bufferView":1,"byteOffset":279048,"componentType":5126,"count":486,"type":"VEC3","name":"accessorNormals"},{"bufferView":2,"byteOffset":182144,"componentType":5126,"count":486,"type":"VEC4","name":"accessorTangents"},{"bufferView":3,"byteOffset":91072,"componentType":5126,"count":486,"type":"VEC2","name":"accessorUVs"},{"bufferView":0,"byteOffset":122160,"componentType":5123,"count":4800,"type":"SCALAR","name":"accessorIndices"},{"bufferView":1,"byteOffset":284880,"componentType":5126,"count":1215,"max":[47.44104,47.4410553,47.4410439],"min":[-47.4410477,-47.4410553,-47.4410629],"type":"VEC3","name":"accessorPositions"},{"bufferView":1,"byteOffset":299460,"componentType":5126,"count":1215,"type":"VEC3","name":"accessorNormals"},{"bufferView":2,"byteOffset":189920,"componentType":5126,"count":1215,"type":"VEC4","name":"accessorTangents"},{"bufferView":3,"byteOffset":94960,"componentType":5126,"count":1215,"type":"VEC2","name":"accessorUVs"},{"bufferView":0,"byteOffset":131760,"componentType":5123,"count":2304,"type":"SCALAR","name":"accessorIndices"},{"bufferView":1,"byteOffset":314040,"componentType":5126,"count":515,"max":[-46.5698738,0.8064747,0.8720838],"min":[-48.04869,-0.6723442,-0.606734157],"type":"VEC3","name":"accessorPositions"},{"bufferView":1,"byteOffset":320220,"componentType":5126,"count":515,"type":"VEC3","name":"accessorNormals"},{"bufferView":2,"byteOffset":209360,"componentType":5126,"count":515,"type":"VEC4","name":"accessorTangents"},{"bufferView":3,"byteOffset":104680,"componentType":5126,"count":515,"type":"VEC2","name":"accessorUVs"},{"bufferView":0,"byteOffset":136368,"componentType":5123,"count":960,"type":"SCALAR","name":"accessorIndices"},{"bufferView":1,"byteOffset":326400,"componentType":5126,"count":243,"max":[41.08515,23.7205276,47.4410324],"min":[-41.0851631,-23.7205276,-47.44105],"type":"VEC3","name":"accessorPositions"},{"bufferView":1,"byteOffset":329316,"componentType":5126,"count":243,"type":"VEC3","name":"accessorNormals"},{"bufferView":2,"byteOffset":217600,"componentType":5126,"count":243,"type":"VEC4","name":"accessorTangents"},{"bufferView":3,"byteOffset":108800,"componentType":5126,"count":243,"type":"VEC2","name":"accessorUVs"},{"bufferView":0,"byteOffset":138288,"componentType":5123,"count":2304,"type":"SCALAR","name":"accessorIndices"},{"bufferView":1,"byteOffset":332232,"componentType":5126,"count":515,"max":[-46.5698738,0.8064747,0.8720838],"min":[-48.04869,-0.6723442,-0.606734157],"type":"VEC3","name":"accessorPositions"},{"bufferView":1,"byteOffset":338412,"componentType":5126,"count":515,"type":"VEC3","name":"accessorNormals"},{"bufferView":2,"byteOffset":221488,"componentType":5126,"count":515,"type":"VEC4","name":"accessorTangents"},{"bufferView":3,"byteOffset":110744,"componentType":5126,"count":515,"type":"VEC2","name":"accessorUVs"},{"bufferView":0,"byteOffset":142896,"componentType":5123,"count":960,"type":"SCALAR","name":"accessorIndices"},{"bufferView":1,"byteOffset":344592,"componentType":5126,"count":243,"max":[41.08515,23.7205276,47.4410324],"min":[-41.0851631,-23.7205276,-47.44105],"type":"VEC3","name":"accessorPositions"},{"bufferView":1,"byteOffset":347508,"componentType":5126,"count":243,"type":"VEC3","name":"accessorNormals"},{"bufferView":2,"byteOffset":229728,"componentType":5126,"count":243,"type":"VEC4","name":"accessorTangents"},{"bufferView":3,"byteOffset":114864,"componentType":5126,"count":243,"type":"VEC2","name":"accessorUVs"},{"bufferView":0,"byteOffset":144816,"componentType":5123,"count":2304,"type":"SCALAR","name":"accessorIndices"},{"bufferView":1,"byteOffset":350424,"componentType":5126,"count":515,"max":[-46.5698738,0.8064747,0.8720838],"min":[-48.04869,-0.6723442,-0.606734157],"type":"VEC3","name":"accessorPositions"},{"bufferView":1,"byteOffset":356604,"componentType":5126,"count":515,"type":"VEC3","name":"accessorNormals"},{"bufferView":2,"byteOffset":233616,"componentType":5126,"count":515,"type":"VEC4","name":"accessorTangents"},{"bufferView":3,"byteOffset":116808,"componentType":5126,"count":515,"type":"VEC2","name":"accessorUVs"},{"bufferView":0,"byteOffset":149424,"componentType":5123,"count":960,"type":"SCALAR","name":"accessorIndices"},{"bufferView":1,"byteOffset":362784,"componentType":5126,"count":243,"max":[41.08515,23.7205276,47.4410324],"min":[-41.0851631,-23.7205276,-47.44105],"type":"VEC3","name":"accessorPositions"},{"bufferView":1,"byteOffset":365700,"componentType":5126,"count":243,"type":"VEC3","name":"accessorNormals"},{"bufferView":2,"byteOffset":241856,"componentType":5126,"count":243,"type":"VEC4","name":"accessorTangents"},{"bufferView":3,"byteOffset":120928,"componentType":5126,"count":243,"type":"VEC2","name":"accessorUVs"},{"bufferView":0,"byteOffset":151344,"componentType":5123,"count":960,"type":"SCALAR","name":"accessorIndices"},{"bufferView":1,"byteOffset":368616,"componentType":5126,"count":243,"max":[-1.10545216E-05,47.4410553,47.4410324],"min":[-1.52587891E-05,-47.4410553,-47.44105],"type":"VEC3","name":"accessorPositions"},{"bufferView":1,"byteOffset":371532,"componentType":5126,"count":243,"type":"VEC3","name":"accessorNormals"},{"bufferView":2,"byteOffset":245744,"componentType":5126,"count":243,"type":"VEC4","name":"accessorTangents"},{"bufferView":3,"byteOffset":122872,"componentType":5126,"count":243,"type":"VEC2","name":"accessorUVs"},{"bufferView":0,"byteOffset":153264,"componentType":5123,"count":2304,"type":"SCALAR","name":"accessorIndices"},{"bufferView":1,"byteOffset":374448,"componentType":5126,"count":515,"max":[0.781755567,-46.5339279,0.872083664],"min":[-0.6905909,-48.005825,-0.606734157],"type":"VEC3","name":"accessorPositions"},{"bufferView":1,"byteOffset":380628,"componentType":5126,"count":515,"type":"VEC3","name":"accessorNormals"},{"bufferView":2,"byteOffset":249632,"componentType":5126,"count":515,"type":"VEC4","name":"accessorTangents"},{"bufferView":3,"byteOffset":124816,"componentType":5126,"count":515,"type":"VEC2","name":"accessorUVs"},{"bufferView":0,"byteOffset":157872,"componentType":5123,"count":960,"type":"SCALAR","name":"accessorIndices"},{"bufferView":1,"byteOffset":386808,"componentType":5126,"count":243,"max":[41.08515,23.7205276,47.4410324],"min":[-41.0851631,-23.7205276,-47.44105],"type":"VEC3","name":"accessorPositions"},{"bufferView":1,"byteOffset":389724,"componentType":5126,"count":243,"type":"VEC3","name":"accessorNormals"},{"bufferView":2,"byteOffset":257872,"componentType":5126,"count":243,"type":"VEC4","name":"accessorTangents"},{"bufferView":3,"byteOffset":128936,"componentType":5126,"count":243,"type":"VEC2","name":"accessorUVs"},{"bufferView":0,"byteOffset":159792,"componentType":5123,"count":2304,"type":"SCALAR","name":"accessorIndices"},{"bufferView":1,"byteOffset":392640,"componentType":5126,"count":515,"max":[48.08689,0.7359543,0.739397764],"min":[46.61454,-0.735942841,-0.739420652],"type":"VEC3","name":"accessorPositions"},{"bufferView":1,"byteOffset":398820,"componentType":5126,"count":515,"type":"VEC3","name":"accessorNormals"},{"bufferView":2,"byteOffset":261760,"componentType":5126,"count":515,"type":"VEC4","name":"accessorTangents"},{"bufferView":3,"byteOffset":130880,"componentType":5126,"count":515,"type":"VEC2","name":"accessorUVs"},{"bufferView":0,"byteOffset":164400,"componentType":5123,"count":2304,"type":"SCALAR","name":"accessorIndices"},{"bufferView":1,"byteOffset":405000,"componentType":5126,"count":515,"max":[20.50168,0.791035652,0.8720838],"min":[19.0228634,-0.6877826,-0.606734157],"type":"VEC3","name":"accessorPositions"},{"bufferView":1,"byteOffset":411180,"componentType":5126,"count":515,"type":"VEC3","name":"accessorNormals"},{"bufferView":2,"byteOffset":270000,"componentType":5126,"count":515,"type":"VEC4","name":"accessorTangents"},{"bufferView":3,"byteOffset":135000,"componentType":5126,"count":515,"type":"VEC2","name":"accessorUVs"},{"bufferView":0,"byteOffset":169008,"componentType":5123,"count":2304,"type":"SCALAR","name":"accessorIndices"},{"bufferView":1,"byteOffset":417360,"componentType":5126,"count":515,"max":[0.784110844,20.5086155,0.8720838],"min":[-0.694707155,19.0297985,-0.606734157],"type":"VEC3","name":"accessorPositions"},{"bufferView":1,"byteOffset":423540,"componentType":5126,"count":515,"type":"VEC3","name":"accessorNormals"},{"bufferView":2,"byteOffset":278240,"componentType":5126,"count":515,"type":"VEC4","name":"accessorTangents"},{"bufferView":3,"byteOffset":139120,"componentType":5126,"count":515,"type":"VEC2","name":"accessorUVs"},{"bufferView":4,"componentType":5126,"count":70,"max":[2.875],"min":[0.0],"type":"SCALAR","name":"accessorAnimationInput"},{"bufferView":5,"componentType":5126,"count":70,"type":"VEC4","name":"accessorAnimationRotations"},{"bufferView":4,"byteOffset":280,"componentType":5126,"count":70,"max":[2.875],"min":[0.0],"type":"SCALAR","name":"accessorAnimationInput"},{"bufferView":5,"byteOffset":1120,"componentType":5126,"count":70,"type":"VEC4","name":"accessorAnimationRotations"},{"bufferView":4,"byteOffset":560,"componentType":5126,"count":70,"max":[2.875],"min":[0.0],"type":"SCALAR","name":"accessorAnimationInput"},{"bufferView":5,"byteOffset":2240,"componentType":5126,"count":70,"type":"VEC4","name":"accessorAnimationRotations"},{"bufferView":4,"byteOffset":840,"componentType":5126,"count":70,"max":[2.875],"min":[0.0],"type":"SCALAR","name":"accessorAnimationInput"},{"bufferView":5,"byteOffset":3360,"componentType":5126,"count":70,"type":"VEC4","name":"accessorAnimationRotations"},{"bufferView":4,"byteOffset":1120,"componentType":5126,"count":70,"max":[2.875],"min":[0.0],"type":"SCALAR","name":"accessorAnimationInput"},{"bufferView":5,"byteOffset":4480,"componentType":5126,"count":70,"type":"VEC4","name":"accessorAnimationRotations"},{"bufferView":4,"byteOffset":1400,"componentType":5126,"count":70,"max":[2.875],"min":[0.0],"type":"SCALAR","name":"accessorAnimationInput"},{"bufferView":5,"byteOffset":5600,"componentType":5126,"count":70,"type":"VEC4","name":"accessorAnimationRotations"},{"bufferView":4,"byteOffset":1680,"componentType":5126,"count":70,"max":[2.875],"min":[0.0],"type":"SCALAR","name":"accessorAnimationInput"},{"bufferView":5,"byteOffset":6720,"componentType":5126,"count":70,"type":"VEC4","name":"accessorAnimationRotations"}],"bufferViews":[{"buffer":0,"byteLength":173616,"name":"bufferViewScalar"},{"buffer":0,"byteOffset":173616,"byteLength":429720,"byteStride":12,"name":"bufferViewFloatVec3"},{"buffer":0,"byteOffset":603336,"byteLength":286480,"byteStride":16,"name":"bufferViewFloatVec4"},{"buffer":0,"byteOffset":889816,"byteLength":143240,"byteStride":8,"name":"bufferViewFloatVec2"},{"buffer":0,"byteOffset":1033056,"byteLength":1960,"name":"bufferViewAnimationFloatScalar"},{"buffer":0,"byteOffset":1035016,"byteLength":7840,"name":"bufferViewAnimationFloatVec4"}],"buffers":[{"uri":"yzjg2_4.bin","byteLength":1042856}],"materials":[{"pbrMetallicRoughness":{"baseColorFactor":[0.5336121,0.5336121,0.5336121,0.5436893],"metallicFactor":0.121552825,"roughnessFactor":0.6},"emissiveFactor":[0.0,0.0,0.0],"alphaMode":"BLEND","name":"guidao_waiceng_touming"},{"pbrMetallicRoughness":{"baseColorFactor":[0.27610445,0.27610445,0.27610445,1.0],"metallicFactor":0.0,"roughnessFactor":0.0},"emissiveFactor":[0.0,0.0,0.0],"alphaMode":"OPAQUE","name":"guidao_m"},{"pbrMetallicRoughness":{"baseColorFactor":[0.52696085,0.7312092,1.0,1.0],"metallicFactor":0.0,"roughnessFactor":0.9},"emissiveFactor":[0.303529441,0.4211765,0.5835295],"alphaMode":"OPAQUE","name":"zhongzi_m"},{"pbrMetallicRoughness":{"baseColorFactor":[0.7843139,0.310457528,0.236928135,1.0],"metallicFactor":0.0,"roughnessFactor":0.9},"emissiveFactor":[0.4517648,0.178823531,0.1364706],"alphaMode":"OPAQUE","name":"zhizi_m"},{"pbrMetallicRoughness":{"baseColorFactor":[1.0,0.959282458,0.1572975,1.0],"metallicFactor":0.0,"roughnessFactor":0.9},"emissiveFactor":[0.3911765,0.368364424,0.06040224],"alphaMode":"OPAQUE","name":"dianzi_m0_6"}],"animations":[{"channels":[{"sampler":0,"target":{"node":9,"path":"rotation"}},{"sampler":1,"target":{"node":12,"path":"rotation"}},{"sampler":2,"target":{"node":15,"path":"rotation"}},{"sampler":3,"target":{"node":19,"path":"rotation"}},{"sampler":4,"target":{"node":22,"path":"rotation"}},{"sampler":5,"target":{"node":23,"path":"rotation"}},{"sampler":6,"target":{"node":24,"path":"rotation"}}],"samplers":[{"input":90,"interpolation":"LINEAR","output":91},{"input":92,"interpolation":"LINEAR","output":93},{"input":94,"interpolation":"LINEAR","output":95},{"input":96,"interpolation":"LINEAR","output":97},{"input":98,"interpolation":"LINEAR","output":99},{"input":100,"interpolation":"LINEAR","output":101},{"input":102,"interpolation":"LINEAR","output":103}],"name":"Animation"}],"extensions":{"KHR_lights":{"lights":[{"color":[1.0,1.0,1.0],"intensity":1.0,"type":"ambient"}]}}}