{"asset":{"version":"2.0","generator":"Babylon2Gltf2017","copyright":"2017 (c) BabylonJS"},"scene":0,"scenes":[{"nodes":[0]}],"nodes":[{"mesh":0,"translation":[0.0,0.0,0.0],"rotation":[-0.7071068,0.0,0.0,-0.7071067],"scale":[1.0,1.0,1.0],"name":"对象226"}],"meshes":[{"primitives":[{"attributes":{"POSITION":1,"NORMAL":2,"TEXCOORD_0":3},"indices":0,"mode":4,"material":0}],"name":"对象226"}],"accessors":[{"bufferView":0,"componentType":5123,"count":40320,"type":"SCALAR","name":"accessorIndices"},{"bufferView":1,"componentType":5126,"count":40320,"max":[26.3397579,26.3807163,26.9303017],"min":[-26.177,-26.4283447,-26.8914642],"type":"VEC3","name":"accessorPositions"},{"bufferView":1,"byteOffset":483840,"componentType":5126,"count":40320,"type":"VEC3","name":"accessorNormals"},{"bufferView":2,"componentType":5126,"count":40320,"type":"VEC2","name":"accessorUVs"}],"bufferViews":[{"buffer":0,"byteLength":80640,"name":"bufferViewScalar"},{"buffer":0,"byteOffset":80640,"byteLength":967680,"byteStride":12,"name":"bufferViewFloatVec3"},{"buffer":0,"byteOffset":1048320,"byteLength":322560,"byteStride":8,"name":"bufferViewFloatVec2"}],"buffers":[{"uri":"jingbao1.bin","byteLength":1370880}],"materials":[{"pbrMetallicRoughness":{"baseColorFactor":[0.612745166,0.612745166,0.612745166,1.0],"metallicFactor":0.0,"roughnessFactor":0.9},"emissiveFactor":[0.0,0.0,0.0],"alphaMode":"OPAQUE","name":"01 - Default"}]}