# This file uses centimeters as units for non-parametric coordinates.

mtllib c.mtl
g default
v -15.979885 -1.663751 28.142862
v -16.059364 -1.895420 28.001457
v -15.814450 -1.893132 28.142864
v 0.320304 -24.606390 -0.000004
v 0.565218 -24.604101 -0.141407
v 0.565218 -24.604105 0.141407
v 16.383190 21.502884 28.001459
v 16.138275 21.500595 28.142866
v 16.303711 21.271215 28.142864
v 32.683380 -1.439748 -0.141407
v 32.762856 -1.208081 0.000000
v 32.683376 -1.439748 0.141411
v -0.241392 44.211567 -0.141407
v -0.241392 44.211567 0.141407
v 0.003522 44.213856 0.000000
v 16.303711 21.271214 -28.142864
v 16.138277 21.500595 -28.142862
v 16.383190 21.502882 -28.001457
v -32.439026 20.815550 -0.000001
v -32.359547 21.047218 0.141408
v -32.359547 21.047218 -0.141407
v -15.814450 -1.893132 -28.142864
v -16.059364 -1.895420 -28.001457
v -15.979885 -1.663751 -28.142864
v -16.173197 -1.977522 28.269634
v -16.113306 -1.802940 28.376198
v -32.649841 21.125540 0.106562
v -32.709736 20.950968 -0.000002
v -15.988634 -1.975795 28.376198
v 0.363339 -24.905998 0.000001
v 0.547904 -24.904278 0.106559
v 16.437130 21.410410 28.376198
v 16.312473 21.583256 28.376194
v 0.547906 -24.904278 -0.106555
v -16.173201 -1.977525 -28.269630
v -15.988633 -1.975797 -28.376198
v 32.973671 -1.518071 -0.106554
v 32.973671 -1.518070 0.106549
v 16.497021 21.584982 28.269642
v -0.039506 44.513462 0.000005
v -0.224083 44.511742 0.106566
v 33.033562 -1.343481 -0.000000
v 16.437130 21.410416 -28.376196
v 16.497025 21.584982 -28.269640
v -0.224080 44.511742 -0.106564
v -32.649841 21.125540 -0.106560
v 16.312477 21.583256 -28.376194
v -16.113304 -1.802936 -28.376196
vt 0.001812 0.002496
vt 0.002638 0.001992
vt 0.111153 0.135785
vt 0.110327 0.136290
vt 0.111153 0.136794
vt 0.221834 0.135785
vt 0.221834 0.136794
vt 0.002638 0.270587
vt 0.001812 0.270083
vt 0.229802 0.270587
vt 0.228929 0.270083
vt 0.307192 0.136290
vt 0.308065 0.136794
vt 0.308065 0.135785
vt 0.228929 0.002496
vt 0.229802 0.001992
vt 0.461529 0.135785
vt 0.461529 0.136794
vt 0.111145 0.776835
vt 0.110327 0.776245
vt 0.221008 0.622782
vt 0.221826 0.623372
vt 0.110319 0.777119
vt 0.221834 0.622499
vt 0.112493 0.544519
vt 0.113320 0.544235
vt 0.220349 0.623414
vt 0.112864 0.545893
vt 0.003233 0.697900
vt 0.001812 0.697982
vt 0.110718 0.775421
vt 0.546542 0.001992
vt 0.547415 0.002496
vt 0.469152 0.136289
vt 0.468278 0.135785
vt 0.468278 0.136794
vt 0.547415 0.270083
vt 0.546542 0.270587
vt 0.228937 0.623372
vt 0.229755 0.622782
vt 0.340436 0.776245
vt 0.339618 0.776835
vt 0.228929 0.622499
vt 0.340444 0.777119
vt 0.337443 0.544235
vt 0.338270 0.544519
vt 0.337899 0.545893
vt 0.230414 0.623414
vt 0.447530 0.697900
vt 0.448951 0.697982
vt 0.340045 0.775421
vt 0.555331 0.779593
vt 0.556158 0.780097
vt 0.555331 0.780601
vt 0.338922 0.539935
vt 0.446407 0.407411
vt 0.447504 0.408080
vt 0.340018 0.540604
vt 0.447504 0.406742
vt 0.338922 0.274887
vt 0.340018 0.274218
vt 0.557135 0.408080
vt 0.557135 0.406742
vt 0.563875 0.273209
vt 0.641396 0.405733
vt 0.640237 0.406403
vt 0.562716 0.273879
vt 0.641396 0.407072
vt 0.793403 0.405733
vt 0.793403 0.407072
vt 0.563875 0.539596
vt 0.562716 0.538927
vt 0.754722 0.996911
vt 0.906729 0.887280
vt 0.907512 0.888366
vt 0.755505 0.997997
vt 0.907888 0.887270
vt 0.754345 0.998008
vt 0.829208 0.779795
vt 0.830367 0.779784
vt 0.333341 0.274887
vt 0.225855 0.407411
vt 0.224759 0.406742
vt 0.332244 0.274218
vt 0.224759 0.408080
vt 0.333341 0.539935
vt 0.332244 0.540604
vt 0.747605 0.890512
vt 0.595598 0.780881
vt 0.596381 0.779795
vt 0.748388 0.889426
vt 0.595222 0.779784
vt 0.748764 0.890523
vt 0.670084 0.997997
vt 0.671243 0.998008
vt 0.561739 0.779593
vt 0.562898 0.780262
vt 0.561739 0.780931
vt 0.755007 0.135785
vt 0.832527 0.268309
vt 0.831989 0.269578
vt 0.753725 0.135785
vt 0.832527 0.003261
vt 0.831989 0.001992
vt 0.907888 0.274479
vt 0.800403 0.407003
vt 0.798985 0.407003
vt 0.907500 0.273209
vt 0.907888 0.539526
vt 0.907499 0.540796
vt 0.553381 0.268309
vt 0.660866 0.135785
vt 0.662284 0.135785
vt 0.553769 0.269578
vt 0.553381 0.003261
vt 0.553769 0.001992
vt 0.746144 0.135785
vt 0.668623 0.003261
vt 0.669162 0.001992
vt 0.747425 0.135785
vt 0.668623 0.268309
vt 0.669162 0.269578
vt 0.682455 0.622772
vt 0.792086 0.774779
vt 0.791715 0.776153
vt 0.681034 0.622690
vt 0.899571 0.697258
vt 0.900230 0.697890
vt 0.789940 0.545251
vt 0.789549 0.544427
vt 0.564012 0.774588
vt 0.673643 0.622581
vt 0.675064 0.622499
vt 0.564383 0.775962
vt 0.566158 0.545060
vt 0.566549 0.544235
vt 0.456527 0.697067
vt 0.455868 0.697699
vt 0.588536 0.932232
vt 0.588536 0.780224
vt 0.589640 0.779593
vt 0.589640 0.933056
vt 0.575165 0.889883
vt 0.575165 0.780252
vt 0.576269 0.779593
vt 0.576269 0.890274
vt 0.582955 0.780224
vt 0.582955 0.932232
vt 0.581850 0.933056
vt 0.581850 0.779593
vt 0.569584 0.780252
vt 0.569584 0.889883
vt 0.568479 0.890274
vt 0.568479 0.779593
vn -0.865991 -0.008095 0.499993
vn -0.865991 -0.008095 0.499994
vn -0.865991 -0.008095 0.499994
vn -0.865991 -0.008095 0.499994
vn -0.281037 -0.819159 0.499996
vn -0.281037 -0.819159 0.499996
vn -0.281037 -0.819159 0.499996
vn -0.281037 -0.819159 0.499996
vn -0.000007 0.000007 1.000000
vn -0.000007 0.000007 1.000000
vn -0.000007 0.000007 1.000000
vn -0.000007 0.000007 1.000000
vn -0.281025 -0.819160 -0.500002
vn -0.281025 -0.819160 -0.500002
vn -0.281025 -0.819160 -0.500002
vn -0.281025 -0.819160 -0.500002
vn 0.584958 -0.811064 0.000007
vn 0.584958 -0.811064 0.000007
vn 0.584958 -0.811064 0.000007
vn 0.584958 -0.811064 0.000007
vn 0.281028 0.819160 0.500000
vn 0.281028 0.819160 0.500000
vn 0.281028 0.819160 0.500000
vn 0.281028 0.819160 0.500000
vn 0.865986 0.008095 0.500003
vn 0.865986 0.008095 0.500003
vn 0.865986 0.008095 0.500003
vn 0.865986 0.008095 0.500003
vn 0.865984 0.008095 -0.500006
vn 0.865984 0.008095 -0.500005
vn 0.865984 0.008095 -0.500005
vn 0.865984 0.008095 -0.500005
vn -0.584958 0.811064 0.000000
vn -0.584958 0.811064 0.000000
vn -0.584958 0.811064 0.000000
vn -0.584958 0.811064 0.000000
vn 0.281039 0.819161 -0.499993
vn 0.281039 0.819161 -0.499993
vn 0.281039 0.819161 -0.499993
vn 0.281039 0.819161 -0.499993
vn -0.000007 0.000007 -1.000000
vn -0.000007 0.000007 -1.000000
vn -0.000007 0.000007 -1.000000
vn -0.000007 0.000007 -1.000000
vn -0.865985 -0.008095 -0.500004
vn -0.865985 -0.008095 -0.500004
vn -0.865985 -0.008095 -0.500004
vn -0.865985 -0.008095 -0.500004
vn -0.468253 -0.337740 0.816499
vn -0.468253 -0.337740 0.816499
vn -0.468253 -0.337740 0.816499
vn 0.009321 -0.999957 0.000000
vn 0.009321 -0.999957 0.000000
vn 0.009321 -0.999957 0.000000
vn 0.468276 0.337732 0.816489
vn 0.468277 0.337732 0.816489
vn 0.468277 0.337732 0.816489
vn 0.945892 -0.324481 0.000002
vn 0.945892 -0.324481 0.000002
vn 0.945892 -0.324481 0.000002
vn -0.009321 0.999957 0.000048
vn -0.009321 0.999957 0.000048
vn -0.009321 0.999957 0.000048
vn 0.468268 0.337737 -0.816492
vn 0.468268 0.337737 -0.816492
vn 0.468268 0.337737 -0.816492
vn -0.945884 0.324505 0.000000
vn -0.945884 0.324505 0.000000
vn -0.945884 0.324505 0.000000
vn -0.468290 -0.337720 -0.816486
vn -0.468290 -0.337719 -0.816486
vn -0.468290 -0.337719 -0.816486
vn 0.865988 0.008093 -0.499999
vn 0.865988 0.008093 -0.499999
vn 0.865988 0.008093 -0.499999
vn 0.865988 0.008093 -0.499999
vn 0.281039 0.819159 -0.499995
vn 0.281039 0.819159 -0.499995
vn 0.281039 0.819159 -0.499995
vn 0.281039 0.819159 -0.499995
vn -0.000005 0.000000 -1.000000
vn -0.000005 0.000000 -1.000000
vn -0.000005 0.000000 -1.000000
vn -0.000005 0.000000 -1.000000
vn 0.281028 0.819159 0.500002
vn 0.281028 0.819159 0.500002
vn 0.281028 0.819159 0.500002
vn 0.281028 0.819159 0.500002
vn -0.584958 0.811064 0.000003
vn -0.584958 0.811064 0.000003
vn -0.584958 0.811064 0.000003
vn -0.584958 0.811064 0.000003
vn -0.281030 -0.819159 -0.500001
vn -0.281030 -0.819159 -0.500001
vn -0.281030 -0.819159 -0.500001
vn -0.281030 -0.819159 -0.500001
vn -0.865988 -0.008092 -0.499999
vn -0.865988 -0.008092 -0.499999
vn -0.865988 -0.008092 -0.499999
vn -0.865988 -0.008092 -0.499999
vn -0.865990 -0.008101 0.499996
vn -0.865990 -0.008101 0.499996
vn -0.865990 -0.008101 0.499996
vn -0.865990 -0.008101 0.499996
vn 0.584958 -0.811064 -0.000000
vn 0.584958 -0.811064 -0.000000
vn 0.584958 -0.811064 -0.000000
vn 0.584958 -0.811064 -0.000000
vn -0.281031 -0.819158 0.500003
vn -0.281031 -0.819158 0.500003
vn -0.281030 -0.819158 0.500003
vn -0.281031 -0.819158 0.500003
vn -0.000005 -0.000003 1.000000
vn -0.000005 -0.000003 1.000000
vn -0.000005 -0.000003 1.000000
vn -0.000005 -0.000003 1.000000
vn 0.865988 0.008097 0.499999
vn 0.865988 0.008097 0.499999
vn 0.865988 0.008097 0.499999
vn 0.865988 0.008097 0.499999
vn 0.468273 0.337719 -0.816497
vn 0.468273 0.337719 -0.816496
vn 0.468273 0.337719 -0.816497
vn -0.009337 0.999956 0.000014
vn -0.009337 0.999956 0.000014
vn -0.009337 0.999956 0.000014
vn -0.468263 -0.337728 -0.816498
vn -0.468263 -0.337728 -0.816498
vn -0.468263 -0.337728 -0.816498
vn -0.945895 0.324472 -0.000013
vn -0.945895 0.324472 -0.000013
vn -0.945895 0.324472 -0.000013
vn 0.009345 -0.999956 -0.000009
vn 0.009345 -0.999956 -0.000009
vn 0.009345 -0.999956 -0.000009
vn -0.468272 -0.337720 0.816496
vn -0.468273 -0.337720 0.816496
vn -0.468272 -0.337720 0.816496
vn 0.945891 -0.324484 0.000000
vn 0.945891 -0.324484 0.000000
vn 0.945891 -0.324484 0.000000
vn 0.468264 0.337727 0.816499
vn 0.468264 0.337727 0.816499
vn 0.468264 0.337727 0.816499
vn 0.150041 0.808980 0.568366
vn 0.150041 0.808980 0.568366
vn 0.150041 0.808980 0.568366
vn 0.150041 0.808980 0.568366
vn -0.405860 -0.811371 -0.420660
vn -0.405860 -0.811371 -0.420660
vn -0.405860 -0.811371 -0.420660
vn -0.405860 -0.811371 -0.420660
vn -0.897997 -0.128996 -0.420667
vn -0.897997 -0.128996 -0.420667
vn -0.897997 -0.128996 -0.420667
vn -0.897997 -0.128996 -0.420667
vn 0.814982 -0.112984 0.568366
vn 0.814982 -0.112984 0.568366
vn 0.814982 -0.112984 0.568366
vn 0.814982 -0.112984 0.568366
vn 0.578539 -0.802168 0.147712
vn 0.578539 -0.802168 0.147712
vn 0.578539 -0.802168 0.147712
vn 0.578539 -0.802168 0.147712
vn -0.578538 0.802167 0.147722
vn -0.578538 0.802167 0.147722
vn -0.578538 0.802167 0.147722
vn -0.578538 0.802167 0.147722
vn -0.897995 -0.128981 0.420676
vn -0.897995 -0.128981 0.420676
vn -0.897995 -0.128981 0.420676
vn -0.897995 -0.128981 0.420676
vn 0.814982 -0.112981 -0.568366
vn 0.814982 -0.112981 -0.568366
vn 0.814982 -0.112981 -0.568366
vn 0.814982 -0.112981 -0.568366
vn 0.086414 -0.119816 -0.989028
vn 0.086414 -0.119816 -0.989028
vn 0.086414 -0.119816 -0.989028
vn 0.086414 -0.119816 -0.989028
vn 0.086422 -0.119827 0.989026
vn 0.086422 -0.119827 0.989026
vn 0.086422 -0.119827 0.989026
vn 0.086422 -0.119827 0.989026
vn 0.897995 0.128992 -0.420673
vn 0.897995 0.128992 -0.420673
vn 0.897995 0.128992 -0.420673
vn 0.897995 0.128992 -0.420673
vn -0.814969 0.112996 0.568382
vn -0.814969 0.112996 0.568382
vn -0.814969 0.112996 0.568382
vn -0.814969 0.112996 0.568382
vn -0.150016 -0.808977 0.568376
vn -0.150016 -0.808977 0.568376
vn -0.150016 -0.808977 0.568376
vn -0.150016 -0.808977 0.568376
vn 0.405849 0.811371 -0.420671
vn 0.405849 0.811371 -0.420671
vn 0.405849 0.811371 -0.420671
vn 0.405849 0.811371 -0.420671
vn -0.150014 -0.808974 -0.568382
vn -0.150014 -0.808974 -0.568382
vn -0.150014 -0.808974 -0.568382
vn -0.150014 -0.808974 -0.568382
vn 0.405844 0.811371 0.420675
vn 0.405844 0.811371 0.420675
vn 0.405844 0.811371 0.420675
vn 0.405844 0.811371 0.420675
vn -0.086398 0.119794 -0.989032
vn -0.086398 0.119794 -0.989032
vn -0.086398 0.119794 -0.989032
vn -0.086398 0.119794 -0.989032
vn -0.086393 0.119787 0.989034
vn -0.086393 0.119787 0.989034
vn -0.086393 0.119787 0.989034
vn -0.086393 0.119787 0.989034
vn 0.897995 0.128979 0.420678
vn 0.897995 0.128979 0.420678
vn 0.897995 0.128979 0.420678
vn 0.897995 0.128979 0.420678
vn -0.814968 0.113002 -0.568382
vn -0.814968 0.113002 -0.568382
vn -0.814968 0.113002 -0.568382
vn -0.814968 0.113002 -0.568382
vn 0.578546 -0.802162 -0.147716
vn 0.578546 -0.802162 -0.147716
vn 0.578546 -0.802162 -0.147716
vn 0.578546 -0.802162 -0.147716
vn -0.578538 0.802168 -0.147719
vn -0.578538 0.802167 -0.147719
vn -0.578538 0.802168 -0.147719
vn -0.578538 0.802168 -0.147719
vn 0.150040 0.808977 -0.568370
vn 0.150040 0.808977 -0.568370
vn 0.150040 0.808977 -0.568370
vn 0.150040 0.808977 -0.568370
vn -0.405858 -0.811366 0.420673
vn -0.405858 -0.811366 0.420673
vn -0.405858 -0.811365 0.420673
vn -0.405858 -0.811365 0.420673
s off
g pCube3
usemtl color3SG
f 25/1/1 26/2/2 27/3/3 28/4/4
f 29/10/5 25/11/6 30/12/7 31/13/8
f 26/19/9 29/20/10 32/21/11 33/22/12
f 34/14/13 30/12/14 35/15/15 36/16/16
f 31/13/17 34/14/18 37/17/19 38/18/20
f 33/32/21 39/33/22 40/34/23 41/35/24
f 39/24/25 32/21/26 38/25/27 42/26/28
f 42/45/29 37/46/30 43/40/31 44/43/32
f 41/6/33 45/7/34 46/5/35 27/3/36
f 45/36/37 40/34/38 44/37/39 47/38/40
f 47/39/41 43/40/42 36/41/43 48/42/44
f 28/4/45 46/5/46 48/8/47 35/9/48
f 26/19/49 25/23/50 29/20/51
f 30/12/52 34/14/53 31/13/54
f 39/24/55 33/22/56 32/21/57
f 37/52/58 42/53/59 38/54/60
f 45/36/61 41/35/62 40/34/63
f 43/40/64 47/39/65 44/43/66
f 28/4/67 27/3/68 46/5/69
f 36/41/70 35/44/71 48/42/72
f 2/55/73 19/56/74 20/57/75 1/58/76
f 3/64/77 6/65/78 4/66/79 2/67/80
f 1/73/81 8/74/82 9/75/83 3/76/84
f 5/68/85 22/71/86 23/72/87 4/66/88
f 6/65/89 12/69/90 10/70/91 5/68/92
f 8/74/93 14/79/94 15/80/95 7/77/96
f 7/81/97 11/82/98 12/83/99 9/84/100
f 11/82/101 18/86/102 16/87/103 10/85/104
f 14/62/105 20/57/106 21/59/107 13/63/108
f 13/94/109 17/88/110 18/93/111 15/95/112
f 17/88/113 24/89/114 22/90/115 16/91/116
f 19/56/117 23/60/118 24/61/119 21/59/120
f 1/73/121 3/76/122 2/78/123
f 4/66/124 6/65/125 5/68/126
f 7/77/127 9/75/128 8/74/129
f 10/85/130 12/83/131 11/82/132
f 13/96/133 15/97/134 14/98/135
f 16/91/136 18/93/137 17/88/138
f 19/56/139 21/59/140 20/57/141
f 22/90/142 24/89/143 23/92/144
f 1/137/145 20/131/146 27/134/147 26/138/148
f 19/99/149 2/100/150 25/101/151 28/102/152
f 2/105/153 4/106/154 30/107/155 25/108/156
f 6/29/157 3/31/158 29/20/159 31/30/160
f 3/139/161 9/140/162 32/141/163 29/142/164
f 8/143/165 1/144/166 26/145/167 33/146/168
f 4/106/169 23/109/170 35/110/171 30/107/172
f 22/51/173 5/49/174 34/50/175 36/41/176
f 5/49/177 10/47/178 37/46/179 34/50/180
f 12/28/181 6/29/182 31/30/183 38/25/184
f 7/111/185 15/112/186 40/113/187 39/114/188
f 14/132/189 8/135/190 33/136/191 41/133/192
f 9/27/193 12/28/194 38/25/195 32/21/196
f 11/117/197 7/118/198 39/119/199 42/120/200
f 10/47/201 16/48/202 43/40/203 37/46/204
f 18/121/205 11/117/206 42/120/207 44/122/208
f 13/123/209 21/124/210 46/125/211 45/126/212
f 20/131/213 14/132/214 41/133/215 27/134/216
f 15/112/217 18/115/218 44/116/219 40/113/220
f 17/129/221 13/123/222 45/126/223 47/130/224
f 16/147/225 22/148/226 36/149/227 43/150/228
f 24/151/229 17/152/230 47/153/231 48/154/232
f 21/124/233 24/127/234 48/128/235 46/125/236
f 23/103/237 19/99/238 28/102/239 35/104/240
