{"asset":{"version":"2.0","generator":"Babylon2Gltf2017","copyright":"2017 (c) BabylonJS"},"scene":0,"scenes":[{"nodes":[0]}],"nodes":[{"mesh":0,"translation":[0.0,2.38418579E-07,0.0],"rotation":[0.0,0.130526155,0.0,-0.9914449],"scale":[0.9717937,0.9717937,0.9717937],"name":"Sphere068"}],"meshes":[{"primitives":[{"attributes":{"POSITION":1,"NORMAL":2,"TEXCOORD_0":3},"indices":0,"mode":4,"material":0},{"attributes":{"POSITION":5,"NORMAL":6,"TEXCOORD_0":7},"indices":4,"mode":4,"material":1}],"name":"Sphere068"}],"accessors":[{"bufferView":0,"componentType":5125,"count":1234800,"type":"SCALAR","name":"accessorIndices"},{"bufferView":1,"componentType":5126,"count":1234800,"max":[5.42216539,3.48750949,5.551334],"min":[-5.422165,-3.48750949,-5.551334],"type":"VEC3","name":"accessorPositions"},{"bufferView":1,"byteOffset":14817600,"componentType":5126,"count":1234800,"type":"VEC3","name":"accessorNormals"},{"bufferView":2,"componentType":5126,"count":1234800,"type":"VEC2","name":"accessorUVs"},{"bufferView":0,"byteOffset":4939200,"componentType":5125,"count":735000,"type":"SCALAR","name":"accessorIndices"},{"bufferView":1,"byteOffset":29635200,"componentType":5126,"count":735000,"max":[5.07803249,3.12048721,5.360189],"min":[-4.599155,-3.46900463,-4.86658],"type":"VEC3","name":"accessorPositions"},{"bufferView":1,"byteOffset":38455200,"componentType":5126,"count":735000,"type":"VEC3","name":"accessorNormals"},{"bufferView":2,"byteOffset":9878400,"componentType":5126,"count":735000,"type":"VEC2","name":"accessorUVs"}],"bufferViews":[{"buffer":0,"byteLength":7879200,"name":"bufferViewScalar"},{"buffer":0,"byteOffset":7879200,"byteLength":47275200,"byteStride":12,"name":"bufferViewFloatVec3"},{"buffer":0,"byteOffset":55154400,"byteLength":15758400,"byteStride":8,"name":"bufferViewFloatVec2"}],"buffers":[{"uri":"zmx.bin","byteLength":70912800}],"materials":[{"pbrMetallicRoughness":{"baseColorFactor":[1.0,1.0,1.0,1.0],"baseColorTexture":{"index":0},"metallicFactor":0.0,"roughnessFactor":0.9},"emissiveFactor":[0.0,0.0,0.0],"alphaMode":"BLEND","name":"Material27"},{"pbrMetallicRoughness":{"baseColorFactor":[1.0,1.0,1.0,1.0],"baseColorTexture":{"index":1},"metallicFactor":0.0,"roughnessFactor":0.9},"emissiveFactor":[0.0,0.0,0.0],"alphaMode":"BLEND","name":"Material28"}],"textures":[{"sampler":0,"source":0,"name":"Material27_baseColor.png"},{"sampler":1,"source":1,"name":"Material28_baseColor.png"}],"images":[{"uri":"Material27_baseColor.png"},{"uri":"Material28_baseColor.png"}],"samplers":[{"magFilter":9729,"minFilter":9987,"wrapS":10497,"wrapT":10497},{"magFilter":9729,"minFilter":9987,"wrapS":10497,"wrapT":10497}]}