{"asset":{"version":"2.0","generator":"babylon.js glTF exporter for maya 2018 v1.2.16","copyright":"2017 (c) BabylonJS"},"extensionsUsed":["KHR_lights"],"scene":0,"scenes":[{"nodes":[0],"extensions":{"KHR_lights":{"light":0}}}],"nodes":[{"children":[1,2,3,4,5,6],"translation":[0.0,0.0,0.0],"rotation":[0.0,0.0,0.0,1.0],"scale":[1.0,1.0,1.0],"name":"co2_jt"},{"mesh":0,"translation":[0.0,0.0,42.0546379],"rotation":[0.0,0.0,0.0,1.0],"scale":[82.7598343,82.7598343,82.7598343],"name":"plane_blue"},{"mesh":1,"translation":[0.0,0.0,42.0546379],"rotation":[0.0,0.0,0.707106769,0.707106769],"scale":[82.7598343,82.7598343,82.7598343],"name":"plane_cheng"},{"mesh":2,"translation":[0.0,0.0,-1.13472629],"rotation":[0.0,0.0,0.0,1.0],"scale":[1.0,1.0,1.0],"name":"window_frame"},{"mesh":3,"translation":[0.0,0.0,42.0546379],"rotation":[0.707106769,0.0,0.0,0.707106769],"scale":[82.7598343,82.7598343,82.7598343],"name":"plane_green"},{"mesh":4,"translation":[0.0,0.0,0.0],"rotation":[0.0,0.0,0.0,1.0],"scale":[1.0,1.0,1.0],"name":"yuan"},{"mesh":5,"translation":[0.0,0.0,0.0],"rotation":[0.0,0.0,0.0,1.0],"scale":[1.0,1.0,1.0],"name":"co2_highlight"}],"meshes":[{"primitives":[{"attributes":{"POSITION":1,"NORMAL":2,"TANGENT":3,"TEXCOORD_0":4},"indices":0,"mode":4,"material":0}],"name":"plane_blue"},{"primitives":[{"attributes":{"POSITION":6,"NORMAL":7,"TANGENT":8,"TEXCOORD_0":9},"indices":5,"mode":4,"material":1}],"name":"plane_cheng"},{"primitives":[{"attributes":{"POSITION":11,"NORMAL":12,"TANGENT":13,"TEXCOORD_0":14},"indices":10,"mode":4,"material":2}],"name":"window_frame"},{"primitives":[{"attributes":{"POSITION":16,"NORMAL":17,"TANGENT":18,"TEXCOORD_0":19},"indices":15,"mode":4,"material":3}],"name":"plane_green"},{"primitives":[{"attributes":{"POSITION":21,"NORMAL":22,"TEXCOORD_0":23},"indices":20,"mode":4},{"attributes":{"POSITION":25,"NORMAL":26,"TEXCOORD_0":27},"indices":24,"mode":4,"material":4},{"attributes":{"POSITION":29,"NORMAL":30,"TEXCOORD_0":31},"indices":28,"mode":4,"material":5},{"attributes":{"POSITION":33,"NORMAL":34,"TEXCOORD_0":35},"indices":32,"mode":4,"material":6}],"name":"yuan"},{"primitives":[{"attributes":{"POSITION":37,"NORMAL":38,"TEXCOORD_1":39},"indices":36,"mode":4,"material":7},{"attributes":{"POSITION":41,"NORMAL":42,"TEXCOORD_1":43},"indices":40,"mode":4,"material":8}],"name":"co2_highlight"}],"accessors":[{"bufferView":0,"componentType":5123,"count":24,"type":"SCALAR","name":"accessorIndices"},{"bufferView":1,"componentType":5126,"count":9,"max":[0.50000006,1.11022316E-16,0.50000006],"min":[-0.50000006,-2.98023224E-08,-0.5],"type":"VEC3","name":"accessorPositions"},{"bufferView":1,"byteOffset":108,"componentType":5126,"count":9,"type":"VEC3","name":"accessorNormals"},{"bufferView":2,"componentType":5126,"count":9,"type":"VEC4","name":"accessorTangents"},{"bufferView":3,"componentType":5126,"count":9,"type":"VEC2","name":"accessorUVs"},{"bufferView":0,"byteOffset":48,"componentType":5123,"count":24,"type":"SCALAR","name":"accessorIndices"},{"bufferView":1,"byteOffset":216,"componentType":5126,"count":9,"max":[0.50000006,1.11022316E-16,0.50000006],"min":[-0.50000006,-2.98023224E-08,-0.5],"type":"VEC3","name":"accessorPositions"},{"bufferView":1,"byteOffset":324,"componentType":5126,"count":9,"type":"VEC3","name":"accessorNormals"},{"bufferView":2,"byteOffset":144,"componentType":5126,"count":9,"type":"VEC4","name":"accessorTangents"},{"bufferView":3,"byteOffset":72,"componentType":5126,"count":9,"type":"VEC2","name":"accessorUVs"},{"bufferView":0,"byteOffset":96,"componentType":5123,"count":720,"type":"SCALAR","name":"accessorIndices"},{"bufferView":1,"byteOffset":432,"componentType":5126,"count":384,"max":[42.0243568,42.0243568,85.21373],"min":[-42.02436,-42.02436,1.16500092],"type":"VEC3","name":"accessorPositions"},{"bufferView":1,"byteOffset":5040,"componentType":5126,"count":384,"type":"VEC3","name":"accessorNormals"},{"bufferView":2,"byteOffset":288,"componentType":5126,"count":384,"type":"VEC4","name":"accessorTangents"},{"bufferView":3,"byteOffset":144,"componentType":5126,"count":384,"type":"VEC2","name":"accessorUVs"},{"bufferView":0,"byteOffset":1536,"componentType":5123,"count":24,"type":"SCALAR","name":"accessorIndices"},{"bufferView":1,"byteOffset":9648,"componentType":5126,"count":9,"max":[0.50000006,1.11022316E-16,0.50000006],"min":[-0.50000006,-2.98023224E-08,-0.5],"type":"VEC3","name":"accessorPositions"},{"bufferView":1,"byteOffset":9756,"componentType":5126,"count":9,"type":"VEC3","name":"accessorNormals"},{"bufferView":2,"byteOffset":6432,"componentType":5126,"count":9,"type":"VEC4","name":"accessorTangents"},{"bufferView":3,"byteOffset":3216,"componentType":5126,"count":9,"type":"VEC2","name":"accessorUVs"},{"bufferView":0,"byteOffset":1584,"componentType":5123,"count":6,"type":"SCALAR","name":"accessorIndices"},{"bufferView":1,"byteOffset":9864,"componentType":5126,"count":6,"max":[-36.7080269,41.145153,-42.00969],"min":[-36.71774,-42.8207321,-42.1760941],"type":"VEC3","name":"accessorPositions"},{"bufferView":1,"byteOffset":9936,"componentType":5126,"count":6,"type":"VEC3","name":"accessorNormals"},{"bufferView":3,"byteOffset":3288,"componentType":5126,"count":6,"type":"VEC2","name":"accessorUVs"},{"bufferView":0,"byteOffset":1596,"componentType":5123,"count":18660,"type":"SCALAR","name":"accessorIndices"},{"bufferView":1,"byteOffset":10008,"componentType":5126,"count":6523,"max":[49.5354462,49.54509,-34.28401],"min":[-49.5354462,-49.5258369,-49.39339],"type":"VEC3","name":"accessorPositions"},{"bufferView":1,"byteOffset":88284,"componentType":5126,"count":6523,"type":"VEC3","name":"accessorNormals"},{"bufferView":3,"byteOffset":3336,"componentType":5126,"count":6523,"type":"VEC2","name":"accessorUVs"},{"bufferView":0,"byteOffset":38916,"componentType":5123,"count":8010,"type":"SCALAR","name":"accessorIndices"},{"bufferView":1,"byteOffset":166560,"componentType":5126,"count":8303,"max":[49.5354462,49.5450821,-34.28401],"min":[-49.5354462,-49.5258369,-49.39339],"type":"VEC3","name":"accessorPositions"},{"bufferView":1,"byteOffset":266196,"componentType":5126,"count":8303,"type":"VEC3","name":"accessorNormals"},{"bufferView":3,"byteOffset":55520,"componentType":5126,"count":8303,"type":"VEC2","name":"accessorUVs"},{"bufferView":0,"byteOffset":54936,"componentType":5123,"count":1704,"type":"SCALAR","name":"accessorIndices"},{"bufferView":1,"byteOffset":365832,"componentType":5126,"count":592,"max":[42.8461761,42.82069,42.7981071],"min":[-42.82518,-42.8216133,-42.872448],"type":"VEC3","name":"accessorPositions"},{"bufferView":1,"byteOffset":372936,"componentType":5126,"count":592,"type":"VEC3","name":"accessorNormals"},{"bufferView":3,"byteOffset":121944,"componentType":5126,"count":592,"type":"VEC2","name":"accessorUVs"},{"bufferView":0,"byteOffset":58344,"componentType":5123,"count":47424,"type":"SCALAR","name":"accessorIndices"},{"bufferView":1,"byteOffset":380040,"componentType":5126,"count":16506,"max":[49.5533066,49.52388,91.7249756],"min":[-49.41439,-49.5272446,-8.686286],"type":"VEC3","name":"accessorPositions"},{"bufferView":1,"byteOffset":578112,"componentType":5126,"count":16506,"type":"VEC3","name":"accessorNormals"},{"bufferView":3,"byteOffset":126680,"componentType":5126,"count":16506,"type":"VEC2","name":"accessorUV2s"},{"bufferView":0,"byteOffset":153192,"componentType":5123,"count":19968,"type":"SCALAR","name":"accessorIndices"},{"bufferView":1,"byteOffset":776184,"componentType":5126,"count":7163,"max":[47.3372269,47.23918,89.4246445],"min":[-47.15798,-47.2269135,-6.40158749],"type":"VEC3","name":"accessorPositions"},{"bufferView":1,"byteOffset":862140,"componentType":5126,"count":7163,"type":"VEC3","name":"accessorNormals"},{"bufferView":3,"byteOffset":258728,"componentType":5126,"count":7163,"type":"VEC2","name":"accessorUV2s"}],"bufferViews":[{"buffer":0,"byteLength":193128,"name":"bufferViewScalar"},{"buffer":0,"byteOffset":193128,"byteLength":948096,"byteStride":12,"name":"bufferViewFloatVec3"},{"buffer":0,"byteOffset":1141224,"byteLength":6576,"byteStride":16,"name":"bufferViewFloatVec4"},{"buffer":0,"byteOffset":1147800,"byteLength":316032,"byteStride":8,"name":"bufferViewFloatVec2"}],"buffers":[{"uri":"co2_jt.bin","byteLength":1463832}],"materials":[{"pbrMetallicRoughness":{"baseColorFactor":[0.339852422,0.6503649,1.0,0.480582535],"metallicFactor":0.696612358,"roughnessFactor":0.734195054},"emissiveFactor":[0.0,0.187638968,0.484729975],"alphaMode":"BLEND","name":"blue"},{"pbrMetallicRoughness":{"baseColorFactor":[1.0,0.7596342,0.276008517,0.422330081],"metallicFactor":0.5716069,"roughnessFactor":0.734195054},"emissiveFactor":[0.5007184,0.3068903,0.0],"alphaMode":"BLEND","name":"cheng"},{"pbrMetallicRoughness":{"baseColorFactor":[1.0,1.0,1.0,1.0],"metallicFactor":0.4791667,"roughnessFactor":0.734195054},"emissiveFactor":[0.152912617,0.152912617,0.152912617],"alphaMode":"OPAQUE","name":"blinn2"},{"pbrMetallicRoughness":{"baseColorFactor":[0.289547861,1.0,0.263563961,0.351941764],"metallicFactor":0.546951532,"roughnessFactor":0.734195054},"emissiveFactor":[0.0167511757,0.519417465,0.0],"alphaMode":"BLEND","name":"lv"},{"pbrMetallicRoughness":{"baseColorFactor":[0.303207844,0.0140324477,0.0140324477,1.0],"metallicFactor":0.07897307,"roughnessFactor":0.9},"emissiveFactor":[0.0,0.0,0.0],"alphaMode":"OPAQUE","name":"hong"},{"pbrMetallicRoughness":{"baseColorFactor":[0.00729166763,0.00729166763,0.00729166763,1.0],"metallicFactor":0.0,"roughnessFactor":0.9},"emissiveFactor":[0.0,0.0,0.0],"alphaMode":"OPAQUE","name":"hei"},{"pbrMetallicRoughness":{"baseColorFactor":[0.7464621,0.7464621,0.7464621,1.0],"metallicFactor":0.651132166,"roughnessFactor":0.3},"emissiveFactor":[0.0,0.0,0.0],"alphaMode":"OPAQUE","name":"blinn6"},{"pbrMetallicRoughness":{"baseColorFactor":[1.0,0.000210617829,0.000210617829,1.0],"metallicFactor":0.0195352752,"roughnessFactor":0.9},"emissiveFactor":[0.550970852,0.0,0.0],"alphaMode":"OPAQUE","name":"hong_Highlight"},{"pbrMetallicRoughness":{"baseColorFactor":[0.101132691,0.101132691,0.101132691,1.0],"metallicFactor":0.0,"roughnessFactor":0.9},"emissiveFactor":[0.0513714775,0.0513714775,0.0513714775],"alphaMode":"OPAQUE","name":"hei_Highlight"}],"extensions":{"KHR_lights":{"lights":[{"color":[1.0,1.0,1.0],"intensity":1.0,"type":"ambient"}]}}}