{"asset":{"version":"2.0","generator":"babylon.js glTF exporter for maya 2018 v1.2.16","copyright":"2017 (c) BabylonJS"},"extensionsUsed":["KHR_lights"],"scene":0,"scenes":[{"nodes":[0],"extensions":{"KHR_lights":{"light":0}}}],"nodes":[{"mesh":0,"translation":[0.0,0.0,0.0],"rotation":[0.0,0.0,0.0,1.0],"scale":[1.0,1.0,1.0],"name":"co2_jt_yuan"}],"meshes":[{"primitives":[{"attributes":{"POSITION":1,"NORMAL":2,"TEXCOORD_0":3},"indices":0,"mode":4,"material":0},{"attributes":{"POSITION":5,"NORMAL":6,"TEXCOORD_0":7},"indices":4,"mode":4,"material":1},{"attributes":{"POSITION":9,"NORMAL":10,"TEXCOORD_0":11},"indices":8,"mode":4,"material":2}],"name":"co2_jt_yuan"}],"accessors":[{"bufferView":0,"componentType":5123,"count":1716,"type":"SCALAR","name":"accessorIndices"},{"bufferView":1,"componentType":5126,"count":604,"max":[42.8461761,42.82069,42.7981071],"min":[-42.82518,-42.8216133,-42.872448],"type":"VEC3","name":"accessorPositions"},{"bufferView":1,"byteOffset":7248,"componentType":5126,"count":604,"type":"VEC3","name":"accessorNormals"},{"bufferView":2,"componentType":5126,"count":604,"type":"VEC2","name":"accessorUVs"},{"bufferView":0,"byteOffset":3432,"componentType":5123,"count":51906,"type":"SCALAR","name":"accessorIndices"},{"bufferView":1,"byteOffset":14496,"componentType":5126,"count":18532,"max":[49.5354462,49.5450974,49.3933945],"min":[-49.5354462,-49.5450974,-49.39339],"type":"VEC3","name":"accessorPositions"},{"bufferView":1,"byteOffset":236880,"componentType":5126,"count":18532,"type":"VEC3","name":"accessorNormals"},{"bufferView":2,"byteOffset":4832,"componentType":5126,"count":18532,"type":"VEC2","name":"accessorUVs"},{"bufferView":0,"byteOffset":107244,"componentType":5123,"count":22170,"type":"SCALAR","name":"accessorIndices"},{"bufferView":1,"byteOffset":459264,"componentType":5126,"count":7940,"max":[47.3372269,47.2581024,47.2757],"min":[-47.2327271,-47.24238,-47.379303],"type":"VEC3","name":"accessorPositions"},{"bufferView":1,"byteOffset":554544,"componentType":5126,"count":7940,"type":"VEC3","name":"accessorNormals"},{"bufferView":2,"byteOffset":153088,"componentType":5126,"count":7940,"type":"VEC2","name":"accessorUVs"}],"bufferViews":[{"buffer":0,"byteLength":151584,"name":"bufferViewScalar"},{"buffer":0,"byteOffset":151584,"byteLength":649824,"byteStride":12,"name":"bufferViewFloatVec3"},{"buffer":0,"byteOffset":801408,"byteLength":216608,"byteStride":8,"name":"bufferViewFloatVec2"}],"buffers":[{"uri":"co2_jt_yuan.bin","byteLength":1018016}],"materials":[{"pbrMetallicRoughness":{"baseColorFactor":[0.5120895,0.5120895,0.5120895,1.0],"metallicFactor":0.105912253,"roughnessFactor":0.9},"emissiveFactor":[0.0,0.0,0.0],"alphaMode":"OPAQUE","name":"gun5"},{"pbrMetallicRoughness":{"baseColorFactor":[1.0,0.000210617829,0.000210617829,1.0],"metallicFactor":0.0195352752,"roughnessFactor":0.9},"emissiveFactor":[0.550970852,0.0,0.0],"alphaMode":"OPAQUE","name":"hong_Highlight"},{"pbrMetallicRoughness":{"baseColorFactor":[0.101132691,0.101132691,0.101132691,1.0],"metallicFactor":0.0,"roughnessFactor":0.9},"emissiveFactor":[0.0513714775,0.0513714775,0.0513714775],"alphaMode":"OPAQUE","name":"hei_Highlight"}],"extensions":{"KHR_lights":{"lights":[{"color":[1.0,1.0,1.0],"intensity":1.0,"type":"ambient"}]}}}