{"asset":{"version":"2.0","generator":"Babylon2Gltf2017","copyright":"2017 (c) BabylonJS"},"scene":0,"scenes":[{"nodes":[0,4,5,6,7,8,9,10,11,12]}],"nodes":[{"children":[1,2,3],"translation":[-9.268324E-07,9.623632E-06,-4.93658263E-07],"rotation":[-0.155762479,0.147710681,0.5922314,-0.7766477],"scale":[1.0,0.99999994,1.0],"name":"组001"},{"mesh":0,"translation":[0.364022285,22.3287525,1.0148226],"rotation":[0.0075085815,0.605548,0.00175443816,-0.7957714],"scale":[0.132251188,0.04162299,0.1322512],"name":"对象011"},{"mesh":1,"translation":[-0.29826346,-0.3529289,0.246588767],"rotation":[0.00750871841,0.605547667,0.00175425434,-0.7957717],"scale":[0.000317985861,0.000317985454,0.000317985745],"name":"对象009"},{"skin":0,"mesh":2,"translation":[-0.07842754,14.2962093,0.5429838],"rotation":[0.795771539,-0.00175440044,0.605547845,0.00750854751],"scale":[0.09325422,0.029743176,0.09325437],"name":"Sphere004"},{"translation":[20.2463531,5.716565,10.095686],"rotation":[0.7752612,-0.0271778889,0.243323013,0.582258761],"scale":[0.098980695,0.09898064,0.09898064],"name":"Bone001"},{"translation":[20.5012646,5.799181,10.2261791],"rotation":[0.7752562,-0.0271798018,0.2433228,0.5822655],"scale":[0.0989806354,0.09898063,0.09898061],"name":"Bone002"},{"translation":[18.8508968,5.391657,9.498015],"rotation":[0.7752562,-0.0271798018,0.2433228,0.5822655],"scale":[0.0989806354,0.09898063,0.09898061],"name":"Bone007"},{"translation":[18.58367,5.333312,9.387105],"rotation":[0.7752562,-0.0271798018,0.2433228,0.5822655],"scale":[0.0989806354,0.09898063,0.09898061],"name":"Bone008"},{"translation":[19.1631947,5.460962,9.628642],"rotation":[0.7752562,-0.0271798018,0.2433228,0.5822655],"scale":[0.0989806354,0.09898063,0.09898061],"name":"Bone006"},{"translation":[19.4318,5.51129246,9.732508],"rotation":[0.7752565,-0.0271799453,0.243323237,0.5822649],"scale":[0.09898064,0.09898059,0.0989806652],"name":"Bone005"},{"translation":[19.6994362,5.55738,9.83227],"rotation":[0.775287151,-0.0271655321,0.243325263,0.582223833],"scale":[0.09898072,0.0989805162,0.0989806354],"name":"Bone004"},{"translation":[19.9393024,5.599472,9.922415],"rotation":[0.7752968,-0.0271629486,0.243324727,0.582211435],"scale":[0.09898074,0.0989807,0.09898065],"name":"Bone003"},{"translation":[24.258604,6.87396431,12.01857],"rotation":[0.7752853,-0.02716859,0.243323848,0.5822269],"scale":[0.09898081,0.09898068,0.0989806354],"name":"Bone009"}],"meshes":[{"primitives":[{"attributes":{"POSITION":1,"NORMAL":2,"TEXCOORD_0":3},"indices":0,"mode":4,"material":0}],"name":"对象011"},{"primitives":[{"attributes":{"POSITION":5,"NORMAL":6,"TEXCOORD_0":7},"indices":4,"mode":4,"material":1},{"attributes":{"POSITION":9,"NORMAL":10,"TEXCOORD_0":11},"indices":8,"mode":4,"material":2},{"attributes":{"POSITION":13,"NORMAL":14,"TEXCOORD_0":15},"indices":12,"mode":4,"material":3},{"attributes":{"POSITION":17,"NORMAL":18,"TEXCOORD_0":19},"indices":16,"mode":4,"material":0}],"name":"对象009"},{"primitives":[{"attributes":{"POSITION":21,"NORMAL":22,"TEXCOORD_0":23,"JOINTS_0":24,"WEIGHTS_0":25},"indices":20,"mode":4,"material":4}],"name":"Sphere004"}],"accessors":[{"bufferView":0,"componentType":5123,"count":2208,"type":"SCALAR","name":"accessorIndices"},{"bufferView":1,"componentType":5126,"count":2208,"max":[35.6973038,18.23706,35.6973038],"min":[-35.6973038,-18.2371216,-35.6973038],"type":"VEC3","name":"accessorPositions"},{"bufferView":1,"byteOffset":26496,"componentType":5126,"count":2208,"type":"VEC3","name":"accessorNormals"},{"bufferView":2,"componentType":5126,"count":2208,"type":"VEC2","name":"accessorUVs"},{"bufferView":0,"byteOffset":4416,"componentType":5123,"count":8400,"type":"SCALAR","name":"accessorIndices"},{"bufferView":1,"byteOffset":52992,"componentType":5126,"count":8400,"max":[210452.938,92634.88,210452.875],"min":[-210452.828,-92634.84,-210452.859],"type":"VEC3","name":"accessorPositions"},{"bufferView":1,"byteOffset":153792,"componentType":5126,"count":8400,"type":"VEC3","name":"accessorNormals"},{"bufferView":2,"byteOffset":17664,"componentType":5126,"count":8400,"type":"VEC2","name":"accessorUVs"},{"bufferView":0,"byteOffset":21216,"componentType":5123,"count":96,"type":"SCALAR","name":"accessorIndices"},{"bufferView":1,"byteOffset":254592,"componentType":5126,"count":96,"max":[122712.328,29512.6758,122712.344],"min":[-122712.336,-13015.6113,-122712.406],"type":"VEC3","name":"accessorPositions"},{"bufferView":1,"byteOffset":255744,"componentType":5126,"count":96,"type":"VEC3","name":"accessorNormals"},{"bufferView":2,"byteOffset":84864,"componentType":5126,"count":96,"type":"VEC2","name":"accessorUVs"},{"bufferView":0,"byteOffset":21408,"componentType":5123,"count":1188,"type":"SCALAR","name":"accessorIndices"},{"bufferView":1,"byteOffset":256896,"componentType":5126,"count":1188,"max":[205380.516,91804.63,205084.047],"min":[-204938.9,-86559.8359,-204975.844],"type":"VEC3","name":"accessorPositions"},{"bufferView":1,"byteOffset":271152,"componentType":5126,"count":1188,"type":"VEC3","name":"accessorNormals"},{"bufferView":2,"byteOffset":85632,"componentType":5126,"count":1188,"type":"VEC2","name":"accessorUVs"},{"bufferView":0,"byteOffset":23784,"componentType":5123,"count":5376,"type":"SCALAR","name":"accessorIndices"},{"bufferView":1,"byteOffset":285408,"componentType":5126,"count":5376,"max":[183449.6,92549.0547,183153.219],"min":[-183007.969,76241.38,-183303.813],"type":"VEC3","name":"accessorPositions"},{"bufferView":1,"byteOffset":349920,"componentType":5126,"count":5376,"type":"VEC3","name":"accessorNormals"},{"bufferView":2,"byteOffset":95136,"componentType":5126,"count":5376,"type":"VEC2","name":"accessorUVs"},{"bufferView":0,"byteOffset":34536,"componentType":5123,"count":3648,"type":"SCALAR","name":"accessorIndices"},{"bufferView":1,"byteOffset":414432,"componentType":5126,"count":3648,"max":[634.39325,-241.849915,634.392944],"min":[-634.3932,-464.8156,-634.3925],"type":"VEC3","name":"accessorPositions"},{"bufferView":1,"byteOffset":458208,"componentType":5126,"count":3648,"type":"VEC3","name":"accessorNormals"},{"bufferView":2,"byteOffset":138144,"componentType":5126,"count":3648,"type":"VEC2","name":"accessorUVs"},{"bufferView":3,"componentType":5123,"count":3648,"type":"VEC4","name":"accessorJoints"},{"bufferView":4,"componentType":5126,"count":3648,"type":"VEC4","name":"accessorWeights"},{"bufferView":5,"componentType":5126,"count":9,"type":"MAT4","name":"accessorInverseBindMatrices"},{"bufferView":6,"componentType":5126,"count":37,"max":[1.2],"min":[0.0],"type":"SCALAR","name":"accessorAnimationInput"},{"bufferView":7,"componentType":5126,"count":37,"type":"VEC3","name":"accessorAnimationPositions"},{"bufferView":8,"componentType":5126,"count":37,"type":"VEC4","name":"accessorAnimationRotations"},{"bufferView":7,"byteOffset":444,"componentType":5126,"count":37,"type":"VEC3","name":"accessorAnimationScales"},{"bufferView":6,"byteOffset":148,"componentType":5126,"count":37,"max":[1.2],"min":[0.0],"type":"SCALAR","name":"accessorAnimationInput"},{"bufferView":7,"byteOffset":888,"componentType":5126,"count":37,"type":"VEC3","name":"accessorAnimationPositions"},{"bufferView":8,"byteOffset":592,"componentType":5126,"count":37,"type":"VEC4","name":"accessorAnimationRotations"},{"bufferView":7,"byteOffset":1332,"componentType":5126,"count":37,"type":"VEC3","name":"accessorAnimationScales"},{"bufferView":6,"byteOffset":296,"componentType":5126,"count":37,"max":[1.2],"min":[0.0],"type":"SCALAR","name":"accessorAnimationInput"},{"bufferView":7,"byteOffset":1776,"componentType":5126,"count":37,"type":"VEC3","name":"accessorAnimationPositions"},{"bufferView":8,"byteOffset":1184,"componentType":5126,"count":37,"type":"VEC4","name":"accessorAnimationRotations"},{"bufferView":7,"byteOffset":2220,"componentType":5126,"count":37,"type":"VEC3","name":"accessorAnimationScales"},{"bufferView":6,"byteOffset":444,"componentType":5126,"count":37,"max":[1.2],"min":[0.0],"type":"SCALAR","name":"accessorAnimationInput"},{"bufferView":7,"byteOffset":2664,"componentType":5126,"count":37,"type":"VEC3","name":"accessorAnimationPositions"},{"bufferView":8,"byteOffset":1776,"componentType":5126,"count":37,"type":"VEC4","name":"accessorAnimationRotations"},{"bufferView":7,"byteOffset":3108,"componentType":5126,"count":37,"type":"VEC3","name":"accessorAnimationScales"},{"bufferView":6,"byteOffset":592,"componentType":5126,"count":37,"max":[1.2],"min":[0.0],"type":"SCALAR","name":"accessorAnimationInput"},{"bufferView":7,"byteOffset":3552,"componentType":5126,"count":37,"type":"VEC3","name":"accessorAnimationPositions"},{"bufferView":8,"byteOffset":2368,"componentType":5126,"count":37,"type":"VEC4","name":"accessorAnimationRotations"},{"bufferView":7,"byteOffset":3996,"componentType":5126,"count":37,"type":"VEC3","name":"accessorAnimationScales"},{"bufferView":6,"byteOffset":740,"componentType":5126,"count":37,"max":[1.2],"min":[0.0],"type":"SCALAR","name":"accessorAnimationInput"},{"bufferView":7,"byteOffset":4440,"componentType":5126,"count":37,"type":"VEC3","name":"accessorAnimationPositions"},{"bufferView":8,"byteOffset":2960,"componentType":5126,"count":37,"type":"VEC4","name":"accessorAnimationRotations"},{"bufferView":7,"byteOffset":4884,"componentType":5126,"count":37,"type":"VEC3","name":"accessorAnimationScales"},{"bufferView":6,"byteOffset":888,"componentType":5126,"count":37,"max":[1.2],"min":[0.0],"type":"SCALAR","name":"accessorAnimationInput"},{"bufferView":7,"byteOffset":5328,"componentType":5126,"count":37,"type":"VEC3","name":"accessorAnimationPositions"},{"bufferView":8,"byteOffset":3552,"componentType":5126,"count":37,"type":"VEC4","name":"accessorAnimationRotations"},{"bufferView":7,"byteOffset":5772,"componentType":5126,"count":37,"type":"VEC3","name":"accessorAnimationScales"}],"bufferViews":[{"buffer":0,"byteLength":41832,"name":"bufferViewScalar"},{"buffer":0,"byteOffset":41832,"byteLength":501984,"byteStride":12,"name":"bufferViewFloatVec3"},{"buffer":0,"byteOffset":543816,"byteLength":167328,"byteStride":8,"name":"bufferViewFloatVec2"},{"buffer":0,"byteOffset":711144,"byteLength":29184,"byteStride":8,"name":"bufferViewUnsignedShortVec4"},{"buffer":0,"byteOffset":740328,"byteLength":58368,"byteStride":16,"name":"bufferViewFloatVec4"},{"buffer":0,"byteOffset":798696,"byteLength":576,"name":"bufferViewFloatMat4"},{"buffer":0,"byteOffset":799272,"byteLength":1036,"name":"bufferViewAnimationFloatScalar"},{"buffer":0,"byteOffset":800308,"byteLength":6216,"name":"bufferViewAnimationFloatVec3"},{"buffer":0,"byteOffset":806524,"byteLength":4144,"name":"bufferViewAnimationFloatVec4"}],"buffers":[{"uri":"yangshengqi.bin","byteLength":810668}],"materials":[{"pbrMetallicRoughness":{"baseColorFactor":[1.0,1.0,1.0,1.0],"baseColorTexture":{"index":0},"metallicFactor":0.0,"roughnessFactor":0.9},"emissiveFactor":[0.0,0.0,0.0],"alphaMode":"BLEND","name":"Material_128"},{"pbrMetallicRoughness":{"baseColorFactor":[1.0,1.0,1.0,1.0],"baseColorTexture":{"index":1},"metallicFactor":0.0,"roughnessFactor":0.9},"emissiveFactor":[0.0,0.0,0.0],"alphaMode":"BLEND","name":"Material_130"},{"pbrMetallicRoughness":{"baseColorFactor":[1.0,1.0,1.0,1.0],"baseColorTexture":{"index":2},"metallicFactor":0.0,"roughnessFactor":0.9},"emissiveFactor":[0.0,0.0,0.0],"alphaMode":"BLEND","name":"Material_127"},{"pbrMetallicRoughness":{"baseColorFactor":[1.0,1.0,1.0,1.0],"baseColorTexture":{"index":3},"metallicFactor":0.0,"roughnessFactor":0.9},"emissiveFactor":[0.0,0.0,0.0],"alphaMode":"BLEND","name":"Material_129"},{"pbrMetallicRoughness":{"baseColorFactor":[1.0,1.0,1.0,1.0],"baseColorTexture":{"index":4},"metallicFactor":0.0,"roughnessFactor":0.9},"emissiveFactor":[0.0,0.0,0.0],"alphaMode":"BLEND","name":"Material_170"}],"textures":[{"sampler":0,"source":0,"name":"Material_128_baseColor.png"},{"sampler":1,"source":1,"name":"Material_130_baseColor.png"},{"sampler":2,"source":2,"name":"Material_127_baseColor.png"},{"sampler":3,"source":3,"name":"Material_129_baseColor.png"},{"sampler":4,"source":4,"name":"Material_170_baseColor.png"}],"images":[{"uri":"Material_128_baseColor.png"},{"uri":"Material_130_baseColor.png"},{"uri":"Material_127_baseColor.png"},{"uri":"Material_129_baseColor.png"},{"uri":"Material_170_baseColor.png"}],"samplers":[{"magFilter":9729,"minFilter":9987,"wrapS":10497,"wrapT":10497},{"magFilter":9729,"minFilter":9987,"wrapS":10497,"wrapT":10497},{"magFilter":9729,"minFilter":9987,"wrapS":10497,"wrapT":10497},{"magFilter":9729,"minFilter":9987,"wrapS":10497,"wrapT":10497},{"magFilter":9729,"minFilter":9987,"wrapS":10497,"wrapT":10497}],"animations":[{"channels":[{"sampler":0,"target":{"node":4,"path":"translation"}},{"sampler":1,"target":{"node":4,"path":"rotation"}},{"sampler":2,"target":{"node":4,"path":"scale"}},{"sampler":3,"target":{"node":5,"path":"translation"}},{"sampler":4,"target":{"node":5,"path":"rotation"}},{"sampler":5,"target":{"node":5,"path":"scale"}},{"sampler":6,"target":{"node":6,"path":"translation"}},{"sampler":7,"target":{"node":6,"path":"rotation"}},{"sampler":8,"target":{"node":6,"path":"scale"}},{"sampler":9,"target":{"node":8,"path":"translation"}},{"sampler":10,"target":{"node":8,"path":"rotation"}},{"sampler":11,"target":{"node":8,"path":"scale"}},{"sampler":12,"target":{"node":9,"path":"translation"}},{"sampler":13,"target":{"node":9,"path":"rotation"}},{"sampler":14,"target":{"node":9,"path":"scale"}},{"sampler":15,"target":{"node":10,"path":"translation"}},{"sampler":16,"target":{"node":10,"path":"rotation"}},{"sampler":17,"target":{"node":10,"path":"scale"}},{"sampler":18,"target":{"node":11,"path":"translation"}},{"sampler":19,"target":{"node":11,"path":"rotation"}},{"sampler":20,"target":{"node":11,"path":"scale"}}],"samplers":[{"input":27,"interpolation":"LINEAR","output":28},{"input":27,"interpolation":"LINEAR","output":29},{"input":27,"interpolation":"LINEAR","output":30},{"input":31,"interpolation":"LINEAR","output":32},{"input":31,"interpolation":"LINEAR","output":33},{"input":31,"interpolation":"LINEAR","output":34},{"input":35,"interpolation":"LINEAR","output":36},{"input":35,"interpolation":"LINEAR","output":37},{"input":35,"interpolation":"LINEAR","output":38},{"input":39,"interpolation":"LINEAR","output":40},{"input":39,"interpolation":"LINEAR","output":41},{"input":39,"interpolation":"LINEAR","output":42},{"input":43,"interpolation":"LINEAR","output":44},{"input":43,"interpolation":"LINEAR","output":45},{"input":43,"interpolation":"LINEAR","output":46},{"input":47,"interpolation":"LINEAR","output":48},{"input":47,"interpolation":"LINEAR","output":49},{"input":47,"interpolation":"LINEAR","output":50},{"input":51,"interpolation":"LINEAR","output":52},{"input":51,"interpolation":"LINEAR","output":53},{"input":51,"interpolation":"LINEAR","output":54}]}],"skins":[{"inverseBindMatrices":26,"skeleton":12,"joints":[4,5,6,7,8,9,10,11,12],"name":"skeleton_0"}]}