{"asset":{"version":"2.0","generator":"Babylon2Gltf2017","copyright":"2017 (c) BabylonJS"},"scene":0,"scenes":[{"nodes":[0]}],"nodes":[{"mesh":0,"translation":[0.0,0.0,0.0],"rotation":[-0.7071068,0.0,0.0,-0.7071067],"scale":[1.0,1.0,1.0],"name":"对象017"}],"meshes":[{"primitives":[{"attributes":{"POSITION":1,"NORMAL":2,"TEXCOORD_0":3},"indices":0,"mode":4,"material":0},{"attributes":{"POSITION":5,"NORMAL":6,"TEXCOORD_0":7},"indices":4,"mode":4,"material":1},{"attributes":{"POSITION":9,"NORMAL":10,"TEXCOORD_0":11},"indices":8,"mode":4,"material":2},{"attributes":{"POSITION":13,"NORMAL":14,"TEXCOORD_0":15},"indices":12,"mode":4,"material":3}],"name":"对象017"}],"accessors":[{"bufferView":0,"componentType":5123,"count":840,"type":"SCALAR","name":"accessorIndices"},{"bufferView":1,"componentType":5126,"count":840,"max":[-12.3843679,2.20765018,45.7375641],"min":[-69.7202,-47.93739,-45.7375641],"type":"VEC3","name":"accessorPositions"},{"bufferView":1,"byteOffset":10080,"componentType":5126,"count":840,"type":"VEC3","name":"accessorNormals"},{"bufferView":2,"componentType":5126,"count":840,"type":"VEC2","name":"accessorUVs"},{"bufferView":0,"byteOffset":1680,"componentType":5123,"count":840,"type":"SCALAR","name":"accessorIndices"},{"bufferView":1,"byteOffset":20160,"componentType":5126,"count":840,"max":[69.7202148,2.20765018,45.7375641],"min":[12.3843679,-47.93738,-45.7375641],"type":"VEC3","name":"accessorPositions"},{"bufferView":1,"byteOffset":30240,"componentType":5126,"count":840,"type":"VEC3","name":"accessorNormals"},{"bufferView":2,"byteOffset":6720,"componentType":5126,"count":840,"type":"VEC2","name":"accessorUVs"},{"bufferView":0,"byteOffset":3360,"componentType":5123,"count":2880,"type":"SCALAR","name":"accessorIndices"},{"bufferView":1,"byteOffset":40320,"componentType":5126,"count":2880,"max":[48.70498,-7.17600346,-5.57820559],"min":[45.5093155,-10.364831,-8.767031],"type":"VEC3","name":"accessorPositions"},{"bufferView":1,"byteOffset":74880,"componentType":5126,"count":2880,"type":"VEC3","name":"accessorNormals"},{"bufferView":2,"byteOffset":13440,"componentType":5126,"count":2880,"type":"VEC2","name":"accessorUVs"},{"bufferView":0,"byteOffset":9120,"componentType":5123,"count":2880,"type":"SCALAR","name":"accessorIndices"},{"bufferView":1,"byteOffset":109440,"componentType":5126,"count":2880,"max":[-45.5093155,-7.17600346,-5.57820559],"min":[-48.70498,-10.364831,-8.767031],"type":"VEC3","name":"accessorPositions"},{"bufferView":1,"byteOffset":144000,"componentType":5126,"count":2880,"type":"VEC3","name":"accessorNormals"},{"bufferView":2,"byteOffset":36480,"componentType":5126,"count":2880,"type":"VEC2","name":"accessorUVs"}],"bufferViews":[{"buffer":0,"byteLength":14880,"name":"bufferViewScalar"},{"buffer":0,"byteOffset":14880,"byteLength":178560,"byteStride":12,"name":"bufferViewFloatVec3"},{"buffer":0,"byteOffset":193440,"byteLength":59520,"byteStride":8,"name":"bufferViewFloatVec2"}],"buffers":[{"uri":"jiantou.bin","byteLength":252960}],"materials":[{"pbrMetallicRoughness":{"baseColorFactor":[1.0,1.0,1.0,1.0],"baseColorTexture":{"index":0},"metallicFactor":0.0,"roughnessFactor":0.9},"emissiveFactor":[0.0,0.0,0.0],"alphaMode":"BLEND","name":"Material #340"},{"pbrMetallicRoughness":{"baseColorFactor":[1.0,1.0,1.0,1.0],"baseColorTexture":{"index":1},"metallicFactor":0.0,"roughnessFactor":0.9},"emissiveFactor":[0.0,0.0,0.0],"alphaMode":"BLEND","name":"Material #342"},{"pbrMetallicRoughness":{"baseColorFactor":[1.0,1.0,1.0,1.0],"baseColorTexture":{"index":2},"metallicFactor":0.0,"roughnessFactor":0.9},"emissiveFactor":[0.0,0.0,0.0],"alphaMode":"BLEND","name":"Material #341"},{"pbrMetallicRoughness":{"baseColorFactor":[1.0,1.0,1.0,1.0],"baseColorTexture":{"index":3},"metallicFactor":0.0,"roughnessFactor":0.9},"emissiveFactor":[0.0,0.0,0.0],"alphaMode":"BLEND","name":"Material #339"}],"textures":[{"sampler":0,"source":0,"name":"image04.png"},{"sampler":1,"source":1,"name":"image06.png"},{"sampler":2,"source":2,"name":"image05.png"},{"sampler":3,"source":3,"name":"image03.png"}],"images":[{"uri":"image04.png"},{"uri":"image06.png"},{"uri":"image05.png"},{"uri":"image03.png"}],"samplers":[{"magFilter":9729,"minFilter":9987,"wrapS":10497,"wrapT":10497},{"magFilter":9729,"minFilter":9987,"wrapS":10497,"wrapT":10497},{"magFilter":9729,"minFilter":9987,"wrapS":10497,"wrapT":10497},{"magFilter":9729,"minFilter":9987,"wrapS":10497,"wrapT":10497}]}