{"asset":{"version":"2.0","generator":"Babylon2Gltf2017","copyright":"2017 (c) BabylonJS"},"scene":0,"scenes":[{"nodes":[0]}],"nodes":[{"mesh":0,"translation":[0.0,0.0,0.0],"rotation":[-0.7071068,0.0,0.0,-0.7071067],"scale":[1.0,1.0,1.0],"name":"对象019"}],"meshes":[{"primitives":[{"attributes":{"POSITION":1,"NORMAL":2,"TEXCOORD_0":3},"indices":0,"mode":4,"material":0}],"name":"对象019"}],"accessors":[{"bufferView":0,"componentType":5125,"count":72420,"type":"SCALAR","name":"accessorIndices"},{"bufferView":1,"componentType":5126,"count":72420,"max":[39.63184,-6.46099949,-4.973378],"min":[-39.63149,-10.9624529,-9.474802],"type":"VEC3","name":"accessorPositions"},{"bufferView":1,"byteOffset":869040,"componentType":5126,"count":72420,"type":"VEC3","name":"accessorNormals"},{"bufferView":2,"componentType":5126,"count":72420,"type":"VEC2","name":"accessorUVs"}],"bufferViews":[{"buffer":0,"byteLength":289680,"name":"bufferViewScalar"},{"buffer":0,"byteOffset":289680,"byteLength":1738080,"byteStride":12,"name":"bufferViewFloatVec3"},{"buffer":0,"byteOffset":2027760,"byteLength":579360,"byteStride":8,"name":"bufferViewFloatVec2"}],"buffers":[{"uri":"tang.bin","byteLength":2607120}],"materials":[{"pbrMetallicRoughness":{"baseColorFactor":[1.0,1.0,1.0,1.0],"baseColorTexture":{"index":0},"metallicFactor":0.0,"roughnessFactor":0.9},"emissiveFactor":[0.0,0.0,0.0],"alphaMode":"BLEND","name":"Material #336"}],"textures":[{"sampler":0,"source":0,"name":"image01.png"}],"images":[{"uri":"image01.png"}],"samplers":[{"magFilter":9729,"minFilter":9987,"wrapS":10497,"wrapT":10497}]}