{"asset":{"version":"2.0","generator":"Babylon2Gltf2017","copyright":"2017 (c) BabylonJS"},"scene":0,"scenes":[{"nodes":[0]}],"nodes":[{"mesh":0,"translation":[0.0,0.0,0.0],"rotation":[-0.7071068,0.0,0.0,-0.7071067],"scale":[1.0,1.0,1.0],"name":"对象017"}],"meshes":[{"primitives":[{"attributes":{"POSITION":1,"NORMAL":2,"TEXCOORD_0":3},"indices":0,"mode":4,"material":0},{"attributes":{"POSITION":5,"NORMAL":6,"TEXCOORD_0":7},"indices":4,"mode":4,"material":1},{"attributes":{"POSITION":9,"NORMAL":10,"TEXCOORD_0":11},"indices":8,"mode":4,"material":2},{"attributes":{"POSITION":13,"NORMAL":14,"TEXCOORD_0":15},"indices":12,"mode":4,"material":3},{"attributes":{"POSITION":17,"NORMAL":18,"TEXCOORD_0":19},"indices":16,"mode":4,"material":4},{"attributes":{"POSITION":21,"NORMAL":22,"TEXCOORD_0":23},"indices":20,"mode":4,"material":5},{"attributes":{"POSITION":25,"NORMAL":26,"TEXCOORD_0":27},"indices":24,"mode":4,"material":6},{"attributes":{"POSITION":29,"NORMAL":30,"TEXCOORD_0":31},"indices":28,"mode":4,"material":7}],"name":"对象017"}],"accessors":[{"bufferView":0,"componentType":5125,"count":42,"type":"SCALAR","name":"accessorIndices"},{"bufferView":1,"componentType":5126,"count":42,"max":[81.91071,92.0442657,25.0288334],"min":[-81.91071,-92.0442657,-24.3093834],"type":"VEC3","name":"accessorPositions"},{"bufferView":1,"byteOffset":504,"componentType":5126,"count":42,"type":"VEC3","name":"accessorNormals"},{"bufferView":2,"componentType":5126,"count":42,"type":"VEC2","name":"accessorUVs"},{"bufferView":0,"byteOffset":168,"componentType":5125,"count":840,"type":"SCALAR","name":"accessorIndices"},{"bufferView":1,"byteOffset":1008,"componentType":5126,"count":840,"max":[-12.3843679,2.20765018,45.7375641],"min":[-69.7202,-47.93739,-45.7375641],"type":"VEC3","name":"accessorPositions"},{"bufferView":1,"byteOffset":11088,"componentType":5126,"count":840,"type":"VEC3","name":"accessorNormals"},{"bufferView":2,"byteOffset":336,"componentType":5126,"count":840,"type":"VEC2","name":"accessorUVs"},{"bufferView":0,"byteOffset":3528,"componentType":5125,"count":102,"type":"SCALAR","name":"accessorIndices"},{"bufferView":1,"byteOffset":21168,"componentType":5126,"count":102,"max":[81.91071,92.0442657,25.0288334],"min":[-81.91071,-92.0442657,-24.3093834],"type":"VEC3","name":"accessorPositions"},{"bufferView":1,"byteOffset":22392,"componentType":5126,"count":102,"type":"VEC3","name":"accessorNormals"},{"bufferView":2,"byteOffset":7056,"componentType":5126,"count":102,"type":"VEC2","name":"accessorUVs"},{"bufferView":0,"byteOffset":3936,"componentType":5125,"count":840,"type":"SCALAR","name":"accessorIndices"},{"bufferView":1,"byteOffset":23616,"componentType":5126,"count":840,"max":[69.7202148,2.20765018,45.7375641],"min":[12.3843679,-47.93738,-45.7375641],"type":"VEC3","name":"accessorPositions"},{"bufferView":1,"byteOffset":33696,"componentType":5126,"count":840,"type":"VEC3","name":"accessorNormals"},{"bufferView":2,"byteOffset":7872,"componentType":5126,"count":840,"type":"VEC2","name":"accessorUVs"},{"bufferView":0,"byteOffset":7296,"componentType":5125,"count":2880,"type":"SCALAR","name":"accessorIndices"},{"bufferView":1,"byteOffset":43776,"componentType":5126,"count":2880,"max":[48.70498,-7.17600346,-5.57820559],"min":[45.5093155,-10.364831,-8.767031],"type":"VEC3","name":"accessorPositions"},{"bufferView":1,"byteOffset":78336,"componentType":5126,"count":2880,"type":"VEC3","name":"accessorNormals"},{"bufferView":2,"byteOffset":14592,"componentType":5126,"count":2880,"type":"VEC2","name":"accessorUVs"},{"bufferView":0,"byteOffset":18816,"componentType":5125,"count":2880,"type":"SCALAR","name":"accessorIndices"},{"bufferView":1,"byteOffset":112896,"componentType":5126,"count":2880,"max":[-45.5093155,-7.17600346,-5.57820559],"min":[-48.70498,-10.364831,-8.767031],"type":"VEC3","name":"accessorPositions"},{"bufferView":1,"byteOffset":147456,"componentType":5126,"count":2880,"type":"VEC3","name":"accessorNormals"},{"bufferView":2,"byteOffset":37632,"componentType":5126,"count":2880,"type":"VEC2","name":"accessorUVs"},{"bufferView":0,"byteOffset":30336,"componentType":5125,"count":72420,"type":"SCALAR","name":"accessorIndices"},{"bufferView":1,"byteOffset":182016,"componentType":5126,"count":72420,"max":[39.63184,-6.46099949,-4.973378],"min":[-39.63149,-10.9624529,-9.474802],"type":"VEC3","name":"accessorPositions"},{"bufferView":1,"byteOffset":1051056,"componentType":5126,"count":72420,"type":"VEC3","name":"accessorNormals"},{"bufferView":2,"byteOffset":60672,"componentType":5126,"count":72420,"type":"VEC2","name":"accessorUVs"},{"bufferView":0,"byteOffset":320016,"componentType":5125,"count":60,"type":"SCALAR","name":"accessorIndices"},{"bufferView":1,"byteOffset":1920096,"componentType":5126,"count":60,"max":[54.6071434,2.18292856,0.245196879],"min":[-54.6071434,-19.723774,-14.59044],"type":"VEC3","name":"accessorPositions"},{"bufferView":1,"byteOffset":1920816,"componentType":5126,"count":60,"type":"VEC3","name":"accessorNormals"},{"bufferView":2,"byteOffset":640032,"componentType":5126,"count":60,"type":"VEC2","name":"accessorUVs"}],"bufferViews":[{"buffer":0,"byteLength":320256,"name":"bufferViewScalar"},{"buffer":0,"byteOffset":320256,"byteLength":1921536,"byteStride":12,"name":"bufferViewFloatVec3"},{"buffer":0,"byteOffset":2241792,"byteLength":640512,"byteStride":8,"name":"bufferViewFloatVec2"}],"buffers":[{"uri":"tanhuang.bin","byteLength":2882304}],"materials":[{"pbrMetallicRoughness":{"baseColorFactor":[1.0,1.0,1.0,1.0],"baseColorTexture":{"index":0},"metallicFactor":0.0,"roughnessFactor":0.9},"emissiveFactor":[0.0,0.0,0.0],"alphaMode":"BLEND","name":"Material #853"},{"pbrMetallicRoughness":{"baseColorFactor":[1.0,1.0,1.0,1.0],"baseColorTexture":{"index":1},"metallicFactor":0.0,"roughnessFactor":0.9},"emissiveFactor":[0.0,0.0,0.0],"alphaMode":"BLEND","name":"Material #340"},{"pbrMetallicRoughness":{"baseColorFactor":[1.0,1.0,1.0,1.0],"baseColorTexture":{"index":2},"metallicFactor":0.0,"roughnessFactor":0.9},"emissiveFactor":[0.0,0.0,0.0],"alphaMode":"BLEND","name":"Material #888"},{"pbrMetallicRoughness":{"baseColorFactor":[1.0,1.0,1.0,1.0],"baseColorTexture":{"index":3},"metallicFactor":0.0,"roughnessFactor":0.9},"emissiveFactor":[0.0,0.0,0.0],"alphaMode":"BLEND","name":"Material #342"},{"pbrMetallicRoughness":{"baseColorFactor":[1.0,1.0,1.0,1.0],"baseColorTexture":{"index":4},"metallicFactor":0.0,"roughnessFactor":0.9},"emissiveFactor":[0.0,0.0,0.0],"alphaMode":"BLEND","name":"Material #341"},{"pbrMetallicRoughness":{"baseColorFactor":[1.0,1.0,1.0,1.0],"baseColorTexture":{"index":5},"metallicFactor":0.0,"roughnessFactor":0.9},"emissiveFactor":[0.0,0.0,0.0],"alphaMode":"BLEND","name":"Material #339"},{"pbrMetallicRoughness":{"baseColorFactor":[1.0,1.0,1.0,1.0],"baseColorTexture":{"index":6},"metallicFactor":0.0,"roughnessFactor":0.9},"emissiveFactor":[0.0,0.0,0.0],"alphaMode":"BLEND","name":"Material #336"},{"pbrMetallicRoughness":{"baseColorFactor":[1.0,1.0,1.0,1.0],"baseColorTexture":{"index":7},"metallicFactor":0.0,"roughnessFactor":0.9},"emissiveFactor":[0.0,0.0,0.0],"alphaMode":"BLEND","name":"Material #337"}],"textures":[{"sampler":0,"source":0,"name":"image07.png"},{"sampler":1,"source":1,"name":"image04.png"},{"sampler":2,"source":2,"name":"image08.png"},{"sampler":3,"source":3,"name":"image06.png"},{"sampler":4,"source":4,"name":"image05.png"},{"sampler":5,"source":5,"name":"image03.png"},{"sampler":6,"source":6,"name":"image01.png"},{"sampler":7,"source":7,"name":"image02.png"}],"images":[{"uri":"image07.png"},{"uri":"image04.png"},{"uri":"image08.png"},{"uri":"image06.png"},{"uri":"image05.png"},{"uri":"image03.png"},{"uri":"image01.png"},{"uri":"image02.png"}],"samplers":[{"magFilter":9729,"minFilter":9987,"wrapS":10497,"wrapT":10497},{"magFilter":9729,"minFilter":9987,"wrapS":10497,"wrapT":10497},{"magFilter":9729,"minFilter":9987,"wrapS":10497,"wrapT":10497},{"magFilter":9729,"minFilter":9987,"wrapS":10497,"wrapT":10497},{"magFilter":9729,"minFilter":9987,"wrapS":10497,"wrapT":10497},{"magFilter":9729,"minFilter":9987,"wrapS":10497,"wrapT":10497},{"magFilter":9729,"minFilter":9987,"wrapS":10497,"wrapT":10497},{"magFilter":9729,"minFilter":9987,"wrapS":10497,"wrapT":10497}]}