{"asset":{"version":"2.0","generator":"babylon.js glTF exporter for maya 2018 v1.2.16","copyright":"2017 (c) BabylonJS"},"extensionsUsed":["KHR_lights"],"scene":0,"scenes":[{"nodes":[0,1,8],"extensions":{"KHR_lights":{"light":0}}}],"nodes":[{"mesh":0,"translation":[0.0,0.0,0.0],"rotation":[0.0,0.0,0.0,1.0],"scale":[1.0,1.0,1.0],"name":"kidney1"},{"children":[2,3,4,5,6,7],"translation":[0.0,0.0,1.4386338],"rotation":[0.0,0.0,0.0,1.0],"scale":[1.0,1.0,1.0],"name":"ZI"},{"mesh":1,"translation":[0.0,0.0,0.0],"rotation":[0.0,0.0,0.0,1.0],"scale":[1.0,1.0,1.0],"name":"SDM"},{"mesh":2,"translation":[0.0,0.0,0.0],"rotation":[0.0,0.0,0.0,1.0],"scale":[1.0,1.0,1.0],"name":"SNG"},{"mesh":3,"translation":[0.0,0.0,0.0],"rotation":[0.0,0.0,0.0,1.0],"scale":[1.0,1.0,1.0],"name":"SPZ"},{"mesh":4,"translation":[0.0,0.0,0.0],"rotation":[0.0,0.0,0.0,1.0],"scale":[1.0,1.0,1.0],"name":"SJM"},{"mesh":5,"translation":[0.0,0.0,0.0],"rotation":[0.0,0.0,0.0,1.0],"scale":[1.0,1.0,1.0],"name":"SSZ"},{"mesh":6,"translation":[0.0,0.0,0.0],"rotation":[0.0,0.0,0.0,1.0],"scale":[1.0,1.0,1.0],"name":"SY"},{"children":[9,10,11,12,13,14],"translation":[0.0,0.0,0.0],"rotation":[0.0,0.0,0.0,1.0],"scale":[1.0,1.0,1.0],"name":"GUN"},{"mesh":7,"translation":[0.0,0.0,0.0],"rotation":[0.0,0.0,0.0,1.0],"scale":[1.0,1.0,1.0],"name":"pCube5"},{"mesh":8,"translation":[0.0,0.0,0.0],"rotation":[0.0,0.0,0.0,1.0],"scale":[1.0,1.0,1.0],"name":"pCube2"},{"mesh":9,"translation":[0.0,0.0,0.0],"rotation":[0.0,0.0,0.0,1.0],"scale":[1.0,1.0,1.0],"name":"pCube4"},{"mesh":10,"translation":[0.0,0.0,0.0],"rotation":[0.0,0.0,0.0,1.0],"scale":[1.0,1.0,1.0],"name":"pCube1"},{"mesh":11,"translation":[0.0,0.0,0.0],"rotation":[0.0,0.0,0.0,1.0],"scale":[1.0,1.0,1.0],"name":"pCube3"},{"mesh":12,"translation":[0.0,0.0,0.0],"rotation":[0.0,0.0,0.0,1.0],"scale":[1.0,1.0,1.0],"name":"pCube6"}],"meshes":[{"primitives":[{"attributes":{"POSITION":1,"NORMAL":2,"TANGENT":3,"TEXCOORD_0":4},"indices":0,"mode":4,"material":0},{"attributes":{"POSITION":6,"NORMAL":7,"TANGENT":8,"TEXCOORD_0":9},"indices":5,"mode":4,"material":1},{"attributes":{"POSITION":11,"NORMAL":12,"TANGENT":13,"TEXCOORD_0":14},"indices":10,"mode":4,"material":2}],"name":"kidney1"},{"primitives":[{"attributes":{"POSITION":16,"NORMAL":17,"TANGENT":18,"TEXCOORD_0":19},"indices":15,"mode":4,"material":3}],"name":"SDM"},{"primitives":[{"attributes":{"POSITION":21,"NORMAL":22,"TANGENT":23,"TEXCOORD_0":24},"indices":20,"mode":4,"material":3}],"name":"SNG"},{"primitives":[{"attributes":{"POSITION":26,"NORMAL":27,"TANGENT":28,"TEXCOORD_0":29},"indices":25,"mode":4,"material":3}],"name":"SPZ"},{"primitives":[{"attributes":{"POSITION":31,"NORMAL":32,"TANGENT":33,"TEXCOORD_0":34},"indices":30,"mode":4,"material":3}],"name":"SJM"},{"primitives":[{"attributes":{"POSITION":36,"NORMAL":37,"TANGENT":38,"TEXCOORD_0":39},"indices":35,"mode":4,"material":3}],"name":"SSZ"},{"primitives":[{"attributes":{"POSITION":41,"NORMAL":42,"TANGENT":43,"TEXCOORD_0":44},"indices":40,"mode":4,"material":3}],"name":"SY"},{"primitives":[{"attributes":{"POSITION":46,"NORMAL":47,"TANGENT":48,"TEXCOORD_0":49},"indices":45,"mode":4,"material":3}],"name":"pCube5"},{"primitives":[{"attributes":{"POSITION":51,"NORMAL":52,"TANGENT":53,"TEXCOORD_0":54},"indices":50,"mode":4,"material":3}],"name":"pCube2"},{"primitives":[{"attributes":{"POSITION":56,"NORMAL":57,"TANGENT":58,"TEXCOORD_0":59},"indices":55,"mode":4,"material":3}],"name":"pCube4"},{"primitives":[{"attributes":{"POSITION":61,"NORMAL":62,"TANGENT":63,"TEXCOORD_0":64},"indices":60,"mode":4,"material":3}],"name":"pCube1"},{"primitives":[{"attributes":{"POSITION":66,"NORMAL":67,"TANGENT":68,"TEXCOORD_0":69},"indices":65,"mode":4,"material":3}],"name":"pCube3"},{"primitives":[{"attributes":{"POSITION":71,"NORMAL":72,"TANGENT":73,"TEXCOORD_0":74},"indices":70,"mode":4,"material":3}],"name":"pCube6"}],"accessors":[{"bufferView":0,"componentType":5123,"count":4656,"type":"SCALAR","name":"accessorIndices"},{"bufferView":1,"componentType":5126,"count":840,"max":[7.980322,11.5763626,1.5533402],"min":[-5.8941927,-9.522839,-4.355516],"type":"VEC3","name":"accessorPositions"},{"bufferView":1,"byteOffset":10080,"componentType":5126,"count":840,"type":"VEC3","name":"accessorNormals"},{"bufferView":2,"componentType":5126,"count":840,"type":"VEC4","name":"accessorTangents"},{"bufferView":3,"componentType":5126,"count":840,"type":"VEC2","name":"accessorUVs"},{"bufferView":0,"byteOffset":9312,"componentType":5123,"count":29412,"type":"SCALAR","name":"accessorIndices"},{"bufferView":1,"byteOffset":20160,"componentType":5126,"count":5395,"max":[4.50099564,7.36619568,2.84394264],"min":[-7.980322,-11.5763626,0.3994534],"type":"VEC3","name":"accessorPositions"},{"bufferView":1,"byteOffset":84900,"componentType":5126,"count":5395,"type":"VEC3","name":"accessorNormals"},{"bufferView":2,"byteOffset":13440,"componentType":5126,"count":5395,"type":"VEC4","name":"accessorTangents"},{"bufferView":3,"byteOffset":6720,"componentType":5126,"count":5395,"type":"VEC2","name":"accessorUVs"},{"bufferView":0,"byteOffset":68136,"componentType":5123,"count":17460,"type":"SCALAR","name":"accessorIndices"},{"bufferView":1,"byteOffset":149640,"componentType":5126,"count":3463,"max":[6.67612743,9.351929,4.355516],"min":[-7.53879261,-7.30170441,0.4238994],"type":"VEC3","name":"accessorPositions"},{"bufferView":1,"byteOffset":191196,"componentType":5126,"count":3463,"type":"VEC3","name":"accessorNormals"},{"bufferView":2,"byteOffset":99760,"componentType":5126,"count":3463,"type":"VEC4","name":"accessorTangents"},{"bufferView":3,"byteOffset":49880,"componentType":5126,"count":3463,"type":"VEC2","name":"accessorUVs"},{"bufferView":0,"byteOffset":103056,"componentType":5123,"count":6948,"type":"SCALAR","name":"accessorIndices"},{"bufferView":1,"byteOffset":232752,"componentType":5126,"count":2582,"max":[-11.3461475,0.5574856,2.119395],"min":[-14.634634,-0.493643761,2.07674742],"type":"VEC3","name":"accessorPositions"},{"bufferView":1,"byteOffset":263736,"componentType":5126,"count":2582,"type":"VEC3","name":"accessorNormals"},{"bufferView":2,"byteOffset":155168,"componentType":5126,"count":2582,"type":"VEC4","name":"accessorTangents"},{"bufferView":3,"byteOffset":77584,"componentType":5126,"count":2582,"type":"VEC2","name":"accessorUVs"},{"bufferView":0,"byteOffset":116952,"componentType":5123,"count":6936,"type":"SCALAR","name":"accessorIndices"},{"bufferView":1,"byteOffset":294720,"componentType":5126,"count":2656,"max":[-11.3192387,-6.353484,1.65080822],"min":[-14.6468458,-7.40568447,1.60816038],"type":"VEC3","name":"accessorPositions"},{"bufferView":1,"byteOffset":326592,"componentType":5126,"count":2656,"type":"VEC3","name":"accessorNormals"},{"bufferView":2,"byteOffset":196480,"componentType":5126,"count":2656,"type":"VEC4","name":"accessorTangents"},{"bufferView":3,"byteOffset":98240,"componentType":5126,"count":2656,"type":"VEC2","name":"accessorUVs"},{"bufferView":0,"byteOffset":130824,"componentType":5123,"count":5412,"type":"SCALAR","name":"accessorIndices"},{"bufferView":1,"byteOffset":358464,"componentType":5126,"count":2032,"max":[-11.44449,10.61218,0.05875504],"min":[-14.6657314,9.525752,0.00622689724],"type":"VEC3","name":"accessorPositions"},{"bufferView":1,"byteOffset":382848,"componentType":5126,"count":2032,"type":"VEC3","name":"accessorNormals"},{"bufferView":2,"byteOffset":238976,"componentType":5126,"count":2032,"type":"VEC4","name":"accessorTangents"},{"bufferView":3,"byteOffset":119488,"componentType":5126,"count":2032,"type":"VEC2","name":"accessorUVs"},{"bufferView":0,"byteOffset":141648,"componentType":5123,"count":7056,"type":"SCALAR","name":"accessorIndices"},{"bufferView":1,"byteOffset":407232,"componentType":5126,"count":2698,"max":[-11.3531475,2.51449919,1.43585],"min":[-14.641633,1.46106529,1.39320219],"type":"VEC3","name":"accessorPositions"},{"bufferView":1,"byteOffset":439608,"componentType":5126,"count":2698,"type":"VEC3","name":"accessorNormals"},{"bufferView":2,"byteOffset":271488,"componentType":5126,"count":2698,"type":"VEC4","name":"accessorTangents"},{"bufferView":3,"byteOffset":135744,"componentType":5126,"count":2698,"type":"VEC2","name":"accessorUVs"},{"bufferView":0,"byteOffset":155760,"componentType":5123,"count":7236,"type":"SCALAR","name":"accessorIndices"},{"bufferView":1,"byteOffset":471984,"componentType":5126,"count":2766,"max":[-11.4548912,8.770783,0.0589067936],"min":[-14.6867037,7.713087,0.01610732],"type":"VEC3","name":"accessorPositions"},{"bufferView":1,"byteOffset":505176,"componentType":5126,"count":2766,"type":"VEC3","name":"accessorNormals"},{"bufferView":2,"byteOffset":314656,"componentType":5126,"count":2766,"type":"VEC4","name":"accessorTangents"},{"bufferView":3,"byteOffset":157328,"componentType":5126,"count":2766,"type":"VEC2","name":"accessorUVs"},{"bufferView":0,"byteOffset":170232,"componentType":5123,"count":2652,"type":"SCALAR","name":"accessorIndices"},{"bufferView":1,"byteOffset":538368,"componentType":5126,"count":1044,"max":[-11.37821,4.42585,0.9684632],"min":[-13.6218777,3.33595276,0.9231966],"type":"VEC3","name":"accessorPositions"},{"bufferView":1,"byteOffset":550896,"componentType":5126,"count":1044,"type":"VEC3","name":"accessorNormals"},{"bufferView":2,"byteOffset":358912,"componentType":5126,"count":1044,"type":"VEC4","name":"accessorTangents"},{"bufferView":3,"byteOffset":179456,"componentType":5126,"count":1044,"type":"VEC2","name":"accessorUVs"},{"bufferView":0,"byteOffset":175536,"componentType":5123,"count":36,"type":"SCALAR","name":"accessorIndices"},{"bufferView":1,"byteOffset":563424,"componentType":5126,"count":24,"max":[-7.16654158,-6.818815,3.128013],"min":[-10.9950619,-6.941187,3.00564146],"type":"VEC3","name":"accessorPositions"},{"bufferView":1,"byteOffset":563712,"componentType":5126,"count":24,"type":"VEC3","name":"accessorNormals"},{"bufferView":2,"byteOffset":375616,"componentType":5126,"count":24,"type":"VEC4","name":"accessorTangents"},{"bufferView":3,"byteOffset":187808,"componentType":5126,"count":24,"type":"VEC2","name":"accessorUVs"},{"bufferView":0,"byteOffset":175608,"componentType":5123,"count":36,"type":"SCALAR","name":"accessorIndices"},{"bufferView":1,"byteOffset":564000,"componentType":5126,"count":24,"max":[-1.359388,8.380059,1.53303218],"min":[-10.9950619,8.25768852,1.41066074],"type":"VEC3","name":"accessorPositions"},{"bufferView":1,"byteOffset":564288,"componentType":5126,"count":24,"type":"VEC3","name":"accessorNormals"},{"bufferView":2,"byteOffset":376000,"componentType":5126,"count":24,"type":"VEC4","name":"accessorTangents"},{"bufferView":3,"byteOffset":188000,"componentType":5126,"count":24,"type":"VEC2","name":"accessorUVs"},{"bufferView":0,"byteOffset":175680,"componentType":5123,"count":36,"type":"SCALAR","name":"accessorIndices"},{"bufferView":1,"byteOffset":564576,"componentType":5126,"count":24,"max":[-7.646786,0.118928194,3.59396839],"min":[-10.9950619,-0.00344330072,3.47159672],"type":"VEC3","name":"accessorPositions"},{"bufferView":1,"byteOffset":564864,"componentType":5126,"count":24,"type":"VEC3","name":"accessorNormals"},{"bufferView":2,"byteOffset":376384,"componentType":5126,"count":24,"type":"VEC4","name":"accessorTangents"},{"bufferView":3,"byteOffset":188192,"componentType":5126,"count":24,"type":"VEC2","name":"accessorUVs"},{"bufferView":0,"byteOffset":175752,"componentType":5123,"count":36,"type":"SCALAR","name":"accessorIndices"},{"bufferView":1,"byteOffset":565152,"componentType":5126,"count":24,"max":[-3.073654,10.204814,1.53303218],"min":[-10.9950619,10.0824423,1.41066074],"type":"VEC3","name":"accessorPositions"},{"bufferView":1,"byteOffset":565440,"componentType":5126,"count":24,"type":"VEC3","name":"accessorNormals"},{"bufferView":2,"byteOffset":376768,"componentType":5126,"count":24,"type":"VEC4","name":"accessorTangents"},{"bufferView":3,"byteOffset":188384,"componentType":5126,"count":24,"type":"VEC2","name":"accessorUVs"},{"bufferView":0,"byteOffset":175824,"componentType":5123,"count":36,"type":"SCALAR","name":"accessorIndices"},{"bufferView":1,"byteOffset":565728,"componentType":5126,"count":24,"max":[-6.39135456,2.054188,2.93261],"min":[-10.9950619,1.93181658,2.8102386],"type":"VEC3","name":"accessorPositions"},{"bufferView":1,"byteOffset":566016,"componentType":5126,"count":24,"type":"VEC3","name":"accessorNormals"},{"bufferView":2,"byteOffset":377152,"componentType":5126,"count":24,"type":"VEC4","name":"accessorTangents"},{"bufferView":3,"byteOffset":188576,"componentType":5126,"count":24,"type":"VEC2","name":"accessorUVs"},{"bufferView":0,"byteOffset":175896,"componentType":5123,"count":36,"type":"SCALAR","name":"accessorIndices"},{"bufferView":1,"byteOffset":566304,"componentType":5126,"count":24,"max":[-0.264153063,3.8948164,2.440691],"min":[-10.9950619,3.77244473,2.31831956],"type":"VEC3","name":"accessorPositions"},{"bufferView":1,"byteOffset":566592,"componentType":5126,"count":24,"type":"VEC3","name":"accessorNormals"},{"bufferView":2,"byteOffset":377536,"componentType":5126,"count":24,"type":"VEC4","name":"accessorTangents"},{"bufferView":3,"byteOffset":188768,"componentType":5126,"count":24,"type":"VEC2","name":"accessorUVs"}],"bufferViews":[{"buffer":0,"byteLength":175968,"name":"bufferViewScalar"},{"buffer":0,"byteOffset":175968,"byteLength":566880,"byteStride":12,"name":"bufferViewFloatVec3"},{"buffer":0,"byteOffset":742848,"byteLength":377920,"byteStride":16,"name":"bufferViewFloatVec4"},{"buffer":0,"byteOffset":1120768,"byteLength":188960,"byteStride":8,"name":"bufferViewFloatVec2"}],"buffers":[{"uri":"shen.bin","byteLength":1309728}],"materials":[{"pbrMetallicRoughness":{"baseColorFactor":[1.0,1.0,1.0,1.0],"baseColorTexture":{"index":0,"texCoord":0},"metallicFactor":0.0,"roughnessFactor":0.9},"emissiveFactor":[0.0,0.0,0.0],"alphaMode":"OPAQUE","name":"lambert2"},{"pbrMetallicRoughness":{"baseColorFactor":[1.0,1.0,1.0,1.0],"baseColorTexture":{"index":1,"texCoord":0},"metallicFactor":0.0,"roughnessFactor":0.9},"emissiveFactor":[0.0,0.0,0.0],"alphaMode":"OPAQUE","name":"lambert4"},{"pbrMetallicRoughness":{"baseColorFactor":[1.0,1.0,1.0,1.0],"baseColorTexture":{"index":2,"texCoord":0},"metallicFactor":0.0,"roughnessFactor":0.9},"emissiveFactor":[0.0,0.0,0.0],"alphaMode":"OPAQUE","name":"lambert3"},{"pbrMetallicRoughness":{"baseColorFactor":[0.5208334,0.5208334,0.5208334,1.0],"metallicFactor":0.0,"roughnessFactor":0.9},"emissiveFactor":[0.0,0.0,0.0],"alphaMode":"OPAQUE","name":"lambert5"}],"textures":[{"sampler":0,"source":0,"name":"lambert2_baseColor.jpg"},{"sampler":1,"source":1,"name":"lambert4_baseColor.jpg"},{"sampler":2,"source":2,"name":"lambert3_baseColor.jpg"}],"images":[{"uri":"lambert2_baseColor.jpg"},{"uri":"lambert4_baseColor.jpg"},{"uri":"lambert3_baseColor.jpg"}],"samplers":[{"magFilter":9729,"minFilter":9987,"wrapS":10497,"wrapT":10497},{"magFilter":9729,"minFilter":9987,"wrapS":10497,"wrapT":10497},{"magFilter":9729,"minFilter":9987,"wrapS":10497,"wrapT":10497}],"extensions":{"KHR_lights":{"lights":[{"color":[1.0,1.0,1.0],"intensity":1.0,"type":"ambient"}]}}}