{"asset":{"version":"2.0","generator":"Babylon2Gltf2017","copyright":"2017 (c) BabylonJS"},"scene":0,"scenes":[{"nodes":[0,1]}],"nodes":[{"mesh":0,"translation":[1.015878,21.6938553,-0.177422047],"rotation":[0.0,0.0,0.0,-1.0],"scale":[0.128822863,0.128822863,0.128822863],"name":"对象008"},{"mesh":1,"translation":[1.015878,21.6938553,-0.177422047],"rotation":[0.0,0.0,0.0,-1.0],"scale":[0.128822863,0.128822863,0.128822863],"name":"对象009"}],"meshes":[{"primitives":[{"attributes":{"POSITION":1,"NORMAL":2,"TEXCOORD_0":3},"indices":0,"mode":4,"material":0}],"name":"对象008"},{"primitives":[{"attributes":{"POSITION":5,"NORMAL":6,"TEXCOORD_0":7},"indices":4,"mode":4,"material":1}],"name":"对象009"}],"accessors":[{"bufferView":0,"componentType":5123,"count":35316,"type":"SCALAR","name":"accessorIndices"},{"bufferView":1,"componentType":5126,"count":35316,"max":[302.618073,272.713623,311.881165],"min":[-318.389771,-168.400665,-309.1267],"type":"VEC3","name":"accessorPositions"},{"bufferView":1,"byteOffset":423792,"componentType":5126,"count":35316,"type":"VEC3","name":"accessorNormals"},{"bufferView":2,"componentType":5126,"count":35316,"type":"VEC2","name":"accessorUVs"},{"bufferView":0,"byteOffset":70632,"componentType":5123,"count":4008,"type":"SCALAR","name":"accessorIndices"},{"bufferView":1,"byteOffset":847584,"componentType":5126,"count":4008,"max":[248.914871,438.895233,185.135315],"min":[-6.087922,-438.895325,35.8329163],"type":"VEC3","name":"accessorPositions"},{"bufferView":1,"byteOffset":895680,"componentType":5126,"count":4008,"type":"VEC3","name":"accessorNormals"},{"bufferView":2,"byteOffset":282528,"componentType":5126,"count":4008,"type":"VEC2","name":"accessorUVs"}],"bufferViews":[{"buffer":0,"byteLength":78648,"name":"bufferViewScalar"},{"buffer":0,"byteOffset":78648,"byteLength":943776,"byteStride":12,"name":"bufferViewFloatVec3"},{"buffer":0,"byteOffset":1022424,"byteLength":314592,"byteStride":8,"name":"bufferViewFloatVec2"}],"buffers":[{"uri":"zuqiu02.bin","byteLength":1337016}],"materials":[{"pbrMetallicRoughness":{"baseColorFactor":[1.0,1.0,1.0,1.0],"baseColorTexture":{"index":0},"metallicFactor":0.0,"roughnessFactor":0.9},"emissiveFactor":[0.0,0.0,0.0],"alphaMode":"OPAQUE","name":"01 - Default"},{"pbrMetallicRoughness":{"baseColorFactor":[1.0,1.0,1.0,1.0],"baseColorTexture":{"index":1},"metallicFactor":0.0,"roughnessFactor":0.9},"emissiveFactor":[0.0,0.0,0.0],"alphaMode":"OPAQUE","name":"02 - Default"}],"textures":[{"sampler":0,"source":0,"name":"image03.jpg"},{"sampler":1,"source":1,"name":"image04.jpg"}],"images":[{"uri":"image03.jpg"},{"uri":"image04.jpg"}],"samplers":[{"magFilter":9729,"minFilter":9987,"wrapS":10497,"wrapT":10497},{"magFilter":9729,"minFilter":9987,"wrapS":10497,"wrapT":10497}]}