{"asset":{"version":"2.0","generator":"Babylon2Gltf2017","copyright":"2017 (c) BabylonJS"},"scene":0,"scenes":[{"nodes":[0,1]}],"nodes":[{"mesh":0,"translation":[3.8921833E-05,9.353083,4.45173836],"rotation":[0.50000006,-0.50000006,-0.49999994,0.5],"scale":[1.0,1.0,1.0],"name":"Line006"},{"mesh":1,"translation":[5.96046448E-08,0.0,0.0],"rotation":[0.0,0.0,0.0,-1.0],"scale":[0.128822863,0.128822863,0.128822863],"name":"对象009"}],"meshes":[{"primitives":[{"attributes":{"POSITION":1,"NORMAL":2,"TEXCOORD_0":3},"indices":0,"mode":4,"material":0}],"name":"Line006"},{"primitives":[{"attributes":{"POSITION":5,"NORMAL":6,"TEXCOORD_0":7},"indices":4,"mode":4,"material":1}],"name":"对象009"}],"accessors":[{"bufferView":0,"componentType":5123,"count":4008,"type":"SCALAR","name":"accessorIndices"},{"bufferView":1,"componentType":5126,"count":4008,"max":[29.98101,25.935976,22.4798183],"min":[-67.751236,-13.4666119,-22.4797363],"type":"VEC3","name":"accessorPositions"},{"bufferView":1,"byteOffset":48096,"componentType":5126,"count":4008,"type":"VEC3","name":"accessorNormals"},{"bufferView":2,"componentType":5126,"count":4008,"type":"VEC2","name":"accessorUVs"},{"bufferView":0,"byteOffset":8016,"componentType":5123,"count":35316,"type":"SCALAR","name":"accessorIndices"},{"bufferView":1,"byteOffset":96192,"componentType":5126,"count":35316,"max":[310.503937,442.141083,310.503937],"min":[-310.5039,-2.961196E-05,-310.503937],"type":"VEC3","name":"accessorPositions"},{"bufferView":1,"byteOffset":519984,"componentType":5126,"count":35316,"type":"VEC3","name":"accessorNormals"},{"bufferView":2,"byteOffset":32064,"componentType":5126,"count":35316,"type":"VEC2","name":"accessorUVs"}],"bufferViews":[{"buffer":0,"byteLength":78648,"name":"bufferViewScalar"},{"buffer":0,"byteOffset":78648,"byteLength":943776,"byteStride":12,"name":"bufferViewFloatVec3"},{"buffer":0,"byteOffset":1022424,"byteLength":314592,"byteStride":8,"name":"bufferViewFloatVec2"}],"buffers":[{"uri":"zuqiu01.bin","byteLength":1337016}],"materials":[{"pbrMetallicRoughness":{"baseColorFactor":[1.0,1.0,1.0,1.0],"baseColorTexture":{"index":0},"metallicFactor":0.0,"roughnessFactor":0.9},"emissiveFactor":[0.0,0.0,0.0],"alphaMode":"OPAQUE","name":"02 - Default"},{"pbrMetallicRoughness":{"baseColorFactor":[1.0,1.0,1.0,1.0],"baseColorTexture":{"index":1},"metallicFactor":0.0,"roughnessFactor":0.9},"emissiveFactor":[0.0,0.0,0.0],"alphaMode":"OPAQUE","name":"01 - Default"}],"textures":[{"sampler":0,"source":0,"name":"image02.jpg"},{"sampler":1,"source":1,"name":"image01.jpg"}],"images":[{"uri":"image02.jpg"},{"uri":"image01.jpg"}],"samplers":[{"magFilter":9729,"minFilter":9987,"wrapS":10497,"wrapT":10497},{"magFilter":9729,"minFilter":9987,"wrapS":10497,"wrapT":10497}]}