{"asset":{"version":"2.0","generator":"Babylon2Gltf2017","copyright":"2017 (c) BabylonJS"},"scene":0,"scenes":[{"nodes":[0,1]}],"nodes":[{"mesh":0,"translation":[0.0,2.3066998E-06,-3.2125447E-06],"rotation":[-0.7071068,0.0,0.0,-0.7071067],"scale":[1.0,1.0,1.0],"name":"051"},{"mesh":1,"translation":[0.0,0.0,0.0],"rotation":[-0.7071068,0.0,0.0,-0.7071067],"scale":[1.0,1.0,1.0],"name":"052"}],"meshes":[{"primitives":[{"attributes":{"POSITION":1,"NORMAL":2,"TEXCOORD_0":3},"indices":0,"mode":4,"material":0}],"name":"051"},{"primitives":[{"attributes":{"POSITION":5,"NORMAL":6,"TEXCOORD_0":7},"indices":4,"mode":4,"material":0}],"name":"052"}],"accessors":[{"bufferView":0,"componentType":5123,"count":18432,"type":"SCALAR","name":"accessorIndices"},{"bufferView":1,"componentType":5126,"count":18432,"max":[36.0,36.0000076,36.0000076],"min":[-36.0,-36.0,-36.0000076],"type":"VEC3","name":"accessorPositions"},{"bufferView":1,"byteOffset":221184,"componentType":5126,"count":18432,"type":"VEC3","name":"accessorNormals"},{"bufferView":2,"componentType":5126,"count":18432,"type":"VEC2","name":"accessorUVs"},{"bufferView":0,"byteOffset":36864,"componentType":5123,"count":23040,"type":"SCALAR","name":"accessorIndices"},{"bufferView":1,"byteOffset":442368,"componentType":5126,"count":23040,"max":[36.0,36.0000076,36.0000076],"min":[-36.0001221,-36.0000153,-36.0000076],"type":"VEC3","name":"accessorPositions"},{"bufferView":1,"byteOffset":718848,"componentType":5126,"count":23040,"type":"VEC3","name":"accessorNormals"},{"bufferView":2,"byteOffset":147456,"componentType":5126,"count":23040,"type":"VEC2","name":"accessorUVs"}],"bufferViews":[{"buffer":0,"byteLength":82944,"name":"bufferViewScalar"},{"buffer":0,"byteOffset":82944,"byteLength":995328,"byteStride":12,"name":"bufferViewFloatVec3"},{"buffer":0,"byteOffset":1078272,"byteLength":331776,"byteStride":8,"name":"bufferViewFloatVec2"}],"buffers":[{"uri":"jingbao1.bin","byteLength":1410048}],"materials":[{"pbrMetallicRoughness":{"baseColorFactor":[0.612745166,0.612745166,0.612745166,1.0],"metallicFactor":0.0,"roughnessFactor":0.9},"emissiveFactor":[0.0,0.0,0.0],"alphaMode":"OPAQUE","name":"01 - Default"}]}