{"asset":{"version":"2.0","generator":"babylon.js glTF exporter for maya 2018 v1.2.16","copyright":"2017 (c) BabylonJS"},"extensionsUsed":["KHR_lights"],"scene":0,"scenes":[{"nodes":[0,3,6,16,17,18,19],"extensions":{"KHR_lights":{"light":0}}}],"nodes":[{"children":[1,2],"translation":[0.0,0.0,0.0],"rotation":[0.0,0.0,0.0,1.0],"scale":[1.0,1.0,1.0],"name":"zi"},{"mesh":0,"translation":[0.0,0.0,0.0],"rotation":[0.0,0.0,0.0,1.0],"scale":[1.0,1.0,1.0],"name":"typeMesh2"},{"mesh":1,"translation":[0.0,0.0,0.0],"rotation":[0.0,0.0,0.0,1.0],"scale":[1.0,1.0,1.0],"name":"typeMesh1"},{"children":[4,5],"translation":[0.0,0.0,0.0],"rotation":[0.0,0.0,0.0,1.0],"scale":[1.0,1.0,1.0],"name":"gun"},{"mesh":2,"translation":[0.0,0.0,0.0],"rotation":[0.0,0.0,0.0,1.0],"scale":[1.0,1.0,1.0],"name":"pCylinder2"},{"mesh":3,"translation":[0.0,0.0,0.0],"rotation":[0.0,0.0,0.0,1.0],"scale":[1.0,1.0,1.0],"name":"pCylinder1"},{"children":[7,8,9,10,11,12,13,14,15],"translation":[0.0,0.0,0.0],"rotation":[0.0,0.0,0.0,1.0],"scale":[1.0,1.0,1.0],"name":"benti"},{"mesh":4,"translation":[0.0,0.0,0.0],"rotation":[0.0,0.0,0.0,1.0],"scale":[1.0,1.0,1.0],"name":"transform1"},{"mesh":5,"translation":[0.0,0.0,0.0],"rotation":[0.0,0.0,0.0,1.0],"scale":[1.0,1.0,1.0],"name":"polySurface9"},{"mesh":6,"translation":[0.0,0.0,0.0],"rotation":[0.0,0.0,0.0,1.0],"scale":[1.0,1.0,1.0],"name":"polySurface8"},{"mesh":7,"translation":[0.0,0.0,0.0],"rotation":[0.0,0.0,0.0,1.0],"scale":[1.0,1.0,1.0],"name":"polySurface7"},{"mesh":8,"translation":[0.0,0.0,0.0],"rotation":[0.0,0.0,0.0,1.0],"scale":[1.0,1.0,1.0],"name":"polySurface6"},{"mesh":9,"translation":[0.0,0.0,0.0],"rotation":[0.0,0.0,0.0,1.0],"scale":[1.0,1.0,1.0],"name":"polySurface5"},{"mesh":10,"translation":[0.0,0.0,0.0],"rotation":[0.0,0.0,0.0,1.0],"scale":[1.0,1.0,1.0],"name":"polySurface3"},{"mesh":11,"translation":[0.0,0.0,0.0],"rotation":[0.0,0.0,0.0,1.0],"scale":[1.0,1.0,1.0],"name":"polySurface10"},{"mesh":12,"translation":[0.0,0.0,0.0],"rotation":[0.0,0.0,0.0,1.0],"scale":[1.0,1.0,1.0],"name":"polySurface11"},{"mesh":13,"translation":[0.0,0.0,0.0],"rotation":[0.0,0.0,0.0,1.0],"scale":[1.0,1.0,1.0],"name":"pCube1"},{"mesh":14,"translation":[0.0,0.0,0.0],"rotation":[0.0,0.0,0.0,1.0],"scale":[1.0,1.0,1.0],"name":"pCube2"},{"mesh":15,"translation":[0.0,0.0,0.0],"rotation":[0.0,0.0,0.0,1.0],"scale":[1.0,1.0,1.0],"name":"pCube3"},{"mesh":16,"translation":[0.0,0.0,0.0],"rotation":[0.0,0.0,0.0,1.0],"scale":[1.0,1.0,1.0],"name":"pCube4"}],"meshes":[{"primitives":[{"attributes":{"POSITION":1,"NORMAL":2,"TANGENT":3,"TEXCOORD_0":4},"indices":0,"mode":4,"material":0}],"name":"typeMesh2"},{"primitives":[{"attributes":{"POSITION":6,"NORMAL":7,"TANGENT":8,"TEXCOORD_0":9},"indices":5,"mode":4,"material":0}],"name":"typeMesh1"},{"primitives":[{"attributes":{"POSITION":11,"NORMAL":12,"TANGENT":13,"TEXCOORD_0":14},"indices":10,"mode":4,"material":0}],"name":"pCylinder2"},{"primitives":[{"attributes":{"POSITION":16,"NORMAL":17,"TANGENT":18,"TEXCOORD_0":19},"indices":15,"mode":4,"material":0}],"name":"pCylinder1"},{"primitives":[{"attributes":{"POSITION":21,"NORMAL":22,"TANGENT":23,"TEXCOORD_0":24},"indices":20,"mode":4,"material":1}],"name":"transform1"},{"primitives":[{"attributes":{"POSITION":26,"NORMAL":27,"TANGENT":28,"TEXCOORD_0":29},"indices":25,"mode":4,"material":2}],"name":"polySurface9"},{"primitives":[{"attributes":{"POSITION":31,"NORMAL":32,"TANGENT":33,"TEXCOORD_0":34},"indices":30,"mode":4,"material":2}],"name":"polySurface8"},{"primitives":[{"attributes":{"POSITION":36,"NORMAL":37,"TANGENT":38,"TEXCOORD_0":39},"indices":35,"mode":4,"material":2}],"name":"polySurface7"},{"primitives":[{"attributes":{"POSITION":41,"NORMAL":42,"TANGENT":43,"TEXCOORD_0":44},"indices":40,"mode":4,"material":2}],"name":"polySurface6"},{"primitives":[{"attributes":{"POSITION":46,"NORMAL":47,"TANGENT":48,"TEXCOORD_0":49},"indices":45,"mode":4,"material":2}],"name":"polySurface5"},{"primitives":[{"attributes":{"POSITION":51,"NORMAL":52,"TANGENT":53,"TEXCOORD_0":54},"indices":50,"mode":4,"material":2}],"name":"polySurface3"},{"primitives":[{"attributes":{"POSITION":56,"NORMAL":57,"TANGENT":58,"TEXCOORD_0":59},"indices":55,"mode":4,"material":2}],"name":"polySurface10"},{"primitives":[{"attributes":{"POSITION":61,"NORMAL":62,"TANGENT":63,"TEXCOORD_0":64},"indices":60,"mode":4,"material":2}],"name":"polySurface11"},{"primitives":[{"attributes":{"POSITION":66,"NORMAL":67,"TANGENT":68,"TEXCOORD_0":69},"indices":65,"mode":4,"material":3}],"name":"pCube1"},{"primitives":[{"attributes":{"POSITION":71,"NORMAL":72,"TANGENT":73,"TEXCOORD_0":74},"indices":70,"mode":4,"material":3}],"name":"pCube2"},{"primitives":[{"attributes":{"POSITION":76,"NORMAL":77,"TANGENT":78,"TEXCOORD_0":79},"indices":75,"mode":4,"material":3}],"name":"pCube3"},{"primitives":[{"attributes":{"POSITION":81,"NORMAL":82,"TANGENT":83,"TEXCOORD_0":84},"indices":80,"mode":4,"material":3}],"name":"pCube4"}],"accessors":[{"bufferView":0,"componentType":5123,"count":3900,"type":"SCALAR","name":"accessorIndices"},{"bufferView":1,"componentType":5126,"count":1484,"max":[18.2367477,35.3859444,0.290181637],"min":[13.6634092,33.2023926,0.201678038],"type":"VEC3","name":"accessorPositions"},{"bufferView":1,"byteOffset":17808,"componentType":5126,"count":1484,"type":"VEC3","name":"accessorNormals"},{"bufferView":2,"componentType":5126,"count":1484,"type":"VEC4","name":"accessorTangents"},{"bufferView":3,"componentType":5126,"count":1484,"type":"VEC2","name":"accessorUVs"},{"bufferView":0,"byteOffset":7800,"componentType":5123,"count":144,"type":"SCALAR","name":"accessorIndices"},{"bufferView":1,"byteOffset":35616,"componentType":5126,"count":72,"max":[1.08853531,32.961216,0.0573627055],"min":[-0.966278434,30.789463,-0.045656383],"type":"VEC3","name":"accessorPositions"},{"bufferView":1,"byteOffset":36480,"componentType":5126,"count":72,"type":"VEC3","name":"accessorNormals"},{"bufferView":2,"byteOffset":23744,"componentType":5126,"count":72,"type":"VEC4","name":"accessorTangents"},{"bufferView":3,"byteOffset":11872,"componentType":5126,"count":72,"type":"VEC2","name":"accessorUVs"},{"bufferView":0,"byteOffset":8088,"componentType":5123,"count":36,"type":"SCALAR","name":"accessorIndices"},{"bufferView":1,"byteOffset":37344,"componentType":5126,"count":20,"max":[15.9960451,32.6619,0.2532152],"min":[15.88989,21.2952557,0.130639434],"type":"VEC3","name":"accessorPositions"},{"bufferView":1,"byteOffset":37584,"componentType":5126,"count":20,"type":"VEC3","name":"accessorNormals"},{"bufferView":2,"byteOffset":24896,"componentType":5126,"count":20,"type":"VEC4","name":"accessorTangents"},{"bufferView":3,"byteOffset":12448,"componentType":5126,"count":20,"type":"VEC2","name":"accessorUVs"},{"bufferView":0,"byteOffset":8160,"componentType":5123,"count":36,"type":"SCALAR","name":"accessorIndices"},{"bufferView":1,"byteOffset":37824,"componentType":5126,"count":20,"max":[0.08049503,30.54803,0.06578184],"min":[-0.025658669,19.1813831,-0.0567939356],"type":"VEC3","name":"accessorPositions"},{"bufferView":1,"byteOffset":38064,"componentType":5126,"count":20,"type":"VEC3","name":"accessorNormals"},{"bufferView":2,"byteOffset":25216,"componentType":5126,"count":20,"type":"VEC4","name":"accessorTangents"},{"bufferView":3,"byteOffset":12608,"componentType":5126,"count":20,"type":"VEC2","name":"accessorUVs"},{"bufferView":0,"byteOffset":8232,"componentType":5123,"count":4260,"type":"SCALAR","name":"accessorIndices"},{"bufferView":1,"byteOffset":38304,"componentType":5126,"count":757,"max":[3.35467553,18.57716,3.35467553],"min":[-3.35467577,-13.1772194,-3.35467672],"type":"VEC3","name":"accessorPositions"},{"bufferView":1,"byteOffset":47388,"componentType":5126,"count":757,"type":"VEC3","name":"accessorNormals"},{"bufferView":2,"byteOffset":25536,"componentType":5126,"count":757,"type":"VEC4","name":"accessorTangents"},{"bufferView":3,"byteOffset":12768,"componentType":5126,"count":757,"type":"VEC2","name":"accessorUVs"},{"bufferView":0,"byteOffset":16752,"componentType":5123,"count":2700,"type":"SCALAR","name":"accessorIndices"},{"bufferView":1,"byteOffset":56472,"componentType":5126,"count":512,"max":[-0.794853,34.24272,2.57139874],"min":[-23.4711876,16.3228989,-1.00277328],"type":"VEC3","name":"accessorPositions"},{"bufferView":1,"byteOffset":62616,"componentType":5126,"count":512,"type":"VEC3","name":"accessorNormals"},{"bufferView":2,"byteOffset":37648,"componentType":5126,"count":512,"type":"VEC4","name":"accessorTangents"},{"bufferView":3,"byteOffset":18824,"componentType":5126,"count":512,"type":"VEC2","name":"accessorUVs"},{"bufferView":0,"byteOffset":22152,"componentType":5123,"count":2700,"type":"SCALAR","name":"accessorIndices"},{"bufferView":1,"byteOffset":68760,"componentType":5126,"count":512,"max":[-0.4502535,21.0121384,-0.45177716],"min":[-17.3592472,16.1903782,-18.902565],"type":"VEC3","name":"accessorPositions"},{"bufferView":1,"byteOffset":74904,"componentType":5126,"count":512,"type":"VEC3","name":"accessorNormals"},{"bufferView":2,"byteOffset":45840,"componentType":5126,"count":512,"type":"VEC4","name":"accessorTangents"},{"bufferView":3,"byteOffset":22920,"componentType":5126,"count":512,"type":"VEC2","name":"accessorUVs"},{"bufferView":0,"byteOffset":27552,"componentType":5123,"count":2700,"type":"SCALAR","name":"accessorIndices"},{"bufferView":1,"byteOffset":81048,"componentType":5126,"count":513,"max":[0.3602407,24.3972626,-0.925901949],"min":[-5.50699854,16.2054749,-23.9511757],"type":"VEC3","name":"accessorPositions"},{"bufferView":1,"byteOffset":87204,"componentType":5126,"count":513,"type":"VEC3","name":"accessorNormals"},{"bufferView":2,"byteOffset":54032,"componentType":5126,"count":513,"type":"VEC4","name":"accessorTangents"},{"bufferView":3,"byteOffset":27016,"componentType":5126,"count":513,"type":"VEC2","name":"accessorUVs"},{"bufferView":0,"byteOffset":32952,"componentType":5123,"count":2700,"type":"SCALAR","name":"accessorIndices"},{"bufferView":1,"byteOffset":93360,"componentType":5126,"count":512,"max":[17.766861,17.2900219,-0.5086339],"min":[0.100713253,14.2025,-21.8336487],"type":"VEC3","name":"accessorPositions"},{"bufferView":1,"byteOffset":99504,"componentType":5126,"count":512,"type":"VEC3","name":"accessorNormals"},{"bufferView":2,"byteOffset":62240,"componentType":5126,"count":512,"type":"VEC4","name":"accessorTangents"},{"bufferView":3,"byteOffset":31120,"componentType":5126,"count":512,"type":"VEC2","name":"accessorUVs"},{"bufferView":0,"byteOffset":38352,"componentType":5123,"count":2700,"type":"SCALAR","name":"accessorIndices"},{"bufferView":1,"byteOffset":105648,"componentType":5126,"count":512,"max":[28.43982,20.8003979,1.43781877],"min":[0.882541955,16.15854,-2.14814162],"type":"VEC3","name":"accessorPositions"},{"bufferView":1,"byteOffset":111792,"componentType":5126,"count":512,"type":"VEC3","name":"accessorNormals"},{"bufferView":2,"byteOffset":70432,"componentType":5126,"count":512,"type":"VEC4","name":"accessorTangents"},{"bufferView":3,"byteOffset":35216,"componentType":5126,"count":512,"type":"VEC2","name":"accessorUVs"},{"bufferView":0,"byteOffset":43752,"componentType":5123,"count":2700,"type":"SCALAR","name":"accessorIndices"},{"bufferView":1,"byteOffset":117936,"componentType":5126,"count":514,"max":[-0.306289375,26.4084225,20.28168],"min":[-18.23405,16.197773,0.560513437],"type":"VEC3","name":"accessorPositions"},{"bufferView":1,"byteOffset":124104,"componentType":5126,"count":514,"type":"VEC3","name":"accessorNormals"},{"bufferView":2,"byteOffset":78624,"componentType":5126,"count":514,"type":"VEC4","name":"accessorTangents"},{"bufferView":3,"byteOffset":39312,"componentType":5126,"count":514,"type":"VEC2","name":"accessorUVs"},{"bufferView":0,"byteOffset":49152,"componentType":5123,"count":2700,"type":"SCALAR","name":"accessorIndices"},{"bufferView":1,"byteOffset":130272,"componentType":5126,"count":512,"max":[2.30368423,34.24272,23.5705414],"min":[-1.19181919,16.3228989,0.872881651],"type":"VEC3","name":"accessorPositions"},{"bufferView":1,"byteOffset":136416,"componentType":5126,"count":512,"type":"VEC3","name":"accessorNormals"},{"bufferView":2,"byteOffset":86848,"componentType":5126,"count":512,"type":"VEC4","name":"accessorTangents"},{"bufferView":3,"byteOffset":43424,"componentType":5126,"count":512,"type":"VEC2","name":"accessorUVs"},{"bufferView":0,"byteOffset":54552,"componentType":5123,"count":2700,"type":"SCALAR","name":"accessorIndices"},{"bufferView":1,"byteOffset":142560,"componentType":5126,"count":512,"max":[20.71797,17.21953,19.103941],"min":[0.328090847,15.015893,0.316912651],"type":"VEC3","name":"accessorPositions"},{"bufferView":1,"byteOffset":148704,"componentType":5126,"count":512,"type":"VEC3","name":"accessorNormals"},{"bufferView":2,"byteOffset":95040,"componentType":5126,"count":512,"type":"VEC4","name":"accessorTangents"},{"bufferView":3,"byteOffset":47520,"componentType":5126,"count":512,"type":"VEC2","name":"accessorUVs"},{"bufferView":0,"byteOffset":59952,"componentType":5123,"count":36,"type":"SCALAR","name":"accessorIndices"},{"bufferView":1,"byteOffset":154848,"componentType":5126,"count":24,"max":[31.1159554,26.8606339,8.376457],"min":[-31.1159554,-26.8606339,-8.376457],"type":"VEC3","name":"accessorPositions"},{"bufferView":1,"byteOffset":155136,"componentType":5126,"count":24,"type":"VEC3","name":"accessorNormals"},{"bufferView":2,"byteOffset":103232,"componentType":5126,"count":24,"type":"VEC4","name":"accessorTangents"},{"bufferView":3,"byteOffset":51616,"componentType":5126,"count":24,"type":"VEC2","name":"accessorUVs"},{"bufferView":0,"byteOffset":60024,"componentType":5123,"count":36,"type":"SCALAR","name":"accessorIndices"},{"bufferView":1,"byteOffset":155424,"componentType":5126,"count":24,"max":[8.376455,26.8606339,31.1159573],"min":[-8.376455,-26.8606339,-31.1159573],"type":"VEC3","name":"accessorPositions"},{"bufferView":1,"byteOffset":155712,"componentType":5126,"count":24,"type":"VEC3","name":"accessorNormals"},{"bufferView":2,"byteOffset":103616,"componentType":5126,"count":24,"type":"VEC4","name":"accessorTangents"},{"bufferView":3,"byteOffset":51808,"componentType":5126,"count":24,"type":"VEC2","name":"accessorUVs"},{"bufferView":0,"byteOffset":60096,"componentType":5123,"count":36,"type":"SCALAR","name":"accessorIndices"},{"bufferView":1,"byteOffset":156000,"componentType":5126,"count":24,"max":[16.13862,26.8606339,27.9094486],"min":[-16.13862,-26.8606339,-27.9094486],"type":"VEC3","name":"accessorPositions"},{"bufferView":1,"byteOffset":156288,"componentType":5126,"count":24,"type":"VEC3","name":"accessorNormals"},{"bufferView":2,"byteOffset":104000,"componentType":5126,"count":24,"type":"VEC4","name":"accessorTangents"},{"bufferView":3,"byteOffset":52000,"componentType":5126,"count":24,"type":"VEC2","name":"accessorUVs"},{"bufferView":0,"byteOffset":60168,"componentType":5123,"count":36,"type":"SCALAR","name":"accessorIndices"},{"bufferView":1,"byteOffset":156576,"componentType":5126,"count":24,"max":[27.9094486,26.8606339,16.1386185],"min":[-27.9094486,-26.8606339,-16.1386185],"type":"VEC3","name":"accessorPositions"},{"bufferView":1,"byteOffset":156864,"componentType":5126,"count":24,"type":"VEC3","name":"accessorNormals"},{"bufferView":2,"byteOffset":104384,"componentType":5126,"count":24,"type":"VEC4","name":"accessorTangents"},{"bufferView":3,"byteOffset":52192,"componentType":5126,"count":24,"type":"VEC2","name":"accessorUVs"}],"bufferViews":[{"buffer":0,"byteLength":60240,"name":"bufferViewScalar"},{"buffer":0,"byteOffset":60240,"byteLength":157152,"byteStride":12,"name":"bufferViewFloatVec3"},{"buffer":0,"byteOffset":217392,"byteLength":104768,"byteStride":16,"name":"bufferViewFloatVec4"},{"buffer":0,"byteOffset":322160,"byteLength":52384,"byteStride":8,"name":"bufferViewFloatVec2"}],"buffers":[{"uri":"shuixi.bin","byteLength":374544}],"materials":[{"pbrMetallicRoughness":{"baseColorFactor":[0.5208334,0.5208334,0.5208334,1.0],"metallicFactor":0.0,"roughnessFactor":0.9},"emissiveFactor":[0.0,0.0,0.0],"alphaMode":"OPAQUE","name":"lambert2"},{"pbrMetallicRoughness":{"baseColorFactor":[1.0,1.0,1.0,1.0],"baseColorTexture":{"index":1,"texCoord":0},"metallicFactor":0.0,"roughnessFactor":0.9},"emissiveTexture":{"index":0,"texCoord":0},"emissiveFactor":[1.0,1.0,1.0],"alphaMode":"OPAQUE","name":"lambert4"},{"pbrMetallicRoughness":{"baseColorFactor":[0.527083337,0.4848838,0.34155,1.0],"metallicFactor":0.0,"roughnessFactor":0.9},"emissiveFactor":[0.401535481,0.369387567,0.260195],"alphaMode":"OPAQUE","name":"lambert5"},{"pbrMetallicRoughness":{"baseColorFactor":[0.4166667,0.9687501,1.0,0.5096774],"metallicFactor":0.0,"roughnessFactor":0.9},"emissiveFactor":[0.0,0.0,0.0],"alphaMode":"BLEND","name":"lambert6"}],"textures":[{"sampler":0,"source":0,"name":"lambert4_emissive.jpg"},{"sampler":1,"source":1,"name":"lambert4_baseColor.jpg"}],"images":[{"uri":"lambert4_emissive.jpg"},{"uri":"lambert4_baseColor.jpg"}],"samplers":[{"magFilter":9729,"minFilter":9987,"wrapS":10497,"wrapT":10497},{"magFilter":9729,"minFilter":9987,"wrapS":10497,"wrapT":10497}],"extensions":{"KHR_lights":{"lights":[{"color":[1.0,1.0,1.0],"intensity":1.0,"type":"ambient"}]}}}