<!--?xml version="1.0" encoding="UTF-8"?--><svg width="8592px" height="330px" viewBox="0 0 8592 330" version="1.1" xmlns="http://www.w3.org/2000/svg" xlink="http://www.w3.org/1999/xlink">
    <!-- Generator: Sketch 54.1 (76490) - https://sketchapp.com -->
    <title>&#x529B;&#x7684;&#x793A;&#x610F;</title>
    <desc>Created with Sketch.</desc>
    <g id="&#x9875;&#x9762;1" stroke="none" stroke-width="1" fill="none" fill-rule="evenodd">
        <g id="&#x76F4;&#x6D41;&#x7535;&#x52A8;&#x673A;&#x539F;&#x7406;--90424_3" transform="translate(-191.000000, -480.000000)">
            <g id="&#x529B;&#x7684;&#x793A;&#x610F;" transform="translate(191.000000, 480.000000)">
                <g id="1" fill="#FFFFFF" fill-rule="nonzero">
                    <g id="&#x4E0B;" transform="translate(242.000000, 135.000000)">
                        <path d="M-0.5,49.5 L-0.5,0 C-0.5,-0.828427125 0.171572875,-1.5 1,-1.5 C1.82842712,-1.5 2.5,-0.828427125 2.5,0 L2.5,29 L10.5,29 L1,48 L-8.5,29 L-0.5,29 Z" id="&#x8DEF;&#x5F84;-13"/>
                        <path d="M25.5039062,57.4609375 L23.9414062,62.7050781 L25.6796875,62.7050781 C26.4609414,62.7050781 27.0452455,62.5846366 27.4326172,62.34375 C27.8199889,62.1028634 28.2187479,61.5885456 28.6289062,60.8007812 L29,60.8007812 L27.6230469,65.625 L27.2324219,65.625 C27.3300786,65.234373 27.3789062,64.9121106 27.3789062,64.6582031 C27.3789062,64.2610657 27.2470716,63.9534516 26.9833984,63.7353516 C26.7197252,63.5172515 26.2265661,63.4082031 25.5039062,63.4082031 L23.7460938,63.4082031 L22.59375,67.4023438 C22.3854156,68.1119827 22.28125,68.5839832 22.28125,68.8183594 C22.28125,69.059246 22.3707673,69.244791 22.5498047,69.375 C22.728842,69.505209 23.1666632,69.5930987 23.8632812,69.6386719 L23.7460938,70 L18.5117188,70 L18.6386719,69.6386719 C19.1464869,69.625651 19.4850252,69.5800785 19.6542969,69.5019531 C19.9147148,69.3912755 20.1067702,69.2415374 20.2304688,69.0527344 C20.4062509,68.785806 20.6145821,68.2356812 20.8554688,67.4023438 L23.1894531,59.4238281 C23.3782562,58.7792937 23.4726562,58.2747414 23.4726562,57.9101562 C23.4726562,57.7408846 23.430339,57.5960292 23.3457031,57.4755859 C23.2610673,57.3551426 23.135743,57.2656253 22.9697266,57.2070312 C22.8037101,57.1484372 22.4733098,57.1191406 21.9785156,57.1191406 L22.0957031,56.7578125 L32.3691406,56.7578125 L31.3925781,60.1074219 L31.0214844,60.1074219 C31.0930993,59.703774 31.1289062,59.3717461 31.1289062,59.1113281 C31.1289062,58.6816385 31.0100923,58.3414726 30.7724609,58.0908203 C30.5348295,57.840168 30.2304706,57.6627609 29.859375,57.5585938 C29.598957,57.4934893 29.0162806,57.4609375 28.1113281,57.4609375 L25.5039062,57.4609375 Z" id="F"/>
                    </g>
                    <g id="&#x4E0A;" transform="translate(83.000000, 62.000000)">
                        <path d="M34.5,19.5 L34.5,69 C34.5,69.8284271 33.8284271,70.5 33,70.5 C32.1715729,70.5 31.5,69.8284271 31.5,69 L31.5,39 L23.5,39 L33,20 L42.5,39 L34.5,39 Z" id="&#x8DEF;&#x5F84;-13"/>
                        <path d="M7.50390625,3.4609375 L5.94140625,8.70507812 L7.6796875,8.70507812 C8.46094141,8.70507812 9.04524546,8.58463662 9.43261719,8.34375 C9.81998892,8.10286338 10.2187479,7.58854561 10.6289062,6.80078125 L11,6.80078125 L9.62304688,11.625 L9.23242188,11.625 C9.33007861,11.234373 9.37890625,10.9121106 9.37890625,10.6582031 C9.37890625,10.2610657 9.24707163,9.95345161 8.98339844,9.73535156 C8.71972524,9.51725151 8.22656611,9.40820312 7.50390625,9.40820312 L5.74609375,9.40820312 L4.59375,13.4023438 C4.38541563,14.1119827 4.28125,14.5839832 4.28125,14.8183594 C4.28125,15.059246 4.37076733,15.244791 4.54980469,15.375 C4.72884204,15.505209 5.16666318,15.5930987 5.86328125,15.6386719 L5.74609375,16 L0.51171875,16 L0.638671875,15.6386719 C1.14648691,15.625651 1.4850252,15.5800785 1.65429688,15.5019531 C1.91471484,15.3912755 2.10677021,15.2415374 2.23046875,15.0527344 C2.40625088,14.785806 2.61458213,14.2356812 2.85546875,13.4023438 L5.18945312,5.42382812 C5.37825615,4.77929365 5.47265625,4.27474141 5.47265625,3.91015625 C5.47265625,3.74088457 5.43033896,3.59602925 5.34570312,3.47558594 C5.26106729,3.35514263 5.13574302,3.26562529 4.96972656,3.20703125 C4.80371011,3.14843721 4.47330977,3.11914062 3.97851563,3.11914062 L4.09570312,2.7578125 L14.3691406,2.7578125 L13.3925781,6.10742188 L13.0214844,6.10742188 C13.0930993,5.70377402 13.1289062,5.37174609 13.1289062,5.11132812 C13.1289062,4.68163848 13.0100923,4.34147261 12.7724609,4.09082031 C12.5348295,3.84016802 12.2304706,3.66276094 11.859375,3.55859375 C11.598957,3.49348926 11.0162806,3.4609375 10.1113281,3.4609375 L7.50390625,3.4609375 Z" id="F"/>
                    </g>
                </g>
                <g id="2" transform="translate(358.000000, 0.000000)" fill="#FFFFFF" fill-rule="nonzero">
                    <g id="&#x4E0B;" transform="translate(241.000000, 151.000000)">
                        <path d="M-0.5,49.5 L-0.5,0 C-0.5,-0.828427125 0.171572875,-1.5 1,-1.5 C1.82842712,-1.5 2.5,-0.828427125 2.5,0 L2.5,29 L10.5,29 L1,48 L-8.5,29 L-0.5,29 Z" id="&#x8DEF;&#x5F84;-13"/>
                        <path d="M25.5039062,57.4609375 L23.9414062,62.7050781 L25.6796875,62.7050781 C26.4609414,62.7050781 27.0452455,62.5846366 27.4326172,62.34375 C27.8199889,62.1028634 28.2187479,61.5885456 28.6289062,60.8007812 L29,60.8007812 L27.6230469,65.625 L27.2324219,65.625 C27.3300786,65.234373 27.3789062,64.9121106 27.3789062,64.6582031 C27.3789062,64.2610657 27.2470716,63.9534516 26.9833984,63.7353516 C26.7197252,63.5172515 26.2265661,63.4082031 25.5039062,63.4082031 L23.7460938,63.4082031 L22.59375,67.4023438 C22.3854156,68.1119827 22.28125,68.5839832 22.28125,68.8183594 C22.28125,69.059246 22.3707673,69.244791 22.5498047,69.375 C22.728842,69.505209 23.1666632,69.5930987 23.8632812,69.6386719 L23.7460938,70 L18.5117188,70 L18.6386719,69.6386719 C19.1464869,69.625651 19.4850252,69.5800785 19.6542969,69.5019531 C19.9147148,69.3912755 20.1067702,69.2415374 20.2304688,69.0527344 C20.4062509,68.785806 20.6145821,68.2356812 20.8554688,67.4023438 L23.1894531,59.4238281 C23.3782562,58.7792937 23.4726562,58.2747414 23.4726562,57.9101562 C23.4726562,57.7408846 23.430339,57.5960292 23.3457031,57.4755859 C23.2610673,57.3551426 23.135743,57.2656253 22.9697266,57.2070312 C22.8037101,57.1484372 22.4733098,57.1191406 21.9785156,57.1191406 L22.0957031,56.7578125 L32.3691406,56.7578125 L31.3925781,60.1074219 L31.0214844,60.1074219 C31.0930993,59.703774 31.1289062,59.3717461 31.1289062,59.1113281 C31.1289062,58.6816385 31.0100923,58.3414726 30.7724609,58.0908203 C30.5348295,57.840168 30.2304706,57.6627609 29.859375,57.5585938 C29.598957,57.4934893 29.0162806,57.4609375 28.1113281,57.4609375 L25.5039062,57.4609375 Z" id="F"/>
                    </g>
                    <g id="&#x4E0A;" transform="translate(86.000000, 40.000000)">
                        <path d="M33.5,26.5 L33.5,76 C33.5,76.8284271 32.8284271,77.5 32,77.5 C31.1715729,77.5 30.5,76.8284271 30.5,76 L30.5,46 L22.5,46 L32,27 L41.5,46 L33.5,46 Z" id="&#x8DEF;&#x5F84;-13"/>
                        <path d="M6.50390625,5.4609375 L4.94140625,10.7050781 L6.6796875,10.7050781 C7.46094141,10.7050781 8.04524546,10.5846366 8.43261719,10.34375 C8.81998892,10.1028634 9.21874795,9.58854561 9.62890625,8.80078125 L10,8.80078125 L8.62304688,13.625 L8.23242188,13.625 C8.33007861,13.234373 8.37890625,12.9121106 8.37890625,12.6582031 C8.37890625,12.2610657 8.24707163,11.9534516 7.98339844,11.7353516 C7.71972524,11.5172515 7.22656611,11.4082031 6.50390625,11.4082031 L4.74609375,11.4082031 L3.59375,15.4023438 C3.38541563,16.1119827 3.28125,16.5839832 3.28125,16.8183594 C3.28125,17.059246 3.37076733,17.244791 3.54980469,17.375 C3.72884204,17.505209 4.16666318,17.5930987 4.86328125,17.6386719 L4.74609375,18 L-0.48828125,18 L-0.361328125,17.6386719 C0.146486914,17.625651 0.485025195,17.5800785 0.654296875,17.5019531 C0.914714844,17.3912755 1.10677021,17.2415374 1.23046875,17.0527344 C1.40625088,16.785806 1.61458213,16.2356812 1.85546875,15.4023438 L4.18945312,7.42382812 C4.37825615,6.77929365 4.47265625,6.27474141 4.47265625,5.91015625 C4.47265625,5.74088457 4.43033896,5.59602925 4.34570312,5.47558594 C4.26106729,5.35514263 4.13574302,5.26562529 3.96972656,5.20703125 C3.80371011,5.14843721 3.47330977,5.11914062 2.97851563,5.11914062 L3.09570312,4.7578125 L13.3691406,4.7578125 L12.3925781,8.10742188 L12.0214844,8.10742188 C12.0930993,7.70377402 12.1289062,7.37174609 12.1289062,7.11132812 C12.1289062,6.68163848 12.0100923,6.34147261 11.7724609,6.09082031 C11.5348295,5.84016802 11.2304706,5.66276094 10.859375,5.55859375 C10.598957,5.49348926 10.0162806,5.4609375 9.11132812,5.4609375 L6.50390625,5.4609375 Z" id="F"/>
                    </g>
                </g>
                <g id="3" transform="translate(716.000000, 0.000000)" fill="#FFFFFF" fill-rule="nonzero">
                    <g id="&#x4E0B;" transform="translate(233.000000, 165.000000)">
                        <path d="M-0.5,49.5 L-0.5,0 C-0.5,-0.828427125 0.171572875,-1.5 1,-1.5 C1.82842712,-1.5 2.5,-0.828427125 2.5,0 L2.5,29 L10.5,29 L1,48 L-8.5,29 L-0.5,29 Z" id="&#x8DEF;&#x5F84;-13"/>
                        <path d="M25.5039062,57.4609375 L23.9414062,62.7050781 L25.6796875,62.7050781 C26.4609414,62.7050781 27.0452455,62.5846366 27.4326172,62.34375 C27.8199889,62.1028634 28.2187479,61.5885456 28.6289062,60.8007812 L29,60.8007812 L27.6230469,65.625 L27.2324219,65.625 C27.3300786,65.234373 27.3789062,64.9121106 27.3789062,64.6582031 C27.3789062,64.2610657 27.2470716,63.9534516 26.9833984,63.7353516 C26.7197252,63.5172515 26.2265661,63.4082031 25.5039062,63.4082031 L23.7460938,63.4082031 L22.59375,67.4023438 C22.3854156,68.1119827 22.28125,68.5839832 22.28125,68.8183594 C22.28125,69.059246 22.3707673,69.244791 22.5498047,69.375 C22.728842,69.505209 23.1666632,69.5930987 23.8632812,69.6386719 L23.7460938,70 L18.5117188,70 L18.6386719,69.6386719 C19.1464869,69.625651 19.4850252,69.5800785 19.6542969,69.5019531 C19.9147148,69.3912755 20.1067702,69.2415374 20.2304688,69.0527344 C20.4062509,68.785806 20.6145821,68.2356812 20.8554688,67.4023438 L23.1894531,59.4238281 C23.3782562,58.7792937 23.4726562,58.2747414 23.4726562,57.9101562 C23.4726562,57.7408846 23.430339,57.5960292 23.3457031,57.4755859 C23.2610673,57.3551426 23.135743,57.2656253 22.9697266,57.2070312 C22.8037101,57.1484372 22.4733098,57.1191406 21.9785156,57.1191406 L22.0957031,56.7578125 L32.3691406,56.7578125 L31.3925781,60.1074219 L31.0214844,60.1074219 C31.0930993,59.703774 31.1289062,59.3717461 31.1289062,59.1113281 C31.1289062,58.6816385 31.0100923,58.3414726 30.7724609,58.0908203 C30.5348295,57.840168 30.2304706,57.6627609 29.859375,57.5585938 C29.598957,57.4934893 29.0162806,57.4609375 28.1113281,57.4609375 L25.5039062,57.4609375 Z" id="F"/>
                    </g>
                    <g id="&#x4E0A;" transform="translate(92.000000, 25.000000)">
                        <path d="M33.5,26.5 L33.5,76 C33.5,76.8284271 32.8284271,77.5 32,77.5 C31.1715729,77.5 30.5,76.8284271 30.5,76 L30.5,46 L22.5,46 L32,27 L41.5,46 L33.5,46 Z" id="&#x8DEF;&#x5F84;-13"/>
                        <path d="M6.50390625,5.4609375 L4.94140625,10.7050781 L6.6796875,10.7050781 C7.46094141,10.7050781 8.04524546,10.5846366 8.43261719,10.34375 C8.81998892,10.1028634 9.21874795,9.58854561 9.62890625,8.80078125 L10,8.80078125 L8.62304688,13.625 L8.23242188,13.625 C8.33007861,13.234373 8.37890625,12.9121106 8.37890625,12.6582031 C8.37890625,12.2610657 8.24707163,11.9534516 7.98339844,11.7353516 C7.71972524,11.5172515 7.22656611,11.4082031 6.50390625,11.4082031 L4.74609375,11.4082031 L3.59375,15.4023438 C3.38541563,16.1119827 3.28125,16.5839832 3.28125,16.8183594 C3.28125,17.059246 3.37076733,17.244791 3.54980469,17.375 C3.72884204,17.505209 4.16666318,17.5930987 4.86328125,17.6386719 L4.74609375,18 L-0.48828125,18 L-0.361328125,17.6386719 C0.146486914,17.625651 0.485025195,17.5800785 0.654296875,17.5019531 C0.914714844,17.3912755 1.10677021,17.2415374 1.23046875,17.0527344 C1.40625088,16.785806 1.61458213,16.2356812 1.85546875,15.4023438 L4.18945312,7.42382812 C4.37825615,6.77929365 4.47265625,6.27474141 4.47265625,5.91015625 C4.47265625,5.74088457 4.43033896,5.59602925 4.34570312,5.47558594 C4.26106729,5.35514263 4.13574302,5.26562529 3.96972656,5.20703125 C3.80371011,5.14843721 3.47330977,5.11914062 2.97851563,5.11914062 L3.09570312,4.7578125 L13.3691406,4.7578125 L12.3925781,8.10742188 L12.0214844,8.10742188 C12.0930993,7.70377402 12.1289062,7.37174609 12.1289062,7.11132812 C12.1289062,6.68163848 12.0100923,6.34147261 11.7724609,6.09082031 C11.5348295,5.84016802 11.2304706,5.66276094 10.859375,5.55859375 C10.598957,5.49348926 10.0162806,5.4609375 9.11132812,5.4609375 L6.50390625,5.4609375 Z" id="F"/>
                    </g>
                </g>
                <g id="4" transform="translate(1074.000000, 0.000000)" fill="#FFFFFF" fill-rule="nonzero">
                    <g id="&#x4E0B;" transform="translate(222.000000, 173.000000)">
                        <path d="M-0.5,49.5 L-0.5,0 C-0.5,-0.828427125 0.171572875,-1.5 1,-1.5 C1.82842712,-1.5 2.5,-0.828427125 2.5,0 L2.5,29 L10.5,29 L1,48 L-8.5,29 L-0.5,29 Z" id="&#x8DEF;&#x5F84;-13"/>
                        <path d="M25.5039062,57.4609375 L23.9414062,62.7050781 L25.6796875,62.7050781 C26.4609414,62.7050781 27.0452455,62.5846366 27.4326172,62.34375 C27.8199889,62.1028634 28.2187479,61.5885456 28.6289062,60.8007812 L29,60.8007812 L27.6230469,65.625 L27.2324219,65.625 C27.3300786,65.234373 27.3789062,64.9121106 27.3789062,64.6582031 C27.3789062,64.2610657 27.2470716,63.9534516 26.9833984,63.7353516 C26.7197252,63.5172515 26.2265661,63.4082031 25.5039062,63.4082031 L23.7460938,63.4082031 L22.59375,67.4023438 C22.3854156,68.1119827 22.28125,68.5839832 22.28125,68.8183594 C22.28125,69.059246 22.3707673,69.244791 22.5498047,69.375 C22.728842,69.505209 23.1666632,69.5930987 23.8632812,69.6386719 L23.7460938,70 L18.5117188,70 L18.6386719,69.6386719 C19.1464869,69.625651 19.4850252,69.5800785 19.6542969,69.5019531 C19.9147148,69.3912755 20.1067702,69.2415374 20.2304688,69.0527344 C20.4062509,68.785806 20.6145821,68.2356812 20.8554688,67.4023438 L23.1894531,59.4238281 C23.3782562,58.7792937 23.4726562,58.2747414 23.4726562,57.9101562 C23.4726562,57.7408846 23.430339,57.5960292 23.3457031,57.4755859 C23.2610673,57.3551426 23.135743,57.2656253 22.9697266,57.2070312 C22.8037101,57.1484372 22.4733098,57.1191406 21.9785156,57.1191406 L22.0957031,56.7578125 L32.3691406,56.7578125 L31.3925781,60.1074219 L31.0214844,60.1074219 C31.0930993,59.703774 31.1289062,59.3717461 31.1289062,59.1113281 C31.1289062,58.6816385 31.0100923,58.3414726 30.7724609,58.0908203 C30.5348295,57.840168 30.2304706,57.6627609 29.859375,57.5585938 C29.598957,57.4934893 29.0162806,57.4609375 28.1113281,57.4609375 L25.5039062,57.4609375 Z" id="F"/>
                    </g>
                    <g id="&#x4E0A;" transform="translate(102.000000, 13.000000)">
                        <path d="M33.5,26.5 L33.5,76 C33.5,76.8284271 32.8284271,77.5 32,77.5 C31.1715729,77.5 30.5,76.8284271 30.5,76 L30.5,46 L22.5,46 L32,27 L41.5,46 L33.5,46 Z" id="&#x8DEF;&#x5F84;-13"/>
                        <path d="M6.50390625,5.4609375 L4.94140625,10.7050781 L6.6796875,10.7050781 C7.46094141,10.7050781 8.04524546,10.5846366 8.43261719,10.34375 C8.81998892,10.1028634 9.21874795,9.58854561 9.62890625,8.80078125 L10,8.80078125 L8.62304688,13.625 L8.23242188,13.625 C8.33007861,13.234373 8.37890625,12.9121106 8.37890625,12.6582031 C8.37890625,12.2610657 8.24707163,11.9534516 7.98339844,11.7353516 C7.71972524,11.5172515 7.22656611,11.4082031 6.50390625,11.4082031 L4.74609375,11.4082031 L3.59375,15.4023438 C3.38541563,16.1119827 3.28125,16.5839832 3.28125,16.8183594 C3.28125,17.059246 3.37076733,17.244791 3.54980469,17.375 C3.72884204,17.505209 4.16666318,17.5930987 4.86328125,17.6386719 L4.74609375,18 L-0.48828125,18 L-0.361328125,17.6386719 C0.146486914,17.625651 0.485025195,17.5800785 0.654296875,17.5019531 C0.914714844,17.3912755 1.10677021,17.2415374 1.23046875,17.0527344 C1.40625088,16.785806 1.61458213,16.2356812 1.85546875,15.4023438 L4.18945312,7.42382812 C4.37825615,6.77929365 4.47265625,6.27474141 4.47265625,5.91015625 C4.47265625,5.74088457 4.43033896,5.59602925 4.34570312,5.47558594 C4.26106729,5.35514263 4.13574302,5.26562529 3.96972656,5.20703125 C3.80371011,5.14843721 3.47330977,5.11914062 2.97851563,5.11914062 L3.09570312,4.7578125 L13.3691406,4.7578125 L12.3925781,8.10742188 L12.0214844,8.10742188 C12.0930993,7.70377402 12.1289062,7.37174609 12.1289062,7.11132812 C12.1289062,6.68163848 12.0100923,6.34147261 11.7724609,6.09082031 C11.5348295,5.84016802 11.2304706,5.66276094 10.859375,5.55859375 C10.598957,5.49348926 10.0162806,5.4609375 9.11132812,5.4609375 L6.50390625,5.4609375 Z" id="F"/>
                    </g>
                </g>
                <g id="5" transform="translate(1432.000000, 0.000000)" fill="#FFFFFF">
                    <g id="&#x4E0B;" transform="translate(209.000000, 184.000000)" fill-rule="nonzero">
                        <path d="M-0.5,49.5 L-0.5,0 C-0.5,-0.828427125 0.171572875,-1.5 1,-1.5 C1.82842712,-1.5 2.5,-0.828427125 2.5,0 L2.5,29 L10.5,29 L1,48 L-8.5,29 L-0.5,29 Z" id="&#x8DEF;&#x5F84;-13"/>
                        <path d="M25.5039062,57.4609375 L23.9414062,62.7050781 L25.6796875,62.7050781 C26.4609414,62.7050781 27.0452455,62.5846366 27.4326172,62.34375 C27.8199889,62.1028634 28.2187479,61.5885456 28.6289062,60.8007812 L29,60.8007812 L27.6230469,65.625 L27.2324219,65.625 C27.3300786,65.234373 27.3789062,64.9121106 27.3789062,64.6582031 C27.3789062,64.2610657 27.2470716,63.9534516 26.9833984,63.7353516 C26.7197252,63.5172515 26.2265661,63.4082031 25.5039062,63.4082031 L23.7460938,63.4082031 L22.59375,67.4023438 C22.3854156,68.1119827 22.28125,68.5839832 22.28125,68.8183594 C22.28125,69.059246 22.3707673,69.244791 22.5498047,69.375 C22.728842,69.505209 23.1666632,69.5930987 23.8632812,69.6386719 L23.7460938,70 L18.5117188,70 L18.6386719,69.6386719 C19.1464869,69.625651 19.4850252,69.5800785 19.6542969,69.5019531 C19.9147148,69.3912755 20.1067702,69.2415374 20.2304688,69.0527344 C20.4062509,68.785806 20.6145821,68.2356812 20.8554688,67.4023438 L23.1894531,59.4238281 C23.3782562,58.7792937 23.4726562,58.2747414 23.4726562,57.9101562 C23.4726562,57.7408846 23.430339,57.5960292 23.3457031,57.4755859 C23.2610673,57.3551426 23.135743,57.2656253 22.9697266,57.2070312 C22.8037101,57.1484372 22.4733098,57.1191406 21.9785156,57.1191406 L22.0957031,56.7578125 L32.3691406,56.7578125 L31.3925781,60.1074219 L31.0214844,60.1074219 C31.0930993,59.703774 31.1289062,59.3717461 31.1289062,59.1113281 C31.1289062,58.6816385 31.0100923,58.3414726 30.7724609,58.0908203 C30.5348295,57.840168 30.2304706,57.6627609 29.859375,57.5585938 C29.598957,57.4934893 29.0162806,57.4609375 28.1113281,57.4609375 L25.5039062,57.4609375 Z" id="F"/>
                    </g>
                    <g id="&#x4E0A;" transform="translate(115.000000, 3.000000)">
                        <path d="M33.5,26.5 L33.5,76 C33.5,76.8284271 32.8284271,77.5 32,77.5 C31.1715729,77.5 30.5,76.8284271 30.5,76 L30.5,46 L22.5,46 L32,27 L41.5,46 L33.5,46 Z" id="&#x8DEF;&#x5F84;-13" fill-rule="nonzero"/>
                        <text id="F" font-family="TimesNewRomanPS-ItalicMT, Times New Roman" font-size="20" font-style="italic" font-weight="normal">
                            <tspan x="0" y="18">F</tspan>
                        </text>
                    </g>
                </g>
                <g id="6" transform="translate(1790.000000, 0.000000)" fill="#FFFFFF">
                    <g id="&#x4E0B;" transform="translate(195.000000, 189.000000)" fill-rule="nonzero">
                        <path d="M-0.5,49.5 L-0.5,0 C-0.5,-0.828427125 0.171572875,-1.5 1,-1.5 C1.82842712,-1.5 2.5,-0.828427125 2.5,0 L2.5,29 L10.5,29 L1,48 L-8.5,29 L-0.5,29 Z" id="&#x8DEF;&#x5F84;-13"/>
                        <path d="M25.5039062,57.4609375 L23.9414062,62.7050781 L25.6796875,62.7050781 C26.4609414,62.7050781 27.0452455,62.5846366 27.4326172,62.34375 C27.8199889,62.1028634 28.2187479,61.5885456 28.6289062,60.8007812 L29,60.8007812 L27.6230469,65.625 L27.2324219,65.625 C27.3300786,65.234373 27.3789062,64.9121106 27.3789062,64.6582031 C27.3789062,64.2610657 27.2470716,63.9534516 26.9833984,63.7353516 C26.7197252,63.5172515 26.2265661,63.4082031 25.5039062,63.4082031 L23.7460938,63.4082031 L22.59375,67.4023438 C22.3854156,68.1119827 22.28125,68.5839832 22.28125,68.8183594 C22.28125,69.059246 22.3707673,69.244791 22.5498047,69.375 C22.728842,69.505209 23.1666632,69.5930987 23.8632812,69.6386719 L23.7460938,70 L18.5117188,70 L18.6386719,69.6386719 C19.1464869,69.625651 19.4850252,69.5800785 19.6542969,69.5019531 C19.9147148,69.3912755 20.1067702,69.2415374 20.2304688,69.0527344 C20.4062509,68.785806 20.6145821,68.2356812 20.8554688,67.4023438 L23.1894531,59.4238281 C23.3782562,58.7792937 23.4726562,58.2747414 23.4726562,57.9101562 C23.4726562,57.7408846 23.430339,57.5960292 23.3457031,57.4755859 C23.2610673,57.3551426 23.135743,57.2656253 22.9697266,57.2070312 C22.8037101,57.1484372 22.4733098,57.1191406 21.9785156,57.1191406 L22.0957031,56.7578125 L32.3691406,56.7578125 L31.3925781,60.1074219 L31.0214844,60.1074219 C31.0930993,59.703774 31.1289062,59.3717461 31.1289062,59.1113281 C31.1289062,58.6816385 31.0100923,58.3414726 30.7724609,58.0908203 C30.5348295,57.840168 30.2304706,57.6627609 29.859375,57.5585938 C29.598957,57.4934893 29.0162806,57.4609375 28.1113281,57.4609375 L25.5039062,57.4609375 Z" id="F"/>
                    </g>
                    <g id="&#x4E0A;" transform="translate(131.000000, 0.000000)">
                        <path d="M33.5,26.5 L33.5,76 C33.5,76.8284271 32.8284271,77.5 32,77.5 C31.1715729,77.5 30.5,76.8284271 30.5,76 L30.5,46 L22.5,46 L32,27 L41.5,46 L33.5,46 Z" id="&#x8DEF;&#x5F84;-13" fill-rule="nonzero"/>
                        <text id="F" font-family="TimesNewRomanPS-ItalicMT, Times New Roman" font-size="20" font-style="italic" font-weight="normal">
                            <tspan x="0" y="18">F</tspan>
                        </text>
                    </g>
                </g>
                <g id="7" transform="translate(2148.000000, 0.000000)"/>
                <g id="8" transform="translate(2506.000000, 0.000000)" fill="#FFFFFF" fill-rule="nonzero">
                    <g id="&#x4E0B;" transform="translate(198.000000, 77.000000)">
                        <path d="M-0.5,49.5 L-0.5,0 C-0.5,-0.828427125 0.171572875,-1.5 1,-1.5 C1.82842712,-1.5 2.5,-0.828427125 2.5,0 L2.5,29 L10.5,29 L1,48 L-8.5,29 L-0.5,29 Z" id="&#x8DEF;&#x5F84;-13"/>
                        <path d="M25.5039062,57.4609375 L23.9414062,62.7050781 L25.6796875,62.7050781 C26.4609414,62.7050781 27.0452455,62.5846366 27.4326172,62.34375 C27.8199889,62.1028634 28.2187479,61.5885456 28.6289062,60.8007812 L29,60.8007812 L27.6230469,65.625 L27.2324219,65.625 C27.3300786,65.234373 27.3789062,64.9121106 27.3789062,64.6582031 C27.3789062,64.2610657 27.2470716,63.9534516 26.9833984,63.7353516 C26.7197252,63.5172515 26.2265661,63.4082031 25.5039062,63.4082031 L23.7460938,63.4082031 L22.59375,67.4023438 C22.3854156,68.1119827 22.28125,68.5839832 22.28125,68.8183594 C22.28125,69.059246 22.3707673,69.244791 22.5498047,69.375 C22.728842,69.505209 23.1666632,69.5930987 23.8632812,69.6386719 L23.7460938,70 L18.5117188,70 L18.6386719,69.6386719 C19.1464869,69.625651 19.4850252,69.5800785 19.6542969,69.5019531 C19.9147148,69.3912755 20.1067702,69.2415374 20.2304688,69.0527344 C20.4062509,68.785806 20.6145821,68.2356812 20.8554688,67.4023438 L23.1894531,59.4238281 C23.3782562,58.7792937 23.4726562,58.2747414 23.4726562,57.9101562 C23.4726562,57.7408846 23.430339,57.5960292 23.3457031,57.4755859 C23.2610673,57.3551426 23.135743,57.2656253 22.9697266,57.2070312 C22.8037101,57.1484372 22.4733098,57.1191406 21.9785156,57.1191406 L22.0957031,56.7578125 L32.3691406,56.7578125 L31.3925781,60.1074219 L31.0214844,60.1074219 C31.0930993,59.703774 31.1289062,59.3717461 31.1289062,59.1113281 C31.1289062,58.6816385 31.0100923,58.3414726 30.7724609,58.0908203 C30.5348295,57.840168 30.2304706,57.6627609 29.859375,57.5585938 C29.598957,57.4934893 29.0162806,57.4609375 28.1113281,57.4609375 L25.5039062,57.4609375 Z" id="F"/>
                    </g>
                    <g id="&#x4E0A;" transform="translate(132.000000, 102.000000)">
                        <path d="M33.5,26.5 L33.5,76 C33.5,76.8284271 32.8284271,77.5 32,77.5 C31.1715729,77.5 30.5,76.8284271 30.5,76 L30.5,46 L22.5,46 L32,27 L41.5,46 L33.5,46 Z" id="&#x8DEF;&#x5F84;-13"/>
                        <path d="M6.50390625,5.4609375 L4.94140625,10.7050781 L6.6796875,10.7050781 C7.46094141,10.7050781 8.04524546,10.5846366 8.43261719,10.34375 C8.81998892,10.1028634 9.21874795,9.58854561 9.62890625,8.80078125 L10,8.80078125 L8.62304688,13.625 L8.23242188,13.625 C8.33007861,13.234373 8.37890625,12.9121106 8.37890625,12.6582031 C8.37890625,12.2610657 8.24707163,11.9534516 7.98339844,11.7353516 C7.71972524,11.5172515 7.22656611,11.4082031 6.50390625,11.4082031 L4.74609375,11.4082031 L3.59375,15.4023438 C3.38541563,16.1119827 3.28125,16.5839832 3.28125,16.8183594 C3.28125,17.059246 3.37076733,17.244791 3.54980469,17.375 C3.72884204,17.505209 4.16666318,17.5930987 4.86328125,17.6386719 L4.74609375,18 L-0.48828125,18 L-0.361328125,17.6386719 C0.146486914,17.625651 0.485025195,17.5800785 0.654296875,17.5019531 C0.914714844,17.3912755 1.10677021,17.2415374 1.23046875,17.0527344 C1.40625088,16.785806 1.61458213,16.2356812 1.85546875,15.4023438 L4.18945312,7.42382812 C4.37825615,6.77929365 4.47265625,6.27474141 4.47265625,5.91015625 C4.47265625,5.74088457 4.43033896,5.59602925 4.34570312,5.47558594 C4.26106729,5.35514263 4.13574302,5.26562529 3.96972656,5.20703125 C3.80371011,5.14843721 3.47330977,5.11914062 2.97851563,5.11914062 L3.09570312,4.7578125 L13.3691406,4.7578125 L12.3925781,8.10742188 L12.0214844,8.10742188 C12.0930993,7.70377402 12.1289062,7.37174609 12.1289062,7.11132812 C12.1289062,6.68163848 12.0100923,6.34147261 11.7724609,6.09082031 C11.5348295,5.84016802 11.2304706,5.66276094 10.859375,5.55859375 C10.598957,5.49348926 10.0162806,5.4609375 9.11132812,5.4609375 L6.50390625,5.4609375 Z" id="F"/>
                    </g>
                </g>
                <g id="9" transform="translate(2864.000000, 0.000000)" fill="#FFFFFF" fill-rule="nonzero">
                    <g id="&#x4E0B;" transform="translate(214.000000, 83.000000)">
                        <path d="M-0.5,49.5 L-0.5,0 C-0.5,-0.828427125 0.171572875,-1.5 1,-1.5 C1.82842712,-1.5 2.5,-0.828427125 2.5,0 L2.5,29 L10.5,29 L1,48 L-8.5,29 L-0.5,29 Z" id="&#x8DEF;&#x5F84;-13"/>
                        <path d="M25.5039062,57.4609375 L23.9414062,62.7050781 L25.6796875,62.7050781 C26.4609414,62.7050781 27.0452455,62.5846366 27.4326172,62.34375 C27.8199889,62.1028634 28.2187479,61.5885456 28.6289062,60.8007812 L29,60.8007812 L27.6230469,65.625 L27.2324219,65.625 C27.3300786,65.234373 27.3789062,64.9121106 27.3789062,64.6582031 C27.3789062,64.2610657 27.2470716,63.9534516 26.9833984,63.7353516 C26.7197252,63.5172515 26.2265661,63.4082031 25.5039062,63.4082031 L23.7460938,63.4082031 L22.59375,67.4023438 C22.3854156,68.1119827 22.28125,68.5839832 22.28125,68.8183594 C22.28125,69.059246 22.3707673,69.244791 22.5498047,69.375 C22.728842,69.505209 23.1666632,69.5930987 23.8632812,69.6386719 L23.7460938,70 L18.5117188,70 L18.6386719,69.6386719 C19.1464869,69.625651 19.4850252,69.5800785 19.6542969,69.5019531 C19.9147148,69.3912755 20.1067702,69.2415374 20.2304688,69.0527344 C20.4062509,68.785806 20.6145821,68.2356812 20.8554688,67.4023438 L23.1894531,59.4238281 C23.3782562,58.7792937 23.4726562,58.2747414 23.4726562,57.9101562 C23.4726562,57.7408846 23.430339,57.5960292 23.3457031,57.4755859 C23.2610673,57.3551426 23.135743,57.2656253 22.9697266,57.2070312 C22.8037101,57.1484372 22.4733098,57.1191406 21.9785156,57.1191406 L22.0957031,56.7578125 L32.3691406,56.7578125 L31.3925781,60.1074219 L31.0214844,60.1074219 C31.0930993,59.703774 31.1289062,59.3717461 31.1289062,59.1113281 C31.1289062,58.6816385 31.0100923,58.3414726 30.7724609,58.0908203 C30.5348295,57.840168 30.2304706,57.6627609 29.859375,57.5585938 C29.598957,57.4934893 29.0162806,57.4609375 28.1113281,57.4609375 L25.5039062,57.4609375 Z" id="F"/>
                    </g>
                    <g id="&#x4E0A;" transform="translate(118.000000, 99.000000)">
                        <path d="M33.5,26.5 L33.5,76 C33.5,76.8284271 32.8284271,77.5 32,77.5 C31.1715729,77.5 30.5,76.8284271 30.5,76 L30.5,46 L22.5,46 L32,27 L41.5,46 L33.5,46 Z" id="&#x8DEF;&#x5F84;-13"/>
                        <path d="M6.50390625,5.4609375 L4.94140625,10.7050781 L6.6796875,10.7050781 C7.46094141,10.7050781 8.04524546,10.5846366 8.43261719,10.34375 C8.81998892,10.1028634 9.21874795,9.58854561 9.62890625,8.80078125 L10,8.80078125 L8.62304688,13.625 L8.23242188,13.625 C8.33007861,13.234373 8.37890625,12.9121106 8.37890625,12.6582031 C8.37890625,12.2610657 8.24707163,11.9534516 7.98339844,11.7353516 C7.71972524,11.5172515 7.22656611,11.4082031 6.50390625,11.4082031 L4.74609375,11.4082031 L3.59375,15.4023438 C3.38541563,16.1119827 3.28125,16.5839832 3.28125,16.8183594 C3.28125,17.059246 3.37076733,17.244791 3.54980469,17.375 C3.72884204,17.505209 4.16666318,17.5930987 4.86328125,17.6386719 L4.74609375,18 L-0.48828125,18 L-0.361328125,17.6386719 C0.146486914,17.625651 0.485025195,17.5800785 0.654296875,17.5019531 C0.914714844,17.3912755 1.10677021,17.2415374 1.23046875,17.0527344 C1.40625088,16.785806 1.61458213,16.2356812 1.85546875,15.4023438 L4.18945312,7.42382812 C4.37825615,6.77929365 4.47265625,6.27474141 4.47265625,5.91015625 C4.47265625,5.74088457 4.43033896,5.59602925 4.34570312,5.47558594 C4.26106729,5.35514263 4.13574302,5.26562529 3.96972656,5.20703125 C3.80371011,5.14843721 3.47330977,5.11914062 2.97851563,5.11914062 L3.09570312,4.7578125 L13.3691406,4.7578125 L12.3925781,8.10742188 L12.0214844,8.10742188 C12.0930993,7.70377402 12.1289062,7.37174609 12.1289062,7.11132812 C12.1289062,6.68163848 12.0100923,6.34147261 11.7724609,6.09082031 C11.5348295,5.84016802 11.2304706,5.66276094 10.859375,5.55859375 C10.598957,5.49348926 10.0162806,5.4609375 9.11132812,5.4609375 L6.50390625,5.4609375 Z" id="F"/>
                    </g>
                </g>
                <g id="10" transform="translate(3222.000000, 0.000000)" fill="#FFFFFF" fill-rule="nonzero">
                    <g id="&#x4E0B;" transform="translate(227.000000, 93.000000)">
                        <path d="M-0.5,49.5 L-0.5,0 C-0.5,-0.828427125 0.171572875,-1.5 1,-1.5 C1.82842712,-1.5 2.5,-0.828427125 2.5,0 L2.5,29 L10.5,29 L1,48 L-8.5,29 L-0.5,29 Z" id="&#x8DEF;&#x5F84;-13"/>
                        <path d="M25.5039062,57.4609375 L23.9414062,62.7050781 L25.6796875,62.7050781 C26.4609414,62.7050781 27.0452455,62.5846366 27.4326172,62.34375 C27.8199889,62.1028634 28.2187479,61.5885456 28.6289062,60.8007812 L29,60.8007812 L27.6230469,65.625 L27.2324219,65.625 C27.3300786,65.234373 27.3789062,64.9121106 27.3789062,64.6582031 C27.3789062,64.2610657 27.2470716,63.9534516 26.9833984,63.7353516 C26.7197252,63.5172515 26.2265661,63.4082031 25.5039062,63.4082031 L23.7460938,63.4082031 L22.59375,67.4023438 C22.3854156,68.1119827 22.28125,68.5839832 22.28125,68.8183594 C22.28125,69.059246 22.3707673,69.244791 22.5498047,69.375 C22.728842,69.505209 23.1666632,69.5930987 23.8632812,69.6386719 L23.7460938,70 L18.5117188,70 L18.6386719,69.6386719 C19.1464869,69.625651 19.4850252,69.5800785 19.6542969,69.5019531 C19.9147148,69.3912755 20.1067702,69.2415374 20.2304688,69.0527344 C20.4062509,68.785806 20.6145821,68.2356812 20.8554688,67.4023438 L23.1894531,59.4238281 C23.3782562,58.7792937 23.4726562,58.2747414 23.4726562,57.9101562 C23.4726562,57.7408846 23.430339,57.5960292 23.3457031,57.4755859 C23.2610673,57.3551426 23.135743,57.2656253 22.9697266,57.2070312 C22.8037101,57.1484372 22.4733098,57.1191406 21.9785156,57.1191406 L22.0957031,56.7578125 L32.3691406,56.7578125 L31.3925781,60.1074219 L31.0214844,60.1074219 C31.0930993,59.703774 31.1289062,59.3717461 31.1289062,59.1113281 C31.1289062,58.6816385 31.0100923,58.3414726 30.7724609,58.0908203 C30.5348295,57.840168 30.2304706,57.6627609 29.859375,57.5585938 C29.598957,57.4934893 29.0162806,57.4609375 28.1113281,57.4609375 L25.5039062,57.4609375 Z" id="F"/>
                    </g>
                    <g id="&#x4E0A;" transform="translate(105.000000, 92.000000)">
                        <path d="M33.5,26.5 L33.5,76 C33.5,76.8284271 32.8284271,77.5 32,77.5 C31.1715729,77.5 30.5,76.8284271 30.5,76 L30.5,46 L22.5,46 L32,27 L41.5,46 L33.5,46 Z" id="&#x8DEF;&#x5F84;-13"/>
                        <path d="M6.50390625,5.4609375 L4.94140625,10.7050781 L6.6796875,10.7050781 C7.46094141,10.7050781 8.04524546,10.5846366 8.43261719,10.34375 C8.81998892,10.1028634 9.21874795,9.58854561 9.62890625,8.80078125 L10,8.80078125 L8.62304688,13.625 L8.23242188,13.625 C8.33007861,13.234373 8.37890625,12.9121106 8.37890625,12.6582031 C8.37890625,12.2610657 8.24707163,11.9534516 7.98339844,11.7353516 C7.71972524,11.5172515 7.22656611,11.4082031 6.50390625,11.4082031 L4.74609375,11.4082031 L3.59375,15.4023438 C3.38541563,16.1119827 3.28125,16.5839832 3.28125,16.8183594 C3.28125,17.059246 3.37076733,17.244791 3.54980469,17.375 C3.72884204,17.505209 4.16666318,17.5930987 4.86328125,17.6386719 L4.74609375,18 L-0.48828125,18 L-0.361328125,17.6386719 C0.146486914,17.625651 0.485025195,17.5800785 0.654296875,17.5019531 C0.914714844,17.3912755 1.10677021,17.2415374 1.23046875,17.0527344 C1.40625088,16.785806 1.61458213,16.2356812 1.85546875,15.4023438 L4.18945312,7.42382812 C4.37825615,6.77929365 4.47265625,6.27474141 4.47265625,5.91015625 C4.47265625,5.74088457 4.43033896,5.59602925 4.34570312,5.47558594 C4.26106729,5.35514263 4.13574302,5.26562529 3.96972656,5.20703125 C3.80371011,5.14843721 3.47330977,5.11914062 2.97851563,5.11914062 L3.09570312,4.7578125 L13.3691406,4.7578125 L12.3925781,8.10742188 L12.0214844,8.10742188 C12.0930993,7.70377402 12.1289062,7.37174609 12.1289062,7.11132812 C12.1289062,6.68163848 12.0100923,6.34147261 11.7724609,6.09082031 C11.5348295,5.84016802 11.2304706,5.66276094 10.859375,5.55859375 C10.598957,5.49348926 10.0162806,5.4609375 9.11132812,5.4609375 L6.50390625,5.4609375 Z" id="F"/>
                    </g>
                </g>
                <g id="11" transform="translate(3580.000000, 0.000000)" fill="#FFFFFF" fill-rule="nonzero">
                    <g id="&#x4E0B;" transform="translate(236.000000, 107.000000)">
                        <path d="M-0.5,49.5 L-0.5,0 C-0.5,-0.828427125 0.171572875,-1.5 1,-1.5 C1.82842712,-1.5 2.5,-0.828427125 2.5,0 L2.5,29 L10.5,29 L1,48 L-8.5,29 L-0.5,29 Z" id="&#x8DEF;&#x5F84;-13"/>
                        <path d="M25.5039062,57.4609375 L23.9414062,62.7050781 L25.6796875,62.7050781 C26.4609414,62.7050781 27.0452455,62.5846366 27.4326172,62.34375 C27.8199889,62.1028634 28.2187479,61.5885456 28.6289062,60.8007812 L29,60.8007812 L27.6230469,65.625 L27.2324219,65.625 C27.3300786,65.234373 27.3789062,64.9121106 27.3789062,64.6582031 C27.3789062,64.2610657 27.2470716,63.9534516 26.9833984,63.7353516 C26.7197252,63.5172515 26.2265661,63.4082031 25.5039062,63.4082031 L23.7460938,63.4082031 L22.59375,67.4023438 C22.3854156,68.1119827 22.28125,68.5839832 22.28125,68.8183594 C22.28125,69.059246 22.3707673,69.244791 22.5498047,69.375 C22.728842,69.505209 23.1666632,69.5930987 23.8632812,69.6386719 L23.7460938,70 L18.5117188,70 L18.6386719,69.6386719 C19.1464869,69.625651 19.4850252,69.5800785 19.6542969,69.5019531 C19.9147148,69.3912755 20.1067702,69.2415374 20.2304688,69.0527344 C20.4062509,68.785806 20.6145821,68.2356812 20.8554688,67.4023438 L23.1894531,59.4238281 C23.3782562,58.7792937 23.4726562,58.2747414 23.4726562,57.9101562 C23.4726562,57.7408846 23.430339,57.5960292 23.3457031,57.4755859 C23.2610673,57.3551426 23.135743,57.2656253 22.9697266,57.2070312 C22.8037101,57.1484372 22.4733098,57.1191406 21.9785156,57.1191406 L22.0957031,56.7578125 L32.3691406,56.7578125 L31.3925781,60.1074219 L31.0214844,60.1074219 C31.0930993,59.703774 31.1289062,59.3717461 31.1289062,59.1113281 C31.1289062,58.6816385 31.0100923,58.3414726 30.7724609,58.0908203 C30.5348295,57.840168 30.2304706,57.6627609 29.859375,57.5585938 C29.598957,57.4934893 29.0162806,57.4609375 28.1113281,57.4609375 L25.5039062,57.4609375 Z" id="F"/>
                    </g>
                    <g id="&#x4E0A;" transform="translate(95.000000, 82.000000)">
                        <path d="M33.5,26.5 L33.5,76 C33.5,76.8284271 32.8284271,77.5 32,77.5 C31.1715729,77.5 30.5,76.8284271 30.5,76 L30.5,46 L22.5,46 L32,27 L41.5,46 L33.5,46 Z" id="&#x8DEF;&#x5F84;-13"/>
                        <path d="M6.50390625,5.4609375 L4.94140625,10.7050781 L6.6796875,10.7050781 C7.46094141,10.7050781 8.04524546,10.5846366 8.43261719,10.34375 C8.81998892,10.1028634 9.21874795,9.58854561 9.62890625,8.80078125 L10,8.80078125 L8.62304688,13.625 L8.23242188,13.625 C8.33007861,13.234373 8.37890625,12.9121106 8.37890625,12.6582031 C8.37890625,12.2610657 8.24707163,11.9534516 7.98339844,11.7353516 C7.71972524,11.5172515 7.22656611,11.4082031 6.50390625,11.4082031 L4.74609375,11.4082031 L3.59375,15.4023438 C3.38541563,16.1119827 3.28125,16.5839832 3.28125,16.8183594 C3.28125,17.059246 3.37076733,17.244791 3.54980469,17.375 C3.72884204,17.505209 4.16666318,17.5930987 4.86328125,17.6386719 L4.74609375,18 L-0.48828125,18 L-0.361328125,17.6386719 C0.146486914,17.625651 0.485025195,17.5800785 0.654296875,17.5019531 C0.914714844,17.3912755 1.10677021,17.2415374 1.23046875,17.0527344 C1.40625088,16.785806 1.61458213,16.2356812 1.85546875,15.4023438 L4.18945312,7.42382812 C4.37825615,6.77929365 4.47265625,6.27474141 4.47265625,5.91015625 C4.47265625,5.74088457 4.43033896,5.59602925 4.34570312,5.47558594 C4.26106729,5.35514263 4.13574302,5.26562529 3.96972656,5.20703125 C3.80371011,5.14843721 3.47330977,5.11914062 2.97851563,5.11914062 L3.09570312,4.7578125 L13.3691406,4.7578125 L12.3925781,8.10742188 L12.0214844,8.10742188 C12.0930993,7.70377402 12.1289062,7.37174609 12.1289062,7.11132812 C12.1289062,6.68163848 12.0100923,6.34147261 11.7724609,6.09082031 C11.5348295,5.84016802 11.2304706,5.66276094 10.859375,5.55859375 C10.598957,5.49348926 10.0162806,5.4609375 9.11132812,5.4609375 L6.50390625,5.4609375 Z" id="F"/>
                    </g>
                </g>
                <g id="12" transform="translate(3938.000000, 0.000000)" fill="#FFFFFF" fill-rule="nonzero">
                    <g id="&#x4E0B;" transform="translate(242.000000, 121.000000)">
                        <path d="M-0.5,49.5 L-0.5,0 C-0.5,-0.828427125 0.171572875,-1.5 1,-1.5 C1.82842712,-1.5 2.5,-0.828427125 2.5,0 L2.5,29 L10.5,29 L1,48 L-8.5,29 L-0.5,29 Z" id="&#x8DEF;&#x5F84;-13"/>
                        <path d="M25.5039062,57.4609375 L23.9414062,62.7050781 L25.6796875,62.7050781 C26.4609414,62.7050781 27.0452455,62.5846366 27.4326172,62.34375 C27.8199889,62.1028634 28.2187479,61.5885456 28.6289062,60.8007812 L29,60.8007812 L27.6230469,65.625 L27.2324219,65.625 C27.3300786,65.234373 27.3789062,64.9121106 27.3789062,64.6582031 C27.3789062,64.2610657 27.2470716,63.9534516 26.9833984,63.7353516 C26.7197252,63.5172515 26.2265661,63.4082031 25.5039062,63.4082031 L23.7460938,63.4082031 L22.59375,67.4023438 C22.3854156,68.1119827 22.28125,68.5839832 22.28125,68.8183594 C22.28125,69.059246 22.3707673,69.244791 22.5498047,69.375 C22.728842,69.505209 23.1666632,69.5930987 23.8632812,69.6386719 L23.7460938,70 L18.5117188,70 L18.6386719,69.6386719 C19.1464869,69.625651 19.4850252,69.5800785 19.6542969,69.5019531 C19.9147148,69.3912755 20.1067702,69.2415374 20.2304688,69.0527344 C20.4062509,68.785806 20.6145821,68.2356812 20.8554688,67.4023438 L23.1894531,59.4238281 C23.3782562,58.7792937 23.4726562,58.2747414 23.4726562,57.9101562 C23.4726562,57.7408846 23.430339,57.5960292 23.3457031,57.4755859 C23.2610673,57.3551426 23.135743,57.2656253 22.9697266,57.2070312 C22.8037101,57.1484372 22.4733098,57.1191406 21.9785156,57.1191406 L22.0957031,56.7578125 L32.3691406,56.7578125 L31.3925781,60.1074219 L31.0214844,60.1074219 C31.0930993,59.703774 31.1289062,59.3717461 31.1289062,59.1113281 C31.1289062,58.6816385 31.0100923,58.3414726 30.7724609,58.0908203 C30.5348295,57.840168 30.2304706,57.6627609 29.859375,57.5585938 C29.598957,57.4934893 29.0162806,57.4609375 28.1113281,57.4609375 L25.5039062,57.4609375 Z" id="F"/>
                    </g>
                    <g id="&#x4E0A;" transform="translate(88.000000, 69.000000)">
                        <path d="M33.5,26.5 L33.5,76 C33.5,76.8284271 32.8284271,77.5 32,77.5 C31.1715729,77.5 30.5,76.8284271 30.5,76 L30.5,46 L22.5,46 L32,27 L41.5,46 L33.5,46 Z" id="&#x8DEF;&#x5F84;-13"/>
                        <path d="M6.50390625,5.4609375 L4.94140625,10.7050781 L6.6796875,10.7050781 C7.46094141,10.7050781 8.04524546,10.5846366 8.43261719,10.34375 C8.81998892,10.1028634 9.21874795,9.58854561 9.62890625,8.80078125 L10,8.80078125 L8.62304688,13.625 L8.23242188,13.625 C8.33007861,13.234373 8.37890625,12.9121106 8.37890625,12.6582031 C8.37890625,12.2610657 8.24707163,11.9534516 7.98339844,11.7353516 C7.71972524,11.5172515 7.22656611,11.4082031 6.50390625,11.4082031 L4.74609375,11.4082031 L3.59375,15.4023438 C3.38541563,16.1119827 3.28125,16.5839832 3.28125,16.8183594 C3.28125,17.059246 3.37076733,17.244791 3.54980469,17.375 C3.72884204,17.505209 4.16666318,17.5930987 4.86328125,17.6386719 L4.74609375,18 L-0.48828125,18 L-0.361328125,17.6386719 C0.146486914,17.625651 0.485025195,17.5800785 0.654296875,17.5019531 C0.914714844,17.3912755 1.10677021,17.2415374 1.23046875,17.0527344 C1.40625088,16.785806 1.61458213,16.2356812 1.85546875,15.4023438 L4.18945312,7.42382812 C4.37825615,6.77929365 4.47265625,6.27474141 4.47265625,5.91015625 C4.47265625,5.74088457 4.43033896,5.59602925 4.34570312,5.47558594 C4.26106729,5.35514263 4.13574302,5.26562529 3.96972656,5.20703125 C3.80371011,5.14843721 3.47330977,5.11914062 2.97851563,5.11914062 L3.09570312,4.7578125 L13.3691406,4.7578125 L12.3925781,8.10742188 L12.0214844,8.10742188 C12.0930993,7.70377402 12.1289062,7.37174609 12.1289062,7.11132812 C12.1289062,6.68163848 12.0100923,6.34147261 11.7724609,6.09082031 C11.5348295,5.84016802 11.2304706,5.66276094 10.859375,5.55859375 C10.598957,5.49348926 10.0162806,5.4609375 9.11132812,5.4609375 L6.50390625,5.4609375 Z" id="F"/>
                    </g>
                </g>
                <g id="13" transform="translate(4296.000000, 0.000000)" fill="#FFFFFF" fill-rule="nonzero">
                    <g id="&#x4E0B;" transform="translate(243.000000, 135.000000)">
                        <path d="M-0.5,49.5 L-0.5,0 C-0.5,-0.828427125 0.171572875,-1.5 1,-1.5 C1.82842712,-1.5 2.5,-0.828427125 2.5,0 L2.5,29 L10.5,29 L1,48 L-8.5,29 L-0.5,29 Z" id="&#x8DEF;&#x5F84;-13"/>
                        <path d="M25.5039062,57.4609375 L23.9414062,62.7050781 L25.6796875,62.7050781 C26.4609414,62.7050781 27.0452455,62.5846366 27.4326172,62.34375 C27.8199889,62.1028634 28.2187479,61.5885456 28.6289062,60.8007812 L29,60.8007812 L27.6230469,65.625 L27.2324219,65.625 C27.3300786,65.234373 27.3789062,64.9121106 27.3789062,64.6582031 C27.3789062,64.2610657 27.2470716,63.9534516 26.9833984,63.7353516 C26.7197252,63.5172515 26.2265661,63.4082031 25.5039062,63.4082031 L23.7460938,63.4082031 L22.59375,67.4023438 C22.3854156,68.1119827 22.28125,68.5839832 22.28125,68.8183594 C22.28125,69.059246 22.3707673,69.244791 22.5498047,69.375 C22.728842,69.505209 23.1666632,69.5930987 23.8632812,69.6386719 L23.7460938,70 L18.5117188,70 L18.6386719,69.6386719 C19.1464869,69.625651 19.4850252,69.5800785 19.6542969,69.5019531 C19.9147148,69.3912755 20.1067702,69.2415374 20.2304688,69.0527344 C20.4062509,68.785806 20.6145821,68.2356812 20.8554688,67.4023438 L23.1894531,59.4238281 C23.3782562,58.7792937 23.4726562,58.2747414 23.4726562,57.9101562 C23.4726562,57.7408846 23.430339,57.5960292 23.3457031,57.4755859 C23.2610673,57.3551426 23.135743,57.2656253 22.9697266,57.2070312 C22.8037101,57.1484372 22.4733098,57.1191406 21.9785156,57.1191406 L22.0957031,56.7578125 L32.3691406,56.7578125 L31.3925781,60.1074219 L31.0214844,60.1074219 C31.0930993,59.703774 31.1289062,59.3717461 31.1289062,59.1113281 C31.1289062,58.6816385 31.0100923,58.3414726 30.7724609,58.0908203 C30.5348295,57.840168 30.2304706,57.6627609 29.859375,57.5585938 C29.598957,57.4934893 29.0162806,57.4609375 28.1113281,57.4609375 L25.5039062,57.4609375 Z" id="F"/>
                    </g>
                    <g id="&#x4E0A;" transform="translate(84.000000, 55.000000)">
                        <path d="M33.5,26.5 L33.5,76 C33.5,76.8284271 32.8284271,77.5 32,77.5 C31.1715729,77.5 30.5,76.8284271 30.5,76 L30.5,46 L22.5,46 L32,27 L41.5,46 L33.5,46 Z" id="&#x8DEF;&#x5F84;-13"/>
                        <path d="M6.50390625,5.4609375 L4.94140625,10.7050781 L6.6796875,10.7050781 C7.46094141,10.7050781 8.04524546,10.5846366 8.43261719,10.34375 C8.81998892,10.1028634 9.21874795,9.58854561 9.62890625,8.80078125 L10,8.80078125 L8.62304688,13.625 L8.23242188,13.625 C8.33007861,13.234373 8.37890625,12.9121106 8.37890625,12.6582031 C8.37890625,12.2610657 8.24707163,11.9534516 7.98339844,11.7353516 C7.71972524,11.5172515 7.22656611,11.4082031 6.50390625,11.4082031 L4.74609375,11.4082031 L3.59375,15.4023438 C3.38541563,16.1119827 3.28125,16.5839832 3.28125,16.8183594 C3.28125,17.059246 3.37076733,17.244791 3.54980469,17.375 C3.72884204,17.505209 4.16666318,17.5930987 4.86328125,17.6386719 L4.74609375,18 L-0.48828125,18 L-0.361328125,17.6386719 C0.146486914,17.625651 0.485025195,17.5800785 0.654296875,17.5019531 C0.914714844,17.3912755 1.10677021,17.2415374 1.23046875,17.0527344 C1.40625088,16.785806 1.61458213,16.2356812 1.85546875,15.4023438 L4.18945312,7.42382812 C4.37825615,6.77929365 4.47265625,6.27474141 4.47265625,5.91015625 C4.47265625,5.74088457 4.43033896,5.59602925 4.34570312,5.47558594 C4.26106729,5.35514263 4.13574302,5.26562529 3.96972656,5.20703125 C3.80371011,5.14843721 3.47330977,5.11914062 2.97851563,5.11914062 L3.09570312,4.7578125 L13.3691406,4.7578125 L12.3925781,8.10742188 L12.0214844,8.10742188 C12.0930993,7.70377402 12.1289062,7.37174609 12.1289062,7.11132812 C12.1289062,6.68163848 12.0100923,6.34147261 11.7724609,6.09082031 C11.5348295,5.84016802 11.2304706,5.66276094 10.859375,5.55859375 C10.598957,5.49348926 10.0162806,5.4609375 9.11132812,5.4609375 L6.50390625,5.4609375 Z" id="F"/>
                    </g>
                </g>
                <g id="14" transform="translate(4654.000000, 0.000000)" fill="#FFFFFF" fill-rule="nonzero">
                    <g id="&#x4E0B;" transform="translate(240.000000, 150.000000)">
                        <path d="M-0.5,49.5 L-0.5,0 C-0.5,-0.828427125 0.171572875,-1.5 1,-1.5 C1.82842712,-1.5 2.5,-0.828427125 2.5,0 L2.5,29 L10.5,29 L1,48 L-8.5,29 L-0.5,29 Z" id="&#x8DEF;&#x5F84;-13"/>
                        <path d="M25.5039062,57.4609375 L23.9414062,62.7050781 L25.6796875,62.7050781 C26.4609414,62.7050781 27.0452455,62.5846366 27.4326172,62.34375 C27.8199889,62.1028634 28.2187479,61.5885456 28.6289062,60.8007812 L29,60.8007812 L27.6230469,65.625 L27.2324219,65.625 C27.3300786,65.234373 27.3789062,64.9121106 27.3789062,64.6582031 C27.3789062,64.2610657 27.2470716,63.9534516 26.9833984,63.7353516 C26.7197252,63.5172515 26.2265661,63.4082031 25.5039062,63.4082031 L23.7460938,63.4082031 L22.59375,67.4023438 C22.3854156,68.1119827 22.28125,68.5839832 22.28125,68.8183594 C22.28125,69.059246 22.3707673,69.244791 22.5498047,69.375 C22.728842,69.505209 23.1666632,69.5930987 23.8632812,69.6386719 L23.7460938,70 L18.5117188,70 L18.6386719,69.6386719 C19.1464869,69.625651 19.4850252,69.5800785 19.6542969,69.5019531 C19.9147148,69.3912755 20.1067702,69.2415374 20.2304688,69.0527344 C20.4062509,68.785806 20.6145821,68.2356812 20.8554688,67.4023438 L23.1894531,59.4238281 C23.3782562,58.7792937 23.4726562,58.2747414 23.4726562,57.9101562 C23.4726562,57.7408846 23.430339,57.5960292 23.3457031,57.4755859 C23.2610673,57.3551426 23.135743,57.2656253 22.9697266,57.2070312 C22.8037101,57.1484372 22.4733098,57.1191406 21.9785156,57.1191406 L22.0957031,56.7578125 L32.3691406,56.7578125 L31.3925781,60.1074219 L31.0214844,60.1074219 C31.0930993,59.703774 31.1289062,59.3717461 31.1289062,59.1113281 C31.1289062,58.6816385 31.0100923,58.3414726 30.7724609,58.0908203 C30.5348295,57.840168 30.2304706,57.6627609 29.859375,57.5585938 C29.598957,57.4934893 29.0162806,57.4609375 28.1113281,57.4609375 L25.5039062,57.4609375 Z" id="F"/>
                    </g>
                    <g id="&#x4E0A;" transform="translate(87.000000, 39.000000)">
                        <path d="M33.5,26.5 L33.5,76 C33.5,76.8284271 32.8284271,77.5 32,77.5 C31.1715729,77.5 30.5,76.8284271 30.5,76 L30.5,46 L22.5,46 L32,27 L41.5,46 L33.5,46 Z" id="&#x8DEF;&#x5F84;-13"/>
                        <path d="M6.50390625,5.4609375 L4.94140625,10.7050781 L6.6796875,10.7050781 C7.46094141,10.7050781 8.04524546,10.5846366 8.43261719,10.34375 C8.81998892,10.1028634 9.21874795,9.58854561 9.62890625,8.80078125 L10,8.80078125 L8.62304688,13.625 L8.23242188,13.625 C8.33007861,13.234373 8.37890625,12.9121106 8.37890625,12.6582031 C8.37890625,12.2610657 8.24707163,11.9534516 7.98339844,11.7353516 C7.71972524,11.5172515 7.22656611,11.4082031 6.50390625,11.4082031 L4.74609375,11.4082031 L3.59375,15.4023438 C3.38541563,16.1119827 3.28125,16.5839832 3.28125,16.8183594 C3.28125,17.059246 3.37076733,17.244791 3.54980469,17.375 C3.72884204,17.505209 4.16666318,17.5930987 4.86328125,17.6386719 L4.74609375,18 L-0.48828125,18 L-0.361328125,17.6386719 C0.146486914,17.625651 0.485025195,17.5800785 0.654296875,17.5019531 C0.914714844,17.3912755 1.10677021,17.2415374 1.23046875,17.0527344 C1.40625088,16.785806 1.61458213,16.2356812 1.85546875,15.4023438 L4.18945312,7.42382812 C4.37825615,6.77929365 4.47265625,6.27474141 4.47265625,5.91015625 C4.47265625,5.74088457 4.43033896,5.59602925 4.34570312,5.47558594 C4.26106729,5.35514263 4.13574302,5.26562529 3.96972656,5.20703125 C3.80371011,5.14843721 3.47330977,5.11914062 2.97851563,5.11914062 L3.09570312,4.7578125 L13.3691406,4.7578125 L12.3925781,8.10742188 L12.0214844,8.10742188 C12.0930993,7.70377402 12.1289062,7.37174609 12.1289062,7.11132812 C12.1289062,6.68163848 12.0100923,6.34147261 11.7724609,6.09082031 C11.5348295,5.84016802 11.2304706,5.66276094 10.859375,5.55859375 C10.598957,5.49348926 10.0162806,5.4609375 9.11132812,5.4609375 L6.50390625,5.4609375 Z" id="F"/>
                    </g>
                </g>
                <g id="15" transform="translate(5012.000000, 0.000000)" fill="#FFFFFF" fill-rule="nonzero">
                    <g id="&#x4E0B;" transform="translate(232.000000, 164.000000)">
                        <path d="M-0.5,49.5 L-0.5,0 C-0.5,-0.828427125 0.171572875,-1.5 1,-1.5 C1.82842712,-1.5 2.5,-0.828427125 2.5,0 L2.5,29 L10.5,29 L1,48 L-8.5,29 L-0.5,29 Z" id="&#x8DEF;&#x5F84;-13"/>
                        <path d="M25.5039062,57.4609375 L23.9414062,62.7050781 L25.6796875,62.7050781 C26.4609414,62.7050781 27.0452455,62.5846366 27.4326172,62.34375 C27.8199889,62.1028634 28.2187479,61.5885456 28.6289062,60.8007812 L29,60.8007812 L27.6230469,65.625 L27.2324219,65.625 C27.3300786,65.234373 27.3789062,64.9121106 27.3789062,64.6582031 C27.3789062,64.2610657 27.2470716,63.9534516 26.9833984,63.7353516 C26.7197252,63.5172515 26.2265661,63.4082031 25.5039062,63.4082031 L23.7460938,63.4082031 L22.59375,67.4023438 C22.3854156,68.1119827 22.28125,68.5839832 22.28125,68.8183594 C22.28125,69.059246 22.3707673,69.244791 22.5498047,69.375 C22.728842,69.505209 23.1666632,69.5930987 23.8632812,69.6386719 L23.7460938,70 L18.5117188,70 L18.6386719,69.6386719 C19.1464869,69.625651 19.4850252,69.5800785 19.6542969,69.5019531 C19.9147148,69.3912755 20.1067702,69.2415374 20.2304688,69.0527344 C20.4062509,68.785806 20.6145821,68.2356812 20.8554688,67.4023438 L23.1894531,59.4238281 C23.3782562,58.7792937 23.4726562,58.2747414 23.4726562,57.9101562 C23.4726562,57.7408846 23.430339,57.5960292 23.3457031,57.4755859 C23.2610673,57.3551426 23.135743,57.2656253 22.9697266,57.2070312 C22.8037101,57.1484372 22.4733098,57.1191406 21.9785156,57.1191406 L22.0957031,56.7578125 L32.3691406,56.7578125 L31.3925781,60.1074219 L31.0214844,60.1074219 C31.0930993,59.703774 31.1289062,59.3717461 31.1289062,59.1113281 C31.1289062,58.6816385 31.0100923,58.3414726 30.7724609,58.0908203 C30.5348295,57.840168 30.2304706,57.6627609 29.859375,57.5585938 C29.598957,57.4934893 29.0162806,57.4609375 28.1113281,57.4609375 L25.5039062,57.4609375 Z" id="F"/>
                    </g>
                    <g id="&#x4E0A;" transform="translate(92.000000, 27.000000)">
                        <path d="M33.5,26.5 L33.5,76 C33.5,76.8284271 32.8284271,77.5 32,77.5 C31.1715729,77.5 30.5,76.8284271 30.5,76 L30.5,46 L22.5,46 L32,27 L41.5,46 L33.5,46 Z" id="&#x8DEF;&#x5F84;-13"/>
                        <path d="M6.50390625,5.4609375 L4.94140625,10.7050781 L6.6796875,10.7050781 C7.46094141,10.7050781 8.04524546,10.5846366 8.43261719,10.34375 C8.81998892,10.1028634 9.21874795,9.58854561 9.62890625,8.80078125 L10,8.80078125 L8.62304688,13.625 L8.23242188,13.625 C8.33007861,13.234373 8.37890625,12.9121106 8.37890625,12.6582031 C8.37890625,12.2610657 8.24707163,11.9534516 7.98339844,11.7353516 C7.71972524,11.5172515 7.22656611,11.4082031 6.50390625,11.4082031 L4.74609375,11.4082031 L3.59375,15.4023438 C3.38541563,16.1119827 3.28125,16.5839832 3.28125,16.8183594 C3.28125,17.059246 3.37076733,17.244791 3.54980469,17.375 C3.72884204,17.505209 4.16666318,17.5930987 4.86328125,17.6386719 L4.74609375,18 L-0.48828125,18 L-0.361328125,17.6386719 C0.146486914,17.625651 0.485025195,17.5800785 0.654296875,17.5019531 C0.914714844,17.3912755 1.10677021,17.2415374 1.23046875,17.0527344 C1.40625088,16.785806 1.61458213,16.2356812 1.85546875,15.4023438 L4.18945312,7.42382812 C4.37825615,6.77929365 4.47265625,6.27474141 4.47265625,5.91015625 C4.47265625,5.74088457 4.43033896,5.59602925 4.34570312,5.47558594 C4.26106729,5.35514263 4.13574302,5.26562529 3.96972656,5.20703125 C3.80371011,5.14843721 3.47330977,5.11914062 2.97851563,5.11914062 L3.09570312,4.7578125 L13.3691406,4.7578125 L12.3925781,8.10742188 L12.0214844,8.10742188 C12.0930993,7.70377402 12.1289062,7.37174609 12.1289062,7.11132812 C12.1289062,6.68163848 12.0100923,6.34147261 11.7724609,6.09082031 C11.5348295,5.84016802 11.2304706,5.66276094 10.859375,5.55859375 C10.598957,5.49348926 10.0162806,5.4609375 9.11132812,5.4609375 L6.50390625,5.4609375 Z" id="F"/>
                    </g>
                </g>
                <g id="16" transform="translate(5370.000000, 0.000000)" fill="#FFFFFF" fill-rule="nonzero">
                    <g id="&#x4E0B;" transform="translate(222.000000, 173.000000)">
                        <path d="M-0.5,49.5 L-0.5,0 C-0.5,-0.828427125 0.171572875,-1.5 1,-1.5 C1.82842712,-1.5 2.5,-0.828427125 2.5,0 L2.5,29 L10.5,29 L1,48 L-8.5,29 L-0.5,29 Z" id="&#x8DEF;&#x5F84;-13"/>
                        <path d="M25.5039062,57.4609375 L23.9414062,62.7050781 L25.6796875,62.7050781 C26.4609414,62.7050781 27.0452455,62.5846366 27.4326172,62.34375 C27.8199889,62.1028634 28.2187479,61.5885456 28.6289062,60.8007812 L29,60.8007812 L27.6230469,65.625 L27.2324219,65.625 C27.3300786,65.234373 27.3789062,64.9121106 27.3789062,64.6582031 C27.3789062,64.2610657 27.2470716,63.9534516 26.9833984,63.7353516 C26.7197252,63.5172515 26.2265661,63.4082031 25.5039062,63.4082031 L23.7460938,63.4082031 L22.59375,67.4023438 C22.3854156,68.1119827 22.28125,68.5839832 22.28125,68.8183594 C22.28125,69.059246 22.3707673,69.244791 22.5498047,69.375 C22.728842,69.505209 23.1666632,69.5930987 23.8632812,69.6386719 L23.7460938,70 L18.5117188,70 L18.6386719,69.6386719 C19.1464869,69.625651 19.4850252,69.5800785 19.6542969,69.5019531 C19.9147148,69.3912755 20.1067702,69.2415374 20.2304688,69.0527344 C20.4062509,68.785806 20.6145821,68.2356812 20.8554688,67.4023438 L23.1894531,59.4238281 C23.3782562,58.7792937 23.4726562,58.2747414 23.4726562,57.9101562 C23.4726562,57.7408846 23.430339,57.5960292 23.3457031,57.4755859 C23.2610673,57.3551426 23.135743,57.2656253 22.9697266,57.2070312 C22.8037101,57.1484372 22.4733098,57.1191406 21.9785156,57.1191406 L22.0957031,56.7578125 L32.3691406,56.7578125 L31.3925781,60.1074219 L31.0214844,60.1074219 C31.0930993,59.703774 31.1289062,59.3717461 31.1289062,59.1113281 C31.1289062,58.6816385 31.0100923,58.3414726 30.7724609,58.0908203 C30.5348295,57.840168 30.2304706,57.6627609 29.859375,57.5585938 C29.598957,57.4934893 29.0162806,57.4609375 28.1113281,57.4609375 L25.5039062,57.4609375 Z" id="F"/>
                    </g>
                    <g id="&#x4E0A;" transform="translate(102.000000, 14.000000)">
                        <path d="M33.5,26.5 L33.5,76 C33.5,76.8284271 32.8284271,77.5 32,77.5 C31.1715729,77.5 30.5,76.8284271 30.5,76 L30.5,46 L22.5,46 L32,27 L41.5,46 L33.5,46 Z" id="&#x8DEF;&#x5F84;-13"/>
                        <path d="M6.50390625,5.4609375 L4.94140625,10.7050781 L6.6796875,10.7050781 C7.46094141,10.7050781 8.04524546,10.5846366 8.43261719,10.34375 C8.81998892,10.1028634 9.21874795,9.58854561 9.62890625,8.80078125 L10,8.80078125 L8.62304688,13.625 L8.23242188,13.625 C8.33007861,13.234373 8.37890625,12.9121106 8.37890625,12.6582031 C8.37890625,12.2610657 8.24707163,11.9534516 7.98339844,11.7353516 C7.71972524,11.5172515 7.22656611,11.4082031 6.50390625,11.4082031 L4.74609375,11.4082031 L3.59375,15.4023438 C3.38541563,16.1119827 3.28125,16.5839832 3.28125,16.8183594 C3.28125,17.059246 3.37076733,17.244791 3.54980469,17.375 C3.72884204,17.505209 4.16666318,17.5930987 4.86328125,17.6386719 L4.74609375,18 L-0.48828125,18 L-0.361328125,17.6386719 C0.146486914,17.625651 0.485025195,17.5800785 0.654296875,17.5019531 C0.914714844,17.3912755 1.10677021,17.2415374 1.23046875,17.0527344 C1.40625088,16.785806 1.61458213,16.2356812 1.85546875,15.4023438 L4.18945312,7.42382812 C4.37825615,6.77929365 4.47265625,6.27474141 4.47265625,5.91015625 C4.47265625,5.74088457 4.43033896,5.59602925 4.34570312,5.47558594 C4.26106729,5.35514263 4.13574302,5.26562529 3.96972656,5.20703125 C3.80371011,5.14843721 3.47330977,5.11914062 2.97851563,5.11914062 L3.09570312,4.7578125 L13.3691406,4.7578125 L12.3925781,8.10742188 L12.0214844,8.10742188 C12.0930993,7.70377402 12.1289062,7.37174609 12.1289062,7.11132812 C12.1289062,6.68163848 12.0100923,6.34147261 11.7724609,6.09082031 C11.5348295,5.84016802 11.2304706,5.66276094 10.859375,5.55859375 C10.598957,5.49348926 10.0162806,5.4609375 9.11132812,5.4609375 L6.50390625,5.4609375 Z" id="F"/>
                    </g>
                </g>
                <g id="17" transform="translate(5728.000000, 0.000000)" fill="#FFFFFF">
                    <g id="&#x4E0B;" transform="translate(209.000000, 183.000000)" fill-rule="nonzero">
                        <path d="M-0.5,49.5 L-0.5,0 C-0.5,-0.828427125 0.171572875,-1.5 1,-1.5 C1.82842712,-1.5 2.5,-0.828427125 2.5,0 L2.5,29 L10.5,29 L1,48 L-8.5,29 L-0.5,29 Z" id="&#x8DEF;&#x5F84;-13"/>
                        <path d="M25.5039062,57.4609375 L23.9414062,62.7050781 L25.6796875,62.7050781 C26.4609414,62.7050781 27.0452455,62.5846366 27.4326172,62.34375 C27.8199889,62.1028634 28.2187479,61.5885456 28.6289062,60.8007812 L29,60.8007812 L27.6230469,65.625 L27.2324219,65.625 C27.3300786,65.234373 27.3789062,64.9121106 27.3789062,64.6582031 C27.3789062,64.2610657 27.2470716,63.9534516 26.9833984,63.7353516 C26.7197252,63.5172515 26.2265661,63.4082031 25.5039062,63.4082031 L23.7460938,63.4082031 L22.59375,67.4023438 C22.3854156,68.1119827 22.28125,68.5839832 22.28125,68.8183594 C22.28125,69.059246 22.3707673,69.244791 22.5498047,69.375 C22.728842,69.505209 23.1666632,69.5930987 23.8632812,69.6386719 L23.7460938,70 L18.5117188,70 L18.6386719,69.6386719 C19.1464869,69.625651 19.4850252,69.5800785 19.6542969,69.5019531 C19.9147148,69.3912755 20.1067702,69.2415374 20.2304688,69.0527344 C20.4062509,68.785806 20.6145821,68.2356812 20.8554688,67.4023438 L23.1894531,59.4238281 C23.3782562,58.7792937 23.4726562,58.2747414 23.4726562,57.9101562 C23.4726562,57.7408846 23.430339,57.5960292 23.3457031,57.4755859 C23.2610673,57.3551426 23.135743,57.2656253 22.9697266,57.2070312 C22.8037101,57.1484372 22.4733098,57.1191406 21.9785156,57.1191406 L22.0957031,56.7578125 L32.3691406,56.7578125 L31.3925781,60.1074219 L31.0214844,60.1074219 C31.0930993,59.703774 31.1289062,59.3717461 31.1289062,59.1113281 C31.1289062,58.6816385 31.0100923,58.3414726 30.7724609,58.0908203 C30.5348295,57.840168 30.2304706,57.6627609 29.859375,57.5585938 C29.598957,57.4934893 29.0162806,57.4609375 28.1113281,57.4609375 L25.5039062,57.4609375 Z" id="F"/>
                    </g>
                    <g id="&#x4E0A;" transform="translate(115.000000, 5.000000)">
                        <path d="M33.5,26.5 L33.5,76 C33.5,76.8284271 32.8284271,77.5 32,77.5 C31.1715729,77.5 30.5,76.8284271 30.5,76 L30.5,46 L22.5,46 L32,27 L41.5,46 L33.5,46 Z" id="&#x8DEF;&#x5F84;-13" fill-rule="nonzero"/>
                        <text id="F" font-family="TimesNewRomanPS-ItalicMT, Times New Roman" font-size="20" font-style="italic" font-weight="normal">
                            <tspan x="0" y="18">F</tspan>
                        </text>
                    </g>
                </g>
                <g id="18" transform="translate(6086.000000, 0.000000)" fill="#FFFFFF">
                    <g id="&#x4E0B;" transform="translate(195.000000, 188.000000)" fill-rule="nonzero">
                        <path d="M-0.5,49.5 L-0.5,0 C-0.5,-0.828427125 0.171572875,-1.5 1,-1.5 C1.82842712,-1.5 2.5,-0.828427125 2.5,0 L2.5,29 L10.5,29 L1,48 L-8.5,29 L-0.5,29 Z" id="&#x8DEF;&#x5F84;-13"/>
                        <path d="M25.5039062,57.4609375 L23.9414062,62.7050781 L25.6796875,62.7050781 C26.4609414,62.7050781 27.0452455,62.5846366 27.4326172,62.34375 C27.8199889,62.1028634 28.2187479,61.5885456 28.6289062,60.8007812 L29,60.8007812 L27.6230469,65.625 L27.2324219,65.625 C27.3300786,65.234373 27.3789062,64.9121106 27.3789062,64.6582031 C27.3789062,64.2610657 27.2470716,63.9534516 26.9833984,63.7353516 C26.7197252,63.5172515 26.2265661,63.4082031 25.5039062,63.4082031 L23.7460938,63.4082031 L22.59375,67.4023438 C22.3854156,68.1119827 22.28125,68.5839832 22.28125,68.8183594 C22.28125,69.059246 22.3707673,69.244791 22.5498047,69.375 C22.728842,69.505209 23.1666632,69.5930987 23.8632812,69.6386719 L23.7460938,70 L18.5117188,70 L18.6386719,69.6386719 C19.1464869,69.625651 19.4850252,69.5800785 19.6542969,69.5019531 C19.9147148,69.3912755 20.1067702,69.2415374 20.2304688,69.0527344 C20.4062509,68.785806 20.6145821,68.2356812 20.8554688,67.4023438 L23.1894531,59.4238281 C23.3782562,58.7792937 23.4726562,58.2747414 23.4726562,57.9101562 C23.4726562,57.7408846 23.430339,57.5960292 23.3457031,57.4755859 C23.2610673,57.3551426 23.135743,57.2656253 22.9697266,57.2070312 C22.8037101,57.1484372 22.4733098,57.1191406 21.9785156,57.1191406 L22.0957031,56.7578125 L32.3691406,56.7578125 L31.3925781,60.1074219 L31.0214844,60.1074219 C31.0930993,59.703774 31.1289062,59.3717461 31.1289062,59.1113281 C31.1289062,58.6816385 31.0100923,58.3414726 30.7724609,58.0908203 C30.5348295,57.840168 30.2304706,57.6627609 29.859375,57.5585938 C29.598957,57.4934893 29.0162806,57.4609375 28.1113281,57.4609375 L25.5039062,57.4609375 Z" id="F"/>
                    </g>
                    <g id="&#x4E0A;" transform="translate(131.000000, 0.000000)">
                        <path d="M33.5,26.5 L33.5,76 C33.5,76.8284271 32.8284271,77.5 32,77.5 C31.1715729,77.5 30.5,76.8284271 30.5,76 L30.5,46 L22.5,46 L32,27 L41.5,46 L33.5,46 Z" id="&#x8DEF;&#x5F84;-13" fill-rule="nonzero"/>
                        <text id="F" font-family="TimesNewRomanPS-ItalicMT, Times New Roman" font-size="20" font-style="italic" font-weight="normal">
                            <tspan x="0" y="18">F</tspan>
                        </text>
                    </g>
                </g>
                <g id="19" transform="translate(6444.000000, 0.000000)"/>
                <g id="20" transform="translate(6802.000000, 0.000000)" fill="#FFFFFF" fill-rule="nonzero">
                    <g id="&#x4E0B;" transform="translate(198.000000, 77.000000)">
                        <path d="M-0.5,49.5 L-0.5,0 C-0.5,-0.828427125 0.171572875,-1.5 1,-1.5 C1.82842712,-1.5 2.5,-0.828427125 2.5,0 L2.5,29 L10.5,29 L1,48 L-8.5,29 L-0.5,29 Z" id="&#x8DEF;&#x5F84;-13"/>
                        <path d="M25.5039062,57.4609375 L23.9414062,62.7050781 L25.6796875,62.7050781 C26.4609414,62.7050781 27.0452455,62.5846366 27.4326172,62.34375 C27.8199889,62.1028634 28.2187479,61.5885456 28.6289062,60.8007812 L29,60.8007812 L27.6230469,65.625 L27.2324219,65.625 C27.3300786,65.234373 27.3789062,64.9121106 27.3789062,64.6582031 C27.3789062,64.2610657 27.2470716,63.9534516 26.9833984,63.7353516 C26.7197252,63.5172515 26.2265661,63.4082031 25.5039062,63.4082031 L23.7460938,63.4082031 L22.59375,67.4023438 C22.3854156,68.1119827 22.28125,68.5839832 22.28125,68.8183594 C22.28125,69.059246 22.3707673,69.244791 22.5498047,69.375 C22.728842,69.505209 23.1666632,69.5930987 23.8632812,69.6386719 L23.7460938,70 L18.5117188,70 L18.6386719,69.6386719 C19.1464869,69.625651 19.4850252,69.5800785 19.6542969,69.5019531 C19.9147148,69.3912755 20.1067702,69.2415374 20.2304688,69.0527344 C20.4062509,68.785806 20.6145821,68.2356812 20.8554688,67.4023438 L23.1894531,59.4238281 C23.3782562,58.7792937 23.4726562,58.2747414 23.4726562,57.9101562 C23.4726562,57.7408846 23.430339,57.5960292 23.3457031,57.4755859 C23.2610673,57.3551426 23.135743,57.2656253 22.9697266,57.2070312 C22.8037101,57.1484372 22.4733098,57.1191406 21.9785156,57.1191406 L22.0957031,56.7578125 L32.3691406,56.7578125 L31.3925781,60.1074219 L31.0214844,60.1074219 C31.0930993,59.703774 31.1289062,59.3717461 31.1289062,59.1113281 C31.1289062,58.6816385 31.0100923,58.3414726 30.7724609,58.0908203 C30.5348295,57.840168 30.2304706,57.6627609 29.859375,57.5585938 C29.598957,57.4934893 29.0162806,57.4609375 28.1113281,57.4609375 L25.5039062,57.4609375 Z" id="F"/>
                    </g>
                    <g id="&#x4E0A;" transform="translate(132.000000, 105.000000)">
                        <path d="M33.5,26.5 L33.5,76 C33.5,76.8284271 32.8284271,77.5 32,77.5 C31.1715729,77.5 30.5,76.8284271 30.5,76 L30.5,46 L22.5,46 L32,27 L41.5,46 L33.5,46 Z" id="&#x8DEF;&#x5F84;-13"/>
                        <path d="M6.50390625,5.4609375 L4.94140625,10.7050781 L6.6796875,10.7050781 C7.46094141,10.7050781 8.04524546,10.5846366 8.43261719,10.34375 C8.81998892,10.1028634 9.21874795,9.58854561 9.62890625,8.80078125 L10,8.80078125 L8.62304688,13.625 L8.23242188,13.625 C8.33007861,13.234373 8.37890625,12.9121106 8.37890625,12.6582031 C8.37890625,12.2610657 8.24707163,11.9534516 7.98339844,11.7353516 C7.71972524,11.5172515 7.22656611,11.4082031 6.50390625,11.4082031 L4.74609375,11.4082031 L3.59375,15.4023438 C3.38541563,16.1119827 3.28125,16.5839832 3.28125,16.8183594 C3.28125,17.059246 3.37076733,17.244791 3.54980469,17.375 C3.72884204,17.505209 4.16666318,17.5930987 4.86328125,17.6386719 L4.74609375,18 L-0.48828125,18 L-0.361328125,17.6386719 C0.146486914,17.625651 0.485025195,17.5800785 0.654296875,17.5019531 C0.914714844,17.3912755 1.10677021,17.2415374 1.23046875,17.0527344 C1.40625088,16.785806 1.61458213,16.2356812 1.85546875,15.4023438 L4.18945312,7.42382812 C4.37825615,6.77929365 4.47265625,6.27474141 4.47265625,5.91015625 C4.47265625,5.74088457 4.43033896,5.59602925 4.34570312,5.47558594 C4.26106729,5.35514263 4.13574302,5.26562529 3.96972656,5.20703125 C3.80371011,5.14843721 3.47330977,5.11914062 2.97851563,5.11914062 L3.09570312,4.7578125 L13.3691406,4.7578125 L12.3925781,8.10742188 L12.0214844,8.10742188 C12.0930993,7.70377402 12.1289062,7.37174609 12.1289062,7.11132812 C12.1289062,6.68163848 12.0100923,6.34147261 11.7724609,6.09082031 C11.5348295,5.84016802 11.2304706,5.66276094 10.859375,5.55859375 C10.598957,5.49348926 10.0162806,5.4609375 9.11132812,5.4609375 L6.50390625,5.4609375 Z" id="F"/>
                    </g>
                </g>
                <g id="21" transform="translate(7160.000000, 0.000000)" fill="#FFFFFF" fill-rule="nonzero">
                    <g id="&#x4E0B;" transform="translate(214.000000, 83.000000)">
                        <path d="M-0.5,49.5 L-0.5,0 C-0.5,-0.828427125 0.171572875,-1.5 1,-1.5 C1.82842712,-1.5 2.5,-0.828427125 2.5,0 L2.5,29 L10.5,29 L1,48 L-8.5,29 L-0.5,29 Z" id="&#x8DEF;&#x5F84;-13"/>
                        <path d="M25.5039062,57.4609375 L23.9414062,62.7050781 L25.6796875,62.7050781 C26.4609414,62.7050781 27.0452455,62.5846366 27.4326172,62.34375 C27.8199889,62.1028634 28.2187479,61.5885456 28.6289062,60.8007812 L29,60.8007812 L27.6230469,65.625 L27.2324219,65.625 C27.3300786,65.234373 27.3789062,64.9121106 27.3789062,64.6582031 C27.3789062,64.2610657 27.2470716,63.9534516 26.9833984,63.7353516 C26.7197252,63.5172515 26.2265661,63.4082031 25.5039062,63.4082031 L23.7460938,63.4082031 L22.59375,67.4023438 C22.3854156,68.1119827 22.28125,68.5839832 22.28125,68.8183594 C22.28125,69.059246 22.3707673,69.244791 22.5498047,69.375 C22.728842,69.505209 23.1666632,69.5930987 23.8632812,69.6386719 L23.7460938,70 L18.5117188,70 L18.6386719,69.6386719 C19.1464869,69.625651 19.4850252,69.5800785 19.6542969,69.5019531 C19.9147148,69.3912755 20.1067702,69.2415374 20.2304688,69.0527344 C20.4062509,68.785806 20.6145821,68.2356812 20.8554688,67.4023438 L23.1894531,59.4238281 C23.3782562,58.7792937 23.4726562,58.2747414 23.4726562,57.9101562 C23.4726562,57.7408846 23.430339,57.5960292 23.3457031,57.4755859 C23.2610673,57.3551426 23.135743,57.2656253 22.9697266,57.2070312 C22.8037101,57.1484372 22.4733098,57.1191406 21.9785156,57.1191406 L22.0957031,56.7578125 L32.3691406,56.7578125 L31.3925781,60.1074219 L31.0214844,60.1074219 C31.0930993,59.703774 31.1289062,59.3717461 31.1289062,59.1113281 C31.1289062,58.6816385 31.0100923,58.3414726 30.7724609,58.0908203 C30.5348295,57.840168 30.2304706,57.6627609 29.859375,57.5585938 C29.598957,57.4934893 29.0162806,57.4609375 28.1113281,57.4609375 L25.5039062,57.4609375 Z" id="F"/>
                    </g>
                    <g id="&#x4E0A;" transform="translate(118.000000, 99.000000)">
                        <path d="M33.5,26.5 L33.5,76 C33.5,76.8284271 32.8284271,77.5 32,77.5 C31.1715729,77.5 30.5,76.8284271 30.5,76 L30.5,46 L22.5,46 L32,27 L41.5,46 L33.5,46 Z" id="&#x8DEF;&#x5F84;-13"/>
                        <path d="M6.50390625,5.4609375 L4.94140625,10.7050781 L6.6796875,10.7050781 C7.46094141,10.7050781 8.04524546,10.5846366 8.43261719,10.34375 C8.81998892,10.1028634 9.21874795,9.58854561 9.62890625,8.80078125 L10,8.80078125 L8.62304688,13.625 L8.23242188,13.625 C8.33007861,13.234373 8.37890625,12.9121106 8.37890625,12.6582031 C8.37890625,12.2610657 8.24707163,11.9534516 7.98339844,11.7353516 C7.71972524,11.5172515 7.22656611,11.4082031 6.50390625,11.4082031 L4.74609375,11.4082031 L3.59375,15.4023438 C3.38541563,16.1119827 3.28125,16.5839832 3.28125,16.8183594 C3.28125,17.059246 3.37076733,17.244791 3.54980469,17.375 C3.72884204,17.505209 4.16666318,17.5930987 4.86328125,17.6386719 L4.74609375,18 L-0.48828125,18 L-0.361328125,17.6386719 C0.146486914,17.625651 0.485025195,17.5800785 0.654296875,17.5019531 C0.914714844,17.3912755 1.10677021,17.2415374 1.23046875,17.0527344 C1.40625088,16.785806 1.61458213,16.2356812 1.85546875,15.4023438 L4.18945312,7.42382812 C4.37825615,6.77929365 4.47265625,6.27474141 4.47265625,5.91015625 C4.47265625,5.74088457 4.43033896,5.59602925 4.34570312,5.47558594 C4.26106729,5.35514263 4.13574302,5.26562529 3.96972656,5.20703125 C3.80371011,5.14843721 3.47330977,5.11914062 2.97851563,5.11914062 L3.09570312,4.7578125 L13.3691406,4.7578125 L12.3925781,8.10742188 L12.0214844,8.10742188 C12.0930993,7.70377402 12.1289062,7.37174609 12.1289062,7.11132812 C12.1289062,6.68163848 12.0100923,6.34147261 11.7724609,6.09082031 C11.5348295,5.84016802 11.2304706,5.66276094 10.859375,5.55859375 C10.598957,5.49348926 10.0162806,5.4609375 9.11132812,5.4609375 L6.50390625,5.4609375 Z" id="F"/>
                    </g>
                </g>
                <g id="22" transform="translate(7518.000000, 0.000000)" fill="#FFFFFF" fill-rule="nonzero">
                    <g id="&#x4E0B;" transform="translate(227.000000, 94.000000)">
                        <path d="M-0.5,49.5 L-0.5,0 C-0.5,-0.828427125 0.171572875,-1.5 1,-1.5 C1.82842712,-1.5 2.5,-0.828427125 2.5,0 L2.5,29 L10.5,29 L1,48 L-8.5,29 L-0.5,29 Z" id="&#x8DEF;&#x5F84;-13"/>
                        <path d="M25.5039062,57.4609375 L23.9414062,62.7050781 L25.6796875,62.7050781 C26.4609414,62.7050781 27.0452455,62.5846366 27.4326172,62.34375 C27.8199889,62.1028634 28.2187479,61.5885456 28.6289062,60.8007812 L29,60.8007812 L27.6230469,65.625 L27.2324219,65.625 C27.3300786,65.234373 27.3789062,64.9121106 27.3789062,64.6582031 C27.3789062,64.2610657 27.2470716,63.9534516 26.9833984,63.7353516 C26.7197252,63.5172515 26.2265661,63.4082031 25.5039062,63.4082031 L23.7460938,63.4082031 L22.59375,67.4023438 C22.3854156,68.1119827 22.28125,68.5839832 22.28125,68.8183594 C22.28125,69.059246 22.3707673,69.244791 22.5498047,69.375 C22.728842,69.505209 23.1666632,69.5930987 23.8632812,69.6386719 L23.7460938,70 L18.5117188,70 L18.6386719,69.6386719 C19.1464869,69.625651 19.4850252,69.5800785 19.6542969,69.5019531 C19.9147148,69.3912755 20.1067702,69.2415374 20.2304688,69.0527344 C20.4062509,68.785806 20.6145821,68.2356812 20.8554688,67.4023438 L23.1894531,59.4238281 C23.3782562,58.7792937 23.4726562,58.2747414 23.4726562,57.9101562 C23.4726562,57.7408846 23.430339,57.5960292 23.3457031,57.4755859 C23.2610673,57.3551426 23.135743,57.2656253 22.9697266,57.2070312 C22.8037101,57.1484372 22.4733098,57.1191406 21.9785156,57.1191406 L22.0957031,56.7578125 L32.3691406,56.7578125 L31.3925781,60.1074219 L31.0214844,60.1074219 C31.0930993,59.703774 31.1289062,59.3717461 31.1289062,59.1113281 C31.1289062,58.6816385 31.0100923,58.3414726 30.7724609,58.0908203 C30.5348295,57.840168 30.2304706,57.6627609 29.859375,57.5585938 C29.598957,57.4934893 29.0162806,57.4609375 28.1113281,57.4609375 L25.5039062,57.4609375 Z" id="F"/>
                    </g>
                    <g id="&#x4E0A;" transform="translate(105.000000, 92.000000)">
                        <path d="M33.5,26.5 L33.5,76 C33.5,76.8284271 32.8284271,77.5 32,77.5 C31.1715729,77.5 30.5,76.8284271 30.5,76 L30.5,46 L22.5,46 L32,27 L41.5,46 L33.5,46 Z" id="&#x8DEF;&#x5F84;-13"/>
                        <path d="M6.50390625,5.4609375 L4.94140625,10.7050781 L6.6796875,10.7050781 C7.46094141,10.7050781 8.04524546,10.5846366 8.43261719,10.34375 C8.81998892,10.1028634 9.21874795,9.58854561 9.62890625,8.80078125 L10,8.80078125 L8.62304688,13.625 L8.23242188,13.625 C8.33007861,13.234373 8.37890625,12.9121106 8.37890625,12.6582031 C8.37890625,12.2610657 8.24707163,11.9534516 7.98339844,11.7353516 C7.71972524,11.5172515 7.22656611,11.4082031 6.50390625,11.4082031 L4.74609375,11.4082031 L3.59375,15.4023438 C3.38541563,16.1119827 3.28125,16.5839832 3.28125,16.8183594 C3.28125,17.059246 3.37076733,17.244791 3.54980469,17.375 C3.72884204,17.505209 4.16666318,17.5930987 4.86328125,17.6386719 L4.74609375,18 L-0.48828125,18 L-0.361328125,17.6386719 C0.146486914,17.625651 0.485025195,17.5800785 0.654296875,17.5019531 C0.914714844,17.3912755 1.10677021,17.2415374 1.23046875,17.0527344 C1.40625088,16.785806 1.61458213,16.2356812 1.85546875,15.4023438 L4.18945312,7.42382812 C4.37825615,6.77929365 4.47265625,6.27474141 4.47265625,5.91015625 C4.47265625,5.74088457 4.43033896,5.59602925 4.34570312,5.47558594 C4.26106729,5.35514263 4.13574302,5.26562529 3.96972656,5.20703125 C3.80371011,5.14843721 3.47330977,5.11914062 2.97851563,5.11914062 L3.09570312,4.7578125 L13.3691406,4.7578125 L12.3925781,8.10742188 L12.0214844,8.10742188 C12.0930993,7.70377402 12.1289062,7.37174609 12.1289062,7.11132812 C12.1289062,6.68163848 12.0100923,6.34147261 11.7724609,6.09082031 C11.5348295,5.84016802 11.2304706,5.66276094 10.859375,5.55859375 C10.598957,5.49348926 10.0162806,5.4609375 9.11132812,5.4609375 L6.50390625,5.4609375 Z" id="F"/>
                    </g>
                </g>
                <g id="23" transform="translate(7876.000000, 0.000000)" fill="#FFFFFF" fill-rule="nonzero">
                    <g id="&#x4E0B;" transform="translate(237.000000, 107.000000)">
                        <path d="M-0.5,49.5 L-0.5,0 C-0.5,-0.828427125 0.171572875,-1.5 1,-1.5 C1.82842712,-1.5 2.5,-0.828427125 2.5,0 L2.5,29 L10.5,29 L1,48 L-8.5,29 L-0.5,29 Z" id="&#x8DEF;&#x5F84;-13"/>
                        <path d="M25.5039062,57.4609375 L23.9414062,62.7050781 L25.6796875,62.7050781 C26.4609414,62.7050781 27.0452455,62.5846366 27.4326172,62.34375 C27.8199889,62.1028634 28.2187479,61.5885456 28.6289062,60.8007812 L29,60.8007812 L27.6230469,65.625 L27.2324219,65.625 C27.3300786,65.234373 27.3789062,64.9121106 27.3789062,64.6582031 C27.3789062,64.2610657 27.2470716,63.9534516 26.9833984,63.7353516 C26.7197252,63.5172515 26.2265661,63.4082031 25.5039062,63.4082031 L23.7460938,63.4082031 L22.59375,67.4023438 C22.3854156,68.1119827 22.28125,68.5839832 22.28125,68.8183594 C22.28125,69.059246 22.3707673,69.244791 22.5498047,69.375 C22.728842,69.505209 23.1666632,69.5930987 23.8632812,69.6386719 L23.7460938,70 L18.5117188,70 L18.6386719,69.6386719 C19.1464869,69.625651 19.4850252,69.5800785 19.6542969,69.5019531 C19.9147148,69.3912755 20.1067702,69.2415374 20.2304688,69.0527344 C20.4062509,68.785806 20.6145821,68.2356812 20.8554688,67.4023438 L23.1894531,59.4238281 C23.3782562,58.7792937 23.4726562,58.2747414 23.4726562,57.9101562 C23.4726562,57.7408846 23.430339,57.5960292 23.3457031,57.4755859 C23.2610673,57.3551426 23.135743,57.2656253 22.9697266,57.2070312 C22.8037101,57.1484372 22.4733098,57.1191406 21.9785156,57.1191406 L22.0957031,56.7578125 L32.3691406,56.7578125 L31.3925781,60.1074219 L31.0214844,60.1074219 C31.0930993,59.703774 31.1289062,59.3717461 31.1289062,59.1113281 C31.1289062,58.6816385 31.0100923,58.3414726 30.7724609,58.0908203 C30.5348295,57.840168 30.2304706,57.6627609 29.859375,57.5585938 C29.598957,57.4934893 29.0162806,57.4609375 28.1113281,57.4609375 L25.5039062,57.4609375 Z" id="F"/>
                    </g>
                    <g id="&#x4E0A;" transform="translate(95.000000, 83.000000)">
                        <path d="M33.5,26.5 L33.5,76 C33.5,76.8284271 32.8284271,77.5 32,77.5 C31.1715729,77.5 30.5,76.8284271 30.5,76 L30.5,46 L22.5,46 L32,27 L41.5,46 L33.5,46 Z" id="&#x8DEF;&#x5F84;-13"/>
                        <path d="M6.50390625,5.4609375 L4.94140625,10.7050781 L6.6796875,10.7050781 C7.46094141,10.7050781 8.04524546,10.5846366 8.43261719,10.34375 C8.81998892,10.1028634 9.21874795,9.58854561 9.62890625,8.80078125 L10,8.80078125 L8.62304688,13.625 L8.23242188,13.625 C8.33007861,13.234373 8.37890625,12.9121106 8.37890625,12.6582031 C8.37890625,12.2610657 8.24707163,11.9534516 7.98339844,11.7353516 C7.71972524,11.5172515 7.22656611,11.4082031 6.50390625,11.4082031 L4.74609375,11.4082031 L3.59375,15.4023438 C3.38541563,16.1119827 3.28125,16.5839832 3.28125,16.8183594 C3.28125,17.059246 3.37076733,17.244791 3.54980469,17.375 C3.72884204,17.505209 4.16666318,17.5930987 4.86328125,17.6386719 L4.74609375,18 L-0.48828125,18 L-0.361328125,17.6386719 C0.146486914,17.625651 0.485025195,17.5800785 0.654296875,17.5019531 C0.914714844,17.3912755 1.10677021,17.2415374 1.23046875,17.0527344 C1.40625088,16.785806 1.61458213,16.2356812 1.85546875,15.4023438 L4.18945312,7.42382812 C4.37825615,6.77929365 4.47265625,6.27474141 4.47265625,5.91015625 C4.47265625,5.74088457 4.43033896,5.59602925 4.34570312,5.47558594 C4.26106729,5.35514263 4.13574302,5.26562529 3.96972656,5.20703125 C3.80371011,5.14843721 3.47330977,5.11914062 2.97851563,5.11914062 L3.09570312,4.7578125 L13.3691406,4.7578125 L12.3925781,8.10742188 L12.0214844,8.10742188 C12.0930993,7.70377402 12.1289062,7.37174609 12.1289062,7.11132812 C12.1289062,6.68163848 12.0100923,6.34147261 11.7724609,6.09082031 C11.5348295,5.84016802 11.2304706,5.66276094 10.859375,5.55859375 C10.598957,5.49348926 10.0162806,5.4609375 9.11132812,5.4609375 L6.50390625,5.4609375 Z" id="F"/>
                    </g>
                </g>
                <g id="24" transform="translate(8234.000000, 0.000000)" fill="#FFFFFF" fill-rule="nonzero">
                    <g id="&#x4E0B;" transform="translate(241.000000, 120.000000)">
                        <path d="M-0.5,49.5 L-0.5,0 C-0.5,-0.828427125 0.171572875,-1.5 1,-1.5 C1.82842712,-1.5 2.5,-0.828427125 2.5,0 L2.5,29 L10.5,29 L1,48 L-8.5,29 L-0.5,29 Z" id="&#x8DEF;&#x5F84;-13"/>
                        <path d="M25.5039062,57.4609375 L23.9414062,62.7050781 L25.6796875,62.7050781 C26.4609414,62.7050781 27.0452455,62.5846366 27.4326172,62.34375 C27.8199889,62.1028634 28.2187479,61.5885456 28.6289062,60.8007812 L29,60.8007812 L27.6230469,65.625 L27.2324219,65.625 C27.3300786,65.234373 27.3789062,64.9121106 27.3789062,64.6582031 C27.3789062,64.2610657 27.2470716,63.9534516 26.9833984,63.7353516 C26.7197252,63.5172515 26.2265661,63.4082031 25.5039062,63.4082031 L23.7460938,63.4082031 L22.59375,67.4023438 C22.3854156,68.1119827 22.28125,68.5839832 22.28125,68.8183594 C22.28125,69.059246 22.3707673,69.244791 22.5498047,69.375 C22.728842,69.505209 23.1666632,69.5930987 23.8632812,69.6386719 L23.7460938,70 L18.5117188,70 L18.6386719,69.6386719 C19.1464869,69.625651 19.4850252,69.5800785 19.6542969,69.5019531 C19.9147148,69.3912755 20.1067702,69.2415374 20.2304688,69.0527344 C20.4062509,68.785806 20.6145821,68.2356812 20.8554688,67.4023438 L23.1894531,59.4238281 C23.3782562,58.7792937 23.4726562,58.2747414 23.4726562,57.9101562 C23.4726562,57.7408846 23.430339,57.5960292 23.3457031,57.4755859 C23.2610673,57.3551426 23.135743,57.2656253 22.9697266,57.2070312 C22.8037101,57.1484372 22.4733098,57.1191406 21.9785156,57.1191406 L22.0957031,56.7578125 L32.3691406,56.7578125 L31.3925781,60.1074219 L31.0214844,60.1074219 C31.0930993,59.703774 31.1289062,59.3717461 31.1289062,59.1113281 C31.1289062,58.6816385 31.0100923,58.3414726 30.7724609,58.0908203 C30.5348295,57.840168 30.2304706,57.6627609 29.859375,57.5585938 C29.598957,57.4934893 29.0162806,57.4609375 28.1113281,57.4609375 L25.5039062,57.4609375 Z" id="F"/>
                    </g>
                    <g id="&#x4E0A;" transform="translate(88.000000, 70.000000)">
                        <path d="M33.5,26.5 L33.5,76 C33.5,76.8284271 32.8284271,77.5 32,77.5 C31.1715729,77.5 30.5,76.8284271 30.5,76 L30.5,46 L22.5,46 L32,27 L41.5,46 L33.5,46 Z" id="&#x8DEF;&#x5F84;-13"/>
                        <path d="M6.50390625,5.4609375 L4.94140625,10.7050781 L6.6796875,10.7050781 C7.46094141,10.7050781 8.04524546,10.5846366 8.43261719,10.34375 C8.81998892,10.1028634 9.21874795,9.58854561 9.62890625,8.80078125 L10,8.80078125 L8.62304688,13.625 L8.23242188,13.625 C8.33007861,13.234373 8.37890625,12.9121106 8.37890625,12.6582031 C8.37890625,12.2610657 8.24707163,11.9534516 7.98339844,11.7353516 C7.71972524,11.5172515 7.22656611,11.4082031 6.50390625,11.4082031 L4.74609375,11.4082031 L3.59375,15.4023438 C3.38541563,16.1119827 3.28125,16.5839832 3.28125,16.8183594 C3.28125,17.059246 3.37076733,17.244791 3.54980469,17.375 C3.72884204,17.505209 4.16666318,17.5930987 4.86328125,17.6386719 L4.74609375,18 L-0.48828125,18 L-0.361328125,17.6386719 C0.146486914,17.625651 0.485025195,17.5800785 0.654296875,17.5019531 C0.914714844,17.3912755 1.10677021,17.2415374 1.23046875,17.0527344 C1.40625088,16.785806 1.61458213,16.2356812 1.85546875,15.4023438 L4.18945312,7.42382812 C4.37825615,6.77929365 4.47265625,6.27474141 4.47265625,5.91015625 C4.47265625,5.74088457 4.43033896,5.59602925 4.34570312,5.47558594 C4.26106729,5.35514263 4.13574302,5.26562529 3.96972656,5.20703125 C3.80371011,5.14843721 3.47330977,5.11914062 2.97851563,5.11914062 L3.09570312,4.7578125 L13.3691406,4.7578125 L12.3925781,8.10742188 L12.0214844,8.10742188 C12.0930993,7.70377402 12.1289062,7.37174609 12.1289062,7.11132812 C12.1289062,6.68163848 12.0100923,6.34147261 11.7724609,6.09082031 C11.5348295,5.84016802 11.2304706,5.66276094 10.859375,5.55859375 C10.598957,5.49348926 10.0162806,5.4609375 9.11132812,5.4609375 L6.50390625,5.4609375 Z" id="F"/>
                    </g>
                </g>
            </g>
        </g>
    </g>
</svg>