<?xml version="1.0" encoding="UTF-8" standalone="no"?>
<svg width="3765px" height="3502px" viewBox="0 0 3765 3502" version="1.1" xmlns="http://www.w3.org/2000/svg" xmlns:xlink="http://www.w3.org/1999/xlink">
    <!-- Generator: Sketch 45.2 (43514) - http://www.bohemiancoding.com/sketch -->
    <title>BG</title>
    <desc>Created with Sketch.</desc>
    <defs>
        <polygon id="path-1" points="0.681555934 0.385358021 216.427395 0.385358021 216.427395 216.152596 0.681555934 216.152596 0.681555934 0.385358021"></polygon>
        <polygon id="path-3" points="397.054877 0.794385241 397.054877 90.1749507 0.000195593536 90.1749507 0.000195593536 0.794385241 397.054877 0.794385241"></polygon>
    </defs>
    <g id="宇宙速度" stroke="none" stroke-width="1" fill="none" fill-rule="evenodd">
        <g id="BG">
            <g id="Group-2">
                <rect id="Rectangle-10" fill="#15193D" x="0" y="0" width="3765" height="3502"></rect>
                <ellipse id="Oval-16" fill="#D8D8D8" opacity="0.474521922" cx="420.020161" cy="164.472543" rx="2.53024194" ry="2.53034682"></ellipse>
                <ellipse id="Oval-16" fill="#D8D8D8" opacity="0.31588153" cx="774.254032" cy="695.845376" rx="2.53024194" ry="2.53034682"></ellipse>
                <ellipse id="Oval-15" fill="#88703E" cx="1542.18246" cy="320.088873" rx="6.32560484" ry="6.32586705"></ellipse>
                <ellipse id="Oval-15" fill="#839363" opacity="0.351212687" cx="1611.76411" cy="1462.54046" rx="12.6512097" ry="12.6517341"></ellipse>
                <ellipse id="Oval-15" fill="#4F638B" cx="1000.71069" cy="1387.89523" rx="3.7953629" ry="3.79552023"></ellipse>
                <ellipse id="Oval-15" fill="#C37E1D" opacity="0.192047575" cx="1113.30645" cy="1477.72254" rx="12.6512097" ry="12.6517341"></ellipse>
                <ellipse id="Oval-15" fill-opacity="0.626387002" fill="#4F638B" cx="969.082661" cy="278.33815" rx="12.6512097" ry="12.6517341"></ellipse>
                <ellipse id="Oval-15" fill="#6E919E" opacity="0.414237407" cx="1275.24194" cy="1057.68497" rx="5.06048387" ry="5.06069364"></ellipse>
                <ellipse id="Oval-15" fill="#A96241" opacity="0.440240205" cx="407.368952" cy="1966.07948" rx="10.1209677" ry="10.1213873"></ellipse>
                <ellipse id="Oval-16" fill="#D8D8D8" opacity="0.474521922" transform="translate(1683.055645, 536.428394) rotate(101.000000) translate(-1683.055645, -536.428394) " cx="1683.05565" cy="536.428394" rx="2.53024194" ry="2.53034682"></ellipse>
                <ellipse id="Oval-16" fill="#D8D8D8" opacity="0.31588153" transform="translate(1043.271402, 833.384626) rotate(101.000000) translate(-1043.271402, -833.384626) " cx="1043.2714" cy="833.384626" rx="2.53024194" ry="2.53034682"></ellipse>
                <ellipse id="Oval-15" fill="#88703E" transform="translate(1341.488516, 1405.898331) rotate(101.000000) translate(-1341.488516, -1405.898331) " cx="1341.48852" cy="1405.89833" rx="6.32560484" ry="6.32586705"></ellipse>
                <ellipse id="Oval-15" fill="#839363" opacity="0.351212687" transform="translate(145.373190, 1434.733330) rotate(101.000000) translate(-145.373190, -1434.733330) " cx="145.37319" cy="1434.73333" rx="12.6512097" ry="12.6517341"></ellipse>
                <ellipse id="Oval-15" fill="#4F638B" transform="translate(320.754644, 923.640509) rotate(101.000000) translate(-320.754644, -923.640509) " cx="320.754644" cy="923.640509" rx="3.7953629" ry="3.79552023"></ellipse>
                <ellipse id="Oval-15" fill="#C37E1D" opacity="0.192047575" transform="translate(211.097083, 1017.032297) rotate(101.000000) translate(-211.097083, -1017.032297) " cx="211.097083" cy="1017.0323" rx="12.6512097" ry="12.6517341"></ellipse>
                <ellipse id="Oval-15" fill-opacity="0.626387002" fill="#4F638B" transform="translate(1770.149671, 1154.912702) rotate(101.000000) translate(-1770.149671, -1154.912702) " cx="1770.14967" cy="1154.9127" rx="12.6512097" ry="12.6517341"></ellipse>
                <ellipse id="Oval-15" fill="#6E919E" opacity="0.414237407" transform="translate(592.501543, 1256.146106) rotate(101.000000) translate(-592.501543, -1256.146106) " cx="592.501543" cy="1256.14611" rx="5.06048387" ry="5.06069364"></ellipse>
                <ellipse id="Oval-15" fill="#A96241" opacity="0.440240205" transform="translate(62.517515, 503.777295) rotate(101.000000) translate(-62.517515, -503.777295) " cx="62.5175151" cy="503.777295" rx="10.1209677" ry="10.1213873"></ellipse>
                <ellipse id="Oval-15" fill="#6E919E" opacity="0.295942164" transform="translate(359.355139, 353.737729) rotate(101.000000) translate(-359.355139, -353.737729) " cx="359.355139" cy="353.737729" rx="6.32560484" ry="6.32586705"></ellipse>
                <ellipse id="Oval-15" fill="#C37E1D" opacity="0.513176306" transform="translate(1478.272099, 339.248580) rotate(101.000000) translate(-1478.272099, -339.248580) " cx="1478.2721" cy="339.24858" rx="8.85584677" ry="8.85621387"></ellipse>
                <ellipse id="Oval-15" fill="#6E919E" opacity="0.295942164" cx="433.936492" cy="1408.13801" rx="6.32560484" ry="6.32586705"></ellipse>
                <ellipse id="Oval-15" fill="#839363" opacity="0.351212687" cx="3312.08669" cy="2735.30491" rx="12.6512097" ry="12.6517341"></ellipse>
                <ellipse id="Oval-15" fill="#4F638B" cx="2701.38198" cy="2660.65968" rx="3.7953629" ry="3.79552023"></ellipse>
                <ellipse id="Oval-15" fill="#C37E1D" opacity="0.192047575" cx="2813.97775" cy="2750.48699" rx="12.6512097" ry="12.6517341"></ellipse>
                <ellipse id="Oval-15" fill="#6E919E" opacity="0.414237407" cx="2975.91323" cy="2330.44942" rx="5.06048387" ry="5.06069364"></ellipse>
                <ellipse id="Oval-15" fill="#A96241" opacity="0.440240205" cx="2404.07855" cy="2801.09393" rx="10.1209677" ry="10.1213873"></ellipse>
                <ellipse id="Oval-15" fill="#88703E" transform="translate(3044.055406, 2679.462918) rotate(101.000000) translate(-3044.055406, -2679.462918) " cx="3044.05541" cy="2679.46292" rx="6.32560484" ry="6.32586705"></ellipse>
                <ellipse id="Oval-15" fill="#839363" opacity="0.351212687" transform="translate(1847.076613, 2709.652715) rotate(101.000000) translate(-1847.076613, -2709.652715) " cx="1847.07661" cy="2709.65271" rx="12.6512097" ry="12.6517341"></ellipse>
                <ellipse id="Oval-15" fill="#4F638B" transform="translate(2021.401359, 2198.260699) rotate(101.000000) translate(-2021.401359, -2198.260699) " cx="2021.40136" cy="2198.2607" rx="3.7953629" ry="3.79552023"></ellipse>
                <ellipse id="Oval-15" fill="#C37E1D" opacity="0.192047575" transform="translate(1912.862903, 2289.615143) rotate(101.000000) translate(-1912.862903, -2289.615143) " cx="1912.8629" cy="2289.61514" rx="12.6512097" ry="12.6517341"></ellipse>
                <ellipse id="Oval-15" fill-opacity="0.626387002" fill="#4F638B" transform="translate(3471.491935, 2428.784218) rotate(101.000000) translate(-3471.491935, -2428.784218) " cx="3471.49194" cy="2428.78422" rx="12.6512097" ry="12.6517341"></ellipse>
                <ellipse id="Oval-15" fill="#6E919E" opacity="0.414237407" transform="translate(2293.620520, 2528.689121) rotate(101.000000) translate(-2293.620520, -2528.689121) " cx="2293.62052" cy="2528.68912" rx="5.06048387" ry="5.06069364"></ellipse>
                <ellipse id="Oval-15" fill="#6E919E" opacity="0.295942164" cx="2134.60779" cy="2680.90246" rx="6.32560484" ry="6.32586705"></ellipse>
                <ellipse id="Oval-15" fill="#A96241" opacity="0.440240205" cx="2874.70355" cy="1082.98977" rx="10.1209677" ry="10.1213873"></ellipse>
                <ellipse id="Oval-15" fill="#839363" opacity="0.351212687" transform="translate(2315.171371, 989.018210) rotate(101.000000) translate(-2315.171371, -989.018210) " cx="2315.17137" cy="989.01821" rx="12.6512097" ry="12.6517341"></ellipse>
                <ellipse id="Oval-15" fill="#4F638B" transform="translate(2492.026359, 477.626194) rotate(101.000000) translate(-2492.026359, -477.626194) " cx="2492.02636" cy="477.626194" rx="3.7953629" ry="3.79552023"></ellipse>
                <ellipse id="Oval-15" fill="#C37E1D" opacity="0.192047575" transform="translate(2380.957661, 571.510985) rotate(101.000000) translate(-2380.957661, -571.510985) " cx="2380.95766" cy="571.510985" rx="12.6512097" ry="12.6517341"></ellipse>
                <ellipse id="Oval-15" fill="#6E919E" opacity="0.414237407" transform="translate(2764.245520, 810.584963) rotate(101.000000) translate(-2764.245520, -810.584963) " cx="2764.24552" cy="810.584963" rx="5.06048387" ry="5.06069364"></ellipse>
                <ellipse id="Oval-15" fill="#6E919E" opacity="0.295942164" cx="2605.23279" cy="962.798299" rx="6.32560484" ry="6.32586705"></ellipse>
                <ellipse id="Oval-15" fill="#839363" opacity="0.351212687" transform="translate(3086.895161, 1664.968208) rotate(-114.000000) translate(-3086.895161, -1664.968208) " cx="3086.89516" cy="1664.96821" rx="12.6512097" ry="12.6517341"></ellipse>
                <ellipse id="Oval-15" fill="#4F638B" transform="translate(3161.537298, 1053.889451) rotate(-114.000000) translate(-3161.537298, -1053.889451) " cx="3161.5373" cy="1053.88945" rx="3.7953629" ry="3.79552023"></ellipse>
                <ellipse id="Oval-15" fill="#C37E1D" opacity="0.192047575" transform="translate(3071.713710, 1166.489884) rotate(-114.000000) translate(-3071.713710, -1166.489884) " cx="3071.71371" cy="1166.48988" rx="12.6512097" ry="12.6517341"></ellipse>
                <ellipse id="Oval-15" fill="#6E919E" opacity="0.414237407" transform="translate(3491.733871, 1328.432081) rotate(-114.000000) translate(-3491.733871, -1328.432081) " cx="3491.73387" cy="1328.43208" rx="5.06048387" ry="5.06069364"></ellipse>
                <ellipse id="Oval-16" fill="#D8D8D8" opacity="0.31588153" transform="translate(3716.024919, 1096.451931) rotate(-114.000000) translate(-3716.024919, -1096.451931) " cx="3716.02492" cy="1096.45193" rx="2.53024194" ry="2.53034682"></ellipse>
                <ellipse id="Oval-15" fill="#88703E" transform="translate(3143.534944, 1394.681408) rotate(-114.000000) translate(-3143.534944, -1394.681408) " cx="3143.53494" cy="1394.68141" rx="6.32560484" ry="6.32586705"></ellipse>
                <ellipse id="Oval-15" fill="#839363" opacity="0.351212687" transform="translate(3114.701141, 198.516500) rotate(-114.000000) translate(-3114.701141, -198.516500) " cx="3114.70114" cy="198.5165" rx="12.6512097" ry="12.6517341"></ellipse>
                <ellipse id="Oval-15" fill="#4F638B" transform="translate(3625.772776, 373.905223) rotate(-114.000000) translate(-3625.772776, -373.905223) " cx="3625.77278" cy="373.905223" rx="3.7953629" ry="3.79552023"></ellipse>
                <ellipse id="Oval-15" fill="#C37E1D" opacity="0.192047575" transform="translate(3532.384860, 264.243116) rotate(-114.000000) translate(-3532.384860, -264.243116) " cx="3532.38486" cy="264.243116" rx="12.6512097" ry="12.6517341"></ellipse>
                <ellipse id="Oval-15" fill-opacity="0.626387002" fill="#4F638B" transform="translate(3394.510170, 1823.360332) rotate(-114.000000) translate(-3394.510170, -1823.360332) " cx="3394.51017" cy="1823.36033" rx="12.6512097" ry="12.6517341"></ellipse>
                <ellipse id="Oval-15" fill="#6E919E" opacity="0.414237407" transform="translate(3293.280962, 645.663388) rotate(-114.000000) translate(-3293.280962, -645.663388) " cx="3293.28096" cy="645.663388" rx="5.06048387" ry="5.06069364"></ellipse>
                <ellipse id="Oval-15" fill="#6E919E" opacity="0.295942164" transform="translate(3141.295363, 487.091763) rotate(-114.000000) translate(-3141.295363, -487.091763) " cx="3141.29536" cy="487.091763" rx="6.32560484" ry="6.32586705"></ellipse>
                <ellipse id="Oval-15" fill="#A96241" opacity="0.440240205" cx="640.15121" cy="3211.01012" rx="10.1209677" ry="10.1213873"></ellipse>
                <ellipse id="Oval-15" fill="#839363" opacity="0.351212687" transform="translate(81.653309, 3116.781949) rotate(101.000000) translate(-81.653309, -3116.781949) " cx="81.6533095" cy="3116.78195" rx="12.6512097" ry="12.6517341"></ellipse>
                <ellipse id="Oval-15" fill="#4F638B" transform="translate(258.508298, 2605.389933) rotate(101.000000) translate(-258.508298, -2605.389933) " cx="258.508298" cy="2605.38993" rx="3.7953629" ry="3.79552023"></ellipse>
                <ellipse id="Oval-15" fill="#C37E1D" opacity="0.192047575" transform="translate(147.439600, 2699.274724) rotate(101.000000) translate(-147.439600, -2699.274724) " cx="147.4396" cy="2699.27472" rx="12.6512097" ry="12.6517341"></ellipse>
                <ellipse id="Oval-15" fill="#6E919E" opacity="0.414237407" transform="translate(530.727458, 2938.348702) rotate(101.000000) translate(-530.727458, -2938.348702) " cx="530.727458" cy="2938.3487" rx="5.06048387" ry="5.06069364"></ellipse>
                <ellipse id="Oval-15" fill="#6E919E" opacity="0.295942164" cx="371.714727" cy="3090.56204" rx="6.32560484" ry="6.32586705"></ellipse>
                <ellipse id="Oval-15" fill="#4F638B" transform="translate(927.053297, 3182.870161) rotate(-114.000000) translate(-927.053297, -3182.870161) " cx="927.053297" cy="3182.87016" rx="3.7953629" ry="3.79552023"></ellipse>
                <ellipse id="Oval-15" fill="#C37E1D" opacity="0.192047575" transform="translate(837.535836, 3295.776734) rotate(-114.000000) translate(-837.535836, -3295.776734) " cx="837.535836" cy="3295.77673" rx="12.6512097" ry="12.6517341"></ellipse>
                <ellipse id="Oval-16" fill="#D8D8D8" opacity="0.31588153" transform="translate(1482.036207, 3224.215671) rotate(-114.000000) translate(-1482.036207, -3224.215671) " cx="1482.03621" cy="3224.21567" rx="2.53024194" ry="2.53034682"></ellipse>
                <ellipse id="Oval-15" fill="#839363" opacity="0.351212687" transform="translate(880.549949, 2326.653902) rotate(-114.000000) translate(-880.549949, -2326.653902) " cx="880.549949" cy="2326.6539" rx="12.6512097" ry="12.6517341"></ellipse>
                <ellipse id="Oval-15" fill="#4F638B" transform="translate(1390.087572, 2502.206866) rotate(-114.000000) translate(-1390.087572, -2502.206866) " cx="1390.08757" cy="2502.20687" rx="3.7953629" ry="3.79552023"></ellipse>
                <ellipse id="Oval-15" fill="#C37E1D" opacity="0.192047575" transform="translate(1298.039868, 2392.442919) rotate(-114.000000) translate(-1298.039868, -2392.442919) " cx="1298.03987" cy="2392.44292" rx="12.6512097" ry="12.6517341"></ellipse>
                <ellipse id="Oval-15" fill="#6E919E" opacity="0.414237407" transform="translate(1057.765953, 2774.624361) rotate(-114.000000) translate(-1057.765953, -2774.624361) " cx="1057.76595" cy="2774.62436" rx="5.06048387" ry="5.06069364"></ellipse>
                <ellipse id="Oval-15" fill="#6E919E" opacity="0.295942164" transform="translate(907.621753, 2614.352551) rotate(-114.000000) translate(-907.621753, -2614.352551) " cx="907.621753" cy="2614.35255" rx="6.32560484" ry="6.32586705"></ellipse>
                <ellipse id="Oval-15" fill="#C37E1D" opacity="0.513176306" cx="206.214718" cy="363.104769" rx="8.85584677" ry="8.85621387"></ellipse>
                <ellipse id="Oval-16" fill="#D8D8D8" opacity="0.474521922" cx="1836.95565" cy="2998.46098" rx="2.53024194" ry="2.53034682"></ellipse>
                <ellipse id="Oval-15" fill="#88703E" cx="2959.11794" cy="3154.07731" rx="6.32560484" ry="6.32586705"></ellipse>
                <ellipse id="Oval-15" fill-opacity="0.626387002" fill="#4F638B" cx="2386.01815" cy="3112.32659" rx="12.6512097" ry="12.6517341"></ellipse>
                <ellipse id="Oval-16" fill="#D8D8D8" opacity="0.474521922" transform="translate(3099.991129, 3370.416834) rotate(101.000000) translate(-3099.991129, -3370.416834) " cx="3099.99113" cy="3370.41683" rx="2.53024194" ry="2.53034682"></ellipse>
                <ellipse id="Oval-15" fill="#A96241" opacity="0.440240205" transform="translate(1479.452999, 3337.765734) rotate(101.000000) translate(-1479.452999, -3337.765734) " cx="1479.453" cy="3337.76573" rx="10.1209677" ry="10.1213873"></ellipse>
                <ellipse id="Oval-15" fill="#6E919E" opacity="0.295942164" transform="translate(1776.290623, 3187.726169) rotate(101.000000) translate(-1776.290623, -3187.726169) " cx="1776.29062" cy="3187.72617" rx="6.32560484" ry="6.32586705"></ellipse>
                <ellipse id="Oval-15" fill="#C37E1D" opacity="0.513176306" transform="translate(2895.207582, 3173.237019) rotate(101.000000) translate(-2895.207582, -3173.237019) " cx="2895.20758" cy="3173.23702" rx="8.85584677" ry="8.85621387"></ellipse>
                <ellipse id="Oval-15" fill="#C37E1D" opacity="0.513176306" cx="1623.1502" cy="3197.09321" rx="8.85584677" ry="8.85621387"></ellipse>
            </g>
            <g id="Group" transform="translate(1219.000000, 1517.000000)">
                <ellipse id="Oval-11" fill="#747474" cx="16.6300553" cy="16.631728" rx="16.6300553" ry="16.631728"></ellipse>
                <ellipse id="Oval-12" fill="#4A4A4A" cx="18.8182205" cy="4.81444759" rx="3.06343125" ry="3.06373938"></ellipse>
                <ellipse id="Oval-13" fill="#4A4A4A" cx="7.00212857" cy="9.62889518" rx="1.75053214" ry="1.75070822"></ellipse>
                <ellipse id="Oval-13-Copy" fill="#4A4A4A" cx="11.816092" cy="27.5736544" rx="2.18816518" ry="2.18838527"></ellipse>
                <ellipse id="Oval-13-Copy-2" fill="#4A4A4A" cx="18.8182205" cy="29.3243626" rx="1.31289911" ry="1.31303116"></ellipse>
                <ellipse id="Oval-14" fill="#4A4A4A" cx="7.87739464" cy="19.2577904" rx="5.25159642" ry="5.25212465"></ellipse>
            </g>
            <g id="Group-10" transform="translate(2236.000000, 1767.000000)">
                <ellipse id="Oval-2" fill="#89703F" cx="16.899991" cy="16.9016909" rx="16.4610302" ry="16.4626859"></ellipse>
                <ellipse id="Oval-2" fill="#89703F" opacity="0.3" cx="16.899991" cy="16.9016909" rx="16.899991" ry="16.9016909"></ellipse>
                <path d="M18.5562662,0.521303102 C26.8696795,1.35198597 33.3610212,8.36869512 33.3610212,16.9016909 C33.3610212,17.195391 33.353331,17.4872949 33.3381409,17.777212 C32.493159,17.9228895 31.6202529,17.9992033 30.7272564,17.9992033 C23.2118843,17.9992033 17.1194714,12.5940999 17.1194714,5.92656693 C17.1194714,3.98340636 17.6369309,2.14747034 18.5562662,0.521303102 Z" id="Combined-Shape" fill="#A18348"></path>
                <path d="M0.474249368,17.9883424 C0.45084559,17.6291452 0.438960805,17.2668061 0.438960805,16.9016909 C0.438960805,12.6598962 2.04305809,8.79279613 4.67767353,5.87402761 C7.78317061,6.53197054 10.0960985,9.05749468 10.0960985,12.0726363 C10.0960985,15.5882446 6.95162738,18.4382082 3.07272564,18.4382082 C2.15479036,18.4382082 1.27798496,18.2786034 0.474249368,17.9883424 Z" id="Combined-Shape" fill="#A18348"></path>
                <ellipse id="Oval-7" fill="#A18348" cx="13.1688242" cy="26.3402975" rx="3.51168644" ry="3.0730347"></ellipse>
            </g>
            <g id="Group-6" transform="translate(1608.406250, 1578.406250)">
                <ellipse id="Oval" fill="#EDB927" opacity="0.4" cx="282.543941" cy="282.57236" rx="282.179368" ry="282.20775"></ellipse>
                <ellipse id="Oval" fill="#D9AB2B" opacity="0.6" cx="282.543941" cy="282.57236" rx="253.378114" ry="253.4036"></ellipse>
                <ellipse id="Oval" fill="#DF9712" opacity="0.8" cx="282.908513" cy="282.936969" rx="246.451231" ry="246.47602"></ellipse>
                <ellipse id="Oval" fill="#C37E1D" cx="283.637659" cy="282.20775" rx="239.88892" ry="239.913049"></ellipse>
            </g>
            <g id="Group-11" transform="translate(2163.921875, 1428.921875)">
                <ellipse id="Oval-6" fill="#AE7750" cx="65.9879834" cy="65.9946206" rx="64.537698" ry="64.5441894"></ellipse>
                <ellipse id="Oval-6" fill="#AE7750" opacity="0.3" cx="65.9879834" cy="65.9946206" rx="65.9879834" ry="65.9946206"></ellipse>
                <path d="M14.2292838,104.555731 C25.9957743,120.326867 44.7994352,130.53881 65.9879834,130.53881 C89.9188074,130.53881 110.807481,117.512503 121.951523,98.1630432 L96.5955192,90.371497 L76.1683067,102.821976 L45.9105956,73.8105186 L14.2292838,104.555731 Z" id="Combined-Shape" fill="#A26E4C"></path>
                <path d="M82.8574646,52.2254391 L92.0024768,34.4831525 L105.620146,41.1984791 L102.303185,44.2480674 L108.213381,56.5243246 L90.6329202,57.8529423 L82.8574646,52.2254391 Z" id="Combined-Shape" fill="#A26E4C"></path>
                <path d="M9.26294063,35.1861637 C20.1986867,15.0895801 41.5006982,1.45043122 65.9879834,1.45043122 C73.8698512,1.45043122 81.4217115,2.86350321 88.404095,5.45015373 L62.8452263,28.4930415 L48.5165771,22.0454214 L27.2027643,48.6390213 L9.26294063,35.1861637 Z" id="Combined-Shape" fill="#A26E4C"></path>
            </g>
            <g id="Group-14" transform="translate(2478.789062, 2169.789062)">
                <ellipse id="Oval-3" fill="#AD774F" cx="76.2582945" cy="76.2659648" rx="73.8373962" ry="73.844823"></ellipse>
                <ellipse id="Oval-3" fill="#AD774F" opacity="0.3" cx="76.2582945" cy="76.2659648" rx="76.2582945" ry="76.2659648"></ellipse>
                <path d="M26.5288049,130.85178 C12.6196702,118.17027 3.5754432,100.243146 2.52380311,80.1984021 L47.4628447,71.5419011 L45.0419465,30.1980686 L71.6395003,2.5632694 C73.1669959,2.46898256 74.7070588,2.42114174 76.2582945,2.42114174 C116.105493,2.42114174 148.580474,33.988532 150.044183,73.4818801 L131.258076,71.7215952 L109.427437,110.015357 L35.5333013,111.807569 L26.5288049,130.85178 Z" id="Combined-Shape" fill="#A96241"></path>
            </g>
            <g id="Group-15" transform="translate(807.218750, 2261.218750)">
                <ellipse id="Oval-8" fill="#8E8576" cx="164.451179" cy="164.46772" rx="160.305351" ry="160.321475"></ellipse>
                <ellipse id="Oval-8" fill="#8E8576" opacity="0.3" cx="165.14215" cy="165.158761" rx="165.14215" ry="165.158761"></ellipse>
                <path d="M48.3675837,53.9011855 C77.5660624,23.2488975 118.778013,4.14624504 164.451179,4.14624504 C210.124344,4.14624504 251.336295,23.2488975 280.534774,53.9011855 L48.3675837,53.9011855 Z" id="Combined-Shape" fill="#7F6E63"></path>
                <path d="M31.6574642,74.6324107 C34.5714433,70.3325322 37.6887411,66.1816834 40.9955479,62.1936755 L287.90681,62.1936755 C291.213616,66.1816834 294.330914,70.3325322 297.244893,74.6324107 L31.6574642,74.6324107 Z" id="Combined-Shape" fill="#7F6E63"></path>
                <path d="M8.84705119,125.769433 C12.4975599,111.039497 18.1845129,97.113303 25.5918556,84.3069378 L303.310528,84.3069824 C310.717845,97.113303 316.404798,111.039497 320.055306,125.769433 L8.84705119,125.769433 Z" id="Combined-Shape" fill="#AD774F"></path>
                <path d="M27.2278492,247.39262 C15.9692172,228.798116 8.38266121,207.731667 5.47375214,185.198945 L323.428605,185.198945 C320.519696,207.731667 312.93314,228.798116 301.674508,247.39262 L27.2278492,247.39262 Z" id="Combined-Shape" fill="#7F6E63"></path>
                <path d="M60.0027042,286.090907 C88.057882,310.211354 124.552283,324.789194 164.451179,324.789194 C204.350074,324.789194 240.844476,310.211354 268.899653,286.090907 L60.0027042,286.090907 Z" id="Combined-Shape" fill="#7F6E63"></path>
            </g>
            <g id="Page-1" transform="translate(2904.305859, 1008.395032) rotate(-17.000000) translate(-2904.305859, -1008.395032) translate(2705.305859, 899.395032)">
                <g id="Group-3" transform="translate(89.973026, 0.592708)">
                    <mask id="mask-2" fill="white">
                        <use xlink:href="#path-1"></use>
                    </mask>
                    <g id="Clip-2"></g>
                    <path d="M13.5139485,57.2802423 C41.6706159,4.78548154 107.047755,-14.9421106 159.537236,13.218367 C212.026717,41.3778664 231.752326,106.761581 203.595658,159.25732 C175.438013,211.752081 110.060874,231.479673 57.5713924,203.319196 C5.08191124,175.158718 -14.6436968,109.775003 13.5139485,57.2802423 Z" id="Fill-1" fill="#94847D" opacity="0.3" mask="url(#mask-2)"></path>
                </g>
                <path d="M149.292732,200.652499 C98.6027109,173.45835 79.5538565,110.316363 106.74527,59.6212433 C133.937661,8.9271022 197.07232,-10.1236682 247.762341,17.0704801 C298.452362,44.2646284 317.501216,107.406616 290.309803,158.100757 C263.117411,208.795876 199.982752,227.846647 149.292732,200.652499" id="Fill-4" fill="#94847D"></path>
                <path d="M114.179095,47.7322637 L282.875586,47.7322637 C276.452294,38.8524021 268.551293,30.8929007 259.292873,24.2586787 L137.728557,24.2586787 C128.829051,30.6444719 120.844923,38.5091009 114.179095,47.7322637" id="Fill-6" fill="#8D7373"></path>
                <path d="M301.854124,95.6574999 C299.987184,81.1439779 295.079742,67.121445 287.438881,54.578726 L109.644357,54.578726 C108.64194,56.2238331 107.67473,57.9031725 106.753485,59.6216346 C100.555126,71.1774849 96.7664788,83.3808149 95.2007525,95.6574999 L301.854124,95.6574999 Z" id="Fill-8" fill="#8D7373"></path>
                <path d="M94.4969092,114.240755 C95.529643,133.849023 102.097674,152.896859 113.474372,169.012453 L283.565444,169.012453 C286.001562,165.557924 288.258711,161.921474 290.307553,158.101148 C297.822257,144.09133 301.798674,129.130832 302.558555,114.240755 L94.4969092,114.240755 Z" id="Fill-10" fill="#8D7373"></path>
                <path d="M257.92186,194.44217 L139.133017,194.44217 C142.358354,196.674117 145.737232,198.754464 149.275519,200.651912 C149.681376,200.87002 150.091144,201.076392 150.497979,201.288633 L246.550052,201.288633 C250.468769,199.256211 254.270129,196.973405 257.92186,194.44217" id="Fill-12" fill="#8D7373"></path>
                <g id="Group-16" opacity="0.5" transform="translate(0.000000, 77.859926)">
                    <mask id="mask-4" fill="white">
                        <use xlink:href="#path-3"></use>
                    </mask>
                    <g id="Clip-15"></g>
                    <path d="M298.19232,0.794385241 C298.97176,3.36572087 299.657316,5.96346428 300.23725,8.58859355 C339.418547,15.9240889 364.64229,27.3968036 364.64229,40.2935824 C364.64229,62.4399319 290.269804,80.3942902 198.527634,80.3942902 C106.785464,80.3942902 32.4129783,62.4399319 32.4129783,40.2935824 C32.4129783,27.3987597 57.6308528,15.9270231 96.8033481,8.59152774 C97.3783931,5.98204754 98.049279,3.38234799 98.834587,0.798297505 C39.7340443,9.10012209 0.000195593536,24.5535656 0.000195593536,42.2497145 C0.000195593536,68.7181378 88.8837659,90.1749507 198.527634,90.1749507 C308.171502,90.1749507 397.055072,68.7181378 397.055072,42.2497145 C397.055072,24.5506314 357.30851,9.09523176 298.19232,0.794385241" id="Fill-14" fill="#94847D" mask="url(#mask-4)"></path>
                </g>
            </g>
            <g id="Group-17" transform="translate(1684.000000, 226.000000)">
                <ellipse id="Oval-9" fill="#607F8A" cx="103.36661" cy="102.240996" rx="98.8230232" ry="98.8329632"></ellipse>
                <ellipse id="Oval-9" fill="#607F8A" opacity="0.3" cx="103.36661" cy="103.377007" rx="103.36661" ry="103.377007"></ellipse>
                <path d="M19.4712506,154.497506 C17.2025416,150.862165 15.1635042,147.06869 13.374448,143.137395 L193.358773,143.137395 C191.569717,147.06869 189.530679,150.862165 187.26197,154.497506 L19.4712506,154.497506 Z" id="Combined-Shape" fill="#6E919E"></path>
                <path d="M4.56918573,99.9689742 C4.840104,87.9574302 7.25374192,76.4748855 11.4428357,65.8886409 L195.290394,65.8886421 C199.479479,76.4748855 201.893117,87.9574302 202.164035,99.9689742 L4.56918573,99.9689742 Z" id="Combined-Shape" fill="#6E919E"></path>
            </g>
            <g id="Group-18" transform="translate(100.000000, 1557.000000)">
                <ellipse id="Oval-10" fill="#50638C" cx="104.831145" cy="104.841287" rx="100.835574" ry="100.845716"></ellipse>
                <ellipse id="Oval-10" fill="#50638C" opacity="0.3" cx="104.831145" cy="104.841287" rx="104.4002" ry="104.410701"></ellipse>
                <path d="M9.52739167,71.8145225 C23.2024734,32.3392101 60.7071362,3.99557078 104.831145,3.99557078 C149.855595,3.99557078 187.987779,33.5078342 200.942185,74.2450083 C193.544007,120.34098 153.591003,155.555607 105.414009,155.555607 C56.3937177,155.555607 15.8878436,119.097385 9.52739167,71.8145225 Z" id="Combined-Shape" fill="#577488"></path>
                <path d="M35.5999866,31.5201243 C53.6611831,14.4569136 78.0245981,3.99557078 104.831145,3.99557078 C134.655579,3.99557078 161.455819,16.9449846 179.917169,37.5285803 C165.135684,60.8199025 139.119913,76.2780496 109.494062,76.2780496 C77.3885885,76.2780496 49.5227983,58.1239839 35.5999866,31.5201243 Z" id="Combined-Shape" fill="#839363"></path>
            </g>
        </g>
    </g>
</svg>